<?xml version="1.0" encoding="utf-8"?>
<!-- Generator: Adobe Illustrator 28.0.0, SVG Export Plug-In . SVG Version: 6.00 Build 0)  -->
<svg version="1.1" id="Layer_1" xmlns="http://www.w3.org/2000/svg" xmlns:xlink="http://www.w3.org/1999/xlink" x="0px" y="0px"
	 viewBox="0 0 156 156" style="enable-background:new 0 0 156 156;" xml:space="preserve">
<style type="text/css">
	.st0{fill:#0000FF;}
	.st1{font-family:'MyriadPro-Regular';}
	.st2{font-size:23.782px;}
	.st3{fill-rule:evenodd;clip-rule:evenodd;fill:#0000FF;}
</style>
<g>
	<path class="st0" d="M75.9,147.3c-39.6,0-71.8-32.1-71.8-71.6l0,0c0-39.5,32.2-71.6,71.8-71.6s71.8,32.1,71.8,71.6
		S115.5,147.3,75.9,147.3z M75.9,13.9c-34.2,0-62,27.7-62,61.8s27.8,61.8,62,61.8s61.9-27.7,61.9-61.8S110.1,13.9,75.9,13.9z"/>
	<text transform="matrix(0.9987 0 0 1 39.4717 124.5986)" class="st0 st1 st2">D</text>
	<text transform="matrix(0.9987 0 0 1 53.4136 124.5986)" class="st0 st1 st2">E</text>
	<text transform="matrix(0.9987 0 0 1 66.3071 124.5986)" class="st0 st1 st2">C</text>
	<text transform="matrix(0.9987 0 0 1 80.229 124.5986)" class="st0 st1 st2">O</text>
	<text transform="matrix(0.9987 0 0 1 95.2192 124.5986)" class="st0 st1 st2">N</text>
	<path class="st3" d="M32.1,49.8c0-5.8,4.7-10.6,10.6-10.6l0,0l0,0c5.8,0,10.6,4.8,10.6,10.6l0,0l0,0c0,5.8-4.7,10.6-10.6,10.6l0,0
		l0,0C36.8,60.5,32.1,55.7,32.1,49.8L32.1,49.8L32.1,49.8z"/>
	<path class="st0" d="M42.6,61c-6.1,0-11.1-5-11.1-11.1s5-11.1,11.1-11.1s11.1,5,11.1,11.1C53.7,56,48.8,61,42.6,61z M42.6,39.8
		c-5.5,0-10.1,4.5-10.1,10.1s4.5,10.1,10.1,10.1s10.1-4.5,10.1-10.1S48.2,39.8,42.6,39.8z"/>
	<path class="st3" d="M102.3,49.6c0-6,4.8-10.9,10.8-10.9l0,0l0,0c6,0,10.8,4.9,10.8,10.9l0,0l0,0c0,6-4.8,10.9-10.8,10.9l0,0l0,0
		C107.1,60.5,102.3,55.6,102.3,49.6L102.3,49.6L102.3,49.6z"/>
	<path class="st0" d="M113.1,61c-6.3,0-11.4-5.1-11.4-11.4s5.1-11.4,11.4-11.4c6.3,0,11.4,5.1,11.4,11.4
		C124.5,55.9,119.4,61,113.1,61z M113.1,39.2c-5.7,0-10.3,4.6-10.3,10.3s4.6,10.3,10.3,10.3s10.3-4.6,10.3-10.3
		C123.4,43.9,118.8,39.2,113.1,39.2z"/>
	<path class="st0" d="M101.2,103.1h-3.1C98.2,71.2,73.5,44.4,42,42l0.2-3.1C75.3,41.4,101.2,69.6,101.2,103.1z"/>
	<path class="st0" d="M56.8,102.6h-3.1c0-33.5,25.9-61.7,59-64.2l0.2,3.1C81.5,43.9,56.8,70.7,56.8,102.6z"/>
</g>
</svg>
