<?xml version="1.0" encoding="utf-8"?>
<!-- Generator: Adobe Illustrator 28.0.0, SVG Export Plug-In . SVG Version: 6.00 Build 0)  -->
<svg version="1.1" id="Layer_1" xmlns="http://www.w3.org/2000/svg" xmlns:xlink="http://www.w3.org/1999/xlink" x="0px" y="0px"
	 viewBox="0 0 156 156" width="156px" height="156px" style="enable-background:new 0 0 156 156;" xml:space="preserve">
<style type="text/css">
	.st0{fill:#0000FF;}
	.st1{font-family:'Arial'; font-weight: 600;}
	.st2{font-size:25.9078px;}
</style>
<g>
	<text transform="matrix(0.9959 0 0 1 38.4268 131.2695)" class="st0 st1 st2">D</text>
	<text transform="matrix(0.9959 0 0 1 53.5723 131.2695)" class="st0 st1 st2">E</text>
	<text transform="matrix(0.9959 0 0 1 67.5791 131.2695)" class="st0 st1 st2">C</text>
	<text transform="matrix(0.9959 0 0 1 82.7031 131.2695)" class="st0 st1 st2">O</text>
	<text transform="matrix(0.9959 0 0 1 98.9873 131.2695)" class="st0 st1 st2">N</text>
</g>
<g>
	<path class="st0" d="M78,0C35,0,0,35,0,78s35,78,78,78s78-35,78-78S121,0,78,0z M78,145.3c-37.2,0-67.4-30.2-67.4-67.3
		c0-37.1,30.2-67.3,67.4-67.3s67.2,30.2,67.2,67.3S115.2,145.3,78,145.3z"/>
	<path class="st0" d="M118.4,37.1c-1.3,0-2.5,0.2-3.6,0.5c-13.4,1.6-25.6,7.2-35.5,15.4c-9.6-7.8-21.2-13-34-14.8
		c-1.1-0.4-2.3-0.5-3.6-0.5c-6.6,0-12.1,5.4-12.1,12.1S35.2,62,41.8,62c6.7,0,12.1-5.4,12.1-12.1c0-2.6-0.8-4.9-2.2-6.9
		c9.3,2.3,17.8,6.6,25.1,12.3c-14.1,12.9-22.9,31.5-22.9,52h3.4c0-19.6,8.6-37.5,22.2-49.8c14,12.3,22.8,30.4,22.7,50.3h3.4
		c0-20.7-9.1-39.6-23.5-52.5c7.6-6.2,16.6-10.8,26.4-13.1c-1.5,2.1-2.4,4.6-2.4,7.3c0,6.9,5.5,12.4,12.4,12.4
		c6.8,0,12.4-5.6,12.4-12.4C130.8,42.7,125.3,37.1,118.4,37.1z"/>
</g>
</svg>
