<?xml version="1.0" encoding="utf-8"?>
<!-- Generator: Adobe Illustrator 28.0.0, SVG Export Plug-In . SVG Version: 6.00 Build 0)  -->
<svg version="1.1" id="Layer_1" xmlns="http://www.w3.org/2000/svg" xmlns:xlink="http://www.w3.org/1999/xlink" x="0px" y="0px"
	 viewBox="0 0 156 156" style="enable-background:new 0 0 156 156;" xml:space="preserve">
<style type="text/css">
	.st0{fill-rule:evenodd;clip-rule:evenodd;fill:#FFFFFF;}
	.st1{fill:#0000FF;}
	.st2{font-family:'MyriadPro-Regular';}
	.st3{font-size:23.782px;}
	.st4{letter-spacing:-1;}
	.st5{letter-spacing:1;}
	.st6{fill-rule:evenodd;clip-rule:evenodd;fill:#0000FF;}
	.st7{fill:none;}
</style>
<g>
	<polygon class="st0" points="1.63,0 154.37,0 154.37,156 1.63,156 1.63,0 	"/>
	<polygon class="st0" points="3.66,3.58 148.23,3.58 148.23,147.82 3.66,147.82 3.66,3.58 	"/>
	<path class="st1" d="M75.95,147.31c-39.58,0-71.78-32.12-71.78-71.6v0c0-39.48,32.2-71.6,71.78-71.6s71.78,32.12,71.78,71.6
		S115.52,147.31,75.95,147.31z M75.95,13.92c-34.16,0-61.95,27.72-61.95,61.78s27.79,61.78,61.95,61.78s61.95-27.72,61.95-61.78
		C137.9,41.64,110.11,13.92,75.95,13.92z"/>
	<text transform="matrix(0.9987 0 0 1 39.4718 124.5986)"><tspan x="0" y="0" class="st1 st2 st3 st4">D</tspan><tspan x="13.96" y="0" class="st1 st2 st3 st5">E</tspan><tspan x="26.87" y="0" class="st1 st2 st3">C</tspan><tspan x="40.81" y="0" class="st1 st2 st3 st4">O</tspan><tspan x="55.82" y="0" class="st1 st2 st3">N</tspan></text>
	<path class="st6" d="M32.06,49.85c0-5.85,4.74-10.6,10.58-10.6l0,0l0,0c5.85,0,10.58,4.75,10.58,10.6l0,0l0,0
		c0,5.85-4.74,10.6-10.58,10.6l0,0l0,0C36.8,60.45,32.06,55.71,32.06,49.85L32.06,49.85L32.06,49.85z"/>
	<path class="st1" d="M42.64,60.97c-6.12,0-11.1-4.98-11.1-11.11c0-6.13,4.98-11.12,11.1-11.12s11.1,4.99,11.1,11.12
		C53.74,55.98,48.76,60.97,42.64,60.97z M42.64,39.77c-5.55,0-10.07,4.52-10.07,10.08c0,5.56,4.52,10.08,10.07,10.08
		s10.07-4.52,10.07-10.08C52.71,44.29,48.19,39.77,42.64,39.77z"/>
	<path class="st6" d="M102.28,49.59c0-6,4.85-10.86,10.84-10.86l0,0l0,0c5.99,0,10.84,4.86,10.84,10.86l0,0l0,0
		c0,6-4.85,10.86-10.84,10.86l0,0l0,0C107.13,60.45,102.28,55.59,102.28,49.59L102.28,49.59L102.28,49.59z"/>
	<path class="st1" d="M113.12,60.97c-6.26,0-11.36-5.1-11.36-11.37c0-6.27,5.09-11.38,11.36-11.38c6.26,0,11.36,5.1,11.36,11.38
		C124.48,55.87,119.39,60.97,113.12,60.97z M113.12,39.25c-5.69,0-10.32,4.64-10.32,10.34c0,5.7,4.63,10.34,10.32,10.34
		c5.69,0,10.33-4.64,10.33-10.34C123.45,43.89,118.82,39.25,113.12,39.25z"/>
	<path class="st1" d="M101.25,103.11h-3.1c0-31.89-24.67-58.73-56.16-61.1l0.23-3.09C75.32,41.4,101.25,69.6,101.25,103.11z"/>
	<path class="st1" d="M56.84,102.59h-3.1c0-33.51,25.93-61.7,59.03-64.19l0.24,3.09C81.52,43.86,56.84,70.69,56.84,102.59z"/>
	<polygon class="st7" points="2.1,155.53 153.9,155.53 153.9,0.47 2.1,0.47 2.1,155.53 	"/>
</g>
</svg>
