<?xml version="1.0" encoding="utf-8"?>
<!-- Generator: Adobe Illustrator 28.0.0, SVG Export Plug-In . SVG Version: 6.00 Build 0)  -->
<svg version="1.1" id="Layer_1" xmlns="http://www.w3.org/2000/svg" xmlns:xlink="http://www.w3.org/1999/xlink" x="0px" y="0px"
	 viewBox="0 0 156 156" width="156px" height="156px"  style="enable-background:new 0 0 156 156;" xml:space="preserve">
<style type="text/css">
	.st0{fill:#0000FF;}
</style>
<g>
	<path class="st0" d="M153.2,74.1l2.8-2.2l-20.7-26.4l-0.1,0.1l-22.4-6.2L126,16.9H73.3l8.1,13.8L65,26.2l-0.1,0.4l-0.3-0.5L0,61.8
		l1,1.9l0,0l0.1,0.2L2.9,67l0.2-0.1L25.8,103l5-3.2L8.3,64l57.1-31.5l20.4,5.6l13.9,23.5l10-16.9l22.3,6.2l15.9,20.2l-64.3,50.8
		l-24.6-8.6l-2,5.6l27.8,9.7l0.1-0.3l68.5-54.2L153.2,74.1z M82.5,22.2h34.3l-9.3,15.7l-18.8-5.2L82.5,22.2z M99.6,51.3l-6.6-11.1
		l11.3,3.1L99.6,51.3z"/>
	<polygon class="st0" points="53.7,88.9 53.7,88.9 57.5,84.5 45.1,73.6 41.2,78 49.3,85 22.7,115.3 14.7,108.2 10.9,112.6 
		23.3,123.6 27.2,119.2 27.1,119.2 	"/>
	<polygon class="st0" points="63.5,97 71.4,104 75.2,99.6 62.8,88.7 58.9,93 59.1,93.2 29.2,127.2 29.3,127.3 28.5,128.1 41,139.1 
		44.8,134.7 36.7,127.5 	"/>
</g>
</svg>
