<?xml version="1.0" encoding="utf-8"?>
<!-- Generator: Adobe Illustrator 28.0.0, SVG Export Plug-In . SVG Version: 6.00 Build 0)  -->
<svg version="1.1" id="Layer_1" xmlns="http://www.w3.org/2000/svg" xmlns:xlink="http://www.w3.org/1999/xlink" x="0px" y="0px"
	 viewBox="0 0 156 156" style="enable-background:new 0 0 156 156;" xml:space="preserve">
<style type="text/css">
	.st0{fill:#0000FF;}
	.st1{enable-background:new    ;}
</style>
<g>
	<g>
		<path class="st0" d="M126.67,156H29.33V0h97.34V156z M40.99,144.34h74.03V11.66H40.99V144.34z"/>
	</g>
	<g>
		<rect x="37.59" y="79.79" class="st0" width="80.69" height="7.56"/>
	</g>
	<g>
		<rect x="38.62" y="60.71" class="st0" width="80.69" height="7.56"/>
	</g>
	<g class="st1">
		<path class="st0" d="M84.93,127.13h-7.16c-0.02-1.03-0.03-1.66-0.03-1.88c0-2.32,0.38-4.23,1.15-5.73c0.77-1.5,2.3-3.18,4.61-5.05
			c2.3-1.87,3.68-3.1,4.13-3.68c0.69-0.92,1.04-1.93,1.04-3.03c0-1.54-0.61-2.85-1.84-3.95c-1.23-1.1-2.88-1.64-4.96-1.64
			c-2,0-3.68,0.57-5.03,1.71c-1.35,1.14-2.27,2.88-2.78,5.22l-7.24-0.9c0.21-3.35,1.63-6.2,4.28-8.54
			c2.65-2.34,6.13-3.51,10.43-3.51c4.53,0,8.13,1.18,10.81,3.55c2.68,2.37,4.01,5.12,4.01,8.27c0,1.74-0.49,3.39-1.47,4.94
			c-0.98,1.55-3.08,3.67-6.3,6.35c-1.67,1.39-2.7,2.5-3.1,3.34C85.08,123.45,84.9,124.96,84.93,127.13z M77.77,137.75v-7.89h7.89
			v7.89H77.77z"/>
	</g>
	<g class="st1">
		<path class="st0" d="M78.61,57.97c-6.03,0-11.18-2.13-15.44-6.39c-4.26-4.26-6.39-9.4-6.39-15.43c0-6.03,2.13-11.17,6.39-15.43
			c4.26-4.26,9.41-6.39,15.44-6.39s11.18,2.13,15.44,6.39s6.39,9.4,6.39,15.43c0,6.03-2.13,11.17-6.39,15.43
			C89.79,55.84,84.65,57.97,78.61,57.97z M78.61,55.19c5.26,0,9.76-1.86,13.47-5.57c3.72-3.71,5.58-8.2,5.58-13.45
			c0-5.26-1.86-9.75-5.58-13.47c-3.72-3.72-8.21-5.58-13.47-5.58c-5.26,0-9.76,1.86-13.47,5.58c-3.72,3.72-5.58,8.21-5.58,13.47
			c0,5.26,1.86,9.74,5.58,13.45C68.86,53.33,73.35,55.19,78.61,55.19z M67.51,47.41H65.8c0.41-3.89,1.76-6.95,4.03-9.15
			c2.28-2.21,5.21-3.31,8.78-3.31c3.58,0,6.51,1.1,8.78,3.31c2.28,2.21,3.63,5.26,4.06,9.15h-1.74c-1.35-6.01-5.05-9.01-11.11-9.01
			C72.58,38.39,68.88,41.4,67.51,47.41z M71.67,32.67c-0.95,0-1.77-0.34-2.44-1.01c-0.67-0.67-1.01-1.49-1.01-2.44
			s0.34-1.77,1.01-2.44c0.67-0.67,1.49-1.01,2.44-1.01c0.97,0,1.8,0.34,2.47,1.01c0.67,0.67,1.01,1.49,1.01,2.44
			s-0.34,1.77-1.02,2.44C73.44,32.33,72.62,32.67,71.67,32.67z M85.57,32.67c-0.96,0-1.77-0.34-2.46-1.01
			c-0.68-0.67-1.02-1.49-1.02-2.44s0.34-1.77,1.02-2.44c0.68-0.67,1.5-1.01,2.46-1.01c0.95,0,1.77,0.34,2.44,1.01
			c0.67,0.67,1.01,1.49,1.01,2.44s-0.34,1.77-1.01,2.44C87.33,32.33,86.52,32.67,85.57,32.67z"/>
	</g>
</g>
</svg>
