<?xml version="1.0" encoding="utf-8"?>
<!-- Generator: Adobe Illustrator 28.0.0, SVG Export Plug-In . SVG Version: 6.00 Build 0)  -->
<svg version="1.1" id="Layer_1" xmlns="http://www.w3.org/2000/svg" xmlns:xlink="http://www.w3.org/1999/xlink" x="0px" y="0px"
	 viewBox="0 0 156 156" width="156px" height="156px"  style="enable-background:new 0 0 156 156;" xml:space="preserve">
<style type="text/css">
	.st0{enable-background:new    ;}
	.st1{fill:#FF1415;}
</style>
<g class="st0">
	<path class="st1" d="M0.8,61.1c1-0.2,1.9-0.5,2.9-0.8c0.8-0.2,1.6-0.4,2.4-0.7c0.3-0.1,0.4,0,0.5,0.3c1.5,5.6,3,11.3,4.5,16.9
		c2.3,8.4,4.5,16.8,6.8,25.3c0.1,0.5,0.1,0.5-0.3,0.6c-1.7,0.5-3.4,0.9-5.1,1.4c-0.3,0.1-0.4,0-0.5-0.3c-2.2-8.2-4.3-16.4-6.5-24.6
		c-1.5-5.7-3-11.4-4.5-17.1c0-0.1-0.1-0.1-0.1-0.2C0.8,61.7,0.8,61.4,0.8,61.1z"/>
	<path class="st1" d="M144.3,149.2c-1.5-0.2-2.9-0.5-4.2-0.7c-3.4-0.5-6.9-1.1-10.3-1.6c-3.2-0.5-6.5-1-9.7-1.5
		c-3.4-0.5-6.9-1.1-10.3-1.6c-3.6-0.6-7.1-1.1-10.7-1.7c-3.8-0.6-7.5-1.2-11.3-1.8c-3.6-0.6-7.2-1.1-10.7-1.7
		c-2.3-0.4-4.6-0.7-6.9-1.1c-0.1,0-0.2,0-0.3-0.1c-0.2,0-0.2-0.1-0.2-0.2c0.3-1.9,0.6-3.8,1-5.7c0-0.2,0.1-0.3,0.3-0.2
		c5.9,1,11.9,1.9,17.8,2.8c3.9,0.6,7.7,1.2,11.6,1.9c5.8,1,11.7,1.9,17.5,2.9c6.6,1.1,13.2,2.1,19.8,3.2c0.3,0.1,0.7,0.1,1,0.2
		c0.2,0,0.3,0,0.3-0.2c0.2-2.6,0.5-5.2,0.8-7.7c0.3-2.6,0.5-5.3,0.8-7.9c0.2-2.4,0.5-4.8,0.7-7.1c0.2-2.4,0.5-4.8,0.7-7.1
		s0.5-4.8,0.7-7.1c0.2-2.4,0.5-4.8,0.7-7.2c0.2-2.3,0.5-4.7,0.7-7c0.2-2.4,0.5-4.9,0.7-7.3c0.2-2.4,0.5-4.7,0.7-7.1
		c0.2-1.8,0.4-3.7,0.5-5.5c0-0.2,0.1-0.3,0.3-0.3c1.9,0.2,3.8,0.4,5.7,0.6c0.2,0,0.2,0.1,0.2,0.3c-0.3,3.1-0.6,6.2-1,9.3
		c-0.3,3.1-0.6,6.3-0.9,9.4c-0.3,3.4-0.7,6.7-1,10.1c-0.3,2.9-0.6,5.8-0.9,8.6c-0.3,3.1-0.6,6.3-1,9.4c-0.4,3.6-0.7,7.3-1.1,10.9
		c-0.4,3.9-0.8,7.8-1.2,11.7c-0.3,2.6-0.5,5.3-0.8,7.9C144.5,148.9,144.6,149.2,144.3,149.2z"/>
	<path class="st1" d="M55.9,46.9c-0.1,4.2-0.2,8.5-0.3,12.7c0,0.2-0.1,0.4-0.3,0.5c-6.4,5.3-12.8,10.6-19.2,16
		c-0.2,0.1-0.3,0.2-0.5,0.2c-3.3,0-6.7,0-10,0c-0.3,0-0.4-0.1-0.4-0.4c0.1-3.1,0.3-6.2,0.9-9.3c0.5-2.7,1.2-5.4,2-8.1
		c0.8-2.6,1.8-5.2,3-7.6C32,49.2,33,47.7,34,46c1.3-2.1,2.8-3.9,4.4-5.7c3.3-3.8,7.2-7,11.3-9.8c1-0.6,1.9-1.3,2.9-1.8
		c0.2-0.1,0.3-0.1,0.4,0.1c1,1.7,2,3.3,3.1,5c0.1,0.2,0.1,0.3,0.1,0.5C56.1,38.5,56,42.7,55.9,46.9C55.9,46.9,55.9,46.9,55.9,46.9z"
		/>
	<path class="st1" d="M90.5,129.9c-0.6,0.1-1.2,0.2-1.7,0.2c-2.2,0.1-4.4,0.3-6.7,0.4c-1.6,0.1-3.3,0.1-4.9,0.1
		c-1.7,0-3.3-0.2-5-0.5c-1.9-0.2-3.8-0.6-5.7-1.1c-3.5-0.9-6.9-2.1-10.1-3.6c-1.4-0.6-2.7-1.3-4.1-1.9c-0.3-0.1-0.3-0.2-0.2-0.5
		c5.9-9.7,11.8-19.5,17.6-29.2c0.2-0.3,0.3-0.3,0.5-0.1c1.3,0.7,2.7,1.3,4.2,1.6c0.3,0.1,0.4,0.2,0.5,0.5c0.7,3.7,1.3,7.4,2,11.1
		c0.4,2.2,0.8,4.3,1.2,6.5c0,0.2,0.1,0.4,0.3,0.5c4,5.2,8,10.5,12,15.7C90.3,129.6,90.4,129.7,90.5,129.9z"/>
	<path class="st1" d="M127.5,50.4c-2.6,0.4-5.1,0.8-7.6,1.2c-3.5,0.6-6.9,1.1-10.4,1.7c-0.2,0-0.3,0.1-0.5,0.1c-0.9,0-1.4,0.5-2,1.2
		c-3.2,4.1-6.4,8.1-9.7,12.1c-0.1,0.1-0.2,0.2-0.3,0.3c-0.4-0.7-0.8-1.4-1.2-2.1c-0.4-0.9-1-1.7-1.6-2.5c-0.5-0.6-1.1-1.2-1.8-1.7
		c-0.9-0.6-1.8-1.2-2.7-1.8c-0.3-0.2-0.3-0.3-0.1-0.6c1.8-3.2,3.5-6.3,5.3-9.5c3.8-6.7,7.6-13.5,11.3-20.2c0.2-0.3,0.3-0.3,0.6-0.1
		c1.2,0.7,2.2,1.5,3.3,2.4c1.4,1.1,2.8,2.2,4.1,3.4c1.4,1.3,2.7,2.5,4,3.9c1.1,1.2,2.1,2.3,3.1,3.6c0.7,0.9,1.4,1.9,2.1,2.8
		c0.7,1,1.4,2,2.1,3C126.3,48.4,126.8,49.3,127.5,50.4z"/>
	<path class="st1" d="M116.8,75.9c-5.6,0-11.1,0-16.7,0c-0.5,0-0.4,0-0.5-0.5c-0.1-0.6-0.1-1.1-0.2-1.7c-0.2-0.9-0.5-1.8-0.7-2.7
		c-0.1-0.2,0.1-0.3,0.2-0.5c2.1-2.6,4.2-5.2,6.4-7.9c1.5-1.9,3.1-3.8,4.6-5.7c0.2-0.2,0.3-0.3,0.6-0.3c5.1-0.8,10.3-1.6,15.4-2.3
		c1-0.2,2.1-0.3,3.1-0.5c0.3,0,0.4,0,0.5,0.3c1.1,2.5,1.9,5.1,2.6,7.7c0.3,1.3,0.7,2.6,0.9,3.9c0.3,1.7,0.6,3.4,0.7,5.1
		c0.1,1.5,0.3,3.1,0.2,4.6c0,0.3-0.1,0.4-0.4,0.4C128,75.9,122.4,75.9,116.8,75.9z"/>
	<path class="st1" d="M80,95.9c1.8,0,3.7-0.3,5.4-0.8c1.5-0.4,2.9-1.1,4.2-1.9c0.9-0.5,0.9-0.6,1.4,0.4c5.4,9.7,10.8,19.5,16.3,29.2
		c0.2,0.3,0.2,0.4-0.1,0.6c-1.1,0.8-2.2,1.5-3.4,2.1c-0.4,0.2-0.7,0.5-1.2,0.7c-1.2,0.4-2.3,1-3.5,1.4c-1,0.4-2,0.7-3,1
		c-0.5,0.1-0.9,0.3-1.4,0.4c-0.2,0-0.3,0-0.4-0.2c-4.1-5.6-8.2-11.3-12.4-16.9c-0.2-0.3-0.2-0.6-0.3-0.9c-0.9-4.9-1.8-9.8-2.8-14.7
		c-0.1-0.3,0-0.3,0.3-0.3C79.4,95.9,79.7,95.9,80,95.9z"/>
	<path class="st1" d="M106.9,19.9c1.1-0.4,2.2-0.7,3.3-1c11.5-3.7,23-7.3,34.5-11c2.1-0.7,4.1-1.3,6.2-2c0.3-0.1,0.4-0.1,0.4,0.3
		c-0.1,1.8-0.2,3.6-0.3,5.4c-0.1,1.8-0.2,3.5-0.3,5.3c-0.1,2.3-0.3,4.5-0.4,6.8c-0.1,1.8-0.2,3.5-0.3,5.3c-0.1,2.2-0.3,4.4-0.4,6.6
		c-0.1,1.8-0.2,3.6-0.3,5.3c-0.1,2.2-0.3,4.4-0.4,6.6c-0.1,1.7-0.2,3.3-0.3,5c0,0.3-0.1,0.3-0.4,0.3c-1.7-0.2-3.4-0.4-5.1-0.6
		c-0.3,0-0.4-0.1-0.3-0.4c0.1-1.8,0.2-3.6,0.3-5.4c0.1-2.3,0.3-4.6,0.4-7c0.2-2.8,0.3-5.5,0.5-8.3c0.1-2.3,0.3-4.5,0.4-6.8
		c0.2-2.8,0.3-5.5,0.5-8.3c0-0.6,0.1-1.2,0.1-1.7c0-0.3,0-0.4-0.4-0.3c-1.9,0.6-3.7,1.2-5.6,1.8c-9.6,3.1-19.1,6.2-28.7,9.3
		c-0.3,0.1-0.4,0.1-0.5-0.2c-0.9-1.6-1.8-3.3-2.6-4.9C107,20.1,107,20,106.9,19.9z"/>
	<path class="st1" d="M91.8,76.1c0.1,1.6-0.3,3.3-0.9,4.9c-0.3,0.8-0.8,1.5-1.3,2.2c-0.5,0.7-1.1,1.4-1.8,2.1
		c-0.9,0.9-2.1,1.6-3.2,2.2c-0.9,0.5-1.9,0.7-2.9,0.9c-0.9,0.2-1.8,0.1-2.7,0.1c-1.5,0-2.9-0.3-4.2-0.8c-0.8-0.3-1.6-0.8-2.4-1.4
		c-0.5-0.3-0.9-0.8-1.4-1.1c-0.5-0.4-1-1-1.4-1.5c-0.9-1.1-1.6-2.3-2-3.7c-0.2-0.8-0.5-1.7-0.5-2.6c0-0.7-0.1-1.3,0-2
		c0-0.8,0.1-1.7,0.4-2.5c0.1-0.3,0.1-0.7,0.2-1c0.5-1.5,1.4-2.9,2.4-4.1c0.7-0.8,1.4-1.5,2.3-2.1c0.5-0.3,1-0.6,1.4-0.8
		c0.7-0.4,1.4-0.7,2.2-0.8c0.8-0.2,1.6-0.4,2.4-0.4c0.6,0,1.1,0,1.7,0c1.2,0.1,2.3,0.3,3.4,0.7c0.9,0.3,1.7,0.8,2.5,1.2
		c1.3,0.7,2.2,1.8,3.2,2.9c0.6,0.7,1.1,1.4,1.4,2.3c0.1,0.4,0.4,0.9,0.5,1.3C91.6,73.2,91.8,74.6,91.8,76.1z"/>
	<path class="st1" d="M5.2,29.4C5.1,25.7,4.9,22,4.7,18.3c-0.1-2.5-0.2-5-0.3-7.5C4.3,9.5,4.3,8.3,4.2,7.1c0-0.3,0.1-0.4,0.4-0.4
		C7,6.3,9.3,6,11.7,5.6c2.5-0.4,5-0.7,7.6-1.1c2.9-0.4,5.7-0.8,8.6-1.3c2.7-0.4,5.4-0.8,8.1-1.2c2.5-0.4,5-0.7,7.6-1.1
		c0.9-0.1,1.8-0.2,2.7-0.2c0.2,0,0.3,0.1,0.3,0.3c0.3,1.6,0.6,3.2,0.9,4.8c0,0.3,0,0.4-0.3,0.4c-3.1,0.4-6.1,0.9-9.2,1.3
		c-4.3,0.6-8.7,1.3-13,1.9c-4.2,0.6-8.4,1.2-12.5,1.8c-0.5,0.1-1,0.2-1.5,0.2c-0.2,0-0.3,0.1-0.3,0.4c0.1,2,0.2,4.1,0.3,6.1
		c0.1,2.2,0.2,4.4,0.3,6.6c0.1,3.5,0.3,7,0.4,10.5c0.1,2.8,0.2,5.5,0.3,8.3c0.1,2.7,0.2,5.3,0.3,8c0,0.3,0,0.4-0.3,0.4
		c-1.7,0.1-3.4,0.1-5,0.2c-0.3,0-0.4,0-0.4-0.4C6,48,5.9,44.2,5.7,40.5c-0.1-3.1-0.3-6.2-0.4-9.4C5.3,30.5,5.2,30,5.2,29.4
		C5.2,29.4,5.2,29.4,5.2,29.4z"/>
	<path class="st1" d="M54.9,146.4c-0.3,1.2-0.5,2.3-0.8,3.4c-0.2,0.7-0.3,1.5-0.5,2.2c-0.1,0.3-0.2,0.3-0.4,0.3
		c-4.6-1-9.1-2.1-13.7-3.1c-7.3-1.7-14.7-3.4-22-5c-1.5-0.3-2.9-0.7-4.4-1c-0.3-0.1-0.4-0.2-0.4-0.4c-2.1-8-4.2-16.1-6.3-24.1
		c-0.1-0.2,0-0.3,0.2-0.4c1.7-0.5,3.5-0.9,5.2-1.4c0.3-0.1,0.3,0,0.4,0.2c1.6,6.2,3.2,12.5,4.8,18.7c0.2,0.7,0.4,1.5,0.6,2.2
		c0.1,0.2,0.2,0.4,0.4,0.4c7.5,1.6,15,3.2,22.5,4.8c4.7,1,9.4,2,14.1,3C54.7,146.3,54.9,146.2,54.9,146.4z"/>
	<path class="st1" d="M75,9.9c9.9,0,19.9,0,29.8,0c0.4,0,0.5,0.1,0.5,0.5c0,1.7,0,3.5,0,5.2c0,0.3-0.1,0.4-0.4,0.4
		c-11.4,0-22.8,0-34.2,0c-8.5,0-16.9,0-25.4,0c-0.4,0-0.5-0.1-0.5-0.5c0-1.7,0-3.5,0-5.2c0-0.4,0.1-0.4,0.4-0.4
		C55.1,9.9,65,9.9,75,9.9z"/>
	<path class="st1" d="M42,76.2c0.5-0.4,1-0.8,1.4-1.2c5.1-4.4,10.3-8.8,15.4-13.2c0.2-0.2,0.3-0.4,0.3-0.7c0.1-4.5,0.3-9,0.4-13.5
		c0.1-2.2,0.1-4.3,0.2-6.5c0-0.2,0-0.4,0-0.6c0.2,0,0.2,0.2,0.2,0.2c3.3,5.8,6.6,11.6,10,17.4c0.2,0.3,0.2,0.4-0.1,0.6
		c-1.4,1-2.9,2-4.1,3.2c-1.1,1.2-2.2,2.5-3.1,3.9c-1.3,2-1.9,4.3-2.5,6.5c-0.3,1-0.4,2-0.4,3c0,0.3-0.2,0.4-0.5,0.4c-1,0-2,0-2.9,0
		c-3.7,0.1-7.5,0.2-11.2,0.2C44.2,76.3,43.1,76.2,42,76.2z"/>
</g>
</svg>
