<?xml version="1.0" encoding="utf-8"?>
<!-- Generator: Adobe Illustrator 28.0.0, SVG Export Plug-In . SVG Version: 6.00 Build 0)  -->
<svg version="1.1" id="Layer_1" xmlns="http://www.w3.org/2000/svg" xmlns:xlink="http://www.w3.org/1999/xlink" x="0px" y="0px"
	 viewBox="0 0 156 156" width="156px" height="156px"  style="enable-background:new 0 0 156 156;" xml:space="preserve">
<style type="text/css">
	.st0{fill:#FF0000;}
</style>
<g>
	<path class="st0" d="M45.2,0c0.2,1.8,0.5,3.6,0.8,5.5C33.2,7.6,20.5,9.9,7.7,12c0.7,13.6,1.3,27,2,40.5c-1.7,0.1-3.4,0.2-5.2,0.3
		c-0.1-0.4-0.1-0.9-0.1-1.3c-0.1-2.2-0.2-4.6-0.3-6.8c-0.1-2.8-0.3-5.5-0.4-8.3c-0.1-2.2-0.2-4.6-0.3-6.8C3.3,26.7,3.1,23.8,3,21
		c-0.1-2.1-0.2-4.3-0.3-6.4c-0.1-2.4-0.2-4.7-0.3-7c0-0.3,0-0.4,0.3-0.4c2.9-0.4,5.8-1,8.7-1.5c2.9-0.4,5.8-1,8.7-1.5
		c2.7-0.4,5.5-0.9,8.2-1.5c2.5-0.4,5.2-0.9,7.7-1.3c2.6-0.4,5.4-0.9,8-1.3c0,0,0.1,0,0.1-0.1C44.5,0,44.9,0,45.2,0z"/>
	<path class="st0" d="M0.1,62.2c1.4-0.4,2.8-0.9,4.4-1.3c4,15.1,7.8,30.2,11.8,45.3c-1.6,0.6-3.2,1-5,1.6c-0.4-1.8-0.9-3.5-1.3-5.2
		c-2.2-8.4-4.5-16.9-6.7-25.3c-1-3.9-2-7.9-3-11.8c0-0.1-0.1-0.3-0.2-0.4C0.1,64,0.1,63.1,0.1,62.2z"/>
	<path class="st0" d="M93.1,88.8c-0.6,0-1.1,0-1.7,0c-0.3,0-0.6,0.1-0.8,0.2c-0.7,0.3-1.2,0.9-2.1,0.7c0,0.6,0,1,0,1.5
		c0,0.2-0.1,0.3-0.3,0.3c-0.6,0-1.1,0-1.7,0c-0.8-0.1-1.6,0.1-2.3,0.6c-0.3,0.2-0.6,0.2-1,0.2c-0.9,0-1.9,0-2.8,0
		c-0.4,0-0.7-0.1-1.1-0.2c-0.5-0.3-1.1-0.7-1.7-0.6c-0.1,0-0.2-0.1-0.4-0.2c-0.6-0.4-1.3-0.9-1.9-1.3c-0.1-0.1-0.3-0.1-0.5-0.1
		c-0.9,0-1.6-0.4-2.2-1.1c-0.5-0.6-1-0.9-1.7-0.8c-0.1,0-0.1,0-0.2,0c-0.3,0-0.4-0.1-0.5-0.3c-0.3-1.1-0.9-1.7-1.9-2.1
		c-0.2-0.1-0.4-0.3-0.5-0.6c-0.3-0.4-0.4-1.1-0.7-1.5c-0.6-0.6-0.7-1.2-0.6-2c0-0.2,0-0.6,0-0.8c0.1-0.6-0.1-0.9-0.6-1
		c-0.9-0.2-1.2-0.9-1-1.9c0.1-0.7-0.1-1.5,0.1-2.1c0.2-0.6,0.8-1,1.3-1.6c0.2-0.2,0.2-0.4,0.3-0.7c0-0.3,0.1-0.7,0.2-1
		c0.4-0.8,0.7-1.6,0.6-2.5c-0.1-0.7,0-0.7-0.7-0.8h-0.1v-1c0-0.7,0-0.7-0.6-0.7h-1.8c0-0.2,0-0.3,0-0.3c0-0.4-0.1-0.6-0.5-0.4
		c-0.3,0-0.7,0-1.1,0v-1.8h-0.7c-0.1-0.9,0-1.7,0.4-2.5c0.3-0.4,0.6-0.8,0.9-1.1c0.2-0.2,0.3-0.3,0.3-0.7c0-2.6,0-5.2,0-7.7
		c0-0.1,0-0.2,0-0.4h-0.4c-0.8,0-0.9,0-1.1-0.9c-0.1-0.2,0-0.6,0-0.8c0-0.2-0.1-0.4-0.2-0.6c-0.5-0.7-1.1-1.3-1.7-1.9
		c-0.1-0.1-0.3-0.2-0.5-0.2c-0.3,0-0.6,0-0.8-0.1c-0.7-0.3-1.3-0.7-1.8-1.3c-0.1-0.2-0.3-0.3-0.5-0.4v-1.6c-0.1,0-0.1,0-0.1,0
		c-2.8,0-5.6,0-8.4,0c-0.1,0-0.2,0.1-0.3,0.2c-0.2,0.4-0.4,0.8-0.5,1.2c-0.1,0.2-0.2,0.3-0.5,0.3c-0.5,0-1.1,0-1.6,0
		c0,0.3,0,0.7,0,1c0,0.3-0.1,0.7-0.3,0.9c-0.9,0.9-1.7,1.9-2.6,2.9c-0.1,0.1-0.2,0.4-0.2,0.7c0,2.2,0,4.4,0,6.6c0,0.6,0.1,1,0.3,1.5
		c0.3,0.6,0.6,1.2,0.5,2c0,0.1,0.1,0.2,0.2,0.3c0.6,0.7,1.1,1.2,1.7,1.9c0.1,0.1,0.3,0.2,0.5,0.4v0.8h1.6v0.9h0.5c1.3,0,2.5,0,3.9,0
		c0.2,0,0.5,0.1,0.7,0.2c0.7,0.6,1.4,1,2.1,1.6c0.3,0.2,0.5,0.2,0.7-0.1c0.4-0.4,0.9-1,1.3-1.5c0.1-0.1,0.4-0.2,0.5-0.2
		c1,0,2,0,3.1,0c0.3,0,0.5-0.1,0.8-0.2c0.5-0.2,1.1-0.6,1.7-0.9c-0.2,0.4-0.4,0.8-0.5,1.1c-0.4,1-1.2,1.2-1.9,1.5
		c-0.5,0.1-1,0.2-1.4,0.6c-0.3,0.2-0.6,0.4-0.9,0.7c-0.4,0.3-0.8,0.7-1.4,0.6c-0.1,0-0.2,0-0.4,0.1c-0.6,0.2-1.2,0.4-1.8,0.7
		c-0.2,0-0.4,0-0.6,0c-0.9-0.6-1.8-0.9-2.8-0.7c-0.1,0-0.2,0-0.4,0c-0.4,0-0.9,0.1-1.2-0.1s-0.4-0.8-0.6-1.2
		c-0.1-0.4-0.4-0.6-0.8-0.6c-0.7,0.1-1.3,0-1.8-0.8c-0.1-0.2-0.4-0.3-0.5-0.4c-0.7-0.6-1.4-0.9-2-1.6c-0.5-0.6-1-1-1.7-1.2
		c-0.5-0.2-0.7-0.6-0.9-1c-0.3-0.7-0.5-1.3-0.4-2.1c0-0.7,0-1.5,0-2.1c0-0.2-0.1-0.4-0.3-0.6c-0.4-0.2-0.7-0.4-1-0.6
		c-0.2-0.1-0.3-0.2-0.2-0.4c0-0.4,0-0.9,0-1.3c-0.1-0.7,0.1-1.1,0.7-1.3c0.7-0.2,1-0.8,0.9-1.6c-0.1-1.1,0.1-2.1,0.4-3.1
		c0.1-0.3,0.2-0.8,0.3-1.2c-0.3,0-0.5,0-0.8,0c0-0.1,0-0.2,0-0.4c0-0.3-0.1-0.6-0.4-0.4c-0.4,0-0.8,0-1.1,0V46c0-0.6,0-0.6-0.5-0.6
		c-0.3,0-0.5-0.1-0.7-0.3c-0.2-0.2-0.3-0.3-0.5-0.6c-0.1,0-0.1,0-0.1,0c-1.3,1.5-2.6,2.9-4,4.4c-0.1,0.1-0.1,0.1-0.1,0.2
		c-0.8,1.3-1.7,2.7-2.5,4c-0.5,0.8-1,1.6-1.6,2.1c-0.7,0.8-1.4,1.6-2,2.2c-0.1,0.1-0.2,0.2-0.2,0.3c-0.8,1.7-1.5,3.4-2.2,5
		c-0.1,0.3-0.1,0.9,0,1.2c0.3,0.6,0.8,1,1.6,0.9H25c0.5-0.1,0.7,0.1,0.9,0.6c0.1,0.4,0.3,0.9,0.6,1.1c0.6,0.4,1.2,1,2.1,0.9
		c0.1,0,0.3,0,0.3,0.1c0.3,0.7,0.8,1.3,0.7,2.1c0,0.3,0.1,0.4,0.4,0.4s0.7,0,1.1,0c0.1,0,0.3,0.1,0.4,0.2c0.4,0.6,0.9,0.8,1.5,0.7
		c0.1,0,0.1,0,0.2,0c0.4-0.1,0.6,0.1,0.7,0.4c0.3,1,0.8,1.6,1.7,1.9c0.3,0.1,0.6,0.2,0.9,0.2c0.3,0,0.5,0.1,0.7,0.3
		c1.1,1.2,2.2,2.5,3.5,3.6c1.2,1,2.4,1.8,4,2.2c0.2,0.1,0.4,0.2,0.5,0.3c0.7,0.7,1.3,1.5,2,2.2c0.1,0.1,0.3,0.2,0.4,0.3
		c1,0.4,1.8,1.1,2.5,2c0.3,0.4,0.7,0.8,1,1.1c0.2,0.2,0.4,0.3,0.6,0.4c1.1,0.6,2.2,1,3.3,1.5c0.2,0.1,0.4,0.2,0.5,0.3
		c0.7,0.7,1.3,1.6,2.1,2c1.1,0.8,2.1,1.7,3,2.8c0.5,0.6,1.1,1.1,1.7,1.6c1.2,0.9,2.5,1.8,3.9,2.7c0.1,0.1,0.3,0.2,0.4,0.4
		c0.4,0.7,0.8,1.5,1.3,2.1c0.1,0.1,0.3,0.3,0.5,0.3c0.7,0.3,1.5,0.6,2.2,0.9c1.5,0.4,2.8,1.1,4.1,2.4c0.4,0.4,0.9,0.7,1.3,1.1
		c-0.4,0.9-0.8,1.8-1.2,2.7c-0.2,0.6-0.6,1-1,1.3c-1.2,1-2.3,2-3.4,3.1c-1.6,1.5-2.8,3.3-3.6,5.5c0,0.1-0.1,0.2-0.2,0.3
		c0,0.1-0.1,0.2-0.1,0.3c0.3,0,0.5,0,0.8,0v1.1c0,0.8,0,0.7,0.6,0.7c0.1,0,0.1,0,0.2,0c0,0.3,0,0.6,0,0.9c0.2-0.1,0.3-0.2,0.4-0.3
		c0.6-0.6,1.2-1.1,1.8-1.8c1.7-1.7,3.5-3.4,5.3-5.2c2.1-2.2,4.2-4.6,6.2-6.8c0.1-0.1,0.2-0.2,0.3-0.3c1.5-2.2,3-4.4,4.6-6.5
		c0.3-0.4,0.6-0.9,1-1.3c0.7-0.7,1.4-1.3,2.1-2.1c1.4-1.5,2.7-3,4.2-4.6c0.1-0.1,0.2-0.3,0.2-0.4c0-0.8,0-1.5,0-2.2
		C93.5,88.9,93.4,88.8,93.1,88.8z M61,60c0,0.1-0.1,0.3-0.2,0.4c-0.7,0.7-0.9,1.7-1.3,2.6c-0.1,0.2-0.1,0.4-0.2,0.6
		c-0.3,0.2-0.7,0.4-1,0.4c-1.1,0-2.3,0-3.4,0c-0.3,0-0.5,0.1-0.7,0.3c-0.3,0.3-0.6,0.8-1,1.1c-0.6-0.4-1.2-0.9-1.7-1.3
		c-0.2-0.1-0.4-0.2-0.6-0.2c-1,0-1.9,0-3,0c0-0.3,0-0.6,0-0.9h-1.5c0-0.3,0-0.6,0-0.9c-0.1,0-0.2,0-0.4,0c-0.9,0.2-1.4-0.4-1.9-1
		c0-0.1-0.1-0.1-0.1-0.2c0.1-0.8-0.4-1.3-0.6-2c-0.2-0.2-0.2-0.6-0.3-0.8c0-1.8,0-3.6,0-5.5c0-0.2,0.1-0.6,0.2-0.7
		c0.9-1,1.8-2,2.6-2.9c0.1-0.1,0.2-0.3,0.4-0.6h0.1c0.8,0.2,1.3-0.2,1.5-1c0.2-0.6,0.5-0.8,1-0.8c1.5,0,3,0,4.6,0
		c0.3,0,0.4,0.1,0.4,0.4c0,0.4,0,0.9,0,1.3c0.3,0,0.6,0,0.9,0c0.3,0,0.5,0.1,0.6,0.2c0.6,0.8,1.5,1,2.3,1.5l0,0
		c0.8-0.2,1.1,0.6,1.5,1c0,0,0.1,0.1,0.1,0.2c-0.1,0.7,0.3,1.2,0.5,1.8c0.1,0.3,0.3,0.7,0.4,1c0.1,0.2,0.2,0.4,0.4,0.3
		c0.1,0,0.2,0.2,0.2,0.2C61,56.5,61,58.2,61,60z"/>
	<path class="st0" d="M49.7,113.8c0.2-1-0.3-1.7-0.7-2.5c0-0.1-0.3-0.2-0.4-0.2c-1.3,0-2.7,0-4.1,0c-0.1,0-0.3,0-0.4,0
		c0-0.3,0-0.6,0-0.9c-0.3,0-0.5,0-0.7,0v-0.1c-0.1-0.8-0.1-0.8-0.8-0.8c-0.2,0-0.4,0-0.6,0c-1.1-0.1-2.2,0.1-3.2,0.8
		c-0.1,0.1-0.2,0.1-0.4,0.1c-1.2,0-2.4,0-3.6,0c0,0-0.1,0-0.2,0c0-0.1,0-0.3,0-0.4c0-1.5,0-2.9,0-4.5c0-0.3-0.1-0.4-0.3-0.6
		c-0.8-0.6-1.7-0.9-2.7-0.7c-0.1,0-0.1,0-0.2,0c-0.7,0.2-1.1-0.2-1.5-0.8c-0.1-0.1-0.1-0.3-0.1-0.4c0-1.2,0-2.4,0-3.6
		c0-0.1,0-0.3,0-0.4c-0.8,0-1.6,0-2.3,0c0-0.1-0.1-0.1-0.1-0.1c0-0.2,0-0.6-0.1-0.7c-0.1-0.1-0.4,0-0.6-0.1
		c-0.4-0.1-0.9-0.4-1.3-0.6c-0.2-0.1-0.5-0.2-0.7-0.2c-0.6,0-1.1,0-1.7,0c-0.2,0-0.4,0-0.5-0.3c0-0.1-0.1-0.2-0.2-0.4
		c-0.3-0.6-0.5-1.2-0.5-1.9c0-0.9,0-1.7,0-2.6c0.6,0,1.2,0,1.8,0c0.7,0,0.8,0,1.3-0.8c-0.2,0-0.4,0-0.7,0c0-0.8,0-1.5,0-2.2
		c0-0.3-0.1-0.6-0.3-0.8c-0.2-0.2-0.3-0.3-0.5-0.6c-0.4-0.4-0.8-1.1-1.5-0.8c0-0.1-0.1-0.1-0.1-0.1c0.1-0.7-0.2-1.1-0.6-1.6
		c-0.1-0.1-0.2-0.3-0.2-0.6c0-0.4,0-0.9,0-1.3c-0.4,0-0.8,0-1.2,0c-0.2,0-0.3-0.1-0.3-0.3c0-0.7,0-1.3,0-2c0-0.1,0.1-0.3,0.3-0.4
		c0.4-0.2,0.8-0.4,1.2-0.7c0.3-0.1,0.6-0.1,0.9-0.2c0-0.3,0-0.8,0-1.2s0-0.8,0-1.2c-0.1,0-0.2,0-0.3,0c-0.6,0-0.5,0.1-0.5-0.7
		c0-0.7,0-1.3,0-2c0.1,0,0.1,0,0.1-0.1c0.8-0.1,0.8-0.1,0.8-0.9c0-0.2,0-0.6,0-0.9c-0.3,0-0.5,0-0.8,0c0-0.9,0-1.7,0-2.7
		c0.2,0.2,0.4,0.4,0.6,0.7c0.1,0.1,0.3,0.2,0.5,0.2c0.4,0,0.6,0.1,0.9,0.3c0.5,0.4,1.1,0.8,1.6,1.2c0.2,0.2,0.4,0.3,0.3,0.7
		c-0.1,0.3,0.1,0.4,0.4,0.6c0.6,0.2,1.2,0.4,1.8,0.7c0.1,0,0.3,0.1,0.4,0.1c0.5-0.1,0.8,0.2,1.1,0.6c1.3,1.6,2.7,3,4.2,4.5
		c0.1,0.1,0.3,0.1,0.5,0.2c0.1,0,0.3,0,0.4,0c1-0.2,1.6,0.4,1.9,1.3c0.4,1,0.9,1.6,1.8,2c0.8,0.4,1.6,1.1,2.4,1.7
		c0.3,0.2,0.5,0.3,0.9,0.3c0.2,0,0.4,0,0.5,0.2c0.4,0.6,1,0.9,1.7,1.1c0.9,0.2,1.7,0.8,2.3,1.6c0.1,0.2,0.3,0.3,0.5,0.6
		c0.7,0.7,1.3,1.6,1.6,2.5c0.1,0.2,0.3,0.3,0.5,0.4c1.1,0.4,2.3,0.8,3.3,1.5c0.4,0.2,0.8,0.6,1.2,0.8c0.9,0.7,1.9,1.2,2.9,1.9
		c0.2,0.1,0.3,0.2,0.4,0.3c0.6,0.6,1.1,1.1,1.7,1.7c0.6,0.4,1.2,0.9,1.8,1.3c0.1,0.1,0.3,0.1,0.4,0.1c0.4-0.1,0.7,0.1,0.9,0.4
		c0.3,0.3,0.6,0.7,0.9,1c0.8,0.8,1.4,1.7,1.8,2.7c0.1,0.2,0.3,0.3,0.4,0.4c1.4,0.6,2.7,1,4.2,1.6c0.2,0.1,0.3,0.2,0.5,0.4
		c0.2,0.3,0.3,0.6,0.4,0.9c0.1,0.4,0.2,0.9,0.4,1.5c-0.3,0-0.5,0-0.6,0c-0.2,0-0.3,0.1-0.3,0.3c0,0.4,0,0.9,0,1.5
		c-0.8,0-1.6,0-2.4,0c0-0.6,0-1.1,0-1.7c-0.3,0-0.5,0-0.7,0c0,0.8,0,1.5,0,2.1c0,0.3-0.1,0.6-0.4,0.6c-0.4,0-0.7,0-1.1,0
		c0,0.3,0,0.6-0.1,0.9c-0.4-0.1-0.8-0.2-1.2-0.3c-0.2,0-0.3-0.2-0.5-0.2c-0.8-0.4-0.8-0.4-1.3,0.2c-0.1,0.1-0.2,0.3-0.2,0.4
		c0,0.7,0,1.3,0,2c0,0.2-0.1,0.4-0.2,0.6c-0.5,0.4-0.7,1-0.6,1.7c0,0.2,0,0.4,0,0.8c-0.7,0-1.4,0-2.1,0c-0.5,0-1,0-1.4,0
		c-0.3,0-0.5-0.1-0.6-0.3c-0.1-0.3-0.3-0.8-0.5-1.1c-0.1-0.1-0.2-0.2-0.4-0.2c-0.6,0-1.2,0-1.7,0c-0.2,0-0.5-0.1-0.6-0.2
		c-0.4-0.6-0.8-0.7-1.4-0.7C50.3,113.9,50.1,113.8,49.7,113.8z"/>
	<path class="st0" d="M146.5,153.8c-26.1-4.3-52-8.5-78.1-12.9c0.2-1.9,0.5-3.7,0.7-5.6c24.2,4,48.4,8,72.6,12
		c2.1-24.9,4.4-49.8,6.5-74.7c1.7,0.2,3.3,0.3,5.1,0.6C151,99.9,148.7,126.8,146.5,153.8z"/>
	<path class="st0" d="M118.3,112.1c-0.1-0.1-0.3-0.2-0.4-0.2c-0.4,0-0.8,0-1.2,0c0-0.3,0-0.6,0-0.9c-0.3,0-0.5,0-0.8,0
		c0-0.1,0-0.2,0-0.3c0-0.4-0.1-0.6-0.5-0.6c-0.4,0-0.7,0-1.1,0v-2.6h1.5c0.1-0.6,0.1-0.9-0.3-1.3c-0.3-0.3-0.6-0.7-0.9-1
		c-0.3-0.4-0.7-0.4-1.2-0.3v1.7h-2.4v0.9c-0.1,0-0.2,0-0.3,0c-1.9,0-4,0-5.9,0c-0.1,0-0.3,0-0.4-0.1c-1.4-0.7-1.4-0.7-2-2.2
		c-0.1-0.3-0.3-0.3-0.6-0.3c-0.4,0-0.8,0-1.2,0c0.2-0.9-0.2-1.5-0.5-2v-0.1c-0.1-0.4-0.3-0.6-0.7-0.6c-0.2,0-0.4,0-0.5-0.1
		c-0.4-0.2-0.8-0.3-1.1-0.7c-0.1-0.1-0.2-0.2-0.2-0.4c0-1.8,0-3.6,0-5.4c0-0.1,0.1-0.3,0.2-0.4c0.4-0.2,0.7-0.4,1.1-0.7
		c0.1,0,0.2-0.2,0.2-0.2c0-0.6,0-1,0-1.7h-0.7c-0.8,0-0.8,0-0.9-0.9c-0.7-0.1-0.7-0.1-1.1,0.4c-1.5,1.9-3.1,3.8-4.7,5.7
		c-1.6,2.1-3.1,4.3-4.7,6.5c-0.6,0.8-1.1,1.7-1.8,2.5c-1.3,1.3-2.6,2.6-4.1,3.8c-0.5,0.4-1.1,0.9-1.4,1.6c-1.5,2.5-2.9,4.9-4.5,7.4
		c-0.1,0.1-0.1,0.2-0.2,0.3h0.7c0.1,0.3,0.1,0.8,0.3,1c0.4,0.6,0.8,0.9,1.2,1.3c0.1,0.1,0.3,0.2,0.4,0.2c0.9,0,1.6,0.6,2.3,1.1
		c0.7,0.6,0.9,1.3,1.2,2.1c0.1,0.2,0.2,0.3,0.4,0.3c0.4,0,0.8,0,1.2,0c0,0.2,0,0.3,0,0.4c-0.1,0.4,0.1,0.6,0.4,0.4
		c0.3,0,0.5,0.1,0.7,0.3c0.6,0.7,1.2,1.3,1.8,2.1c0.2,0.2,0.4,0.2,0.6,0.2c3.1,0,6.3,0,9.4,0c0.5,0,0.8-0.1,1.1-0.6
		c0.2-0.3,0.5-0.4,0.8-0.4c2.3,0,4.7,0,7.1,0c0.1,0,0.3,0,0.5,0v-1.7c0.3-0.1,0.6-0.1,0.9-0.2c0.3-0.1,0.5-0.3,0.8-0.6
		c0.3-0.2,0.6-0.4,1-0.7c1.5-0.9,2.7-2,3.9-3.4c0.6-0.7,1.2-1.3,1.7-2.1c1.3-1.9,2.6-3.8,4.3-5.5c0.3-0.3,0.7-0.8,1-1.1
		C118.7,113.2,118.5,112.6,118.3,112.1z M102.9,124.1c-0.2,0.6-0.5,1.1-0.7,1.6c-0.1,0.1-0.3,0.2-0.4,0.2c-1.5,0-3.1,0-4.7,0
		c-0.7,0-1.4,0.3-2,0.6c-0.5,0.2-1.1,0.3-1.7,0.3c-1.9,0-4,0-5.9,0c-0.7,0-1-0.4-1.3-1c-0.3-0.4-0.4-1-0.7-1.5
		c-0.1-0.1-0.2-0.2-0.3-0.2c-0.1,0-0.2,0-0.3,0c-0.7,0.1-1.3-0.2-1.8-0.8c-0.6-0.6-1.4-1.1-2.4-1c0-0.4,0-0.8,0-1.2
		c0-0.3-0.1-0.7-0.3-0.9c-0.5-0.6-0.5-0.6-0.3-1.3c0-0.1,0.1-0.3,0.1-0.4c0.2-0.9,0.6-1.7,1.3-2.4c1.2-1.2,2.3-2.6,3.5-3.8
		c0.6-0.7,1.3-1.3,1.9-2c0.1-0.1,0.2-0.1,0.3-0.1c0.4,0,0.8,0,1.2,0c0.1,0,0.3,0.1,0.3,0.2c0.6,0.8,1.4,1.1,2.2,1.6
		c0.2,0.1,0.5,0.1,0.8,0.1c0,0.4,0,0.9,0,1.5c0,0.2,0.1,0.3,0.2,0.4c0.3,0.1,0.6,0.3,0.9,0.4c0.3,0.1,0.6,0.2,0.9,0.2
		c0.2,0,0.4,0.1,0.5,0.3c0,0,0,0,0,0.1c0.3,1.1,1,1.8,2,2.1c0.3,0.1,0.6,0.1,1,0.1c-0.3,0.8,0.3,1.1,0.7,1.7c0.5,0.6,1,1.1,1.4,1.7
		c0.2,0.2,0.4,0.3,0.6,0.2c0.4-0.1,0.6,0.1,0.8,0.3c0.6,0.7,1.2,1.3,1.8,2C103,123.5,103,123.8,102.9,124.1z"/>
	<path class="st0" d="M149.9,9.9c-13.8,5.2-27.4,10.4-41.1,15.6c-0.6-1.8-1.1-3.6-1.6-5.4c16.2-6.2,32.4-12.3,48.8-18.5
		c-1.8,17-3.6,34-5.5,51c-1.7-0.2-3.3-0.4-5.1-0.7C146.9,37.9,148.4,24,149.9,9.9z"/>
	<path class="st0" d="M53,156c-1.3-0.2-2.5-0.6-3.8-0.8c-3.8-0.8-7.5-1.6-11.3-2.4c-2.9-0.6-5.9-1.2-8.8-1.8c-4.8-1-9.5-2-14.3-2.9
		c-1-0.2-1.9-0.4-2.9-0.6c-0.2,0-0.3-0.1-0.4-0.4c-2.3-8.2-4.8-16.5-7.1-24.7c0,0,0-0.1,0-0.2c1.6-0.6,3.2-1.1,4.9-1.7
		c0.3,1.2,0.7,2.4,1,3.5c1.7,6.1,3.4,12.1,5.3,18.1c0.1,0.3,0.2,0.4,0.5,0.4c4.2,0.9,8.3,1.7,12.5,2.6c4,0.8,7.8,1.6,11.8,2.5
		c3.9,0.8,7.8,1.6,11.7,2.5c0.6,0.1,1.3,0.2,2,0.4C53.6,152.3,53.3,154.2,53,156z"/>
	<path class="st0" d="M102.9,9.6c0,1.9,0,3.7,0,5.6c-0.8,0-1.6,0-2.4,0c-1,0-2,0-3.1-0.1c-2.5,0-5.1-0.1-7.7-0.1
		c-1.8,0-3.6-0.1-5.5-0.1c-3.6-0.1-7.2-0.1-10.8-0.2c-1.8,0-3.5-0.1-5.4-0.1c-3.6-0.1-7.2-0.1-10.8-0.2c-1.7,0-3.5,0-5.3-0.1
		c-2.2,0-4.5-0.1-6.7-0.1c0-1.9,0-3.8,0-5.6c0.6,0,1.2,0,1.8,0c1,0,2.1,0,3.1,0.1c2.5,0,5.2,0.1,7.7,0.1c1.8,0,3.6,0.1,5.4,0.1
		c3.1,0,6.4,0.1,9.5,0.1c2.2,0,4.5,0.1,6.7,0.1c3.2,0,6.4,0.1,9.6,0.1c2.2,0,4.5,0.1,6.7,0.1s4.6,0.1,6.8,0.1
		C102.7,9.6,102.8,9.6,102.9,9.6z"/>
	<path class="st0" d="M32.9,18.4c0.7-0.7,1.4-1.3,2-1.9c0.6,0.8,1.2,1.6,1.8,2.2c1,1.2,1.9,2.6,2.9,3.8c0.1,0.2,0.3,0.3,0.3,0.6
		c0.7,1.8,1.3,3.5,2,5.3c0.2,0.4,0.4,0.9,0.7,1.3c0.8,1.3,1.6,2.7,2.4,4c0.1,0.2,0.2,0.3,0.4,0.4c1,0.9,1.9,1.8,2.9,2.6
		c0.2,0.1,0.4,0.2,0.6,0.2c3.2,0,6.4,0,9.6,0c0.2,0,0.5,0.1,0.7,0.2c0.9,0.7,1.8,1.5,2.7,2.1c0.1,0.1,0.2,0.1,0.4,0.1
		c0.8,0,1.5,0,2.3,0c0.1,0,0.3-0.1,0.4-0.2c0.4-0.6,0.8-1.1,1.1-1.7c0.1-0.1,0.2-0.2,0.3-0.2c1.4-0.9,2.7-1.9,4.2-2.8
		c0.2-0.1,0.4-0.1,0.6-0.1c4.3,0,8.5,0,12.8,0c0.5,0,1-0.1,1.5-0.2c0.4-0.1,0.9-0.2,1.3-0.3c0.5-0.1,0.9-0.3,1.2-0.7
		c0.6-0.6,1.3-1,1.9-1.6c0.2-0.1,0.3-0.3,0.4-0.6c0.7-1.8,1.4-3.6,2.1-5.5c0.1-0.2,0.2-0.3,0.3-0.6c0.6-0.7,1.2-1.3,1.8-2
		c0.1-0.2,0.3-0.4,0.3-0.7c0.2-1.8,0.5-3.5,0.7-5.3c0.9,0.1,1.7,0.2,2.6,0.4c-0.1,0.6-0.1,1.1-0.2,1.7c-0.2,1.5-0.4,3-0.6,4.5
		c0,0.2-0.2,0.6-0.3,0.8c-0.1,0.2-0.3,0.3-0.5,0.6c-1.3,1.2-2.2,2.8-2.7,4.6c-0.4,1.1-0.8,2.2-1.3,3.4c-0.1,0.2-0.2,0.4-0.4,0.6
		c-1,0.9-2.1,1.8-3.2,2.7c-0.1,0.1-0.3,0.2-0.5,0.2c-1,0.3-2.1,0.6-3.1,0.9c-0.2,0-0.4,0.1-0.6,0.1c-4.3,0-8.4,0-12.7,0
		c-0.2,0-0.5,0.1-0.7,0.2c-0.9,0.6-1.8,1.1-2.7,1.7c-0.2,0.1-0.4,0.3-0.6,0.6c-0.5,0.8-0.9,1.6-1.4,2.4c-0.1,0.2-0.3,0.3-0.5,0.3
		c-1.5,0-3,0-4.6,0c-0.2,0-0.4-0.1-0.6-0.2c-0.9-0.7-1.7-1.5-2.5-2.1c-0.3-0.2-0.5-0.3-0.8-0.3c-3.1,0-6.4,0-9.5,0
		c-0.3,0-0.6-0.1-0.8-0.3c-1.3-1.1-2.6-2.1-3.9-3.3c-0.2-0.1-0.3-0.3-0.5-0.6c-0.7-1.2-1.4-2.5-2.2-3.7c-1.1-1.7-1.7-3.7-2.4-5.6
		c-0.5-1.5-1.2-2.8-2.2-4C35.1,21.2,34.1,19.7,32.9,18.4z"/>
	<path class="st0" d="M124.7,91c0-0.1,0-0.2,0-0.4h-1.6c0-0.4,0-0.9,0-1.2c0.1-0.6-0.1-1-0.5-1.2c-0.2-0.2-0.3-0.4-0.3-0.8
		c0-0.7,0-1.2,0-1.9c-0.6,0-1.1,0-1.6,0c-0.6,0.1-0.9-0.2-1.1-0.8c-0.2-0.6-0.5-1.1-0.7-1.6c-0.1-0.2-0.2-0.3-0.4-0.3
		c-0.4,0-0.8,0-1.2,0c-0.2,0-0.3-0.1-0.4-0.2c-0.3-0.4-0.8-0.7-1.2-0.8c-0.5-0.2-1-0.3-1.5-0.6c-0.3-0.1-0.5-0.2-0.8-0.2
		c-1.7,0-3.5,0-5.3,0c-0.1,0-0.2,0-0.3,0c-0.8,0.4-1.6,0.7-2.3,1.5c-0.2,0.2-0.4,0.3-0.7,0.3c-0.3,0-0.6,0-1,0c0,0.6,0,0.9,0,1.3
		c0.1,0.7-0.1,1-0.7,1.2c-0.8,0.2-1.1,0.8-0.9,1.7c0.1,0.6-0.1,1.1-0.5,1.5c-0.1,0.1-0.2,0.3-0.2,0.6c0,2.1,0,4.3,0,6.5
		c0,0.2,0.1,0.4,0.2,0.6c0.5,0.4,0.6,0.9,0.6,1.6c0,0.6,0,1.2,0,1.8c0,0.1,0,0.2,0,0.4h1.6v1.8c0.2,0,0.3,0,0.4,0
		c0.6-0.1,1.1,0.1,1.5,0.7c0.1,0.1,0.3,0.2,0.5,0.2c1.1-0.1,2.2,0.1,3.2,0.6c0.5,0.2,1,0.2,1.5,0.2c2.7,0,5.4,0,8,0
		c0.4,0,0.7-0.1,0.9-0.4c0.2-0.3,0.6-0.4,1-0.4c0.6,0,1.3,0,1.9,0c0.1,0,0.3,0,0.4,0c0-0.9,0-1.7,0-2.6c0-0.3,0.1-0.6,0.3-0.7
		c0.3-0.1,0.6-0.3,1-0.6c0.2-0.1,0.3-0.2,0.3-0.6C124.7,95.7,124.7,93.3,124.7,91z M122.8,96.4c0,0.7-0.1,0.8-0.7,1
		c-0.1,0-0.2,0-0.3,0.1c-0.5,0.1-0.7,0.4-0.6,1c0.1,0.4,0,1,0,1.6c-0.5,0-0.9,0-1.4,0c-0.3,0-0.6,0-0.8,0.3
		c-0.3,0.4-0.6,0.6-1.1,0.6c-2.2,0-4.4,0-6.6,0c-0.7,0-1.4-0.1-2.1-0.3c-0.8-0.3-1.6-0.6-2.4-0.6c-0.1,0-0.3-0.1-0.5-0.2
		c-0.3-0.2-0.5-0.6-0.9-0.9v-1.6h-1.4c0-0.4,0-0.9,0-1.5c0-0.3,0-0.6-0.3-0.8c-0.4-0.3-0.5-0.8-0.5-1.3c0-1.3,0-2.7,0-4.1
		c0-0.2,0-0.6,0.2-0.7c0.5-0.3,0.6-0.9,0.5-1.5c-0.1-0.6,0.1-0.9,0.5-1c0.8-0.2,1.3-0.8,1-1.7c0.4-0.3,0.7-0.7,1-1
		c0.2-0.2,0.3-0.3,0.5-0.4c0.6-0.4,1.3-0.6,2-0.6c1.1,0,2.2,0,3.4,0c1,0,1.8,0.4,2.7,0.8c0.3,0.1,0.5,0.4,0.7,0.8
		c0.2,0.2,0.4,0.3,0.6,0.2c0.8-0.2,1.2,0.2,1.5,1c0.3,0.6,0.8,1.1,1.3,1.6c0.1,0.1,0.2,0,0.3,0c0.2,0,0.5,0,0.7,0
		c0,0.1,0.1,0.1,0.1,0.1c-0.1,0.8,0.1,1.3,0.7,1.8c0.1,0.1,0.1,0.3,0.1,0.4c0,0.9,0,1.9,0,2.9h1.6v3.9H122.8z"/>
	<path class="st0" d="M92.4,76.8c-0.5-0.4-0.7-1-0.6-1.7c0-0.1,0-0.3,0-0.4v-1.8h-1.5c0-0.3,0-0.6,0-0.9c-0.3,0-0.5,0-0.8,0v-1.7
		h-1.6c0-0.3,0-0.6,0-0.9c-0.4,0-0.7,0-1,0c-0.3,0-0.5-0.1-0.7-0.3c-0.6-0.7-1.2-1.5-1.9-2.1c-0.1-0.1-0.3-0.2-0.5-0.2
		c-3,0-6.2,0-9.2,0c-0.2,0-0.3,0.1-0.4,0.2c-0.2,0.6-0.4,1-0.7,1.5c-0.1,0.2-0.2,0.3-0.4,0.4c-0.9,0.4-1.6,1.1-2.3,1.9
		c-0.5,0.6-0.9,1.1-1.4,1.6C69,72.6,69,72.7,69,73v9.5c0,0.1,0,0.2,0,0.4h0.6c0.5,0,0.9,0,1.3,0.6c1,1.3,2.1,2.5,3.2,3.6
		c0.1,0.1,0.4,0.2,0.5,0.2c0.4,0,0.7,0.1,1,0.3c0.2,0.1,0.4,0.2,0.5,0.4c0.9,0.9,1.9,1.2,3,1c0.4-0.1,0.8,0.1,1.1,0.6
		c0.2,0.3,0.5,0.3,0.8,0.3c1.2,0,2.5,0,3.8,0c0.4,0,0.7-0.1,0.9-0.4c0.2-0.3,0.5-0.4,0.9-0.4c0.2,0,0.4-0.1,0.5-0.2
		c0.4-0.3,0.8-0.8,1.1-1.2c0.2-0.2,0.4-0.3,0.7-0.3s0.6,0,0.9,0c0-0.3,0-0.6,0.1-0.9h1.5c0-0.6,0-1,0-1.5c-0.1-0.7,0.1-1.1,0.6-1.6
		c0.1-0.1,0.2-0.3,0.2-0.6c0-1.9,0-3.8,0-5.6C92.6,77.2,92.5,76.9,92.4,76.8z M90.7,82c0,0.2-0.1,0.4-0.2,0.6
		c-0.5,0.4-0.7,1-0.6,1.8h-1.5c0,0.1-0.1,0.1-0.1,0.1c0,0.4-0.1,0.8-0.4,1c-0.5,0.3-0.9,0.9-1.3,1.3c-0.1,0.1-0.3,0.2-0.5,0.2
		c-0.3,0-0.6,0-0.8,0.3c-0.3,0.4-0.7,0.6-1.1,0.6c-0.7,0-1.4,0-2.1,0c-0.3,0-0.6,0-0.8-0.3c-0.3-0.4-0.7-0.6-1.1-0.6
		c-1.3,0.2-2.3-0.2-3.3-1.1c-0.4-0.3-0.8-0.8-1.5-0.7c-0.1,0-0.2-0.1-0.2-0.2c-0.8-0.9-1.5-1.7-2.3-2.6c-0.1-0.1-0.2-0.3-0.2-0.4
		c0-0.3,0-0.8,0-1.2H71c0-0.2,0-0.3,0-0.4c0-2.2,0-4.4,0-6.6c0-0.2,0.1-0.4,0.2-0.6c0.2-0.2,0.5-0.6,0.7-0.8
		c0.6-0.9,1.4-1.5,2.3-1.9c0.3-0.1,0.6-0.3,0.7-0.8c0.2-0.9,0.7-1,1.5-1c2.1,0.1,4.3,0,6.4,0c0.3,0,0.5,0.1,0.7,0.3
		c0.6,0.7,1.2,1.3,1.8,2c0.1,0.1,0.3,0.2,0.5,0.4v0.8h1.6V74c0.7-0.1,1,0.1,0.8,0.9h1.6c0,0.6,0,1.1,0,1.6c0,0.3,0,0.6,0.3,0.8
		c0.5,0.3,0.6,0.9,0.5,1.5C90.7,79.9,90.7,80.9,90.7,82z"/>
	<path class="st0" d="M122.1,118.2c0,0.8,0,1.6,0,2.5c0.5,0,1,0,1.6,0c-0.6,0.7-1.1,1.2-1.6,1.8H122c-1,0-2,0-3.1,0
		c0-0.4,0-0.9,0-1.3c0-0.3-0.1-0.3-0.3-0.3c-0.8,0-1.6,0-2.3,0c-0.1,0-0.3,0-0.4,0c-0.1-0.6,0-1,0.2-1.5c0.3-0.9,0.8-1.6,1.7-1.9
		c0.3-0.1,0.6-0.2,1-0.2c0.2,0,0.3-0.1,0.3-0.3c0-0.8,0-1.5,0-2.2c0.3,0,0.5,0,0.8,0c0,0.6,0,1.1,0,1.7c0.5,0,1,0,1.6,0
		c0,0.7,0,1.2,0,1.8c-0.3,0-0.6,0-0.9,0c-0.5-0.1-0.9,0.1-1,0.7c-0.1,0.2-0.2,0.4-0.3,0.7c-0.1,0.3-0.1,0.7-0.2,1.1
		C120.6,120.7,121.6,119.8,122.1,118.2C122.1,118.1,122.1,118.2,122.1,118.2z"/>
	<path class="st0" d="M47.3,120.9c0.5,0,0.9,0,1.3,0c0.1,0,0.3,0.1,0.3,0.2c0.2,0.4,0.4,0.9,0.6,1.2c0.1,0.1,0.2,0.2,0.3,0.2
		c1.2,0,2.4,0,3.8,0c0-0.6,0-1.1,0-1.8c0.5,0,1,0,1.5,0c0.1,0,0.1,0,0.2,0.1c0.5,0.6,1,1.1,1.6,1.8c-0.7,0-1.3,0-1.9,0
		c-0.4,0-0.7,0.1-1,0.4c-0.2,0.3-0.5,0.4-0.9,0.4c-0.1,0-0.3,0-0.5,0c-1,0.1-1.9-0.1-2.7-0.7c-0.2-0.1-0.4-0.1-0.6-0.1
		c-0.7,0-1.4,0-2,0C47.3,122.1,47.3,121.5,47.3,120.9z"/>
	<path class="st0" d="M45.8,122.7c0,0.3,0,0.6,0,0.9c0.4,0,0.9,0,1.3,0c0.2,0,0.4,0.1,0.5,0.2c0.5,0.4,0.9,1,1.5,1.6
		c-0.8,0-1.4-0.1-2.1,0c-0.8,0.1-1.5-0.1-2-0.9l-0.1-0.1c-0.4-0.4-0.9-0.8-0.7-1.6c-0.3,0-0.5,0-0.8,0c0-0.6,0-1.1,0-1.8
		c-0.6,0-1.1,0-1.6,0c0-0.3,0-0.7,0-1c0.5,0,1,0,1.5,0c0.2,0,0.3,0.3,0.5,0.4c0.4,0.3,0.5,0.7,0.4,1.1c0,0.3,0,0.7,0,1
		C44.7,122.7,45.2,122.7,45.8,122.7z"/>
	<path class="st0" d="M17.1,60.7c0,1.1,0,2.2,0,3.3l0,0c0-0.2,0-0.3,0-0.6c-0.3,0-0.5,0-0.8,0c0-0.4,0-0.9,0-1.3
		c0-0.2-0.1-0.4-0.3-0.6c-0.4-0.2-0.8-0.4-1.3-0.7c0.5-0.6,1-1.1,1.6-1.7c0.1-0.1,0.3-0.1,0.4-0.1c0.3,0,0.6,0,0.8-0.3
		c0.3-0.4,0.6-0.6,1.1-0.6c0.3,0,0.6,0,1,0c0,0.3,0,0.6,0,0.9c-0.5,0-1,0-1.5,0c0,0.6,0,1.1,0,1.8C17.6,60.7,17.4,60.7,17.1,60.7z"
		/>
	<path class="st0" d="M14.7,88c0.6,0,1.1,0,1.5,0l0.1,0.1c-0.1,0.7,0.2,1.1,0.7,1.6c0.1,0.1,0.2,0.3,0.2,0.4c0,0.4,0,1,0,1.5
		c-0.3,0-0.5,0-0.8,0c0-0.6,0-1.1,0-1.8c-0.6,0-1.1,0-1.5,0c0-0.1-0.1-0.1-0.1-0.1c0.1-0.7-0.2-1.1-0.6-1.5C14.1,88.1,14,88,14,87.9
		c0-1.5,0-2.8,0-4.3c0.3,0,0.5,0,0.8,0C14.7,85.1,14.7,86.6,14.7,88z"/>
	<path class="st0" d="M121.3,128.7c0.2-0.6,0.4-1,0.7-1.6c0.1-0.1,0.2-0.2,0.3-0.2c0.3,0,0.6,0,0.9,0c0.3,0,0.5-0.1,0.7-0.3
		c0.4-0.3,0.5-0.8,0.5-1.3c0-0.3,0-0.7,0-1c0.3,0,0.5,0,0.7,0c0-0.2,0-0.6,0-0.8c0.5,0,1,0,1.6,0c-0.4,0.2-0.7,0.4-1.1,0.6
		c-0.4,0.2-0.6,0.4-0.5,0.9c0,0.1,0,0.1,0,0.2c0.1,0.7-0.1,1.1-0.5,1.5c-0.1,0.1-0.2,0.4-0.2,0.7c0,0.4,0,0.9,0,1.5
		C123.5,128.7,122.3,128.7,121.3,128.7L121.3,128.7z"/>
	<path class="st0" d="M121.3,128.7c-0.5,0.3-1,0.6-1.6,0.9c0-0.3,0-0.6,0-0.9C120.3,128.7,120.8,128.7,121.3,128.7L121.3,128.7z"/>
	<path class="st0" d="M55.8,54.2c0.1-0.4-0.1-0.6-0.4-0.7c-0.5-0.2-1.1-0.6-1.6-0.9c-0.2-0.1-0.5-0.1-0.7-0.2c-0.4,0-0.8,0-1.2,0
		v-1.7h-4.3v1.7c-0.3,0-0.5,0-0.8,0v7.4c0.3,0,0.5,0,0.8,0v1.7c0.1,0,0.1,0,0.1,0c2.5,0,5.1,0,7.6,0c0.1,0,0.3-0.1,0.3-0.2
		c0.3-0.7,0.6-1.3,0.9-2c0.1-0.1,0.1-0.3,0.1-0.6c0-1.1,0-2.2,0-3.4v-1.2h-0.8V54.2z M54.3,59.3c-0.1,0.1-0.2,0.2-0.3,0.2
		c-1.5,0-3,0-4.6,0c0,0,0,0-0.1-0.1v-1.7c-0.3,0-0.5,0-0.8,0c0-1,0-2,0-3c0-0.1,0.1-0.2,0.2-0.2c0.2,0,0.3,0,0.6,0v-1.8h0.5v1.7
		c0.2,0,0.3,0,0.4,0h2.3c0.1,0,0.3,0,0.4,0c0.8,0.3,0.8,0.3,0.8,1.2c0,0.1,0,0.2,0,0.4c0.2,0,0.5,0,0.8,0
		C54.5,57.3,54.8,58.4,54.3,59.3z"/>
	<path class="st0" d="M117.5,92v-0.4h-0.7c-0.1-0.2-0.2-0.3-0.3-0.4c-0.6-0.7-1.1-1.3-1.8-1.9c-0.4-0.3-0.5-0.6-0.4-1.1
		c-1.1,0-2,0-3,0c-0.5,0-0.9,0.1-1.1,0.6c-0.2,0.3-0.5,0.4-0.8,0.4c-0.5,0-1.1,0-1.6,0c0,0.6,0,1,0,1.6c0.1,0.6-0.1,1.1-0.5,1.5
		c-0.2,0.2-0.3,0.4-0.3,0.8c0,0.7,0.1,1.3,0,2c-0.1,0.8,0.1,1.3,0.7,1.8c0.4,0.4,0.8,0.8,1.4,0.7c0.1,0,0.2,0,0.3,0
		c0,0.4,0,0.8,0,1.2c0,0.3,0.1,0.4,0.4,0.4c0.8-0.1,1.5,0.1,2.2,0.6c0.1,0,0.2,0.1,0.2,0.1c0.5,0,1.1,0.1,1.6,0.1
		c0,0,0.1-0.1,0.2-0.1c0.4-0.7,1-0.8,1.6-0.7c0.2,0,0.4,0,0.5,0s0.3-0.1,0.4-0.2c0.2-0.3,0.4-0.8,0.6-1.1c0.4-0.7,0.5-1.3,0.5-2
		C117.5,94.1,117.5,93.1,117.5,92z M115.4,96.3c-0.1,0.2-0.2,0.3-0.5,0.3c-0.1,0-0.2,0-0.3,0c-0.6-0.1-1,0.1-1.4,0.7
		c-0.2,0.2-0.4,0.2-0.6,0.1c0,0-0.1,0-0.1-0.1c-0.4-0.2-0.9-0.3-1.2-0.7c-0.2-0.3-0.1-1-0.1-1.5c0,0,0-0.1,0-0.2h-1.8
		c-0.5,0-0.6-0.1-0.6-0.7c0-0.1,0-0.2,0-0.3c-0.1-0.7,0.1-1.2,0.6-1.7c0.1-0.1,0.2-0.3,0.2-0.6s0-0.6,0-0.9c0.8,0.2,1.3-0.2,1.8-0.8
		c0.2-0.2,0.7-0.1,1.1-0.1v0.9c1.7-0.2,2.6,0.7,2.4,2.7h0.8C115.5,94.5,115.8,95.4,115.4,96.3z"/>
	<path class="st0" d="M84.5,78.2v-2.6c-0.3,0-0.6,0-0.9,0c-0.3,0-0.6,0-0.8-0.1c-0.4-0.2-0.8-0.4-1.2-0.7c-0.1-0.1-0.2-0.3-0.2-0.4
		c0-0.4,0-0.9,0-1.3h-2.7v1.7h-2.4v0.9h-1.5V83h1.5v0.9H77c0,0.3,0,0.6,0,0.8c0.1,0,0.1,0,0.1,0H83c0.1,0,0.2,0,0.2-0.1
		c0.5-0.6,1-1.1,1.5-1.7h1.4v-4.8h-1.6V78.2z M83.9,80.7h-1.3V82c0,0.3-0.1,0.6-0.4,0.6c-1.1,0-2.1,0-3.2,0v-0.9c-0.3,0-0.5,0-0.8,0
		c0-0.2,0-0.6,0-0.9c-0.4,0-0.8,0-1.2,0c-0.3,0-0.4-0.1-0.4-0.4c0-0.9,0-1.8,0-2.8h1.6c0-0.3,0-0.6,0-0.8c0.1,0,0.2,0,0.3,0
		c0.4,0,0.7,0,1.1,0c1-0.1,1.9,0.1,2.8,0.8c0.2,0.1,0.3,0.2,0.3,0.6c0,0.7,0,1.5,0,2.2h1.2c0.2,0,0.3,0,0.3,0.2
		C84.3,80.9,84.1,80.7,83.9,80.7z"/>
</g>
</svg>
