<?xml version="1.0" encoding="utf-8"?>
<!-- Generator: Adobe Illustrator 28.0.0, SVG Export Plug-In . SVG Version: 6.00 Build 0)  -->
<svg version="1.1" id="Layer_1" xmlns="http://www.w3.org/2000/svg" xmlns:xlink="http://www.w3.org/1999/xlink" x="0px" y="0px"
	 viewBox="0 0 156 156" style="enable-background:new 0 0 156 156;" xml:space="preserve">
<style type="text/css">
	.st0{fill-rule:evenodd;clip-rule:evenodd;fill:#FFFFFF;}
	.st1{fill:#0000FF;}
	.st2{font-family:'MyriadPro-Regular';}
	.st3{font-size:81.7994px;}
	.st4{fill:none;}
</style>
<g>
	<polygon class="st0" points="0,36.43 154.61,36.43 154.61,143.11 0,143.11 	"/>
	<polygon class="st0" points="2.45,12.89 156,12.89 156,136.32 2.45,136.32 	"/>
	<path class="st1" d="M150.6,134.86H6.39V41.3h144.2L150.6,134.86L150.6,134.86z M17.66,123.59h121.67V52.56H17.66V123.59z"/>
	
		<rect x="12.02" y="84.84" transform="matrix(1 -6.608159e-03 6.608159e-03 1 -0.58 0.5217)" class="st1" width="133.26" height="6.37"/>
	<rect x="75.55" y="45.95" class="st1" width="6.37" height="82.21"/>
	<text transform="matrix(1.0015 0 0 1 58.1055 117.0117)" class="st1 st2 st3">B</text>
	<polygon class="st4" points="0.47,142.64 154.15,142.64 154.15,36.9 0.47,36.9 	"/>
</g>
</svg>
