<?xml version="1.0" encoding="utf-8"?>
<!-- Generator: Adobe Illustrator 28.0.0, SVG Export Plug-In . SVG Version: 6.00 Build 0)  -->
<svg version="1.1" id="Layer_1" xmlns="http://www.w3.org/2000/svg" xmlns:xlink="http://www.w3.org/1999/xlink" x="0px" y="0px"
	 viewBox="0 0 156 156" width="156px" height="156px"  style="enable-background:new 0 0 156 156;" xml:space="preserve">
<style type="text/css">
	.st0{fill:#0000FF;stroke:#0000FF;stroke-width:0.1375;stroke-miterlimit:10;}
	.st1{fill:#0000FF;}
</style>
<path class="st0" d="M3.4,73.2h16.4v5.5H3.4V73.2z M25.4,73.2h16.4v5.5H25.4V73.2z M47.2,73.2h16.5v5.5H47.2V73.2z M69.2,73.2h16.6
	v5.5H69.2V73.2z M91.4,73.2h16.5v5.5H91.4V73.2z M113.4,73.2h16.5v5.4l-16.5,0.1C113.4,78.7,113.4,73.2,113.4,73.2z"/>
<path class="st1" d="M132.9,65.5L150,75.8l-17.1,10.4V65.5z"/>
<path class="st0" d="M132.6,65.1l17.9,10.7l-17.9,11V65.1z M133.2,86.3l-0.4-0.3l17.1-10.3v0.6l-17-10.5l0.4-0.3L133.2,86.3
	L133.2,86.3z"/>
</svg>
