<?xml version="1.0" encoding="utf-8"?>
<!-- Generator: Adobe Illustrator 28.0.0, SVG Export Plug-In . SVG Version: 6.00 Build 0)  -->
<svg version="1.1" id="Layer_1" xmlns="http://www.w3.org/2000/svg" xmlns:xlink="http://www.w3.org/1999/xlink" x="0px" y="0px"
	 viewBox="0 0 156 156" style="enable-background:new 0 0 156 156;" xml:space="preserve">
<style type="text/css">
	.st0{fill-rule:evenodd;clip-rule:evenodd;fill:#FFFFFF;}
	
		.st1{clip-path:url(#SVGID_00000162313003591117392870000003599691112092612999_);fill-rule:evenodd;clip-rule:evenodd;fill:#1214FF;}
	.st2{clip-path:url(#SVGID_00000158712828004860431600000015342680055383855245_);fill:#FFFFFF;}
	.st3{fill:none;}
</style>
<g>
	<polygon class="st0" points="0,57.55 156,57.55 156,98.45 0,98.45 	"/>
	<polygon class="st0" points="1.11,58.95 153.7,58.95 153.7,97 1.11,97 	"/>
	<g>
		<g>
			<defs>
				<rect id="SVGID_1_" x="1.41" y="59.25" width="151.99" height="37.45"/>
			</defs>
			<clipPath id="SVGID_00000005982949514086781930000009565149709624405139_">
				<use xlink:href="#SVGID_1_"  style="overflow:visible;"/>
			</clipPath>
			
				<path style="clip-path:url(#SVGID_00000005982949514086781930000009565149709624405139_);fill-rule:evenodd;clip-rule:evenodd;fill:#1214FF;" d="
				M13.72,71.4l-2.18-6.41l0.4-0.1l0.36-0.15l0.4-0.26l0.41-0.15l0.35-0.1h0.41l0.4-0.15l0.51-0.1l0.41-0.15h0.35h0.41l0.4-0.1h0.35
				h0.41h0.41h0.35h0.56h0.36h0.4l0.41,0.1h0.35l0.4,0.15l0.41,0.1h0.51l0.41,0.15l0.35,0.1l0.41,0.15l0.4,0.1l0.41,0.15l0.51,0.26
				l0.35,0.15l0.41,0.26l-2.84,6.41l-0.25-0.15l-0.25-0.15l-0.15-0.1l-0.25-0.15H20.5l-0.25-0.1h-0.3l-0.25-0.15h-0.25l-0.1-0.1
				h-0.25l-0.3-0.15h-0.25h-0.25h-0.25h-0.25h-0.25h-0.25H17h-0.15H16.6h-0.25h-0.25l-0.3,0.15h-0.25l-0.25,0.1h-0.25l-0.25,0.15
				h-0.25l-0.25,0.1l-0.25,0.15H13.72L13.72,71.4z M32.46,92.27l4.15-5.85l0.1,0.26l0.25,0.26l0.25,0.26l0.25,0.26l0.3,0.26
				l0.1,0.15l0.25,0.26l0.25,0.1l0.3,0.31l0.25,0.1l0.25,0.15l0.25,0.1l0.25,0.15l0.25,0.1l0.25,0.15l0.25,0.1l0.3,0.15l0.35,0.1
				h0.25l0.25,0.15l0.3,0.15h0.35h0.25l0.3,0.1h0.36h0.25h0.25h0.4h0.25h0.4h0.41l0.25-0.1l0.91,6.1l-0.91,0.15l-0.81,0.1
				l-0.51,0.15l-0.4,0.1h-0.1h-0.15l0,0h-0.1v0.15l0,0h0.1l0,0l0,0h0.15h0.1h0.15h-0.41H43.1h-0.56l-0.35-0.15h-0.4h-0.41l-0.35-0.1
				h-0.41l-0.4-0.15h-0.36l-0.4-0.1l-0.41-0.15l-0.25-0.1l-0.41-0.15l-0.35-0.1l-0.41-0.15l-0.25-0.1l-0.41-0.15l-0.35-0.15
				l-0.3-0.1l-0.35-0.26l-0.41-0.15l-0.25-0.26l-0.41-0.1l-0.25-0.26l-0.41-0.31l-0.25-0.1l-0.35-0.26l-0.3-0.26l-0.25-0.26
				l-0.36-0.31L32.46,92.27L32.46,92.27z M50.49,87.44l3.5,6l0.25-0.1l0.25-0.26l0.25-0.26L55,92.52l0.3-0.26l0.25-0.26l0.25-0.26
				l0.1-0.26l0.25-0.26l0.3-0.26l0.1-0.26l0.25-0.26l0.15-0.26l0.25-0.41l0.15-0.26l0.1-0.26l0.25-0.26l0.15-0.41l0.1-0.26
				l0.15-0.26l0.1-0.26l0.15-0.41l0.15-0.26l0.1-0.41l0.15-0.26l0.1-0.26V85.9l0.15-0.26l0.1-0.41v-0.41l0.15-0.26v-0.41l0.15-0.77
				l0.1-0.92l0.15-0.62l0.1-0.82l0.15-0.62l0.1-0.67l0.15-0.67l0.1-0.51l0.15-0.51l0.15-0.51v-0.41l0.1-0.41l0.15-0.36l0.1-0.26
				l0.15-0.15V75.8l0.1-0.1v-0.15l-4.41-4.81l-0.25,0.41l-0.25,0.51l-0.25,0.41l-0.25,0.51l-0.25,0.36l-0.25,0.56l-0.15,0.51
				l-0.25,0.51l-0.25,0.67l-0.15,0.51l-0.25,0.67l-0.15,0.51l-0.1,0.67l-0.15,0.62l-0.25,0.67l-0.1,0.77l-0.15,0.67l-0.1,0.67
				l-0.15,0.67l-0.15,0.62l-0.25,0.51l-0.1,0.56l-0.15,0.51l-0.25,0.51l-0.15,0.51l-0.25,0.41l-0.1,0.51l-0.25,0.41l-0.25,0.36
				L51,86.78l-0.15,0.15l-0.1,0.26l-0.15,0.15L50.49,87.44L50.49,87.44z M62.8,65.4l2.23,6.41l0.35-0.31l0.3-0.1l0.25-0.15l0.25-0.1
				l0.4-0.15l0.25-0.1l0.25-0.15h0.35l0.3-0.1l0.25-0.15h0.25h0.4l0.25-0.15h0.25h0.36h0.3h0.25l0.25,0.15h0.4h0.25l0.25,0.15h0.36
				l0.3,0.1l0.25,0.15l0.35,0.1l0.3,0.15l0.25,0.1l0.25,0.15l0.35,0.1l0.3,0.15l0.25,0.26l0.36,0.15l2.48-6.67l-0.4-0.26l-0.51-0.26
				l-0.4-0.15l-0.35-0.15l-0.51-0.1l-0.4-0.26L74,64.07h-0.41l-0.4-0.1l-0.51-0.15l-0.4-0.1h-0.51h-0.41l-0.35-0.15h-0.56H70.1
				h-0.56h-0.36l-0.51,0.15h-0.41h-0.41l-0.51,0.1l-0.41,0.15l-0.51,0.1h-0.4l-0.51,0.15l-0.4,0.26l-0.51,0.1l-0.41,0.15l-0.51,0.15
				l-0.41,0.26L62.8,65.4L62.8,65.4z M78.41,75.96l4.66-4.82l0.4,0.36l0.25,0.41l0.25,0.51l0.25,0.41l0.25,0.41l0.25,0.36l0.15,0.41
				l0.25,0.36l0.15,0.56l0.1,0.36l0.15,0.41l0.1,0.26l0.15,0.41v0.36l0.1,0.41v0.41l0.15,1.18l0.1,1.02v1.02l0.15,0.82v0.36v0.26
				l0.15,0.41v0.26v0.26l0.1,0.15v0.1v0.15l-5.07,3.9v-0.51l-0.1-0.51l-0.15-0.67l-0.1-0.67l-0.15-0.51l-0.25-0.77l-0.15-0.67
				l-0.1-0.67l-0.25-0.77l-0.3-0.77l-0.1-0.77l-0.25-0.82l-0.25-0.77l-0.4-0.92l-0.25-0.77L78.41,75.96L78.41,75.96z M90.06,88.37
				l-2.84,6.15l0.41,0.1l0.35,0.26l0.25,0.15l0.41,0.26l0.41,0.15l0.4,0.1l0.35,0.15l0.41,0.26l0.4,0.1h0.36l0.4,0.15l0.41,0.1h0.35
				l0.41,0.15h0.51l0.4,0.1h0.41h0.35h0.41h0.51h0.4h0.41h0.51l0.41-0.1h0.51l0.41-0.15h0.51l0.4-0.1l0.51-0.15h0.36l0.56-0.1
				l0.51-0.15l-1.67-6.15l-0.25,0.15h-0.3l-0.35,0.15l-0.25,0.1h-0.41h-0.25l-0.25,0.15h-0.41h-0.25h-0.25h-0.25h-0.4h-0.25h-0.25
				h-0.25h-0.3l-0.25-0.15H93.7l-0.41-0.1h-0.25l-0.25-0.15h-0.25l-0.25-0.15l-0.25-0.1l-0.25-0.15l-0.25-0.1l-0.3-0.15l-0.1-0.1
				l-0.25-0.15l-0.25-0.1l-0.3-0.15L90.06,88.37L90.06,88.37z M103.43,84.57l5.32,5.07l0.3-0.36l0.1-0.51l0.25-0.56l0.25-0.51
				l0.25-0.51l0.41-0.51l0.25-0.67l0.25-0.51l0.4-0.67l0.41-0.67l0.35-0.62l0.41-0.82l0.81-1.44l1.01-1.54l-6.38-4.2l-0.1,0.15
				l-0.15,0.1l-0.1,0.31l-0.15,0.26l-0.25,0.36l-0.1,0.41l-0.3,0.51l-0.25,0.51l-0.66,1.18l-0.61,1.59l-0.91,1.69L103.43,84.57
				L103.43,84.57z M133.42,68.89v-9.64l20.01,13.18L133.42,85.5v-9.54h-1.67h-1.67h-1.57h-1.57h-1.27l-1.32,0.15h-1.16l-1.17,0.1
				l-0.91,0.15h-0.91l-0.41,0.1h-0.35l-0.4,0.15h-0.25l-0.25,0.1h-0.4l-0.25,0.15h-0.15l-0.25,0.1h-0.1l-0.3,0.15h-0.1l-3.14-6.41
				l0.25-0.1h0.41l0.25-0.15l0.4-0.15l0.41-0.1l0.35-0.15h0.4l0.41-0.1l0.51-0.15h0.41l0.51-0.1l0.51-0.15h0.51l0.66-0.1h0.51
				l0.66-0.15l1.32-0.1h1.32l1.42-0.15h1.57l1.52-0.15h1.72h1.77L133.42,68.89L133.42,68.89z M25.42,74.27l5.07-4.46l0.15,0.15
				l0.1,0.1l0.15,0.15l0.1,0.26l0.15,0.41l0.25,0.36l0.25,0.67l0.25,0.51l0.15,0.82l0.25,0.62l0.25,0.82l0.41,0.87l0.25,0.92
				l0.25,1.08l0.25,1.18l0.25,1.02l0.41,1.28l0.25,1.33l-5.72,4.05v-0.51l-0.1-0.56l-0.15-0.62l-0.1-0.67l-0.3-0.67l-0.1-0.77
				l-0.15-0.67l-0.25-0.77l-0.25-0.77l-0.25-0.82l-0.25-0.77l-0.25-0.92l-0.25-0.77l-0.3-0.92l-0.35-0.92L25.42,74.27L25.42,74.27z
				 M1.41,80.01H8.4v-0.26V79.5v-0.15v-0.26v-0.26v-0.26l0.15-0.26v-0.26V77.8l0.15-0.15V77.4v-0.26l0.1-0.15v-0.26l0.15-0.26
				l0.1-0.1v-0.26l0.15-0.31l0.1-0.1v-0.26l0.15-0.15l0.1-0.26l0.15-0.1l0.15-0.26l0.1-0.15l0.15-0.15l0.1-0.26l0.15-0.1l0.1-0.15
				l0.15-0.26l0.15-0.1l0.1-0.15l-4.41-5.07l-0.25,0.26l-0.4,0.26l-0.25,0.41l-0.25,0.26L5.06,69.8L4.8,70.06l-0.25,0.41l-0.3,0.26
				l-0.25,0.41l-0.25,0.26l-0.1,0.41l-0.3,0.36l-0.1,0.26l-0.25,0.41l-0.15,0.41l-0.1,0.36l-0.15,0.41l-0.25,0.36l-0.15,0.31
				l-0.1,0.36v0.41L1.92,75.8l-0.1,0.41l-0.15,0.51v0.41l-0.1,0.41v0.36v0.41l-0.15,0.51v0.41v0.36L1.41,80.01L1.41,80.01z"/>
		</g>
		<g>
			<defs>
				<rect id="SVGID_00000171694419288706602090000007801563706835171743_" x="1.41" y="59.25" width="151.99" height="37.45"/>
			</defs>
			<clipPath id="SVGID_00000062190057526015987650000010744266781309222305_">
				<use xlink:href="#SVGID_00000171694419288706602090000007801563706835171743_"  style="overflow:visible;"/>
			</clipPath>
			<path style="clip-path:url(#SVGID_00000062190057526015987650000010744266781309222305_);fill:#FFFFFF;" d="M43.86,96.75h-1.32
				l-0.36-0.15h-0.8l-0.36-0.1h-0.4l-0.41-0.16h-0.35l-0.41-0.1l-1.07-0.41l-0.35-0.1l-1.07-0.41l-0.36-0.16l-0.3-0.1l-0.36-0.26
				l-0.4-0.15l-0.26-0.26l-0.39-0.09l-0.26-0.26l-0.4-0.3l-0.25-0.1l-0.36-0.26L33.3,93.1l-0.25-0.26l-0.36-0.3l-0.27-0.28
				l0.01-0.02l4.18-5.88l0.12,0.3l0.75,0.76l0.3,0.25l0.11,0.16l0.25,0.25l0.24,0.09l0.31,0.32l0.25,0.09l0.26,0.16l0.25,0.1
				l0.26,0.16l0.25,0.1l0.26,0.16l0.25,0.1l0.31,0.15l0.35,0.1h0.25l0.27,0.16l0.3,0.15h0.59l0.31,0.1h2.32l0.27-0.12l0.01,0.03
				l0.92,6.13l-0.94,0.16l-0.81,0.1l-0.5,0.16l-0.41,0.1h-0.34v0.1h0.48L43.86,96.75L43.86,96.75z M41.78,96.55h0.4l0.36,0.15h0.78
				v-0.15h0.38l0.4-0.1l0.51-0.16l0.81-0.1l0.89-0.15L45.41,90l-0.22,0.09h-2.34l-0.31-0.1h-0.6l-0.32-0.15l-0.25-0.16l-0.24,0.01
				l-0.36-0.1l-0.31-0.15l-0.25-0.1l-0.26-0.16l-0.25-0.1l-0.26-0.16l-0.25-0.1l-0.26-0.16l-0.25-0.09l-0.31-0.32l-0.24-0.09
				l-0.26-0.27l-0.1-0.16l-0.3-0.25l-0.76-0.77l-0.09-0.22l-4.12,5.79l0.24,0.25l0.36,0.3l0.25,0.26l0.3,0.25l0.35,0.25l0.25,0.1
				l0.41,0.31l0.25,0.26l0.39,0.09l0.27,0.26l0.39,0.15l0.36,0.26l0.3,0.1l0.36,0.16l1.06,0.41l0.35,0.1l1.07,0.41l0.4,0.1h0.35
				l0.41,0.16h0.4l0.36,0.1L41.78,96.55L41.78,96.55z M95.93,96.6h-2.48l-0.41-0.1h-0.5l-0.41-0.16h-0.35l-0.41-0.1l-0.4-0.15h-0.35
				l-0.41-0.1l-0.41-0.26l-0.35-0.15l-0.4-0.1l-0.41-0.15l-0.41-0.26l-0.25-0.15l-0.36-0.26l-0.43-0.1l0.01-0.03l2.85-6.19
				l0.02,0.03l0.25,0.25l0.3,0.15l0.25,0.1l0.26,0.16l0.11,0.11l0.3,0.15l0.25,0.1l0.25,0.16l0.25,0.1l0.26,0.16l0.24-0.01
				l0.26,0.16l0.24-0.01l0.41,0.1h0.24l0.27,0.16l2.62-0.01l0.24-0.15l0.67-0.01l0.6-0.25h0.31l0.27-0.17l0.01,0.03l1.68,6.18
				l-0.02,0.01l-0.51,0.15l-0.56,0.1h-0.36l-0.5,0.15l-0.41,0.1h-0.51l-0.4,0.16h-0.51l-0.4,0.1H95.93L95.93,96.6z M93.05,96.44
				l0.41,0.1h2.98l0.4-0.1h0.51l0.4-0.16h0.51l0.4-0.1l0.51-0.15h0.36l0.55-0.1l0.48-0.14l-1.65-6.1l-0.23,0.14l-0.32,0.01
				l-0.6,0.25H97.1l-0.24,0.15l-2.64,0.01l-0.27-0.16l-0.24,0.01l-0.41-0.1h-0.25l-0.26-0.16l-0.24,0.01l-0.27-0.16l-0.25-0.1
				l-0.25-0.16l-0.25-0.1l-0.31-0.16l-0.1-0.11l-0.25-0.15l-0.25-0.1l-0.3-0.16l-0.23-0.23l-2.81,6.09l0.37,0.09L88,94.85L88.25,95
				l0.4,0.26l0.4,0.15l0.41,0.1l0.36,0.16l0.41,0.26l0.4,0.1h0.35l0.41,0.15l0.41,0.1h0.35l0.41,0.16L93.05,96.44L93.05,96.44z
				 M53.98,93.48l-0.01-0.02l-3.51-6.02l0.01-0.01l0.25-0.25l0.09-0.25l0.16-0.17l0.15-0.25l0.25-0.36l0.25-0.41l0.1-0.51l0.26-0.42
				l0.15-0.51l0.26-0.51l0.15-0.51l0.1-0.56l0.26-0.52l0.15-0.61l0.15-0.67l0.1-0.67l0.15-0.67l0.1-0.77l0.25-0.67l0.15-0.61
				l0.1-0.67l0.15-0.52l0.25-0.67l0.15-0.51l0.25-0.67L55.12,74l0.15-0.51l0.25-0.57l0.26-0.36l0.25-0.51l0.25-0.41l0.25-0.51
				l0.27-0.44l0.02,0.03l4.41,4.82l0.01,0.17l-0.11,0.12l0.01,0.14l-0.16,0.17l-0.09,0.25l-0.15,0.36l-0.1,0.41v0.4l-0.3,1.04
				l-0.1,0.51l-0.15,0.67l-0.09,0.66l-0.15,0.62l-0.1,0.82l-0.15,0.62l-0.1,0.93l-0.15,0.77v0.41l-0.15,0.27l0,0.4l-0.1,0.41
				l-0.15,0.26l0,0.35l-0.1,0.27l-0.15,0.26l-0.1,0.4l-0.15,0.26l-0.25,0.67l-0.15,0.26l-0.1,0.25l-0.15,0.41l-0.26,0.27l-0.1,0.25
				l-0.15,0.26l-0.41,0.67l-0.25,0.26l-0.1,0.25l-0.31,0.27l-0.25,0.25l-0.09,0.25l-0.51,0.52l-0.31,0.26l-0.25,0.3l-0.51,0.51
				L53.98,93.48z M50.53,87.45L54,93.41l0.23-0.09l0.5-0.51l0.25-0.31l0.31-0.26l0.51-0.51l0.09-0.25l0.26-0.26l0.31-0.26l0.09-0.24
				l0.26-0.26l0.15-0.25l0.41-0.67l0.1-0.25l0.26-0.27l0.25-0.66l0.15-0.26l0.25-0.67l0.15-0.26l0.1-0.4l0.15-0.26l0.1-0.25v-0.35
				l0.15-0.27l0.1-0.4v-0.41l0.15-0.27l0-0.4l0.15-0.77l0.1-0.93l0.15-0.62l0.1-0.82l0.15-0.62l0.1-0.67l0.15-0.67l0.1-0.51
				l0.3-1.03v-0.4l0.1-0.42l0.25-0.61l0.16-0.17l-0.01-0.14l0.11-0.12l-0.01-0.14l-4.38-4.77l-0.23,0.38l-0.25,0.51l-0.25,0.41
				l-0.25,0.51l-0.26,0.36l-0.25,0.56l-0.15,0.51l-0.25,0.52l-0.25,0.66l-0.15,0.51l-0.25,0.67l-0.15,0.51l-0.1,0.66l-0.15,0.62
				l-0.25,0.67l-0.1,0.77l-0.15,0.67l-0.1,0.67l-0.15,0.67l-0.15,0.62l-0.26,0.52l-0.1,0.56l-0.15,0.52l-0.26,0.51l-0.15,0.51
				l-0.26,0.41l-0.1,0.51l-0.26,0.42l-0.25,0.36l-0.15,0.25l-0.16,0.16l-0.09,0.25L50.53,87.45z M108.75,89.69l-0.02-0.02
				l-5.33-5.09l0.01-0.02l0.81-1.95l0.92-1.69l0.6-1.59l0.66-1.18l0.25-0.51l0.31-0.51l0.09-0.4l0.26-0.37l0.15-0.25l0.1-0.3
				l0.17-0.12l0.11-0.17l0.02,0.02l6.4,4.22l-0.02,0.02l-1.01,1.54l-0.81,1.43l-0.4,0.82l-0.36,0.62l-0.81,1.33l-0.25,0.51
				l-0.25,0.66l-0.41,0.52l-0.5,1.02l-0.25,0.56l-0.1,0.51L108.75,89.69z M103.46,84.57l5.29,5.05l0.28-0.34l0.09-0.5l0.25-0.57
				l0.51-1.03l0.41-0.52l0.25-0.66l0.25-0.52l0.81-1.33l0.35-0.62l0.4-0.82l0.81-1.43l1-1.52l-6.34-4.18l-0.09,0.13l-0.16,0.11
				l-0.09,0.3l-0.16,0.26l-0.26,0.36l-0.09,0.4l-0.31,0.52l-0.25,0.51l-0.66,1.18l-0.6,1.59l-0.92,1.69L103.46,84.57z M81.47,87.5
				v-0.56l-0.1-0.51l-0.15-0.67l-0.1-0.67l-0.15-0.51l-0.25-0.77l-0.15-0.67l-0.1-0.67l-0.25-0.77l-0.3-0.77l-0.1-0.77l-0.25-0.82
				l-0.25-0.77l-0.4-0.92l-0.25-0.77l-0.26-0.94l0.01-0.01l4.68-4.84l0.02,0.02l0.41,0.36l0.25,0.42L84,72.41l0.51,0.82l0.25,0.36
				L84.92,74l0.25,0.35l0.26,0.93l0.4,1.08v0.36l0.1,0.4v0.42l0.15,1.17l0.1,1.03v1.03l0.15,0.82v0.62l0.15,0.4v0.52l0.1,0.14
				l0.01,0.28l-0.01,0.01L81.47,87.5z M78.44,75.97l0.25,0.91l0.25,0.77l0.4,0.92l0.25,0.77l0.25,0.82l0.1,0.77l0.3,0.77l0.25,0.77
				l0.1,0.67l0.15,0.67l0.25,0.77l0.15,0.51l0.1,0.67l0.15,0.67l0.1,0.51v0.46l5.02-3.85V83.3l-0.1-0.14l-0.01-0.53l-0.15-0.4V81.6
				l-0.15-0.82v-1.03l-0.1-1.02l-0.15-1.18v-0.41l-0.1-0.4v-0.36l-0.4-1.07l-0.25-0.93l-0.25-0.35l-0.16-0.42l-0.25-0.35l-0.51-0.82
				l-0.26-0.51l-0.25-0.41l-0.39-0.34L78.44,75.97z M28.89,86.47v-0.56l-0.1-0.56l-0.15-0.62l-0.1-0.67l-0.3-0.66l-0.1-0.78
				l-0.15-0.67l-0.51-1.53l-0.25-0.82l-0.25-0.77l-0.25-0.93l-0.56-1.69L25.8,75.3l-0.41-1.04l0.01-0.01l5.09-4.48l0.42,0.42
				l0.11,0.26l0.15,0.41l0.25,0.35l0.26,0.67l0.25,0.51l0.15,0.83l0.25,0.61l0.25,0.82l0.4,0.87l0.26,0.93l0.25,1.08l0.25,1.18
				l0.25,1.03l0.4,1.28l0.26,1.35l-0.01,0.01L28.89,86.47z M25.45,74.28l0.75,1.93l0.56,1.69l0.25,0.93l0.25,0.77l0.25,0.82
				l0.51,1.54l0.15,0.67l0.1,0.77l0.3,0.66l0.1,0.67l0.15,0.62l0.1,0.56v0.47l5.67-4.01l-0.25-1.32l-0.4-1.28l-0.25-1.03l-0.25-1.18
				l-0.25-1.08l-0.25-0.92l-0.4-0.87l-0.25-0.82l-0.25-0.61l-0.15-0.83l-0.25-0.5l-0.25-0.67l-0.25-0.35l-0.26-0.67l-0.38-0.39
				L25.45,74.28z M133.39,85.54v-9.56h-7.73l-1.32,0.16h-1.17l-1.16,0.1l-0.91,0.15h-0.92l-0.4,0.1h-0.36l-0.4,0.15h-0.26l-0.25,0.1
				h-0.41l-0.24,0.15l-0.17,0.01l-0.25,0.1h-0.11l-0.29,0.15h-0.13l-0.01-0.01l-3.16-6.43l0.03-0.01l0.25-0.1h0.41l0.24-0.15
				l0.41-0.16l0.41-0.1l0.35-0.15l0.41,0l0.4-0.1l0.51-0.15h0.41l0.5-0.1l0.51-0.15h0.51l0.65-0.1h0.51l0.65-0.15l1.32-0.1h1.32
				l1.41-0.15h1.58l1.52-0.15h5.3V59.2l0.04,0.03l20.04,13.2l-0.03,0.02L133.39,85.54z M126.93,75.93h6.51v9.51l19.94-13.02
				l-19.94-13.13v9.62h-5.34l-1.52,0.15h-1.58l-1.41,0.15h-1.32l-1.32,0.1l-0.65,0.15h-0.51l-0.65,0.1h-0.51l-0.5,0.15l-0.51,0.1
				h-0.41l-0.5,0.15l-0.41,0.1h-0.41l-0.35,0.15l-0.41,0.1l-0.41,0.15l-0.25,0.15l-0.42,0l-0.22,0.09l3.12,6.37h0.09l0.29-0.15h0.11
				l0.25-0.1h0.16l0.24-0.15l0.42-0.01l0.25-0.1h0.26l0.4-0.15h0.36l0.4-0.1h0.92l0.91-0.15l1.17-0.1h1.17l1.32-0.16H126.93z
				 M8.42,80.03H1.38v-1.2l0.15-0.52v-0.76l0.1-0.41v-0.41l0.15-0.52l0.1-0.41l0.15-0.36l0-0.4l0.1-0.37l0.15-0.31L2.55,74l0.15-0.4
				l0.1-0.36l0.15-0.41l0.25-0.42l0.1-0.25l0.31-0.36l0.1-0.4l0.26-0.27l0.25-0.4l0.31-0.26l0.25-0.4l0.26-0.26l0.25-0.36l0.25-0.26
				l0.25-0.41l0.41-0.26l0.27-0.27l0.02,0.02l4.42,5.09l-0.01,0.02l-0.1,0.15l-0.16,0.11l-0.14,0.25l-0.1,0.16l-0.16,0.11
				l-0.09,0.25l-0.16,0.16l-0.1,0.15l-0.15,0.26l-0.16,0.11l-0.09,0.24l-0.16,0.16l0.01,0.24l-0.11,0.12l-0.15,0.3l0,0.24l-0.1,0.12
				l-0.15,0.25l0,0.25l-0.11,0.17l0.01,0.5l-0.16,0.17l0.01,0.5l-0.15,0.27L8.42,80.03z M1.43,79.99h6.94v-1.41l0.15-0.27l0-0.5
				l0.16-0.17l-0.01-0.5l0.11-0.17l-0.01-0.25l0.15-0.27l0.1-0.11l-0.01-0.24l0.15-0.32l0.11-0.11l-0.01-0.24l0.16-0.17l0.09-0.25
				l0.16-0.12l0.14-0.25l0.1-0.15l0.15-0.16l0.1-0.25l0.16-0.11l0.09-0.15l0.15-0.25l0.16-0.11l0.08-0.13l-4.37-5.04l-0.23,0.24
				l-0.41,0.26l-0.24,0.4l-0.26,0.26l-0.25,0.36l-0.25,0.26L4.57,70.5l-0.31,0.26l-0.25,0.4l-0.25,0.26l-0.1,0.4l-0.31,0.37
				l-0.1,0.25L3,72.86l-0.15,0.41l-0.1,0.36L2.6,74.03L2.34,74.4l-0.15,0.3l-0.1,0.36v0.4l-0.15,0.37l-0.1,0.41l-0.15,0.51v0.4
				l-0.1,0.41v0.77l-0.15,0.52L1.43,79.99L1.43,79.99z M74.62,72.1l-0.02-0.01l-0.35-0.15l-0.26-0.26l-0.3-0.15l-0.35-0.1
				l-0.26-0.16l-0.25-0.1l-0.31-0.15l-0.35-0.1l-0.26-0.16l-0.3-0.1h-0.35L71,70.5l-0.64,0l-0.26-0.16l-1.15,0l-0.24,0.15l-0.67,0
				l-0.24,0.15l-0.31,0.1h-0.36l-0.24,0.15l-0.26,0.1l-0.66,0.25l-0.25,0.15l-0.31,0.1l-0.37,0.33l-0.01-0.04l-2.24-6.43l0.02-0.01
				l0.51-0.26l0.4-0.25l0.51-0.16l0.4-0.15l0.51-0.1l0.39-0.25l0.51-0.16h0.41l0.5-0.1l0.4-0.15l0.51-0.1h0.82l0.5-0.15h1.83
				l0.36,0.16l0.9,0l0.41,0.1l0.51,0.15l0.4,0.1H74l0.52,0.15l0.41,0.26l0.5,0.1l0.36,0.16l0.4,0.15l0.51,0.26l0.42,0.27l-0.01,0.02
				L74.62,72.1z M71.62,70.61l0.31,0.1l0.26,0.16l0.35,0.1l0.31,0.15l0.25,0.1l0.26,0.16l0.35,0.1l0.31,0.16l0.26,0.26l0.32,0.13
				l2.46-6.62l-0.39-0.24l-0.51-0.25l-0.4-0.15l-0.36-0.16l-0.5-0.1l-0.41-0.26l-0.5-0.15h-0.4l-0.41-0.1l-0.51-0.15l-0.4-0.1h-0.91
				L71,63.57l-1.81,0l-0.5,0.15h-0.82l-0.5,0.1l-0.4,0.15l-0.51,0.1h-0.41l-0.5,0.15l-0.4,0.25l-0.52,0.11l-0.4,0.15l-0.51,0.15
				l-0.4,0.25l-0.49,0.25l2.21,6.35l0.33-0.28l0.31-0.11l0.25-0.15l0.25-0.1l0.66-0.25l0.25-0.15l0.37,0l0.3-0.1l0.25-0.15l0.67,0
				l0.24-0.15l1.18,0l0.26,0.16l0.65,0l0.26,0.16L71.62,70.61z M21.68,71.85l-0.53-0.32L21,71.42l-0.25-0.15l-0.24,0l-0.26-0.1
				h-0.29l-0.26-0.15l-0.24,0l-0.12-0.11l-0.23,0.01l-0.31-0.16l-2.67,0l-0.29,0.15l-0.26,0l-0.24,0.1h-0.26l-0.24,0.15l-0.26,0
				l-0.24,0.1l-0.25,0.15l-0.34,0L13.7,71.4l-2.19-6.43l0.43-0.11l0.35-0.15l0.4-0.26l0.41-0.16l0.36-0.1h0.41l0.39-0.15l0.51-0.1
				l0.4-0.15h0.77l0.4-0.1h2.84l0.41,0.1h0.35l0.41,0.15l0.4,0.1h0.5l0.41,0.15l0.35,0.1l0.41,0.15l0.4,0.1l0.41,0.15l0.51,0.26
				l0.35,0.15l0.43,0.27l-0.01,0.02L21.68,71.85z M20.76,71.22l0.27,0.16l0.15,0.1l0.48,0.29l2.82-6.36l-0.39-0.24l-0.35-0.15
				l-0.51-0.26l-0.4-0.15l-0.4-0.1l-0.41-0.15l-0.35-0.1l-0.41-0.15h-0.5l-0.41-0.1l-0.41-0.15h-0.35l-0.41-0.1h-2.83l-0.4,0.1
				h-0.77l-0.4,0.15l-0.51,0.1l-0.4,0.15h-0.41l-0.35,0.1l-0.4,0.15l-0.4,0.25l-0.36,0.15l-0.38,0.1l2.17,6.36h0.29l0.24-0.15
				l0.26-0.1h0.26l0.24-0.15l0.27,0l0.24-0.1h0.26l0.29-0.15l2.7,0l0.31,0.16l0.24,0l0.12,0.11l0.23-0.01l0.26,0.15l0.29,0l0.26,0.1
				L20.76,71.22L20.76,71.22z"/>
		</g>
	</g>
	<polygon class="st3" points="0.51,97.94 155.49,97.94 155.49,58.06 0.51,58.06 	"/>
</g>
</svg>
