<?xml version="1.0" encoding="utf-8"?>
<!-- Generator: Adobe Illustrator 28.0.0, SVG Export Plug-In . SVG Version: 6.00 Build 0)  -->
<svg version="1.1" id="Layer_1" xmlns="http://www.w3.org/2000/svg" xmlns:xlink="http://www.w3.org/1999/xlink" x="0px" y="0px"
	 viewBox="0 0 156 156" width="156px" height="156px"  style="enable-background:new 0 0 156 156;" xml:space="preserve">
<style type="text/css">
	.st0{fill-rule:evenodd;clip-rule:evenodd;fill:#1214FF;}
</style>
<path class="st0" d="M13.7,71.4c-0.2-0.1-0.3-0.5-0.5-1.1c-0.5-1.5-1.5-4.1-1.6-4.9c0-0.3,0.1-0.5,0.3-0.6c3.7-1.6,8-1.5,11.7,0
	c1,0.4,1.1,0.8,0.5,1.9c-0.7,1.5-1.8,4.1-2.2,4.8c-0.1,0.2-0.3,0.2-0.5,0.2c-1.3-0.5-2.7-0.9-4.1-0.8C16.2,70.7,14.9,71.3,13.7,71.4
	L13.7,71.4z M32.5,92.3c-0.1-0.3,0.2-0.7,0.7-1.3c0.9-1.2,2.3-3.3,2.9-4.1c0.7-0.9,1.6,0.8,2.2,1.2c1.8,1.4,4.1,2.1,6.4,1.9
	c1.3,0.1,0.9,1.4,1.2,2.7c0.1,0.8,0.3,1.7,0.3,2.3c0.1,0.7-0.1,1.3-0.9,1.5c-0.6,0.1-1.4,0.2-1.8,0.4c-4,0-8.2-1.4-11-4.4L32.5,92.3
	z M50.5,87.7c0.4,1.5,2,3.6,2.8,5.1c0.4,0.7,1,0.9,1.6,0.2c4.7-4.3,4.5-9.8,5.8-15.3c0.2-1.1,0.8-1.8,0.3-2.9
	c-0.5-0.8-1.1-1.4-1.9-2.2c-0.9-0.8-1.3-1.8-2.3-1.8c-1.5,1.4-2.1,4.1-2.8,6.2c-0.8,3.6-1.6,7.4-3.4,10.6L50.5,87.7z M62.8,65.4
	c-0.1,0.3,0,0.6,0.2,1.3c0.5,1.4,1.3,3.9,1.7,4.7c0.1,0.2,0.3,0.4,0.6,0.3c2.7-1.5,5.8-1.4,8.6,0.2c1.2,0.6,1.3-1.8,2-3.1
	c0.4-1.1,0.8-2.2,1-2.8c0.1-0.4,0.1-0.7-0.3-1c-4.1-2.2-9.6-2.1-13.7,0.2L62.8,65.4z M78.4,75.9c0.3-0.7,1.1-1.2,2.1-2.4
	c1.1-1,1.7-2,2.5-2.4c0.2,0,0.3,0.1,0.5,0.2c1.2,1.6,2.1,3.6,2.4,5.6c0.3,2,0.4,4.6,0.6,6.4c0,0.3-0.1,0.5-0.4,0.7
	c-0.8,0.7-3.1,2.5-4.1,3.2c-0.3,0.2-0.5,0.3-0.6,0c-0.3-1.6-0.7-3.2-1.1-4.8c-0.5-2.1-1.4-4.4-1.9-6.3L78.4,75.9z M90,88.5
	c-0.2,0-0.4,0.4-0.7,1c-0.6,1.4-1.7,3.5-2.1,4.6c-0.1,0.3,0,0.5,0.2,0.6c2.2,1.4,4.9,1.9,7.5,1.9c1.8-0.1,3.9-0.1,5.5-0.9
	c0.2-0.2,0.2-0.6,0-1.3c-0.3-1.2-0.9-3.2-1.1-4.1C99,89.3,97.9,90,97.1,90c-2.3,0.4-4.9-0.3-7-1.5L90,88.5z M103.4,84.6
	c0,0.2,0.4,0.5,0.9,1c1.4,1.3,3.3,3.4,4.3,4c0.3,0,0.4-0.4,0.5-0.6c1.4-3.1,3.2-6,4.9-8.9c0.3-0.7-0.4-0.7-1.3-1.4
	c-1.2-0.8-3.3-2.2-4.4-2.9c-1.1-0.8-1.3,1-1.8,1.7c-1.1,2.2-2.3,4.7-3.2,6.9L103.4,84.6z M133.1,68.6c0.2-0.2,0.3-0.5,0.3-0.8
	c0.1-2-0.1-6.7,0.1-8.5c0.2-0.2,0.3,0.1,0.6,0.2c0.8,0.5,2.5,1.7,4.6,3c4.3,2.8,9.9,6.5,14,9.2c0.4,0.3,1,0.5,0.8,0.8
	c-1,0.7-16.3,10.7-19.4,12.7c-0.7,0.5-0.7,0.2-0.7-0.4c0-1.4,0-5.8,0-7.6c0-0.7-0.4-1.2-1.2-1.2c-3-0.1-6.1-0.1-9.2,0.2
	c-2.5,0.1-4.1,0.5-5.8,0.7c-1.1-0.3-1.2-1.3-1.9-2.5c-0.5-1.1-1.4-2.5-1.4-3.5c0.1-0.2,0.2-0.3,0.5-0.5c1.8-0.6,3.8-0.9,6.1-1.1
	c3.9-0.4,8.5-0.3,12.4-0.6L133.1,68.6z M25.4,74.2c0-0.3,0.4-0.6,1-1.1c1.1-1,2.9-2.6,3.6-3.1c0.8-0.6,1.1,0.7,1.5,1.3
	c1.3,3.3,2.3,6.9,3.1,10.4c0.3,1.5-1.8,2-2.8,2.9c-0.6,0.4-1.2,0.8-1.7,1.2c-0.7,0.5-1,0.7-1.2,0.4c-0.4-1.6-0.9-3.9-1.4-5.4
	c-0.6-2.1-1.4-4.4-2.1-6.4L25.4,74.2z M1.4,80c0.6,0.3,1.8,0,3.3,0.1c1.4,0,2.7,0,3.3,0c0.3-0.1,0.4-0.2,0.5-0.5
	c0.1-2.2,0.9-4.2,2.2-5.9c0.3-0.8-0.5-1.1-1.2-2.1c-0.9-0.9-2-2.4-2.8-3.1c-0.4-0.2-0.7,0.2-1,0.5c-2.7,2.9-4.4,7-4.3,10.9L1.4,80z"
	/>
</svg>
