<?xml version="1.0" encoding="utf-8"?>
<!-- Generator: Adobe Illustrator 28.0.0, SVG Export Plug-In . SVG Version: 6.00 Build 0)  -->
<svg version="1.1" id="Layer_1" xmlns="http://www.w3.org/2000/svg" xmlns:xlink="http://www.w3.org/1999/xlink" x="0px" y="0px"
	 viewBox="0 0 156 156" style="enable-background:new 0 0 156 156;" xml:space="preserve">
<style type="text/css">
	.st0{fill-rule:evenodd;clip-rule:evenodd;fill:#FFFFFF;}
	.st1{fill:#0000FF;}
	.st2{fill:none;}
</style>
<g>
	<polygon class="st0" points="23.64,0 132.36,0 132.36,156 23.64,156 23.64,0 	"/>
	<polygon class="st0" points="25.6,1.46 122.98,1.46 122.98,146.65 25.6,146.65 25.6,1.46 	"/>
	<path class="st1" d="M122.49,146.16h-96.4V1.96h96.4V146.16z M37.41,134.84h73.77V13.27H37.41V134.84z"/>
	<path class="st1" d="M74.53,81.71L41.11,36.9h66.85L74.53,81.71z M55.83,44.28l18.71,25.08l18.71-25.08H55.83z"/>
	<rect x="71.34" y="75.53" class="st1" width="7.38" height="34.88"/>
	<polygon class="st2" points="24.11,155.53 131.89,155.53 131.89,0.47 24.11,0.47 24.11,155.53 	"/>
</g>
</svg>
