<?xml version="1.0" encoding="utf-8"?>
<!-- Generator: Adobe Illustrator 28.0.0, SVG Export Plug-In . SVG Version: 6.00 Build 0)  -->
<svg version="1.1" id="Layer_1" xmlns="http://www.w3.org/2000/svg" xmlns:xlink="http://www.w3.org/1999/xlink" x="0px" y="0px"
	 viewBox="0 0 156 156" style="enable-background:new 0 0 156 156;" xml:space="preserve">
<style type="text/css">
	.st0{fill-rule:evenodd;clip-rule:evenodd;fill:#FFFFFF;}
	.st1{fill:#0000FF;}
	.st2{fill-rule:evenodd;clip-rule:evenodd;fill:#0000FF;}
	.st3{font-family:'MyriadPro-Regular';}
	.st4{font-size:27.7083px;}
	.st5{letter-spacing:2.99;}
	.st6{fill:none;}
</style>
<g>
	<polygon class="st0" points="27.15,0 128.85,0 128.85,156 27.15,156 27.15,0 	"/>
	<polygon class="st0" points="27.96,1.28 127.41,1.28 127.41,153.28 27.96,153.28 27.96,1.28 	"/>
	<rect x="39.73" y="41.66" class="st1" width="7.92" height="91.36"/>
	<path class="st2" d="M28.6,138.24c0-7.96,6.72-14.41,15.01-14.41l0,0l0,0c8.29,0,15.01,6.45,15.01,14.41l0,0l0,0
		c0,7.96-6.72,14.41-15.01,14.41l0,0l0,0C35.32,152.65,28.6,146.2,28.6,138.24L28.6,138.24L28.6,138.24z"/>
	<path class="st1" d="M43.61,153.12c-8.54,0-15.48-6.67-15.48-14.88c0-8.21,6.95-14.88,15.48-14.88c8.54,0,15.49,6.68,15.49,14.88
		C59.1,146.45,52.15,153.12,43.61,153.12z M43.61,124.31c-8.01,0-14.54,6.25-14.54,13.94c0,7.68,6.52,13.93,14.54,13.93
		c8.02,0,14.54-6.25,14.54-13.93C58.15,130.56,51.62,124.31,43.61,124.31z"/>
	<path class="st1" d="M81.34,81.4c-22.86,0-41.45-17.93-41.45-39.98S58.48,1.44,81.34,1.44c22.85,0,41.44,17.94,41.44,39.98
		S104.19,81.4,81.34,81.4z M81.34,9.36c-18.49,0-33.53,14.38-33.53,32.06s15.04,32.06,33.53,32.06c18.49,0,33.53-14.38,33.53-32.06
		S99.83,9.36,81.34,9.36z"/>
	<text transform="matrix(1.0033 0 0 1 51.9115 51.7294)" class="st1 st3 st4">B</text>
	<text transform="matrix(1.0033 0 0 1 71.9349 51.7294)"><tspan x="0" y="0" class="st1 st3 st4 st5">F</tspan><tspan x="16.93" y="0" class="st1 st3 st4">O</tspan></text>
	<polygon class="st6" points="27.65,155.51 128.35,155.51 128.35,0.49 27.65,0.49 27.65,155.51 	"/>
</g>
</svg>
