<?xml version="1.0" encoding="utf-8"?>
<!-- Generator: Adobe Illustrator 28.0.0, SVG Export Plug-In . SVG Version: 6.00 Build 0)  -->
<svg version="1.1" id="Layer_1" xmlns="http://www.w3.org/2000/svg" xmlns:xlink="http://www.w3.org/1999/xlink" x="0px" y="0px"
	 viewBox="0 0 156 156" style="enable-background:new 0 0 156 156;" xml:space="preserve">
<style type="text/css">
	.st0{fill:#0000FF;}
	.st1{fill-rule:evenodd;clip-rule:evenodd;fill:#0000FF;}
	.st2{font-family:'MyriadPro-Regular';}
	.st3{font-size:27.7083px;}
	.st4{letter-spacing:2;}
</style>
<g>
	<rect x="39.7" y="41.7" class="st0" width="7.9" height="91.4"/>
	<path class="st1" d="M28.6,138.2c0-8,6.7-14.4,15-14.4l0,0l0,0c8.3,0,15,6.4,15,14.4l0,0l0,0c0,8-6.7,14.4-15,14.4l0,0l0,0
		C35.3,152.6,28.6,146.2,28.6,138.2L28.6,138.2L28.6,138.2z"/>
	<path class="st0" d="M43.6,153.1c-8.5,0-15.5-6.7-15.5-14.9s7-14.9,15.5-14.9c8.5,0,15.5,6.7,15.5,14.9
		C59.1,146.4,52.2,153.1,43.6,153.1z M43.6,124.3c-8,0-14.5,6.2-14.5,13.9c0,7.7,6.5,13.9,14.5,13.9s14.5-6.2,14.5-13.9
		C58.2,130.6,51.6,124.3,43.6,124.3z"/>
	<path class="st0" d="M81.3,81.4c-22.9,0-41.5-17.9-41.5-40s18.6-40,41.5-40c22.8,0,41.4,17.9,41.4,40S104.2,81.4,81.3,81.4z
		 M81.3,9.4c-18.5,0-33.5,14.4-33.5,32.1s15,32.1,33.5,32.1s33.5-14.4,33.5-32.1S99.8,9.4,81.3,9.4z"/>
	<text transform="matrix(1.0033 0 0 1 51.9116 51.7295)" class="st0 st2 st3">B</text>
	<text transform="matrix(1.0033 0 0 1 71.9351 51.7295)" class="st0 st2 st3 st4">F</text>
	<text transform="matrix(1.0033 0 0 1 88.9209 51.7295)" class="st0 st2 st3">O</text>
</g>
</svg>
