<?xml version="1.0" encoding="utf-8"?>
<!-- Generator: Adobe Illustrator 28.0.0, SVG Export Plug-In . SVG Version: 6.00 Build 0)  -->
<svg version="1.1" id="Layer_1" xmlns="http://www.w3.org/2000/svg" xmlns:xlink="http://www.w3.org/1999/xlink" x="0px" y="0px"
	 viewBox="0 0 156 156" style="enable-background:new 0 0 156 156;" xml:space="preserve">
<style type="text/css">
	.st0{fill-rule:evenodd;clip-rule:evenodd;fill:#FFFFFF;}
	.st1{enable-background:new    ;}
	.st2{font-family:'MyriadPro-Regular';}
	.st3{font-size:11.1872px;}
	.st4{letter-spacing:1;}
	.st5{fill-rule:evenodd;clip-rule:evenodd;fill:#FFFF66;}
	.st6{font-size:22.3745px;}
	.st7{fill:none;}
</style>
<g>
	<polygon class="st0" points="0,15.76 156,15.76 156,140.24 0,140.24 	"/>
	<polygon class="st0" points="0.73,16.47 151.93,16.47 151.93,135.95 0.73,135.95 	"/>
	<path d="M71.98,135.72c-0.1,0-0.2-0.01-0.3-0.02l-8.7-1.79c-1.32-0.27-2.54-0.74-3.72-1.2c-0.56-0.22-1.11-0.43-1.68-0.62
		l-20.87-7.14c-1.57-0.53-2.79-1.54-3.98-2.51c-0.52-0.43-1.04-0.85-1.59-1.23L15.5,110.48c-2.63-1.8-4.03-4.67-5.38-7.44
		c-0.64-1.32-1.25-2.56-1.97-3.68c-1.59-2.44-2.24-5.26-2.87-7.99c-0.24-1.05-0.49-2.09-0.78-3.11c-1.89-6.47-2.24-9.79-2.82-15.3
		c-0.19-1.8-0.41-3.85-0.71-6.35c-0.02-0.21-0.01-0.42,0.06-0.62l3.48-10.72c0.52-1.6,1.5-2.86,2.44-4.07
		c0.41-0.53,0.83-1.07,1.2-1.63L18.58,33.5c0.1-0.16,0.24-0.3,0.4-0.41l10.44-7.14c1.24-0.85,2.59-1.18,3.9-1.5
		c0.56-0.14,1.13-0.27,1.66-0.46c1.15-0.39,2.29-0.81,3.43-1.24c2.3-0.85,4.68-1.74,7.12-2.36c8.63-2.21,24.86-3.38,29.86-3.61l0,0
		l0.69-0.03c3.06-0.14,3.3-0.16,4.21,0.39c0.36,0.22,1.1,0.67,4.23,1.47c5.16,1.32,7.94,1.99,9.69,2.42
		c3.03,0.73,3.1,0.75,6.92,2.07l2.63,0.9c1.37,0.47,2.67,0.89,3.91,1.28c6.5,2.09,11.63,3.73,17.53,9.79
		c1.01,1.04,1.19,2.39,1.34,3.57c0.1,0.77,0.2,1.51,0.5,1.9c1.38,1.78,2.3,2.75,2.87,3.3c0.22-0.33,0.55-0.57,0.95-0.64
		c0.75-0.12,1.52,0.57,1.72,1.29c0.14,0.49,0.49,1.81,1.44,4.74l4.53,1.55c3.49,1.2,4.99,4.87,6.3,8.12
		c0.49,1.19,0.94,2.31,1.46,3.28c0.77,1.43,1.17,2.95,1.54,4.43c0.1,0.41,0.21,0.82,0.33,1.23c2.22,7.97,2.38,10.56,2.77,16.8
		c0.16,2.56,0.36,5.76,0.76,10.24c0.02,0.19-0.01,0.39-0.06,0.57l-1.74,5.35c-0.52,1.6-1.5,2.86-2.44,4.07
		c-0.41,0.53-0.84,1.07-1.2,1.63l-6.96,10.72c-0.1,0.16-0.24,0.3-0.4,0.41l-5.22,3.57c-2.39,1.64-5.14,2.31-7.8,2.95
		c-1.02,0.25-2.04,0.49-3.03,0.8c-4.09,1.26-8.84,2.21-13.03,3.05l-2.76,0.56c-1.08,0.22-2.14,0.63-3.26,1.07
		c-0.59,0.23-1.19,0.46-1.79,0.67c-1.13,0.39-2.25,0.84-3.37,1.28c-2.32,0.93-4.72,1.88-7.28,2.35c-4.29,0.77-8.67,1.06-12.89,1.33
		c-2.12,0.14-4.25,0.27-6.36,0.47C72.08,135.72,72.03,135.72,71.98,135.72z M3.89,66.57c0.29,2.37,0.49,4.34,0.68,6.08
		c0.58,5.53,0.9,8.58,2.71,14.79c0.31,1.07,0.57,2.17,0.82,3.27c0.61,2.59,1.17,5.04,2.48,7.05c0.82,1.27,1.5,2.65,2.15,3.99
		c1.24,2.55,2.41,4.95,4.41,6.31l15.66,10.72c0.61,0.42,1.2,0.9,1.79,1.38c1.03,0.85,2,1.64,3.08,2.01l20.87,7.14
		c0.6,0.21,1.2,0.44,1.79,0.67c1.12,0.44,2.17,0.85,3.25,1.07l8.49,1.75c2.07-0.19,4.15-0.32,6.22-0.45
		c4.15-0.27,8.44-0.54,12.57-1.29c2.27-0.41,4.43-1.27,6.72-2.19c1.17-0.46,2.33-0.93,3.5-1.33c0.57-0.19,1.12-0.41,1.68-0.62
		c1.18-0.46,2.4-0.93,3.73-1.2l2.77-0.56c4.32-0.86,8.79-1.76,12.74-2.98c1.05-0.32,2.11-0.58,3.19-0.85
		c2.52-0.61,4.9-1.2,6.85-2.53l4.98-3.41l6.8-10.47c0.41-0.63,0.88-1.23,1.34-1.84c0.83-1.06,1.61-2.07,1.97-3.18l1.64-5.07
		c-0.38-4.36-0.57-7.5-0.73-10.02c-0.38-6.2-0.53-8.52-2.67-16.2c-0.12-0.43-0.23-0.86-0.34-1.29c-0.35-1.36-0.68-2.66-1.28-3.76
		c-0.61-1.12-1.11-2.36-1.6-3.57c-1.19-2.93-2.31-5.69-4.55-6.46l-5.22-1.79c-0.43-0.15-0.77-0.49-0.91-0.93
		c-0.48-1.48-0.83-2.6-1.09-3.45c-1.34-0.12-2.96-1.61-5.63-5.04c-0.79-1.01-0.95-2.24-1.09-3.31c-0.1-0.81-0.21-1.57-0.54-1.92
		c-5.39-5.54-9.98-7.01-16.34-9.05c-1.25-0.41-2.57-0.83-3.97-1.3l-2.64-0.91c-3.73-1.28-3.73-1.28-6.65-1.99
		c-1.76-0.42-4.55-1.1-9.73-2.43c-3.26-0.84-4.29-1.36-5.01-1.8c-0.26-0.09-1.18-0.04-2.57,0.02l-0.69,0.03l-0.07-1.45l0.07,1.45
		c-7.34,0.34-21.78,1.6-29.28,3.53c-2.3,0.59-4.6,1.44-6.83,2.27c-1.17,0.43-2.33,0.86-3.5,1.27c-0.62,0.22-1.27,0.38-1.91,0.53
		c-1.11,0.27-2.15,0.53-2.95,1.08l-10.18,6.95L10.59,51.15c-0.41,0.63-0.88,1.23-1.34,1.83c-0.83,1.06-1.61,2.07-1.97,3.18
		L3.89,66.57z"/>
	<rect x="-5.44" y="43.49" transform="matrix(0.6345 -0.7729 0.7729 0.6345 -27.0877 30.5846)" width="48.47" height="0.89"/>
	<rect x="-9.05" y="46.48" transform="matrix(0.6423 -0.7665 0.7665 0.6423 -27.3821 35.1807)" width="66.1" height="0.89"/>
	<rect x="-10.84" y="50.26" transform="matrix(0.6397 -0.7686 0.7686 0.6397 -28.2132 41.2211)" width="81.41" height="0.89"/>
	<rect x="-10.51" y="53" transform="matrix(0.6397 -0.7686 0.7686 0.6397 -28.4855 46.1235)" width="90.94" height="0.89"/>
	<rect x="-5.66" y="63.91" transform="matrix(0.6397 -0.7686 0.7686 0.6397 -31.0786 62.4089)" width="113.39" height="0.89"/>
	<rect x="-0.86" y="66.53" transform="matrix(0.6397 -0.7686 0.7686 0.6397 -30.9412 67.9523)" width="115.75" height="0.89"/>
	<rect x="-10.41" y="56.16" transform="matrix(0.6397 -0.7686 0.7686 0.6397 -28.9818 51.3875)" width="101.47" height="0.89"/>
	<rect x="-8.19" y="59.79" transform="matrix(0.6409 -0.7676 0.7676 0.6409 -29.7552 56.8736)" width="108.2" height="0.89"/>
	<polygon points="25.45,115.77 24.77,115.19 100.81,24.02 101.51,24.58 	"/>
	<rect x="8.81" y="72.38" transform="matrix(0.6397 -0.7686 0.7686 0.6397 -31.0914 79.3237)" width="120.51" height="0.89"/>
	<rect x="13.79" y="75.76" transform="matrix(0.6397 -0.7686 0.7686 0.6397 -31.6084 84.9902)" width="122.12" height="0.89"/>
	<polygon points="42.01,125.27 41.32,124.7 118.77,31.85 119.45,32.42 	"/>
	<rect x="25.69" y="80.97" transform="matrix(0.6409 -0.7676 0.7676 0.6409 -31.6758 95.1268)" width="120.3" height="0.89"/>
	<rect x="33.91" y="85.78" transform="matrix(0.6409 -0.7676 0.7676 0.6409 -33.7312 100.3466)" width="112.96" height="0.89"/>
	<rect x="40.69" y="89.33" transform="matrix(0.6397 -0.7686 0.7686 0.6397 -34.3483 106.2735)" width="110.99" height="0.89"/>
	<rect x="48.13" y="92.27" transform="matrix(0.6397 -0.7686 0.7686 0.6397 -34.6426 111.522)" width="107.02" height="0.89"/>
	<polygon points="75.56,134.39 74.87,133.82 141.13,54.67 141.82,55.24 	"/>
	<rect x="67.76" y="97.11" transform="matrix(0.6449 -0.7643 0.7643 0.6449 -33.9667 122.0021)" width="93.09" height="0.89"/>
	<rect x="79.01" y="99.82" transform="matrix(0.6397 -0.7686 0.7686 0.6397 -33.6776 128.6807)" width="82.82" height="0.89"/>
	<rect x="93.67" y="101.35" transform="matrix(0.6397 -0.7686 0.7686 0.6397 -32.4827 134.3071)" width="66.7" height="0.89"/>
	<polygon points="115.82,125.61 115.13,125.04 148.96,84.2 149.65,84.77 	"/>
	<polygon points="125.89,123.76 125.19,123.19 149.52,93.82 150.21,94.4 	"/>
	<g class="st1">
		<text transform="matrix(0.9996 0 0 1 33.9043 70.4829)" class="st2 st3 st4">B</text>
	</g>
	<g class="st1">
		<text transform="matrix(0.9996 0 0 1 41.9521 70.4829)" class="st2 st3">I</text>
	</g>
	<g class="st1">
		<text transform="matrix(0.9996 0 0 1 44.8633 70.4829)" class="st2 st3">O</text>
	</g>
	<polygon class="st5" points="50.39,101.04 75.22,45.56 98.92,101.04 	"/>
	<path d="M98.92,102.16H50.39c-0.38,0-0.73-0.19-0.94-0.51c-0.21-0.32-0.24-0.72-0.08-1.07l24.82-55.49
		c0.18-0.41,0.63-0.63,1.03-0.66c0.45,0.01,0.85,0.27,1.02,0.68l23.71,55.49c0.14,0.34,0.11,0.74-0.1,1.05
		C99.65,101.98,99.3,102.16,98.92,102.16z M52.11,99.93h45.12L75.19,48.35L52.11,99.93z"/>
	<polygon class="st5" points="64.48,39.51 85.5,39.51 85.5,70.17 64.48,70.17 	"/>
	<path d="M85.5,71.29H64.48c-0.61,0-1.12-0.5-1.12-1.12V39.51c0-0.61,0.5-1.12,1.12-1.12H85.5c0.61,0,1.12,0.5,1.12,1.12v30.65
		C86.62,70.79,86.12,71.29,85.5,71.29z M65.6,69.05h18.78V40.63H65.6V69.05z"/>
	<polygon class="st5" points="65.82,49.36 84.83,49.36 84.83,81.14 65.82,81.14 	"/>
	<text transform="matrix(0.9996 0 0 1 67.1938 93.5811)" class="st2 st6">B</text>
	<rect x="69.53" y="54.17" transform="matrix(1.592353e-03 -1 1 1.592353e-03 29.875 139.612)" width="30.66" height="1.34"/>
	<polygon class="st5" points="79.47,74.42 82.71,63.91 85.95,74.42 	"/>
	<polygon class="st5" points="63.8,74.87 67.16,64.35 70.52,74.87 	"/>
	<polygon class="st7" points="0.26,139.98 155.74,139.98 155.74,16.02 0.26,16.02 	"/>
</g>
</svg>
