<?xml version="1.0" encoding="utf-8"?>
<!-- Generator: Adobe Illustrator 28.0.0, SVG Export Plug-In . SVG Version: 6.00 Build 0)  -->
<svg version="1.1" id="Layer_1" xmlns="http://www.w3.org/2000/svg" xmlns:xlink="http://www.w3.org/1999/xlink" x="0px" y="0px"
	 viewBox="0 0 156 156" width="156px" height="156px"  style="enable-background:new 0 0 156 156;" xml:space="preserve">
<style type="text/css">
	.st0{enable-background:new    ;}
	.st1{font-family:'Arial'; font-weight: 600;}
	.st2{font-size:11.1872px;}
	.st3{fill-rule:evenodd;clip-rule:evenodd;fill:#FFFF66;}
	.st4{font-size:22.3745px;}
</style>
<g>
	<path d="M72,135.7c-0.1,0-0.2,0-0.3,0l-8.7-1.8c-1.3-0.3-2.5-0.7-3.7-1.2c-0.6-0.2-1.1-0.4-1.7-0.6L36.7,125
		c-1.6-0.5-2.8-1.5-4-2.5c-0.5-0.4-1-0.8-1.6-1.2l-15.6-10.7c-2.6-1.8-4-4.7-5.4-7.4c-0.6-1.3-1.2-2.6-2-3.7c-1.6-2.4-2.2-5.3-2.9-8
		c-0.2-1.1-0.5-2.1-0.8-3.1C2.6,81.8,2.3,78.5,1.7,73c-0.2-1.8-0.4-3.8-0.7-6.3C1,66.4,1,66.2,1,66l3.5-10.7C5,53.7,6,52.4,7,51.2
		c0.4-0.5,0.8-1.1,1.2-1.6l10.4-16.1c0.1-0.2,0.2-0.3,0.4-0.4L29.4,26c1.2-0.9,2.6-1.2,3.9-1.5c0.6-0.1,1.1-0.3,1.7-0.5
		c1.2-0.4,2.3-0.8,3.4-1.2c2.3-0.9,4.7-1.7,7.1-2.4c8.6-2.2,24.9-3.4,29.9-3.6l0,0l0.7,0c3.1-0.1,3.3-0.2,4.2,0.4
		c0.4,0.2,1.1,0.7,4.2,1.5c5.2,1.3,7.9,2,9.7,2.4c3,0.7,3.1,0.8,6.9,2.1l2.6,0.9c1.4,0.5,2.7,0.9,3.9,1.3c6.5,2.1,11.6,3.7,17.5,9.8
		c1,1,1.2,2.4,1.3,3.6c0.1,0.8,0.2,1.5,0.5,1.9c1.4,1.8,2.3,2.8,2.9,3.3c0.2-0.3,0.6-0.6,0.9-0.6c0.8-0.1,1.5,0.6,1.7,1.3
		c0.1,0.5,0.5,1.8,1.4,4.7l4.5,1.5c3.5,1.2,5,4.9,6.3,8.1c0.5,1.2,0.9,2.3,1.5,3.3c0.8,1.4,1.2,2.9,1.5,4.4c0.1,0.4,0.2,0.8,0.3,1.2
		c2.2,8,2.4,10.6,2.8,16.8c0.2,2.6,0.4,5.8,0.8,10.2c0,0.2,0,0.4-0.1,0.6l-1.7,5.3c-0.5,1.6-1.5,2.9-2.4,4.1
		c-0.4,0.5-0.8,1.1-1.2,1.6l-7,10.7c-0.1,0.2-0.2,0.3-0.4,0.4l-5.2,3.6c-2.4,1.6-5.1,2.3-7.8,2.9c-1,0.2-2,0.5-3,0.8
		c-4.1,1.3-8.8,2.2-13,3.1l-2.8,0.6c-1.1,0.2-2.1,0.6-3.3,1.1c-0.6,0.2-1.2,0.5-1.8,0.7c-1.1,0.4-2.2,0.8-3.4,1.3
		c-2.3,0.9-4.7,1.9-7.3,2.4c-4.3,0.8-8.7,1.1-12.9,1.3c-2.1,0.1-4.2,0.3-6.4,0.5C72.1,135.7,72,135.7,72,135.7z M3.9,66.6
		c0.3,2.4,0.5,4.3,0.7,6.1c0.6,5.5,0.9,8.6,2.7,14.8c0.3,1.1,0.6,2.2,0.8,3.3c0.6,2.6,1.2,5,2.5,7.1c0.8,1.3,1.5,2.7,2.1,4
		c1.2,2.6,2.4,4.9,4.4,6.3l15.7,10.7c0.6,0.4,1.2,0.9,1.8,1.4c1,0.8,2,1.6,3.1,2l20.9,7.1c0.6,0.2,1.2,0.4,1.8,0.7
		c1.1,0.4,2.2,0.9,3.2,1.1l8.5,1.8c2.1-0.2,4.2-0.3,6.2-0.4c4.2-0.3,8.4-0.5,12.6-1.3c2.3-0.4,4.4-1.3,6.7-2.2
		c1.2-0.5,2.3-0.9,3.5-1.3c0.6-0.2,1.1-0.4,1.7-0.6c1.2-0.5,2.4-0.9,3.7-1.2l2.8-0.6c4.3-0.9,8.8-1.8,12.7-3
		c1.1-0.3,2.1-0.6,3.2-0.8c2.5-0.6,4.9-1.2,6.9-2.5l5-3.4l6.8-10.5c0.4-0.6,0.9-1.2,1.3-1.8c0.8-1.1,1.6-2.1,2-3.2l1.6-5.1
		c-0.4-4.4-0.6-7.5-0.7-10c-0.4-6.2-0.5-8.5-2.7-16.2c-0.1-0.4-0.2-0.9-0.3-1.3c-0.4-1.4-0.7-2.7-1.3-3.8c-0.6-1.1-1.1-2.4-1.6-3.6
		c-1.2-2.9-2.3-5.7-4.6-6.5l-5.2-1.8c-0.4-0.2-0.8-0.5-0.9-0.9c-0.5-1.5-0.8-2.6-1.1-3.5c-1.3-0.1-3-1.6-5.6-5
		c-0.8-1-0.9-2.2-1.1-3.3c-0.1-0.8-0.2-1.6-0.5-1.9c-5.4-5.5-10-7-16.3-9c-1.2-0.4-2.6-0.8-4-1.3l-2.6-0.9c-3.7-1.3-3.7-1.3-6.7-2
		c-1.8-0.4-4.6-1.1-9.7-2.4c-3.3-0.8-4.3-1.4-5-1.8c-0.3-0.1-1.2,0-2.6,0l-0.7,0l-0.1-1.5l0.1,1.5c-7.3,0.3-21.8,1.6-29.3,3.5
		c-2.3,0.6-4.6,1.4-6.8,2.3c-1.2,0.4-2.3,0.9-3.5,1.3c-0.6,0.2-1.3,0.4-1.9,0.5c-1.1,0.3-2.1,0.5-3,1.1l-10.2,6.9L10.6,51.2
		c-0.4,0.6-0.9,1.2-1.3,1.8c-0.8,1.1-1.6,2.1-2,3.2L3.9,66.6z"/>
	<rect x="-5.4" y="43.5" transform="matrix(0.6345 -0.7729 0.7729 0.6345 -27.0883 30.5846)" width="48.5" height="0.9"/>
	<rect x="-9.1" y="46.5" transform="matrix(0.6423 -0.7665 0.7665 0.6423 -27.3807 35.1822)" width="66.1" height="0.9"/>
	<rect x="-10.8" y="50.3" transform="matrix(0.6397 -0.7686 0.7686 0.6397 -28.2116 41.221)" width="81.4" height="0.9"/>
	<rect x="-10.5" y="53" transform="matrix(0.6397 -0.7686 0.7686 0.6397 -28.482 46.1224)" width="90.9" height="0.9"/>
	<rect x="-5.7" y="63.9" transform="matrix(0.6397 -0.7686 0.7686 0.6397 -31.0752 62.4087)" width="113.4" height="0.9"/>
	<rect x="-0.9" y="66.5" transform="matrix(0.6397 -0.7686 0.7686 0.6397 -30.9382 67.9475)" width="115.7" height="0.9"/>
	<rect x="-10.4" y="56.2" transform="matrix(0.6397 -0.7686 0.7686 0.6397 -28.9795 51.3848)" width="101.5" height="0.9"/>
	<rect x="-8.2" y="59.8" transform="matrix(0.6409 -0.7676 0.7676 0.6409 -29.7554 56.8679)" width="108.2" height="0.9"/>
	<polygon points="25.5,115.8 24.8,115.2 100.8,24 101.5,24.6 	"/>
	<rect x="8.8" y="72.4" transform="matrix(0.6397 -0.7686 0.7686 0.6397 -31.093 79.3212)" width="120.5" height="0.9"/>
	<rect x="13.8" y="75.8" transform="matrix(0.6397 -0.7686 0.7686 0.6397 -31.6097 84.9835)" width="122.1" height="0.9"/>
	<polygon points="42,125.3 41.3,124.7 118.8,31.9 119.4,32.4 	"/>
	<rect x="25.7" y="81" transform="matrix(0.6409 -0.7676 0.7676 0.6409 -31.6736 95.1219)" width="120.3" height="0.9"/>
	<rect x="33.9" y="85.8" transform="matrix(0.6409 -0.7676 0.7676 0.6409 -33.7309 100.3439)" width="113" height="0.9"/>
	<rect x="40.7" y="89.3" transform="matrix(0.6397 -0.7686 0.7686 0.6397 -34.3489 106.2719)" width="111" height="0.9"/>
	<rect x="48.1" y="92.3" transform="matrix(0.6397 -0.7686 0.7686 0.6397 -34.6406 111.5226)" width="107" height="0.9"/>
	<polygon points="75.6,134.4 74.9,133.8 141.1,54.7 141.8,55.2 	"/>
	<rect x="67.8" y="97.1" transform="matrix(0.6449 -0.7643 0.7643 0.6449 -33.9638 122.0071)" width="93.1" height="0.9"/>
	<rect x="79" y="99.8" transform="matrix(0.6397 -0.7686 0.7686 0.6397 -33.68 128.68)" width="82.8" height="0.9"/>
	<rect x="93.7" y="101.4" transform="matrix(0.6397 -0.7686 0.7686 0.6397 -32.4825 134.2995)" width="66.7" height="0.9"/>
	<polygon points="115.8,125.6 115.1,125 149,84.2 149.6,84.8 	"/>
	<polygon points="125.9,123.8 125.2,123.2 149.5,93.8 150.2,94.4 	"/>
	<g class="st0">
		<text transform="matrix(0.9996 0 0 1 33.9043 70.4829)" class="st1 st2">B</text>
	</g>
	<g class="st0">
		<text transform="matrix(0.9996 0 0 1 41.9517 70.4829)" class="st1 st2">I</text>
	</g>
	<g class="st0">
		<text transform="matrix(0.9996 0 0 1 44.8633 70.4829)" class="st1 st2">O</text>
	</g>
	<polygon class="st3" points="50.4,101 75.2,45.6 98.9,101 	"/>
	<path d="M98.9,102.2H50.4c-0.4,0-0.7-0.2-0.9-0.5s-0.2-0.7-0.1-1.1l24.8-55.5c0.2-0.4,0.6-0.6,1-0.7c0.4,0,0.8,0.3,1,0.7l23.7,55.5
		c0.1,0.3,0.1,0.7-0.1,1.1C99.7,102,99.3,102.2,98.9,102.2z M52.1,99.9h45.1l-22-51.6L52.1,99.9z"/>
	<polygon class="st3" points="64.5,39.5 85.5,39.5 85.5,70.2 64.5,70.2 	"/>
	<path d="M85.5,71.3h-21c-0.6,0-1.1-0.5-1.1-1.1V39.5c0-0.6,0.5-1.1,1.1-1.1h21c0.6,0,1.1,0.5,1.1,1.1v30.6
		C86.6,70.8,86.1,71.3,85.5,71.3z M65.6,69.1h18.8V40.6H65.6V69.1z"/>
	<polygon class="st3" points="65.8,49.4 84.8,49.4 84.8,81.1 65.8,81.1 	"/>
	<text transform="matrix(0.9996 0 0 1 67.1934 93.5811)" class="st1 st4">B</text>
	<rect x="69.5" y="54.2" transform="matrix(1.592351e-03 -1 1 1.592351e-03 29.8758 139.602)" width="30.7" height="1.3"/>
	<polygon class="st3" points="79.5,74.4 82.7,63.9 85.9,74.4 	"/>
	<polygon class="st3" points="63.8,74.9 67.2,64.3 70.5,74.9 	"/>
</g>
</svg>
