<?xml version="1.0" encoding="utf-8"?>
<!-- Generator: Adobe Illustrator 28.0.0, SVG Export Plug-In . SVG Version: 6.00 Build 0)  -->
<svg version="1.1" id="Layer_1" xmlns="http://www.w3.org/2000/svg" xmlns:xlink="http://www.w3.org/1999/xlink" x="0px" y="0px"
	 viewBox="0 0 156 156" style="enable-background:new 0 0 156 156;" xml:space="preserve">
<style type="text/css">
	.st0{fill:#FF0000;}
</style>
<g>
	<path class="st0" d="M125,76.8c-0.7-1.3-1.5-2.6-2.6-3.8c-3-3.8-5.4-6.3-8.8-8.2c-0.5-0.3-1-0.5-1.5-0.8l0,0
		c0.8-3.4,0.5-6.6-0.3-10.9c-0.8-6.1-5.3-13.9-9.4-16.8c-4.3-3.8-10.3-6.5-17-7.3c6.8,3.2,11.9,8.2,14.2,14.2
		c4.8,12.4-3.7,25.1-19.1,28.2c0.1,0,0.1,0,0.2,0l0,0c-0.1,1.3-0.2,2.6-0.3,3.9l0,0c0,0,0,0-0.1,0c1.7,0.5,3.4,1.8,4.1,3.3
		c0.7,1.4,0.6,3.7,0.1,5.4l-0.1,0.1c0,0,0,0,0,0c0,0,0,0,0,0c0,0,0,0,0,0c1,0.5,2.2,1.2,3.2,1.7c0,0,0,0.1,0,0.1
		c5.9-6.1,13.2-9.5,20.1-9.2c12.9,0.6,20.4,13.7,16.8,29.2C130.1,95.6,130,84.1,125,76.8z"/>
	<path class="st0" d="M78.7,75l0.1,0c0-1.1,0.1-2.5,0.1-3.7c0,0,0.1,0,0.1,0c-8.1-2.4-14.5-7.5-17.3-13.7
		c-5.4-11.7,2.8-24.4,18.2-28.4c-11.8-0.2-22,5.2-26.2,13c-0.8,1.2-1.6,2.5-2.1,4c-2,4.4-3.1,7.7-3.3,11.6c0,0.6,0,1.2,0,1.7
		c-3.4,0.8-6,2.6-9.5,5.3C33.7,68.4,28.8,76,28.2,81c-1.3,5.6-1,12.1,1.4,18.4c-0.3-7.5,1.9-14.4,6.1-19.2c8.8-10,23.9-8.1,33.7,4.2
		c0-0.1-0.1-0.1-0.1-0.2l0,0c1.2-0.5,2.4-1,3.5-1.5c0,0,0,0,0.1,0C72.6,81,73,78.8,74,77.6C74.9,76.3,77,75.4,78.7,75z"/>
	<path class="st0" d="M76,118.5L76,118.5c2.4,2.5,5.3,3.9,9.3,5.5c5.6,2.6,14.6,3,19.2,1c5.5-1.7,10.9-5.2,15.1-10.5
		c-6.3,4.1-13.3,5.7-19.5,4.5c-13-2.5-19.1-16.5-13.5-31.3c-0.1,0.1-0.1,0.1-0.1,0.2l0-0.1c-1-0.8-2.1-1.5-3.1-2.3c0,0,0-0.1,0-0.1
		c-1.3,1.2-3.4,1.9-5,1.7c-1.6-0.2-3.4-1.5-4.6-2.8l0-0.1c0,0,0,0,0,0c0,0,0,0,0,0c0,0,0,0,0,0c-1,0.5-2.2,1.2-3.1,1.8
		c0,0,0-0.1,0-0.1c2,8.3,0.9,16.3-3,21.9c-7.4,10.6-22.4,10-33.6-1.3c5.8,10.4,15.6,16.4,24.5,16c1.4,0.1,2.9,0.1,4.5-0.2
		c4.8-0.6,8.2-1.2,11.7-3.1C75,119.1,75.5,118.8,76,118.5z"/>
	<path class="st0" d="M85.1,100.3l3.2,8.2c0.9,1.2,10.2-4.2,13.8-9.4c0.9-1.4,1.9-2.8,2.8-4.2c3.3-5.4,3.8-15.4,3-15.9l-9.2,0.3
		c0.9-0.2-0.8,9.1-3,12.6C93.4,95.3,86,100.9,85.1,100.3z"/>
	<path class="st0" d="M92.2,65.4l5.5-6.9c0.6-1.4-8.8-6.8-15-7.3c-1.7-0.1-3.4-0.2-5-0.3c-6.3-0.2-15.2,4.4-15.3,5.3l4.9,7.9
		c-0.6-0.7,8.2-3.9,12.4-3.6C83.8,60.6,92.3,64.3,92.2,65.4z"/>
	<path class="st0" d="M50.1,75.7c-1.5,0.2-1.4,11,1.3,16.7c0.7,1.5,1.5,3,2.3,4.5c3,5.5,11.5,10.9,12.3,10.5l4.3-8.2
		c-0.3,0.9-7.5-5.2-9.4-8.9c-1.9-3.7-3-12.9-2.1-13.4L50.1,75.7z"/>
	<rect x="7.8" y="60.5" transform="matrix(0.9695 -0.2452 0.2452 0.9695 -20.1296 5.2156)" class="st0" width="6.1" height="45.8"/>
	
		<rect x="45.1" y="10" transform="matrix(1 -3.929684e-03 3.929684e-03 1 -5.058486e-02 0.2953)" class="st0" width="60" height="6.1"/>
	<polygon class="st0" points="146.1,11.3 141.9,51.7 148,52.4 153.2,2 105.6,20.4 107.8,26.1 	"/>
	<polygon class="st0" points="138.3,144.3 69.6,133.1 68.6,139.2 143.8,151.4 150.9,72.2 144.8,71.6 	"/>
	<polygon class="st0" points="11.5,118.1 5.7,120.1 14.1,144.3 55.4,154.6 56.8,148.7 18.8,139.2 	"/>
	<polygon class="st0" points="13.5,52.1 11.2,12.7 47.3,6.8 46.3,0.8 4.7,7.5 7.4,52.5 	"/>
</g>
</svg>
