<?xml version="1.0" encoding="utf-8"?>
<!-- Generator: Adobe Illustrator 28.0.0, SVG Export Plug-In . SVG Version: 6.00 Build 0)  -->
<svg version="1.1" id="Layer_1" xmlns="http://www.w3.org/2000/svg" xmlns:xlink="http://www.w3.org/1999/xlink" x="0px" y="0px"
	 viewBox="0 0 156 156" style="enable-background:new 0 0 156 156;" xml:space="preserve">
<style type="text/css">
	.st0{fill-rule:evenodd;clip-rule:evenodd;fill:#FFFFFF;}
	.st1{fill-rule:evenodd;clip-rule:evenodd;fill:#FF0000;}
	.st2{fill:#FF0000;}
	.st3{fill:none;}
</style>
<g>
	<polygon class="st0" points="1.48,0 154.52,0 154.52,156 1.48,156 1.48,0 	"/>
	<polygon class="st0" points="2.27,0.73 153.26,0.73 153.26,154.66 2.27,154.66 2.27,0.73 	"/>
	<path class="st1" d="M85.35,29.11c14.82,1.73,25.73,12.63,24.37,24.33c-1.36,11.7-14.47,19.78-29.29,18.05l0,0l0,0
		c15.38-3.15,23.94-15.78,19.12-28.2C97.24,37.36,92.14,32.27,85.35,29.11L85.35,29.11z"/>
	<path class="st1" d="M87.58,86.02c7.28-13.52,21.45-20,31.64-14.47c10.19,5.53,12.56,20.97,5.27,34.49l0,0l0,0
		c3.56-15.54-3.98-28.62-16.84-29.2C100.8,76.52,93.45,79.88,87.58,86.02L87.58,86.02z"/>
	<path class="st1" d="M95.8,65.14c2.93-3.66,10.55-4.38,17.78-0.36c3.41,1.89,5.79,4.46,8.83,8.23c5.46,6.22,5.6,14.52,2.67,18.18
		c0.48-5.41-4.44-15.27-9.32-19.61C110.88,67.24,100.96,63.51,95.8,65.14L95.8,65.14L95.8,65.14L95.8,65.14z"/>
	<path class="st1" d="M99.95,76.02c4.67,0.25,10.26-4.49,12.06-11.86c0.85-3.48,0.51-6.66-0.29-11.03
		c-1.02-7.52-7.46-17.6-12.13-17.85c4.35,2.99,8.73,16.45,8.79,23.24S104.59,73.51,99.95,76.02L99.95,76.02L99.95,76.02L99.95,76.02
		z"/>
	<polygon class="st1" points="82.42,72.42 108.22,57.29 114.99,69.18 88.14,83.65 82.42,72.42 82.42,72.42 	"/>
	<path class="st1" d="M84.46,84.21c1.44-0.81,2.87-2.74,2.76-4.51c-0.1-1.58-0.94-3.07-2.24-3.98c-1.46-1.01-3.27-1.14-4.71-0.32
		c1.7,0.49,3.38,1.83,4.08,3.3S84.91,82.5,84.46,84.21L84.46,84.21z"/>
	<path class="st1" d="M80.33,75.37c0.09-1.29,0.17-2.58,0.26-3.86l6.56-1.29l-1.18,5.45L80.33,75.37L80.33,75.37L80.33,75.37z"/>
	<path class="st1" d="M84.43,84.18c0.98,0.52,2.23,1.24,3.2,1.76l4.35-5.02l-4.56-1.49L84.43,84.18L84.43,84.18L84.43,84.18z"/>
	<path class="st1" d="M29.59,99.35C24.34,85.33,29,70.62,39.99,66.47c10.99-4.14,24.15,3.86,29.39,17.88l0,0l0,0
		c-9.83-12.29-24.93-14.15-33.73-4.16C31.45,84.96,29.27,91.84,29.59,99.35L29.59,99.35z"/>
	<path class="st1" d="M78.98,71.32c-15.31-0.31-27.53-9.99-27.3-21.62c0.24-11.63,12.84-20.8,28.15-20.49l0,0h0
		C64.44,33.15,56.3,45.86,61.66,57.6C64.52,63.87,70.86,68.88,78.98,71.32L78.98,71.32z"/>
	<path class="st1" d="M56.73,73.53c-4.58-0.94-8.71-7.41-8.46-15.7c0.12-3.91,1.3-7.2,3.26-11.64c3.01-7.72,10.31-11.64,14.89-10.7
		c-5.01,2.05-11.5,10.95-13.11,17.29S52.92,69.67,56.73,73.53L56.73,73.53L56.73,73.53L56.73,73.53z"/>
	<path class="st1" d="M64.47,64.85c-1.92-4.28-8.67-7.1-16.03-5.33c-3.47,0.83-6.14,2.59-9.65,5.3
		c-6.2,4.35-12.18,14.71-10.27,18.99c0.65-5.25,10.58-15.32,16.57-18.48C51.09,62.18,60.12,61.86,64.47,64.85L64.47,64.85
		L64.47,64.85L64.47,64.85z"/>
	<polygon class="st1" points="69.3,82.15 44.09,66.04 51.53,54.56 76.63,71.9 69.3,82.15 69.3,82.15 	"/>
	<path class="st1" d="M78.81,74.93c-1.38-0.91-3.74-1.31-5.26-0.39c-1.36,0.81-2.29,2.24-2.5,3.82c-0.23,1.77,0.49,3.44,1.87,4.35
		c-0.34-1.74,0.08-3.86,1.06-5.15C74.96,76.26,77.09,75.31,78.81,74.93L78.81,74.93z"/>
	<path class="st1" d="M72.87,82.66c-1.18,0.51-2.36,1.02-3.54,1.53l-4.14-5.26l5.37-1.44L72.87,82.66L72.87,82.66L72.87,82.66z"/>
	<path class="st1" d="M78.81,74.97c0.01-1.11,0.08-2.56,0.09-3.67l-6.44-1.58l0.76,4.75L78.81,74.97L78.81,74.97L78.81,74.97z"/>
	<path class="st1" d="M119.63,114.43c-9.37,11.65-24.37,15.09-33.51,7.68c-9.13-7.4-8.94-22.84,0.44-34.49l0,0l0,0
		c-5.56,14.74,0.5,28.74,13.55,31.28C106.33,120.12,113.34,118.51,119.63,114.43L119.63,114.43z"/>
	<path class="st1" d="M70.49,85.94c7.5,13.4,5.39,28.88-4.71,34.58c-10.1,5.7-24.37-0.55-31.87-13.95l0,0l0,0
		c11.19,11.32,26.24,11.9,33.6,1.31C71.43,102.22,72.53,94.2,70.49,85.94L70.49,85.94z"/>
	<path class="st1" d="M83.69,104.06c1.52,4.44-1.95,11.29-9.19,15.28c-3.42,1.88-6.84,2.53-11.65,3.09
		c-8.16,1.31-15.22-3.01-16.74-7.44c4.3,3.29,15.23,4.39,21.5,2.57S82.31,109.31,83.69,104.06L83.69,104.06L83.69,104.06
		L83.69,104.06z"/>
	<path class="st1" d="M72.31,101.77c-2.7,3.83-1.7,11.1,3.55,16.57c2.47,2.58,5.33,3.99,9.45,5.65c6.88,3.15,18.81,3.07,21.52-0.76
		c-4.84,2.1-18.52-1.38-24.27-4.96C76.8,114.69,71.95,107.05,72.31,101.77L72.31,101.77L72.31,101.77L72.31,101.77z"/>
	<polygon class="st1" points="84.71,88.81 83.67,118.79 70.04,118.19 72.19,87.67 84.71,88.81 84.71,88.81 	"/>
	<path class="st1" d="M73.68,84.25c-0.08,1.66,0.77,3.89,2.33,4.75c1.39,0.76,3.09,0.85,4.55,0.22c1.63-0.69,2.7-2.17,2.79-3.82
		c-1.32,1.18-3.35,1.89-4.96,1.7C76.78,86.91,74.88,85.55,73.68,84.25L73.68,84.25z"/>
	<path class="st1" d="M83.33,85.47c1.04,0.76,2.08,1.52,3.11,2.28l-2.41,6.25l-3.96-3.91L83.33,85.47L83.33,85.47L83.33,85.47z"/>
	<path class="st1" d="M73.72,84.24c-0.96,0.55-2.24,1.23-3.19,1.78l1.91,6.37l3.69-3.07L73.72,84.24L73.72,84.24L73.72,84.24z"/>
	<path class="st1" d="M88.36,108.5l-3.23-8.2c0.87,0.57,8.3-4.98,10.56-8.5c2.26-3.51,3.97-12.79,3.02-12.59l9.22-0.31
		c0.76,0.5,0.28,10.57-3.01,15.93c-0.87,1.42-1.81,2.86-2.75,4.23C98.59,104.25,89.3,109.71,88.36,108.5L88.36,108.5z"/>
	<path class="st1" d="M97.7,58.47l-5.47,6.9c0.06-1.04-8.44-4.74-12.6-4.96s-13.02,2.92-12.38,3.64l-4.86-7.87
		c0.05-0.9,8.99-5.51,15.27-5.32c1.66,0.05,3.37,0.15,5.03,0.29C88.92,51.69,98.27,57.05,97.7,58.47L97.7,58.47z"/>
	<path class="st1" d="M50.12,75.73l8.69,1.25c-0.93,0.48,0.19,9.7,2.11,13.42c1.92,3.72,9.09,9.81,9.39,8.88l-4.31,8.19
		c-0.8,0.41-9.28-5.01-12.29-10.53c-0.8-1.46-1.57-2.99-2.29-4.5C48.72,86.76,48.6,75.95,50.12,75.73L50.12,75.73z"/>
	
		<rect x="7.82" y="60.54" transform="matrix(0.9695 -0.2452 0.2452 0.9695 -20.1282 5.2141)" class="st2" width="6.12" height="45.82"/>
	
		<rect x="45.11" y="9.96" transform="matrix(1 -3.929243e-03 3.929243e-03 1 -0.0506 0.2953)" class="st2" width="60.03" height="6.12"/>
	<polygon class="st2" points="147.96,52.38 141.88,51.74 146.12,11.27 107.82,26.07 105.61,20.36 153.24,1.95 	"/>
	<polygon class="st2" points="143.84,151.39 68.58,139.16 69.56,133.13 138.32,144.29 144.77,71.61 150.87,72.15 	"/>
	<polygon class="st2" points="55.36,154.62 14.08,144.35 5.67,120.1 11.45,118.1 18.78,139.21 56.84,148.68 	"/>
	<polygon class="st2" points="7.38,52.5 4.73,7.54 46.31,0.79 47.29,6.84 11.16,12.7 13.49,52.14 	"/>
	<polygon class="st3" points="1.97,155.51 154.03,155.51 154.03,0.49 1.97,0.49 1.97,155.51 	"/>
</g>
</svg>
