<?xml version="1.0" encoding="utf-8"?>
<!-- Generator: Adobe Illustrator 28.0.0, SVG Export Plug-In . SVG Version: 6.00 Build 0)  -->
<svg version="1.1" id="Layer_1" xmlns="http://www.w3.org/2000/svg" xmlns:xlink="http://www.w3.org/1999/xlink" x="0px" y="0px"
	 viewBox="0 0 156 156" style="enable-background:new 0 0 156 156;" xml:space="preserve">
<style type="text/css">
	.st0{fill-rule:evenodd;clip-rule:evenodd;fill:#FFFFFF;}
	.st1{fill-rule:evenodd;clip-rule:evenodd;fill:#FF0000;}
	.st2{fill:#FF0000;}
	.st3{fill:none;}
</style>
<g>
	<polygon class="st0" points="4.02,0 151.98,0 151.98,156 4.02,156 4.02,0 	"/>
	<polygon class="st0" points="4.57,0.73 150.82,0.73 150.82,154.97 4.57,154.97 4.57,0.73 	"/>
	<path class="st1" d="M50.8,114.36c0-11.74,9.62-21.26,21.49-21.26l0,0l0,0c11.87,0,21.49,9.52,21.49,21.26l0,0l0,0
		c0,11.74-9.62,21.26-21.49,21.26l0,0l0,0C60.43,135.62,50.8,126.1,50.8,114.36L50.8,114.36L50.8,114.36z"/>
	<path class="st2" d="M72.29,135.99c-12.05,0-21.86-9.7-21.86-21.63s9.8-21.63,21.86-21.63s21.86,9.7,21.86,21.63
		S84.34,135.99,72.29,135.99z M72.29,93.46c-11.65,0-21.12,9.38-21.12,20.9s9.48,20.9,21.12,20.9c11.65,0,21.13-9.38,21.13-20.9
		S83.94,93.46,72.29,93.46z"/>
	<path class="st1" d="M64.89,88.48c0-1.36,1.11-2.46,2.47-2.46l0,0l0,0h9.88l0,0c1.36,0,2.47,1.1,2.47,2.46l0,0l0,0v16.34l0,0
		c0,1.36-1.11,2.46-2.47,2.46l0,0l0,0h-9.88l0,0c-1.36,0-2.47-1.1-2.47-2.46l0,0V88.48z"/>
	<path class="st2" d="M77.23,107.64h-9.88c-1.56,0-2.84-1.27-2.84-2.83V88.47c0-1.56,1.27-2.83,2.84-2.83h9.88
		c1.56,0,2.84,1.27,2.84,2.83v16.34C80.07,106.37,78.8,107.64,77.23,107.64z M67.36,86.38c-1.16,0-2.1,0.94-2.1,2.1v16.34
		c0,1.16,0.94,2.1,2.1,2.1h9.88c1.16,0,2.1-0.94,2.1-2.1V88.47c0-1.16-0.94-2.1-2.1-2.1H67.36z"/>
	<path class="st1" d="M69.17,83.5c0-5.11,2.3-9.87,6.12-12.65c4.45-3.24,10.19-3.24,14.64,0c3.82,2.78,9.56,8.57,9.56,13.68
		l-4.17-0.83c0-2.69-7.03-5.42-8.78-6.99c-2.35-2.11-5.52-2.11-7.86,0c-1.75,1.57-2.79,4.1-2.79,6.79H69.17L69.17,83.5L69.17,83.5z"
		/>
	<polygon class="st1" points="91.37,72.09 104.06,83.66 99.52,88.61 86.84,77.04 91.37,72.09 	"/>
	<path class="st1" d="M114.8,86.6c0.13,4.24,0.95,2.35,3.13,1.56c-0.84,5.44-0.6,3.32-6.04,4.18c-4.67,0.73-9.67-1-13.3-4.6
		l4.74-4.75c1.91,1.9,4.44,2.95,6.79,2.83c3.16-0.17,2.96,5.5,3.12,2.35c0.12-2.35,1.91,0.34,0-1.56H114.8L114.8,86.6L114.8,86.6z"
		/>
	<polygon class="st1" points="108.96,85.86 117.92,85.86 117.92,92.56 108.96,92.56 108.96,85.86 	"/>
	<rect x="108.88" y="86.94" class="st2" width="8.96" height="0.25"/>
	<rect x="121.88" y="87.71" class="st2" width="17.92" height="1.63"/>
	
		<rect x="128.76" y="88.34" transform="matrix(0.514 -0.8578 0.8578 0.514 -20.4892 158.4287)" class="st2" width="1.62" height="17.9"/>
	
		<rect x="120.41" y="79.18" transform="matrix(0.8575 -0.5145 0.5145 0.8575 -22.7153 77.9558)" class="st2" width="17.9" height="1.61"/>
	<polygon class="st2" points="126.49,111.55 118.08,95.77 119.51,95.01 127.92,110.79 	"/>
	
		<rect x="114.06" y="73.57" transform="matrix(0.4681 -0.8837 0.8837 0.4681 -0.3033 148.2483)" class="st2" width="17.88" height="1.61"/>
	
		<rect x="110.93" y="65.44" transform="matrix(0.9452 -0.3265 0.3265 0.9452 -18.1619 40.5628)" class="st2" width="1.61" height="17.87"/>
	<polygon class="st2" points="109.57,112 108.05,111.47 113.89,94.58 115.41,95.1 	"/>
	<path class="st2" d="M150.77,146.55H4.62V0.77h146.15V146.55z M10.34,140.84h134.73V6.48H10.34V140.84z"/>
	<path class="st1" d="M74.47,63.88l-6.67-17.26l0,0c13.64-4.9,17.49-14.96,8.59-22.47c-8.9-7.51-27.18-9.63-40.82-4.73
		c-13.65,4.9-17.49,14.96-8.59,22.47c6.57,5.54,18.6,8.34,30.4,7.06L74.47,63.88z"/>
	<path class="st2" d="M74.47,63.93c-0.01,0-0.02,0-0.03-0.01L57.36,49.01c-11.86,1.28-23.8-1.5-30.41-7.07
		c-3.67-3.1-5.33-6.83-4.67-10.5c0.89-4.94,5.73-9.33,13.27-12.04c13.63-4.9,31.97-2.78,40.87,4.73c3.67,3.1,5.33,6.83,4.67,10.5
		c-0.88,4.93-5.71,9.32-13.22,12.02l6.65,17.22c0.01,0.02,0,0.04-0.02,0.05C74.49,63.92,74.48,63.93,74.47,63.93z M57.38,48.92
		c0.01,0,0.02,0,0.03,0.01l16.97,14.81l-6.61-17.09c0-0.01,0-0.02,0-0.03c0-0.01,0.01-0.02,0.02-0.02
		c7.51-2.7,12.33-7.06,13.21-11.97c0.67-3.7-0.93-7.3-4.64-10.42c-8.88-7.49-27.17-9.61-40.78-4.72
		c-7.51,2.7-12.33,7.06-13.21,11.97c-0.67,3.7,0.94,7.3,4.64,10.42C33.61,47.43,45.53,50.21,57.38,48.92
		C57.37,48.92,57.37,48.92,57.38,48.92z"/>
	<polygon class="st3" points="4.49,155.53 151.51,155.53 151.51,0.47 4.49,0.47 4.49,155.53 	"/>
</g>
</svg>
