<?xml version="1.0" encoding="utf-8"?>
<!-- Generator: Adobe Illustrator 28.0.0, SVG Export Plug-In . SVG Version: 6.00 Build 0)  -->
<svg version="1.1" id="Layer_1" xmlns="http://www.w3.org/2000/svg" xmlns:xlink="http://www.w3.org/1999/xlink" x="0px" y="0px"
	 viewBox="0 0 156 156" style="enable-background:new 0 0 156 156;" xml:space="preserve">
<style type="text/css">
	.st0{fill:#FF0000;}
</style>
<path class="st0" d="M47.7,124.8c16.5,0,29.8-13.3,29.8-29.6c0-12.7-8-23.5-19.3-27.7v-7.9c0-2.1-1.7-3.8-3.8-3.8H40.9
	c-2.1,0-3.8,1.7-3.8,3.8v7.9c-11.3,4.2-19.3,15.1-19.3,27.7C17.8,111.5,31.2,124.8,47.7,124.8z"/>
<path class="st0" d="M56.4,43.4c3.2-2.9,7.6-2.9,10.8,0c0.1,0.1,0.3,0.3,0.5,0.4l-0.1,0.1L85,59.8l0,0c3.7,3.2,8.3,5.1,12.9,5.3v0.1
	h12.3V56H100c-0.2,0-0.4,0-0.6,0c-3.2,0.2-6.7-1.3-9.3-3.9l0,0L78.4,41.3c-2.2-2.4-4.6-4.5-6.6-5.9c-6.1-4.5-14-4.5-20.1,0
	c-5.2,3.8-8.4,10.4-8.4,17.4h9.2C52.6,49.1,54,45.6,56.4,43.4z"/>
<rect x="115.6" y="59.3" class="st0" width="24.5" height="0.9"/>
<polygon class="st0" points="115.4,65.8 136.4,78.4 136.9,77.7 115.8,65.1 "/>
<polygon class="st0" points="115.6,54.6 136.6,42 136.2,41.3 115.1,53.9 "/>
<polygon class="st0" points="111,69.3 122.5,91 123.3,90.6 111.8,68.9 "/>
<rect x="104.9" y="39.8" transform="matrix(0.4701 -0.8826 0.8826 0.4701 26.532 124.7222)" class="st0" width="24.5" height="0.9"/>
<rect x="101.3" y="28" transform="matrix(0.9455 -0.3256 0.3256 0.9455 -7.5649 35.3072)" class="st0" width="0.9" height="24.5"/>
<rect x="89.4" y="79.5" transform="matrix(0.3248 -0.9458 0.9458 0.3248 -6.9735 150.1776)" class="st0" width="24.5" height="0.9"/>
<path class="st0" d="M0,0v156h156V0H0z M149.9,150H6V6h143.9V150z"/>
</svg>
