<?xml version="1.0" encoding="utf-8"?>
<!-- Generator: Adobe Illustrator 28.0.0, SVG Export Plug-In . SVG Version: 6.00 Build 0)  -->
<svg version="1.1" id="Layer_1" xmlns="http://www.w3.org/2000/svg" xmlns:xlink="http://www.w3.org/1999/xlink" x="0px" y="0px"
	 viewBox="0 0 156 156" width="156px" height="156px"  style="enable-background:new 0 0 156 156;" xml:space="preserve">
<style type="text/css">
	.st0{fill:#FF0000;}
</style>
<g>
	<path class="st0" d="M80.5,99.9v-6.1c0-1.7-1.4-3-3-3H67c-1.7,0-3,1.4-3,3v6.1c-8.8,3.3-15,11.8-15,21.6
		c0,12.8,10.5,23.1,23.3,23.1c12.9,0,23.3-10.4,23.3-23.1C95.6,111.7,89.3,103.3,80.5,99.9z"/>
	<path class="st0" d="M68.9,88.5h7.2c0-2.9,1.1-5.6,3-7.3c2.5-2.3,5.9-2.3,8.4,0c0.1,0.1,0.2,0.2,0.4,0.3l-0.1,0.1L101.3,94l0,0
		c2.9,2.5,6.5,3.9,10.1,4.2v0.1h9.6v-4.6c0,0,0,0,0-0.1c0,0,0,0,0,0v-2.5h-7.7c-0.2,0-0.4-0.1-0.6,0c-2.5,0.1-5.2-1-7.2-3l0,0
		l-9.2-8.4c-1.7-1.8-3.5-3.4-5.1-4.6c-4.7-3.5-10.9-3.5-15.6,0C71.4,78,68.9,83.1,68.9,88.5z"/>
	<rect x="125.2" y="93" class="st0" width="19.1" height="1.7"/>
	<polygon class="st0" points="124.7,99.1 141.1,109 142,107.5 125.6,97.6 	"/>
	<polygon class="st0" points="125.4,90.4 141.8,80.6 140.9,79.1 124.5,89 	"/>
	
		<rect x="125.5" y="100.1" transform="matrix(0.883 -0.4694 0.4694 0.883 -36.7057 72.1484)" class="st0" width="1.7" height="19.1"/>
	<polygon class="st0" points="131.6,70.7 130.1,69.9 121.1,86.8 122.6,87.6 	"/>
	<polygon class="st0" points="118.3,87.5 112,69.5 110.4,70 116.6,88.1 	"/>
	<polygon class="st0" points="110.4,118.5 112,119 118.3,100.9 116.6,100.4 	"/>
	<path class="st0" d="M0,0v156h156V0H0z M149.9,149.9H6.1V6.1h143.8V149.9z"/>
	<path class="st0" d="M23.8,44.1c7.1,6,19.8,8.9,32.5,7.6l18.2,16c0,0,0,0,0,0c0,0,0,0,0,0c0,0,0,0,0-0.1l-7.1-18.4
		c8-2.9,13.2-7.6,14.1-12.9c0.7-3.9-1.1-7.9-5-11.2c-9.5-8-29.1-10.3-43.6-5.1c-8,2.9-13.2,7.6-14.2,12.9
		C18.1,36.7,19.9,40.7,23.8,44.1z"/>
</g>
</svg>
