<?xml version="1.0" encoding="utf-8"?>
<!-- Generator: Adobe Illustrator 28.0.0, SVG Export Plug-In . SVG Version: 6.00 Build 0)  -->
<svg version="1.1" id="Layer_1" xmlns="http://www.w3.org/2000/svg" xmlns:xlink="http://www.w3.org/1999/xlink" x="0px" y="0px"
	 viewBox="0 0 156 156" style="enable-background:new 0 0 156 156;" xml:space="preserve">
<style type="text/css">
	.st0{fill-rule:evenodd;clip-rule:evenodd;fill:#FFFFFF;}
	.st1{fill-rule:evenodd;clip-rule:evenodd;fill:#FF0000;}
	.st2{fill:#FF0000;}
	.st3{fill:none;}
</style>
<g>
	<polygon class="st0" points="0,0 156,0 156,156 0,156 0,0 	"/>
	<polygon class="st0" points="0.76,0.68 154.79,0.68 154.79,154.75 0.76,154.75 0.76,0.68 	"/>
	<path class="st1" d="M18.76,94.67c0-15.94,13.02-28.86,29.08-28.86l0,0l0,0c16.06,0,29.08,12.92,29.08,28.86l0,0l0,0
		c0,15.94-13.02,28.86-29.08,28.86l0,0l0,0C31.78,123.53,18.76,110.61,18.76,94.67L18.76,94.67L18.76,94.67z"/>
	<path class="st2" d="M47.84,123.92c-16.24,0-29.46-13.12-29.46-29.25c0-16.12,13.21-29.24,29.46-29.24S77.3,78.55,77.3,94.67
		C77.3,110.79,64.09,123.92,47.84,123.92z M47.84,66.19c-15.82,0-28.7,12.78-28.7,28.48c0,15.71,12.87,28.48,28.7,28.48
		s28.7-12.78,28.7-28.48C76.54,78.96,63.67,66.19,47.84,66.19z"/>
	<path class="st1" d="M37.82,59.53c0-1.85,1.5-3.34,3.34-3.34l0,0l0,0h13.36l0,0c1.84,0,3.34,1.5,3.34,3.34l0,0l0,0v22.18l0,0
		c0,1.85-1.5,3.34-3.34,3.34l0,0l0,0H41.16l0,0c-1.84,0-3.34-1.5-3.34-3.34l0,0V59.53z"/>
	<path class="st2" d="M54.52,85.43H41.16c-2.05,0-3.72-1.67-3.72-3.72V59.53c0-2.05,1.67-3.72,3.72-3.72h13.36
		c2.05,0,3.72,1.67,3.72,3.72v22.18C58.24,83.76,56.57,85.43,54.52,85.43z M41.16,56.57c-1.63,0-2.96,1.33-2.96,2.96v22.18
		c0,1.64,1.33,2.96,2.96,2.96h13.36c1.63,0,2.96-1.33,2.96-2.96V59.53c0-1.63-1.33-2.96-2.96-2.96H41.16z"/>
	<path class="st1" d="M43.57,52.8c0-6.93,3.12-13.38,8.28-17.15c6.02-4.4,13.79-4.4,19.81,0C76.82,39.41,84.6,47.27,84.6,54.2
		l-5.65-1.13c0-3.65-9.51-7.35-11.87-9.48c-3.18-2.87-7.46-2.87-10.64,0c-2.37,2.14-3.77,5.56-3.77,9.21L43.57,52.8L43.57,52.8
		L43.57,52.8z"/>
	<polygon class="st1" points="73.63,37.36 90.79,53.05 84.66,59.76 67.5,44.07 73.63,37.36 	"/>
	<path class="st1" d="M105.32,57.04c0.18,5.76,1.28,3.18,4.23,2.11c-1.13,7.37-0.81,4.51-8.17,5.67
		c-6.31,0.99-13.08-1.36-17.98-6.24l6.41-6.44c2.58,2.58,6,4,9.18,3.83c4.27-0.23,4.01,7.45,4.22,3.18c0.16-3.18,2.58,0.46,0-2.11
		H105.32L105.32,57.04L105.32,57.04z"/>
	<polygon class="st1" points="97.43,55.99 109.56,55.99 109.56,65.11 97.43,65.11 97.43,55.99 	"/>
	<rect x="97.3" y="57.51" class="st2" width="12.11" height="0.27"/>
	<rect x="114.9" y="59.25" class="st2" width="24.23" height="0.85"/>
	<polygon class="st2" points="135.45,78.14 114.68,65.66 115.12,64.94 135.88,77.42 	"/>
	<polygon class="st2" points="114.84,54.66 114.41,53.94 135.18,41.46 135.61,42.18 	"/>
	<polygon class="st2" points="121.72,90.55 110.35,69.15 111.09,68.76 122.46,90.16 	"/>
	
		<rect x="104.28" y="40.04" transform="matrix(0.4701 -0.8826 0.8826 0.4701 25.9736 124.1743)" class="st2" width="24.23" height="0.84"/>
	
		<rect x="100.75" y="28.34" transform="matrix(0.9455 -0.3256 0.3256 0.9455 -7.6599 35.1437)" class="st2" width="0.84" height="24.23"/>
	
		<rect x="89.05" y="79.24" transform="matrix(0.3248 -0.9458 0.9458 0.3248 -7.0367 149.4657)" class="st2" width="24.23" height="0.84"/>
	<path class="st2" d="M154.75,154.7H0.8V0.72h153.95V154.7z M6.75,148.75h142.04V6.67H6.75V148.75z"/>
	<polygon class="st3" points="0.49,155.51 155.51,155.51 155.51,0.49 0.49,0.49 0.49,155.51 	"/>
</g>
</svg>
