<?xml version="1.0" encoding="utf-8"?>
<!-- Generator: Adobe Illustrator 28.0.0, SVG Export Plug-In . SVG Version: 6.00 Build 0)  -->
<svg version="1.1" id="Layer_1" xmlns="http://www.w3.org/2000/svg" xmlns:xlink="http://www.w3.org/1999/xlink" x="0px" y="0px"
	 viewBox="0 0 156 156" width="156px" height="156px"  style="enable-background:new 0 0 156 156;" xml:space="preserve">
<style type="text/css">
	.st0{fill:#FF0000;}
</style>
<g>
	
		<rect x="-1.5" y="37.9" transform="matrix(0.7344 -0.6787 0.6787 0.7344 -24.5716 16.4492)" class="st0" width="20.5" height="3.5"/>
	
		<rect x="-7.1" y="52.7" transform="matrix(0.7344 -0.6787 0.6787 0.7344 -30.1956 31.8053)" class="st0" width="65.3" height="3.5"/>
	
		<rect x="-12.7" y="67" transform="matrix(0.7377 -0.6751 0.6751 0.7377 -35.5456 46.1072)" class="st0" width="108.5" height="3.6"/>
	
		<rect x="-3" y="75.6" transform="matrix(0.7377 -0.6751 0.6751 0.7377 -35.4654 63.4794)" class="st0" width="133.9" height="3.6"/>
	
		<rect x="30.4" y="75.1" transform="matrix(0.7377 -0.6751 0.6751 0.7377 -26.5604 85.3746)" class="st0" width="132.4" height="3.6"/>
	
		<rect x="138.8" y="115.3" transform="matrix(0.7404 -0.6722 0.6722 0.7404 -40.4068 129.4491)" class="st0" width="17.1" height="3.6"/>
	
		<rect x="66.9" y="86.1" transform="matrix(0.7212 -0.6927 0.6927 0.7212 -28.1322 105.7518)" class="st0" width="100.9" height="3.5"/>
	
		<rect x="101.1" y="101.2" transform="matrix(0.7377 -0.6751 0.6751 0.7377 -34.8952 116.1221)" class="st0" width="61.8" height="3.6"/>
</g>
</svg>
