<?xml version="1.0" encoding="utf-8"?>
<!-- Generator: Adobe Illustrator 28.0.0, SVG Export Plug-In . SVG Version: 6.00 Build 0)  -->
<svg version="1.1" id="Layer_1" xmlns="http://www.w3.org/2000/svg" xmlns:xlink="http://www.w3.org/1999/xlink" x="0px" y="0px"
	 viewBox="0 0 156 156" style="enable-background:new 0 0 156 156;" xml:space="preserve">
<style type="text/css">
	.st0{fill-rule:evenodd;clip-rule:evenodd;fill:#FFFFFF;}
	.st1{fill:none;}
	.st2{fill:#FF0000;}
</style>
<g>
	<polygon class="st0" points="14.31,38.5 141.91,38.5 141.91,119.44 14.31,119.44 	"/>
	<polygon class="st0" points="15.56,40.22 140.39,40.22 140.39,117.46 15.56,117.46 	"/>
	<rect x="15.81" y="40.46" class="st1" width="124.34" height="76.75"/>
	<polygon class="st0" points="15.93,41.01 138.8,41.01 138.8,115.37 15.93,115.37 	"/>
	
		<rect x="22.13" y="-5.05" transform="matrix(0.7344 -0.6787 0.6787 0.7344 -0.2271 66.0646)" class="st1" width="124.33" height="76.75"/>
	
		<rect x="14.92" y="46.61" transform="matrix(0.7344 -0.6787 0.6787 0.7344 -26.4735 28.3445)" class="st2" width="16.11" height="2.78"/>
	
		<rect x="17.71" y="7.01" transform="matrix(0.7344 -0.6787 0.6787 0.7344 -9.5873 66.2661)" class="st1" width="124.33" height="76.75"/>
	
		<rect x="10.52" y="58.29" transform="matrix(0.7344 -0.6787 0.6787 0.7344 -30.8947 40.4049)" class="st2" width="51.32" height="2.78"/>
	
		<rect x="13.49" y="18.67" transform="matrix(0.7377 -0.6751 0.6751 0.7377 -18.6677 66.0385)" class="st1" width="124.33" height="76.75"/>
	
		<rect x="6.14" y="69.53" transform="matrix(0.7377 -0.6751 0.6751 0.7377 -35.0899 51.527)" class="st2" width="85.26" height="2.79"/>
	
		<rect x="13.56" y="32.32" transform="matrix(0.7377 -0.6751 0.6751 0.7377 -27.8645 69.6632)" class="st1" width="124.33" height="76.75"/>
	
		<rect x="13.76" y="76.27" transform="matrix(0.7377 -0.6751 0.6751 0.7377 -35.026 65.1754)" class="st2" width="105.21" height="2.79"/>
	
		<rect x="20.55" y="49.52" transform="matrix(0.7377 -0.6751 0.6751 0.7377 -37.6419 78.8945)" class="st1" width="124.33" height="76.75"/>
	
		<rect x="39.98" y="75.87" transform="matrix(0.7377 -0.6751 0.6751 0.7377 -28.0344 82.3737)" class="st2" width="104.04" height="2.79"/>
	
		<rect x="9.66" y="84.48" transform="matrix(0.7404 -0.6722 0.6722 0.7404 -63.932 80.1736)" class="st1" width="124.34" height="76.75"/>
	
		<rect x="125.17" y="107.42" transform="matrix(0.7404 -0.6722 0.6722 0.7404 -38.903 116.8957)" class="st2" width="13.42" height="2.79"/>
	
		<rect x="19.38" y="63.41" transform="matrix(0.7212 -0.6927 0.6927 0.7212 -47.7751 84.8659)" class="st1" width="124.33" height="76.75"/>
	
		<rect x="68.66" y="84.48" transform="matrix(0.7212 -0.6927 0.6927 0.7212 -29.2972 98.9421)" class="st2" width="79.23" height="2.78"/>
	
		<rect x="14" y="73.67" transform="matrix(0.7377 -0.6751 0.6751 0.7377 -55.6652 80.8105)" class="st1" width="124.33" height="76.75"/>
	
		<rect x="95.53" y="96.37" transform="matrix(0.7377 -0.6751 0.6751 0.7377 -34.5788 106.5279)" class="st2" width="48.56" height="2.79"/>
	<polygon class="st1" points="14.54,119.21 141.67,119.21 141.67,38.74 14.54,38.74 	"/>
</g>
</svg>
