<?xml version="1.0" encoding="utf-8"?>
<!-- Generator: Adobe Illustrator 28.0.0, SVG Export Plug-In . SVG Version: 6.00 Build 0)  -->
<svg version="1.1" id="Layer_1" xmlns="http://www.w3.org/2000/svg" xmlns:xlink="http://www.w3.org/1999/xlink" x="0px" y="0px"
	 viewBox="0 0 156 156" width="156px" height="156px"  style="enable-background:new 0 0 156 156;" xml:space="preserve">
<style type="text/css">
	.st0{fill:#FF0000;}
	.st1{font-family:'Arial'; font-weight: 600;}
	.st2{font-size:36.4905px;}
	.st3{fill-rule:evenodd;clip-rule:evenodd;fill:#FF0000;}
</style>
<g>
	<rect x="77.7" y="7.8" transform="matrix(0.6849 -0.7287 0.7287 0.6849 20.5403 65.9474)" class="st0" width="17.7" height="2.9"/>
	
		<rect x="81.2" y="13.7" transform="matrix(0.6812 -0.7321 0.7321 0.6812 20.4891 77.2994)" class="st0" width="35.7" height="2.9"/>
	<rect x="98.5" y="14" transform="matrix(0.6878 -0.7259 0.7259 0.6878 24.8746 88.6619)" class="st0" width="34.1" height="2.9"/>
	
		<rect x="116.2" y="14.4" transform="matrix(0.6878 -0.7259 0.7259 0.6878 30.1676 101.7182)" class="st0" width="34.4" height="2.9"/>
	
		<rect x="138.4" y="23.6" transform="matrix(0.6567 -0.7541 0.7541 0.6567 30.0533 116.0319)" class="st0" width="8.2" height="2.9"/>
	<rect x="20" y="73.1" transform="matrix(0.6841 -0.7294 0.7294 0.6841 -45.2758 44.5683)" class="st0" width="17.7" height="2.9"/>
	<rect x="14" y="87.1" transform="matrix(0.6841 -0.7294 0.7294 0.6841 -51.2352 58.7545)" class="st0" width="56.5" height="2.9"/>
	<rect x="8.3" y="100.3" transform="matrix(0.6877 -0.726 0.726 0.6877 -56.6088 71.7821)" class="st0" width="93.7" height="2.9"/>
	
		<rect x="15.5" y="108.2" transform="matrix(0.6877 -0.726 0.726 0.6877 -56.7062 87.4813)" class="st0" width="115.7" height="2.9"/>
	
		<rect x="42.4" y="107.7" transform="matrix(0.6877 -0.726 0.726 0.6877 -48.1514 106.4148)" class="st0" width="114.4" height="2.9"/>
	
		<rect x="133.2" y="145" transform="matrix(0.6914 -0.7225 0.7225 0.6914 -62.3996 146.709)" class="st0" width="14.8" height="2.9"/>
	
		<rect x="72.6" y="117.9" transform="matrix(0.6708 -0.7416 0.7416 0.6708 -50.2372 125.5533)" class="st0" width="87.4" height="2.9"/>
	<polygon class="st0" points="110.8,153.8 108.7,151.8 145.5,113 147.6,115 	"/>
	<path d="M147.1,153.3H21.2V66h125.9V153.3z M24.6,149.9h119.1V69.4H24.6V149.9z"/>
	<text transform="matrix(0.9982 0 0 1 29.6206 144.8135)" class="st1 st2">1</text>
	<text transform="matrix(0.9982 0 0 1 49.8042 144.8135)" class="st1 st2">3</text>
	<rect x="72.5" y="49.8" transform="matrix(0.663 -0.7486 0.7486 0.663 -6.4076 88.2772)" class="st0" width="44.7" height="2.9"/>
	<polygon class="st3" points="102.4,31.9 113.4,30.2 113.1,41.4 	"/>
	<path d="M146.8,29.9H79V0.6h67.8V29.9z M82.4,26.5h61V4.1h-61V26.5z"/>
</g>
</svg>
