<?xml version="1.0" encoding="utf-8"?>
<!-- Generator: Adobe Illustrator 28.0.0, SVG Export Plug-In . SVG Version: 6.00 Build 0)  -->
<svg version="1.1" id="Layer_1" xmlns="http://www.w3.org/2000/svg" xmlns:xlink="http://www.w3.org/1999/xlink" x="0px" y="0px"
	 viewBox="0 0 156 156" style="enable-background:new 0 0 156 156;" xml:space="preserve">
<style type="text/css">
	.st0{fill-rule:evenodd;clip-rule:evenodd;fill:#FFFFFF;}
	.st1{fill:#FF0000;}
	.st2{enable-background:new    ;}
	.st3{font-family:'MyriadPro-Regular';}
	.st4{font-size:39.6345px;}
	.st5{fill:none;}
</style>
<polygon class="st0" points="1.3,34.12 156,34.12 156,132.7 1.3,132.7 "/>
<polygon class="st0" points="2.72,35.62 154.58,35.62 154.58,131.21 2.72,131.21 "/>
<rect x="69.03" y="81.86" transform="matrix(0.685 -0.7285 0.7285 0.685 -35.9966 83.5716)" class="st1" width="19.25" height="3.12"/>
<rect x="47.99" y="81.85" transform="matrix(0.6848 -0.7287 0.7287 0.6848 -35.994 83.6053)" class="st1" width="61.33" height="3.12"/>
<rect x="27.74" y="81.86" transform="matrix(0.6878 -0.7259 0.7259 0.6878 -35.9956 83.1352)" class="st1" width="101.82" height="3.12"/>
<rect x="15.82" y="81.86" transform="matrix(0.6878 -0.7259 0.7259 0.6878 -35.9956 83.1352)" class="st1" width="125.66" height="3.12"/>
<rect x="16.53" y="81.85" transform="matrix(0.6878 -0.7259 0.7259 0.6878 -35.9933 83.136)" class="st1" width="124.25" height="3.12"/>
<rect x="70.64" y="81.86" transform="matrix(0.6919 -0.722 0.722 0.6919 -35.9921 82.4867)" class="st1" width="16.03" height="3.12"/>
<rect x="31.18" y="81.86" transform="matrix(0.6714 -0.7411 0.7411 0.6714 -35.9731 85.6989)" class="st1" width="94.94" height="3.12"/>
<rect x="49.66" y="81.85" transform="matrix(0.6878 -0.7259 0.7259 0.6878 -35.9933 83.136)" class="st1" width="57.99" height="3.12"/>
<path d="M147.03,130.84H10.27V35.98h136.76V130.84z M13.98,127.13h129.34V39.69H13.98V127.13z"/>
<g class="st2">
	<text transform="matrix(0.9981 0 0 1 67.8926 95.0449)" class="st3 st4">1</text>
</g>
<g class="st2">
	<text transform="matrix(0.9981 0 0 1 68.5059 95.0449)" class="st3 st4">3</text>
</g>
<polygon class="st5" points="1.6,132.4 155.7,132.4 155.7,34.42 1.6,34.42 "/>
</svg>
