<?xml version="1.0" encoding="utf-8"?>
<!-- Generator: Adobe Illustrator 28.0.0, SVG Export Plug-In . SVG Version: 6.00 Build 0)  -->
<svg version="1.1" id="Layer_1" xmlns="http://www.w3.org/2000/svg" xmlns:xlink="http://www.w3.org/1999/xlink" x="0px" y="0px"
	 viewBox="0 0 156 156" style="enable-background:new 0 0 156 156;" xml:space="preserve">
<style type="text/css">
	.st0{fill:#FF0000;}
</style>
<path class="st0" d="M91.5,0l-11,12.2l-3.7,4.3l-1.2,1.9l-1.3,1.6l-0.9,1.6l-0.7,1.9L72,25.3l-0.6,1.8l-0.9,4.2l-0.9,4.9l-0.3,3.6
	v3.6l0.2,3.3l0.6,3.1l1,2.8l1,3l3.1,5.7l3.9,5.1l4.5,5.1l9.8,9.4l9.8,9.5l4.3,4.9l3.7,5.2l3.1,5.5l1.2,3l0.7,3l0.6,3l0.3,3.3v3.7
	l-0.4,3.6l-0.7,3l-1,3l-1.3,2.8l-1.8,2.7l-2.1,2.5l-2.2,2.4l-2.8,2.4l-3.1,1.9l-3.6,2.1l-3.6,1.8l-4.2,1.5l-4.5,1.3l-4.8,1.2
	l-5.2,0.9L64.5,156l11.3-12.1l3.4-4.5l1.5-1.9l1.2-1.6l1-1.6l0.7-1.8l0.6-1.6l0.4-1.9l0.9-4l0.7-5.1l0.6-3.6v-3.4l-0.4-3.3l-0.6-3.1
	l-0.7-3.1l-1.3-2.8l-3-5.5L77,89.7l-4.3-5.1l-9.8-9.4l-9.8-9.5L48.7,61l-3.9-5.2l-3-5.5l-1.3-3l-0.9-3l-0.6-3.3l-0.3-3.3v-3.6
	l0.6-3.4l0.6-3.1l1-2.8l1.5-2.8l1.8-2.8l1.9-2.5l2.5-2.2l2.8-2.5l3-1.9L58,8l3.9-1.8L66,4.7l4.5-1.5L75.2,2l5.1-0.9L91.5,0z"/>
</svg>
