<?xml version="1.0" encoding="utf-8"?>
<!-- Generator: Adobe Illustrator 28.0.0, SVG Export Plug-In . SVG Version: 6.00 Build 0)  -->
<svg version="1.1" id="Layer_1" xmlns="http://www.w3.org/2000/svg" xmlns:xlink="http://www.w3.org/1999/xlink" x="0px" y="0px"
	 viewBox="0 0 156 156" width="156px" height="156px"  style="enable-background:new 0 0 156 156;" xml:space="preserve">
<style type="text/css">
	.st0{fill:#FF0000;}
	.st1{font-family:'Arial'; font-weight: 600;}
	.st2{font-size:36.4986px;}
	.st3{fill-rule:evenodd;clip-rule:evenodd;fill:#FF0000;}
</style>
<g>
	
		<rect x="19.5" y="73.2" transform="matrix(0.6871 -0.7265 0.7265 0.6871 -45.3813 43.9783)" class="st0" width="17.8" height="2.9"/>
	
		<rect x="13.7" y="87.1" transform="matrix(0.6871 -0.7265 0.7265 0.6871 -51.182 58.1926)" class="st0" width="56.6" height="2.9"/>
	<rect x="8" y="100.4" transform="matrix(0.69 -0.7238 0.7238 0.69 -56.665 71.3421)" class="st0" width="94" height="2.9"/>
	<rect x="15.1" y="108.4" transform="matrix(0.69 -0.7238 0.7238 0.69 -56.8097 86.9462)" class="st0" width="116" height="2.9"/>
	<rect x="42.2" y="107.9" transform="matrix(0.69 -0.7238 0.7238 0.69 -48.2724 105.929)" class="st0" width="114.7" height="2.9"/>
	
		<rect x="133.2" y="145.1" transform="matrix(0.6929 -0.721 0.721 0.6929 -62.4855 146.4008)" class="st0" width="14.8" height="2.9"/>
	
		<rect x="72.5" y="118.1" transform="matrix(0.6725 -0.7401 0.7401 0.6725 -50.3476 125.2131)" class="st0" width="87.6" height="2.9"/>
	
		<rect x="101.4" y="132.1" transform="matrix(0.69 -0.7238 0.7238 0.69 -56.9032 134.1826)" class="st0" width="53.5" height="2.9"/>
	<path d="M147.4,153.5H20.8V66.1h126.5V153.5z M24.2,150h119.7V69.5H24.2V150z"/>
	<text transform="matrix(1.0029 0 0 1 29.2495 144.8828)" class="st1 st2">1</text>
	<text transform="matrix(1.0029 0 0 1 49.5283 144.8828)" class="st1 st2">3</text>
	<path d="M147.1,30H78.8V0.8h68.3V30z M82.2,26.6h61.4V4.2H82.2V26.6z"/>
	
		<rect x="72.5" y="49.8" transform="matrix(0.6647 -0.7471 0.7471 0.6647 -6.4837 88.0603)" class="st0" width="44.8" height="2.9"/>
	<polygon class="st3" points="102.4,31.9 113.6,30.2 113.2,41.4 	"/>
</g>
</svg>
