<?xml version="1.0" encoding="utf-8"?>
<!-- Generator: Adobe Illustrator 28.0.0, SVG Export Plug-In . SVG Version: 6.00 Build 0)  -->
<svg version="1.1" id="Layer_1" xmlns="http://www.w3.org/2000/svg" xmlns:xlink="http://www.w3.org/1999/xlink" x="0px" y="0px"
	 viewBox="0 0 156 156" width="156px" height="156px"  style="enable-background:new 0 0 156 156;" xml:space="preserve">
<style type="text/css">
	.st0{fill:#FE0707;}
	.st1{fill:#050303;}
</style>
<g>
	<path class="st0" d="M100.7,15.6c4,1.3,7.9,2.7,11.7,4.4c12.1,5.6,23.3,12.6,33.6,21.1c1,0.9,2,1.8,3,2.8c4.5,4.5,5.4,9.4,2.7,15.2
		c-1.1,2.4-2.5,4.5-4,6.6c-1.9,2.7-3.7,5.6-5.3,8.6c-3.2,6.2-8.4,10.2-14.6,13.1c-3.2,1.5-6.5,2.8-9.6,4.6c-4.8,2.7-7,6.7-6.7,12.2
		c0,1,0,2.1,0.1,3.1c0.3,3.9,0.7,7.8,1,11.8c0.2,2.9,0.2,5.8-0.2,8.7c-0.6,4.3-3,7-7,8.5c-3.9,1.4-7.9,1.9-12,2
		c-6.9,0.2-13.8-0.5-20.5-2.2c-5.4-1.4-9.1-4.7-11.3-9.7c-1.7-3.8-2.5-7.8-3.1-11.9c-0.3-2.8,0.7-5.2,1.8-7.7c1.4-3.1,3.1-6,4.3-9.2
		c0.3-0.9,0.6-1.7,0.7-2.6c0.4-2.9-0.7-4.7-3.6-5.4c-2.4-0.6-4.8-0.8-7.3-0.8c-8.1-0.1-16.2,0.6-24.2,0.7c-5.8,0.1-11.5,0.4-17.2-1
		c-0.2,0-0.3-0.1-0.5-0.1C7,87,5.3,84,6.6,78.3c0.9-4,2.7-7.6,4.7-11C17.6,56.2,25.3,46,33.4,36.1c0.6-0.7,1.3-1.4,2-2.1
		c2.8-2.8,6-3.4,9.9-2.6c4.4,0.9,8.2,2.8,11.5,5.9c2.1,1.9,4.2,3.7,6.8,4.9c3.4,1.6,6,1.2,8.4-1.6c2.1-2.4,3.6-5.2,5.2-7.9
		c2.1-3.6,4.1-7.3,6.8-10.6c2.1-2.6,4.4-4.9,7.5-6.2c0.1-0.1,0.2-0.1,0.2-0.3C94.5,15.6,97.6,15.6,100.7,15.6z M74,101.4
		c1-0.9,1.9-2,2.7-3.1c0.7-0.5,1.2-1.2,1.7-1.9c3.6-4.1,7.2-8.2,10.8-12.2c0.7-0.6,1.4-1.3,1.9-2.2c4.9-5.3,9.7-10.8,14.4-16.3
		c0.7-0.5,1.2-1.2,1.7-1.9c3.2-3.2,6-6.7,9.1-10.1c5.6-6,10.8-12.2,16.3-18.3c0.5-0.6,0.6-0.9-0.2-1.3c-2.6-1.6-5.1-3.2-7.6-4.8
		c-0.7-0.5-1.1-0.3-1.6,0.3c-2.6,2.9-5.1,5.9-7.9,8.7c-3.4,3.6-6.5,7.4-9.8,11.1c-0.7,0.6-1.3,1.3-1.9,2.1c-2.2,2.3-4.4,4.8-6.4,7.3
		c-0.6,0.5-1.2,1.2-1.6,1.9c-1,1-1.9,2-2.7,3.1c-0.7,0.6-1.2,1.2-1.7,1.9c0,0.1,0,0.1-0.1,0.1c-0.7,0.7-1.4,1.3-1.9,2.2
		c-0.4,0.2-0.7,0.5-1,0.9c-6.3,7.1-12.5,14.2-18.8,21.3c-1,1.1-1.7,2.1-1.4,3.7c0.1,0.7-0.1,1.5-0.2,2.2c-0.6,2.7-1.9,5.1-3.1,7.6
		c-1.2,2.5-2.6,5-3.4,7.8c-0.4,1.4-0.4,2.8,0.1,4.4c3.7-4.3,7.3-8.3,10.8-12.4C72.8,102.9,73.4,102.2,74,101.4z M64.2,75.3
		c-1.1,1-2,2.1-2.9,3.3c-0.7,0.5-1.2,1.2-1.6,1.9c-1.7,1.9-3.3,3.7-5.2,5.8c1.4,0.1,2.6,0.1,3.7,0.3c2.9,0.3,5.8,0.6,7.9,2.8
		c0.8,0.8,1.1,0.5,1.6-0.1c6.5-7.4,13-14.7,19.5-22.1c0.9-1,1.5-2.2,2.4-3c1.1-1,2.1-2.1,3-3.2c0.7-0.5,1.2-1.2,1.7-1.9
		c3.1-3.5,6.2-7,9.3-10.6c0.7-0.6,1.3-1.4,1.9-2.1c5.4-6,10.7-11.9,16.1-17.8c0.5-0.6,0.2-0.7-0.3-1c-3.1-1.9-6.5-3.3-9.8-4.9
		c-0.5-0.2-0.8-0.3-1.2,0.2c-2.4,2.8-4.8,5.6-7.3,8.4c-0.7,0.6-1.2,1.2-1.7,1.9c-2.7,3-5.3,6-8,9c-2.8,3.2-5.6,6.5-8.5,9.8
		c-0.7,0.6-1.4,1.3-1.9,2.1c-2.2,2.4-4.4,4.9-6.5,7.3C73,65.1,69.6,69.1,66.2,73C65.5,73.7,64.8,74.4,64.2,75.3z M118.5,76.5
		c-2.1,2.3-4.5,4.3-6.3,6.9c-0.7,0.6-1.3,1.2-1.7,1.9c-5.4,5.9-10.7,12-16,18c-0.7,0.7-1.4,1.4-2,2.3c-5.6,6.1-11.1,12.4-16.5,18.7
		c-0.7,0.5-1.2,1.2-1.6,1.9c-1.4,1.6-2.9,3.2-4.3,4.7c-1.1,1.2-1.1,1.2,0.4,1.8c3.2,1.4,6.7,2,10.1,2.4c0.5,0.1,0.8-0.1,1.1-0.5
		c2.5-2.8,4.9-5.7,7.4-8.5c0.6-0.5,1.2-1.2,1.6-1.9c0.7-0.6,1.3-1.3,1.9-2.1c0.7-0.6,1.4-1.4,1.9-2.1c4.5-5.1,9-10.2,13.6-15.3
		c0.5-0.6,0.8-1.2,0.8-2c0-4.9,2.1-8.9,6.1-11.7c2.8-1.9,5.8-3.4,9-4.7c1.1-0.4,1.9-1.1,2.7-2c6.9-7.8,13.7-15.6,20.6-23.4
		c3.7-4.1,5.2-11.1-1.2-16c-0.3,0.3-0.6,0.6-0.9,1c-4.7,5.4-9.5,10.7-14.2,16.1c-3.6,4.1-7.1,8.2-10.7,12.2
		C119.6,74.9,119,75.7,118.5,76.5z M56.9,80.5c0.6-0.5,1.2-1.2,1.7-1.9c2-2.1,3.9-4.3,5.8-6.6c0.7-0.7,1.4-1.4,2-2.3
		c3.4-3.8,6.8-7.7,10.2-11.5c2.2-2.5,4.4-5.1,6.6-7.6c0.8-0.6,1.4-1.3,1.9-2.1c4.6-5.1,9.1-10.2,13.6-15.4c0.6-0.6,1.2-1.2,1.7-1.9
		c2.8-3.1,5.5-6.2,8.3-9.3c0.5-0.5,0.2-0.7-0.3-0.9c-3.3-1.3-6.6-2.5-10.1-3.2c-0.5-0.1-0.9,0-1.3,0.4c-3.8,4.3-7.5,8.6-11.3,12.9
		C84.6,32,83.7,33,83,34c-3.4,3.9-6.9,7.7-10.3,11.6c-3.9,4.4-7.8,8.9-11.6,13.3c-0.7,0.6-1.2,1.2-1.7,1.9c-1.5,1.6-2.9,3.2-4.4,4.8
		c-3.8,4.3-7.5,8.6-11.3,12.9c-0.6,0.5-1.2,1.2-1.7,1.9c-1.8,2-3.7,4.1-5.7,6.3c5.2-0.2,10.1-0.3,15-0.5c0.4,0,0.7-0.1,0.9-0.4
		C53.8,84.1,55.3,82.3,56.9,80.5z M72.1,125.6c0.7-0.6,1.3-1.3,1.9-2.1c6.2-7,12.4-14.1,18.6-21.1c0.6-0.7,1.3-1.5,1.9-2.2
		c4.4-5,8.8-9.9,13.1-14.9c0.6-0.6,1.2-1.2,1.7-1.9c3.1-3.4,6.1-6.7,9.2-10.1c0.7-0.7,1.4-1.3,1.9-2.3c0.4-0.1,0.6-0.4,0.8-0.7
		c7.6-8.6,15.3-17.3,22.9-25.9c0.6-0.7,0.5-1-0.2-1.6c-2.7-2.2-5.5-4.3-8.3-6.4c-0.8-0.6-1.2-0.4-1.8,0.3
		c-4.9,5.6-9.8,11.1-14.7,16.7c-3.1,3.5-6.5,6.7-9.3,10.4c-0.6,0.5-1.2,1.1-1.7,1.9c-1.6,1.8-3.2,3.5-4.8,5.3
		c-3.6,4.1-7.2,8.2-10.7,12.3c-0.6,0.6-1.3,1.2-1.7,2c-3.4,3.6-6.6,7.3-9.8,11.1c-0.6,0.6-1.2,1.2-1.7,1.9c-1.9,2-3.8,4.1-5.6,6.3
		c-0.7,0.6-1.3,1.4-1.9,2.1c-2.6,2.9-5.2,5.8-7.7,8.7c-2.8,3.1-2.8,3.1-1.6,7c0.9,2.8,2.1,5.4,4.2,7.6c0.5,0.6,0.9,0.7,1.4,0
		C69.5,128.5,70.8,127.1,72.1,125.6z M36.9,63.8c-0.7,0.6-1.4,1.3-1.9,2.1c-0.3,0.3-0.6,0.5-0.8,0.8c-4.8,5.5-9.6,10.9-14.4,16.4
		c-1,1.1-2,2.3-3.1,3.5c5.6,0.6,10.9,0.4,16.3,0.3c0.5,0,0.8-0.2,1.1-0.5c1.7-2,3.4-4,5.1-5.9c0.6-0.5,1.2-1.2,1.6-1.9
		c5.2-5.9,10.4-11.8,15.7-17.7c0.6-0.6,1.2-1.2,1.7-1.9c4-4.5,8.1-9.1,12.3-13.8c-4.9,0.7-6.4,0.5-9.8-1.6c-1-0.6-2-1.4-3-2.1
		c-0.6-0.5-0.9-0.4-1.3,0.1c-1.5,1.8-3.1,3.5-4.7,5.3c-3.5,4-7,8-10.5,12c-0.6,0.6-1.3,1.2-1.7,2C38.5,61.8,37.6,62.8,36.9,63.8z
		 M94.5,123.1c-1,0.9-1.8,1.9-2.6,3c-2.7,3.1-5.5,6.1-8.3,9.3c4,0.5,7.8,0.4,11.5,0.3c0.8,0,1.3-0.4,1.8-1
		c3.3-3.8,6.5-7.7,10.1-11.4c2.3-2.4,3.7-4.8,2.7-8.2c0-0.2,0-0.3,0-0.5c-0.2-2.6-0.4-5.1-0.7-8c-1.3,1.5-2.5,2.8-3.6,4.1
		C101.7,114.9,98.1,119,94.5,123.1z M35.1,62.8c1.1-1.3,2.2-2.5,3.3-3.8c1.2-1.4,2.5-2.7,3.7-4.1c4.3-4.8,8.5-9.7,12.8-14.6
		c0.3-0.3,0.8-0.6,0.2-1.1c-2.6-2.2-5.1-4.3-8.7-4.8c-1.1-0.2-1.7,0-2.4,0.8c-10,11.4-20,22.9-30.2,34.2c-2.7,3-4.1,6.5-4.9,10.2
		c-0.8,3.5,0.4,5.2,3.8,6.3c0.2,0.1,0.3,0.1,0.5,0.1c0.8,0.3,1.3,0.1,1.9-0.5c2.5-2.9,5-5.7,7.5-8.6C26.8,72.2,31,67.5,35.1,62.8z
		 M42.7,33.8c-0.3-0.1-0.4-0.2-0.5-0.2c-0.3,0-0.5,0-0.8,0c-2.3,0.2-3.9,1.7-5.3,3.3c-6.5,7.6-12.4,15.6-18,23.9
		c-0.1,0.2-0.3,0.4,0.1,0.7C26.4,52.3,34.5,43.1,42.7,33.8z M98.9,135.3c8.9-1.3,11.4-4.1,11-12.5C106.3,126.9,102.7,131,98.9,135.3
		z M94.7,17.8c-1.9,0.1-3.6,0.9-5.3,2.3c-5,4.2-7.7,10-11,15.5c0.1,0.1,0.2,0.2,0.4,0.3C84,29.8,89.3,23.9,94.7,17.8z M140.7,71.4
		c-3.3,3.8-6.6,7.5-10,11.3c0.1,0.1,0.2,0.1,0.3,0.2C135,79.8,139.1,76.7,140.7,71.4z M18,61.8c0.1-0.2,0-0.3-0.1-0.3
		c-0.1,0-0.2,0.1-0.3,0.2c-0.1,0.1,0,0.3,0.1,0.2C17.9,61.9,18,61.8,18,61.8z"/>
	<path class="st1" d="M98.5,33.1c-4.2,0-8.5,0-12.7,0c-0.6,0-1,0-0.9,0.8c0.1,4.9,0.1,9.8,0.1,14.7c-0.5,0.8-1.1,1.5-1.9,2.1
		c0-5.5,0-11.1-0.1-16.7c0.8-1.1,1.6-2,2.6-2.9c4.9,0,9.8,0,14.6,0.1C99.8,31.9,99.1,32.5,98.5,33.1z"/>
	<path class="st1" d="M120.4,74.3c0,3.4,0,6.8,0.1,10.2c0,0.6-0.2,0.8-0.8,0.8c-3,0-6.1,0-9.1,0c0.4-0.8,1-1.4,1.7-1.9
		c1.9,0,3.7,0,5.6,0.1c0.6,0,0.8-0.2,0.8-0.8c0-2,0-4.1-0.1-6.1C119,75.7,119.6,74.9,120.4,74.3z"/>
	<path class="st1" d="M56.5,60.9c-5.7,0-11.4,0-17.1,0c0.5-0.7,1.1-1.4,1.7-2c5.7,0,11.3,0,17,0.1C57.8,59.7,57.1,60.3,56.5,60.9z"
		/>
	<path class="st1" d="M92.6,122.2c0-5.5-0.1-11.1-0.1-16.6c0.6-0.9,1.3-1.6,2-2.3c0,5.6,0,11.2,0,16.7
		C94,120.8,93.3,121.5,92.6,122.2z"/>
	<path class="st1" d="M107.7,85.3c-5.6,0-11.2,0-16.8,0c0.5-0.8,1.1-1.4,1.7-2c5.6,0,11.1,0,16.7,0.1
		C108.9,84.1,108.3,84.7,107.7,85.3z"/>
	<path class="st1" d="M72.1,125.6c0-5.6,0-11.3,0-16.9c0-0.7,0-1.3,0-2c0.6-0.8,1.1-1.5,1.9-2.1c0,5.6,0,11.3,0,16.9
		c0,0.7,0,1.3,0,2C73.4,124.3,72.8,125,72.1,125.6z"/>
	<path class="st1" d="M36.9,63.8c0,4.5,0.1,9.1,0,13.6c0,1,0.2,1.3,1.2,1.2c0.9-0.1,1.8,0,2.7,0c-0.5,0.7-1,1.3-1.6,1.9
		c-1,0-2.1-0.1-3.1,0c-0.9,0.1-1.1-0.3-1.1-1.1c0-4.5,0-9,0-13.5C35.5,65.2,36.2,64.5,36.9,63.8z"/>
	<path class="st1" d="M64.3,72.1c0-3.3-0.1-6.5,0-9.8c0-1.2-0.4-1.5-1.5-1.4c-1.2,0.1-2.4,0-3.5,0c0.5-0.7,1-1.4,1.7-1.9
		c1.4,0,2.8,0.1,4.2,0c0.8,0,1,0.2,1,1c0,3.3,0,6.6,0,9.8C65.7,70.7,65,71.4,64.3,72.1z"/>
	<path class="st1" d="M103,31.1c2.4,0.1,2.4,0.1,2.4,2.6c0,4.2,0,8.4,0,12.6c-0.6,0.8-1.1,1.5-1.9,2.1c0-4.5,0-9.1,0-13.6
		c0-1.7,0-1.7-1.7-1.7c-0.2,0-0.3,0-0.5,0C101.8,32.3,102.3,31.7,103,31.1z"/>
	<path class="st1" d="M118.6,73.3c0-2.1-0.1-4.2,0-6.3c0-1-0.2-1.3-1.2-1.3c-3,0.1-6.1,0-9.1,0c0.4-0.7,1-1.3,1.7-1.9
		c3.2,0,6.3,0,9.5,0c0.8,0,1.1,0.1,1.1,1c-0.1,2,0,4.1,0,6.1C120,71.9,119.3,72.6,118.6,73.3z"/>
	<path class="st1" d="M81.1,96.4c4.1,0,8.2,0.1,12.3,0c0.9,0,1.2,0.3,1.1,1.2c-0.1,0.9,0,1.7,0,2.6c-0.6,0.7-1.3,1.5-1.9,2.2
		c0-1-0.1-2,0-3c0.1-0.9-0.3-1.1-1.1-1.1c-4,0-8,0-12,0C79.9,97.6,80.5,97,81.1,96.4z"/>
	<path class="st1" d="M105.4,49.5c0,3.5,0,7,0.1,10.5c0,0.7-0.2,0.9-0.9,0.9c-3.1-0.1-6.1,0-9.2-0.1c0.5-0.7,1-1.3,1.6-1.9
		c1.9,0,3.7,0,5.6,0c0.6,0,0.9-0.1,0.9-0.8c-0.1-2.2,0-4.3-0.1-6.5C104,50.8,104.6,50.1,105.4,49.5z"/>
	<path class="st1" d="M84.9,51.8c0,2.1,0.1,4.2,0,6.3c0,0.7,0.2,0.9,0.9,0.9c2.8,0,5.6,0,8.5,0c-0.5,0.7-1,1.3-1.7,1.9
		c-2.7,0-5.3-0.1-8,0c-1.2,0-1.8-0.2-1.6-1.6c0.1-1.8,0-3.6,0-5.4C83.5,53.1,84.2,52.4,84.9,51.8z"/>
	<path class="st1" d="M90.9,65.9c0,5.4,0.1,10.8,0.1,16.2c-0.5,0.8-1.2,1.5-1.9,2.2c0-5.4,0-10.8-0.1-16.1
		C89.5,67.2,90.2,66.6,90.9,65.9z"/>
	<path class="st1" d="M56.9,80.5c-5,0-9.9-0.1-14.9-0.1c0.5-0.7,1-1.3,1.7-1.9c4.9,0,9.9,0.1,14.8,0.1C58.1,79.4,57.5,80,56.9,80.5z
		"/>
	<path class="st1" d="M89.1,126.2c-4.9,0-9.8,0-14.7-0.1c0.5-0.7,1-1.3,1.6-1.9c4.9,0,9.8,0,14.7,0.1
		C90.3,125,89.7,125.6,89.1,126.2z"/>
	<path class="st1" d="M105.4,65.8c-4.8,0-9.6,0-14.4,0c0.5-0.7,1.1-1.3,1.7-1.9c4.8,0,9.5,0,14.3,0.1
		C106.6,64.6,106,65.3,105.4,65.8z"/>
	<path class="st1" d="M66.2,73c0,2.2,0,4.3,0,6.5c0,0.7-0.2,1-0.9,1c-1.9-0.1-3.7,0-5.6-0.1c0.5-0.7,1-1.3,1.6-1.9
		c3,0.1,3,0.1,2.9-2.9c0-0.1,0-0.3-0.1-0.4C64.8,74.4,65.5,73.7,66.2,73z"/>
	<path class="st1" d="M72.1,103.5c0-2.1,0-4.2-0.1-6.3c0-0.6,0.1-0.8,0.8-0.8c1.8,0.1,3.7,0,5.5,0c-0.5,0.7-1,1.3-1.7,1.9
		c-2.8-0.1-2.8-0.1-2.7,2.7c0,0.1,0,0.3,0,0.4C73.4,102.2,72.8,102.9,72.1,103.5z"/>
	<path class="st1" d="M35.1,62.8c0-0.2,0-0.3,0-0.5C35,58.9,35,58.9,38.4,59C37.3,60.3,36.2,61.5,35.1,62.8z"/>
	<path class="st1" d="M94.5,123.1c0,0.2,0,0.3,0,0.5c0,2.6,0,2.6-2.6,2.4C92.7,125,93.5,124.1,94.5,123.1z"/>
</g>
</svg>
