<?xml version="1.0" encoding="utf-8"?>
<!-- Generator: Adobe Illustrator 28.0.0, SVG Export Plug-In . SVG Version: 6.00 Build 0)  -->
<svg version="1.1" id="Layer_1" xmlns="http://www.w3.org/2000/svg" xmlns:xlink="http://www.w3.org/1999/xlink" x="0px" y="0px"
	 viewBox="0 0 156 156" width="156px" height="156px"  style="enable-background:new 0 0 156 156;" xml:space="preserve">
<style type="text/css">
	.st0{fill:#FF0000;}
</style>
<g>
	<rect x="-3.7" y="51.1" transform="matrix(0.6635 -0.7481 0.7481 0.6635 -31.2541 35.6574)" class="st0" width="55.4" height="3"/>
	<rect x="-1.4" y="62" transform="matrix(0.6612 -0.7502 0.7502 0.6612 -36.7303 45.7061)" class="st0" width="67.2" height="3"/>
	<rect x="13.5" y="51.1" transform="matrix(0.6617 -0.7497 0.7497 0.6617 -18.4089 64.3492)" class="st0" width="97.2" height="3"/>
	<rect x="32.5" y="52.5" transform="matrix(0.6594 -0.7518 0.7518 0.6594 -13.7223 77.6131)" class="st0" width="92.7" height="3"/>
	<rect x="47.7" y="58.5" transform="matrix(0.6617 -0.7497 0.7497 0.6617 -13.7325 89.5002)" class="st0" width="89.2" height="3"/>
	
		<rect x="37.4" y="75.4" transform="matrix(0.6617 -0.7497 0.7497 0.6617 -25.6176 97.1068)" class="st0" width="114.8" height="3"/>
	
		<rect x="43.8" y="86.4" transform="matrix(0.6617 -0.7497 0.7497 0.6617 -30.3791 108.4184)" class="st0" width="122.4" height="3"/>
	<rect x="71.5" y="119.6" transform="matrix(0.662 -0.7495 0.7495 0.662 -59.1023 111.1637)" class="st0" width="44.3" height="3"/>
	
		<rect x="90.6" y="127.3" transform="matrix(0.6612 -0.7502 0.7502 0.6612 -61.9949 120.4167)" class="st0" width="23.5" height="3"/>
	<path class="st0" d="M88.9,140.4c-8.5,0-17.2-1.5-21.4-3.1c-10-3.8-11.8-15.3-12.7-21.5c-0.6-3.7,1.6-8,3.7-12.2
		c3.5-7,4.8-10.4,1.5-12.3c-3.3-1.9-14.4-1.4-24.2-1C20.5,91,6,91.7,2.4,85.9c-4-6.7,4.1-22.3,25.7-49.3l0-0.1
		c6.3-7.8,9.8-7.4,14.9-6.1c0.8,0.2,1.7,0.4,2.6,0.6c2.9,0.6,5.6,2.9,8.5,5.3c3.9,3.3,8,6.7,11.8,5.3c2.6-0.9,5.4-5.9,8.2-10.6
		c4.8-8.3,10.1-17.7,19.1-17.7c0.1,0,0.3,0,0.4,0c14.8,0.5,47.9,22,55.6,31.3c6.8,8.2,0.8,16.8-3.7,23c-1.3,1.9-2.6,3.6-3.2,5
		c-2.8,6.2-4.9,7.9-9.4,11.6l-1.1,0.9c-2.1,1.7-5,3-8.1,4.3c-5.2,2.2-10.5,4.5-12.8,9.2c-1.6,3.3-1,9.6-0.4,15.6
		c0.8,8.5,1.6,17.3-2.9,21.5C104,139.2,96.6,140.4,88.9,140.4z M49,86c5.8,0,10.4,0.4,13,1.9c6.8,4,3,11.5,0,17.5
		c-1.8,3.6-3.7,7.4-3.3,9.8c1.1,7.5,3,15.7,10.2,18.4c8.3,3.1,30.3,4.7,36.3-0.8c3.1-2.8,2.3-11,1.7-18.2
		c-0.7-6.9-1.3-13.5,0.8-17.7c2.9-6.1,9.2-8.8,14.8-11.1c2.8-1.2,5.4-2.3,7.1-3.7l1.1-0.9c4.3-3.6,5.8-4.8,8.3-10.2
		c0.8-1.7,2.1-3.6,3.6-5.7c5-7,8.4-12.7,3.9-18.2c-7.8-9.3-40.1-29.5-52.7-29.9C86.7,17,82,25.6,77.7,33c-3.4,5.9-6.3,11-10.2,12.4
		c-6,2.2-11.4-2.4-15.7-6c-2.4-2-4.9-4.1-6.8-4.5c-1-0.2-2-0.5-2.9-0.7c-4-1-5.9-1.5-10.9,4.7l0,0.1c-26,32.5-27.1,42-25.4,44.8
		c2.3,3.8,18.2,3.1,29.8,2.6C40.5,86.2,45,86,49,86z"/>
	<rect x="118.1" y="72" transform="matrix(0.6612 -0.7502 0.7502 0.6612 -9.0696 126.9564)" class="st0" width="35.8" height="3"/>
</g>
</svg>
