<?xml version="1.0" encoding="utf-8"?>
<!-- Generator: Adobe Illustrator 28.0.0, SVG Export Plug-In . SVG Version: 6.00 Build 0)  -->
<svg version="1.1" id="Layer_1" xmlns="http://www.w3.org/2000/svg" xmlns:xlink="http://www.w3.org/1999/xlink" x="0px" y="0px"
	 viewBox="0 0 156 156" width="156px" height="156px"  style="enable-background:new 0 0 156 156;" xml:space="preserve">
<style type="text/css">
	.st0{fill:#FE0202;}
</style>
<path class="st0" d="M4.5,150c0-0.3,0-0.7,0-1c0-44,0-88,0-132c0-1.1,0.3-1.2,1.3-1.2c30.2,0,60.5,0,90.7,0c1,0,1.4,0.2,1.3,1.3
	c-0.1,0.9-0.1,1.8,0,2.7c0.1,0.7-0.2,0.9-0.9,0.9c-4.6,0-9.2,0-13.7,0c-24.3,0-48.7,0-73,0c-0.9,0-1.2,0.2-1.2,1.2c0,36,0,72,0,108
	c0,0.3,0,0.7,0,1c0.1,0,0.1,0,0.2,0.1c0.4-1.1,0.9-2.1,1.3-3.2c3.7-9,8.4-17.5,14.5-25.1c4.5-5.7,9.8-10.5,15.4-15
	c1.1-0.8,2.4-1.4,3.6-2.1c4.1-2.3,7.9-4.9,11.9-7.4c5-3.2,8.6-7.5,11.1-12.9c1.3-2.8,2-5.8,2-8.9c0-0.7,0-1.3,0-2.2
	c1.5,1.9,2.2,3.9,2.8,5.9c1.5,5.5,1.2,11.2,0.5,16.8c-0.2,1.4-0.3,2.8-0.6,4.1c-0.2,0.7,0,0.9,0.7,0.9c2.8,0.1,5.1-1.1,7.2-2.8
	c3.5-2.8,5.5-6.6,7-10.7c1.7-4.5,2.7-9.1,3.2-13.8c0.2-2,0.3-3.9-0.4-5.8c-0.2-0.5,0-0.5,0.4-0.6c1-0.2,1.8,0.2,2.5,0.7
	c1.7,1.3,2.8,3.2,3.8,5.1c2.9,5.6,4.6,11.6,6.2,17.7c0.3,1.1,0.6,2.2,0.9,3.4c1.7-0.8,3.1-1.9,4.4-3.2c2.7-2.8,4.7-6.1,6.3-9.6
	c1.5-3.3,2.7-6.6,3.5-10.2c0.2-1.2,0.1-2.3-0.2-3.4c-0.6-2.8-1.2-5.6-1.8-8.4c-0.1-0.3-0.1-0.6-0.3-1.1c-0.8,2-1.6,3.7-2.3,5.5
	c-0.3,0.7-0.3,1.6-1.7,1.1c0.1,0.1,0.1,0.2,0.2,0.3c1,0.2,2,0.5,3,0.7c0.7,0.1,0.8,0.5,0.7,1.1c-0.1,0.6-0.4,0.7-1,0.6
	c-3.1-0.7-6.3-1.4-9.4-2.1c-0.5-0.1-0.8-0.3-0.9-0.9c-0.4-1.7-0.8-3.5-1.4-5.2c-0.2-0.7,0.1-0.8,0.6-1c0.7-0.3,0.9,0.1,1,0.6
	c0.3,1.4,0.7,2.8,1,4.3c0.1,0.5,0.3,0.7,0.8,0.8c1.5,0.3,3,0.7,4.6,1c0.6,0.2,0.7-0.1,0.6-0.6c-0.2-1.3-0.3-2.7-0.4-4.1
	c-0.7,0.2-1.4,0.4-2.2,0.6c0.1-1.5,0.2-2.9,0.4-4.3c0.1-0.8-0.1-0.8-0.8-0.6c-2.1,0.8-4.1,1.5-6.2,2.3c-0.5,0.2-0.8,0.2-1.2-0.3
	c-0.3-0.5-0.3-0.8,0.1-1.2c0.8-0.8,1.4-1.6,2.2-2.4c0.9-1,0.8-1.4-0.4-1.9c-0.5-0.2-1-0.4-1.5-0.6c0.1-0.2,0.1-0.2,0.1-0.3
	c1.8-1.1,1.3-2.6,0.8-4.1c-0.1-0.4-0.4-0.6-0.8-0.8c-2.1-1.2-4.1-2.5-6.5-3.9c5.2-0.4,10.1-0.8,15.2-1.2c-1.2-1.1-2.3-2.1-3.3-3
	c0.1-0.1,0.1-0.2,0.2-0.3c1.7-0.3,3.4-0.6,5.2-0.9c2.4-0.4,2.4-0.4,2.3-2.8c-0.1-1.3-0.2-2.6-0.2-3.9c0-0.5-0.2-0.8-0.7-0.7
	c-0.6,0.1-0.8-0.2-0.7-0.7c0-0.5-0.1-1,0.7-0.9c0.7,0.1,0.7-0.3,0.7-0.8c-0.1-2.1-0.2-4.2-0.3-6.3c0-0.5,0.1-0.9,0.7-1
	c0.6-0.2,0.8,0.2,1,0.6c1.3,2.2,2.7,4.5,4,6.7c0.4,0.6,0.8,0.8,1.4,0.8c2.4,0,4.9,0,7.3,0c0.3,0,0.7-0.1,0.7,0.4
	c0,0.4,0.4,1-0.3,1.2c-0.5,0.1-0.3,0.4-0.2,0.6c0.5,1.7,1,3.4,1.5,5.1c0.1,0.5,0.3,0.6,0.8,0.4c1.3-0.4,2.6-0.8,4-1.3
	c-0.2,1.5-0.4,2.8-0.7,4.4c1.7-0.5,3.2-1,4.7-1.5c0.3-0.1,0.3-0.4,0.3-0.7c0.2-2.4,0.3-4.8,0.5-7.4c-1,0.3-1.8,0.6-2.7,0.9
	c-2,0.7-3.9,1.3-5.9,2c-1,0.4-1.1-0.4-1.3-0.9c-0.3-0.7,0.4-0.6,0.7-0.7c3.3-1.2,6.7-2.3,10-3.4c0.2-0.1,0.4-0.2,0.8-0.1
	c-0.1,3.1-0.3,6.3-0.4,9.7c1.8-0.5,3.5-1,5.2-1.5c0.6-0.2,0.9-0.3,1.3,0.4c0.4,0.7,0,0.9-0.4,1.2c-3.6,3.2-7.2,6.4-10.9,9.7
	c1.2,0.4,2.2,0.8,3.3,1.2c0.4,0.1,0.5-0.1,0.5-0.4c0-0.6,0.1-1.2,0.1-1.8c0-0.4,0-0.8,0.5-0.6c0.4,0.1,1.2-0.2,1.1,0.7
	c-0.1,0.5-0.1,1-0.2,1.5c-0.1,0.8-0.1,1.5,1,1.7c0.6,0.1,0.4,0.5,0.4,0.9c-0.1,0.4,0,0.9-0.6,0.8c-0.9-0.1-1.1,0.4-1.1,1.1
	c0,0.7-0.1,1.5-0.2,2.2c-0.1,0.4,0.1,0.6,0.4,0.9c1.2,1.1,2.3,2.4,3.6,3.4c0.4,0.3,0.3,0.5,0.1,0.9c-0.2,0.3-0.3,0.6-0.8,0.5
	c-1-0.3-2-0.5-3-0.8c-0.7-0.2-0.8,0-0.8,0.6c-0.2,1.9-0.3,3.9-0.5,5.8c-0.2,1.6,0.1,1.3-1.4,1.1c-5.5-0.8-11-1.7-16.5-2.7
	c-0.6-0.1-0.8,0-1,0.5c-0.6,1.6-1.3,3.2-2.1,5c0.2,0,0.3,0.1,0.4,0c1.3-0.3,2,0.5,2.7,1.5c4,5.9,6.3,12.4,7.5,19.4
	c0.9,5.4,1,10.9,0.6,16.4c-0.5,7.3-1.9,14.5-4.3,21.5c-3.9,11.1-10.6,19.9-20.6,26.2c-7.3,4.6-15.2,7.4-23.7,9.1
	c-0.4,0.1-0.8,0.2-1.2,0.4c0.3,0,0.7,0,1,0c16.1,0,32.2,0,48.3,0c0.9,0,1.1-0.2,1.1-1.1c0-30.7,0-61.4,0-92.1c0-1,0.2-1.3,1.2-1.2
	c1.2,0.1,2.5,0,3.8,0.1c0,0.4,0,0.7,0,1.1c0,32.4,0,64.8,0,97.2c0,1.6,0.2,1.3-1.3,1.3c-42.6,0-85.2,0-127.8,0
	C5.2,150,4.8,150,4.5,150z M38,129.9c3.3-9.5,6.7-18.9,11.7-27.7c-0.2,0-0.3,0-0.4,0.1c-9.8,6.4-19.7,12.7-29.3,19.4
	c-1.6,1.1-3.4,2.1-4.8,3.6c-2.1,2.2-4,4.5-6,6.8c-0.3,0.4-0.3,0.7-0.3,1.1c0,3.4,0,6.9,0,10.3c0,1,0.2,1.2,1.2,1.2
	c21.6,0,43.2,0,64.8,0c1.1,0,2.1-0.2,3-0.6c1.3-0.7,2.6-1.3,3.8-2.1c6.4-4,10.9-9.7,13.9-16.5c2.1-4.7,3.3-9.6,4.6-14.5
	c0.5-1.9,0.9-3.9,1.1-5.9c0-0.5,0.1-1.1-0.4-1.3c-0.6-0.2-0.9,0.2-1.2,0.6c-0.9,1.1-1.6,2.3-2.2,3.5c-1.3,2.8-3,5.1-5.3,7.1
	c-4.2,3.6-8.9,6.1-14,8c-3,1.1-6.2,1.8-9.5,1.3c-0.8-0.1-0.9-0.3-0.5-1c3.6-6.2,7.4-12.3,11.7-18.1c0.6-0.8,1.3-1.5,1.8-2.4
	c-0.4-0.2-0.8,0-1.1,0.1c-4.7,1.6-9.3,3.1-14.2,3.9c-5.3,0.8-9.7,3.3-13.6,6.9c-4.3,3.9-8.1,8.3-11.8,12.7
	C39.9,127.6,38.9,128.8,38,129.9z M118,46.6c1.3-3,2.6-5.8,3.8-8.6c0.7-1.7,0.7-1.7,2-0.4c0.4,0.4,0.7,0.9,1.3,1.2
	c-0.1-1.3-0.2-2.4-0.3-3.5c-0.1-0.9,0.1-1.1,1-0.8c4.8,1.4,9.7,2.7,14.6,4.1c0.2,0.1,0.5,0.2,0.8,0.1c-2.5-2.5-5-5.1-7.6-7.7
	c1.7-0.2,3.2-0.3,4.8-0.5c0-0.1,0-0.1,0-0.2c-1.9-0.7-3.8-1.5-5.8-2.3c3.7-3.2,7.2-6.3,10.8-9.4c0-0.1-0.1-0.1-0.1-0.2
	c-3.8,1.1-7.6,2.3-11.6,3.5c0.2-1.5,0.5-2.9,0.7-4.3c-1,0.3-1.8,0.4-2.6,0.8c-1,0.4-1.3,0.1-1.6-0.9c-0.4-1.5-1-3-1.5-4.7
	c-1,2.3-1.9,4.3-2.9,6.6c-3-5.1-5.9-10.1-8.8-15c0.1,4.5,0.2,9,0.5,13.4c0.1,0.9-0.2,1.1-1,1.3c-1.7,0.3-3.4,0.6-5.3,0.9
	c1.1,1.2,2.2,2.4,3.3,3.6c-4.5,0.3-8.8,0.7-13.4,1c2.3,1.4,4.2,2.7,6.3,3.8c0.8,0.4,0.7,0.8,0.1,1.3c-0.8,0.7-1.6,1.4-2.5,2.2
	c0.9,0.4,1.6,0.7,2.2,1c0.6,0.2,0.7,0.4,0.2,1c-0.8,0.9-1.5,1.9-2.3,2.8c0.5,0.1,0.8-0.1,1.2-0.2c1.6-0.5,3.2-1.1,4.8-1.7
	c0.6-0.2,1.2-0.3,1.1,0.7c-0.2,1.3-0.3,2.7-0.4,4.1c0.3-0.1,0.6-0.1,0.8-0.2c0.7-0.3,1-0.2,1,0.7c0.1,0.7,0,1.4,0.4,2.2
	c1.1-2.6,2.2-5.1,3.3-7.8C116.3,38.6,117.1,42.5,118,46.6z M126.9,42.6c-0.1,0-0.1,0.1-0.2,0.1c-0.8-0.9-1.7-1.8-2.5-2.6
	c-0.2-0.2-0.5-0.4-0.7-0.7c-0.4-0.5-0.7-0.3-0.9,0.2c-0.4,1-0.8,1.9-1.2,2.9c-0.3,0.5-0.1,0.7,0.4,0.8c5,0.8,10,1.6,15,2.5
	c0.6,0.1,0.7-0.1,0.7-0.6c0.1-1,0.2-2,0.3-2.9c0.1-0.8,0.5-1.9,0.1-2.5c-0.4-0.7-1.5-0.6-2.4-0.8c-3-0.9-6.1-1.7-9.3-2.5
	C126.5,38.5,126.7,40.5,126.9,42.6z M120.4,10.9c1.1,1.8,2.1,3.6,3.2,5.5c0.9-2,1.7-3.7,2.5-5.5C124.1,10.9,122.3,10.9,120.4,10.9z
	 M138.5,34.1c0.3-2.3,0.3-2.3-1.4-1.8C137.5,32.7,137.9,33.3,138.5,34.1z"/>
<path class="st0" d="M101.4,14.6c0-1.8,0-3.7,0-5.5c0-0.5,0-0.7,0.6-0.8c3.3-0.5,6.7-1,10-1.6c1-0.2,0.7,0.6,0.8,1
	c0.2,0.6-0.2,0.5-0.6,0.6c-2.7,0.4-5.3,0.9-8,1.2c-0.9,0.1-1.1,0.4-1.1,1.3c0.2,3,0.3,6.1,0.5,9.1c0,0.7-0.1,0.9-0.8,1
	c-0.8,0-0.9-0.3-0.9-0.9c0-1.8,0-3.7,0-5.5C101.7,14.6,101.6,14.6,101.4,14.6z"/>
<path class="st0" d="M37.8,130.1C37.8,130.1,37.8,130.2,37.8,130.1c-0.1,0.1-0.1,0-0.1,0C37.7,130.1,37.7,130,37.8,130.1
	C37.8,130,37.8,130.1,37.8,130.1z"/>
</svg>
