<?xml version="1.0" encoding="utf-8"?>
<!-- Generator: Adobe Illustrator 28.0.0, SVG Export Plug-In . SVG Version: 6.00 Build 0)  -->
<svg version="1.1" id="Layer_1" xmlns="http://www.w3.org/2000/svg" xmlns:xlink="http://www.w3.org/1999/xlink" x="0px" y="0px"
	 viewBox="0 0 156 156" style="enable-background:new 0 0 156 156;" xml:space="preserve">
<style type="text/css">
	.st0{fill-rule:evenodd;clip-rule:evenodd;fill:#FFFFFF;}
	.st1{fill:#FF0000;}
	.st2{fill:none;}
</style>
<g>
	<polygon class="st0" points="0,12.35 156,12.35 156,143.65 0,143.65 	"/>
	<polygon class="st0" points="1.1,13.22 152.56,13.22 152.56,140.71 1.1,140.71 	"/>
	
		<rect x="-3.7" y="51.08" transform="matrix(0.6635 -0.7481 0.7481 0.6635 -31.2596 35.6626)" class="st1" width="55.45" height="3"/>
	
		<rect x="-1.35" y="62.02" transform="matrix(0.6612 -0.7502 0.7502 0.6612 -36.7344 45.7033)" class="st1" width="67.18" height="3.01"/>
	
		<rect x="13.49" y="51.07" transform="matrix(0.6617 -0.7497 0.7497 0.6617 -18.402 64.3538)" class="st1" width="97.24" height="3"/>
	
		<rect x="32.46" y="52.45" transform="matrix(0.6594 -0.7518 0.7518 0.6594 -13.726 77.618)" class="st1" width="92.68" height="3"/>
	
		<rect x="47.72" y="58.47" transform="matrix(0.6617 -0.7497 0.7497 0.6617 -13.7356 89.5062)" class="st1" width="89.22" height="3"/>
	
		<rect x="37.41" y="75.44" transform="matrix(0.6617 -0.7497 0.7497 0.6617 -25.6152 97.1147)" class="st1" width="114.81" height="3"/>
	
		<rect x="43.78" y="86.37" transform="matrix(0.6617 -0.7497 0.7497 0.6617 -30.3741 108.428)" class="st1" width="122.38" height="3"/>
	
		<rect x="71.54" y="119.61" transform="matrix(0.662 -0.7495 0.7495 0.662 -59.1012 111.1641)" class="st1" width="44.32" height="3"/>
	
		<rect x="90.56" y="127.34" transform="matrix(0.6612 -0.7502 0.7502 0.6612 -61.9929 120.4189)" class="st1" width="23.53" height="3.01"/>
	<path class="st1" d="M88.9,140.44c-8.47,0-17.18-1.48-21.43-3.07c-10.02-3.76-11.78-15.32-12.73-21.53
		c-0.56-3.7,1.62-8.01,3.72-12.18c3.51-6.96,4.81-10.44,1.54-12.35c-3.35-1.94-14.42-1.43-24.18-0.98
		c-15.35,0.72-29.85,1.39-33.39-4.46C-1.6,79.19,6.56,63.52,28.1,36.58l0.04-0.06c6.27-7.83,9.76-7.41,14.93-6.08
		c0.81,0.21,1.67,0.44,2.63,0.61c2.9,0.56,5.64,2.88,8.54,5.34c3.91,3.31,7.95,6.72,11.81,5.33c2.6-0.93,5.44-5.88,8.17-10.65
		c4.76-8.29,10.14-17.68,19.14-17.68c0.14,0,0.28,0,0.42,0.01c14.79,0.47,47.85,22,55.58,31.29c6.84,8.22,0.77,16.75-3.67,22.98
		c-1.33,1.87-2.59,3.64-3.23,5.02c-2.84,6.21-4.88,7.89-9.35,11.56l-1.1,0.9c-2.1,1.73-5,2.97-8.08,4.28
		c-5.17,2.2-10.52,4.48-12.79,9.21c-1.57,3.27-0.97,9.55-0.4,15.64c0.81,8.53,1.64,17.35-2.93,21.49
		C104.04,139.22,96.57,140.44,88.9,140.44z M48.99,85.97c5.79,0,10.42,0.45,13,1.94c6.84,3.97,3.05,11.49,0,17.52
		c-1.83,3.62-3.72,7.36-3.34,9.81c1.14,7.5,2.97,15.72,10.23,18.44c8.26,3.1,30.28,4.68,36.34-0.81c3.11-2.81,2.33-10.99,1.65-18.21
		c-0.66-6.92-1.27-13.46,0.77-17.71c2.91-6.08,9.22-8.75,14.8-11.13c2.8-1.2,5.45-2.32,7.11-3.69l1.1-0.92
		c4.33-3.57,5.8-4.77,8.27-10.17c0.79-1.73,2.15-3.64,3.6-5.67c4.97-6.96,8.4-12.72,3.85-18.18c-7.77-9.33-40.12-29.47-52.68-29.86
		c-6.95-0.38-11.73,8.23-16.02,15.69c-3.38,5.88-6.3,10.96-10.25,12.39c-6,2.16-11.37-2.37-15.68-6.03
		c-2.39-2.02-4.87-4.12-6.75-4.48c-1.04-0.2-1.99-0.45-2.86-0.67c-4.04-1.04-5.88-1.52-10.87,4.72l-0.04,0.06
		C5.18,71.54,4.12,81.06,5.8,83.84c2.31,3.84,18.22,3.1,29.84,2.56C40.45,86.18,45,85.97,48.99,85.97z"/>
	
		<rect x="118.12" y="72.02" transform="matrix(0.6612 -0.7502 0.7502 0.6612 -9.0739 126.9618)" class="st1" width="35.83" height="3"/>
	<polygon class="st2" points="0.41,143.24 155.59,143.24 155.59,12.76 0.41,12.76 	"/>
</g>
</svg>
