<?xml version="1.0" encoding="utf-8"?>
<!-- Generator: Adobe Illustrator 28.0.0, SVG Export Plug-In . SVG Version: 6.00 Build 0)  -->
<svg version="1.1" id="Layer_1" xmlns="http://www.w3.org/2000/svg" xmlns:xlink="http://www.w3.org/1999/xlink" x="0px" y="0px"
	 viewBox="0 0 156 156" width="156px" height="156px"  style="enable-background:new 0 0 156 156;" xml:space="preserve">
<style type="text/css">
	.st0{fill:#FF0000;enable-background:new    ;}
</style>
<g>
	<path class="st0" d="M0,156C0,104,0,52,0,0c0.2,0,0.4,0,0.6,0c51.6,0,103.2,0,154.8,0c0.6,0,0.6,0,0.6,0.6c0,51.6,0,103.2,0,154.8
		c0,0.6,0,0.6-0.6,0.6c-51.6,0-103.2,0-154.8,0C0.4,156,0.2,156,0,156z M89.5,149.7C89.5,149.7,89.5,149.7,89.5,149.7
		c0.2,0.1,0.3,0.1,0.5,0.1c18.4,0,36.8,0,55.3,0c1.5,0,2.9,0,4.4,0c0.3,0,0.4-0.1,0.4-0.4c0-0.1,0-0.2,0-0.2c0-47.7,0-95.4,0-143.1
		c0-0.6,0-0.6-0.6-0.6c-47.6,0-95.3,0-142.9,0c-0.7,0-0.7,0-0.7,0.7c0,42.5,0,85,0,127.6c0,0.1,0,0.1,0,0.2c0,0.1,0,0.2,0.1,0.3
		c0.1-0.1,0.1-0.2,0.1-0.3c0.7-1.9,1.5-3.8,2.4-5.7c2-4.6,4.3-9.2,6.9-13.5c2-3.3,4.1-6.5,6.3-9.7c1.7-2.4,3.7-4.7,5.7-6.9
		c0.8-0.9,1.6-1.8,2.4-2.7c2.9-3,5.8-5.9,9.1-8.5c1.9-1.5,3.7-3.2,5.9-4.3c1.3-0.6,2.5-1.4,3.7-2.1c1-0.6,1.9-1.1,2.9-1.7
		c2.6-1.6,5.1-3.1,7.6-4.7c2.3-1.5,4.7-2.9,6.8-4.7c3.1-2.8,5.9-6,7.9-9.7c1-1.8,1.9-3.7,2.5-5.8c0.4-1.4,0.7-2.7,0.9-4.1
		c0.3-1.6,0.1-3.2,0.2-4.7c0-0.1,0-0.3,0-0.4c0.7,0.8,1.2,1.8,1.7,2.8c0.6,1.2,1.1,2.5,1.5,3.8c0.4,1.4,0.6,2.8,0.9,4.3
		c0.3,1.7,0.4,3.5,0.4,5.2c0.1,2.3-0.1,4.7-0.3,7c-0.1,1.7-0.4,3.4-0.5,5.1c-0.1,1.1-0.5,2.2-0.6,3.4c0,0.3,0,0.4,0.3,0.4
		c1,0.2,2.1,0.2,3.1-0.1c1.7-0.4,3.3-1.1,4.9-2c1.3-0.7,2.4-1.7,3.4-2.7c1.7-1.8,3.1-3.8,4.2-5.9c1.5-2.8,2.6-5.7,3.5-8.6
		c0.9-2.9,1.5-5.9,2-8.9c0.3-2.1,0.6-4.2,0.6-6.4c0-1.3-0.2-2.6-0.7-3.9c-0.1-0.2,0-0.3,0.2-0.4c0.4-0.1,0.9-0.2,1.4-0.1
		c0.7,0.1,1.3,0.4,1.8,0.8c1.5,1.1,2.6,2.7,3.6,4.2c0.7,1,1.1,2.1,1.7,3.1c0.6,1.1,1.1,2.2,1.5,3.4c1,2.7,2.1,5.4,2.9,8.2
		c0.6,1.9,1.3,3.8,1.7,5.8c0.4,1.7,1,3.4,1.3,5.2c0,0.2,0.1,0.6,0.2,0.7c0.2,0.1,0.4-0.2,0.6-0.3c1.5-0.7,2.8-1.8,4-2.9
		c1.5-1.4,2.8-2.9,3.9-4.6c1-1.4,1.9-2.9,2.8-4.4c0.7-1.2,1.3-2.6,1.9-3.9c0.6-1.2,1.1-2.4,1.6-3.7c0.5-1.3,1-2.7,1.3-4.1
		c0.2-1.1,0.6-2.2,0.8-3.4c0.2-1,0.2-1.9,0.3-2.9c0.1-0.5,0.1-1,0.1-1.5c0.4,0.3,0.7,0.5,1,0.8c0.6,0.6,1.2,1.3,1.8,1.9
		c1.2,1.3,2.2,2.8,3.1,4.3c1.3,2.2,2.4,4.4,3.5,6.8c0.9,2,1.5,4.2,2.3,6.3c0.3,0.8,0.5,1.7,0.7,2.6c0.5,2.5,1,5,1.4,7.6
		c0.3,2.3,0.4,4.6,0.5,6.9c0.1,1.5,0,3,0,4.6c0,0.4,0,0.7,0,1.1c-0.2,1.3-0.1,2.6-0.2,3.9c-0.1,1.4-0.3,2.8-0.4,4.2
		c0,1-0.3,2.1-0.4,3.1c-0.4,2.5-0.8,4.9-1.4,7.4c-0.1,0.5-0.3,1-0.5,1.5c-0.6,2.4-1.3,4.9-2.1,7.2c-1.2,3.4-2.5,6.6-4.2,9.7
		c-1.6,2.8-3.2,5.6-5.3,8.1c-1.8,2.1-3.5,4.3-5.5,6.1c-1.7,1.6-3.3,3.1-5.2,4.5c-2.1,1.5-4.2,2.9-6.4,4.1c-2.1,1.2-4.3,2.3-6.6,3.3
		c-6.1,2.7-12.5,4.7-19.1,6C91.3,149.3,90.4,149.5,89.5,149.7z M93.5,100C93.4,100,93.4,100,93.5,100c-0.3,0.2-0.5,0.4-0.7,0.6
		c-0.1,0.1-0.2,0.2-0.4,0.3c-1.5,0.5-2.9,1-4.4,1.4c-3.9,1.1-7.8,2.3-11.8,3.1c-1.6,0.3-3.3,0.8-4.9,1c-1.8,0.3-3.5,0.9-5.1,1.7
		c-1.3,0.7-2.5,1.5-3.7,2.3c-2.3,1.5-4.4,3.4-6.4,5.2c-2.1,2-4.1,4.1-6.1,6.2c-3.3,3.6-6.5,7.3-9.6,11.2c0,0.1-0.1,0.2-0.2,0.1
		c0-0.1,0.1-0.2,0.1-0.4c1.8-4.6,3.6-9.1,5.4-13.6c0.9-2.2,1.6-4.4,2.7-6.4c2-4,4.1-7.9,6.2-11.8c0.1-0.2,0.2-0.5,0.4-0.7
		c-0.2,0-0.3,0.1-0.3,0.1c-5.5,3.3-10.8,6.9-16.2,10.2c-3,1.9-6,3.9-9.1,5.8c-1.9,1.2-3.8,2.3-5.7,3.6c-2.1,1.4-4.2,2.7-6.1,4.3
		c-0.1,0.1-0.2,0.3-0.4,0.3c-0.9,0.1-1.6,0.8-2.3,1.4c-0.6,0.5-1.1,1-1.7,1.5c-0.4,0.4-0.8,0.7-1.1,1.1c-2,2.2-3.9,4.4-5.9,6.6
		c-0.2,0.2-0.3,0.4-0.3,0.7c0,4.4,0,8.8,0,13.2c0,0.5,0,0.5,0.5,0.5c26.4,0,52.9,0,79.3,0c0.2,0,0.3,0,0.5,0c0.9-0.2,1.8-0.6,2.6-1
		c1-0.5,1.9-1,2.9-1.5c1-0.5,2-1.1,2.9-1.8c1.3-1,2.6-2,3.9-3c1.7-1.5,3.3-3.2,4.8-4.9c1-1.1,1.7-2.4,2.5-3.6c1.2-1.7,2.1-3.4,3-5.3
		c1.1-2.2,2-4.5,2.8-6.9c0.8-2.6,1.6-5.1,2.3-7.7c0.7-2.4,1.3-4.9,1.8-7.4c0.2-1.2,0.5-2.4,0.4-3.6c-0.1-0.7-0.3-1-0.9-0.8
		c-0.3,0.1-0.7,0.2-0.8,0.5c-0.3,0.5-0.8,0.9-1.1,1.5c-0.6,1-1.3,2-1.8,3.1c-0.5,0.9-1,1.9-1.5,2.8c-0.6,0.9-1.2,1.8-2,2.6
		c-1.1,1.2-2.3,2.4-3.5,3.4c-1.5,1.2-3.1,2.4-4.8,3.3c-2.3,1.3-4.6,2.6-7,3.7c-1.6,0.7-3.2,1.4-4.9,1.9c-1.4,0.4-2.7,0.8-4.1,1.1
		c-0.8,0.1-1.6,0.3-2.5,0.3c-1.6,0.1-3.3,0.1-4.9-0.2c-0.3,0-0.2-0.1-0.1-0.3c0.2-0.4,0.5-0.8,0.7-1.2c1.3-2.2,2.6-4.4,4-6.5
		c2.4-3.8,4.8-7.6,7.5-11.2c1.6-2.1,3.3-4.1,4.9-6.3C93.2,100.4,93.4,100.2,93.5,100z"/>
</g>
</svg>
