<?xml version="1.0" encoding="utf-8"?>
<!-- Generator: Adobe Illustrator 28.0.0, SVG Export Plug-In . SVG Version: 6.00 Build 0)  -->
<svg version="1.1" id="Layer_1" xmlns="http://www.w3.org/2000/svg" xmlns:xlink="http://www.w3.org/1999/xlink" x="0px" y="0px"
	 viewBox="0 0 156 156" style="enable-background:new 0 0 156 156;" xml:space="preserve">
<style type="text/css">
	.st0{fill:#FF0000;}
	.st1{fill:none;stroke:#FF0000;stroke-width:0.2977;stroke-miterlimit:10;}
</style>
<g id="MasterSlide_1_Standard">
	<g id="Drawing_1">
		<path class="st0" d="M91.47,0L80.46,12.21l-3.72,4.32l-1.19,1.94L74.2,20.1l-0.89,1.64l-0.74,1.94l-0.6,1.64l-0.6,1.79l-0.89,4.17
			l-0.89,4.91l-0.3,3.57v3.57l0.15,3.27l0.6,3.13l1.04,2.83l1.04,2.98l3.13,5.66l3.87,5.06l4.47,5.06l9.82,9.38l9.82,9.53l4.32,4.91
			l3.72,5.21l3.13,5.51l1.19,2.98l0.74,2.98l0.6,2.98l0.3,3.27v3.72l-0.45,3.57l-0.74,2.98l-1.04,2.98l-1.34,2.83l-1.79,2.68
			l-2.08,2.53l-2.23,2.38l-2.83,2.38l-3.13,1.94l-3.57,2.08l-3.57,1.79l-4.17,1.49l-4.47,1.34l-4.76,1.19l-5.21,0.89L64.53,156
			l11.31-12.06l3.42-4.47l1.49-1.94l1.19-1.64l1.04-1.64l0.74-1.79l0.6-1.64l0.45-1.94l0.89-4.02l0.74-5.06l0.6-3.57v-3.42
			l-0.45-3.27l-0.6-3.13l-0.74-3.13l-1.34-2.83l-2.98-5.51l-3.87-5.21l-4.32-5.06l-9.82-9.38l-9.82-9.53l-4.32-4.76l-3.87-5.21
			l-2.98-5.51l-1.34-2.98l-0.89-2.98l-0.6-3.27l-0.3-3.27v-3.57l0.6-3.42l0.6-3.13l1.04-2.83l1.49-2.83l1.79-2.83l1.94-2.53
			l2.53-2.23l2.83-2.53l2.98-1.94l3.42-1.94l3.87-1.79l4.17-1.49l4.47-1.49l4.76-1.19l5.06-0.89L91.47,0z"/>
		<path class="st1" d="M91.47,0L80.46,12.21l-3.72,4.32l-1.19,1.94L74.2,20.1l-0.89,1.64l-0.74,1.94l-0.6,1.64l-0.6,1.79l-0.89,4.17
			l-0.89,4.91l-0.3,3.57v3.57l0.15,3.27l0.6,3.13l1.04,2.83l1.04,2.98l3.13,5.66l3.87,5.06l4.47,5.06l9.82,9.38l9.82,9.53l4.32,4.91
			l3.72,5.21l3.13,5.51l1.19,2.98l0.74,2.98l0.6,2.98l0.3,3.27v3.72l-0.45,3.57l-0.74,2.98l-1.04,2.98l-1.34,2.83l-1.79,2.68
			l-2.08,2.53l-2.23,2.38l-2.83,2.38l-3.13,1.94l-3.57,2.08l-3.57,1.79l-4.17,1.49l-4.47,1.34l-4.76,1.19l-5.21,0.89L64.53,156
			l11.31-12.06l3.42-4.47l1.49-1.94l1.19-1.64l1.04-1.64l0.74-1.79l0.6-1.64l0.45-1.94l0.89-4.02l0.74-5.06l0.6-3.57v-3.42
			l-0.45-3.27l-0.6-3.13l-0.74-3.13l-1.34-2.83l-2.98-5.51l-3.87-5.21l-4.32-5.06l-9.82-9.38l-9.82-9.53l-4.32-4.76l-3.87-5.21
			l-2.98-5.51l-1.34-2.98l-0.89-2.98l-0.6-3.27l-0.3-3.27v-3.57l0.6-3.42l0.6-3.13l1.04-2.83l1.49-2.83l1.79-2.83l1.94-2.53
			l2.53-2.23l2.83-2.53l2.98-1.94l3.42-1.94l3.87-1.79l4.17-1.49l4.47-1.49l4.76-1.19l5.06-0.89L91.47,0z"/>
	</g>
</g>
</svg>
