<?xml version="1.0" encoding="utf-8"?>
<!-- Generator: Adobe Illustrator 28.0.0, SVG Export Plug-In . SVG Version: 6.00 Build 0)  -->
<svg version="1.1" id="Layer_1" xmlns="http://www.w3.org/2000/svg" xmlns:xlink="http://www.w3.org/1999/xlink" x="0px" y="0px"
	 viewBox="0 0 156 156" width="156px" height="156px"  style="enable-background:new 0 0 156 156;" xml:space="preserve">
<style type="text/css">
	.st0{enable-background:new    ;}
	.st1{font-family:'MyriadPro-Regular';}
	.st2{font-size:11.095px;}
	.st3{fill-rule:evenodd;clip-rule:evenodd;fill:#FFFF66;}
	.st4{fill:#FFFF66;}
	.st5{font-size:33.2849px;}
	.st6{fill-rule:evenodd;clip-rule:evenodd;}
</style>
<g>
	<path d="M72.2,135.8c-0.1,0-0.2,0-0.3,0l-8.7-1.8c-1.3-0.3-2.5-0.7-3.7-1.2c-0.5-0.2-1.1-0.4-1.7-0.6l-20.8-7.1
		c-1.6-0.5-2.8-1.5-4-2.5c-0.5-0.4-1-0.8-1.6-1.2L16,110.8c-2.6-1.8-4-4.6-5.4-7.4c-0.6-1.3-1.2-2.5-2-3.7c-1.6-2.4-2.2-5.2-2.8-7.9
		c-0.2-1-0.5-2.1-0.8-3.1C3.2,82.3,2.9,79,2.3,73.6c-0.2-1.8-0.4-3.8-0.7-6.3c0-0.2,0-0.4,0.1-0.6L5.1,56c0.5-1.6,1.5-2.8,2.4-4
		c0.4-0.5,0.8-1.1,1.2-1.6l10.4-15.9c0.1-0.2,0.2-0.3,0.4-0.4l10.4-7.1c1.2-0.8,2.6-1.2,3.9-1.5c0.5-0.1,1.1-0.3,1.7-0.5
		c1.1-0.4,2.3-0.8,3.4-1.2c2.3-0.9,4.7-1.7,7.1-2.4c8.6-2.2,24.7-3.4,29.7-3.6l0,0l0.7,0c3-0.1,3.3-0.2,4.2,0.4
		c0.4,0.2,1.1,0.7,4.2,1.5c5.1,1.3,7.9,2,9.7,2.4c3,0.7,3.1,0.8,6.9,2l2.6,0.9c1.4,0.5,2.7,0.9,3.9,1.3c6.5,2.1,11.6,3.7,17.4,9.7
		c1,1,1.2,2.4,1.3,3.5c0.1,0.8,0.2,1.5,0.5,1.9c1.4,1.8,2.3,2.7,2.9,3.3c0.2-0.3,0.6-0.6,0.9-0.6c0.8-0.1,1.5,0.6,1.7,1.3
		c0.1,0.5,0.5,1.8,1.4,4.7l4.5,1.5c3.5,1.2,4.9,4.8,6.3,8c0.5,1.2,0.9,2.3,1.5,3.3c0.8,1.4,1.2,2.9,1.5,4.4c0.1,0.4,0.2,0.8,0.3,1.2
		c2.2,7.9,2.4,10.5,2.8,16.7c0.2,2.5,0.4,5.7,0.8,10.2c0,0.2,0,0.4-0.1,0.6l-1.7,5.3c-0.5,1.6-1.5,2.8-2.4,4
		c-0.4,0.5-0.8,1.1-1.2,1.6l-6.9,10.6c-0.1,0.2-0.2,0.3-0.4,0.4l-5.2,3.5c-2.4,1.6-5.1,2.3-7.8,2.9c-1,0.2-2,0.5-3,0.8
		c-4.1,1.2-8.8,2.2-13,3l-2.7,0.6c-1.1,0.2-2.1,0.6-3.2,1.1c-0.6,0.2-1.2,0.5-1.8,0.7c-1.1,0.4-2.2,0.8-3.4,1.3
		c-2.3,0.9-4.7,1.9-7.2,2.3c-4.3,0.8-8.6,1.1-12.8,1.3c-2.1,0.1-4.2,0.3-6.3,0.5C72.3,135.8,72.3,135.8,72.2,135.8z M4.5,67.2
		c0.3,2.3,0.5,4.3,0.7,6c0.6,5.5,0.9,8.5,2.7,14.7c0.3,1.1,0.6,2.2,0.8,3.2c0.6,2.6,1.2,5,2.5,7c0.8,1.2,1.5,2.6,2.1,4
		c1.2,2.5,2.4,4.9,4.4,6.3L33.2,119c0.6,0.4,1.2,0.9,1.8,1.4c1,0.8,2,1.6,3.1,2l20.8,7.1c0.6,0.2,1.2,0.4,1.8,0.7
		c1.1,0.4,2.2,0.8,3.2,1.1l8.4,1.7c2.1-0.2,4.1-0.3,6.2-0.4c4.1-0.3,8.4-0.5,12.5-1.3c2.2-0.4,4.4-1.3,6.7-2.2
		c1.2-0.5,2.3-0.9,3.5-1.3c0.6-0.2,1.1-0.4,1.7-0.6c1.2-0.5,2.4-0.9,3.7-1.2l2.7-0.6c4.3-0.9,8.8-1.8,12.7-3c1-0.3,2.1-0.6,3.2-0.8
		c2.5-0.6,4.9-1.2,6.8-2.5l4.9-3.4l6.8-10.4c0.4-0.6,0.9-1.2,1.3-1.8c0.8-1.1,1.6-2.1,2-3.2l1.6-5c-0.4-4.3-0.6-7.4-0.7-9.9
		c-0.4-6.2-0.5-8.4-2.7-16.1c-0.1-0.4-0.2-0.8-0.3-1.3c-0.4-1.4-0.7-2.6-1.3-3.7c-0.6-1.1-1.1-2.3-1.6-3.5c-1.2-2.9-2.3-5.6-4.5-6.4
		l-5.2-1.8c-0.4-0.1-0.8-0.5-0.9-0.9c-0.5-1.5-0.8-2.6-1.1-3.4c-1.3-0.1-2.9-1.6-5.6-5c-0.8-1-0.9-2.2-1.1-3.3
		c-0.1-0.8-0.2-1.6-0.5-1.9c-5.4-5.5-9.9-7-16.3-9c-1.2-0.4-2.6-0.8-3.9-1.3l-2.6-0.9c-3.7-1.3-3.7-1.3-6.6-2
		c-1.7-0.4-4.5-1.1-9.7-2.4c-3.2-0.8-4.3-1.4-5-1.8c-0.2-0.1-1.2,0-2.6,0l-0.7,0c-7.3,0.3-21.7,1.6-29.1,3.5
		c-2.3,0.6-4.6,1.4-6.8,2.3c-1.2,0.4-2.3,0.9-3.5,1.2c-0.6,0.2-1.3,0.4-1.9,0.5c-1.1,0.3-2.2,0.5-3,1.1l-10.1,6.9L11.1,51.9
		c-0.4,0.6-0.9,1.2-1.3,1.8c-0.8,1-1.6,2-2,3.2L4.5,67.2z"/>
	<rect x="-4.8" y="44.3" transform="matrix(0.6343 -0.7731 0.7731 0.6343 -27.5565 31.2875)" width="48.1" height="0.9"/>
	<rect x="-8.1" y="47.1" transform="matrix(0.6435 -0.7655 0.7655 0.6435 -27.5634 35.8324)" width="65.6" height="0.9"/>
	<rect x="-9.9" y="50.8" transform="matrix(0.6397 -0.7686 0.7686 0.6397 -28.4021 41.9176)" width="80.8" height="0.9"/>
	<polygon points="6.8,89.2 6.1,88.6 63.9,19.2 64.6,19.8 	"/>
	<rect x="-5" y="64.6" transform="matrix(0.6397 -0.7686 0.7686 0.6397 -31.4897 62.8547)" width="112.5" height="0.9"/>
	<rect x="-0.2" y="67" transform="matrix(0.6409 -0.7676 0.7676 0.6409 -31.1788 68.1494)" width="114.9" height="0.9"/>
	<rect x="-9.7" y="56.9" transform="matrix(0.6409 -0.7676 0.7676 0.6409 -29.4026 51.8117)" width="100.7" height="0.9"/>
	<rect x="-7.5" y="60.5" transform="matrix(0.6409 -0.7676 0.7676 0.6409 -30.1847 57.3678)" width="107.4" height="0.9"/>
	<rect x="4.6" y="70.1" transform="matrix(0.6409 -0.7676 0.7676 0.6409 -31.3058 74.0948)" width="117.8" height="0.9"/>
	<rect x="9.4" y="73" transform="matrix(0.6409 -0.7676 0.7676 0.6409 -31.4996 79.5008)" width="119.6" height="0.9"/>
	<rect x="14.4" y="76.1" transform="matrix(0.6397 -0.7686 0.7686 0.6397 -31.829 85.1989)" width="121.2" height="0.9"/>
	<rect x="20.5" y="78.7" transform="matrix(0.6409 -0.7676 0.7676 0.6409 -31.8352 90.1639)" width="120" height="0.9"/>
	<rect x="26.2" y="81.5" transform="matrix(0.6409 -0.7676 0.7676 0.6409 -32.0588 95.3373)" width="119.4" height="0.9"/>
	<rect x="34.6" y="86" transform="matrix(0.6409 -0.7676 0.7676 0.6409 -33.8446 100.6192)" width="112.1" height="0.9"/>
	<rect x="41.1" y="89.6" transform="matrix(0.6409 -0.7676 0.7676 0.6409 -34.562 106.1219)" width="110.1" height="0.9"/>
	<rect x="48.5" y="92.5" transform="matrix(0.6409 -0.7676 0.7676 0.6409 -34.851 111.3253)" width="106.2" height="0.9"/>
	<rect x="57" y="94.3" transform="matrix(0.6421 -0.7666 0.7666 0.6421 -33.8857 116.8759)" width="102.4" height="0.9"/>
	<rect x="68.2" y="97.3" transform="matrix(0.6421 -0.7666 0.7666 0.6421 -33.9771 122.6425)" width="92.4" height="0.9"/>
	<rect x="79.1" y="100" transform="matrix(0.6383 -0.7698 0.7698 0.6383 -33.8083 128.8636)" width="82.2" height="0.9"/>
	<rect x="93.9" y="101.5" transform="matrix(0.6421 -0.7666 0.7666 0.6421 -32.6996 133.8406)" width="66.2" height="0.9"/>
	<polygon points="115.7,125.8 115,125.2 148.6,84.7 149.2,85.3 	"/>
	<polygon points="125.6,123.7 125,123.2 149.1,94 149.8,94.6 	"/>
	<g class="st0">
		<text transform="matrix(1.001 0 0 1 29.5132 79.0908)" class="st1 st2">C</text>
	</g>
	<g class="st0">
		<text transform="matrix(1.001 0 0 1 37.5107 79.0908)" class="st1 st2">M</text>
	</g>
	<g class="st0">
		<text transform="matrix(1.001 0 0 1 46.6191 79.0908)" class="st1 st2">L</text>
	</g>
	<path class="st3" d="M55.5,88.4c0-11.6,9.4-21,21-21l0,0l0,0c11.6,0,21,9.4,21,21l0,0l0,0c0,11.6-9.4,21-21,21l0,0l0,0
		C64.9,109.4,55.5,100,55.5,88.4L55.5,88.4L55.5,88.4z"/>
	<path d="M76.6,110.5c-12.2,0-22.1-9.9-22.1-22.1s9.9-22.1,22.1-22.1c12.2,0,22.1,9.9,22.1,22.1S88.7,110.5,76.6,110.5z M76.6,68.6
		c-11,0-19.9,8.9-19.9,19.9s8.9,19.9,19.9,19.9s19.9-8.9,19.9-19.9S87.5,68.6,76.6,68.6z"/>
	<polygon class="st3" points="64.7,39.7 86.9,39.7 86.9,71.2 64.7,71.2 	"/>
	<polygon class="st3" points="66.7,61.9 86.4,61.9 86.4,78.1 66.7,78.1 	"/>
	<path class="st4" d="M86.4,79H66.7c-0.5,0-0.9-0.4-0.9-0.9V61.9c0-0.5,0.4-0.9,0.9-0.9h19.8c0.5,0,0.9,0.4,0.9,0.9v16.2
		C87.3,78.6,86.9,79,86.4,79z M67.6,77.2h18V62.8h-18V77.2z"/>
	<text transform="matrix(1.001 0 0 1 67.2998 97.1611)" class="st1 st5">c</text>
	<polygon class="st6" points="64.7,38.4 88.2,38.4 88.2,71.9 64.7,71.9 	"/>
</g>
</svg>
