<?xml version="1.0" encoding="utf-8"?>
<!-- Generator: Adobe Illustrator 28.0.0, SVG Export Plug-In . SVG Version: 6.00 Build 0)  -->
<svg version="1.1" id="Layer_1" xmlns="http://www.w3.org/2000/svg" xmlns:xlink="http://www.w3.org/1999/xlink" x="0px" y="0px"
	 viewBox="0 0 156 156" style="enable-background:new 0 0 156 156;" xml:space="preserve">
<style type="text/css">
	.st0{enable-background:new    ;}
	.st1{font-family:'MyriadPro-Regular';}
	.st2{font-size:11.1699px;}
	.st3{fill-rule:evenodd;clip-rule:evenodd;fill:#FFFF66;}
	.st4{font-size:33.5097px;}
</style>
<g>
	<path d="M72.7,136.2c-0.1,0-0.2,0-0.3,0l-8.7-1.8c-1.3-0.3-2.5-0.8-3.7-1.2c-0.6-0.2-1.1-0.4-1.7-0.6l-20.9-7.1
		c-1.6-0.5-2.8-1.5-4-2.5c-0.5-0.4-1-0.8-1.6-1.2L16.2,111c-2.6-1.8-4-4.7-5.4-7.4c-0.6-1.3-1.2-2.6-2-3.7c-1.6-2.4-2.2-5.2-2.9-8
		c-0.2-1.1-0.5-2.1-0.8-3.1c-1.9-6.5-2.2-9.8-2.8-15.3c-0.2-1.8-0.4-3.8-0.7-6.3c0-0.2,0-0.4,0.1-0.6l3.5-10.7
		c0.5-1.6,1.5-2.8,2.4-4.1c0.4-0.5,0.8-1.1,1.2-1.6l10.4-16.1c0.1-0.2,0.2-0.3,0.4-0.4l10.4-7.1c1.2-0.9,2.6-1.2,3.9-1.5
		c0.6-0.1,1.1-0.3,1.7-0.5c1.2-0.4,2.3-0.8,3.4-1.2c2.3-0.9,4.7-1.7,7.1-2.4c8.6-2.2,24.9-3.4,29.9-3.6l0.1,1.5l-0.1-1.5l0.7,0
		c3.1-0.1,3.3-0.2,4.2,0.4c0.4,0.2,1.1,0.7,4.2,1.5c5.2,1.3,7.9,2,9.7,2.4c3,0.7,3.1,0.8,6.9,2.1l2.6,0.9c1.4,0.5,2.7,0.9,3.9,1.3
		c6.5,2.1,11.6,3.7,17.5,9.8c1,1,1.2,2.4,1.3,3.6c0.1,0.8,0.2,1.5,0.5,1.9c1.4,1.8,2.3,2.8,2.9,3.3c0.2-0.3,0.6-0.6,0.9-0.7
		c0.7-0.1,1.5,0.6,1.7,1.3c0.1,0.5,0.5,1.8,1.4,4.7l4.5,1.5c3.5,1.2,5,4.9,6.3,8.1c0.5,1.2,0.9,2.3,1.5,3.3c0.8,1.4,1.2,2.9,1.5,4.4
		c0.1,0.4,0.2,0.8,0.3,1.2c2.2,8,2.4,10.5,2.8,16.8c0.2,2.6,0.4,5.8,0.8,10.2c0,0.2,0,0.4-0.1,0.6l-1.7,5.3
		c-0.5,1.6-1.5,2.9-2.4,4.1c-0.4,0.5-0.8,1.1-1.2,1.6l-7,10.7c-0.1,0.2-0.2,0.3-0.4,0.4l-5.2,3.6c-2.4,1.6-5.1,2.3-7.8,2.9
		c-1,0.2-2,0.5-3,0.8c-4.1,1.2-8.8,2.2-13,3l-2.8,0.6c-1.1,0.2-2.1,0.6-3.3,1.1c-0.6,0.2-1.2,0.5-1.8,0.7c-1.1,0.4-2.3,0.8-3.4,1.3
		c-2.3,0.9-4.7,1.9-7.3,2.3c-4.3,0.8-8.7,1.1-12.9,1.3c-2.1,0.1-4.2,0.3-6.3,0.5C72.7,136.2,72.7,136.2,72.7,136.2z M4.5,67.1
		c0.3,2.4,0.5,4.3,0.7,6.1c0.6,5.5,0.9,8.6,2.7,14.8c0.3,1.1,0.6,2.2,0.8,3.3c0.6,2.6,1.2,5,2.5,7c0.8,1.3,1.5,2.7,2.2,4
		c1.2,2.5,2.4,4.9,4.4,6.3l15.7,10.7c0.6,0.4,1.2,0.9,1.8,1.4c1,0.8,2,1.6,3.1,2l20.9,7.1c0.6,0.2,1.2,0.4,1.8,0.7
		c1.1,0.4,2.2,0.9,3.3,1.1l8.5,1.7c2.1-0.2,4.1-0.3,6.2-0.4c4.2-0.3,8.4-0.5,12.6-1.3c2.3-0.4,4.4-1.3,6.7-2.2
		c1.2-0.5,2.3-0.9,3.5-1.3c0.6-0.2,1.1-0.4,1.7-0.6c1.2-0.5,2.4-0.9,3.7-1.2l2.8-0.6c4.3-0.9,8.8-1.8,12.7-3
		c1.1-0.3,2.1-0.6,3.2-0.8c2.5-0.6,4.9-1.2,6.9-2.5l5-3.4l6.8-10.4c0.4-0.6,0.9-1.2,1.3-1.8c0.8-1.1,1.6-2.1,2-3.2l1.6-5.1
		c-0.4-4.4-0.6-7.5-0.7-10c-0.4-6.2-0.5-8.5-2.7-16.2c-0.1-0.4-0.2-0.9-0.3-1.3c-0.4-1.4-0.7-2.7-1.3-3.8c-0.6-1.1-1.1-2.4-1.6-3.6
		c-1.2-2.9-2.3-5.7-4.6-6.5l-5.2-1.8c-0.4-0.1-0.8-0.5-0.9-0.9c-0.5-1.5-0.8-2.6-1.1-3.5c-1.3-0.1-3-1.6-5.6-5
		c-0.8-1-0.9-2.2-1.1-3.3c-0.1-0.8-0.2-1.6-0.5-1.9c-5.4-5.5-10-7-16.3-9c-1.2-0.4-2.6-0.8-4-1.3l-2.6-0.9c-3.7-1.3-3.7-1.3-6.7-2
		c-1.8-0.4-4.6-1.1-9.7-2.4c-3.3-0.8-4.3-1.4-5-1.8c-0.3-0.1-1.2,0-2.6,0l-0.7,0l0,0c-7.3,0.3-21.8,1.6-29.3,3.5
		c-2.3,0.6-4.6,1.4-6.8,2.3c-1.2,0.4-2.3,0.9-3.5,1.3c-0.6,0.2-1.3,0.4-1.9,0.5c-1.1,0.3-2.2,0.5-3,1.1l-10.2,7L11.2,51.7
		c-0.4,0.6-0.9,1.2-1.3,1.8c-0.8,1.1-1.6,2.1-2,3.2L4.5,67.1z"/>
	<rect x="-4.8" y="44.1" transform="matrix(0.6357 -0.7719 0.7719 0.6357 -27.3008 31.2269)" width="48.4" height="0.9"/>
	<rect x="-8.4" y="46.9" transform="matrix(0.6435 -0.7655 0.7655 0.6435 -27.4267 35.7288)" width="66" height="0.9"/>
	<rect x="-10.2" y="50.6" transform="matrix(0.6403 -0.7681 0.7681 0.6403 -28.2573 41.8109)" width="81.3" height="0.9"/>
	<polygon points="6.9,89.2 6.2,88.7 64.3,18.8 65,19.4 	"/>
	<rect x="-5" y="64.5" transform="matrix(0.6397 -0.7686 0.7686 0.6397 -31.286 63.1122)" width="113.3" height="0.9"/>
	<rect x="-0.4" y="66.9" transform="matrix(0.6409 -0.7676 0.7676 0.6409 -31.0595 68.2645)" width="115.6" height="0.9"/>
	<polygon points="8.9,96.4 8.2,95.9 73.1,18 73.8,18.5 	"/>
	<rect x="-7.5" y="60.4" transform="matrix(0.6409 -0.7676 0.7676 0.6409 -29.9699 57.5782)" width="108.1" height="0.9"/>
	<rect x="4.5" y="70" transform="matrix(0.6409 -0.7676 0.7676 0.6409 -31.18 74.2627)" width="118.6" height="0.9"/>
	<rect x="9.5" y="72.9" transform="matrix(0.6409 -0.7676 0.7676 0.6409 -31.2994 79.8669)" width="120.4" height="0.9"/>
	<polygon points="36.8,123.7 36.2,123.2 114.2,29.3 114.9,29.9 	"/>
	<rect x="20.6" y="78.7" transform="matrix(0.6409 -0.7676 0.7676 0.6409 -31.6238 90.6127)" width="120.8" height="0.9"/>
	<rect x="26.4" y="81.5" transform="matrix(0.6409 -0.7676 0.7676 0.6409 -31.8513 95.8209)" width="120.2" height="0.9"/>
	<rect x="34.6" y="86.1" transform="matrix(0.6409 -0.7676 0.7676 0.6409 -33.7332 100.9653)" width="112.9" height="0.9"/>
	<rect x="41.4" y="89.6" transform="matrix(0.6409 -0.7676 0.7676 0.6409 -34.3778 106.684)" width="110.9" height="0.9"/>
	<rect x="48.8" y="92.6" transform="matrix(0.6409 -0.7676 0.7676 0.6409 -34.6764 111.9187)" width="106.9" height="0.9"/>
	<rect x="57.4" y="94.4" transform="matrix(0.6421 -0.7666 0.7666 0.6421 -33.7006 117.5088)" width="103.1" height="0.9"/>
	<rect x="68.4" y="97.4" transform="matrix(0.6421 -0.7666 0.7666 0.6421 -33.8758 123.1509)" width="93" height="0.9"/>
	<rect x="79.7" y="100.1" transform="matrix(0.6397 -0.7686 0.7686 0.6397 -33.6592 129.2968)" width="82.7" height="0.9"/>
	<rect x="94.4" y="101.7" transform="matrix(0.6421 -0.7666 0.7666 0.6421 -32.5787 134.4196)" width="66.6" height="0.9"/>
	<polygon points="116.5,126.1 115.8,125.5 149.6,84.7 150.3,85.3 	"/>
	<polygon points="126.6,124 125.9,123.4 150.2,94.1 150.9,94.7 	"/>
	<g class="st0">
		<text transform="matrix(1.0014 0 0 1 29.6216 79.0996)" class="st1 st2">C</text>
	</g>
	<g class="st0">
		<text transform="matrix(1.0014 0 0 1 37.6758 79.0996)" class="st1 st2">M</text>
	</g>
	<g class="st0">
		<text transform="matrix(1.0014 0 0 1 46.8486 79.0996)" class="st1 st2">L</text>
	</g>
	<path class="st3" d="M55.7,88.5c0-11.7,9.5-21.1,21.1-21.1l0,0l0,0c11.7,0,21.1,9.4,21.1,21.1l0,0l0,0c0,11.7-9.5,21.1-21.1,21.1
		l0,0l0,0C65.2,109.6,55.7,100.2,55.7,88.5L55.7,88.5L55.7,88.5z"/>
	<path d="M76.9,110.7c-12.3,0-22.2-10-22.2-22.2l0,0c0-12.3,10-22.2,22.2-22.2s22.2,10,22.2,22.2S89.2,110.7,76.9,110.7z M76.9,68.5
		c-11,0-20,9-20,20s9,20,20,20s20-9,20-20C96.9,77.5,87.9,68.5,76.9,68.5z"/>
	<text transform="matrix(1.0014 0 0 1 67.7144 97.0176)" class="st1 st4">c</text>
	<polygon class="st3" points="65.1,39.5 88.8,39.5 88.8,71.2 65.1,71.2 	"/>
	<path d="M88.8,72.3H65.1c-0.6,0-1.1-0.5-1.1-1.1V39.5c0-0.6,0.5-1.1,1.1-1.1h23.7c0.6,0,1.1,0.5,1.1,1.1v31.7
		C90,71.8,89.5,72.3,88.8,72.3z M66.2,70.1h21.5V40.6H66.2V70.1z"/>
	<polygon class="st3" points="66.5,61.8 87.5,61.8 87.5,78.1 66.5,78.1 	"/>
	<polygon class="st3" points="64.9,73.9 68.3,63.4 71.6,73.9 	"/>
	<polygon class="st3" points="88.6,75.2 87.1,64.7 79.9,75.2 	"/>
</g>
</svg>
