<?xml version="1.0" encoding="utf-8"?>
<!-- Generator: Adobe Illustrator 28.0.0, SVG Export Plug-In . SVG Version: 6.00 Build 0)  -->
<svg version="1.1" id="Layer_1" xmlns="http://www.w3.org/2000/svg" xmlns:xlink="http://www.w3.org/1999/xlink" x="0px" y="0px"
	 viewBox="0 0 156 156" style="enable-background:new 0 0 156 156;" xml:space="preserve">
<style type="text/css">
	.st0{fill-rule:evenodd;clip-rule:evenodd;fill:#FFFFFF;}
	.st1{enable-background:new    ;}
	.st2{font-family:'MyriadPro-Regular';}
	.st3{font-size:11.095px;}
	.st4{fill-rule:evenodd;clip-rule:evenodd;fill:#FFFF66;}
	.st5{fill:#FFFF66;}
	.st6{font-size:33.2849px;}
	.st7{fill-rule:evenodd;clip-rule:evenodd;}
	.st8{fill:none;}
</style>
<g>
	<polygon class="st0" points="0,16.18 156,16.18 156,139.82 0,139.82 	"/>
	<polygon class="st0" points="1.36,17.52 151.74,17.52 151.74,136.02 1.36,136.02 	"/>
	<path d="M72.22,135.8c-0.1,0-0.2-0.01-0.29-0.02l-8.65-1.77c-1.31-0.27-2.53-0.74-3.71-1.2c-0.55-0.21-1.1-0.43-1.66-0.62
		l-20.76-7.08c-1.56-0.53-2.78-1.53-3.96-2.5c-0.52-0.42-1.03-0.85-1.58-1.22l-15.57-10.63c-2.62-1.79-4.01-4.63-5.35-7.38
		c-0.64-1.31-1.24-2.54-1.97-3.65c-1.58-2.42-2.23-5.22-2.85-7.91c-0.25-1.04-0.48-2.08-0.78-3.09c-1.88-6.41-2.23-9.71-2.81-15.18
		c-0.19-1.79-0.4-3.83-0.71-6.3c-0.02-0.21-0.01-0.42,0.06-0.62l3.46-10.63c0.52-1.59,1.49-2.83,2.43-4.03
		c0.41-0.53,0.83-1.06,1.19-1.62l10.38-15.94c0.1-0.16,0.24-0.29,0.4-0.4l10.38-7.08c1.23-0.84,2.58-1.17,3.88-1.49
		c0.55-0.13,1.12-0.27,1.66-0.45c1.14-0.39,2.27-0.81,3.41-1.23c2.28-0.85,4.65-1.72,7.08-2.35c8.58-2.2,24.72-3.35,29.7-3.58l0,0
		l0.68-0.03c3.04-0.14,3.29-0.16,4.18,0.39c0.36,0.21,1.09,0.67,4.2,1.46c5.14,1.32,7.91,1.98,9.65,2.4
		c3.01,0.72,3.08,0.75,6.89,2.05l2.6,0.89c1.36,0.47,2.66,0.88,3.89,1.28c6.47,2.07,11.57,3.7,17.44,9.71
		c1.01,1.03,1.18,2.37,1.34,3.55c0.1,0.77,0.2,1.5,0.5,1.89c1.38,1.77,2.29,2.73,2.86,3.27c0.21-0.33,0.55-0.58,0.94-0.64
		c0.76-0.12,1.51,0.57,1.7,1.28c0.13,0.48,0.49,1.79,1.43,4.7l4.51,1.54c3.47,1.18,4.95,4.83,6.26,8.04
		c0.48,1.18,0.94,2.29,1.46,3.26c0.77,1.41,1.16,2.92,1.53,4.39c0.1,0.41,0.21,0.82,0.32,1.22c2.21,7.9,2.37,10.46,2.76,16.65
		c0.16,2.54,0.36,5.71,0.75,10.16c0.02,0.19-0.01,0.39-0.06,0.57l-1.73,5.31c-0.52,1.59-1.49,2.84-2.43,4.04
		c-0.41,0.53-0.82,1.05-1.19,1.61l-6.92,10.62c-0.1,0.16-0.24,0.29-0.4,0.4l-5.19,3.54c-2.37,1.62-5.1,2.28-7.75,2.93
		c-1.01,0.25-2.04,0.5-3.02,0.8c-4.08,1.25-8.81,2.2-12.97,3.03l-2.73,0.55c-1.07,0.22-2.12,0.63-3.24,1.06
		c-0.59,0.23-1.17,0.46-1.77,0.66c-1.13,0.39-2.25,0.83-3.37,1.28c-2.31,0.91-4.69,1.86-7.23,2.32c-4.26,0.77-8.62,1.05-12.83,1.32
		c-2.11,0.13-4.22,0.27-6.32,0.47C72.31,135.8,72.27,135.8,72.22,135.8z M4.49,67.21c0.29,2.35,0.49,4.3,0.67,6.03
		c0.58,5.48,0.9,8.5,2.7,14.66c0.31,1.06,0.57,2.16,0.82,3.25c0.6,2.57,1.17,5,2.46,6.99c0.82,1.25,1.49,2.63,2.14,3.96
		c1.23,2.52,2.39,4.91,4.38,6.26L33.25,119c0.61,0.41,1.2,0.89,1.78,1.37c1.03,0.84,2,1.63,3.07,2l20.76,7.08
		c0.59,0.21,1.19,0.44,1.78,0.66c1.11,0.44,2.16,0.84,3.23,1.06l8.44,1.73c2.06-0.19,4.12-0.32,6.18-0.45
		c4.13-0.26,8.41-0.54,12.51-1.28c2.25-0.4,4.4-1.26,6.67-2.16c1.17-0.46,2.32-0.92,3.5-1.32c0.55-0.19,1.1-0.4,1.66-0.62
		c1.18-0.46,2.4-0.94,3.71-1.2l2.74-0.55c4.3-0.86,8.76-1.75,12.7-2.96c1.04-0.32,2.11-0.58,3.18-0.84c2.5-0.61,4.87-1.19,6.81-2.51
		l4.95-3.38l6.76-10.38c0.4-0.62,0.87-1.21,1.33-1.81c0.82-1.05,1.6-2.05,1.97-3.16l1.64-5.03c-0.38-4.33-0.58-7.44-0.73-9.95
		c-0.39-6.15-0.53-8.45-2.66-16.06c-0.12-0.42-0.23-0.85-0.34-1.28c-0.35-1.36-0.67-2.63-1.27-3.73c-0.6-1.1-1.1-2.35-1.59-3.54
		c-1.18-2.9-2.3-5.64-4.53-6.4l-5.19-1.77c-0.43-0.14-0.77-0.48-0.9-0.92c-0.48-1.47-0.82-2.58-1.09-3.42
		c-1.33-0.12-2.95-1.59-5.6-4.99c-0.79-1.01-0.94-2.22-1.09-3.29c-0.1-0.8-0.21-1.56-0.54-1.9c-5.37-5.49-9.93-6.95-16.26-8.98
		c-1.25-0.4-2.56-0.82-3.94-1.29l-2.61-0.9c-3.72-1.28-3.72-1.28-6.63-1.97c-1.74-0.42-4.52-1.09-9.69-2.41
		c-3.25-0.83-4.27-1.36-4.98-1.78c-0.25-0.09-1.17-0.04-2.56,0.02l-0.68,0.03c-7.31,0.34-21.67,1.59-29.12,3.5
		c-2.28,0.59-4.58,1.43-6.79,2.26c-1.16,0.43-2.31,0.86-3.47,1.25c-0.62,0.21-1.26,0.37-1.89,0.52c-1.1,0.27-2.15,0.53-2.95,1.07
		l-10.15,6.94L11.15,51.92c-0.4,0.63-0.87,1.22-1.34,1.82c-0.82,1.05-1.6,2.05-1.96,3.15L4.49,67.21z"/>
	<rect x="-4.76" y="44.32" transform="matrix(0.6343 -0.7731 0.7731 0.6343 -27.5513 31.2892)" width="48.1" height="0.89"/>
	<rect x="-8.11" y="47.06" transform="matrix(0.6435 -0.7655 0.7655 0.6435 -27.5652 35.8326)" width="65.59" height="0.89"/>
	<rect x="-9.88" y="50.81" transform="matrix(0.6397 -0.7686 0.7686 0.6397 -28.4039 41.9204)" width="80.79" height="0.89"/>
	<polygon points="6.81,89.15 6.13,88.58 63.88,19.24 64.56,19.81 	"/>
	<rect x="-4.96" y="64.57" transform="matrix(0.6397 -0.7686 0.7686 0.6397 -31.4869 62.8555)" width="112.52" height="0.89"/>
	<rect x="-0.18" y="66.96" transform="matrix(0.6409 -0.7676 0.7676 0.6409 -31.1803 68.145)" width="114.86" height="0.89"/>
	<rect x="-9.67" y="56.89" transform="matrix(0.6409 -0.7676 0.7676 0.6409 -29.4019 51.8086)" width="100.69" height="0.89"/>
	<rect x="-7.46" y="60.5" transform="matrix(0.6409 -0.7676 0.7676 0.6409 -30.1792 57.3653)" width="107.36" height="0.89"/>
	<rect x="4.64" y="70.06" transform="matrix(0.6409 -0.7676 0.7676 0.6409 -31.3031 74.0988)" width="117.81" height="0.89"/>
	<rect x="9.43" y="72.98" transform="matrix(0.6409 -0.7676 0.7676 0.6409 -31.5036 79.4974)" width="119.59" height="0.89"/>
	<rect x="14.37" y="76.11" transform="matrix(0.6397 -0.7686 0.7686 0.6397 -31.8309 85.1963)" width="121.19" height="0.89"/>
	<rect x="20.47" y="78.66" transform="matrix(0.6409 -0.7676 0.7676 0.6409 -31.8315 90.1675)" width="119.97" height="0.89"/>
	<rect x="26.19" y="81.49" transform="matrix(0.6409 -0.7676 0.7676 0.6409 -32.0598 95.3399)" width="119.37" height="0.89"/>
	<rect x="34.58" y="86.04" transform="matrix(0.6409 -0.7676 0.7676 0.6409 -33.844 100.6195)" width="112.09" height="0.89"/>
	<rect x="41.08" y="89.56" transform="matrix(0.6409 -0.7676 0.7676 0.6409 -34.5642 106.1227)" width="110.14" height="0.89"/>
	<rect x="48.47" y="92.47" transform="matrix(0.6409 -0.7676 0.7676 0.6409 -34.8545 111.3286)" width="106.2" height="0.89"/>
	<rect x="57.02" y="94.29" transform="matrix(0.6421 -0.7666 0.7666 0.6421 -33.8883 116.8737)" width="102.43" height="0.89"/>
	<rect x="68.18" y="97.27" transform="matrix(0.6421 -0.7666 0.7666 0.6421 -33.9816 122.6446)" width="92.38" height="0.89"/>
	<rect x="79.13" y="99.96" transform="matrix(0.6383 -0.7698 0.7698 0.6383 -33.8068 128.8646)" width="82.18" height="0.89"/>
	<rect x="93.9" y="101.5" transform="matrix(0.6421 -0.7666 0.7666 0.6421 -32.6987 133.8376)" width="66.19" height="0.89"/>
	<polygon points="115.65,125.76 114.97,125.2 148.57,84.7 149.25,85.27 	"/>
	<polygon points="125.64,123.71 124.96,123.15 149.12,94.02 149.8,94.59 	"/>
	<g class="st1">
		<text transform="matrix(1.001 0 0 1 29.5132 79.0908)" class="st2 st3">C</text>
	</g>
	<g class="st1">
		<text transform="matrix(1.001 0 0 1 37.5107 79.0908)" class="st2 st3">M</text>
	</g>
	<g class="st1">
		<text transform="matrix(1.001 0 0 1 46.6191 79.0908)" class="st2 st3">L</text>
	</g>
	<path class="st4" d="M55.55,88.42c0-11.58,9.4-20.97,20.99-20.97l0,0l0,0c11.6,0,20.99,9.38,20.99,20.97l0,0l0,0
		c0,11.58-9.4,20.97-20.99,20.97l0,0l0,0C64.95,109.39,55.55,100,55.55,88.42L55.55,88.42L55.55,88.42z"/>
	<path d="M76.55,110.5c-12.18,0-22.1-9.91-22.1-22.08s9.91-22.07,22.1-22.07c12.18,0,22.1,9.91,22.1,22.08S88.73,110.5,76.55,110.5z
		 M76.55,68.56c-10.96,0-19.88,8.91-19.88,19.86s8.92,19.86,19.88,19.86s19.88-8.91,19.88-19.86S87.51,68.56,76.55,68.56z"/>
	<polygon class="st4" points="64.67,39.72 86.88,39.72 86.88,71.22 64.67,71.22 	"/>
	<polygon class="st4" points="66.67,61.91 86.43,61.91 86.43,78.1 66.67,78.1 	"/>
	<path class="st5" d="M86.43,78.99H66.67c-0.49,0-0.89-0.4-0.89-0.89V61.91c0-0.49,0.4-0.89,0.89-0.89h19.77
		c0.49,0,0.89,0.4,0.89,0.89v16.2C87.32,78.59,86.92,78.99,86.43,78.99z M67.55,77.22h17.99V62.79H67.55
		C67.55,62.79,67.55,77.22,67.55,77.22z"/>
	<text transform="matrix(1.001 0 0 1 67.2998 97.1611)" class="st2 st6">c</text>
	<polygon class="st7" points="64.67,38.39 88.21,38.39 88.21,71.89 64.67,71.89 	"/>
	<polygon class="st8" points="0.26,139.56 155.74,139.56 155.74,16.44 0.26,16.44 	"/>
</g>
</svg>
