<?xml version="1.0" encoding="utf-8"?>
<!-- Generator: Adobe Illustrator 28.0.0, SVG Export Plug-In . SVG Version: 6.00 Build 0)  -->
<svg version="1.1" id="Layer_1" xmlns="http://www.w3.org/2000/svg" xmlns:xlink="http://www.w3.org/1999/xlink" x="0px" y="0px"
	 viewBox="0 0 156 156" style="enable-background:new 0 0 156 156;" xml:space="preserve">
<style type="text/css">
	.st0{fill:#FF9900;}
	.st1{fill:none;}
</style>
<g id="MasterSlide_1_Standard">
	<g id="DrawingGroup_1">
		<g>
			<path class="st0" d="M155.7,142c-51.8,0-103.8,0-155.6,0C26,97.4,52,52.6,78,8C103.9,52.6,129.8,97.4,155.7,142z M136.2,132.2
				C116.8,98.5,97.4,64.7,78,31C58.6,64.7,39.2,98.5,19.8,132.2C58.6,132.2,97.4,132.2,136.2,132.2z"/>
			<rect y="7.9" class="st1" width="156" height="134.3"/>
		</g>
		<g>
			<path class="st0" d="M85.4,106.8l5.7,1.7c-0.8,3.3-2.3,5.5-4.2,7.1c-2.1,1.6-4.7,2.3-7.6,2.3c-3.8,0-6.9-1.3-9.5-3.8
				c-2.4-2.7-3.7-6.2-3.7-10.9c0-4.8,1.3-8.5,3.8-11.2c2.4-2.7,5.7-4,9.6-4c3.5,0,6.4,1,8.6,3.1c1.3,1.3,2.3,3,2.8,5.4l-5.7,1.3
				c-0.4-1.4-1.1-2.7-2.1-3.5c-1.1-0.8-2.4-1.3-4-1.3c-2.1,0-3.8,0.8-5.1,2.3c-1.4,1.6-2,4.1-2,7.5c0,3.7,0.6,6.4,1.8,7.9
				c1.4,1.6,3.1,2.3,5.1,2.3c1.6,0,3-0.4,4-1.4C84.1,110.5,84.9,109,85.4,106.8z"/>
			<rect x="66" y="87.9" class="st1" width="25.2" height="30.3"/>
		</g>
	</g>
</g>
</svg>
