<?xml version="1.0" encoding="utf-8"?>
<!-- Generator: Adobe Illustrator 28.0.0, SVG Export Plug-In . SVG Version: 6.00 Build 0)  -->
<svg version="1.1" id="Layer_1" xmlns="http://www.w3.org/2000/svg" xmlns:xlink="http://www.w3.org/1999/xlink" x="0px" y="0px"
	 viewBox="0 0 156 156" style="enable-background:new 0 0 156 156;" xml:space="preserve">
<style type="text/css">
	.st0{fill-rule:evenodd;clip-rule:evenodd;fill:#FFFFFF;}
	.st1{enable-background:new    ;}
	.st2{font-family:'MyriadPro-Regular';}
	.st3{font-size:11.1699px;}
	.st4{fill-rule:evenodd;clip-rule:evenodd;fill:#FFFF66;}
	.st5{font-size:33.5097px;}
	.st6{fill:none;}
</style>
<g>
	<polygon class="st0" points="0,15.76 156,15.76 156,140.24 0,140.24 	"/>
	<polygon class="st0" points="1.38,17.12 152.6,17.12 152.6,136.41 1.38,136.41 	"/>
	<path d="M72.65,136.19c-0.1,0-0.2-0.01-0.3-0.02l-8.7-1.78c-1.32-0.27-2.55-0.75-3.73-1.2c-0.56-0.22-1.11-0.43-1.67-0.62
		l-20.87-7.13c-1.57-0.53-2.8-1.54-3.98-2.51c-0.52-0.43-1.04-0.85-1.58-1.23l-15.66-10.69c-2.64-1.8-4.03-4.66-5.39-7.43
		c-0.64-1.32-1.25-2.56-1.97-3.67c-1.59-2.43-2.24-5.25-2.87-7.96c-0.25-1.05-0.49-2.09-0.78-3.11c-1.89-6.46-2.24-9.77-2.82-15.27
		c-0.19-1.8-0.41-3.85-0.71-6.35c-0.02-0.21-0.01-0.42,0.06-0.62l3.48-10.69c0.52-1.6,1.5-2.85,2.44-4.06
		c0.41-0.53,0.84-1.07,1.2-1.63l10.43-16.06c0.1-0.16,0.24-0.3,0.4-0.41l10.44-7.13c1.24-0.85,2.59-1.17,3.9-1.5
		c0.56-0.14,1.13-0.27,1.67-0.45c1.15-0.39,2.29-0.81,3.43-1.24c2.3-0.85,4.67-1.73,7.12-2.36c8.64-2.21,24.86-3.38,29.87-3.61
		l0.06,1.45l-0.06-1.45l0.69-0.03c3.05-0.14,3.3-0.16,4.21,0.39c0.36,0.22,1.1,0.67,4.23,1.47c5.16,1.32,7.94,1.99,9.7,2.42
		c3.03,0.73,3.1,0.75,6.92,2.07l2.63,0.9c1.37,0.47,2.67,0.89,3.91,1.28c6.5,2.08,11.64,3.73,17.54,9.77
		c1.01,1.04,1.19,2.39,1.34,3.57c0.1,0.77,0.2,1.51,0.5,1.9c1.39,1.78,2.31,2.75,2.88,3.3c0.22-0.33,0.55-0.57,0.95-0.65
		c0.73-0.13,1.52,0.57,1.71,1.28c0.14,0.49,0.49,1.8,1.44,4.73l4.53,1.55c3.49,1.19,4.98,4.86,6.3,8.1
		c0.49,1.19,0.94,2.31,1.46,3.28c0.77,1.42,1.17,2.94,1.54,4.42c0.1,0.41,0.21,0.82,0.32,1.23c2.22,7.96,2.38,10.54,2.77,16.77
		c0.16,2.55,0.36,5.75,0.76,10.23c0.02,0.19-0.01,0.39-0.06,0.57l-1.74,5.35c-0.52,1.6-1.5,2.86-2.44,4.07
		c-0.41,0.53-0.83,1.06-1.2,1.63l-6.96,10.7c-0.1,0.16-0.24,0.3-0.4,0.41l-5.22,3.57c-2.39,1.64-5.14,2.31-7.8,2.95
		c-1.02,0.25-2.04,0.49-3.02,0.8c-4.09,1.25-8.83,2.2-13,3.04l-2.79,0.57c-1.08,0.22-2.14,0.63-3.26,1.07
		c-0.59,0.23-1.18,0.46-1.78,0.66c-1.14,0.39-2.26,0.84-3.38,1.28c-2.32,0.92-4.72,1.88-7.27,2.34c-4.29,0.77-8.67,1.05-12.9,1.33
		c-2.12,0.14-4.24,0.27-6.35,0.47C72.73,136.19,72.69,136.19,72.65,136.19z M4.53,67.14c0.29,2.37,0.49,4.34,0.68,6.07
		c0.58,5.52,0.9,8.56,2.71,14.76c0.31,1.07,0.57,2.17,0.83,3.27c0.61,2.59,1.17,5.04,2.47,7.04c0.82,1.27,1.5,2.65,2.15,3.99
		c1.24,2.54,2.41,4.93,4.41,6.3l15.66,10.69c0.61,0.41,1.2,0.89,1.79,1.38c1.03,0.85,2.01,1.64,3.08,2.01l20.87,7.13
		c0.6,0.21,1.19,0.43,1.79,0.66c1.12,0.44,2.18,0.85,3.26,1.07l8.49,1.74c2.07-0.19,4.14-0.32,6.22-0.45
		c4.16-0.26,8.45-0.54,12.58-1.29c2.27-0.41,4.42-1.27,6.71-2.18c1.17-0.46,2.33-0.93,3.52-1.33c0.56-0.19,1.12-0.41,1.67-0.62
		c1.18-0.46,2.41-0.93,3.73-1.2l2.8-0.57c4.32-0.86,8.78-1.76,12.72-2.97c1.05-0.32,2.11-0.58,3.19-0.85
		c2.52-0.61,4.9-1.2,6.85-2.53l4.98-3.4l6.8-10.45c0.41-0.63,0.88-1.23,1.34-1.83c0.83-1.06,1.61-2.07,1.97-3.18l1.65-5.07
		c-0.38-4.36-0.58-7.49-0.73-10.01c-0.38-6.19-0.53-8.51-2.67-16.17c-0.12-0.42-0.23-0.86-0.34-1.29c-0.35-1.36-0.68-2.65-1.28-3.75
		c-0.61-1.11-1.11-2.36-1.6-3.57c-1.19-2.92-2.31-5.68-4.55-6.45l-5.23-1.77c-0.43-0.14-0.77-0.49-0.91-0.93
		c-0.48-1.48-0.83-2.6-1.09-3.45c-1.34-0.12-2.96-1.6-5.63-5.03c-0.79-1.01-0.95-2.23-1.09-3.31c-0.1-0.81-0.21-1.57-0.54-1.92
		c-5.39-5.53-9.99-7-16.35-9.04c-1.25-0.4-2.57-0.82-3.96-1.3l-2.64-0.9c-3.73-1.28-3.73-1.28-6.65-1.99
		c-1.76-0.42-4.55-1.09-9.74-2.43c-3.26-0.84-4.29-1.36-5-1.8c-0.26-0.09-1.18-0.04-2.57,0.02l-0.69,0.03l0,0
		c-7.34,0.34-21.78,1.6-29.28,3.52c-2.3,0.59-4.6,1.44-6.83,2.27c-1.17,0.43-2.33,0.86-3.5,1.26c-0.62,0.22-1.26,0.38-1.91,0.53
		c-1.11,0.27-2.16,0.53-2.96,1.08l-10.19,6.98l-10.28,15.8c-0.41,0.63-0.88,1.23-1.34,1.83c-0.83,1.06-1.61,2.07-1.97,3.18
		L4.53,67.14z"/>
	<rect x="-4.78" y="44.09" transform="matrix(0.6357 -0.7719 0.7719 0.6357 -27.2998 31.2338)" width="48.44" height="0.89"/>
	<rect x="-8.38" y="46.86" transform="matrix(0.6435 -0.7655 0.7655 0.6435 -27.426 35.7284)" width="66.04" height="0.89"/>
	<rect x="-10.16" y="50.63" transform="matrix(0.6403 -0.7681 0.7681 0.6403 -28.2544 41.8125)" width="81.35" height="0.89"/>
	<polygon points="6.86,89.23 6.18,88.65 64.35,18.84 65.03,19.41 	"/>
	<rect x="-4.97" y="64.48" transform="matrix(0.6397 -0.7686 0.7686 0.6397 -31.2811 63.1128)" width="113.29" height="0.89"/>
	<rect x="-0.39" y="66.88" transform="matrix(0.6409 -0.7676 0.7676 0.6409 -31.0548 68.2684)" width="115.65" height="0.89"/>
	<polygon points="8.88,96.43 8.19,95.86 73.07,17.95 73.75,18.52 	"/>
	<rect x="-7.49" y="60.37" transform="matrix(0.6409 -0.7676 0.7676 0.6409 -29.965 57.5852)" width="108.1" height="0.89"/>
	<rect x="4.47" y="70.01" transform="matrix(0.6409 -0.7676 0.7676 0.6409 -31.1762 74.2645)" width="118.63" height="0.89"/>
	<rect x="9.51" y="72.94" transform="matrix(0.6409 -0.7676 0.7676 0.6409 -31.2987 79.8721)" width="120.42" height="0.89"/>
	<polygon points="36.84,123.74 36.16,123.17 114.17,29.34 114.86,29.92 	"/>
	<rect x="20.64" y="78.66" transform="matrix(0.6409 -0.7676 0.7676 0.6409 -31.6243 90.6188)" width="120.81" height="0.89"/>
	<rect x="26.4" y="81.51" transform="matrix(0.6409 -0.7676 0.7676 0.6409 -31.8551 95.8268)" width="120.2" height="0.89"/>
	<rect x="34.62" y="86.09" transform="matrix(0.6409 -0.7676 0.7676 0.6409 -33.7324 100.9715)" width="112.87" height="0.89"/>
	<rect x="41.39" y="89.64" transform="matrix(0.6409 -0.7676 0.7676 0.6409 -34.3749 106.6853)" width="110.9" height="0.89"/>
	<rect x="48.83" y="92.57" transform="matrix(0.6409 -0.7676 0.7676 0.6409 -34.6711 111.9274)" width="106.92" height="0.89"/>
	<rect x="57.44" y="94.4" transform="matrix(0.6421 -0.7666 0.7666 0.6421 -33.6966 117.5116)" width="103.13" height="0.89"/>
	<rect x="68.45" y="97.41" transform="matrix(0.6421 -0.7666 0.7666 0.6421 -33.8726 123.1526)" width="93.02" height="0.89"/>
	<rect x="79.72" y="100.11" transform="matrix(0.6397 -0.7686 0.7686 0.6397 -33.664 129.3001)" width="82.75" height="0.89"/>
	<rect x="94.36" y="101.65" transform="matrix(0.6421 -0.7666 0.7666 0.6421 -32.573 134.4264)" width="66.64" height="0.89"/>
	<polygon points="116.49,126.08 115.8,125.52 149.63,84.74 150.32,85.32 	"/>
	<polygon points="126.56,124.02 125.86,123.45 150.19,94.13 150.88,94.69 	"/>
	<g class="st1">
		<text transform="matrix(1.0014 0 0 1 29.6211 79.0996)" class="st2 st3">C</text>
	</g>
	<g class="st1">
		<text transform="matrix(1.0014 0 0 1 37.6753 79.0996)" class="st2 st3">M</text>
	</g>
	<g class="st1">
		<text transform="matrix(1.0014 0 0 1 46.8486 79.0996)" class="st2 st3">L</text>
	</g>
	<path class="st4" d="M55.74,88.49c0-11.66,9.46-21.11,21.14-21.11l0,0l0,0c11.67,0,21.14,9.45,21.14,21.11l0,0l0,0
		c0,11.66-9.46,21.11-21.14,21.11l0,0l0,0C65.2,109.61,55.74,100.15,55.74,88.49L55.74,88.49L55.74,88.49z"/>
	<path d="M76.88,110.72c-12.27,0-22.25-9.97-22.25-22.22l0,0c0-12.26,9.98-22.22,22.25-22.22s22.25,9.97,22.25,22.22
		S89.16,110.72,76.88,110.72z M76.88,68.5c-11.04,0-20.02,8.97-20.02,20s8.98,20,20.02,20S96.9,99.52,96.9,88.5
		C96.9,77.47,87.92,68.5,76.88,68.5z"/>
	<text transform="matrix(1.0014 0 0 1 67.7139 97.0176)" class="st2 st5">c</text>
	<polygon class="st4" points="65.14,39.46 88.84,39.46 88.84,71.18 65.14,71.18 	"/>
	<path d="M88.84,72.29H65.14c-0.61,0-1.12-0.5-1.12-1.12V39.46c0-0.61,0.5-1.12,1.12-1.12h23.72c0.61,0,1.12,0.5,1.12,1.12v31.72
		C89.97,71.8,89.47,72.29,88.84,72.29z M66.25,70.06h21.48V40.58H66.25V70.06z"/>
	<polygon class="st4" points="66.48,61.8 87.5,61.8 87.5,78.1 66.48,78.1 	"/>
	<polygon class="st4" points="64.91,73.86 68.26,63.36 71.62,73.86 	"/>
	<polygon class="st4" points="88.62,75.2 87.08,64.7 79.9,75.2 	"/>
	<polygon class="st6" points="0.26,139.98 155.74,139.98 155.74,16.02 0.26,16.02 	"/>
</g>
</svg>
