<?xml version="1.0" encoding="utf-8"?>
<!-- Generator: Adobe Illustrator 28.0.0, SVG Export Plug-In . SVG Version: 6.00 Build 0)  -->
<svg version="1.1" id="Layer_1" xmlns="http://www.w3.org/2000/svg" xmlns:xlink="http://www.w3.org/1999/xlink" x="0px" y="0px"
	 viewBox="0 0 156 156" style="enable-background:new 0 0 156 156;" xml:space="preserve">
<style type="text/css">
	.st0{fill:#FF0000;}
</style>
<g>
	<path class="st0" d="M46.9,0c0.2,1.2,0.5,2.4,0.7,3.6c0.1,0.5,0.2,1.1,0.3,1.6c0.1,0.3,0,0.4-0.3,0.5c-3.3,0.5-6.7,1-10,1.5
		C32.3,7.9,27.2,8.7,22,9.5c-3.9,0.6-7.9,1.2-11.8,1.7c-0.3,0-0.4,0.1-0.4,0.4c0.2,3.4,0.3,6.9,0.4,10.3c0.1,2.8,0.2,5.6,0.3,8.5
		c0.1,3.6,0.3,7.2,0.4,10.8c0.1,2.8,0.2,5.6,0.3,8.5c0,0.9,0.1,1.7,0.1,2.6c0,0.3-0.1,0.4-0.3,0.4c-1.7,0.1-3.5,0.2-5.2,0.3
		c-0.3,0-0.5,0-0.5-0.4c-0.2-3.9-0.3-7.8-0.5-11.7c-0.1-3.2-0.3-6.4-0.4-9.6c-0.1-3.2-0.3-6.5-0.4-9.7c-0.1-2.7-0.2-5.4-0.3-8.1
		c-0.1-2.3-0.2-4.6-0.3-6.9C3.4,6.1,3.5,6,3.9,6c3-0.4,5.9-0.9,8.9-1.3c2.9-0.4,5.9-0.8,8.8-1.3c2.8-0.4,5.5-0.8,8.3-1.2
		c2.6-0.4,5.2-0.7,7.7-1.1c2.4-0.3,4.7-0.7,7.1-1c0,0,0.1,0,0.1-0.1C45.5,0,46.2,0,46.9,0z"/>
	<path class="st0" d="M0,62.1c1.8-0.5,3.6-1,5.5-1.5c0.3-0.1,0.3,0,0.4,0.3c0.7,2.8,1.5,5.6,2.2,8.4c2.5,9.4,5.1,18.9,7.6,28.3
		c0.6,2.3,1.2,4.6,1.8,6.9c0.1,0.3,0,0.4-0.3,0.5c-1.8,0.5-3.5,0.9-5.3,1.4c-0.4,0.1-0.5,0-0.5-0.3c-1.2-4.5-2.4-9.1-3.6-13.6
		c-2.5-9.6-5.1-19.2-7.6-28.8c0-0.1,0-0.3-0.1-0.3C0,62.9,0,62.5,0,62.1z"/>
	<path class="st0" d="M128.8,98.3c0,0.5,0,0.9,0,1.3c0,4.7,0,9.4,0,14.1c0,0.3-0.1,0.4-0.4,0.4c-36.1,0-72.2,0-108.3,0
		c-0.3,0-0.4-0.1-0.4-0.4c0-5,0-10,0-15.1c0-0.4,0.1-0.4,0.4-0.4c25.5,0,51,0,76.5,0c1,0,1.9,0.3,2.8,0.4c1.1,0.2,2.1,0.3,3.2,0.5
		c0.1,0,0.2,0,0.3,0.1c2.1,1,4.2,1.9,6.3,2.8c1.5,0.7,3.1,1.3,4.6,2.1c0.2,0.1,0.3,0,0.5,0c4.7-1.9,9.4-3.8,14.1-5.7
		C128.4,98.4,128.6,98.3,128.8,98.3z"/>
	<path class="st0" d="M111.6,26.6c0.1,0.7,0.2,1.4,0.3,2.1c0.4,3.1,0.8,6.1,1.2,9.2c0.4,3.2,0.8,6.4,1.3,9.6c0.4,3,0.8,6.1,1.2,9.1
		c0,0.2,0.1,0.4,0.1,0.5c1.3,3.7,2.6,7.4,4,11c0.3,0.9,0.2,1.7,0.2,2.6c0,0.7-0.1,1.4-0.4,2.1c-0.4,0.9-0.9,1.8-1.8,2.4
		c-0.9,0.6-1.8,0.7-2.8,0.7c-2,0-3.5-1.1-4.1-3.1c-0.4-1.2-0.5-2.4-0.6-3.7c0-0.3,0-0.6,0.2-0.9c1.5-3.9,3-7.9,4.5-11.8
		c0.1-0.3,0.1-0.5-0.2-0.7c-1.2-1-2.3-2-3.5-3.1c-0.2-0.2-0.4-0.2-0.7-0.2c-2.3,0.3-4.6,0.6-6.9,1c-2.9,0.4-5.7,0.8-8.6,1.2
		c-2.7,0.4-5.4,0.8-8,1.1c-2.8,0.4-5.7,0.8-8.5,1.2c-2.7,0.4-5.4,0.8-8,1.1c-3,0.4-6.1,0.8-9.1,1.3c-3.1,0.4-6.1,0.9-9.2,1.3
		c-3,0.4-6.1,0.8-9.1,1.3c-3,0.4-6.1,0.9-9.1,1.3c-2.1,0.3-4.2,0.7-6.4,0.6c-1.3,0-2.5-0.3-3.7-0.9c-1.4-0.7-2.5-1.7-3.1-3.2
		c-0.4-1-0.8-2-0.8-3.2c0-0.9-0.1-1.9,0-2.8c0.1-1.6,0.7-3.1,1.6-4.4c0.9-1.3,2.1-2.1,3.3-3c0.7-0.5,1.4-0.8,2.2-1.1
		c0.2-0.1,0.5-0.1,0.7-0.1c1.7-0.1,3.4-0.4,5.2-0.7c2.9-0.4,5.9-0.8,8.8-1.3c3-0.4,5.9-0.9,8.9-1.3c3.3-0.5,6.5-1,9.8-1.4
		c3.1-0.5,6.3-0.9,9.4-1.4c3.5-0.5,6.9-1,10.4-1.5c3.1-0.5,6.2-0.9,9.3-1.4c3.1-0.5,6.2-0.9,9.3-1.4c3-0.4,5.9-0.9,8.9-1.3
		c0.2,0,0.4-0.1,0.5-0.3c1-2.2,2-4.3,3-6.5C111.4,26.9,111.4,26.8,111.6,26.6z M110.2,35.3C110.2,35.3,110.2,35.3,110.2,35.3
		c-0.2,0.2-0.2,0.4-0.3,0.5c0,0.2-0.1,0.3-0.3,0.3c-2.2,0.3-4.3,0.6-6.5,0.9c-3,0.4-5.9,0.8-8.9,1.3c-2.8,0.4-5.6,0.8-8.4,1.2
		c-3,0.4-5.9,0.9-8.9,1.3c-3.2,0.5-6.3,0.9-9.5,1.4c-3,0.4-5.9,0.9-8.9,1.3c-3.2,0.5-6.3,0.9-9.5,1.4c-3,0.4-6,0.9-9,1.3
		c-1.6,0.2-3.1,0.5-4.7,0.6c-1.1,0.1-2.3,0.2-3.4,0.4c-1.2,0.2-2.3,0.4-3.5,0.7c-0.7,0.2-1.4,0.4-2.1,0.6c-0.6,0.2-1.1,0.4-1.5,0.8
		c-0.1,0.1-0.3,0.3-0.2,0.4c0,0.2,0.2,0.1,0.4,0.1c3.4,0,6.8,0,10.2,0.1c2,0,3.9,0,5.9,0c5.8,0,11.7,0,17.5,0.1c2,0,3.9,0,5.9,0
		c5.8,0,11.7,0,17.5,0.1c2.6,0,5.3,0,7.9,0c7.3,0,14.6,0,22,0.1c0.4,0,0.5-0.1,0.4-0.4c-0.2-1.3-0.4-2.7-0.6-4
		C111.2,42.1,110.7,38.7,110.2,35.3z"/>
	<path class="st0" d="M147.7,152.7c-1.5-0.2-2.9-0.5-4.3-0.7c-3.4-0.5-6.7-1.1-10.1-1.6c-3.4-0.5-6.8-1.1-10.1-1.6
		c-3.5-0.6-7-1.1-10.6-1.7c-3.4-0.5-6.7-1.1-10.1-1.6c-3.4-0.5-6.7-1.1-10.1-1.6c-3.4-0.5-6.7-1.1-10.1-1.6
		c-3.4-0.5-6.7-1.1-10.1-1.6c-0.4-0.1-0.8-0.1-1.3-0.2c-0.2,0-0.3-0.1-0.2-0.3c0.3-1.9,0.7-3.8,1-5.7c0-0.2,0.1-0.3,0.4-0.3
		c4,0.7,8.1,1.3,12.1,1.9c4,0.6,8,1.3,11.9,1.9c4.3,0.7,8.6,1.4,12.9,2.1c4.1,0.7,8.3,1.3,12.4,2c4.6,0.7,9.2,1.5,13.9,2.2
		c2.1,0.3,4.3,0.7,6.4,1c0.3,0.1,0.4,0,0.4-0.3c0.3-3,0.6-6,0.9-9c0.3-3,0.6-5.9,0.9-8.9c0.3-3.2,0.7-6.4,1-9.7c0.3-3,0.6-6,0.9-8.9
		c0.3-3.2,0.7-6.4,1-9.7c0.3-3,0.6-6,0.9-9c0.3-2.7,0.6-5.4,0.8-8.1c0.3-2.7,0.5-5.4,0.8-8.1c0.1-0.6,0.1-1.1,0.2-1.7
		c0-0.3,0.1-0.4,0.4-0.3c1.9,0.2,3.8,0.4,5.7,0.6c0.3,0,0.4,0.1,0.3,0.4c-0.2,1.9-0.4,3.9-0.6,5.8c-0.2,1.9-0.4,3.8-0.6,5.8
		c-0.2,1.7-0.3,3.3-0.5,5c-0.2,1.9-0.4,3.9-0.6,5.8c-0.2,1.7-0.3,3.4-0.5,5c-0.2,2-0.4,3.9-0.6,5.9c-0.2,1.9-0.4,3.9-0.6,5.8
		c-0.2,2.5-0.5,4.9-0.7,7.4c-0.2,2.2-0.4,4.3-0.7,6.5c-0.2,2.2-0.4,4.4-0.7,6.5c-0.2,2.5-0.5,4.9-0.7,7.4c-0.2,2.4-0.5,4.9-0.7,7.3
		c-0.2,1.7-0.3,3.3-0.5,5c0,0.2,0,0.3,0,0.5C147.9,152.7,147.9,152.8,147.7,152.7z"/>
	<path class="st0" d="M146.1,51.7c0.3-5,0.6-9.9,0.9-14.9c0.3-4.7,0.6-9.5,0.9-14.2c0.2-2.8,0.3-5.6,0.5-8.3c0-0.1,0-0.2,0-0.3
		c0.1-0.3-0.1-0.4-0.4-0.3c-2.3,0.7-4.6,1.5-6.9,2.2c-9.5,3.1-19,6.1-28.5,9.2c-0.3,0.1-0.4,0-0.5-0.2c-0.9-1.6-1.8-3.3-2.7-4.9
		c-0.2-0.3-0.1-0.4,0.2-0.5c9.4-3,18.9-6,28.3-9c5.5-1.8,11.1-3.5,16.6-5.3c0,0,0.1,0,0.1,0c0.3-0.1,0.4-0.1,0.4,0.3
		c-0.1,1-0.1,2-0.2,3c-0.1,1.9-0.2,3.7-0.4,5.6c-0.1,2.3-0.3,4.6-0.4,6.9c-0.1,1.8-0.2,3.6-0.3,5.4c-0.1,2.3-0.3,4.6-0.4,6.9
		c-0.1,1.8-0.2,3.6-0.3,5.4c-0.2,2.7-0.3,5.5-0.5,8.2c-0.1,2.1-0.3,4.2-0.4,6.3c0,0.3-0.1,0.3-0.4,0.3c-1.7-0.2-3.5-0.4-5.2-0.6
		c-0.3,0-0.5-0.1-0.4-0.5C146,52.2,146,52,146.1,51.7C146.1,51.7,146.1,51.7,146.1,51.7z"/>
	<path class="st0" d="M11.3,119.4c0.3,0,0.2,0.2,0.3,0.3c0.4,1.7,0.9,3.4,1.3,5.1c1.4,5.5,2.8,10.9,4.2,16.4
		c0.1,0.2,0.1,0.3,0.4,0.4c6,1.3,12,2.6,18,3.9c6.6,1.4,13.1,2.8,19.7,4.2c0.3,0.1,0.3,0.2,0.3,0.5c-0.4,1.8-0.8,3.7-1.2,5.5
		c-0.1,0.3-0.2,0.4-0.5,0.3c-4.1-0.9-8.3-1.9-12.4-2.8c-8.4-1.9-16.8-3.8-25.2-5.7c-1.2-0.3-2.5-0.6-3.7-0.8
		c-0.3-0.1-0.4-0.2-0.5-0.5c-2.2-8.2-4.3-16.5-6.5-24.7c-0.1-0.3,0-0.4,0.3-0.5c1.8-0.5,3.5-0.9,5.2-1.4
		C11.2,119.5,11.2,119.4,11.3,119.4z"/>
	<path class="st0" d="M76.4,9.3c10.2,0,20.4,0,30.7,0c0.4,0,0.5,0.1,0.5,0.5c0,1.8,0,3.6,0,5.4c0,0.3-0.1,0.4-0.4,0.4
		c-2.3,0-4.6,0-7,0c-18.1,0-36.3,0-54.4,0c-0.7,0-0.6,0.1-0.6-0.6c0-1.8,0-3.5,0-5.3c0-0.4,0.1-0.4,0.5-0.4
		C55.9,9.3,66.1,9.3,76.4,9.3z"/>
	<path class="st0" d="M115.3,80.4c0.6,1.7,1.2,3.4,1.8,5c0.7,1.9,1.5,3.8,2.3,5.7c0.3,0.6,0.6,1.2,0.9,1.8c0.1,0.1,0.1,0.3,0.1,0.4
		c-0.1,1-0.1,2-0.3,3c-0.1,0.6-0.3,1.2-0.6,1.8c-0.1,0.4-0.4,0.7-0.6,1c-0.3,0.4-0.7,0.7-1.1,1c-0.5,0.3-1,0.5-1.5,0.6
		c-1,0.1-1.9,0.1-2.8-0.3c-0.7-0.3-1.2-0.8-1.6-1.4c-0.8-1.2-1.1-2.6-1.4-4c-0.1-0.6,0-1.2-0.1-1.7c0-0.1,0-0.3,0-0.4
		c1.6-4.1,3.2-8.3,4.9-12.4C115.2,80.6,115.2,80.5,115.3,80.4z"/>
	<path class="st0" d="M124.7,81.9c-0.1,0-0.1-0.1-0.2-0.1c-0.5-0.4-1.1-0.9-1.6-1.3c-0.2-0.1-0.2-0.2,0-0.4
		c2.6-3.4,5.2-6.7,7.7-10.1c0.1-0.2,0.2-0.2,0.4,0c0.4,0.4,0.8,0.8,1.2,1.2c0.2,0.2,0.2,0.3,0.1,0.5c-2.5,3.3-4.9,6.7-7.3,10
		C124.8,81.8,124.8,81.9,124.7,81.9z"/>
	<path class="st0" d="M107.2,80.1c0,0.1-0.1,0.1-0.1,0.2c-0.3,0.5-0.5,0.9-0.8,1.4c-0.1,0.2-0.2,0.3-0.5,0.1
		c-1.3-0.9-2.6-1.7-3.9-2.5c-1.8-1.1-3.5-2.3-5.3-3.4c-0.3-0.2-0.3-0.3-0.1-0.5c0.3-0.4,0.5-0.8,0.7-1.3c0.1-0.3,0.2-0.3,0.5-0.1
		c2,1.3,3.9,2.5,5.9,3.8c1.1,0.7,2.2,1.4,3.3,2.1C107,79.9,107.1,80,107.2,80.1z"/>
	<path class="st0" d="M136,87.7c0.1,0,0.2,0.1,0.2,0.2c0.2,0.6,0.4,1.3,0.6,1.9c0.1,0.3-0.1,0.2-0.2,0.3c-1.2,0.4-2.4,0.7-3.5,1
		c-2,0.6-4,1.2-6,1.8c-0.3,0.1-0.4,0.1-0.5-0.2c-0.1-0.5-0.2-1.1-0.4-1.6c-0.1-0.3,0-0.4,0.3-0.5c2.2-0.6,4.4-1.3,6.6-2
		c0.9-0.3,1.8-0.5,2.7-0.8C135.9,87.7,136,87.7,136,87.7z"/>
	<path class="st0" d="M93.5,90.3c0.1-0.7,0.2-1.4,0.2-2.1c0-0.2,0.1-0.2,0.3-0.2c1.7,0.2,3.3,0.5,5,0.7c1.2,0.2,2.4,0.3,3.5,0.5
		c0.2,0,0.3,0.1,0.3,0.3c-0.1,0.7-0.2,1.3-0.2,2c0,0.2-0.1,0.3-0.4,0.3c-2-0.3-4-0.6-6-0.8c-0.8-0.1-1.6-0.2-2.5-0.3
		C93.5,90.6,93.4,90.6,93.5,90.3z"/>
	<path class="st0" d="M88.8,92.2c-1.4-0.2-2.7-0.4-4-0.6c-1.5-0.2-3-0.5-4.5-0.7c-0.3,0-0.4-0.1-0.3-0.4c0.1-0.5,0.2-1,0.3-1.6
		c0-0.3,0.1-0.4,0.4-0.3c2.8,0.4,5.6,0.8,8.4,1.3c0.3,0,0.4,0.2,0.3,0.4c-0.1,0.5-0.2,1.1-0.3,1.6C89,92.1,88.9,92.3,88.8,92.2z"/>
	<path class="st0" d="M83.5,77.1c0.1,0,0.1,0,0.2,0.1c2.1,0.7,4.2,1.4,6.3,2.1c0.3,0.1,0.3,0.2,0.2,0.4c-0.3,0.6-0.5,1.1-0.7,1.7
		c-0.1,0.2-0.2,0.2-0.4,0.2c-2.1-0.8-4.1-1.7-6.2-2.5c-0.1-0.1-0.3-0.1-0.2-0.3c0.2-0.5,0.4-1,0.5-1.5
		C83.3,77.2,83.3,77.1,83.5,77.1z"/>
	<path class="st0" d="M136.9,81c-0.1,0-0.1-0.1-0.2-0.2c-0.4-0.6-0.7-1.2-1.1-1.8c-0.1-0.2-0.1-0.3,0.1-0.4c1.7-0.9,3.3-1.8,5-2.7
		c0.2-0.1,0.2-0.1,0.3,0.1c0.3,0.6,0.7,1.3,1,1.9c0.1,0.1,0.1,0.2,0,0.3c-1.7,0.9-3.3,1.9-5,2.8C137,80.9,137,80.9,136.9,81z"/>
	<path class="st0" d="M142.7,87.9c-0.1,0-0.1-0.1-0.1-0.2c-0.2-0.6-0.4-1.3-0.6-1.9c-0.1-0.2,0-0.2,0.2-0.3c1.2-0.4,2.4-0.8,3.6-1.2
		c0.2-0.1,0.2,0,0.3,0.1c0.3,0.6,0.5,1.3,0.8,1.9c0.1,0.1,0,0.2-0.1,0.2C145.4,87.1,144.1,87.5,142.7,87.9
		C142.8,87.9,142.7,87.9,142.7,87.9z"/>
	<path class="st0" d="M94.3,71.4c-0.1,0.1-0.1,0.1-0.2,0.2c-0.4,0.4-0.9,0.8-1.3,1.3c-0.1,0.1-0.2,0.2-0.4,0c-0.7-0.7-1.3-1.3-2-2
		c-0.2-0.1-0.1-0.2,0-0.4c0.4-0.4,0.9-0.8,1.3-1.3c0.1-0.1,0.2-0.2,0.3,0c0.7,0.7,1.4,1.4,2.1,2C94.3,71.3,94.3,71.4,94.3,71.4z"/>
</g>
</svg>
