<?xml version="1.0" encoding="utf-8"?>
<!-- Generator: Adobe Illustrator 28.0.0, SVG Export Plug-In . SVG Version: 6.00 Build 0)  -->
<svg version="1.1" id="Layer_1" xmlns="http://www.w3.org/2000/svg" xmlns:xlink="http://www.w3.org/1999/xlink" x="0px" y="0px"
	 viewBox="0 0 156 156" width="156px" height="156px"  style="enable-background:new 0 0 156 156;" xml:space="preserve">
<style type="text/css">
	.st0{fill:#0000FF;}
	.st1{fill:none;stroke:#0000FF;stroke-width:0.148;stroke-miterlimit:10;}
	.st2{fill:none;}
	.st3{fill:none;stroke:#0000FF;stroke-width:0.148;stroke-linejoin:round;stroke-miterlimit:10;}
</style>
<g id="DrawingGroup_1">
	<g>
		<path class="st0" d="M27.16,0c33.89,0,67.79,0,101.68,0c0,51.95,0,104.05,0,156c-33.89,0-67.79,0-101.68,0
			C27.16,104.05,27.16,51.95,27.16,0z M39.3,149.78c-2.07-2.07-4-4-6.07-6.07c29.9,0,59.65,0,89.54,0c-2.07,2.07-4,4-6.07,6.07
			c0-47.95,0-95.76,0-143.72c2.07,2.07,4,4,6.07,6.07c-29.9,0-59.65,0-89.54,0c2.07-2.07,4-4,6.07-6.07
			C39.3,54.02,39.3,101.83,39.3,149.78z"/>
		<path id="Drawing_1_0" class="st1" d="M27.16,0c33.89,0,67.79,0,101.68,0c0,51.95,0,104.05,0,156c-33.89,0-67.79,0-101.68,0
			C27.16,104.05,27.16,51.95,27.16,0z"/>
		<path id="Drawing_1_1" class="st1" d="M39.3,149.78c-2.07-2.07-4-4-6.07-6.07c29.9,0,59.65,0,89.54,0c-2.07,2.07-4,4-6.07,6.07
			c0-47.95,0-95.76,0-143.72c2.07,2.07,4,4,6.07,6.07c-29.9,0-59.65,0-89.54,0c2.07-2.07,4-4,6.07-6.07
			C39.3,54.02,39.3,101.83,39.3,149.78z"/>
	</g>
	<g>
		<path class="st0" d="M37.96,84.66c27.38,0,54.61,0,82,0c0,2.66,0,5.18,0,7.84c-27.38,0-54.61,0-82,0
			C37.96,89.84,37.96,87.32,37.96,84.66z"/>
		<rect x="37.96" y="84.66" class="st2" width="82.14" height="7.99"/>
	</g>
	<g>
		<path class="st0" d="M37.96,84.66c27.38,0,54.61,0,82,0c0,2.66,0,5.18,0,7.84c-27.38,0-54.61,0-82,0
			C37.96,89.84,37.96,87.32,37.96,84.66z"/>
		<path id="Drawing_3_0" class="st3" d="M37.96,84.66c27.38,0,54.61,0,82,0c0,2.66,0,5.18,0,7.84c-27.38,0-54.61,0-82,0
			C37.96,89.84,37.96,87.32,37.96,84.66z"/>
	</g>
	<g>
		<path class="st0" d="M38.56,68.23c27.38,0,54.61,0,82,0c0,2.66,0,5.18,0,7.84c-27.38,0-54.61,0-82,0
			C38.56,73.41,38.56,70.9,38.56,68.23z"/>
		<rect x="38.56" y="68.23" class="st2" width="82.14" height="7.99"/>
	</g>
	<g>
		<path class="st0" d="M38.56,68.23c27.38,0,54.61,0,82,0c0,2.66,0,5.18,0,7.84c-27.38,0-54.61,0-82,0
			C38.56,73.41,38.56,70.9,38.56,68.23z"/>
		<path id="Drawing_5_0" class="st3" d="M38.56,68.23c27.38,0,54.61,0,82,0c0,2.66,0,5.18,0,7.84c-27.38,0-54.61,0-82,0
			C38.56,73.41,38.56,70.9,38.56,68.23z"/>
	</g>
	<g>
		<path class="st0" d="M77.78,106.42c-0.74-0.59-1.33-1.18-2.07-1.78l0,0c-0.3-0.3-0.74-0.44-1.04-0.74l0.15,0.15
			c-0.3-0.15-0.74-0.44-1.04-0.59h0.15c-0.3-0.15-0.59-0.15-0.89-0.3c0.15,0,0.15,0.15,0.3,0.15c-0.59-0.3-1.04-0.44-1.63-0.74
			c0.15,0,0.15,0.15,0.3,0.15c-0.59-0.15-1.18-0.3-1.78-0.44c0.15,0,0.15,0,0.3,0c-1.18,0-2.37-0.15-3.55-0.15c0.15,0,0.3,0,0.44,0
			c-1.18,0.15-2.37,0.44-3.55,0.59c0.15,0,0.44,0,0.59,0c-1.18,0.44-2.22,0.89-3.4,1.33c0.3-0.15,0.59-0.44,0.89-0.59
			c-0.74,0.74-1.33,1.63-2.07,2.37c0.15,0,0.15-0.15,0.3-0.15c-0.44,0.74-1.04,1.48-1.48,2.22c0.15-0.15,0.15-0.44,0.3-0.59
			c0,0.44-0.15,1.04-0.15,1.48c0-0.15,0-0.3,0-0.44c0,0.44,0,1.04,0,1.48c0-0.15,0-0.15,0-0.3c0.15,0.44,0.15,0.89,0.3,1.33v-0.15
			c0.15,0.44,0.3,0.89,0.44,1.33c-0.15-0.3-0.3-0.44-0.44-0.74c6.81,7.7,13.47,15.54,20.28,23.24c-1.18,0-2.22,0-3.4,0
			c6.66-7.7,13.47-15.54,20.13-23.24c-0.15,0.15-0.3,0.44-0.44,0.59c0.15-0.44,0.44-1.04,0.59-1.48c0,0.15-0.15,0.3-0.15,0.44
			c0.15-0.44,0.15-0.89,0.3-1.33v0.15c0-0.44,0.15-0.89,0.15-1.33c0,0.15-0.15,0.15-0.15,0.3c0-0.44,0-1.04,0-1.48
			c0,0.3,0.15,0.44,0.15,0.74c-0.15-0.44-0.3-0.89-0.44-1.33c0,0.15,0.15,0.3,0.15,0.44c-0.3-0.44-0.74-0.74-1.04-1.18
			c0.15,0,0.15,0.15,0.3,0.15c-0.74-0.74-1.48-1.63-2.22-2.37c0.3,0.15,0.44,0.3,0.74,0.44c-1.18-0.44-2.22-0.89-3.4-1.33
			c0.15,0,0.44,0,0.59,0c-1.18-0.15-2.22-0.44-3.4-0.59c0.15,0,0.44,0,0.59,0c-1.18,0-2.52,0.15-3.7,0.15c0.15,0,0.15,0,0.3,0
			c-0.59,0.15-1.18,0.3-1.78,0.44c0.15,0,0.15-0.15,0.3-0.15c-0.44,0.3-1.04,0.44-1.48,0.74l0.15-0.15c-0.3,0.15-0.44,0.15-0.74,0.3
			h0.15c-0.3,0.15-0.74,0.44-1.04,0.59l0.15-0.15c-0.44,0.3-0.74,0.59-1.18,0.89l0.15-0.15C79.11,105.23,78.37,105.83,77.78,106.42z
			 M77.04,101.39c0.44-0.3,0.74-0.44,1.18-0.74c0.44-0.3,0.74-0.44,1.18-0.74c0.3-0.3,0.74-0.44,1.04-0.74
			c0.59-0.15,1.18-0.44,1.78-0.59c0.74-0.15,1.48-0.15,2.22-0.3c1.33-0.15,2.66-0.3,4-0.44c1.33,0.3,2.66,0.59,4,0.89
			c1.33,0.59,2.52,1.04,3.85,1.63c0.89,1.04,1.63,1.92,2.52,2.96c0.3,0.44,0.74,0.89,1.04,1.33c0.3,0.59,0.44,1.18,0.74,1.78
			c0.15,0.74,0.15,1.33,0.3,2.07c-0.15,0.59-0.15,1.04-0.3,1.63c-0.15,0.59-0.3,1.33-0.44,1.92c-0.3,0.59-0.44,1.18-0.74,1.78
			c-7.25,8.44-14.36,17.02-21.61,25.46c-7.4-8.58-14.65-17.02-22.05-25.61c-0.3-0.59-0.44-1.04-0.74-1.63
			c-0.15-0.59-0.15-1.33-0.3-1.92c0-0.59,0-1.18,0-1.78c0-0.59,0.15-1.33,0.15-1.92c0.59-1.04,1.04-2.07,1.63-3.11
			c0.89-1.04,1.63-1.92,2.52-2.96c1.33-0.59,2.52-1.04,3.85-1.63c1.33-0.3,2.81-0.59,4.14-0.89c1.33,0.15,2.52,0.3,3.85,0.44
			c0.74,0.15,1.48,0.15,2.22,0.3c0.59,0.15,1.33,0.44,1.92,0.59c0.3,0.3,0.74,0.44,1.04,0.74c0.3,0.3,0.74,0.44,1.04,0.74
			c0.44,0.3,0.74,0.44,1.18,0.74c0.3,0.3,0.59,0.44,0.89,0.74c-0.89,0-1.92,0-2.81,0C76.59,101.83,76.74,101.68,77.04,101.39z"/>
		<path id="Drawing_6_0" class="st1" d="M77.78,106.42c-0.74-0.59-1.33-1.18-2.07-1.78l0,0c-0.3-0.3-0.74-0.44-1.04-0.74l0.15,0.15
			c-0.3-0.15-0.74-0.44-1.04-0.59h0.15c-0.3-0.15-0.59-0.15-0.89-0.3c0.15,0,0.15,0.15,0.3,0.15c-0.59-0.3-1.04-0.44-1.63-0.74
			c0.15,0,0.15,0.15,0.3,0.15c-0.59-0.15-1.18-0.3-1.78-0.44c0.15,0,0.15,0,0.3,0c-1.18,0-2.37-0.15-3.55-0.15c0.15,0,0.3,0,0.44,0
			c-1.18,0.15-2.37,0.44-3.55,0.59c0.15,0,0.44,0,0.59,0c-1.18,0.44-2.22,0.89-3.4,1.33c0.3-0.15,0.59-0.44,0.89-0.59
			c-0.74,0.74-1.33,1.63-2.07,2.37c0.15,0,0.15-0.15,0.3-0.15c-0.44,0.74-1.04,1.48-1.48,2.22c0.15-0.15,0.15-0.44,0.3-0.59
			c0,0.44-0.15,1.04-0.15,1.48c0-0.15,0-0.3,0-0.44c0,0.44,0,1.04,0,1.48c0-0.15,0-0.15,0-0.3c0.15,0.44,0.15,0.89,0.3,1.33v-0.15
			c0.15,0.44,0.3,0.89,0.44,1.33c-0.15-0.3-0.3-0.44-0.44-0.74c6.81,7.7,13.47,15.54,20.28,23.24c-1.18,0-2.22,0-3.4,0
			c6.66-7.7,13.47-15.54,20.13-23.24c-0.15,0.15-0.3,0.44-0.44,0.59c0.15-0.44,0.44-1.04,0.59-1.48c0,0.15-0.15,0.3-0.15,0.44
			c0.15-0.44,0.15-0.89,0.3-1.33v0.15c0-0.44,0.15-0.89,0.15-1.33c0,0.15-0.15,0.15-0.15,0.3c0-0.44,0-1.04,0-1.48
			c0,0.3,0.15,0.44,0.15,0.74c-0.15-0.44-0.3-0.89-0.44-1.33c0,0.15,0.15,0.3,0.15,0.44c-0.3-0.44-0.74-0.74-1.04-1.18
			c0.15,0,0.15,0.15,0.3,0.15c-0.74-0.74-1.48-1.63-2.22-2.37c0.3,0.15,0.44,0.3,0.74,0.44c-1.18-0.44-2.22-0.89-3.4-1.33
			c0.15,0,0.44,0,0.59,0c-1.18-0.15-2.22-0.44-3.4-0.59c0.15,0,0.44,0,0.59,0c-1.18,0-2.52,0.15-3.7,0.15c0.15,0,0.15,0,0.3,0
			c-0.59,0.15-1.18,0.3-1.78,0.44c0.15,0,0.15-0.15,0.3-0.15c-0.44,0.3-1.04,0.44-1.48,0.74l0.15-0.15c-0.3,0.15-0.44,0.15-0.74,0.3
			h0.15c-0.3,0.15-0.74,0.44-1.04,0.59l0.15-0.15c-0.44,0.3-0.74,0.59-1.18,0.89l0.15-0.15C79.11,105.23,78.37,105.83,77.78,106.42z
			"/>
		<path id="Drawing_6_1" class="st1" d="M77.04,101.39c0.44-0.3,0.74-0.44,1.18-0.74c0.44-0.3,0.74-0.44,1.18-0.74
			c0.3-0.3,0.74-0.44,1.04-0.74c0.59-0.15,1.18-0.44,1.78-0.59c0.74-0.15,1.48-0.15,2.22-0.3c1.33-0.15,2.66-0.3,4-0.44
			c1.33,0.3,2.66,0.59,4,0.89c1.33,0.59,2.52,1.04,3.85,1.63c0.89,1.04,1.63,1.92,2.52,2.96c0.3,0.44,0.74,0.89,1.04,1.33
			c0.3,0.59,0.44,1.18,0.74,1.78c0.15,0.74,0.15,1.33,0.3,2.07c-0.15,0.59-0.15,1.04-0.3,1.63c-0.15,0.59-0.3,1.33-0.44,1.92
			c-0.3,0.59-0.44,1.18-0.74,1.78c-7.25,8.44-14.36,17.02-21.61,25.46c-7.4-8.58-14.65-17.02-22.05-25.61
			c-0.3-0.59-0.44-1.04-0.74-1.63c-0.15-0.59-0.15-1.33-0.3-1.92c0-0.59,0-1.18,0-1.78c0-0.59,0.15-1.33,0.15-1.92
			c0.59-1.04,1.04-2.07,1.63-3.11c0.89-1.04,1.63-1.92,2.52-2.96c1.33-0.59,2.52-1.04,3.85-1.63c1.33-0.3,2.81-0.59,4.14-0.89
			c1.33,0.15,2.52,0.3,3.85,0.44c0.74,0.15,1.48,0.15,2.22,0.3c0.59,0.15,1.33,0.44,1.92,0.59c0.3,0.3,0.74,0.44,1.04,0.74
			c0.3,0.3,0.74,0.44,1.04,0.74c0.44,0.3,0.74,0.44,1.18,0.74c0.3,0.3,0.59,0.44,0.89,0.74c-0.89,0-1.92,0-2.81,0
			C76.59,101.83,76.74,101.68,77.04,101.39z"/>
	</g>
	<g>
		<path class="st0" d="M94.06,57.43h-5.48c-2.37,2.96-5.18,5.03-7.99,6.36c-0.89,0.15-1.63,0.15-2.07,0.15
			c-1.18,0-2.66-0.3-4.14-0.74l-1.33,0.74h-1.63c-3.55,0-5.33-1.33-5.33-3.85c0-0.15,0.15-0.44,0.15-0.74c-2.66-0.15-4-1.48-4-3.7
			c0-0.3,0.15-0.59,0.15-1.04c-1.04-0.3-1.63-0.74-2.22-1.33c-0.44-0.59-0.74-1.33-0.74-2.37c0-0.74,0.3-1.48,0.89-2.37
			c-1.33-1.33-2.07-2.96-2.07-4.74c0-1.92,1.18-3.55,3.26-4.88c2.22-1.18,5.03-1.78,8.58-1.78h0.89c-0.3-2.22-1.04-4.29-2.07-6.36
			l-0.44-1.04c-1.33-2.37-1.92-4.29-1.92-5.62c0-3.55,1.92-5.92,5.62-6.81l1.04-0.3l1.92,8.14l6.66,7.25
			c0.44,0.59,1.18,1.63,2.37,3.11l1.04,1.33c1.04,1.48,1.78,2.52,2.22,2.81c0.44,0.3,1.18,0.44,2.22,0.44h4.29
			c1.18,2.81,1.92,5.77,1.92,8.73C95.83,51.65,95.24,54.61,94.06,57.43z M92.87,55.5c0.74-2.22,1.04-4.29,1.04-6.36
			c0-2.37-0.3-4.74-1.18-6.96c-3.11,0-4.88-0.3-5.77-0.59c-0.74-0.44-1.92-1.63-3.4-3.85c-0.59-0.89-1.63-2.07-2.81-3.7l-7.25-7.84
			l-1.48-6.66c-2.37,0.74-3.55,2.37-3.55,4.59c0,1.18,0.3,2.52,1.18,3.85l0.44,0.89c1.92,3.11,2.81,6.22,2.81,9.03v1.04h-1.18
			c-3.85,0-6.81,0.44-8.73,1.18c-1.92,0.74-2.81,1.92-2.81,3.55c0,1.33,0.44,2.52,1.48,3.55c0.89,1.04,2.22,1.48,3.7,1.48h2.07
			l6.66-2.96c-1.04-1.48-2.37-2.37-4-2.37c-0.44,0-1.04,0.15-1.63,0.3c-0.74,0.3-1.48,0.59-2.52,0.89l-1.63,0.15l-1.78-1.92h2.96
			c0.89-0.3,1.63-0.59,2.37-0.74c0.74-0.15,1.33-0.3,1.92-0.3c3.11,0,5.33,1.63,6.81,4.74l-1.33,0.59c1.63,0.74,2.66,2.07,3.55,4
			l-1.48,0.59c1.18,0.74,2.22,1.92,3.11,3.7l-2.22,1.04c1.18,0.89,2.22,2.22,2.96,3.85l-4.44,1.92c0.74,0.15,1.33,0.3,1.92,0.3H80
			c3.26-1.92,5.77-4.14,7.84-6.96H92.87z M76.3,50.17c-0.89-1.04-1.78-1.78-2.96-2.07l-5.48,2.37h-1.92c-1.78,0-3.11-0.3-4.14-0.74
			c-0.3,0.44-0.44,0.89-0.44,1.18c0,0.89,0.44,1.33,1.18,1.78c0.74,0.44,1.78,0.59,3.26,0.59h3.85L76.3,50.17z M77.78,54.47
			c0-0.15-0.15-0.15-0.3-0.3c-0.44-0.74-1.18-1.18-1.92-1.63l-5.62,2.52h-5.92v0.44c0,1.48,1.33,2.22,4.14,2.22h2.81L77.78,54.47z
			 M78.67,59.5c-0.3-0.3-0.3-0.44-0.44-0.59c-0.44-0.59-1.04-1.18-1.78-1.78l-5.18,2.37h-3.26v0.3c0,1.63,1.18,2.37,3.4,2.37h1.18
			L78.67,59.5z"/>
		<rect x="58.24" y="17.02" class="st2" width="37.74" height="47.07"/>
	</g>
</g>
</svg>
