<?xml version="1.0" encoding="utf-8"?>
<!-- Generator: Adobe Illustrator 28.0.0, SVG Export Plug-In . SVG Version: 6.00 Build 0)  -->
<svg version="1.1" id="Layer_1" xmlns="http://www.w3.org/2000/svg" xmlns:xlink="http://www.w3.org/1999/xlink" x="0px" y="0px"
	 viewBox="0 0 156 156" width="156px" height="156px"  style="enable-background:new 0 0 156 156;" xml:space="preserve">
<style type="text/css">
	.st0{fill:#FF0000;enable-background:new    ;}
</style>
<path class="st0" d="M0,156C0,104,0,52,0,0c0.2,0,0.4,0,0.5,0c12.9,0,25.9,0,38.8,0c38.7,0,77.4,0,116.1,0c0.6,0,0.5-0.1,0.5,0.5
	c0,0,0,0.1,0,0.1c0,51.6,0,103.2,0,154.7c0,0.6,0,0.6-0.6,0.6c-51.6,0-103.2,0-154.8,0C0.4,156,0.2,156,0,156z M24.1,108.9
	c0-0.2,0-0.2,0-0.3c-0.4-2.8-0.8-5.6-1.2-8.4c-0.2-1.5-0.4-3-0.7-4.5c0-0.3-0.1-0.4-0.4-0.3c-0.4,0.2-0.4,0.2-0.5-0.3
	c-1.1-4.6-2.3-9.2-3.4-13.8c-1.7-7-3.4-14-5.2-21c-0.1-0.3,0-0.4,0.3-0.5c4.2-1.5,8.4-3,12.6-4.6c0.7-0.2,0.7-0.2,0.6-1
	c-0.2-5.2-0.3-10.4-0.5-15.6c-0.2-6.9-0.4-13.9-0.6-20.8c0-0.7,0-0.7,0.6-0.6c0.1,0,0.2,0,0.3,0c1.8,0.4,3.5,0.6,5.3,0.8
	c4.7,0.6,9.3,1.3,14,1.6c3.2,0.2,6.4,0.6,9.6,0.9c3.5,0.3,6.9,0.5,10.4,0.7c3.3,0.2,6.6,0.3,9.8,0.4c3.2,0.1,6.4,0,9.5-0.1
	c2.5-0.1,5.1-0.2,7.6-0.4c2.6-0.2,5.2-0.3,7.8-0.6c2.8-0.3,5.6-0.4,8.3-0.7c1.4-0.2,2.8-0.2,4.2-0.3c1.9-0.2,3.8-0.5,5.7-0.7
	c2.3-0.2,4.5-0.4,6.8-0.7c3.5-0.4,6.9-0.8,10.4-1.3c0.4-0.1,0.5,0.1,0.5,0.4c0,2,0.1,3.9,0.2,5.9c0.1,3.9,0.2,7.7,0.3,11.6
	c0.1,4.8,0.3,9.7,0.4,14.5c0.1,2.9,0.2,5.7,0.2,8.6c0.1,2.1,0.1,4.3,0.2,6.4c0,0.3-0.1,0.4-0.4,0.3c-0.3,0-0.5,0-0.8,0
	c-0.9,0-0.8,0-0.8,0.9c0.2,4.4,0.3,8.9,0.5,13.3c0.1,3.4,0.3,6.9,0.4,10.3c0.2,3.7,0.3,7.5,0.5,11.2c0.1,1.8,0.2,3.7,0.2,5.6
	c0,0.2,0,0.3,0.3,0.3c0.6,0,1.1,0.1,1.7,0.1c0.6,0,1.3,0.1,1.9,0.1c0.6,0.1,1.2,0.3,1.7,0.3c1.2,0.2,2.3,0.6,3.4,1.1
	c0.7,0.3,1.4,0.7,2.1,1.2c0.1,0.1,0.2,0.1,0.2-0.1c0-0.1,0-0.2,0-0.3c0-33.8,0-67.5,0-101.3c0-0.4-0.1-0.5-0.5-0.5
	c-46.9,0-93.9,0-140.8,0C6.6,6.8,6.5,7,6.5,7.3c0,4.7,0,9.4,0,14.1c0,29.7,0,59.4,0,89.2c0,0.2,0,0.3,0,0.6c0.3-0.3,0.6-0.6,0.9-0.9
	c0.6-0.5,1.2-0.9,1.9-1.4c0.6-0.5,1.2-0.8,1.9-1.1c0.9-0.4,1.8-0.8,2.7-0.9c0.8-0.1,1.5-0.3,2.3-0.3c1.7-0.1,3.3,0.2,4.9,0.7
	c0.5,0.2,1,0.4,1.5,0.7C23.1,108.2,23.6,108.4,24.1,108.9z M132.5,42.2C132.5,42.2,132.5,42.2,132.5,42.2c0-0.3,0-0.7,0-1
	c-0.1-4.3-0.2-8.6-0.3-12.9c0-2.1-0.1-4.1-0.1-6.2c0-0.3-0.1-0.4-0.4-0.4c-0.7,0.2-1.4,0.2-2.1,0.4c-1.6,0.3-3.3,0.3-5,0.5
	c-1.6,0.2-3.2,0.4-4.8,0.6c-1.6,0.2-3.3,0.3-4.9,0.5c-2.3,0.3-4.6,0.5-6.9,0.8c-1.3,0.1-2.6,0.2-3.8,0.3c-1.2,0.1-2.3,0.2-3.5,0.3
	c-1,0.1-2.1,0.1-3.1,0.2c-2.3,0.3-4.6,0.4-6.9,0.5C87.9,26,85,26,82.1,26.1c-2.5,0.1-5,0-7.5-0.1c-4.3-0.2-8.7-0.3-13-0.7
	c-2.4-0.2-4.9-0.3-7.3-0.6c-3.4-0.4-6.8-0.5-10.2-0.9c-2.5-0.3-5-0.5-7.5-0.7c-2.2-0.2-4.4-0.5-6.7-0.7c-0.3,0-0.4,0-0.4,0.4
	c0.1,3.6,0.2,7.2,0.3,10.8c0.1,4.6,0.3,9.2,0.4,13.9c0.1,2,0.1,3.9,0.2,5.9c0,0.2,0,0.5,0.3,0.3c2.1-0.7,4.2-1.4,6.2-2.1
	c4.9-1.6,9.8-3.4,14.8-5.1c5.8-2,11.7-4.1,17.5-6.1c0.3-0.1,0.4-0.1,0.5,0.3c1.8,5.8,3.6,11.6,5.5,17.4c0.8,2.5,1.6,5,2.4,7.6
	c0.1,0.3,0.2,0.4,0.5,0.4c0.3,0,0.7-0.1,1-0.1c2.4-0.1,4.8-0.3,7.2-0.4c2.9-0.2,5.8-0.4,8.7-0.5c2.8-0.2,5.6-0.3,8.4-0.5
	c2.8-0.2,5.7-0.3,8.5-0.5c2.4-0.1,4.8-0.3,7.2-0.4c2.9-0.2,5.9-0.4,8.8-0.5c1.5-0.1,3-0.2,4.6-0.3c0.3,0,0.3-0.1,0.3-0.4
	c0-0.6,0-1.2,0-1.8C132.8,54.5,132.7,48.3,132.5,42.2z M131.2,105.3C131.3,105.3,131.3,105.3,131.2,105.3c0.1-0.1,0.1-0.3,0.1-0.4
	c-0.2-3.5-0.3-7.1-0.5-10.6c-0.2-3.8-0.3-7.7-0.5-11.5c-0.2-5-0.5-10.1-0.7-15.1c0-0.3-0.1-0.4-0.4-0.4c-2.6,0.2-5.2,0.3-7.8,0.5
	c-2.3,0.1-4.6,0.3-7,0.3c-3.4,0.1-6.8,0.4-10.2,0.6c-4.1,0.2-8.2,0.5-12.3,0.7c-4.1,0.2-8.3,0.5-12.4,0.7c-0.4,0-0.4,0.1-0.3,0.5
	c0.4,1.3,0.8,2.6,1.2,3.9c0.1,0.3,0,0.3-0.2,0.4c-0.7,0.2-1.3,0.4-2,0.5c-0.3,0.1-0.3,0.1-0.2,0.4c1,2.1,1.9,4.3,2.9,6.3
	c0.4,0.8,0.8,1.7,1.2,2.6c2.4,5.3,4.8,10.7,7.3,16c1.5,3.2,2.9,6.4,4.4,9.6c0.6,1.3,1.2,2.7,1.9,4c0.2,0.4,0.3,0.4,0.7,0.2
	c1.2-0.7,2.5-1.3,3.9-1.7c1.2-0.3,2.4-0.5,3.7-0.6c0.4,0,0.5-0.1,0.4-0.5c0-1-0.1-1.9,0.1-2.9c0.2-0.9,0.3-1.9,0.7-2.8
	c0.4-1.1,0.9-2.1,1.5-3.1c0.2-0.4,0.4-0.8,0.7-1.2c0.4-0.5,0.8-0.9,1.2-1.4c0.6-0.6,1.2-1.2,1.8-1.7c0.8-0.6,1.6-1.2,2.5-1.7
	c0.5-0.3,1.1-0.6,1.6-0.8c0.8-0.2,1.5-0.5,2.3-0.6c1.4-0.2,2.8-0.2,4.1,0c1.6,0.2,2.9,0.9,4.3,1.8c1.4,0.9,2.4,2.1,3.4,3.3
	c0.5,0.6,1,1.4,1.3,2.2C130.4,103.6,130.8,104.5,131.2,105.3z M17.7,62.9c0,0,0,0.1,0,0.2c0.5,1.8,0.9,3.6,1.4,5.3c1,4,2,8,3.1,12
	c0.8,3,1.5,6,2.3,9c0.1,0.3,0.2,0.3,0.5,0.2c5.2-1.8,10.3-3.7,15.5-5.4c3.8-1.3,7.6-2.7,11.4-4c4.9-1.7,9.8-3.5,14.6-5.2
	c2.8-1,5.6-2,8.4-3c0.3-0.1,0.3-0.2,0.2-0.5c-0.4-1.2-0.8-2.4-1.2-3.6c-2.3-7.1-4.6-14.3-6.9-21.4c-0.2-0.5-0.2-0.5-0.7-0.4
	c-0.1,0-0.3,0.1-0.4,0.1c-5.8,1.9-11.5,4-17.3,5.9c-4.1,1.3-8.2,2.8-12.3,4.2c-4.6,1.6-9.2,3.2-13.8,4.8c-1.5,0.5-3,1-4.5,1.5
	C17.8,62.6,17.6,62.6,17.7,62.9z M82,99.2c-0.5-1-0.9-1.9-1.3-2.9c-1.9-4.2-3.7-8.4-5.7-12.6c-0.9-2-1.8-4-2.6-6
	c-0.1-0.3-0.3-0.4-0.6-0.3c-2,0.7-3.9,1.4-5.9,2.1c-4.9,1.7-9.8,3.6-14.7,5.2c-4.9,1.7-9.8,3.5-14.7,5.3c-2.7,1-5.5,2-8.2,3
	c-0.3,0.1-0.4,0.2-0.3,0.5c0.3,1.7,0.5,3.5,0.7,5.2c0.1,0.4,0.1,0.9,0.2,1.4c1.1-1.2,2.3-2.3,3.6-3.2c0.6-0.4,1.3-0.8,1.9-1
	c0.9-0.3,1.9-0.6,2.9-0.7c1.1-0.1,2.2-0.2,3.3,0c1.6,0.3,3.2,1,4.7,1.7c1.8,0.9,3.4,2.1,4.8,3.6c0.8,0.8,1.6,1.7,2.2,2.8
	c1.3,2.3,1.8,4.8,1.9,7.5c0,1,0,1,1,0.7c0.7-0.2,1.3-0.3,2-0.3c0.8,0,1.5,0.1,2.3,0.2c0.5,0.1,1,0.1,1.4,0.3c0.5,0.3,1,0.3,1.5,0.6
	c0.9,0.4,1.8,0.7,2.6,1.3c0.2,0.2,0.3,0.1,0.3-0.1c0.1-0.5,0.1-1,0.2-1.6c0.2-1.1,0.6-2.2,1-3.2c0.6-1.6,1.4-3,2.5-4.3
	c0.7-0.9,1.6-1.6,2.4-2.2c1.3-0.9,2.6-1.7,4.1-2.2c1.6-0.6,3.2-1,5-1C81,99.2,81.5,99.3,82,99.2z M57.4,148.4c1.2,0,2.4,0,3.6,0
	c0.6,0,1.1,0,1.7,0c0.2,0,0.3,0,0.2-0.2c-0.5-1-0.6-2-0.6-3.1c-0.1-1.8,0.1-3.6,0.8-5.4c0.5-1.3,1-2.5,1.6-3.7
	c0.4-0.8,0.9-1.5,1.5-2.2c0.6-0.6,1.1-1.3,0.9-2.2c0-0.2,0-0.4,0-0.6c0-1.3-0.1-2.6-0.4-3.9c-0.2-1.2-0.5-2.4-1-3.6
	c-0.3-0.7-0.6-1.4-1-2.1c-0.6-1-1.4-2-2.4-2.6c-0.8-0.5-1.7-0.9-2.6-1.2c-1-0.3-1.9-0.4-2.9-0.3c-0.8,0.1-1.7,0.2-2.4,0.6
	c-1,0.5-1.9,1.1-2.7,1.9c-0.6,0.6-1.2,1.2-1.6,1.9c-0.8,1.1-1.3,2.4-1.6,3.7c-0.2,0.8-0.3,1.7-0.3,2.5c0,0.6,0.1,1.2,0.2,1.8
	c0.1,0.8,0.4,1.5,0.7,2.2c0.1,0.2,0.1,0.3-0.1,0.4c-0.1,0.1-0.2,0.2-0.3,0.2c-0.2,0.1-0.2,0.2,0,0.3c1,1,1.6,2.2,1.9,3.5
	c0.5,1.8,0.9,3.7,1.1,5.5c0.2,2,0.3,3.9,0.3,5.9c0,0.3,0.1,0.4,0.4,0.4C54,148.4,55.7,148.4,57.4,148.4z M104.9,148.4
	c1.5,0,3,0,4.6,0c0.5,0,0.5,0,0.5-0.5c-0.1-1.1-0.1-2.2-0.1-3.2c0-1,0.1-2,0.4-3c0.4-1.6,0.7-3.2,1.3-4.8c0.4-1.1,1-2.1,1.5-3.1
	c0.2-0.3,0.3-0.6,0.3-1c0-1.5,0-3,0-4.5c0-1.4-0.4-2.6-0.9-3.8c-0.3-0.9-0.8-1.8-1.4-2.6c-0.3-0.4-0.7-0.7-1.1-1.1
	c-0.4-0.4-0.8-0.8-1.3-1.1c-0.7-0.5-1.4-0.8-2.2-1c-1.2-0.4-2.4-0.7-3.7-0.7c-1.9,0-3.5,0.8-4.8,2c-1,0.9-1.6,2-2.3,3.1
	c-0.5,0.8-0.8,1.6-1.1,2.4c-0.2,0.7-0.4,1.4-0.5,2.1c-0.1,0.8-0.2,1.7,0,2.5c0.3,1.5,0.9,2.9,1.9,4.1c0.5,0.7,1,1.4,1.4,2.2
	c0.5,1,1,2,1.5,3c0.2,0.3,0.3,0.7,0.3,1.1c0,0.9,0,1.8,0.2,2.7c0.2,1.6,0.3,3.3,0.5,4.9c0,0.3,0.1,0.4,0.4,0.4
	C101.8,148.4,103.4,148.4,104.9,148.4z M14.6,148.4c-0.1-0.2-0.2-0.4-0.2-0.6c-0.3-1.1-0.4-2.2-0.4-3.4c0-1.1,0.2-2.2,0.3-3.4
	c0.3-1.9,0.6-3.8,1.3-5.6c0.8-2,1.9-3.7,3.3-5.4c0.3-0.4,0.7-0.8,1.1-1.2c0.8-0.8,1.6-1.4,2.5-2.1c1.1-0.8,2.2-1.6,3.4-2.1
	c0.1-0.1,0.3-0.1,0.2-0.3c0-0.4,0.1-0.9,0.1-1.3c0-0.9-0.2-1.7-0.4-2.6c-0.3-1.3-0.9-2.4-1.6-3.5c-0.5-0.8-1.1-1.5-1.8-2.2
	c-0.6-0.6-1.3-1.1-2-1.5c-0.9-0.5-1.9-0.9-3-0.9c-0.6,0-1.3,0-1.9,0.1c-0.9,0.2-1.7,0.5-2.5,0.9c-0.6,0.3-1,0.7-1.6,1.1
	c-0.8,0.6-1.5,1.4-2,2.2c-0.5,0.8-0.9,1.7-1.1,2.6c-0.5,1.5-0.9,3.1-1.3,4.6c-0.2,0.6-0.2,1.3-0.4,1.9c-0.1,0.5-0.3,1-0.3,1.5
	c0,6.8,0,13.7,0,20.5c0,0.3,0.1,0.4,0.4,0.4c1.1,0,2.1,0,3.2,0C11.6,148.4,13.1,148.4,14.6,148.4z M33.3,148.4c4.1,0,8.1,0,12.2,0
	c0.1,0,0.2,0,0.3,0c0.1,0,0.2,0,0.2-0.2c0.2-1.4,0.2-2.9,0.1-4.3c-0.1-1.4-0.4-2.9-0.8-4.3c-0.5-1.6-1.2-3.1-2.1-4.5
	c-0.8-1.2-1.8-2.2-2.9-3.1c-0.7-0.6-1.5-1.1-2.3-1.5c-0.5-0.3-1.1-0.5-1.6-0.7c-0.7-0.2-1.3-0.4-2-0.5c-1-0.1-2-0.2-3-0.1
	c-0.6,0-1.2,0.1-1.8,0.3c-1.2,0.3-2.3,0.8-3.3,1.5c-1.3,0.9-2.4,1.9-3.3,3.2c-1.1,1.5-2,3.2-2.6,5c-0.2,0.9-0.5,1.7-0.6,2.6
	c-0.2,0.9-0.1,1.9-0.1,2.8c0,0.5,0.1,0.9,0.2,1.4c0.1,0.6,0.4,1.1,0.5,1.6c0.1,0.6,0.4,0.8,1,0.8C25.3,148.4,29.3,148.4,33.3,148.4z
	 M129.3,148.4c4.1,0,8.3,0,12.4,0c0.4,0,0.4-0.1,0.5-0.5c0-0.7-0.1-1.4-0.1-2.2c0-0.6-0.1-1.2-0.2-1.8c-0.2-0.9-0.4-1.8-0.5-2.7
	c-0.5-2.1-1.4-4-2.6-5.7c-0.9-1.3-1.9-2.4-3.3-3.2c-0.9-0.5-1.7-1.2-2.7-1.6c-0.9-0.4-1.9-0.8-2.9-0.8c-1,0-1.9,0.2-2.9,0.3
	c-1,0.2-1.9,0.3-2.8,0.6c-1.8,0.6-3.4,1.4-4.8,2.8c-1.3,1.2-2.1,2.7-2.7,4.4c-0.4,1.1-0.5,2.2-0.7,3.3c-0.3,2.2-0.3,4.3,0.2,6.4
	c0.2,0.7,0.2,0.7,0.9,0.7C121.1,148.4,125.2,148.4,129.3,148.4z M69.4,114.8c0,0.2,0,0.4,0,0.5c0.3,1.5,1,2.9,1.5,4.3
	c0.5,1.4,1.1,2.7,1.6,4.2c0.3,0.9,0.4,1.9,0.5,2.9c0,0.4,0.1,0.8,0.1,1.2c0,0.2,0.1,0.3,0.3,0.2c0.4-0.2,0.8-0.4,1.3-0.6
	c1.5-0.6,3-1,4.6-1.1c1.5-0.1,3-0.1,4.5,0.1c1.5,0.3,2.9,0.7,4.3,1.3c0.3,0.1,0.4,0.1,0.4-0.3c0-1.3,0.3-2.5,0.7-3.6
	c0.5-1.4,1.2-2.9,1.8-4.3c0.2-0.4,0.2-0.8,0-1.2c-0.4-0.8-0.8-1.7-1.2-2.6c-1.6-3.6-3.2-7.2-4.9-10.8c-0.1-0.2-0.2-0.4-0.3-0.5
	c-0.6-0.5-1.3-0.8-2.1-1c-1.6-0.4-3.1-0.2-4.6,0.2c-1.1,0.3-2.1,0.8-3,1.3c-1.5,0.8-2.7,2-3.6,3.4C69.9,110.5,69.5,112.6,69.4,114.8
	z M42,126.3c0.1-0.1,0.1-0.2,0.1-0.4c0-0.7,0-1.4,0.1-2.1c0.4-2,1.2-3.7,2.3-5.3c0.6-0.9,1.4-1.6,2.2-2.3c1-1,2.1-1.7,3.2-2.5
	c0.2-0.1,0.2-0.2,0.2-0.5c-0.4-2.2-0.7-4.5-1.4-6.7c-0.1-0.5-0.3-0.9-0.6-1.4c-0.7-1.2-1.5-2.4-2.6-3.3c-0.7-0.5-1.4-0.9-2.2-1.3
	c-0.5-0.3-1-0.3-1.5-0.4c-1.5-0.4-3-0.8-4.5-0.3c-0.8,0.2-1.6,0.3-2.4,0.5c-0.8,0.2-1.4,0.7-2.1,1.2c-0.8,0.6-1.4,1.4-1.9,2.2
	c-0.4,0.7-0.7,1.4-1,2.1c-0.1,0.3-0.2,0.6-0.2,1c0.7,4,1.5,8.1,2.2,12.1c0.2,1.3,0.5,2.6,0.7,3.9c0,0.2,0,0.4,0.3,0.4
	c1.1,0,2.2,0.1,3.2,0.4c1.1,0.2,2.1,0.6,3.1,1c0.9,0.4,1.7,0.8,2.4,1.5C41.9,126.3,41.9,126.3,42,126.3z M81.6,148.4c4,0,8,0,12.1,0
	c0.1,0,0.2,0,0.3,0c0.1,0,0.2,0,0.2-0.2c0-0.4,0-0.8-0.1-1.1c-0.2-1.7-0.3-3.4-0.7-5.2c-0.2-1.2-0.5-2.4-1.1-3.5
	c-0.9-1.8-2.3-3.2-3.9-4.3c-0.9-0.6-1.9-1.2-2.9-1.5c-1.3-0.5-2.6-1-4.1-1.1c-1.4-0.1-2.7,0-4,0.4c-1.2,0.4-2.3,0.8-3.3,1.6
	c-0.7,0.5-1.4,1.1-2,1.8c-0.7,0.7-1.3,1.5-1.8,2.3c-0.4,0.6-0.8,1.3-1.1,2c-0.5,1.1-0.8,2.3-1,3.5c-0.1,0.8-0.1,1.6,0,2.4
	c0.1,0.9,0.4,1.7,0.8,2.5c0.1,0.3,0.3,0.4,0.6,0.4C73.5,148.4,77.6,148.4,81.6,148.4z M119.1,127.3c0.2-0.1,0.4-0.2,0.6-0.3
	c1.4-0.8,2.7-1.8,4.3-2.2c0.2-0.1,0.2-0.2,0.2-0.4c0-1.3-0.1-2.6,0.1-3.9c0.1-1,0.3-1.9,0.6-2.9c0.1-0.2,0.2-0.4,0.2-0.7
	c0.2-0.8,0.7-1.5,0.9-2.3c0,0,0.1-0.1,0.1-0.1c0.7-0.6,1-1.5,1.4-2.3c0.4-0.8,0.3-1.8,0.3-2.6c0-0.8-0.1-1.7-0.3-2.5
	c-0.3-1.2-0.8-2.4-1.5-3.5c-0.5-0.7-1.1-1.4-1.8-2c-1-0.9-2-1.7-3.3-1.9c-0.5-0.1-0.9-0.1-1.4-0.2c-0.8-0.1-1.5,0-2.3,0.1
	c-0.9,0.1-1.7,0.5-2.6,0.8c-0.1,0-0.2,0.1-0.3,0.2c-0.3,0.2-0.5,0.4-0.8,0.6c-0.5,0.3-1,0.7-1.3,1.1c-0.6,0.8-1.4,1.5-1.8,2.4
	c0,0.1-0.1,0.2-0.2,0.3c-0.2,0.2-0.4,0.5-0.5,0.8c-0.3,0.8-0.7,1.6-0.9,2.4c-0.2,0.8-0.3,1.6-0.4,2.5c0,0.7,0,1.4,0.1,2.1
	c0,0.2,0.1,0.3,0.3,0.3c0.6,0.3,1.1,0.6,1.7,0.8c1.4,0.7,2.5,1.8,3.7,2.8c0.7,0.6,1.3,1.3,1.9,2c0.6,0.7,1.2,1.5,1.6,2.3
	c0.5,1,1,2,1.2,3.2c0.1,0.6,0.2,1.2,0.2,1.8C119.1,126.5,119.1,126.9,119.1,127.3z M148.3,133.4c0-4.9,0-9.7,0-14.6
	c0-0.2,0-0.4-0.1-0.6c-0.5-0.9-1.1-1.7-1.7-2.5c-0.7-0.8-1.4-1.7-2.4-2.2c-0.5-0.2-0.9-0.6-1.4-0.7c-0.7-0.2-1.3-0.5-2.1-0.6
	c-0.9-0.1-1.9-0.1-2.8,0c-0.8,0.1-1.6,0.6-2.2,1.1c-1.1,0.8-2.1,1.8-2.9,3c-0.1,0.1-0.1,0.2-0.2,0.3c-0.5,0.4-0.8,0.9-1.1,1.5
	c-0.4,0.6-0.7,1.3-1,2c-0.3,0.6-0.4,1.3-0.3,2c0.1,0.7,0.2,1.4,0.3,2c0,0.3,0.1,0.4,0.4,0.5c1.1,0.1,2.1,0.3,3.1,0.6
	c2.6,0.6,4.9,1.8,7,3.4c1.6,1.3,2.8,3,3.9,4.7c0.9,1.4,1.5,3,1.9,4.6c0.5,1.7,0.8,3.5,0.9,5.3c0.2,1.5,0.1,3.1,0.3,4.6
	c0,0.2,0,0.4,0,0.7c0,0.2,0.1,0.2,0.3,0.2c0.2,0,0.2-0.1,0.2-0.2c0-0.1,0-0.2,0-0.3C148.3,143,148.3,138.2,148.3,133.4z"/>
</svg>
