<?xml version="1.0" encoding="utf-8"?>
<!-- Generator: Adobe Illustrator 28.0.0, SVG Export Plug-In . SVG Version: 6.00 Build 0)  -->
<svg version="1.1" id="Layer_1" xmlns="http://www.w3.org/2000/svg" xmlns:xlink="http://www.w3.org/1999/xlink" x="0px" y="0px"
	 viewBox="0 0 156 156" width="156px" height="156px"  style="enable-background:new 0 0 156 156;" xml:space="preserve">
<style type="text/css">
	.st0{fill:#FF0000;}
</style>
<g>
	<rect x="0.1" y="23.2" class="st0" width="0.2" height="1"/>
	<path class="st0" d="M129.1,149.4c-0.2,0-0.2-0.1-0.2-0.2c0-0.2,0-0.3,0-0.5h0.4v0.4C129.3,149.1,129.3,149.4,129.1,149.4z"/>
	<path class="st0" d="M129.1,149.4c-0.2,0-0.2-0.1-0.2-0.2c0-0.2,0-0.3,0-0.5h0.4v0.4C129.3,149.1,129.3,149.4,129.1,149.4z"/>
	<rect x="0.1" y="23.2" class="st0" width="0.2" height="1"/>
	<path class="st0" d="M127.8,66.3l0.1,47.7c-0.2-0.1-0.5-0.2-0.7-0.4c-0.9-0.4-1.9-0.8-3-0.9c-0.5-0.1-1-0.2-1.5-0.3
		c-0.5,0-1-0.1-1.5-0.1c-0.5,0-1,0-1.5-0.1c-0.2,0-0.2-0.1-0.2-0.3c-0.1-1.6-0.1-3.1-0.2-4.7c-0.1-3.3-0.3-6.8-0.4-10.1
		c-0.1-2.7-0.2-5.5-0.3-8.3c-0.1-3.3-0.2-6.6-0.4-10c0-1-0.1-2.1-0.1-3.1c0-0.3,0.1-0.4,0.4-0.4s0.6,0,0.9,0s0.4,0,0.4-0.4
		c-0.1-2.9-0.2-5.8-0.2-8.7h-3.7c0,1.9,0.1,3.7,0.1,5.6c0,0.5,0,0.9,0,1.5c0,0.3-0.1,0.4-0.4,0.4c-1.3,0.1-2.6,0.1-3.9,0.2
		c-3,0.2-5.8,0.3-8.8,0.5c-2.1,0.1-4.2,0.2-6.3,0.4c-2.5,0.2-5,0.3-7.5,0.4c-2,0.1-4.1,0.2-6.2,0.4c-2.6,0.2-5,0.3-7.6,0.4
		c-2,0.1-4.2,0.2-6.3,0.4c-0.2,0-0.4,0-0.6,0l-7.2-22.6l-0.5,0.1c-0.1-0.1-0.2-0.1-0.4-0.1c-11,4.2-22.1,8-33,11.7l-0.5-27.3
		c2,0.2,4.1,0.4,6.1,0.6c1.7,0.2,3.5,0.3,5.2,0.5c3,0.4,5.9,0.5,8.9,0.8c2.1,0.2,4.3,0.3,6.4,0.5c3.8,0.3,7.6,0.4,11.4,0.6
		c2.1,0.1,4.4,0.2,6.5,0.1c2.5-0.1,5-0.1,7.5-0.2c2-0.1,4-0.2,5.9-0.4c0.8-0.1,1.6-0.1,2.6-0.1c1-0.1,2-0.2,3.1-0.3v-6.1
		c-27.2,2.8-52.5,1.2-63.9-4.3V30v-0.1L22,30l0.1,5.5l0,0c0,0.5,0,1,0,1.2c0,3.7,0.2,9.2,0.3,13v0.8v0.1c0,1.8,0.1,3.2,0.1,4.4
		l0.1,6v1.7v2.1c0,0.4-0.4,2-0.7,2.1c-1.2,0.4-2.6,0.8-3.8,1.4c-2.5,1-5,1.9-7.5,2.8c-0.2,0.1-0.3,0.2-0.2,0.4
		c1.5,6.2,3.1,12.4,4.5,18.6c1,4.1,1.9,8.1,3,12.2c0.1,0.4,0.1,0.4,0.5,0.3c0.2-0.1,0.2,0,0.3,0.2c0.2,1.7,0.5,3.3,0.7,4.9
		c0.3,2.2,0.6,4.4,0.9,6.5c0,0,0,0.1,0,0.2c-2.5-1.8-5.1-2.3-8.1-2c-2.4,0.3-4.4,1.4-6.1,2.9V24.4c28,0,56,0,84.1,0v-6.8L0,17.8v6.4
		h0.1v-1h0.2v1H0.1v131.2h0.2v0.6c0.2,0,0.3,0,0.5,0h134.6c0.5,0,0.5,0,0.5-0.5V66.3H127.8z M70.9,84.5l-1.4-4.3
		c3.6-0.2,7.1-0.4,10.5-0.6c3.6-0.2,7.2-0.4,10.7-0.6c4-0.2,8-0.4,12-0.7c3.2-0.2,6.3-0.3,9.4-0.5c0.7,0,0.7,0,0.7,0.6
		c0.1,3,0.3,6,0.4,9c0.2,3.8,0.3,7.8,0.5,11.6c0.1,2.9,0.2,5.7,0.4,8.5c0,1,0.1,2.2,0.1,3.3c0,0.1,0,0.2-0.1,0.3
		c-0.3-0.6-0.6-1.1-0.9-1.8c-0.5-1-1.1-2-1.8-2.8c-0.8-1-1.6-1.9-2.8-2.6c-1.2-0.8-2.6-1.5-4.1-1.6c-1.3-0.1-2.7-0.1-4.1,0.2
		s-2.7,0.9-3.9,1.8c-0.9,0.6-1.7,1.4-2.5,2.2c-0.3,0.4-0.7,0.8-1.1,1.2c-0.3,0.3-0.5,0.8-0.7,1.2c-0.5,0.8-0.8,1.7-1.2,2.6
		c-0.6,1.7-0.7,3.3-0.7,5.1c0,0.3-0.1,0.4-0.4,0.4c-1,0.1-2,0.3-3,0.5c-1.2,0.3-2.4,0.8-3.4,1.5c-0.2,0.1-0.3,0.2-0.5,0.3
		c-0.5-1.1-1-2.3-1.6-3.5c-4.6-10.2-9.2-20.5-13.9-30.6L70.9,84.5z M79.1,124c-0.5,1.2-1,2.5-1.5,3.7c-0.4,1-0.6,2.1-0.6,3.2
		c0,0.3-0.1,0.3-0.3,0.2c-1.2-0.5-2.6-0.9-4-1.1c-1.2-0.2-2.5-0.2-3.7-0.1c-1.8,0.1-3.5,0.7-5.1,1.5c-0.2,0.1-0.3,0-0.3-0.2
		c0-0.8-0.2-1.7-0.3-2.4c-0.1-0.8-0.3-1.8-0.7-2.5c-0.1-0.2-0.2-0.5-0.3-0.7c-0.5-1.1-0.9-2.4-1.3-3.5c-0.3-0.7-0.6-1.6-0.6-2.4
		c0.1-2,0.4-3.8,1.4-5.5c0.8-1.2,1.8-2.3,3.2-3c0.7-0.4,1.5-0.7,2.4-1c0.9-0.3,1.8-0.5,2.8-0.4c0.6,0,1.2,0.1,1.9,0.3
		c0.5,0.1,1,0.5,1.4,0.7c0.2,0.1,0.2,0.3,0.3,0.4c1.7,3.9,3.5,7.9,5.3,11.7C79.2,123.4,79.2,123.7,79.1,124z M15.2,74.4l43-14.7
		c0.9,2.9,1.8,5.8,2.8,8.6c1.4,4.4,2.9,8.8,4.2,13.2c0,0.1,0,0.1,0.1,0.2c0,0.2-0.2,0.2-0.3,0.2c-1.4,0.5-3,1-4.4,1.6
		c-13.1,4.7-26.2,9.3-39.2,14c-0.3,0.1-0.4,0.1-0.5-0.2C19,89.6,17.1,81.9,15.2,74.4z M12.8,139.3c-0.3,1.1-0.5,2.4-0.7,3.6
		c-0.1,1-0.3,2-0.3,3c0,1,0.1,2,0.4,2.9H6.4v-23.1c0.1-0.5,0.3-1,0.4-1.6c0.2-0.7,0.5-1.4,0.8-2.1c0.3-0.6,0.6-1.1,1-1.7
		c0.6-0.6,1.2-1.2,2-1.7c0.5-0.3,1-0.5,1.5-0.7c1-0.4,2.1-0.5,3.3-0.3c1.6,0.3,2.9,1.2,4,2.4c0.4,0.5,0.8,1,1.1,1.6
		c0.3,0.4,0.5,1,0.8,1.5c0.4,0.8,0.7,1.7,0.8,2.6c0.1,0.6,0.1,1.2,0.1,1.9c0,0.7-0.3,0.9-0.8,1.1c-0.9,0.4-1.7,1-2.6,1.7
		s-1.5,1.2-2.2,1.9c-1,1-2,2.3-2.8,3.6C13.7,137.1,13.2,138.1,12.8,139.3z M40,148c0,0.3,0,0.5,0,0.8H17.5c0,0,0-0.1,0-0.2
		c-0.1-0.5-0.3-0.9-0.4-1.5c-0.2-0.9-0.1-2-0.1-2.9c0-0.5,0.1-1,0.2-1.7c0-0.4,0.2-0.7,0.3-1c0.3-1,0.7-2.1,1.2-3.1
		c0.5-0.8,1-1.7,1.6-2.4c0.8-0.9,1.6-1.8,2.7-2.3c0.7-0.4,1.3-0.7,2.1-0.9c0.5-0.2,1.1-0.3,1.6-0.3c1.4-0.1,2.9,0,4.2,0.3
		c0.9,0.2,1.8,0.7,2.7,1.1c0.7,0.4,1.3,0.9,1.8,1.5c1,1,1.9,2.1,2.7,3.3c0.7,1.2,1.1,2.6,1.5,3.9c0.1,0.6,0.2,1.4,0.3,2
		C40.1,145.8,40,147,40,148z M38.2,123.4c-1,1.5-1.5,3.1-1.8,4.9c-0.1,0.4,0,0.8,0,1.2c0,0.1,0,0.2,0,0.2c-0.1,0-0.1,0-0.1-0.1
		c-0.6-0.5-1.3-0.9-2-1.2c-0.8-0.4-1.8-0.7-2.8-0.9c-0.9-0.2-1.8-0.3-2.9-0.3c-0.2,0-0.2-0.2-0.2-0.3c-0.2-1-0.4-2.1-0.6-3.1
		c-0.7-3.6-1.3-7.4-2-11.1c-0.1-0.3,0-0.6,0.1-0.8c0.3-0.5,0.5-1.1,0.8-1.8c0.4-0.7,1-1.5,1.6-2c0.9-0.8,1.9-1.2,3.2-1.5
		c0.6-0.1,1.2-0.2,1.8-0.4c0.4-0.1,0.8,0,1.2,0.1c0.8,0.2,1.7,0.4,2.6,0.6c0.4,0.1,0.8,0.4,1.1,0.5c0.8,0.3,1.3,0.8,1.9,1.5
		c0.8,0.7,1.3,1.7,1.7,2.7c0.5,1.1,0.7,2.5,1,3.7c0.2,0.9,0.3,1.9,0.5,2.8c0,0.2,0,0.4-0.2,0.5C41.2,120,39.6,121.5,38.2,123.4z
		 M58.2,135.2c0,0.3-0.2,0.5-0.4,0.7c-0.9,1-1.6,2.3-2.2,3.5c-0.3,0.6-0.6,1.4-0.8,2c-0.1,0.4-0.3,0.8-0.4,1.4
		c-0.3,1.2-0.4,2.5-0.3,3.7c0.1,0.7,0.1,1.5,0.4,2.2h-9.5c0-1.7-0.1-3.3-0.2-5c-0.1-1.7-0.5-3.2-0.8-4.8c-0.2-0.6-0.5-1.2-0.8-1.9
		c-0.2-0.5-0.5-0.9-0.9-1.2c-0.1-0.1-0.1-0.2,0-0.3c0.4-0.2,0.4-0.5,0.2-0.9c-0.4-0.8-0.5-1.8-0.6-2.7c-0.1-1.1,0.1-2.3,0.4-3.4
		c0.3-1.1,0.9-2.2,1.5-3.1c0.2-0.2,0.4-0.4,0.5-0.6c0.8-1,1.8-1.8,3.1-2.3c0.6-0.2,1.3-0.4,2-0.4c0.8,0,1.6,0,2.5,0.2s1.5,0.6,2.4,1
		c0.9,0.5,1.6,1.4,2.1,2.3c0.3,0.5,0.6,1.1,0.8,1.8c0.5,1.2,0.7,2.5,0.9,3.7C58.2,132.4,58.2,133.9,58.2,135.2z M57.6,115
		c-0.4,1.1-0.6,2.3-0.8,3.5c0,0.4-0.1,0.4-0.4,0.2c-0.7-0.5-1.4-0.7-2.1-1c-0.4-0.2-0.9-0.3-1.3-0.5c-0.4-0.2-0.8-0.2-1.2-0.3
		c-0.6-0.1-1.3-0.2-2-0.2c-0.6,0-1.1,0.1-1.7,0.2c-0.2,0-0.3,0-0.5,0.1c-0.4,0.1-0.4-0.1-0.4-0.4c0.1-0.9,0-1.8-0.2-2.7
		c-0.2-1.5-0.7-2.8-1.4-4.2c-0.8-1.6-2-2.8-3.3-3.8c-0.7-0.6-1.4-1.1-2.2-1.6c-1.1-0.6-2.4-1.1-3.6-1.6c-0.8-0.3-1.7-0.4-2.6-0.4
		c-1.1,0.1-2.2,0.2-3.3,0.5c-1.1,0.3-2,0.8-3,1.5s-1.7,1.5-2.6,2.3c0,0,0,0-0.1,0.1c-0.2-1.1-0.3-2.3-0.5-3.3
		c-0.1-0.8-0.2-1.7-0.4-2.4c0-0.3,0-0.4,0.3-0.5c4-1.5,8.1-2.9,12.1-4.4c8.6-3.1,17.3-6.2,25.9-9.3c0.3-0.1,0.4-0.1,0.6,0.2
		c2.8,6.1,5.5,12.4,8.2,18.5c0,0.1,0.1,0.2,0.1,0.3c-0.4,0.1-0.8-0.1-1.2-0.1c-1.5,0-3,0.3-4.3,0.8c-1.3,0.5-2.6,1.1-3.6,2
		c-1.2,0.9-2.4,1.9-3.1,3.3C58.4,113,58,113.9,57.6,115z M59.7,148.7c-0.3-0.6-0.5-1.2-0.6-2s-0.1-1.5,0-2.2c0.2-1,0.5-2.1,0.9-3
		c0.3-0.6,0.6-1.1,1-1.8c0.4-0.7,0.9-1.4,1.5-2c0.5-0.6,1.1-1.1,1.8-1.6c0.9-0.6,1.8-1.1,2.9-1.5c1.1-0.3,2.2-0.5,3.5-0.4
		c1.7,0.2,3.3,0.8,4.7,1.6c1.1,0.6,2.2,1.2,3.2,2.3c0.7,0.7,1.3,1.5,1.7,2.3c0.3,0.7,0.6,1.5,0.7,2.2c0.2,0.7,0.3,1.6,0.4,2.3
		c0.1,1.2,0.3,2.4,0.4,3.6L59.7,148.7z M98.7,135.6c0,0.3-0.1,0.6-0.3,0.9c-0.5,0.8-1,1.8-1.3,2.7c-0.5,1.4-0.9,2.8-1.1,4.3
		c-0.1,0.7-0.2,1.6-0.2,2.3c0,0.9-0.1,1.9,0,2.8h-8.9c-0.1-1.4-0.2-2.7-0.4-4.1c-0.1-0.8-0.1-1.6-0.1-2.4c0-0.3-0.1-0.6-0.2-0.9
		c-0.4-0.9-0.8-1.9-1.3-2.7c-0.3-0.5-0.6-1.1-1-1.7c-0.9-1.1-1.4-2.5-1.7-3.9c-0.2-0.9-0.1-1.9,0.1-2.8c0.1-0.2,0.1-0.4,0.1-0.6
		c0.3-0.9,0.6-1.8,1.1-2.6c0.5-1,1.2-2,2-2.7c1.2-1,2.6-1.8,4.2-1.8c1.1,0,2.2,0.3,3.3,0.6c0.7,0.2,1.3,0.5,1.9,0.9
		c0.4,0.3,0.7,0.6,1,0.9c0.5,0.4,0.9,1,1.3,1.7c0.3,0.5,0.6,1.1,0.8,1.8c0.2,0.7,0.5,1.5,0.6,2.3c0,0.2,0,0.3,0,0.5
		C98.7,132.7,98.7,134.2,98.7,135.6z M98.8,120.9c-0.8-0.7-1.7-1.5-2.7-2c-0.5-0.2-0.9-0.5-1.3-0.7c-0.1,0-0.2-0.1-0.2-0.2
		c-0.1-0.8-0.1-1.7,0-2.5c0.1-0.8,0.2-1.6,0.5-2.3c0.2-0.8,0.6-1.6,1-2.3c0.4-0.8,1-1.5,1.5-2.1c0.3-0.4,0.7-0.7,1.1-1
		c0.5-0.4,1.1-0.7,1.7-0.9c0.4-0.2,0.8-0.3,1.3-0.4c0.9-0.2,1.9-0.2,2.9-0.1c1,0.2,1.9,0.5,2.8,1.2c0.5,0.5,1,0.8,1.4,1.5
		c0.4,0.5,0.8,0.9,1.1,1.6c0.4,0.6,0.6,1.4,0.8,2c0.2,0.7,0.3,1.4,0.4,2.1s0,1.4,0,2c0,0.5-0.1,0.9-0.4,1.4c-0.2,0.3-0.3,0.7-0.6,1
		c-0.4,0.4-0.6,0.9-0.8,1.5c-0.6,1.5-0.8,2.9-1,4.4c-0.1,1,0,2.1-0.1,3.2c0,0.2,0,0.3-0.2,0.4c-1.4,0.4-2.6,1.2-3.8,2
		c-0.1,0.1-0.2,0.1-0.4,0.2v-1.1c0-0.5-0.1-1-0.2-1.5c-0.2-1-0.6-1.9-1-2.8c-0.4-0.7-0.9-1.5-1.4-2.1
		C100.3,122.5,99.6,121.6,98.8,120.9z M101.1,148.6c-0.3-1.2-0.4-2.6-0.3-3.9c0.1-1.9,0.4-3.7,1.1-5.5c0.7-1.6,1.7-2.8,3.1-3.8
		c0.9-0.7,2-1.2,3.2-1.6c0.9-0.3,1.7-0.3,2.7-0.5c0.7-0.2,1.5-0.2,2.2-0.2c0.9,0,1.7,0.3,2.6,0.6c0.9,0.4,1.7,1,2.7,1.7
		c1,0.7,1.9,1.7,2.7,2.7c1,1.6,1.8,3.1,2.2,5c0.2,0.8,0.3,1.6,0.5,2.4c0.1,0.5,0.1,1,0.1,1.6s0.1,1,0.1,1.6L101.1,148.6z
		 M127.7,139.9c-0.5-1.6-1.1-3.1-2-4.6c-0.5-0.7-0.9-1.5-1.5-2.1c-0.6-0.7-1.3-1.5-2.1-2c-2-1.5-4.3-2.3-6.6-2.8
		c-0.5-0.1-1-0.2-1.5-0.2c-0.2,0-0.3-0.1-0.4-0.4c0-0.6-0.1-1.2-0.2-1.9c-0.1-0.6,0-1.1,0.3-1.7s0.5-1.1,0.8-1.7
		c0.3-0.5,0.6-0.9,1-1.5c0.5-0.6,0.9-1.2,1.4-1.8c0.7-0.7,1.5-1.4,2.5-1.8c0.7-0.4,1.4-0.4,2.1-0.4c0.8,0,1.6,0.2,2.5,0.4
		c0.8,0.3,1.5,0.8,2.2,1.2c0.3,0.1,0.4,0.4,0.6,0.6c0.5,0.4,0.9,0.8,1.2,1.4v19.9C127.9,140.5,127.8,140.2,127.7,139.9z
		 M129.1,149.4c-0.2,0-0.2-0.1-0.2-0.2c0-0.2,0-0.3,0-0.5h0.4v0.4C129.3,149.1,129.3,149.4,129.1,149.4z"/>
	<path class="st0" d="M92.7,27.8c0.5,0,1-0.1,1.5-0.1c0.7-0.1,1.5-0.1,2.2-0.2c1-0.1,2-0.2,3.1-0.2c0.8-0.1,1.7-0.1,2.6-0.2
		c1-0.1,2-0.2,3.2-0.2c0.9-0.1,1.7-0.1,2.7-0.2c0.8-0.1,1.7-0.1,2.6-0.2l0,0c-1.3-1.4-2.7-2.7-4-4.2c0.2,0,0.4-0.1,0.7-0.1
		c2-0.4,4.2-0.7,6.2-1.1c0.8-0.1,1.6-0.3,2.4-0.4c0.1,0,0.1-0.1,0.1-0.2c-0.1-1-0.1-2-0.2-3c-0.1-1-0.1-2.1-0.2-3.1
		c0-0.7-0.1-1.5-0.1-2.2c0-0.1-0.1-0.1-0.1-0.1c-0.5,0-0.9,0-1.4,0c-0.1,0-0.1,0-0.1-0.1c0-0.6,0-1.1,0-1.8c0-0.1,0-0.2,0.1-0.2
		c0.5,0,0.9,0,1.4,0c0.1,0,0.2,0,0.1-0.2c-0.1-2.1-0.2-4.2-0.3-6.2c-0.1-1.1-0.1-2.2-0.2-3.3c0-0.1,0-0.2,0.2-0.2c0.5,0,1,0,1.5,0
		c0.1,0,0.2,0,0.2,0.1c1.8,3.2,3.7,6.3,5.5,9.6c0.1,0.1,0.2,0.2,0.3,0.2c2.9,0,5.7,0,8.6,0c0.2,0,0.3,0,0.3-0.2
		c0-0.1,0.1-0.2,0.1-0.3c0.1,0.1,0.1,0.2,0.2,0.3c0,0.1,0.1,0.2,0.3,0.2c0.4,0,0.7,0,1.1,0c0.1,0,0.1,0,0.1,0.1c0,0.6,0,1.1,0,1.8
		c0,0.1,0,0.1-0.1,0.1c-0.2,0-0.4,0-0.6,0c-0.2,0-0.2,0-0.1,0.2c0.3,1,0.6,2.1,0.9,3.1c0.4,1.5,0.8,2.9,1.2,4.3
		c0,0.1,0.1,0.2,0.2,0.1c1.7-0.6,3.5-1.1,5.3-1.8c0.2-0.1,0.2-0.1,0.1,0.1c-0.3,1.7-0.5,3.3-0.8,5c0,0.2,0,0.2,0.2,0.2
		c1.9-0.6,3.8-1.2,5.7-1.9c0.1,0,0.2-0.1,0.2-0.2c0.1-1.1,0.2-2.3,0.2-3.5c0.1-1.4,0.2-2.7,0.3-4.1c0-0.7,0.1-1.4,0.1-2.1
		c0-0.1,0-0.1,0-0.2c-0.4,0.1-0.7,0.2-1.1,0.4c-3.4,1.1-6.9,2.4-10.2,3.5c-0.1,0-0.2,0-0.2-0.1c-0.2-0.5-0.5-1-0.7-1.6
		c-0.1-0.1,0-0.1,0.1-0.2c2.5-0.8,5-1.7,7.5-2.6c2.1-0.7,4.3-1.5,6.4-2.2h0.1c0.1,0,0.1,0,0.1,0.1c0,0.4,0,0.8,0,1.2
		c0,1.1-0.1,2.3-0.1,3.4c-0.1,1.7-0.1,3.3-0.2,4.9c0,0.8-0.1,1.7-0.1,2.5c0,0.1,0,0.1,0.1,0.1c2.4-0.7,4.8-1.5,7.2-2.2
		c0.1,0,0.2,0,0.2,0.1c0.2,0.4,0.5,0.9,0.7,1.4c0.1,0.1,0,0.1,0,0.2c-1.2,1-2.5,2.2-3.6,3.2c-2.6,2.3-5.2,4.7-7.8,7
		c-0.8,0.7-1.7,1.6-2.6,2.3l-0.1,0.1c0.2,0.1,0.4,0.2,0.7,0.2c1.2,0.5,2.6,0.9,3.8,1.5c0.1,0,0.2,0,0.2-0.1c0.1-1,0.1-2,0.2-3
		c0-0.2,0-0.3,0-0.5c0-0.1,0-0.1,0.1-0.1c0.6,0.1,1.1,0.2,1.7,0.2c0.1,0,0.1,0.1,0.1,0.1c-0.1,0.6-0.1,1.2-0.2,1.9
		c-0.1,0.7-0.1,1.4-0.2,2.1c0,0.1,0,0.1,0.1,0.2c0.5,0.2,1.1,0.4,1.6,0.5c0.1,0,0.2,0.1,0.1,0.2c-0.1,0.5-0.1,1-0.2,1.6
		c0,0.1,0,0.1-0.1,0.1c-0.5,0-1,0.1-1.5,0.1c-0.1,0-0.2,0-0.2,0.2c-0.1,1.5-0.2,2.9-0.3,4.4c0,0.1,0,0.2,0.1,0.3
		c1.7,1.8,3.5,3.5,5.1,5.2c0.1,0.1,0.1,0.2,0,0.3c-0.2,0.4-0.4,0.8-0.6,1.1c0,0.1-0.1,0.1-0.2,0.1c-1.2-0.3-2.5-0.6-3.7-1
		c-0.4-0.1-0.8-0.2-1.3-0.4c-0.1,0-0.2,0-0.2,0.1c0,0.6-0.1,1.2-0.2,1.9c-0.1,1-0.2,2-0.3,3c-0.1,0.9-0.2,2-0.3,2.9
		c-0.1,0.6-0.1,1.1-0.2,1.8c0,0.1-0.1,0.1-0.1,0.1c-0.8-0.1-1.6-0.3-2.5-0.4c-1.4-0.2-2.9-0.4-4.2-0.7c-1.4-0.2-2.9-0.4-4.3-0.7
		c-1.4-0.2-2.9-0.5-4.3-0.7c-1.5-0.2-3.1-0.5-4.6-0.7c-0.8-0.1-1.7-0.3-2.6-0.4c-0.1,0-0.1,0-0.2,0.1c-0.6,1.5-1.2,2.9-1.8,4.5
		c-0.5,1.2-1,2.4-1.5,3.6c0,0,0,0.1-0.1,0.1c-1-5.2-2.1-10.3-3.2-15.4c-0.1,0-0.1,0.1-0.1,0.1c-1.1,2.7-2.2,5.5-3.3,8.2
		c0,0.1-0.1,0.2-0.2,0.2c-0.5,0-0.9-0.1-1.4-0.1c-0.1,0-0.1-0.1-0.1-0.1c0-0.4-0.1-0.8-0.1-1.2c-0.1-1-0.2-2.2-0.3-3.2
		c0-0.3-0.1-0.6-0.1-0.9c0-0.1,0-0.2-0.2-0.1c-0.8,0.2-1.5,0.5-2.4,0.7c-0.1,0-0.1,0-0.2,0.1c0.2-2.3,0.4-4.5,0.6-6.8
		c-0.3,0.1-0.6,0.2-0.9,0.3c-2.9,1-5.6,2.1-8.5,3.1c-0.1,0.1-0.2,0-0.3-0.1c-0.3-0.4-0.5-0.8-0.8-1.1c-0.1-0.1-0.1-0.1,0-0.2
		c1.2-1.5,2.6-2.9,3.8-4.4c0.1-0.1,0.1-0.2,0.1-0.3c-0.1-0.3-0.1-0.5-0.2-0.8c0-0.1-0.1-0.1-0.2-0.2c-0.9-0.3-1.8-0.7-2.7-1
		c0,0-0.1,0-0.1-0.1c0.1-0.1,0.2-0.2,0.3-0.3c0.6-0.6,1.1-1.1,1.7-1.8c0.1-0.1,0.1-0.1,0.1-0.2c-0.3-1.1-0.6-2.3-0.8-3.4
		c0-0.1-0.1-0.2-0.2-0.2C98.7,31.9,97,31,95.5,30c-1-0.6-2-1.2-3.1-1.9C92.7,28.3,92.7,28,92.7,27.8z M116.7,3.6
		c0,0.8,0.1,1.8,0.1,2.6c0.1,1.5,0.1,2.9,0.2,4.4c0.1,1.1,0.1,2.3,0.2,3.5c0.1,1.5,0.1,2.8,0.2,4.3c0.1,1.1,0.1,2.4,0.2,3.5
		c0,0.1,0,0.2-0.2,0.2c-0.5,0.1-1,0.2-1.5,0.3c-1.8,0.3-3.6,0.6-5.4,1c-0.2,0-0.5,0.1-0.8,0.1c1.3,1.6,2.8,3,4.1,4.6
		c-5.5,0.4-10.9,0.8-16.4,1.2c0.1,0.1,0.1,0.1,0.2,0.1c2.8,1.8,5.6,3.5,8.4,5.3c0.1,0.1,0.1,0.1,0,0.2c-1,1-2,2.2-3.1,3.2
		c-0.2,0.2-0.3,0.3-0.5,0.5h0.1c1,0.4,2,0.9,3.1,1.4c0.1,0.1,0.1,0.1,0,0.2c-1.1,1.5-2.4,2.9-3.5,4.4c0,0-0.1,0.1-0.1,0.2
		c0.1,0,0.1,0,0.2,0c2.1-0.7,4.2-1.5,6.3-2.3c0.7-0.3,1.5-0.6,2.4-0.5l0,0c0.1,0,0.2,0,0.1,0.1c-0.1,0.8-0.2,1.7-0.2,2.4
		c-0.1,1.2-0.2,2.5-0.4,3.6c0,0.1,0,0.2,0.1,0.1c0.6-0.2,1.2-0.4,1.8-0.6c0.1,0,0.2,0,0.2,0.1c0.1,1,0.2,2,0.4,3
		c0,0.3,0.1,0.7,0.1,1l0,0c1.4-3.4,2.8-7,4.2-10.4l0,0c1,5.1,2.1,10.3,3.2,15.4c0.1,0,0.1-0.1,0.1-0.1c1.1-2.8,2.4-5.5,3.5-8.3
		c0.6-1.6,1.3-3.1,1.9-4.7c0.1-0.1,0.1-0.1,0.2,0c1,1,1.9,2.1,3,3.2c0,0,0.1,0.1,0.2,0.1c-0.2-2-0.3-3.9-0.5-5.9
		c6.9,2,13.7,3.9,20.6,5.8l0,0c-3.3-3.3-6.5-6.5-9.8-9.9c2.1-0.2,4.3-0.4,6.4-0.6l0,0c-2.5-0.9-5-2-7.6-2.9c4.5-4.1,9.1-8,13.6-12
		c-0.1,0-0.1,0-0.2,0c-1.5,0.5-3.2,0.9-4.7,1.5c-3.3,1-6.4,2-9.7,3c-0.2,0-0.2,0-0.1-0.1c0.3-1.7,0.5-3.3,0.8-5c0-0.2,0-0.2-0.2-0.1
		c-1.4,0.4-2.9,0.8-4.3,1.4c-0.1,0-0.2,0-0.2-0.1c-0.7-2.4-1.4-4.8-2.2-7.1c0-0.1,0-0.1-0.1-0.2c-1.2,2.8-2.4,5.5-3.6,8.3
		C124,16.4,120.4,10,116.7,3.6z M131.5,52.1L131.5,52.1C131.4,52.1,131.4,52.1,131.5,52.1c-1.2-1.2-2.4-2.4-3.4-3.6
		c-0.4-0.5-0.9-1-1.3-1.5c-0.1-0.1-0.1-0.1-0.2,0c-0.4,0.9-0.8,1.9-1.1,2.8c-0.3,0.8-0.7,1.7-1,2.4c0,0.1,0,0.2,0.1,0.2
		s0.3,0,0.4,0.1c1.6,0.3,3.4,0.5,5,0.8s3.2,0.5,4.8,0.8c1.4,0.2,3,0.5,4.4,0.7c1.6,0.3,3.4,0.5,5,0.8c0.2,0,0.2,0,0.2-0.2
		c0.1-0.6,0.1-1.2,0.2-1.8c0.1-1,0.2-2.1,0.3-3.1c0.1-0.9,0.2-1.9,0.3-2.8c0-0.1,0-0.2-0.1-0.2c-2.4-0.6-4.6-1.2-7-1.9
		c-2.4-0.6-4.8-1.4-7.2-2c-0.2-0.1-0.2-0.1-0.2,0.1c0,0.5,0.1,1,0.1,1.5c0.1,0.9,0.2,2,0.3,2.9c0.1,0.8,0.2,1.8,0.2,2.6
		C131.4,51.3,131.5,51.7,131.5,52.1z M123.5,12c0,0.1,0.1,0.1,0.1,0.1c0.7,1.4,1.5,2.7,2.4,4.1c0.4,0.8,0.9,1.7,1.4,2.5
		c0,0,0,0.1,0.1,0.1s0.1-0.1,0.1-0.1c0.4-0.9,0.8-1.9,1.2-2.8c0.5-1.2,1.1-2.5,1.7-3.7c0.1-0.2,0.1-0.2-0.1-0.2c-2.2,0-4.4,0-6.6,0
		C123.6,12,123.6,12,123.5,12z M145.7,40.8C145.8,40.8,145.8,40.8,145.7,40.8c0.1-0.8,0.2-1.7,0.3-2.4c0-0.1,0-0.1-0.1-0.1
		c-0.5,0.1-0.9,0.1-1.4,0.1c-0.3,0-0.6,0.1-1,0.1C144.2,39.4,145,40.1,145.7,40.8z M103,34.9c0,0.2,0.1,0.3,0.1,0.5
		c0.3-0.2,0.3-0.2,0-0.4C103.1,34.9,103.1,34.9,103,34.9z"/>
	<path class="st0" d="M101.1,24.7c-0.3,0-0.3,0.1-0.3-0.2c-0.1-1.1-0.1-2.3-0.1-3.4c-0.1-1.5-0.1-2.9-0.2-4.4c0-1.1-0.1-2.3-0.1-3.4
		c-0.1-1.4-0.1-2.7-0.2-4.1c0-0.2,0-0.2,0.2-0.2c1.8-0.3,3.8-0.6,5.6-0.8c1.9-0.3,4-0.6,5.9-0.9c0.6-0.1,1.2-0.2,1.9-0.3
		c0.1,0,0.1,0,0.2,0.1c0.1,0.6,0.2,1.1,0.3,1.8c0,0.1,0,0.1-0.1,0.1c-1.2,0.2-2.5,0.4-3.6,0.5c-1.3,0.2-2.8,0.4-4.1,0.6
		c-1.3,0.2-2.6,0.4-3.9,0.6c-0.4,0.1-0.4,0-0.4,0.4c0.1,1.8,0.2,3.6,0.2,5.4c0.1,1.6,0.1,3,0.2,4.6c0.1,1.1,0.1,2.3,0.2,3.4
		c0,0.1,0,0.2-0.2,0.2C102.3,24.6,101.7,24.7,101.1,24.7z"/>
	<path class="st0" d="M116.4,59.1c-0.5-0.1-1.1-0.2-1.6-0.4c-3.5-0.8-6.9-1.6-10.3-2.4c-0.4-0.1-0.8-0.2-1.1-0.3
		c-0.1,0-0.1-0.1-0.2-0.2c-0.6-2.4-1.2-4.9-1.8-7.3c-0.1-0.3-0.2-0.6-0.2-1c0-0.1,0-0.1,0.1-0.2c0.5-0.1,1.1-0.3,1.6-0.4
		c0.1,0,0.1,0,0.2,0.1c0.4,1.6,0.7,3,1.1,4.6c0.2,0.8,0.4,1.7,0.6,2.5c0,0.1,0.1,0.2,0.2,0.2c4,0.9,8,1.9,12,2.7
		c0.1,0,0.1,0.1,0.1,0.2C116.7,57.9,116.6,58.5,116.4,59.1C116.5,59.1,116.5,59.2,116.4,59.1z"/>
</g>
</svg>
