<?xml version="1.0" encoding="utf-8"?>
<!-- Generator: Adobe Illustrator 28.0.0, SVG Export Plug-In . SVG Version: 6.00 Build 0)  -->
<svg version="1.1" id="Layer_1" xmlns="http://www.w3.org/2000/svg" xmlns:xlink="http://www.w3.org/1999/xlink" x="0px" y="0px"
	 viewBox="0 0 156 156" style="enable-background:new 0 0 156 156;" xml:space="preserve">
<style type="text/css">
	.st0{fill-rule:evenodd;clip-rule:evenodd;fill:#FFFFFF;}
	.st1{fill:#FF0000;}
	.st2{fill-rule:evenodd;clip-rule:evenodd;fill:#FF0000;}
	.st3{fill:none;}
</style>
<polygon class="st0" points="0.22,0.72 155.72,0.72 155.72,156.72 0.22,156.72 0.22,0.72 "/>
<polygon class="st0" points="1.15,1.49 154.78,1.49 154.78,155.4 1.15,155.4 1.15,1.49 "/>
<path class="st1" d="M154.74,155.35H1.19V1.54h153.56V155.35z M7.21,149.32h141.5V7.56H7.21V149.32z"/>
<path class="st1" d="M142.4,126.98H13.53L77.97,24.24L142.4,126.98z M32.29,116.61h91.35L77.97,43.77L32.29,116.61z"/>
<polygon class="st2" points="49.12,108.67 77.97,62.67 106.82,108.67 49.12,108.67 "/>
<polygon class="st3" points="0.72,156.22 155.22,156.22 155.22,1.22 0.72,1.22 0.72,156.22 "/>
</svg>
