<?xml version="1.0" encoding="utf-8"?>
<!-- Generator: Adobe Illustrator 28.0.0, SVG Export Plug-In . SVG Version: 6.00 Build 0)  -->
<svg version="1.1" id="Layer_1" xmlns="http://www.w3.org/2000/svg" xmlns:xlink="http://www.w3.org/1999/xlink" x="0px" y="0px"
	 viewBox="0 0 156 156" style="enable-background:new 0 0 156 156;" xml:space="preserve">
<style type="text/css">
	.st0{fill:#FF0000;}
</style>
<path class="st0" d="M0,156C0,104.1,0,52.2,0,0.4C0,0.1,0.1,0,0.4,0C52.2,0,104.1,0,156,0c0,0.2,0,0.4,0,0.6c0,51.6,0,103.2,0,154.8
	c0,0.6,0,0.6-0.6,0.6c-51.6,0-103.2,0-154.7,0C0.4,156,0.2,156,0,156z M98.2,5.5c-0.2-0.1-0.4-0.1-0.5-0.1c-30.5,0-61,0-91.4,0
	C5.7,5.4,5.7,5.4,5.7,6c0,47.7,0,95.5,0,143.2c0,0.5,0,0.5,0.5,0.5c47.7,0,95.5,0,143.2,0c0.5,0,0.5,0,0.5-0.5c0-23.2,0-46.5,0-69.7
	c0-0.1,0-0.3,0-0.5c-0.3,0.1-0.6,0.3-0.9,0.4c-0.3,0.1-0.6,0.3-0.9,0.4c-2.8,1.1-5.8,1.9-8.7,2.5c-0.7,0.1-1.5,0.2-2.2,0.3
	c-1.5,0.2-2.9,0.3-4.4,0.3c-0.8,0-1.6,0-2.4,0c-1.6,0.1-3.3-0.1-4.9-0.3c-1.8-0.2-3.6-0.5-5.4-0.9c-3.1-0.7-6-2.1-9-3.3
	c-0.6-0.2-1.2-0.6-1.7-1c-2.3-1.3-4.6-2.8-6.7-4.5c-1.8-1.4-3.4-3-5-4.6c-1.7-1.7-3.2-3.6-4.7-5.6c-0.9-1.2-1.7-2.4-2.4-3.7
	c-0.9-1.5-1.7-3-2.4-4.6c-1.6-3.6-2.6-7.5-3.1-11.4c-0.3-2.4-0.4-4.9-0.3-7.3c0.1-1.9,0.3-3.8,0.6-5.7c0.4-2.6,1.1-5.2,2-7.7
	c0.8-2,1.7-4,2.8-5.9c1.4-2.4,2.8-4.8,4.6-7C95.9,8.2,96.9,6.8,98.2,5.5z M149.9,37.7c0-10.6,0-21.2,0-31.8c0-0.4-0.1-0.5-0.5-0.5
	c-12.7,0-25.3,0-38,0c-0.3,0-0.5,0.1-0.7,0.2c-0.9,0.6-1.7,1.4-2.6,2.1c-1.1,0.9-2.2,1.8-3.2,2.7c-0.8,0.8-1.6,1.7-2.4,2.5
	c-2,2.1-3.5,4.5-5,6.9c-0.7,1.2-1.2,2.5-1.8,3.8c-1.7,4-2.3,8.2-2.4,12.5c-0.1,1.6,0.1,3.2,0.2,4.8c0.2,2.5,0.8,5,1.5,7.5
	c1,3.3,2.4,6.3,4.2,9.2c1.5,2.3,3.3,4.4,5.2,6.5c2.3,2.6,5.1,4.7,8,6.6c3,1.9,6.4,3.1,9.8,4.1c2,0.5,4.1,0.7,6.2,0.8
	c2.2,0.1,4.3,0.1,6.5-0.3c1.8-0.3,3.6-0.6,5.4-1.2c0.8-0.3,1.6-0.6,2.4-0.9c2.4-0.8,4.5-2.1,6.7-3.3c0.3-0.2,0.4-0.4,0.4-0.8
	C149.9,58.8,149.9,48.2,149.9,37.7z"/>
<path class="st0" d="M22.1,136.2c-0.1-0.1-0.1-0.1-0.2-0.2c-1.5-1.4-3.1-2.8-4.6-4.3c-0.2-0.2-0.1-0.3,0-0.4
	c4.3-4.2,8.6-8.3,13-12.5c4.5-4.3,9-8.6,13.5-12.9c2.6-2.5,5.2-5,7.8-7.4c6.9-6.4,13.5-13,20.4-19.5c2.8-2.7,5.6-5.4,8.5-8
	c0.2-0.1,0.2-0.2,0.4,0c1.6,1.4,3.1,2.9,4.7,4.3c0.2,0.2,0.1,0.3,0,0.4c-1,0.9-1.9,1.9-2.9,2.8c-3,2.7-5.9,5.7-8.9,8.4
	C69.8,90.6,66,94.4,62,98c-5.9,5.5-11.7,11.2-17.6,16.8c-1,1-2.1,2-3.1,2.9c-6.2,5.8-12.2,11.7-18.4,17.6c-0.2,0.2-0.5,0.5-0.7,0.7
	C22.2,136.1,22.1,136.1,22.1,136.2z"/>
<path class="st0" d="M42.3,20.3c9.2,0,18.3,0,27.5,0c0.6,0,0.5-0.1,0.5,0.5c-0.1,2.1-0.2,4.2-0.2,6.3c0,0.3-0.1,0.4-0.5,0.4
	c-18.3,0-36.6,0-54.9,0c-0.4,0-0.5-0.1-0.5-0.5c0-2.1,0-4.2,0-6.4c0-0.4,0.1-0.5,0.5-0.5C23.9,20.3,33.1,20.3,42.3,20.3z"/>
<path class="st0" d="M96.8,86.1c0,0.1-0.1,0.2-0.1,0.2c-2.2,3.9-4.4,7.8-6.6,11.7c-3.7,6.5-7.3,13.1-11.1,19.5
	c-1.8,3.2-3.5,6.3-5.4,9.5c-0.6,1-1.2,2-1.7,3c-0.1,0.2-0.2,0.2-0.4,0.1c-1.6-0.9-3.3-1.8-4.9-2.7c-0.3-0.2-0.2-0.3-0.1-0.5
	c1.5-2.7,3-5.5,4.5-8.2c0.8-1.4,1.5-2.8,2.3-4.2c3-5.2,5.7-10.5,8.6-15.7c3-5.3,5.8-10.8,8.8-16.1c0.1-0.3,0.2-0.3,0.5-0.1
	c1.8,1.1,3.6,2.1,5.4,3.2C96.6,85.9,96.8,85.9,96.8,86.1z"/>
<path class="st0" d="M134.3,120.5c0,7.6,0,15.2,0,22.7c0,0.5,0,0.5-0.5,0.5c-2,0-4,0-6,0c-0.3,0-0.4-0.1-0.4-0.4
	c0-15.2,0-30.5,0-45.7c0-0.4,0.1-0.4,0.4-0.4c2,0,4,0,6,0c0.4,0,0.5,0.1,0.5,0.5C134.3,105.3,134.3,112.9,134.3,120.5z"/>
<path class="st0" d="M71.7,65.1c0,0.1-0.2,0.1-0.3,0.2c-1.6,0.7-3.2,1.4-4.7,2.1c-7.4,3.2-14.9,6.4-22.3,9.7
	c-1.2,0.5-2.4,1.1-3.6,1.5c-2.1,0.8-4.1,1.8-6.2,2.6c-0.2,0.1-0.3,0.1-0.5-0.1c-1.2-2-2.4-3.9-3.7-5.9c-0.2-0.3-0.2-0.4,0.1-0.5
	c4.4-1.9,8.7-3.8,13.1-5.7c7.4-3.2,14.8-6.5,22.3-9.7c0.7-0.3,1.4-0.5,2-0.8c0.2-0.1,0.3,0.1,0.4,0.2c1,1.8,1.9,3.7,2.8,5.6
	c0.1,0.3,0.3,0.5,0.4,0.8C71.6,65,71.7,65.1,71.7,65.1z"/>
<path class="st0" d="M67.1,42.6c0,1,0.1,2.1,0.1,3.1c0,0.3-0.1,0.3-0.3,0.4c-3.3,0.5-6.5,0.9-9.7,1.4c-3.3,0.5-6.5,1-9.8,1.4
	c-2.3,0.3-4.7,0.7-7,1c-0.3,0-0.3-0.1-0.3-0.3c-0.1-1.2-0.2-2.4-0.3-3.5c-0.1-1.1-0.2-2.2-0.3-3.3c0-0.3,0-0.5,0.4-0.5
	c2.5-0.3,5-0.6,7.5-0.9c2.5-0.3,5-0.6,7.5-0.9c2.7-0.3,5.4-0.6,8.1-1c1.2-0.2,2.5-0.2,3.7-0.4c0.2,0,0.4,0,0.4,0.3
	C67,40.5,67.1,41.6,67.1,42.6C67.1,42.6,67.1,42.6,67.1,42.6z"/>
<path class="st0" d="M116.9,94.4c0,0.1,0,0.2-0.1,0.2c-1.7,6.1-3.3,12.3-4.9,18.5c-0.1,0.3-0.2,0.4-0.5,0.3
	c-2.1-0.5-4.2-1.1-6.3-1.6c-0.3-0.1-0.4-0.2-0.3-0.5c1.1-4.2,2.2-8.4,3.3-12.6c0.5-2,1.1-4,1.6-6.1c0.1-0.3,0.1-0.3,0.4-0.3
	c2.2,0.6,4.3,1.2,6.5,1.8C116.7,94.2,116.9,94.2,116.9,94.4z"/>
</svg>
