<?xml version="1.0" encoding="utf-8"?>
<!-- Generator: Adobe Illustrator 28.0.0, SVG Export Plug-In . SVG Version: 6.00 Build 0)  -->
<svg version="1.1" id="Layer_1" xmlns="http://www.w3.org/2000/svg" xmlns:xlink="http://www.w3.org/1999/xlink" x="0px" y="0px"
	 viewBox="0 0 156 156" style="enable-background:new 0 0 156 156;" xml:space="preserve">
<style type="text/css">
	.st0{fill-rule:evenodd;clip-rule:evenodd;fill:#FFFFFF;}
	.st1{fill:none;}
	.st2{fill-rule:evenodd;clip-rule:evenodd;fill:#1214FF;}
	.st3{fill:#FFFFFF;}
</style>
<g>
	<polygon class="st0" points="0,57.81 156,57.81 156,98.19 0,98.19 	"/>
	<polygon class="st0" points="1.44,59.19 154.26,59.19 154.26,96.8 1.44,96.8 	"/>
	<rect x="1.74" y="59.49" class="st1" width="152.22" height="37.01"/>
	<polygon class="st2" points="153.99,72.41 133.95,85.48 133.95,75.95 121.32,75.95 121.02,75.95 120.76,75.95 120.46,75.95 
		120.2,76.05 119.85,76.05 119.65,76.15 119.29,76.15 119.09,76.31 118.73,76.41 118.53,76.41 118.33,76.51 117.97,76.61 
		117.77,76.86 117.52,76.96 117.31,77.07 117.06,77.17 116.86,77.37 116.5,77.52 116.3,77.73 116.09,77.93 115.84,78.18 
		115.64,78.38 115.49,78.64 115.28,78.84 115.08,79.04 114.83,79.3 114.62,79.6 114.52,79.85 114.27,80.16 114.06,80.36 
		113.81,80.72 113.71,81.07 112.95,82.28 112.29,83.6 111.58,84.82 110.82,86.14 110.16,87.35 109.45,88.57 108.69,89.89 
		108.03,91.1 107.77,91.45 107.47,91.76 107.22,92.11 106.91,92.42 106.66,92.67 106.35,92.98 106,93.23 105.64,93.53 105.44,93.74 
		105.09,93.99 104.78,94.19 104.43,94.45 104.12,94.65 103.77,94.85 103.31,94.95 103,95.21 102.65,95.31 102.29,95.51 
		101.84,95.66 101.53,95.76 101.08,95.86 100.62,95.96 100.32,96.07 99.86,96.17 99.4,96.32 98.95,96.32 98.49,96.42 98.19,96.42 
		97.63,96.52 97.17,96.52 96.71,96.52 96.26,96.52 95.8,96.52 95.5,96.52 95.04,96.52 94.58,96.42 94.28,96.42 93.82,96.42 
		93.47,96.32 93.01,96.17 92.71,96.17 92.25,96.07 91.89,95.96 91.44,95.86 91.13,95.76 90.78,95.66 90.47,95.51 90.02,95.31 
		89.66,95.21 89.36,94.95 89,94.85 88.65,94.65 88.19,94.55 87.89,94.29 87.53,94.09 87.23,93.89 86.87,93.63 86.67,93.43 
		86.31,93.08 85.96,92.87 85.65,92.67 85.3,92.32 84.99,92.11 84.64,91.76 84.38,91.45 84.08,91.2 83.83,90.9 83.52,90.54 
		83.27,90.24 83.07,89.89 82.71,89.58 82.51,89.33 82.31,89.02 82.05,88.67 81.85,88.37 81.75,87.91 81.49,87.56 81.29,87.25 
		81.19,86.9 81.04,86.59 80.83,86.24 80.73,85.78 80.63,85.48 80.48,85.12 80.38,84.72 80.28,84.36 80.17,84.01 80.02,83.6 
		80.02,83.15 79.92,82.79 79.92,82.39 79.82,82.03 79.82,81.58 79.82,81.17 79.82,80.82 79.82,80.36 79.82,80.16 79.72,79.95 
		79.72,79.7 79.72,79.5 79.72,79.14 79.72,78.94 79.62,78.74 79.62,78.49 79.46,78.28 79.46,78.08 79.36,77.83 79.36,77.62 
		79.26,77.37 79.16,77.17 79.06,76.96 79.06,76.71 78.91,76.61 78.81,76.41 78.7,76.15 78.6,75.95 78.5,75.75 78.35,75.5 
		78.14,75.29 78.04,75.09 77.94,74.94 77.79,74.74 77.59,74.53 77.48,74.28 77.23,74.18 77.13,73.98 76.93,73.72 76.83,73.52 
		76.57,73.42 76.37,73.22 76.12,73.07 76.01,72.86 75.81,72.76 75.56,72.51 75.35,72.41 75.25,72.3 75,72.1 74.8,72 74.54,71.85 
		74.34,71.75 74.14,71.65 73.98,71.55 73.78,71.44 73.58,71.29 73.32,71.19 73.12,71.09 72.87,71.09 72.67,70.99 72.46,70.89 
		72.21,70.89 72.01,70.78 71.75,70.78 71.55,70.78 71.35,70.63 71.09,70.63 70.89,70.63 70.64,70.53 70.43,70.53 70.18,70.53 
		69.98,70.53 69.62,70.53 69.42,70.53 69.22,70.53 68.96,70.63 68.76,70.63 68.51,70.63 68.3,70.63 68.1,70.78 67.85,70.78 
		67.64,70.89 67.39,70.89 67.19,70.99 66.98,70.99 66.73,71.09 66.63,71.19 66.38,71.29 66.17,71.29 65.97,71.44 65.72,71.55 
		65.51,71.65 65.41,71.75 65.16,71.85 64.95,72 64.7,72.2 64.6,72.3 64.4,72.41 64.14,72.66 64.04,72.76 63.84,72.86 63.58,73.07 
		63.48,73.22 63.28,73.42 63.03,73.62 62.92,73.72 62.82,73.98 62.62,74.18 62.47,74.28 62.27,74.53 62.16,74.74 62.01,74.84 
		61.91,75.09 61.81,75.29 61.71,75.5 61.61,75.65 61.45,75.85 61.35,76.05 61.25,76.31 61.15,76.51 61.05,76.71 60.89,76.96 
		60.89,77.17 60.79,77.27 60.79,77.52 60.69,77.73 60.69,77.93 60.59,78.18 60.59,78.49 60.49,78.74 60.49,78.94 60.49,79.14 
		60.49,79.4 60.49,79.6 60.49,79.85 60.49,80.06 60.34,80.51 60.34,80.92 60.34,81.27 60.34,81.73 60.24,82.13 60.24,82.49 
		60.24,82.94 60.13,83.25 60.03,83.7 59.93,84.01 59.78,84.46 59.78,84.82 59.68,85.12 59.48,85.58 59.37,85.93 59.22,86.24 
		59.12,86.69 58.92,87 58.82,87.35 58.56,87.66 58.36,88.01 58.1,88.37 58,88.67 57.8,89.02 57.55,89.33 57.34,89.68 56.99,89.99 
		56.79,90.34 56.53,90.64 56.23,91 55.98,91.3 55.67,91.66 55.32,91.86 55.11,92.22 54.76,92.52 54.45,92.77 54.1,92.98 
		53.74,93.33 53.54,93.53 53.18,93.74 52.88,93.99 52.52,94.19 52.17,94.45 51.86,94.65 51.51,94.75 51.21,94.95 50.75,95.1 
		50.39,95.31 50.09,95.41 49.73,95.51 49.38,95.76 48.97,95.86 48.62,95.96 48.26,96.07 47.81,96.07 47.5,96.17 47.04,96.32 
		46.69,96.32 46.28,96.42 45.93,96.42 45.47,96.52 45.02,96.52 44.71,96.52 44.26,96.52 43.8,96.52 43.44,96.52 43.04,96.52 
		42.58,96.42 42.23,96.42 41.77,96.32 41.46,96.32 41.01,96.17 40.65,96.17 40.25,96.07 39.89,95.96 39.43,95.86 39.08,95.76 
		38.77,95.66 38.42,95.41 37.96,95.31 37.66,95.21 37.3,94.95 37,94.85 36.64,94.65 36.29,94.45 35.89,94.19 35.53,93.99 
		35.17,93.89 34.87,93.53 34.51,93.33 34.31,93.08 33.96,92.87 33.6,92.52 33.3,92.32 32.94,92.01 32.74,91.66 32.38,91.45 
		32.08,91.1 31.83,90.8 31.52,90.44 31.27,90.24 31.06,89.89 30.71,89.58 30.51,89.23 30.25,88.87 30.05,88.57 29.95,88.21 
		29.69,87.81 29.49,87.45 29.39,87.15 29.14,86.79 29.04,86.44 28.83,86.04 28.68,85.68 28.58,85.38 28.48,84.92 28.37,84.57 
		28.27,84.26 28.12,83.8 28.02,83.5 28.02,83.05 27.92,82.59 27.82,82.28 27.82,81.83 27.82,81.47 27.82,81.07 27.82,80.61 
		27.71,80.16 27.71,79.95 27.71,79.6 27.71,79.4 27.71,79.04 27.71,78.84 27.71,78.64 27.56,78.28 27.56,78.08 27.46,77.83 
		27.46,77.52 27.36,77.27 27.36,77.07 27.26,76.86 27.16,76.61 27.16,76.41 27.01,76.15 26.9,75.95 26.8,75.75 26.7,75.5 
		26.6,75.29 26.45,75.09 26.35,74.94 26.24,74.74 25.99,74.53 25.89,74.28 25.79,74.18 25.58,73.98 25.43,73.72 25.23,73.62 
		25.13,73.42 24.87,73.32 24.77,73.07 24.32,72.86 24.01,72.51 23.56,72.3 23.2,72 23,71.85 22.8,71.75 22.54,71.65 22.34,71.55 
		22.24,71.44 21.98,71.44 21.78,71.29 21.53,71.19 21.32,71.09 21.07,71.09 20.87,70.99 20.66,70.89 20.41,70.89 20.21,70.78 
		19.95,70.78 19.75,70.78 19.3,70.63 18.84,70.63 18.63,70.53 18.43,70.53 18.18,70.53 17.98,70.53 17.42,70.53 16.86,70.63 
		16.3,70.63 15.74,70.78 15.29,70.78 14.83,70.89 14.37,70.99 13.92,71.19 13.51,71.29 13.05,71.55 12.7,71.65 12.34,71.85 
		11.94,72.1 11.58,72.41 11.38,72.66 11.02,72.96 10.67,73.22 10.47,73.52 10.26,73.88 10.01,74.28 9.81,74.63 9.55,75.09 
		9.45,75.5 9.35,75.95 9.15,76.41 8.99,76.86 8.89,77.27 8.89,77.83 8.79,78.38 8.79,78.94 8.69,79.5 8.69,80.06 1.74,80.06 
		1.74,79.6 1.74,79.3 1.74,78.84 1.84,78.38 1.84,78.08 1.94,77.62 1.94,77.27 2.09,76.86 2.09,76.51 2.2,76.05 2.3,75.75 
		2.4,75.29 2.5,74.94 2.65,74.63 2.75,74.18 2.96,73.88 3.06,73.52 3.21,73.22 3.41,72.86 3.62,72.51 3.77,72.2 3.97,71.85 
		4.23,71.55 4.43,71.19 4.63,70.89 4.89,70.53 5.09,70.23 5.44,69.87 5.65,69.57 5.9,69.21 6.21,69.01 6.56,68.66 6.76,68.35 
		7.12,68.1 7.42,67.79 7.68,67.54 7.98,67.34 8.33,66.98 8.69,66.78 8.99,66.58 9.35,66.33 9.71,66.12 10.01,66.02 10.36,65.77 
		10.67,65.57 11.02,65.46 11.38,65.21 11.68,65.11 12.14,64.91 12.5,64.81 12.8,64.71 13.15,64.55 13.61,64.45 13.92,64.35 
		14.27,64.25 14.73,64.25 15.03,64.15 15.49,64.15 15.84,64 16.3,64 16.71,63.9 17.06,63.9 17.52,63.9 17.98,63.9 18.28,63.9 
		18.74,63.9 19.19,63.9 19.55,64 19.95,64 20.31,64.15 20.77,64.15 21.07,64.25 21.53,64.35 21.88,64.35 22.34,64.45 22.64,64.55 
		23.1,64.71 23.45,64.91 23.76,65.01 24.21,65.11 24.57,65.36 24.87,65.46 25.23,65.67 25.58,65.77 25.99,66.02 26.35,66.23 
		26.7,66.43 27.01,66.68 27.36,66.88 27.71,67.14 28.02,67.44 28.37,67.64 28.68,68 29.04,68.2 29.39,68.56 29.69,68.76 
		29.95,69.11 30.25,69.42 30.61,69.77 30.81,70.08 31.17,70.43 31.37,70.78 31.62,71.09 31.83,71.44 32.18,71.75 32.38,72.1 
		32.48,72.41 32.74,72.76 32.94,73.07 33.2,73.42 33.3,73.72 33.5,74.18 33.6,74.53 33.75,74.84 33.86,75.29 34.06,75.65 
		34.16,75.95 34.16,76.41 34.31,76.71 34.41,77.17 34.51,77.52 34.51,77.93 34.62,78.38 34.62,78.74 34.62,79.14 34.72,79.6 
		34.72,79.95 34.72,80.36 34.72,80.61 34.72,80.82 34.72,81.07 34.72,81.27 34.87,81.58 34.87,81.83 34.87,82.03 34.97,82.28 
		34.97,82.49 34.97,82.69 35.07,82.94 35.07,83.15 35.17,83.35 35.27,83.5 35.43,83.7 35.43,83.91 35.53,84.16 35.63,84.36 
		35.73,84.57 35.89,84.82 35.98,84.92 36.09,85.12 36.19,85.38 36.29,85.58 36.44,85.68 36.64,85.93 36.75,86.14 36.85,86.34 
		37.1,86.44 37.2,86.69 37.41,86.9 37.56,87 37.76,87.25 37.96,87.35 38.12,87.56 38.32,87.66 38.52,87.91 38.67,88.01 38.88,88.11 
		39.08,88.21 39.23,88.47 39.43,88.57 39.64,88.67 39.89,88.77 40.1,88.87 40.25,89.02 40.45,89.12 40.65,89.12 40.91,89.23 
		41.11,89.33 41.36,89.43 41.57,89.43 41.77,89.58 42.02,89.58 42.23,89.68 42.33,89.68 42.68,89.78 42.78,89.78 43.14,89.78 
		43.34,89.89 43.6,89.89 43.8,89.89 44,89.89 44.26,89.89 44.46,89.89 44.71,89.89 44.92,89.89 45.17,89.89 45.37,89.78 
		45.57,89.78 45.83,89.78 46.03,89.68 46.28,89.68 46.49,89.58 46.69,89.58 46.94,89.43 47.15,89.43 47.4,89.33 47.6,89.23 
		47.81,89.12 48.06,89.12 48.26,89.02 48.36,88.87 48.62,88.77 48.82,88.67 49.07,88.57 49.18,88.47 49.38,88.21 49.63,88.11 
		49.83,88.01 49.94,87.91 50.19,87.66 50.39,87.56 50.49,87.35 50.75,87.25 50.95,87 51.05,86.9 51.31,86.69 51.41,86.44 
		51.51,86.34 51.76,86.14 51.86,85.93 51.97,85.68 52.17,85.58 52.32,85.38 52.42,85.12 52.52,84.92 52.63,84.82 52.73,84.57 
		52.88,84.36 52.98,84.16 53.08,83.91 53.08,83.7 53.18,83.5 53.34,83.35 53.34,83.15 53.44,82.94 53.44,82.69 53.54,82.49 
		53.54,82.28 53.64,82.03 53.64,81.83 53.64,81.58 53.74,81.27 53.74,81.07 53.74,80.82 53.74,80.61 53.74,80.36 53.74,79.95 
		53.74,79.6 53.74,79.14 53.89,78.74 53.89,78.38 53.89,77.93 54,77.52 54.1,77.17 54.1,76.71 54.2,76.41 54.3,75.95 54.45,75.65 
		54.55,75.29 54.66,74.84 54.76,74.53 55.01,74.18 55.11,73.72 55.21,73.42 55.42,73.07 55.67,72.76 55.77,72.41 55.98,72.1 
		56.23,71.75 56.43,71.44 56.69,71.09 56.89,70.78 57.09,70.43 57.45,70.08 57.65,69.77 57.9,69.42 58.26,69.11 58.56,68.76 
		58.82,68.56 59.12,68.2 59.48,68 59.68,67.64 60.03,67.44 60.34,67.14 60.69,66.88 61.05,66.68 61.35,66.43 61.71,66.23 
		62.01,66.02 62.37,65.77 62.72,65.67 63.03,65.46 63.38,65.36 63.74,65.11 64.04,65.01 64.5,64.91 64.85,64.71 65.16,64.55 
		65.61,64.45 65.97,64.35 66.27,64.35 66.73,64.25 67.08,64.15 67.54,64.15 67.85,64 68.3,64 68.76,63.9 69.06,63.9 69.52,63.9 
		69.98,63.9 70.33,63.9 70.74,63.9 71.19,63.9 71.55,64 72.01,64 72.31,64.15 72.77,64.15 73.12,64.25 73.58,64.35 73.88,64.35 
		74.34,64.45 74.69,64.55 75.1,64.71 75.46,64.91 75.81,65.01 76.27,65.11 76.57,65.36 76.93,65.46 77.23,65.67 77.59,65.77 
		78.04,66.02 78.35,66.23 78.7,66.43 79.06,66.68 79.36,66.88 79.72,67.14 80.02,67.44 80.38,67.64 80.73,68 81.04,68.2 
		81.39,68.56 81.75,68.76 81.95,69.11 82.31,69.42 82.61,69.77 82.86,70.08 83.17,70.43 83.42,70.78 83.62,71.09 83.83,71.44 
		84.18,71.75 84.38,72.1 84.54,72.41 84.74,72.76 84.99,73.07 85.2,73.42 85.3,73.72 85.55,74.18 85.65,74.53 85.75,74.84 
		85.86,75.29 86.11,75.65 86.21,75.95 86.31,76.41 86.31,76.71 86.41,77.17 86.52,77.52 86.52,77.93 86.67,78.38 86.67,78.74 
		86.77,79.14 86.77,79.6 86.77,79.95 86.77,80.36 86.77,80.61 86.77,80.82 86.77,81.07 86.77,81.27 86.87,81.58 86.87,81.83 
		86.87,82.03 86.97,82.28 86.97,82.49 86.97,82.69 87.07,82.94 87.23,83.15 87.23,83.35 87.33,83.5 87.43,83.7 87.43,83.91 
		87.53,84.16 87.63,84.36 87.78,84.57 87.89,84.82 87.99,84.92 88.09,85.12 88.19,85.38 88.34,85.58 88.54,85.68 88.65,85.93 
		88.75,86.14 88.9,86.34 89.1,86.44 89.2,86.69 89.46,86.9 89.56,87 89.76,87.25 90.02,87.35 90.12,87.56 90.32,87.66 90.57,87.91 
		90.68,88.01 90.88,88.11 91.13,88.21 91.23,88.47 91.44,88.57 91.69,88.67 91.89,88.77 92.15,88.87 92.25,89.02 92.45,89.12 
		92.71,89.12 92.91,89.23 93.11,89.33 93.37,89.43 93.57,89.43 93.82,89.58 94.03,89.58 94.13,89.68 94.48,89.68 94.58,89.78 
		94.94,89.78 95.14,89.78 95.4,89.89 95.6,89.89 95.8,89.89 96.05,89.89 96.26,89.89 96.51,89.89 96.81,89.89 97.07,89.89 
		97.27,89.89 97.47,89.78 97.73,89.78 97.93,89.78 98.19,89.68 98.39,89.68 98.64,89.68 98.84,89.58 99.05,89.58 99.3,89.43 
		99.5,89.33 99.76,89.33 99.96,89.23 100.06,89.12 100.32,89.12 100.52,89.02 100.62,88.87 100.87,88.77 101.08,88.67 101.18,88.57 
		101.43,88.47 101.53,88.37 101.74,88.21 101.84,88.11 101.99,87.91 102.19,87.81 102.29,87.66 102.4,87.45 102.65,87.35 
		102.75,87.15 103,86.9 103.11,86.69 103.31,86.34 103.41,86.04 103.66,85.68 103.77,85.38 103.97,85.02 104.12,84.57 104.32,84.16 
		104.53,83.7 104.68,83.15 104.88,82.69 105.09,82.13 105.24,81.58 105.44,81.07 105.64,80.51 105.9,79.95 106.1,79.4 106.35,78.84 
		106.56,78.28 106.76,77.83 107.11,77.27 107.37,76.86 107.67,76.41 107.93,75.95 108.23,75.5 108.59,75.09 108.89,74.74 
		109.25,74.28 109.6,73.98 109.9,73.52 110.26,73.22 110.56,72.86 111.02,72.51 111.38,72.3 111.83,72 112.29,71.65 112.59,71.44 
		113.05,71.19 113.51,70.89 113.96,70.63 114.37,70.43 114.93,70.33 115.38,70.08 115.84,69.87 116.4,69.77 116.86,69.67 
		117.31,69.57 117.87,69.42 118.43,69.42 119.19,69.32 119.85,69.32 120.76,69.21 121.78,69.21 122.79,69.11 123.91,69.11 
		125.02,69.11 126.34,69.01 127.71,69.01 129.13,69.01 130.71,69.01 132.28,69.01 133.95,69.01 133.95,59.49 	"/>
	<rect x="1.74" y="59.49" class="st1" width="152.22" height="37.01"/>
	<path class="st3" d="M97.17,96.55h-2.13l-0.46-0.1h-0.76l-0.36-0.1L93,96.19h-0.3l-0.46-0.1l-0.36-0.1l-0.45-0.1l-0.31-0.1
		l-0.36-0.1l-0.31-0.15L90,95.33l-0.35-0.1l-0.32-0.26l-0.34-0.09l-0.36-0.21l-0.45-0.09l-0.32-0.26l-0.35-0.2l-0.67-0.46l-0.2-0.21
		l-0.36-0.35l-0.35-0.2l-0.3-0.2l-0.36-0.36l-0.3-0.2l-0.36-0.36l-0.26-0.3l-0.3-0.25l-0.81-0.97l-0.2-0.36l-0.35-0.3l-0.21-0.26
		l-0.2-0.31l-0.25-0.35l-0.2-0.31l-0.11-0.46l-0.25-0.34l-0.2-0.31l-0.11-0.36l-0.15-0.3l-0.2-0.35l-0.11-0.46l-0.1-0.3l-0.16-0.35
		l-0.1-0.41l-0.2-0.7L80,83.61v-0.46l-0.1-0.34v-0.41l-0.1-0.34v-1.88l-0.1-0.19l0-1.03l-0.1-0.19l0-0.27l-0.15-0.18l-0.01-0.22
		l-0.1-0.25v-0.21l-0.1-0.25l-0.2-0.41l0-0.25l-0.14-0.09l-0.11-0.21l-0.1-0.26l-0.2-0.4l-0.15-0.25l-0.2-0.2l-0.1-0.2l-0.1-0.15
		l-0.15-0.2l-0.2-0.2l-0.1-0.26l-0.24-0.09l-0.11-0.21l-0.2-0.25l-0.1-0.2l-0.24-0.09l-0.21-0.2l-0.25-0.15l-0.11-0.21l-0.19-0.09
		l-0.26-0.26l-0.19-0.1l-0.11-0.1l-0.25-0.2l-0.2-0.1l-0.25-0.15l-0.4-0.2l-0.16-0.1l-0.2-0.1l-0.2-0.16l-0.25-0.1l-0.2-0.1l-0.24,0
		l-0.42-0.2l-0.24,0l-0.21-0.1l-0.45,0l-0.22-0.16l-0.44,0.01l-0.26-0.1l-1.41,0l-0.24,0.1l-0.67,0l-0.19,0.15l-0.27,0.01l-0.19,0.1
		l-0.26,0l-0.18,0.1l-0.21,0l-0.24,0.1l-0.09,0.1l-0.26,0.11l-0.21,0l-0.19,0.15l-0.26,0.1l-0.2,0.1l-0.09,0.1l-0.26,0.1l-0.45,0.35
		l-0.1,0.1l-0.21,0.1l-0.35,0.35l-0.21,0.1l-0.25,0.2l-0.1,0.14l-0.2,0.2l-0.25,0.2l-0.1,0.1l-0.1,0.25l-0.21,0.21l-0.16,0.1
		l-0.2,0.25l-0.1,0.2l-0.16,0.11l-0.09,0.24l-0.2,0.41l-0.1,0.15l-0.16,0.2l-0.1,0.2l-0.1,0.25l-0.2,0.41l-0.15,0.25l0,0.19
		l-0.11,0.11l0.01,0.24l-0.1,0.21l0,0.19l-0.1,0.26l0,0.3l-0.1,0.26l0,1.31l-0.15,0.46v1.21l-0.1,0.41v0.81l-0.1,0.31l-0.1,0.45
		l-0.25,0.76v0.34l-0.1,0.31l-0.2,0.46l-0.1,0.35l-0.16,0.31l-0.1,0.45l-0.21,0.31l-0.1,0.35l-0.26,0.31l-0.2,0.35l-0.25,0.36
		l-0.1,0.3l-0.2,0.36l-0.26,0.31l-0.2,0.35l-0.36,0.31l-0.2,0.34l-1.12,1.32l-0.36,0.2l-0.19,0.34l-0.67,0.57l-0.36,0.2l-0.55,0.55
		l-0.36,0.2L52.9,94l-0.36,0.2l-0.35,0.25l-0.3,0.2l-0.37,0.11l-0.3,0.2l-0.46,0.16l-0.35,0.2l-0.31,0.1l-0.36,0.1l-0.35,0.25
		l-0.41,0.1l-0.71,0.2h-0.46l-0.75,0.25h-0.36l-0.4,0.1h-0.36l-0.45,0.1h-2.44l-0.46-0.1h-0.35l-0.46-0.1h-0.3L41,96.19h-0.34
		l-0.41-0.1l-0.35-0.1l-0.46-0.1l-0.35-0.1l-0.31-0.1l-0.36-0.26l-0.45-0.09l-0.31-0.1l-0.36-0.26L37,94.87l-0.71-0.41l-0.41-0.25
		L35.52,94l-0.35-0.1l-0.32-0.36l-0.35-0.2l-0.21-0.26l-0.34-0.2l-0.36-0.36l-0.3-0.2l-0.35-0.3l-0.21-0.36l-0.34-0.2l-0.87-1.01
		l-0.25-0.2l-0.21-0.36l-0.35-0.3l-0.21-0.36l-0.25-0.35l-0.2-0.31l-0.11-0.36l-0.25-0.4l-0.2-0.35l-0.1-0.31l-0.25-0.34l-0.1-0.36
		l-0.2-0.4l-0.15-0.36l-0.1-0.3l-0.1-0.46l-0.1-0.35L28,83.5v-0.46l-0.1-0.45l-0.1-0.3V80.6l-0.1-0.45v-1.52l-0.15-0.34l0-0.21
		l-0.1-0.25l0-0.31l-0.1-0.25l0-0.21l-0.1-0.19l-0.1-0.26l0-0.21l-0.15-0.24l-0.2-0.4l-0.1-0.26l-0.1-0.2l-0.15-0.2l-0.1-0.16
		l-0.1-0.2l-0.25-0.19l-0.11-0.26l-0.3-0.3l-0.16-0.26l-0.19-0.09l-0.11-0.21l-0.24-0.09l-0.11-0.26l-0.44-0.19l-0.31-0.36
		l-0.45-0.19l-0.36-0.31l-0.2-0.15l-0.2-0.1l-0.25-0.1l-0.2-0.1l-0.11-0.1l-0.24,0.01l-0.21-0.16l-0.25-0.1l-0.2-0.1l-0.24,0
		l-0.42-0.2l-0.24,0l-0.21-0.1l-0.45,0l-0.46-0.15h-0.45l-0.21-0.1l-1.21,0l-0.55,0.1h-0.56l-0.55,0.15h-0.46L14.37,71l-0.45,0.2
		l-0.41,0.1l-0.45,0.25l-0.36,0.1l-0.35,0.2l-0.4,0.25l-0.35,0.3l-0.2,0.25l-0.36,0.31l-0.36,0.26l-0.2,0.3l-0.2,0.35l-0.26,0.41
		L9.56,75.1l-0.1,0.4l-0.1,0.45l-0.2,0.46L9,76.87l-0.1,0.4v0.55l-0.1,0.56v0.55L8.7,79.5v0.58h-7v-1.24l0.1-0.46v-0.3l0.1-0.46
		v-0.35l0.15-0.41V76.5l0.1-0.46l0.1-0.31l0.1-0.46l0.1-0.36l0.16-0.31l0.1-0.45l0.21-0.31l0.1-0.34l0.16-0.31l0.41-0.71l0.15-0.3
		l0.2-0.35l0.26-0.31l0.2-0.35l0.2-0.31l0.25-0.35l0.2-0.3l0.36-0.36l0.2-0.3l0.25-0.35l0.31-0.21l0.35-0.35l0.2-0.3l0.36-0.26
		l0.55-0.55l0.31-0.2l0.35-0.35l0.36-0.2l0.3-0.2l0.35-0.25l0.36-0.2L10,66l0.35-0.25l0.3-0.2l0.36-0.11l0.35-0.25l0.31-0.1
		l0.46-0.2l0.36-0.1l0.3-0.1l0.35-0.15l0.46-0.1l0.3-0.1l0.35-0.1h0.46l0.3-0.1h0.47l0.34-0.15l0.47,0l0.4-0.1h2.49l0.36,0.1h0.4
		l0.37,0.16l0.45,0l0.31,0.1l0.45,0.1h0.35l0.46,0.1l0.76,0.25l0.36,0.2l0.3,0.1l0.46,0.1l0.36,0.26l0.3,0.1l0.36,0.2l0.35,0.1
		L26,66l0.71,0.4l0.31,0.26l0.35,0.2l0.36,0.25l0.31,0.31l0.35,0.2l0.31,0.36l0.35,0.19l0.36,0.36l0.3,0.2l0.26,0.36l0.66,0.66
		l0.2,0.31l0.35,0.35l0.21,0.36l0.25,0.3l0.21,0.36l0.35,0.3l0.21,0.36l0.1,0.31l0.71,1.01l0.1,0.31l0.2,0.45l0.1,0.36l0.15,0.3
		l0.1,0.46l0.2,0.35l0.1,0.31v0.46l0.15,0.29l0.1,0.46l0.1,0.35v0.41l0.1,0.45v0.76l0.1,0.45v1.68l0.15,0.29l0,0.47l0.1,0.24l0,0.41
		l0.1,0.25l0,0.21l0.1,0.19l0.1,0.15l0.15,0.2l0.01,0.22l0.1,0.25l0.2,0.4l0.15,0.25l0.1,0.1l0.1,0.2l0.1,0.26l0.1,0.2l0.14,0.09
		l0.21,0.26l0.2,0.41l0.24,0.09l0.11,0.27l0.2,0.19l0.15,0.1l0.21,0.26l0.19,0.1l0.16,0.2l0.19,0.09l0.21,0.26l0.14,0.1l0.4,0.2
		l0.16,0.27l0.4,0.19l0.25,0.1l0.2,0.1l0.16,0.16l0.19,0.1l0.19-0.01l0.26,0.1l0.2,0.1l0.25,0.1h0.19l0.21,0.16l0.24-0.01l0.21,0.1
		h0.09l0.36,0.1h0.45l0.21,0.11l1.81-0.01l0.19-0.1l0.47-0.01l0.19-0.1h0.26l0.19-0.1h0.21l0.24-0.15l0.21-0.01l0.24-0.1l0.4-0.2
		h0.26l0.19-0.1l0.09-0.14l0.26-0.11l0.2-0.1l0.25-0.1l0.09-0.09l0.2-0.25l0.26-0.11l0.2-0.1l0.34-0.35l0.21-0.11l0.09-0.19
		l0.27-0.11l0.19-0.25l0.1-0.1l0.26-0.2l0.09-0.24l0.1-0.11l0.26-0.2l0.1-0.2l0.1-0.25l0.21-0.11l0.14-0.19l0.1-0.25l0.1-0.2
		l0.11-0.11l0.1-0.25l0.16-0.21l0.1-0.2l0.1-0.25l0-0.19l0.1-0.22l0.16-0.16l-0.01-0.18l0.1-0.21l0-0.24l0.1-0.21l0-0.19l0.1-0.26
		l0-0.45l0.1-0.31v-2.12l0.16-0.41v-0.8l0.1-0.41l0.1-0.36v-0.45l0.1-0.31l0.1-0.45l0.16-0.31l0.1-0.35l0.1-0.45l0.1-0.31L55,74.15
		l0.1-0.45l0.1-0.31l0.2-0.36l0.26-0.31l0.09-0.34l0.21-0.31l0.25-0.35l0.2-0.3l0.25-0.35l0.2-0.3l0.2-0.35l0.36-0.36l0.2-0.3
		l0.25-0.35l0.36-0.31l0.3-0.35l0.25-0.2l0.28-0.35l0.36-0.21l0.19-0.34l0.37-0.21l0.3-0.3l0.36-0.25l0.36-0.2l0.3-0.25l0.36-0.21
		l0.3-0.2l0.35-0.25l0.36-0.1l0.3-0.2l0.36-0.1l0.34-0.25l0.31-0.11l0.46-0.1l0.35-0.2l0.3-0.15l0.46-0.1l0.35-0.1h0.31l0.45-0.1
		l0.35-0.1h0.46l0.29-0.15l0.47,0l0.45-0.1h2.44l0.36,0.1h0.45l0.32,0.16l0.44,0l0.36,0.1l0.46,0.1h0.3l0.46,0.1l0.35,0.1l0.41,0.15
		l0.36,0.2l0.35,0.1l0.46,0.1l0.31,0.26l0.34,0.09l0.31,0.21l0.35,0.1L78.06,66l0.31,0.2l0.35,0.2l0.36,0.25l0.31,0.2l0.35,0.25
		l0.31,0.31l0.35,0.2l0.36,0.36l0.3,0.2l0.36,0.36l0.35,0.2l0.21,0.37l0.35,0.3l0.87,1.01l0.46,0.66l0.2,0.36l0.35,0.3l0.2,0.36
		l0.16,0.3l0.2,0.35l0.25,0.3l0.2,0.36l0.11,0.31l0.25,0.45l0.2,0.67l0.1,0.46l0.25,0.34l0.11,0.31l0.1,0.46v0.31l0.1,0.45l0.1,0.35
		v0.41l0.15,0.45v0.36l0.1,0.4v2.14l0.1,0.3v0.46l0.1,0.24v0.41l0.1,0.25l0.15,0.19l0.01,0.22l0.1,0.14l0.1,0.2v0.21l0.1,0.25
		l0.1,0.2l0.15,0.2l0.11,0.26L88,84.91l0.11,0.2l0.1,0.26l0.15,0.19l0.2,0.09l0.11,0.27l0.1,0.2l0.15,0.2l0.2,0.09l0.11,0.27
		l0.25,0.19l0.1,0.11l0.2,0.25l0.24,0.09l0.11,0.21l0.19,0.09l0.36,0.37l0.45,0.19l0.11,0.27l0.44,0.18l0.2,0.11l0.25,0.09
		l0.11,0.16l0.19,0.09l0.24-0.01l0.42,0.2l0.25,0.1h0.19l0.27,0.16l0.19-0.01l0.11,0.11l0.34-0.01l0.12,0.11l0.54-0.01l0.26,0.1
		h1.87l0.19-0.1l0.47-0.01l0.25-0.1h0.46l0.19-0.1l0.22-0.01l0.24-0.15l0.2-0.1l0.27-0.01l0.19-0.1l0.1-0.09l0.27-0.01l0.19-0.1
		l0.1-0.14l0.26-0.11l0.2-0.1l0.09-0.09l0.26-0.11l0.09-0.09l0.2-0.16l0.1-0.1l0.15-0.2l0.21-0.11l0.09-0.14l0.1-0.2l0.27-0.11
		l0.09-0.19l0.26-0.26l0.1-0.2l0.2-0.35l0.1-0.3l0.26-0.37l0.09-0.29l0.21-0.36l0.15-0.45l0.2-0.41l0.2-0.46l0.15-0.55l0.2-0.46
		l0.2-0.56l0.15-0.55l0.2-0.51l0.2-0.55l0.25-0.56l0.2-0.55l0.25-0.56l0.2-0.55l0.2-0.46l0.61-0.97l0.3-0.46l0.25-0.46l0.3-0.46
		l0.66-0.76l0.35-0.46l0.36-0.31l0.3-0.45l0.36-0.31l0.3-0.35l0.46-0.36l0.36-0.2l0.46-0.3l0.45-0.35l0.31-0.2l0.46-0.26l0.46-0.3
		l0.46-0.25l0.41-0.2l0.57-0.1l0.45-0.25l0.46-0.2l0.57-0.1l0.92-0.2l0.55-0.15h0.57l0.76-0.1h0.67l0.91-0.1h1.02l1.01-0.1h2.23
		l1.32-0.1h7.58v-9.54l0.04,0.03l20.07,12.94L154,72.43l-20.08,13.09v-9.54h-13.47l-0.25,0.1h-0.36l-0.19,0.1h-0.37l-0.18,0.15
		l-0.37,0.11h-0.21l-0.19,0.1l-0.36,0.1l-0.19,0.25l-0.26,0.11l-0.2,0.1l-0.26,0.11l-0.2,0.19l-0.36,0.16l-0.85,0.85l-0.15,0.25
		l-0.67,0.67l-0.2,0.3l-0.1,0.25l-0.26,0.31l-0.2,0.2l-0.25,0.35l-0.1,0.34l-0.76,1.22l-0.66,1.32l-0.71,1.22l-0.76,1.32l-0.66,1.22
		l-1.47,2.53l-0.66,1.22l-0.25,0.36l-0.31,0.3l-0.25,0.36l-0.87,0.86l-0.35,0.26l-0.36,0.3l-0.2,0.2L105.1,94l-0.31,0.2l-0.35,0.25
		l-0.31,0.2l-0.36,0.2l-0.46,0.1l-0.29,0.25l-0.36,0.11l-0.35,0.2l-0.76,0.26l-0.92,0.2l-0.3,0.1l-0.46,0.1l-0.46,0.15h-0.46
		l-0.45,0.1h-0.31l-0.55,0.1L97.17,96.55L97.17,96.55z M94.28,96.4h0.3l0.46,0.1h2.58l0.55-0.1h0.31l0.45-0.1h0.46l0.45-0.15
		l0.46-0.1l0.3-0.1l0.92-0.2l0.76-0.25l0.35-0.2l0.36-0.11l0.3-0.25l0.47-0.1l0.35-0.2l0.3-0.2l0.35-0.25l0.31-0.2l0.35-0.25
		l0.2-0.2l0.36-0.31l0.35-0.25l0.86-0.85l0.25-0.36l0.31-0.3l0.25-0.35l0.66-1.21l1.47-2.53l0.66-1.22l1.47-2.53l0.66-1.32
		l0.76-1.22l0.1-0.35l0.25-0.36l0.2-0.2l0.25-0.3l0.1-0.24l0.2-0.31l0.67-0.67l0.15-0.25l0.87-0.87l0.36-0.16l0.2-0.19l0.26-0.11
		l0.2-0.1l0.25-0.1l0.19-0.25l0.37-0.11l0.2-0.1h0.21l0.35-0.1l0.19-0.15l0.37-0.01l0.19-0.1h0.37l0.25-0.1h13.53v9.5l19.97-13.03
		l-19.97-12.87v9.5h-7.63l-1.32,0.1h-2.23l-1.01,0.1h-1.02l-0.91,0.1h-0.67l-0.76,0.1h-0.56l-0.55,0.15l-0.92,0.2l-0.56,0.1
		l-0.45,0.2l-0.46,0.25l-0.57,0.1l-0.4,0.2l-0.46,0.25l-0.46,0.3l-0.46,0.26l-0.3,0.2l-0.45,0.35l-0.46,0.3l-0.36,0.2l-0.45,0.35
		l-0.3,0.35l-0.36,0.31l-0.3,0.45l-0.36,0.31l-0.35,0.45l-0.66,0.76l-0.3,0.45l-0.25,0.46l-0.3,0.46l-0.61,0.96l-0.2,0.45l-0.2,0.56
		l-0.25,0.56l-0.2,0.55l-0.25,0.56l-0.2,0.55l-0.2,0.51l-0.15,0.55l-0.2,0.56l-0.2,0.46l-0.15,0.56l-0.2,0.46l-0.2,0.4L104,85.04
		l-0.21,0.36l-0.09,0.3l-0.26,0.37l-0.1,0.3l-0.2,0.36l-0.1,0.2l-0.25,0.26l-0.09,0.2l-0.27,0.11l-0.09,0.19l-0.1,0.15l-0.21,0.11
		l-0.14,0.19l-0.11,0.1l-0.2,0.16l-0.1,0.1l-0.26,0.11l-0.09,0.09l-0.21,0.11l-0.25,0.1l-0.09,0.14l-0.21,0.11l-0.27,0.01
		l-0.09,0.09l-0.2,0.11h-0.27l-0.19,0.1l-0.25,0.15l-0.22,0.01l-0.19,0.1l-0.47,0.01l-0.25,0.1h-0.46l-0.19,0.1l-1.89,0.01
		l-0.26-0.1h-0.55l-0.12-0.11l-0.34,0.01l-0.11-0.11l-0.19,0.01l-0.27-0.16l-0.19,0.01l-0.26-0.1l-0.41-0.2h-0.24l-0.21-0.11
		l-0.11-0.16l-0.24-0.09l-0.2-0.11l-0.25-0.1l-0.21-0.1l-0.11-0.27l-0.24-0.09l-0.21-0.1l-0.1-0.11l-0.25-0.25l-0.2-0.09L90,87.38
		l-0.24-0.09l-0.21-0.26l-0.1-0.1l-0.25-0.2l-0.11-0.26l-0.19-0.09l-0.16-0.21l-0.11-0.21l-0.1-0.26l-0.19-0.08l-0.16-0.21
		l-0.1-0.26l-0.1-0.2l-0.1-0.1l-0.11-0.26l-0.14-0.19l-0.1-0.2l-0.11-0.26v-0.21l-0.1-0.19l-0.1-0.15l-0.01-0.21l-0.15-0.18
		l-0.11-0.26v-0.41l-0.1-0.24v-0.46l-0.1-0.3v-2.14l-0.1-0.4v-0.36l-0.15-0.45v-0.41l-0.1-0.34l-0.1-0.46v-0.31l-0.1-0.45l-0.1-0.3
		l-0.25-0.35l-0.11-0.46l-0.1-0.3l-0.1-0.36l-0.25-0.45l-0.11-0.31l-0.2-0.35l-0.25-0.3l-0.2-0.36l-0.16-0.3l-0.2-0.35l-0.35-0.3
		l-0.2-0.36l-0.46-0.66l-0.86-1.01l-0.35-0.3l-0.2-0.36l-0.35-0.19l-0.36-0.36l-0.3-0.2l-0.36-0.36l-0.35-0.2l-0.31-0.31l-0.35-0.25
		l-0.31-0.2l-0.35-0.25l-0.36-0.2l-0.31-0.2l-0.45-0.25l-0.35-0.1l-0.31-0.21l-0.35-0.1l-0.31-0.26l-0.45-0.1l-0.35-0.1l-0.36-0.2
		l-0.4-0.15l-0.35-0.1l-0.46-0.1h-0.3l-0.46-0.1l-0.36-0.1h-0.45l-0.32-0.16l-0.44,0.01l-0.36-0.1h-2.43l-0.45,0.1h-0.46l-0.29,0.15
		l-0.47,0l-0.35,0.1l-0.46,0.1h-0.31l-0.35,0.1l-0.46,0.1l-0.3,0.15l-0.35,0.2l-0.46,0.1l-0.3,0.1l-0.35,0.25l-0.36,0.1l-0.3,0.2
		l-0.36,0.1l-0.35,0.25l-0.31,0.2l-0.35,0.2l-0.3,0.25l-0.36,0.21l-0.35,0.25l-0.3,0.3l-0.36,0.21l-0.19,0.34l-0.37,0.21l-0.3,0.35
		l-0.25,0.2l-0.3,0.35l-0.36,0.31l-0.45,0.65l-0.36,0.36l-0.2,0.35l-0.2,0.31l-0.25,0.35l-0.2,0.3l-0.25,0.35l-0.2,0.3l-0.1,0.35
		l-0.26,0.32l-0.2,0.35l-0.1,0.3l-0.1,0.45l-0.26,0.36l-0.1,0.3l-0.1,0.45l-0.1,0.36l-0.16,0.31l-0.1,0.45l-0.1,0.31v0.45l-0.1,0.36
		l-0.1,0.4v0.81l-0.16,0.41v2.12l-0.1,0.31v0.45l-0.1,0.26l0,0.2l-0.1,0.21l0,0.24l-0.1,0.21l0,0.19l-0.16,0.17l-0.1,0.2l0,0.19
		L53,84.18l-0.1,0.2l-0.16,0.2l-0.1,0.25l-0.11,0.11l-0.1,0.2l-0.1,0.25l-0.16,0.21l-0.21,0.11l-0.09,0.24l-0.1,0.21l-0.26,0.21
		l-0.1,0.1l-0.1,0.24l-0.26,0.21l-0.1,0.1l-0.2,0.25l-0.26,0.11l-0.09,0.19l-0.21,0.11l-0.34,0.35l-0.21,0.11l-0.25,0.1l-0.19,0.25
		l-0.1,0.1l-0.26,0.11l-0.2,0.1l-0.26,0.1l-0.09,0.14l-0.21,0.11H47.8l-0.4,0.2l-0.25,0.1h-0.21l-0.24,0.15l-0.21,0.01l-0.19,0.1
		h-0.26l-0.19,0.1h-0.47l-0.19,0.1l-1.84,0.01l-0.21-0.11l-0.45,0.01l-0.36-0.1h-0.09L42,89.62h-0.24l-0.21-0.16l-0.19,0.01
		l-0.26-0.1l-0.2-0.1l-0.25-0.1h-0.19l-0.21-0.11l-0.16-0.16l-0.19-0.09l-0.25-0.1l-0.41-0.2l-0.16-0.27l-0.39-0.19l-0.16-0.11
		l-0.21-0.26l-0.18-0.1l-0.16-0.21l-0.19-0.1l-0.21-0.26l-0.15-0.1l-0.2-0.2l-0.11-0.26l-0.24-0.09l-0.21-0.42l-0.2-0.25l-0.14-0.09
		l-0.11-0.21l-0.1-0.26l-0.1-0.2l-0.1-0.1l-0.16-0.26l-0.2-0.4l-0.1-0.26l0-0.21l-0.15-0.19l-0.1-0.16l-0.1-0.2l0-0.21l-0.1-0.25
		l0-0.41l-0.1-0.24l0-0.46l-0.15-0.29l0-1.69l-0.1-0.45v-0.76l-0.1-0.45v-0.41l-0.1-0.34l-0.1-0.46l-0.15-0.3l0-0.47l-0.1-0.3
		l-0.2-0.35l-0.1-0.46l-0.15-0.3l-0.1-0.36l-0.2-0.45l-0.1-0.31l-0.71-1.01l-0.1-0.31l-0.2-0.35l-0.35-0.3l-0.21-0.36l-0.25-0.3
		l-0.21-0.36l-0.35-0.35l-0.2-0.31l-0.66-0.66l-0.26-0.36l-0.3-0.19l-0.36-0.36l-0.35-0.2l-0.31-0.36L28,67.46l-0.31-0.31
		l-0.35-0.25l-0.35-0.2l-0.31-0.26l-0.71-0.4l-0.41-0.26l-0.34-0.1l-0.36-0.2l-0.3-0.1l-0.36-0.26l-0.45-0.1l-0.31-0.1l-0.36-0.2
		l-0.76-0.25l-0.45-0.1h-0.35l-0.46-0.1l-0.31-0.1H20.3l-0.37-0.16l-0.4,0l-0.36-0.1H16.7l-0.39,0.11h-0.46l-0.34,0.15l-0.47,0
		l-0.3,0.1h-0.47l-0.35,0.1l-0.3,0.1l-0.46,0.1l-0.35,0.15l-0.31,0.1l-0.35,0.1l-0.45,0.2l-0.31,0.1l-0.35,0.25l-0.36,0.11l-0.3,0.2
		l-0.35,0.25l-0.31,0.1l-0.35,0.2L8.71,66.8l-0.36,0.2L8,67.36l-0.31,0.2l-0.55,0.55l-0.36,0.25l-0.2,0.3l-0.35,0.36l-0.31,0.2
		l-0.25,0.35l-0.2,0.3l-0.36,0.36l-0.2,0.3L4.65,70.9l-0.2,0.3l-0.2,0.35l-0.26,0.31l-0.2,0.35l-0.15,0.3l-0.41,0.71l-0.15,0.3
		l-0.1,0.35l-0.21,0.31l-0.1,0.45l-0.16,0.31l-0.1,0.35l-0.1,0.46l-0.1,0.31l-0.1,0.45v0.35l-0.15,0.41v0.35l-0.1,0.46v0.3
		l-0.1,0.46v1.19h6.9V79.5l0.1-0.56v-0.55l0.1-0.56v-0.55l0.1-0.41l0.15-0.46l0.2-0.46l0.1-0.45l0.1-0.41l0.46-0.81l0.26-0.41
		l0.2-0.35l0.2-0.31l0.36-0.26l0.35-0.3l0.2-0.25l0.36-0.31l0.41-0.25l0.35-0.2l0.36-0.1l0.45-0.25l0.41-0.1l0.45-0.2l0.92-0.2h0.46
		l0.55-0.15h0.56l0.55-0.1h1.22l0.21,0.1l0.45,0l0.46,0.15h0.45l0.21,0.1l0.24,0l0.42,0.2l0.24,0l0.21,0.1l0.25,0.1l0.2,0.16
		l0.24-0.01l0.12,0.11l0.19,0.1l0.25,0.1l0.2,0.1l0.21,0.16l0.35,0.31l0.45,0.2l0.31,0.36l0.45,0.2l0.11,0.26l0.24,0.09l0.11,0.21
		l0.19,0.09l0.16,0.26l0.3,0.3l0.11,0.26l0.25,0.19l0.1,0.21l0.1,0.15l0.15,0.2l0.1,0.21l0.1,0.26l0.2,0.4l0.15,0.25l0,0.21
		l0.1,0.25l0.1,0.2l0,0.21l0.1,0.25l0,0.31l0.1,0.25l0,0.21l0.15,0.34l0,1.53l0.1,0.45v1.68l0.1,0.3l0.1,0.46v0.46l0.35,1.06
		l0.1,0.36l0.1,0.46l0.1,0.3l0.15,0.36l0.2,0.4l0.1,0.36l0.25,0.34l0.11,0.31l0.2,0.35l0.25,0.41l0.11,0.36l0.2,0.3l0.25,0.35
		l0.2,0.36l0.35,0.3l0.21,0.36l0.25,0.2l0.86,1.01l0.35,0.2l0.21,0.36l0.35,0.3l0.3,0.2l0.36,0.36l0.35,0.2l0.21,0.26l0.35,0.2
		l0.31,0.36l0.34,0.09l0.36,0.2l0.41,0.25l0.71,0.41l0.3,0.09l0.36,0.26l0.3,0.1l0.45,0.1l0.37,0.26l0.3,0.1l0.35,0.1l0.46,0.1
		l0.35,0.1l0.41,0.1h0.35l0.46,0.15h0.3l0.46,0.1h0.35l0.46,0.1h2.43l0.45-0.1h0.36l0.4-0.1h0.36l0.75-0.25h0.46l0.7-0.2l0.4-0.1
		l0.35-0.25l0.67-0.2l0.35-0.2l0.46-0.16l0.3-0.2l0.37-0.11l0.3-0.2l0.35-0.25l0.36-0.2l0.3-0.25l0.36-0.2l0.55-0.55l0.36-0.2
		l0.66-0.56l0.2-0.34l0.37-0.21l1.11-1.32l0.2-0.35l0.36-0.31l0.2-0.35l0.26-0.31l0.2-0.35l0.09-0.31l0.26-0.36l0.2-0.35l0.26-0.3
		l0.09-0.35l0.21-0.31l0.1-0.45l0.16-0.31l0.1-0.35l0.2-0.46l0.1-0.3v-0.34l0.25-0.77l0.1-0.45l0.1-0.31v-0.81l0.1-0.41v-1.21
		l0.15-0.46v-1.31l0.1-0.26l0-0.3l0.1-0.26l0-0.2l0.1-0.21l0-0.24l0.11-0.11l0-0.18l0.16-0.26l0.2-0.41l0.1-0.25l0.1-0.21l0.16-0.2
		l0.1-0.15l0.2-0.41l0.1-0.25l0.16-0.11l0.09-0.19l0.2-0.26l0.16-0.11l0.2-0.2l0.1-0.25l0.1-0.11l0.25-0.2l0.2-0.2l0.1-0.15
		l0.26-0.21l0.21-0.1l0.09-0.1l0.25-0.25l0.21-0.1l0.1-0.1l0.46-0.35l0.26-0.1l0.09-0.1l0.21-0.1l0.25-0.1l0.2-0.15l0.22-0.01
		l0.24-0.1l0.09-0.1l0.26-0.1l0.21,0l0.19-0.1l0.26,0l0.19-0.1l0.26,0l0.19-0.15l0.67-0.01l0.24-0.1l1.43,0l0.26,0.1l0.45,0
		l0.22,0.16l0.44-0.01l0.21,0.1l0.24,0l0.42,0.2l0.24,0l0.21,0.1l0.25,0.1l0.2,0.16l0.2,0.1l0.16,0.1l0.4,0.2l0.25,0.15l0.2,0.1
		l0.26,0.2l0.1,0.1l0.19,0.1l0.26,0.26l0.2,0.1l0.11,0.21l0.24,0.14l0.21,0.2l0.24,0.1l0.11,0.21l0.2,0.25l0.1,0.2l0.24,0.09
		l0.11,0.26l0.2,0.2l0.16,0.2l0.1,0.16l0.1,0.2l0.2,0.2l0.16,0.26l0.2,0.4l0.1,0.26l0.1,0.2l0.16,0.11v0.25l0.2,0.39l0.1,0.26
		l0,0.21l0.1,0.25v0.21l0.15,0.18l0.01,0.27l0.1,0.19l0,1.03l0.1,0.19l0,1.89l0.1,0.34l0.01,0.41l0.1,0.34v0.46l0.15,0.4l0.2,0.71
		l0.1,0.41l0.16,0.35l0.1,0.3l0.1,0.46l0.2,0.34l0.16,0.3l0.1,0.36l0.2,0.3l0.25,0.35l0.11,0.47l0.2,0.3L82.34,89l0.2,0.31l0.2,0.25
		l0.35,0.3l0.21,0.36l0.81,0.96l0.3,0.25l0.26,0.31l0.35,0.36l0.3,0.2l0.36,0.36l0.3,0.2l0.35,0.2l0.56,0.56l0.66,0.45l0.35,0.2
		l0.31,0.25l0.44,0.09l0.37,0.21l0.35,0.09l0.32,0.26l0.34,0.1l0.46,0.2l0.31,0.15l0.66,0.2l0.45,0.1l0.36,0.1l0.45,0.1h0.3
		l0.47,0.15l0.35,0.1H94.28L94.28,96.4z"/>
	<polygon class="st1" points="0.51,97.69 155.5,97.69 155.5,58.31 0.51,58.31 	"/>
</g>
</svg>
