<?xml version="1.0" encoding="utf-8"?>
<!-- Generator: Adobe Illustrator 28.0.0, SVG Export Plug-In . SVG Version: 6.00 Build 0)  -->
<svg version="1.1" id="Layer_1" xmlns="http://www.w3.org/2000/svg" xmlns:xlink="http://www.w3.org/1999/xlink" x="0px" y="0px"
	 viewBox="0 0 156 156" style="enable-background:new 0 0 156 156;" xml:space="preserve">
<style type="text/css">
	.st0{fill-rule:evenodd;clip-rule:evenodd;fill:#1214FF;}
</style>
<polygon class="st0" points="154,72.4 133.9,85.5 133.9,75.9 121.3,75.9 121,75.9 120.8,75.9 120.5,75.9 120.2,76.1 119.8,76.1 
	119.7,76.2 119.3,76.2 119.1,76.3 118.7,76.4 118.5,76.4 118.3,76.5 118,76.6 117.8,76.9 117.5,77 117.3,77.1 117.1,77.2 
	116.9,77.4 116.5,77.5 116.3,77.7 116.1,77.9 115.8,78.2 115.6,78.4 115.5,78.6 115.3,78.8 115.1,79 114.8,79.3 114.6,79.6 
	114.5,79.8 114.3,80.2 114.1,80.4 113.8,80.7 113.7,81.1 112.9,82.3 112.3,83.6 111.6,84.8 110.8,86.1 110.2,87.3 109.4,88.6 
	108.7,89.9 108,91.1 107.8,91.4 107.5,91.8 107.2,92.1 106.9,92.4 106.7,92.7 106.3,93 106,93.2 105.6,93.5 105.4,93.7 105.1,94 
	104.8,94.2 104.4,94.4 104.1,94.7 103.8,94.8 103.3,94.9 103,95.2 102.7,95.3 102.3,95.5 101.8,95.7 101.5,95.8 101.1,95.9 
	100.6,96 100.3,96.1 99.9,96.2 99.4,96.3 98.9,96.3 98.5,96.4 98.2,96.4 97.6,96.5 97.2,96.5 96.7,96.5 96.3,96.5 95.8,96.5 
	95.5,96.5 95,96.5 94.6,96.4 94.3,96.4 93.8,96.4 93.5,96.3 93,96.2 92.7,96.2 92.2,96.1 91.9,96 91.4,95.9 91.1,95.8 90.8,95.7 
	90.5,95.5 90,95.3 89.7,95.2 89.4,94.9 89,94.8 88.7,94.7 88.2,94.6 87.9,94.3 87.5,94.1 87.2,93.9 86.9,93.6 86.7,93.4 86.3,93.1 
	86,92.9 85.7,92.7 85.3,92.3 85,92.1 84.6,91.8 84.4,91.4 84.1,91.2 83.8,90.9 83.5,90.5 83.3,90.2 83.1,89.9 82.7,89.6 82.5,89.3 
	82.3,89 82.1,88.7 81.8,88.4 81.8,87.9 81.5,87.6 81.3,87.2 81.2,86.9 81,86.6 80.8,86.2 80.7,85.8 80.6,85.5 80.5,85.1 80.4,84.7 
	80.3,84.4 80.2,84 80,83.6 80,83.2 79.9,82.8 79.9,82.4 79.8,82 79.8,81.6 79.8,81.2 79.8,80.8 79.8,80.4 79.8,80.2 79.7,79.9 
	79.7,79.7 79.7,79.5 79.7,79.1 79.7,78.9 79.6,78.7 79.6,78.5 79.5,78.3 79.5,78.1 79.4,77.8 79.4,77.6 79.3,77.4 79.2,77.2 
	79.1,77 79.1,76.7 78.9,76.6 78.8,76.4 78.7,76.2 78.6,75.9 78.5,75.8 78.3,75.5 78.1,75.3 78,75.1 77.9,74.9 77.8,74.7 77.6,74.5 
	77.5,74.3 77.2,74.2 77.1,74 76.9,73.7 76.8,73.5 76.6,73.4 76.4,73.2 76.1,73.1 76,72.9 75.8,72.8 75.6,72.5 75.3,72.4 75.2,72.3 
	75,72.1 74.8,72 74.5,71.8 74.3,71.8 74.1,71.7 74,71.6 73.8,71.4 73.6,71.3 73.3,71.2 73.1,71.1 72.9,71.1 72.7,71 72.5,70.9 
	72.2,70.9 72,70.8 71.8,70.8 71.6,70.8 71.3,70.6 71.1,70.6 70.9,70.6 70.6,70.5 70.4,70.5 70.2,70.5 70,70.5 69.6,70.5 69.4,70.5 
	69.2,70.5 69,70.6 68.8,70.6 68.5,70.6 68.3,70.6 68.1,70.8 67.8,70.8 67.6,70.9 67.4,70.9 67.2,71 67,71 66.7,71.1 66.6,71.2 
	66.4,71.3 66.2,71.3 66,71.4 65.7,71.6 65.5,71.7 65.4,71.8 65.2,71.8 64.9,72 64.7,72.2 64.6,72.3 64.4,72.4 64.1,72.7 64,72.8 
	63.8,72.9 63.6,73.1 63.5,73.2 63.3,73.4 63,73.6 62.9,73.7 62.8,74 62.6,74.2 62.5,74.3 62.3,74.5 62.2,74.7 62,74.8 61.9,75.1 
	61.8,75.3 61.7,75.5 61.6,75.7 61.5,75.8 61.3,76.1 61.2,76.3 61.2,76.5 61,76.7 60.9,77 60.9,77.2 60.8,77.3 60.8,77.5 60.7,77.7 
	60.7,77.9 60.6,78.2 60.6,78.5 60.5,78.7 60.5,78.9 60.5,79.1 60.5,79.4 60.5,79.6 60.5,79.8 60.5,80.1 60.3,80.5 60.3,80.9 
	60.3,81.3 60.3,81.7 60.2,82.1 60.2,82.5 60.2,82.9 60.1,83.2 60,83.7 59.9,84 59.8,84.5 59.8,84.8 59.7,85.1 59.5,85.6 59.4,85.9 
	59.2,86.2 59.1,86.7 58.9,87 58.8,87.3 58.6,87.7 58.4,88 58.1,88.4 58,88.7 57.8,89 57.5,89.3 57.3,89.7 57,90 56.8,90.3 
	56.5,90.6 56.2,91 56,91.3 55.7,91.7 55.3,91.9 55.1,92.2 54.8,92.5 54.5,92.8 54.1,93 53.7,93.3 53.5,93.5 53.2,93.7 52.9,94 
	52.5,94.2 52.2,94.4 51.9,94.7 51.5,94.8 51.2,94.9 50.8,95.1 50.4,95.3 50.1,95.4 49.7,95.5 49.4,95.8 49,95.9 48.6,96 48.3,96.1 
	47.8,96.1 47.5,96.2 47,96.3 46.7,96.3 46.3,96.4 45.9,96.4 45.5,96.5 45,96.5 44.7,96.5 44.3,96.5 43.8,96.5 43.4,96.5 43,96.5 
	42.6,96.4 42.2,96.4 41.8,96.3 41.5,96.3 41,96.2 40.7,96.2 40.2,96.1 39.9,96 39.4,95.9 39.1,95.8 38.8,95.7 38.4,95.4 38,95.3 
	37.7,95.2 37.3,94.9 37,94.8 36.6,94.7 36.3,94.4 35.9,94.2 35.5,94 35.2,93.9 34.9,93.5 34.5,93.3 34.3,93.1 34,92.9 33.6,92.5 
	33.3,92.3 32.9,92 32.7,91.7 32.4,91.4 32.1,91.1 31.8,90.8 31.5,90.4 31.3,90.2 31.1,89.9 30.7,89.6 30.5,89.2 30.2,88.9 30,88.6 
	30,88.2 29.7,87.8 29.5,87.4 29.4,87.2 29.1,86.8 29,86.4 28.8,86 28.7,85.7 28.6,85.4 28.5,84.9 28.4,84.6 28.3,84.3 28.1,83.8 
	28,83.5 28,83.1 27.9,82.6 27.8,82.3 27.8,81.8 27.8,81.5 27.8,81.1 27.8,80.6 27.7,80.2 27.7,79.9 27.7,79.6 27.7,79.4 27.7,79 
	27.7,78.8 27.7,78.6 27.6,78.3 27.6,78.1 27.5,77.8 27.5,77.5 27.4,77.3 27.4,77.1 27.3,76.9 27.2,76.6 27.2,76.4 27,76.2 
	26.9,75.9 26.8,75.8 26.7,75.5 26.6,75.3 26.5,75.1 26.4,74.9 26.2,74.7 26,74.5 25.9,74.3 25.8,74.2 25.6,74 25.4,73.7 25.2,73.6 
	25.1,73.4 24.9,73.3 24.8,73.1 24.3,72.9 24,72.5 23.6,72.3 23.2,72 23,71.8 22.8,71.8 22.5,71.7 22.3,71.6 22.2,71.4 22,71.4 
	21.8,71.3 21.5,71.2 21.3,71.1 21.1,71.1 20.9,71 20.7,70.9 20.4,70.9 20.2,70.8 20,70.8 19.8,70.8 19.3,70.6 18.8,70.6 18.6,70.5 
	18.4,70.5 18.2,70.5 18,70.5 17.4,70.5 16.9,70.6 16.3,70.6 15.7,70.8 15.3,70.8 14.8,70.9 14.4,71 13.9,71.2 13.5,71.3 13.1,71.6 
	12.7,71.7 12.3,71.8 11.9,72.1 11.6,72.4 11.4,72.7 11,73 10.7,73.2 10.5,73.5 10.3,73.9 10,74.3 9.8,74.6 9.6,75.1 9.4,75.5 
	9.4,75.9 9.1,76.4 9,76.9 8.9,77.3 8.9,77.8 8.8,78.4 8.8,78.9 8.7,79.5 8.7,80.1 1.7,80.1 1.7,79.6 1.7,79.3 1.7,78.8 1.8,78.4 
	1.8,78.1 1.9,77.6 1.9,77.3 2.1,76.9 2.1,76.5 2.2,76.1 2.3,75.8 2.4,75.3 2.5,74.9 2.7,74.6 2.8,74.2 3,73.9 3.1,73.5 3.2,73.2 
	3.4,72.9 3.6,72.5 3.8,72.2 4,71.8 4.2,71.6 4.4,71.2 4.6,70.9 4.9,70.5 5.1,70.2 5.4,69.9 5.7,69.6 5.9,69.2 6.2,69 6.6,68.7 
	6.8,68.3 7.1,68.1 7.4,67.8 7.7,67.5 8,67.3 8.3,67 8.7,66.8 9,66.6 9.4,66.3 9.7,66.1 10,66 10.4,65.8 10.7,65.6 11,65.5 
	11.4,65.2 11.7,65.1 12.1,64.9 12.5,64.8 12.8,64.7 13.1,64.6 13.6,64.4 13.9,64.3 14.3,64.2 14.7,64.2 15,64.2 15.5,64.2 15.8,64 
	16.3,64 16.7,63.9 17.1,63.9 17.5,63.9 18,63.9 18.3,63.9 18.7,63.9 19.2,63.9 19.5,64 20,64 20.3,64.2 20.8,64.2 21.1,64.2 
	21.5,64.3 21.9,64.3 22.3,64.4 22.6,64.6 23.1,64.7 23.5,64.9 23.8,65 24.2,65.1 24.6,65.4 24.9,65.5 25.2,65.7 25.6,65.8 26,66 
	26.4,66.2 26.7,66.4 27,66.7 27.4,66.9 27.7,67.1 28,67.4 28.4,67.6 28.7,68 29,68.2 29.4,68.6 29.7,68.8 30,69.1 30.2,69.4 
	30.6,69.8 30.8,70.1 31.2,70.4 31.4,70.8 31.6,71.1 31.8,71.4 32.2,71.8 32.4,72.1 32.5,72.4 32.7,72.8 32.9,73.1 33.2,73.4 
	33.3,73.7 33.5,74.2 33.6,74.5 33.8,74.8 33.9,75.3 34.1,75.7 34.2,75.9 34.2,76.4 34.3,76.7 34.4,77.2 34.5,77.5 34.5,77.9 
	34.6,78.4 34.6,78.7 34.6,79.1 34.7,79.6 34.7,79.9 34.7,80.4 34.7,80.6 34.7,80.8 34.7,81.1 34.7,81.3 34.9,81.6 34.9,81.8 
	34.9,82 35,82.3 35,82.5 35,82.7 35.1,82.9 35.1,83.2 35.2,83.3 35.3,83.5 35.4,83.7 35.4,83.9 35.5,84.2 35.6,84.4 35.7,84.6 
	35.9,84.8 36,84.9 36.1,85.1 36.2,85.4 36.3,85.6 36.4,85.7 36.6,85.9 36.8,86.1 36.8,86.3 37.1,86.4 37.2,86.7 37.4,86.9 37.6,87 
	37.8,87.2 38,87.3 38.1,87.6 38.3,87.7 38.5,87.9 38.7,88 38.9,88.1 39.1,88.2 39.2,88.5 39.4,88.6 39.6,88.7 39.9,88.8 40.1,88.9 
	40.2,89 40.5,89.1 40.7,89.1 40.9,89.2 41.1,89.3 41.4,89.4 41.6,89.4 41.8,89.6 42,89.6 42.2,89.7 42.3,89.7 42.7,89.8 42.8,89.8 
	43.1,89.8 43.3,89.9 43.6,89.9 43.8,89.9 44,89.9 44.3,89.9 44.5,89.9 44.7,89.9 44.9,89.9 45.2,89.9 45.4,89.8 45.6,89.8 
	45.8,89.8 46,89.7 46.3,89.7 46.5,89.6 46.7,89.6 46.9,89.4 47.2,89.4 47.4,89.3 47.6,89.2 47.8,89.1 48.1,89.1 48.3,89 48.4,88.9 
	48.6,88.8 48.8,88.7 49.1,88.6 49.2,88.5 49.4,88.2 49.6,88.1 49.8,88 49.9,87.9 50.2,87.7 50.4,87.6 50.5,87.3 50.8,87.2 51,87 
	51,86.9 51.3,86.7 51.4,86.4 51.5,86.3 51.8,86.1 51.9,85.9 52,85.7 52.2,85.6 52.3,85.4 52.4,85.1 52.5,84.9 52.6,84.8 52.7,84.6 
	52.9,84.4 53,84.2 53.1,83.9 53.1,83.7 53.2,83.5 53.3,83.3 53.3,83.2 53.4,82.9 53.4,82.7 53.5,82.5 53.5,82.3 53.6,82 53.6,81.8 
	53.6,81.6 53.7,81.3 53.7,81.1 53.7,80.8 53.7,80.6 53.7,80.4 53.7,79.9 53.7,79.6 53.7,79.1 53.9,78.7 53.9,78.4 53.9,77.9 
	54,77.5 54.1,77.2 54.1,76.7 54.2,76.4 54.3,75.9 54.5,75.7 54.5,75.3 54.7,74.8 54.8,74.5 55,74.2 55.1,73.7 55.2,73.4 55.4,73.1 
	55.7,72.8 55.8,72.4 56,72.1 56.2,71.8 56.4,71.4 56.7,71.1 56.9,70.8 57.1,70.4 57.5,70.1 57.7,69.8 57.9,69.4 58.3,69.1 
	58.6,68.8 58.8,68.6 59.1,68.2 59.5,68 59.7,67.6 60,67.4 60.3,67.1 60.7,66.9 61,66.7 61.3,66.4 61.7,66.2 62,66 62.4,65.8 
	62.7,65.7 63,65.5 63.4,65.4 63.7,65.1 64,65 64.5,64.9 64.8,64.7 65.2,64.6 65.6,64.4 66,64.3 66.3,64.3 66.7,64.2 67.1,64.2 
	67.5,64.2 67.8,64 68.3,64 68.8,63.9 69.1,63.9 69.5,63.9 70,63.9 70.3,63.9 70.7,63.9 71.2,63.9 71.6,64 72,64 72.3,64.2 
	72.8,64.2 73.1,64.2 73.6,64.3 73.9,64.3 74.3,64.4 74.7,64.6 75.1,64.7 75.5,64.9 75.8,65 76.3,65.1 76.6,65.4 76.9,65.5 
	77.2,65.7 77.6,65.8 78,66 78.3,66.2 78.7,66.4 79.1,66.7 79.4,66.9 79.7,67.1 80,67.4 80.4,67.6 80.7,68 81,68.2 81.4,68.6 
	81.8,68.8 81.9,69.1 82.3,69.4 82.6,69.8 82.9,70.1 83.2,70.4 83.4,70.8 83.6,71.1 83.8,71.4 84.2,71.8 84.4,72.1 84.5,72.4 
	84.7,72.8 85,73.1 85.2,73.4 85.3,73.7 85.6,74.2 85.7,74.5 85.8,74.8 85.9,75.3 86.1,75.7 86.2,75.9 86.3,76.4 86.3,76.7 
	86.4,77.2 86.5,77.5 86.5,77.9 86.7,78.4 86.7,78.7 86.8,79.1 86.8,79.6 86.8,79.9 86.8,80.4 86.8,80.6 86.8,80.8 86.8,81.1 
	86.8,81.3 86.9,81.6 86.9,81.8 86.9,82 87,82.3 87,82.5 87,82.7 87.1,82.9 87.2,83.2 87.2,83.3 87.3,83.5 87.4,83.7 87.4,83.9 
	87.5,84.2 87.6,84.4 87.8,84.6 87.9,84.8 88,84.9 88.1,85.1 88.2,85.4 88.3,85.6 88.5,85.7 88.7,85.9 88.8,86.1 88.9,86.3 
	89.1,86.4 89.2,86.7 89.5,86.9 89.6,87 89.8,87.2 90,87.3 90.1,87.6 90.3,87.7 90.6,87.9 90.7,88 90.9,88.1 91.1,88.2 91.2,88.5 
	91.4,88.6 91.7,88.7 91.9,88.8 92.2,88.9 92.2,89 92.4,89.1 92.7,89.1 92.9,89.2 93.1,89.3 93.4,89.4 93.6,89.4 93.8,89.6 94,89.6 
	94.1,89.7 94.5,89.7 94.6,89.8 94.9,89.8 95.1,89.8 95.4,89.9 95.6,89.9 95.8,89.9 96.1,89.9 96.3,89.9 96.5,89.9 96.8,89.9 
	97.1,89.9 97.3,89.9 97.5,89.8 97.7,89.8 97.9,89.8 98.2,89.7 98.4,89.7 98.6,89.7 98.8,89.6 99.1,89.6 99.3,89.4 99.5,89.3 
	99.8,89.3 100,89.2 100.1,89.1 100.3,89.1 100.5,89 100.6,88.9 100.9,88.8 101.1,88.7 101.2,88.6 101.4,88.5 101.5,88.4 101.7,88.2 
	101.8,88.1 102,87.9 102.2,87.8 102.3,87.7 102.4,87.4 102.7,87.3 102.8,87.2 103,86.9 103.1,86.7 103.3,86.3 103.4,86 103.7,85.7 
	103.8,85.4 104,85 104.1,84.6 104.3,84.2 104.5,83.7 104.7,83.2 104.9,82.7 105.1,82.1 105.2,81.6 105.4,81.1 105.6,80.5 
	105.9,79.9 106.1,79.4 106.3,78.8 106.6,78.3 106.8,77.8 107.1,77.3 107.4,76.9 107.7,76.4 107.9,75.9 108.2,75.5 108.6,75.1 
	108.9,74.7 109.2,74.3 109.6,74 109.9,73.5 110.3,73.2 110.6,72.9 111,72.5 111.4,72.3 111.8,72 112.3,71.7 112.6,71.4 113.1,71.2 
	113.5,70.9 114,70.6 114.4,70.4 114.9,70.3 115.4,70.1 115.8,69.9 116.4,69.8 116.9,69.7 117.3,69.6 117.9,69.4 118.4,69.4 
	119.2,69.3 119.8,69.3 120.8,69.2 121.8,69.2 122.8,69.1 123.9,69.1 125,69.1 126.3,69 127.7,69 129.1,69 130.7,69 132.3,69 
	133.9,69 133.9,59.5 "/>
</svg>
