<?xml version="1.0" encoding="utf-8"?>
<!-- Generator: Adobe Illustrator 28.0.0, SVG Export Plug-In . SVG Version: 6.00 Build 0)  -->
<svg version="1.1" id="Layer_1" xmlns="http://www.w3.org/2000/svg" xmlns:xlink="http://www.w3.org/1999/xlink" x="0px" y="0px"
	 viewBox="0 0 156 156" style="enable-background:new 0 0 156 156;" xml:space="preserve">
<style type="text/css">
	.st0{fill-rule:evenodd;clip-rule:evenodd;fill:#FFFFFF;}
	.st1{fill:#0000FF;}
	.st2{fill-rule:evenodd;clip-rule:evenodd;fill:#0000FF;}
	.st3{fill:none;}
</style>
<g>
	<polygon class="st0" points="0,63.11 156,63.11 156,92.89 0,92.89 	"/>
	<polygon class="st0" points="2.58,63.62 150.5,63.62 150.5,87.46 2.58,87.46 	"/>
	<rect x="2.72" y="72.63" class="st1" width="117.62" height="5.52"/>
	<polygon class="st2" points="132.34,65.36 149.62,75.97 132.34,86.58 	"/>
	<path class="st1" d="M132.04,87.1V64.84l0.44,0.27l17.68,10.86L132.04,87.1z M132.63,65.88v20.18l16.43-10.09L132.63,65.88z"/>
	<polygon class="st2" points="114.47,64.49 131.75,75.25 114.47,86 	"/>
	<path class="st1" d="M114.18,86.53V63.97l0.44,0.28l17.68,11l-0.4,0.25L114.18,86.53z M114.76,65.01v20.47l16.44-10.24
		L114.76,65.01z"/>
	<polygon class="st3" points="0.51,92.39 155.49,92.39 155.49,63.61 0.51,63.61 	"/>
</g>
</svg>
