<?xml version="1.0" encoding="utf-8"?>
<!-- Generator: Adobe Illustrator 28.0.0, SVG Export Plug-In . SVG Version: 6.00 Build 0)  -->
<svg version="1.1" id="Layer_1" xmlns="http://www.w3.org/2000/svg" xmlns:xlink="http://www.w3.org/1999/xlink" x="0px" y="0px"
	 viewBox="0 0 156 156" style="enable-background:new 0 0 156 156;" xml:space="preserve">
<style type="text/css">
	.st0{fill-rule:evenodd;clip-rule:evenodd;fill:#FFFFFF;}
	.st1{fill:#0000FF;}
	.st2{fill-rule:evenodd;clip-rule:evenodd;fill:#0000FF;}
	.st3{font-family:'MyriadPro-Regular';}
	.st4{font-size:27.7084px;}
	.st5{letter-spacing:4.01;}
	.st6{fill:none;}
</style>
<g>
	<polygon class="st0" points="29.37,0 126.63,0 126.63,156 29.37,156 29.37,0 	"/>
	<polygon class="st0" points="29.86,0.98 124.09,0.98 124.09,152.98 29.86,152.98 29.86,0.98 	"/>
	<rect x="41.53" y="41.2" class="st1" width="7.92" height="91.52"/>
	<path class="st2" d="M30.49,137.94c0-7.96,6.68-14.41,14.92-14.41l0,0l0,0c8.24,0,14.92,6.45,14.92,14.41l0,0l0,0
		c0,7.96-6.68,14.41-14.92,14.41l0,0l0,0C37.17,152.35,30.49,145.9,30.49,137.94L30.49,137.94L30.49,137.94z"/>
	<path class="st1" d="M45.41,152.82c-8.49,0-15.39-6.68-15.39-14.88s6.9-14.88,15.39-14.88s15.39,6.67,15.39,14.88
		S53.89,152.82,45.41,152.82z M45.41,124c-7.96,0-14.44,6.25-14.44,13.93c0,7.69,6.48,13.94,14.44,13.94s14.44-6.25,14.44-13.94
		C59.85,130.26,53.37,124,45.41,124z"/>
	<path class="st1" d="M82.66,81.1c-22.77,0-41.29-17.93-41.29-39.98S59.89,1.14,82.66,1.14s41.29,17.94,41.29,39.98
		S105.42,81.1,82.66,81.1z M82.66,9.06c-18.4,0-33.37,14.38-33.37,32.06s14.97,32.06,33.37,32.06c18.4,0,33.37-14.38,33.37-32.06
		S101.06,9.06,82.66,9.06z"/>
	<text transform="matrix(0.9969 0 0 1 64.7777 51.3779)"><tspan x="0" y="0" class="st1 st3 st4 st5">E</tspan><tspan x="18.51" y="0" class="st1 st3 st4">Z</tspan></text>
	<polygon class="st6" points="29.87,155.51 126.13,155.51 126.13,0.49 29.87,0.49 29.87,155.51 	"/>
</g>
</svg>
