<?xml version="1.0" encoding="utf-8"?>
<!-- Generator: Adobe Illustrator 28.0.0, SVG Export Plug-In . SVG Version: 6.00 Build 0)  -->
<svg version="1.1" id="Layer_1" xmlns="http://www.w3.org/2000/svg" xmlns:xlink="http://www.w3.org/1999/xlink" x="0px" y="0px"
	 viewBox="0 0 156 156" width="156px" height="156px"  style="enable-background:new 0 0 156 156;" xml:space="preserve">
<style type="text/css">
	.st0{fill:#0000FF;}
	.st1{font-family:'MyriadPro-Regular';}
	.st2{font-size:27.2872px;}
	.st3{letter-spacing:3;}
</style>
<g>
	<rect x="42.9" y="40.6" class="st0" width="7.8" height="90"/>
	<path class="st0" d="M83.9,79.7c-22.5,0-40.8-17.7-40.8-39.4S61.4,1,83.9,1s40.8,17.7,40.8,39.4S106.3,79.7,83.9,79.7z M83.9,8.8
		c-18.2,0-33,14.2-33,31.6s14.8,31.6,33,31.6s33-14.2,33-31.6S102,8.8,83.9,8.8z"/>
	<text transform="matrix(1.0017 0 0 1 66.2197 50.4443)" class="st0 st1 st2 st3">E</text>
	<text transform="matrix(1.0017 0 0 1 84.4805 50.4443)" class="st0 st1 st2">L</text>
	
		<rect x="42.8" y="116.2" transform="matrix(0.7081 -0.7061 0.7061 0.7081 -82.4648 72.7158)" class="st0" width="7.8" height="39.7"/>
	
		<rect x="26.8" y="132.3" transform="matrix(0.7058 -0.7084 0.7084 0.7058 -82.7283 73.1648)" class="st0" width="39.7" height="7.8"/>
</g>
</svg>
