<?xml version="1.0" encoding="utf-8"?>
<!-- Generator: Adobe Illustrator 28.0.0, SVG Export Plug-In . SVG Version: 6.00 Build 0)  -->
<svg version="1.1" id="Layer_1" xmlns="http://www.w3.org/2000/svg" xmlns:xlink="http://www.w3.org/1999/xlink" x="0px" y="0px"
	 viewBox="0 0 156 156" style="enable-background:new 0 0 156 156;" xml:space="preserve">
<style type="text/css">
	.st0{fill:#0000FF;}
</style>
<g>
	<path class="st0" d="M77.5,153.6c-20.9,0-37.9-17-37.9-37.8l0,0c0-20.8,17-37.8,37.9-37.8s37.9,17,37.9,37.8S98.4,153.6,77.5,153.6
		z M77.5,87.2c-15.8,0-28.7,12.8-28.7,28.6s12.8,28.6,28.7,28.6s28.7-12.8,28.7-28.6C106.2,100,93.3,87.2,77.5,87.2z"/>
	
		<rect x="35.8" y="36.6" transform="matrix(1.737237e-03 -1 1 1.737237e-03 34.7865 117.2935)" class="st0" width="80.7" height="9.2"/>
	<rect x="72.4" y="0.7" class="st0" width="28.5" height="9.2"/>
	<rect x="72.4" y="19.7" class="st0" width="28.5" height="9.2"/>
	<rect x="72.7" y="38.2" class="st0" width="28.4" height="9.2"/>
</g>
</svg>
