<?xml version="1.0" encoding="utf-8"?>
<!-- Generator: Adobe Illustrator 28.0.0, SVG Export Plug-In . SVG Version: 6.00 Build 0)  -->
<svg version="1.1" id="Layer_1" xmlns="http://www.w3.org/2000/svg" xmlns:xlink="http://www.w3.org/1999/xlink" x="0px" y="0px"
	 viewBox="0 0 156 156" style="enable-background:new 0 0 156 156;" xml:space="preserve">
<style type="text/css">
	.st0{fill-rule:evenodd;clip-rule:evenodd;fill:#FFFFFF;}
	.st1{fill:#0000FF;}
	.st2{fill:none;}
</style>
<g>
	<polygon class="st0" points="38.63,0 117.37,0 117.37,156 38.63,156 38.63,0 	"/>
	<polygon class="st0" points="39.55,0.61 115.47,0.61 115.47,153.66 39.55,153.66 39.55,0.61 	"/>
	<path class="st1" d="M77.51,153.55c-20.88,0-37.87-16.96-37.87-37.8v0c0-20.85,16.99-37.8,37.87-37.8
		c20.88,0,37.87,16.96,37.87,37.8S98.39,153.55,77.51,153.55z M77.51,87.17c-15.8,0-28.65,12.82-28.65,28.58
		c0,15.76,12.85,28.59,28.65,28.59s28.65-12.82,28.65-28.58C106.16,99.99,93.31,87.17,77.51,87.17z"/>
	
		<rect x="35.79" y="36.62" transform="matrix(1.737240e-03 -1 1 1.737240e-03 34.7797 117.2916)" class="st1" width="80.7" height="9.22"/>
	<rect x="72.38" y="0.71" class="st1" width="28.45" height="9.22"/>
	<rect x="72.38" y="19.7" class="st1" width="28.45" height="9.22"/>
	<rect x="72.7" y="38.25" class="st1" width="28.45" height="9.22"/>
	<polygon class="st2" points="39.12,155.51 116.88,155.51 116.88,0.49 39.12,0.49 39.12,155.51 	"/>
</g>
</svg>
