<?xml version="1.0" encoding="utf-8"?>
<!-- Generator: Adobe Illustrator 28.0.0, SVG Export Plug-In . SVG Version: 6.00 Build 0)  -->
<svg version="1.1" id="Layer_1" xmlns="http://www.w3.org/2000/svg" xmlns:xlink="http://www.w3.org/1999/xlink" x="0px" y="0px"
	 viewBox="0 0 156 156" width="156px" height="156px"  style="enable-background:new 0 0 156 156;" xml:space="preserve">
<style type="text/css">
	.st0{fill:#FF1415;}
</style>
<g>
	<path class="st0" d="M46.7,0c0.2,1.3,0.5,2.7,0.7,4.1c0.1,0.4,0.2,0.8,0.3,1.2c0.1,0.2,0,0.3-0.2,0.3c-1.8,0.2-3.6,0.5-5.4,0.8
		c-2.8,0.4-5.4,0.8-8.2,1.2c-2.7,0.4-5.4,0.8-8.1,1.2c-2.8,0.4-5.4,0.8-8.2,1.2c-2.6,0.4-5.1,0.7-7.7,1.1c-0.3,0-0.4,0.2-0.4,0.4
		c0.1,2.3,0.2,4.5,0.3,6.7s0.2,4.4,0.3,6.6c0.1,3.6,0.3,7.3,0.4,10.9c0.1,2.8,0.2,5.6,0.3,8.4c0.1,2.6,0.2,5.2,0.3,7.8
		c0,0.4-0.1,0.5-0.4,0.5c-1.6,0.1-3.4,0.2-5,0.3c-0.3,0-0.4,0-0.5-0.4c-0.1-3.5-0.3-7-0.4-10.4c-0.1-2.8-0.2-5.5-0.3-8.1
		C4.4,30.5,4.2,27.1,4,23.6c-0.1-2.6-0.2-5.2-0.3-7.7C3.5,12.9,3.4,10,3.3,7c0-0.2,0-0.4,0-0.6s0-0.3,0.3-0.3C5.4,5.9,7.1,5.6,9,5.4
		c2-0.3,3.9-0.5,5.7-0.8c3-0.4,6-0.8,9-1.3c3.3-0.5,6.7-0.9,10-1.4c3.7-0.5,7.4-1,11-1.5c0.1,0,0.2,0,0.2-0.1C45.4,0,46.1,0,46.7,0z
		"/>
	<path class="st0" d="M14.9,114c0.1-0.2,0.2-0.2,0.3-0.3c2.5-1.8,4.9-3.6,7.5-5.4c0.6-0.4,0.9-1,1.1-1.6c0.9-3.3,1.8-6.6,2.6-10
		c0.1-0.3,0.1-0.5,0.1-0.8c0-1.9,0-3.7,0-5.5c0-0.2,0.1-0.4,0.2-0.6c3.3-3.9,6.5-7.8,9.8-11.7c0.2-0.2,0.2-0.4,0.3-0.7
		c0.1-0.8,0.2-1.8,0.2-2.6c0-0.2,0.1-0.3,0.2-0.4c2.3-3,4.5-6,6.9-8.9c1.6-2.1,3.3-4.2,4.9-6.3c2.2-2.7,4-5.6,6.2-8.2
		c3-3.7,6.2-7.3,9.5-10.6c1.8-1.8,3.6-3.6,5.3-5.4c0.6-0.6,1.3-1,2.1-1.5c0.9-0.6,1.8-1.1,2.8-1.6c0.2-0.1,0.4-0.2,0.7-0.2
		c13.5,0,27.1,0,40.5,0c0.3,0,0.5,0.1,0.7,0.3c2.5,2.4,4.9,4.7,7.4,7.1c2.1,1.9,3.9,3.8,6,5.7c0.2,0.2,0.3,0.4,0.3,0.6
		c0,3.8,0,7.6,0,11.4c0,0.3,0.1,0.5,0.4,0.6c0.9,0.5,1.8,1,2.8,1.5c0.8,0.4,1.5,0.9,2.4,1.2c0.2,0.1,0.3,0.3,0.3,0.5
		c0,3.7-0.1,7.4-0.1,11c0,3-0.1,6.1-0.1,9.1c0,2.8-0.1,5.5-0.1,8.2c0,0.2,0,0.4,0.1,0.6c0.5,1.6,1,3.3,1.4,4.9
		c0.1,0.2,0.1,0.4,0,0.7c-0.4,0.8-0.7,1.6-1,2.5c-0.1,0.3-0.3,0.4-0.6,0.5c-0.9,0.2-1.7,0.4-2.7,0.5c-0.3,0-0.3,0.1-0.2,0.4
		c0.3,0.6,0.5,1.2,0.7,1.8c0.1,0.2,0.1,0.3,0.1,0.5c-0.2,0.9-0.4,2-0.6,2.9c-0.3,1.2-0.4,2.5-0.6,3.8c-0.6,3.4-0.7,6.9-0.7,10.3
		c0,0.2-0.1,0.4-0.3,0.5c-1,0.7-2.2,1.4-3.2,2.3c-0.1,0.1-0.2,0.2-0.3,0.3c-1.4,2-2.7,4-3.6,6.3c-0.1,0.2-0.2,0.5-0.2,0.7
		c0,0.3-0.2,0.4-0.5,0.4c-0.8,0.1-1.5,0.2-2.4,0.3c-0.2,0-0.3,0.1-0.4,0.2c-0.6,0.7-1.3,1.4-2,2.2c-0.1,0.2-0.3,0.2-0.5,0.2
		c-3.5,0-7.1,0-10.6,0c-0.2,0-0.3,0-0.4-0.1c-0.9-1-1.7-2-2.7-3c0,0,0,0,0-0.1c0.7-0.1,1.3-0.1,2-0.1c2.4,0,4.8-0.1,7.2-0.1
		c2.3,0,4.5-0.1,6.9-0.1c0.3,0,0.4-0.1,0.5-0.3c1.1-1.9,2.2-3.6,3.3-5.5c0.3-0.4,0.2-0.8,0.2-1.3c0-0.7,0.1-0.7-0.6-0.6
		c-3.9,0.3-7.9,0.7-11.8,1.1c-1.6,0.2-3.4,0.3-5,0.4c-0.2,0-0.4,0.1-0.5,0.3c-1,1.2-2.2,2.5-3.2,3.7c-0.1,0.1-0.1,0.3-0.3,0.2
		c-0.2-0.1-0.1-0.2-0.2-0.4c-0.5-2.1-0.9-4.2-1.4-6.3c-0.1-0.3-0.2-0.5-0.6-0.6c-0.9-0.1-1.7-0.4-2.7-0.5c-0.8-0.1-1.6-0.3-2.5-0.4
		c-0.2,0-0.4-0.1-0.5-0.4c-1.1-2.6-2.3-5.2-3.4-7.7c-0.3-0.8-0.8-1.6-1.1-2.5c-0.1-0.2-0.2-0.2-0.4-0.3c-2.8-1.4-5.7-2.5-8.7-3.2
		c-3.1-0.7-6.2-1.3-9.3-1.6c-1.4-0.1-2.8-0.2-4.2-0.4c-0.3,0-0.4,0.1-0.4,0.4c0.2,3.5,0.5,7,0.7,10.5c0.1,1.2,0.2,2.4,0.2,3.6
		c0,0.3,0.1,0.5,0.4,0.7c1.4,0.8,2.9,1.8,4.3,2.7c1.2,0.8,2.6,1.6,3.7,2.6c0.6,0.4,1.1,1,1.7,1.4c0.1,0.1,0.2,0.2,0.3,0.3
		c0.8,1.3,1.7,2.7,2.6,4.1c0.1,0.2,0.3,0.3,0.6,0.3c3.5,0.2,6.9,0.3,10.4,0.5c0.8,0,1.7,0.1,2.6,0.1c0.1,0.1,0,0.2-0.1,0.2
		c-0.7,0.7-1.5,1.4-2.3,2.2c-0.2,0.1-0.3,0.2-0.5,0.2c-1.6-0.1-3.4-0.1-5-0.2c-1.3,0-2.8-0.1-4.1-0.1c-0.1,0-0.3,0-0.4-0.1
		c0,0-0.1,0-0.1-0.1c-0.5-0.4-1-0.9-1.6-1.1c-0.6-0.2-1.3-0.1-2.1-0.1c-1.1,0-2.4,0-3.5,0c-0.3,0-0.6,0.1-0.9,0.2
		c-0.4,0.2-0.7,0.4-1.1,0.6c-0.1,0.1-0.2,0.1-0.3-0.1c-0.1-0.3-0.3-0.5-0.4-0.8c-0.1-0.2-0.2-0.2-0.4-0.1c-0.4,0.2-0.8,0.4-1.2,0.7
		c-0.7,0.5-1.5,0.4-2.4,0.5c-0.2,0-0.2-0.1-0.2-0.2c0-0.4,0-0.7,0-1.1c0-0.3-0.1-0.3-0.3-0.2c-0.9,0.5-2,0.9-2.9,1.2
		c-2,0.7-3.9,1.2-6,1.1c-0.9,0-1.8-0.2-2.7-0.7c-0.5-0.3-1.1-0.6-1.6-0.9c-0.2-0.1-0.3-0.1-0.5,0c-1.6,0.6-3.4,1-5.1,1.4
		c-0.2,0.1-0.4,0.1-0.7,0.1c-3.9,0-7.7,0-11.6,0c-0.4,0-0.7-0.1-1.1-0.2c-0.6-0.2-1.2-0.4-2-0.7c-0.2-0.1-0.4-0.1-0.6,0
		c-0.9,0.7-2.1,0.8-3.2,0.9c-2.5,0-4.9,0.1-7.4,0.2c-0.3,0-0.6,0-0.8-0.1c-0.8-0.3-1.7-0.6-2.7-0.9c-0.3-0.1-0.4-0.2-0.4-0.5
		c-0.3-2.6-0.7-5.3-1-7.8c0-0.1,0-0.2,0-0.3c0-0.3-0.2-0.7-0.1-0.9c0.2-0.2,0.6-0.2,0.9-0.3c1.6-0.5,3.4-1,5-1.5
		c0.3-0.1,0.4-0.2,0.3-0.5c-0.2-1.8-0.3-3.6-0.5-5.4c0-0.4-0.1-0.8-0.1-1.2c0-0.3-0.1-0.3-0.4-0.2c-2.6,0.6-5.1,1.2-7.8,1.9
		C15,114,14.9,114,14.9,114z M129.4,64.2c0-0.7,0-0.7-0.7-0.7c-5.2,0-10.5,0.1-15.7,0.1c-5.4,0-10.8,0.1-16.2,0.1S86,63.8,80.5,63.8
		c-3.8,0-7.5,0-11.3,0c-0.4,0-0.7,0.1-0.9,0.4c-2,1.9-4,3.6-6,5.4c-0.3,0.2-0.3,0.2-0.4-0.1c-0.4-1.2-0.9-2.4-1.3-3.6
		c-0.2-0.4-0.2-0.4-0.5-0.1c-4,3.9-8,7.9-12,11.9c-1.4,1.4-2.9,2.9-4.3,4.2c-0.1,0.1-0.2,0.2-0.2,0.4c0.1,1.2,0.2,2.5,0.3,3.6
		c0.2,2,0.2,3.9,0.6,5.9c0.1,0.8,0.2,1.8,0.2,2.6c0,0.3,0.1,0.3,0.3,0.2c0,0,0.1-0.1,0.2-0.1c8-5.3,16.1-10.5,24.1-15.8
		c0.2-0.1,0.3-0.1,0.5-0.2c2.3,0,4.5-0.1,6.8-0.1c2.3-0.1,4.5-0.1,6.9-0.2c2.3-0.1,4.5-0.1,6.8-0.2c3.4-0.1,6.8-0.2,10.2-0.2
		c2.3-0.1,4.5-0.1,6.9-0.2c2.3-0.1,4.5-0.1,6.9-0.2c2.3-0.1,4.5-0.1,6.8-0.2c2.6-0.1,5.1-0.1,7.7-0.2c0.3,0,0.4-0.1,0.4-0.4
		c0-0.8,0.1-1.6,0.1-2.6C129,70.9,129.2,67.5,129.4,64.2z M100.5,83.7c-6.5,0-12.8,0-19.3,0c-0.4,0-0.5,0.1-0.5,0.5
		c0,2.5,0,4.9,0,7.4c0,0.3,0.1,0.4,0.3,0.6c1,0.6,2.1,1.3,3.1,2c0.2,0.1,0.4,0.2,0.6,0.2c2.3,0,4.4-0.1,6.7-0.1
		c2.9-0.1,5.6-0.1,8.5-0.2c2.8,0,5.4-0.1,8.2-0.2c2.9-0.1,5.9-0.1,8.7-0.2c1.1,0,2.2,0,3.3,0c0.3,0,0.5-0.1,0.5-0.5
		c-0.1-3-0.2-5.9-0.3-8.9c0-0.6,0-0.6-0.6-0.6C113.4,83.7,107,83.7,100.5,83.7z M72.9,88.2L72.9,88.2C73,87,73,86,73.1,84.9
		c0-0.5,0-0.5-0.5-0.6c-1.2-0.2-2.4-0.3-3.6-0.5c-0.4-0.1-0.8,0-1.1,0.2c-8,4.9-15.8,10.2-23.8,15c-0.2,0.1-0.3,0.2-0.2,0.5
		c0.2,0.8,0.3,1.6,0.5,2.5c0.2,0.9,0.3,2,0.5,2.9c0,0.3,0.1,0.4,0.4,0.2c5.9-2.7,11.6-5.4,17.4-7.8c0.2-0.1,0.4-0.2,0.5-0.4
		c0.9-1.1,2-2.3,2.9-3.5c0.1-0.2,0.3-0.3,0.5-0.3c2-0.3,3.8-0.6,5.7-0.9c0.3,0,0.3-0.2,0.4-0.4C72.7,90.4,72.8,89.3,72.9,88.2z
		 M81.9,48.4c-4.1,0-8.3,0-12.4,0c-0.3,0-0.4,0.1-0.4,0.4c-0.1,3.1-0.2,6.3-0.3,9.4c0,0.5,0,0.5,0.5,0.4c1.7-0.2,3.5-0.5,5.2-0.7
		c3.3-0.5,6.7-0.9,10-1.4c3.2-0.4,6.4-0.9,9.5-1.3c0.3,0,0.4-0.1,0.4-0.4c0.1-2,0.2-3.9,0.3-5.9c0-0.4-0.1-0.4-0.4-0.4
		C90.1,48.4,86,48.4,81.9,48.4z M112.3,48.4c-3.4,0-6.9,0-10.3,0c-0.3,0-0.4,0.1-0.4,0.4c0.1,0.6,0.1,1.2,0.2,1.8
		c0.1,1.2,0.3,2.5,0.4,3.7c0,0.3,0.1,0.4,0.4,0.4c0.6,0,1.1,0.1,1.7,0.2c2.2,0.2,4.4,0.5,6.6,0.7c2,0.2,3.9,0.4,5.9,0.6
		c2,0.2,3.9,0.4,5.9,0.6c0.3,0,0.4,0,0.4-0.4c0-2.6,0-5.2,0-7.7c0-0.4-0.1-0.5-0.5-0.5C119.1,48.4,115.7,48.4,112.3,48.4z
		 M40.4,86.4c-0.1,0-0.2,0.1-0.3,0.1c-3.7,3.2-7.4,6.4-11,9.6c-0.2,0.1-0.2,0.3-0.3,0.5c-0.6,2.9-1.2,5.9-1.8,8.8
		c0,0.2-0.2,0.4-0.1,0.7c0.2-0.1,0.4-0.2,0.6-0.4c4-2.5,8-5.1,12-7.4c0.4-0.3,0.5-0.5,0.6-1c0.1-3.1,0.2-6.2,0.3-9.3
		C40.4,87.4,40.4,86.9,40.4,86.4z M27.1,116.7c0.5-0.5,1-0.9,1.5-1.4c0.2-0.2,0.4-0.4,0.6-0.5c1.7-0.9,3.5-1.9,5.3-2.8
		c0.2-0.1,0.3-0.1,0.5-0.1c0.9,0.2,1.7,0.3,2.7,0.5c0.3,0.1,0.5,0,0.6-0.3c0.6-1.3,1.2-2.6,1.8-3.9c0.1-0.3,0.2-0.5,0.1-0.8
		c-0.2-1.5-0.5-3-0.7-4.5c0-0.3-0.1-0.4-0.4-0.2c-3.9,2.4-7.9,4.6-11.8,7c-0.2,0.1-0.3,0.3-0.3,0.6c0,2.1,0,4.1,0,6.1
		C27.1,116.5,27.1,116.6,27.1,116.7z M84.1,42.8c2.1,0,4,0,6.1,0c0.3,0,0.4-0.1,0.4-0.4c0-1,0-2.2,0-3.2c0-0.3-0.1-0.4-0.4-0.4
		c-1,0-2.1,0.1-3.1,0.1c-2.8,0.1-5.5,0.1-8.3,0.2c-0.3,0-0.4,0.1-0.4,0.3c-0.2,0.9-0.3,2-0.5,2.9c-0.1,0.3,0,0.4,0.3,0.4
		C80.1,42.7,82.2,42.8,84.1,42.8z M108.5,42.8L108.5,42.8c2-0.1,4-0.2,6-0.3c0.3,0,0.4-0.1,0.3-0.4c-0.3-0.8-0.5-1.6-0.7-2.5
		c-0.1-0.4-0.2-0.5-0.6-0.5c-3.8,0-7.6,0-11.4,0c-0.1,0-0.2,0-0.3,0s-0.2,0-0.2,0.2c0.2,1.2,0.4,2.4,0.6,3.6c0,0.2,0.1,0.2,0.3,0.2
		C104.5,43,106.6,42.9,108.5,42.8z M61.2,66.1c0.2,0,0.2-0.1,0.3-0.2c0.8-0.6,1.5-1.2,2.4-1.9c0.3-0.2,0.3-0.4,0.3-0.7
		c-0.2-2-0.4-3.9-0.6-5.9c-0.2-2.5-0.5-4.9-0.7-7.5c0-0.3-0.1-0.3-0.3-0.2c-0.4,0.3-0.8,0.6-1.3,0.8c-0.3,0.2-0.4,0.4-0.4,0.7
		c0.1,4.5,0.2,9,0.3,13.5C61.2,65.3,61.1,65.7,61.2,66.1z M98,111.6c-0.1,0.2,0.1,0.3,0.2,0.4c0.7,0.4,1.4,0.9,2.3,1.3
		c0.2,0.1,0.3,0.1,0.5,0.1c0.7-0.2,1.4-0.4,2.3-0.5c0.2,0,0.3-0.2,0.4-0.3c0.4-0.8,0.7-1.5,1.1-2.4c0.1-0.2,0.1-0.4-0.1-0.6
		c-1-0.9-2-2-3-3c-0.2-0.2-0.3-0.2-0.5-0.1c-0.8,0.3-1.6,0.6-2.5,0.8c-0.2,0.1-0.3,0.1-0.3,0.4C98.2,109,98.1,110.3,98,111.6z
		 M129.8,87.5c0-1.1,0-2.3,0-3.5c0-0.3-0.1-0.4-0.4-0.3c-0.7,0.1-1.4,0.2-2.2,0.2c-0.2,0-0.3,0.1-0.3,0.3c0,0.5,0.1,1.1,0.1,1.6
		c0.1,1.8,0.2,3.6,0.3,5.4c0,0.3,0.1,0.4,0.4,0.3c0.5-0.1,1-0.2,1.6-0.2c0.3,0,0.4-0.1,0.4-0.4C129.8,89.8,129.8,88.7,129.8,87.5z
		 M55.3,66.5c0-0.5,0-1.1,0-1.6c0-0.8,0.1-0.6-0.6-0.9c0,0,0,0-0.1,0c-0.2-0.1-0.4-0.1-0.5,0.1c-0.9,1-1.7,2-2.7,3
		c-0.1,0.1-0.2,0.2-0.2,0.4c0.1,1.1,0.2,2.3,0.3,3.3c0,0.3,0.1,0.3,0.3,0.2c1-0.6,2.2-1.2,3.2-2c0.2-0.1,0.3-0.3,0.3-0.5
		C55.3,67.8,55.3,67.2,55.3,66.5z M53,119.2L53,119.2c0-0.8-0.1-1.6-0.1-2.5c0-0.2-0.1-0.3-0.3-0.3c-0.9,0-1.8,0-2.8,0
		c-0.2,0-0.3,0.1-0.3,0.3c0,0.5,0.1,1,0.1,1.4c0.1,1.1,0.1,2.4,0.2,3.5c0,0.2,0.1,0.3,0.3,0.3c0.9-0.1,1.8-0.2,2.8-0.3
		c0.3,0,0.4-0.1,0.3-0.4C53.1,120.6,53.1,119.9,53,119.2z M39.6,77.4c-0.1,0-0.1,0-0.1,0c-0.8,0.8-1.6,1.6-2.5,2.5
		c-0.1,0.1-0.1,0.2-0.1,0.3c0.3,1.4,0.6,3,1,4.4c0,0.2,0.1,0.3,0.3,0.3c0.6,0,1.2,0,1.7,0c0.2,0,0.3-0.1,0.3-0.3c0-0.1,0-0.2,0-0.3
		c-0.2-1.8-0.3-3.4-0.5-5.2C39.8,78.7,39.7,78.1,39.6,77.4z M56.2,119.1c0,0.9,0,1.9,0,2.7c0,0.2,0.1,0.3,0.3,0.4
		c0.4,0.1,0.7,0.1,1.1,0.2c0.2,0,0.3,0,0.3-0.2c0-0.5,0.1-1.1,0.2-1.6c0.1-1.2,0.3-2.6,0.4-3.8c0-0.2,0-0.3-0.3-0.3
		c-0.6-0.1-1.1-0.2-1.7-0.3c-0.2,0-0.3,0-0.3,0.3C56.2,117.2,56.2,118.2,56.2,119.1z M61,113.3L61,113.3c0,1.1-0.1,2.4-0.1,3.5
		c0,0.2,0,0.3,0.3,0.3c0.2-0.1,0.4-0.1,0.7-0.2c0.3,0,0.3-0.2,0.4-0.4c0.1-1.3,0.2-2.7,0.3-4c0.1-0.9,0.2-2,0.3-2.9
		c0-0.3-0.1-0.4-0.4-0.3s-0.6,0.1-0.9,0.2c-0.3,0-0.4,0.2-0.4,0.4C61.1,110.9,61.1,112.1,61,113.3z M116.4,119.3c0.1,0,0.2,0,0.3,0
		c2-0.2,3.8-0.4,5.7-0.5c0.2,0,0.2-0.1,0.1-0.3c-0.2-0.6-0.3-1.2-0.5-1.8c-0.1-0.2-0.2-0.3-0.4-0.3c-1.1,0.3-2.4,0.5-3.6,0.8
		c-0.1,0-0.3,0-0.3,0.2C117.4,118.1,117,118.7,116.4,119.3z M32.5,85.3c-0.7,0.6-1.3,1.1-2,1.6c-0.1,0.1-0.1,0.2-0.1,0.3
		c-0.1,1.2-0.2,2.6-0.3,3.8c0,0.3,0,0.3,0.3,0.2c0.6-0.2,1.2-0.4,1.7-0.5c0.2-0.1,0.3-0.2,0.3-0.4c0-0.5,0-0.9,0-1.4
		C32.5,87.7,32.5,86.6,32.5,85.3z M34.4,126.7c0.3,0,0.6,0,0.8,0s0.3-0.1,0.2-0.3c-0.3-1.2-0.6-2.5-0.9-3.8c0-0.2-0.1-0.3-0.3-0.2
		c-0.4,0-0.8,0-1.1,0c-0.2,0-0.3,0.1-0.3,0.3c0.1,1,0.3,2,0.4,3c0,0.3,0,0.7,0.2,0.9C33.7,126.8,34.1,126.6,34.4,126.7z"/>
	<path class="st0" d="M156,72.8c-0.2,1.5-0.3,3.2-0.5,4.8c-0.1,1.4-0.3,2.9-0.4,4.3c-0.2,1.6-0.3,3.4-0.5,5.1s-0.3,3.3-0.5,5.1
		c-0.2,2-0.4,3.9-0.6,5.9c-0.2,1.6-0.3,3.3-0.5,4.9c-0.2,2-0.4,3.8-0.6,5.8c-0.2,2-0.4,3.9-0.6,5.8c-0.2,2.2-0.4,4.3-0.6,6.5
		c-0.2,2-0.4,3.9-0.6,5.8c-0.2,2.3-0.4,4.4-0.7,6.7c-0.2,1.9-0.4,3.8-0.6,5.7c-0.3,2.8-0.5,5.5-0.8,8.2c-0.2,1.6-0.3,3.3-0.5,5.1
		c0,0.3-0.1,0.3-0.4,0.3c-4.4-0.7-8.8-1.4-13.2-2.1c-3.9-0.6-7.7-1.2-11.6-1.9c-3.5-0.5-7.1-1.1-10.6-1.6c-3.5-0.5-7.1-1.1-10.6-1.6
		c-3.2-0.5-6.4-1-9.5-1.5s-6.4-1-9.5-1.5c-2.9-0.4-5.7-0.9-8.6-1.3c-0.9-0.1-1.8-0.3-2.8-0.4c-0.3,0-0.3-0.1-0.3-0.4
		c0.3-1.9,0.6-3.6,0.8-5.5c0-0.3,0.1-0.4,0.5-0.4c3.5,0.6,7,1.1,10.6,1.6c3.3,0.5,6.6,1,10,1.5c3.3,0.5,6.6,1.1,10,1.5
		c5,0.6,10.2,1.5,15.2,2.4c4.8,0.7,9.8,1.5,14.6,2.4c3.2,0.5,6.5,1,9.6,1.5c0.3,0.1,0.4-0.1,0.4-0.3c0.2-1.6,0.3-3.3,0.5-5.1
		c0.2-2.2,0.4-4.3,0.6-6.6c0.2-2,0.4-3.9,0.6-5.8c0.2-2.2,0.4-4.4,0.6-6.6c0.2-1.9,0.4-3.8,0.6-5.7c0.2-2.3,0.4-4.4,0.7-6.7
		c0.2-2.2,0.4-4.4,0.6-6.6c0.2-1.9,0.4-3.8,0.6-5.7c0.2-2,0.4-3.9,0.6-5.9c0.2-2.2,0.4-4.4,0.6-6.6c0.2-2,0.4-3.9,0.6-5.8
		c0.2-2.1,0.4-4.1,0.6-6.1c0-0.3,0.1-0.3,0.3-0.3c1.3,0.1,2.6,0.3,3.9,0.4c0.6,0.1,1.2,0.1,1.8,0.2C156,72.5,156.1,72.5,156,72.8z"
		/>
	<path class="st0" d="M154.9,5.1c0,0.7,0,1.3-0.1,2c-0.2,3.2-0.4,6.4-0.6,9.5c-0.1,2.4-0.3,4.7-0.4,7c-0.2,3.2-0.4,6.4-0.6,9.6
		c-0.1,2-0.2,3.9-0.3,5.8c-0.2,3.2-0.4,6.4-0.6,9.6c-0.1,1.5-0.2,3.1-0.3,4.6c0,0.3-0.1,0.5-0.5,0.4c-1.7-0.2-3.5-0.4-5.2-0.6
		c-0.3,0-0.4-0.1-0.4-0.5c0.2-2.5,0.3-4.9,0.4-7.4c0.2-2.8,0.3-5.6,0.5-8.4c0.1-2.4,0.3-4.7,0.4-7.1c0.1-2.4,0.3-4.8,0.4-7.2
		c0.1-1.9,0.2-3.8,0.3-5.7c0.1-0.9,0.1-1.9,0.2-2.8c0-0.4,0-0.4-0.4-0.3c-4.9,1.5-9.8,3.1-14.7,4.7c-1.1,0.3-2.3,0.7-3.4,1
		c-5.7,1.6-11.5,3.6-17.1,5.5c-0.3,0.1-0.5,0-0.6-0.3c-0.9-1.8-1.8-3.4-2.8-5.2C124.4,14.7,139.6,9.9,154.9,5.1z"/>
	<path class="st0" d="M54.1,156c-1.4-0.3-2.9-0.6-4.2-0.9c-6.9-1.5-13.7-3.1-20.5-4.6c-4.8-1.1-9.6-2.2-14.5-3.3
		c-0.8-0.2-1.7-0.4-2.6-0.6c-0.3-0.1-0.4-0.2-0.5-0.5c-0.5-2.2-1.1-4.2-1.6-6.4c-1.6-6.1-3.2-12.2-4.8-18.2c-0.1-0.3,0-0.4,0.3-0.5
		c1.7-0.4,3.5-0.9,5.2-1.4c0.3-0.1,0.4,0,0.5,0.3c1,4.2,2.1,8.4,3.3,12.6c0.8,3,1.5,6,2.4,9c0.1,0.2,0.2,0.3,0.4,0.3
		c2.6,0.5,5.1,1.1,7.7,1.6c6.3,1.3,12.5,2.7,18.8,4c3.7,0.8,7.5,1.5,11.2,2.4c0.5,0.1,0.5,0.1,0.4,0.6c-0.4,1.8-0.7,3.6-1.1,5.4
		C54.2,155.8,54.3,156,54.1,156z"/>
	<path class="st0" d="M76.2,15.6c-10.2,0-20.4,0-30.6,0c-0.6,0-0.5,0.1-0.5-0.5c0-1.8,0-3.4,0-5.2c0-0.5-0.1-0.5,0.5-0.5
		c12.7,0,25.5,0,38.2,0c7.7,0,15.4,0,23.1,0c0.5,0,0.5,0,0.5,0.5c0,1.8,0,3.5,0,5.2c0,0.4-0.1,0.5-0.5,0.5
		C96.6,15.6,86.5,15.6,76.2,15.6z"/>
	<path class="st0" d="M0,63.1c0-0.3-0.1-0.7,0-1c0.1-0.2,0.6-0.2,0.9-0.3c1.3-0.4,2.8-0.7,4.1-1.1c0.3-0.1,0.4,0,0.5,0.3
		C6.9,66,8.3,71,9.6,76c1.6,6.2,3.2,12.4,4.9,18.5c0.9,3.3,1.8,6.6,2.8,9.9c0.1,0.3,0,0.4-0.3,0.5c-1.7,0.4-3.6,0.9-5.3,1.4
		c-0.3,0.1-0.4,0-0.5-0.3c-0.7-2.6-1.3-5.2-2.1-7.7c-3-11.3-6-22.6-9-33.9C-0.1,63.9,0,63.5,0,63.1z"/>
</g>
</svg>
