<?xml version="1.0" encoding="utf-8"?>
<!-- Generator: Adobe Illustrator 28.0.0, SVG Export Plug-In . SVG Version: 6.00 Build 0)  -->
<svg version="1.1" id="Layer_1" xmlns="http://www.w3.org/2000/svg" xmlns:xlink="http://www.w3.org/1999/xlink" x="0px" y="0px"
	 viewBox="0 0 156 156" width="156px" height="156px"  style="enable-background:new 0 0 156 156;" xml:space="preserve">
<style type="text/css">
	.st0{enable-background:new    ;}
	.st1{fill:#FF0000;}
</style>
<g class="st0">
	<path class="st1" d="M0,156C0,104,0,52,0,0c0.2,0,0.4,0,0.6,0c51.6,0,103.2,0,154.8,0c0.6,0,0.6,0,0.6,0.6c0,51.6,0,103.2,0,154.8
		c0,0.6,0,0.6-0.6,0.6c-51.6,0-103.2,0-154.8,0C0.4,156,0.2,156,0,156z M5.8,129.8c0.1-0.2,0.2-0.3,0.3-0.4c0.5-0.7,0.9-1.4,1.3-2.2
		c1.2-1.9,2.4-3.7,3.8-5.5c0.6-0.8,1.3-1.7,2-2.4c1.1-1.1,2.3-2.1,3.7-2.8c1.4-0.8,2.9-0.7,4.2,0.1c0.6,0.3,1.2,0.7,1.8,1
		c1.9,1,3.5,2.4,5.2,3.6c1.6,1.2,3.1,2.5,4.7,3.8c0.2,0.2,0.4,0.2,0.6,0c0.2-0.2,0.3-0.4,0.5-0.7c0.5-0.9,0.9-1.8,1.2-2.7
		c0.1-0.3,0.1-0.5-0.1-0.7c-1.5-1.4-2.7-3-3.7-4.8c-0.9-1.6-1.6-3.2-2.1-4.9c-0.7-2.3-1.3-4.5-1.6-6.9c-0.3-2.2-0.5-4.3-0.4-6.5
		c0-1.2,0-2.3,0.1-3.5c0.1-1.3,0.2-2.5,0.3-3.8c0.1-1.1,0.4-2.1,0.6-3.2c0.2-1.5,0.6-2.9,1.1-4.3c0.6-1.8,1.4-3.6,2.4-5.3
		c0.8-1.3,1.6-2.5,2.5-3.6c0.2-0.3,0.3-0.2,0.5,0c2.9,3.2,5.8,6.5,8.7,9.7c7.2,8,14.4,16,21.5,24c0.1,0.1,0.2,0.2,0.4,0.4
		c0-4.7,0-9.2,0-13.8c0.8,0.8,1.6,1.5,2.4,2.2c7.7,7.1,15.4,14.2,23,21.3c1.2,1.1,2.4,2.2,3.5,3.3c0.2,0.2,0.2,0.3,0,0.5
		c-0.5,0.4-0.9,0.9-1.4,1.3c-2.4,1.9-4.7,3.9-7.4,5.5c-2.2,1.3-4.5,2.4-6.9,3.3c-1.8,0.7-3.7,1.2-5.6,1.6c-1.8,0.3-3.6,0.5-5.4,0.6
		c-1.6,0.1-3.2,0-4.9-0.1c-2.2-0.2-4.4-0.5-6.5-1c-2.5-0.6-4.9-1.4-7.3-2.4c-1.2-0.5-2.3-1-3.4-1.6c-0.2-0.1-0.4-0.1-0.5,0.1
		c-1.6,2.1-3.2,4.2-4.7,6.4c-0.7,1-1.5,1.9-2.3,2.7c-0.9,0.9-2,1.5-3.2,1.9c-1,0.3-1.9,0.3-2.9,0.2c-1.9-0.3-3.6-1.1-5.1-2.2
		c-1.2-0.9-2.2-1.8-3.2-2.9c-1-1.1-2.1-2.3-2.9-3.6c0,0-0.1-0.1-0.1-0.1c-0.1,0.2-0.1,0.4-0.2,0.5c-2.1,5.7-4.2,11.4-6.3,17
		c-0.2,0.6-0.2,0.6,0.4,0.6c45.1,0,90.2,0,135.3,0c0.1,0,0.2,0,0.3,0c0.3,0,0.5-0.1,0.4-0.4c0-0.1,0-0.2,0-0.3
		c0-47.7,0-95.4,0-143.1c0-0.6,0-0.6-0.7-0.6c-47.6,0-95.2,0-142.9,0c-0.1,0-0.2,0-0.3,0c-0.3,0-0.4,0.1-0.3,0.4c0,0.8,0,1.5,0,2.3
		c0,40.4,0,80.8,0,121.2C5.8,129.4,5.7,129.6,5.8,129.8z"/>
	<path class="st1" d="M73.1,67.3c-1.2,7.3-2.4,14.6-3.7,21.9c-0.2,0-0.2-0.2-0.2-0.3c-9.1-14.5-18.3-29-27.4-43.5
		c-0.2-0.3-0.1-0.4,0.1-0.5c9.7-6,19.4-12,29.1-18c0.3-0.2,0.5-0.2,0.7,0.1c2.3,3.4,4.6,6.7,6.9,10.1c0.2,0.3,0.3,0.3,0.6,0.1
		C93.1,29,107.1,20.8,121,12.6c0.3-0.2,0.4-0.2,0.7,0.1c2.6,3.6,5.2,7.2,7.8,10.7c0.2,0.3,0.2,0.4-0.1,0.5
		c-14.3,8.6-28.5,17.2-42.8,25.7C86,50,86,50,86.3,50.4c3.4,6,6.8,11.9,10.2,17.9c0.2,0.3,0.3,0.4,0.6,0.2
		c14.4-8.3,28.8-16.6,43.2-24.9c0.3-0.2,0.4-0.2,0.6,0.1c2.6,3.6,5.2,7.1,7.8,10.7c0.2,0.2,0.2,0.3-0.1,0.5
		c-14.3,8.6-28.5,17.2-42.8,25.8c-0.5,0.3-0.5,0.3-0.2,0.8c2,3.6,4,7.1,6,10.7c0.1,0.3,0.1,0.4-0.2,0.5c-5.8,3.1-11.6,6.1-17.3,9.2
		c-0.4,0.2-0.4,0-0.6-0.2c-6.7-11.3-13.4-22.7-20.1-34C73.3,67.6,73.3,67.4,73.1,67.3z"/>
</g>
</svg>
