<?xml version="1.0" encoding="utf-8"?>
<!-- Generator: Adobe Illustrator 28.0.0, SVG Export Plug-In . SVG Version: 6.00 Build 0)  -->
<svg version="1.1" id="Layer_1" xmlns="http://www.w3.org/2000/svg" xmlns:xlink="http://www.w3.org/1999/xlink" x="0px" y="0px"
	 viewBox="0 0 156 156" width="156px" height="156px"  style="enable-background:new 0 0 156 156;" xml:space="preserve">
<style type="text/css">
	.st0{fill:#FF0000;}
</style>
<g>
	<path class="st0" d="M78,156c-25.8,0-51.5,0-77.3,0c-0.1,0-0.3,0-0.4,0c-0.2,0-0.3-0.1-0.3-0.3c0-0.1,0-0.2,0-0.3
		C0,103.8,0,52.2,0,0.6c0-0.1,0-0.1,0-0.2C0,0.1,0.1,0,0.4,0c0.1,0,0.2,0,0.2,0c51.6,0,103.1,0,154.8,0c0.6,0,0.6,0,0.6,0.6
		c0,51.6,0,103.1,0,154.7c0,0.6,0,0.6-0.6,0.6C129.6,156,103.9,156,78,156z M150,77.5c0-23.8,0-47.7,0-71.6c0-0.6,0.1-0.5-0.5-0.5
		c-47.6,0-95.3,0-142.9,0C6,5.5,6.1,5.4,6.1,6c0,47.7,0,95.4,0,143.1c0,0.6,0,0.5,0.5,0.5c47.6,0,95.3,0,142.9,0
		c0.6,0,0.5,0.1,0.5-0.5C150,125.3,150,101.5,150,77.5z"/>
	<path class="st0" d="M105.7,95.9c-0.1,0.1-0.1,0.2-0.2,0.3c-1.6,1.9-3.3,3.8-4.9,5.7c-0.2,0.2-0.2,0.3,0,0.6
		c7.6,7.4,15.2,14.8,22.9,22.3c0.2,0.2,0.3,0.2,0.5,0c2.1-1.8,4.1-3.4,6.2-5.2c0.2-0.2,0.3-0.2,0.5,0c1.4,1.5,2.9,3.1,4.4,4.6
		c0.2,0.3,0.1,0.4-0.1,0.5c-3.7,3.6-7.4,7.2-11.1,10.9c-2.2,2.1-4.2,4.1-6.4,6.2c-0.3,0.3-0.4,0.3-0.6,0c-1.4-1.5-3-3.2-4.5-4.7
		c-0.2-0.2-0.2-0.3,0-0.5c1.9-2,3.7-4,5.6-6c0.2-0.2,0.2-0.3,0-0.6c-7.7-7.5-15.5-15.1-23.2-22.6c-0.2-0.2-0.4-0.2-0.6,0
		c-2,1.8-3.9,3.5-5.9,5.3c-0.4,0.3-0.7,0.6-1.1,0.9c-0.2,0.2-0.3,0-0.4-0.1c-1.6-1.6-3.2-3.2-4.8-4.8c-8.3-8.5-16.8-16.9-25.3-25.4
		c-1.5-1.5-3.2-3.2-4.7-4.7c-4.2-4-8.3-8.2-12.6-12.4c-2-1.9-3.9-3.8-5.9-5.8c-0.2-0.2-0.2-0.3,0-0.5c1.8-1.8,3.5-3.6,5.3-5.4
		c0.4-0.4,0.8-0.8,1.2-1.1c0.2-0.2,0.2-0.3,0-0.5c-2-1.9-3.7-3.8-5.6-5.8c-1.4-1.5-2.9-3.1-4.3-4.5c-4.8-4.9-9.6-10-14.4-15
		c-0.3-0.3-0.3-0.4,0-0.7c1.1-1.3,2.4-2.7,3.5-4c0.2-0.3,0.3-0.2,0.5,0c3.2,3.1,6.4,6.2,9.7,9.2c3.2,3,6.3,6,9.5,8.9
		c2.3,2.1,4.4,4.1,6.6,6.2c0.2,0.2,0.4,0.2,0.6,0c2-1.6,3.9-3.2,5.9-4.8c0.2-0.2,0.3-0.2,0.5,0c8.9,8.9,17.6,17.7,26.5,26.5
		c3.1,3.1,6.1,6.2,9.2,9.2c6,5.8,11.7,11.8,17.6,17.5C105.6,95.7,105.7,95.7,105.7,95.9z M52.2,52.4c-0.1,0.1-0.2,0.1-0.2,0.2
		c-2.8,2.7-5.6,5.5-8.4,8.1c-0.2,0.2-0.2,0.3,0,0.4c6.2,6,12.2,12.1,18.3,17.9c6.6,6.4,13.2,12.9,19.7,19.4c1.8,1.8,3.5,3.4,5.3,5.2
		c0.2,0.2,0.3,0.2,0.5,0c0.3-0.3,0.6-0.5,0.9-0.8c2.6-2.4,5.3-4.7,7.8-7.1c0.2-0.2,0.2-0.3,0-0.5c-2.8-2.7-5.5-5.4-8.2-8
		c-3.5-3.4-7-6.8-10.5-10.2c-6.6-6.4-13.1-12.8-19.6-19.1c-1.8-1.8-3.5-3.5-5.3-5.2C52.4,52.5,52.3,52.5,52.2,52.4z"/>
	<path class="st0" d="M95.3,46.9c0-7.9,0-15.9,0-23.8c0-0.6-0.1-0.5,0.5-0.5c3.1,0,6.3,0,9.4,0c0.6,0,0.5-0.1,0.5,0.6
		c0,5.6,0,11.1,0,16.7c0,0.5,0,0.5,0.5,0.5c6.1,0,12.2,0,18.3,0c0.5,0,0.5,0,0.5-0.5c0-5.6,0-11.1,0-16.7c0-0.6,0-0.6,0.5-0.6
		c3.2,0,6.4,0,9.5,0c0.3,0,0.4,0.1,0.4,0.4c0,15.9,0,31.8,0,47.7c0,0.3-0.1,0.4-0.4,0.4c-3.2,0-6.4,0-9.6,0c-0.4,0-0.4-0.1-0.4-0.4
		c0-6.7,0-13.5,0-20.2c0-0.6,0.1-0.5-0.5-0.5c-6.1,0-12.2,0-18.2,0c-0.5,0-0.5,0-0.5,0.5c0,6.7,0,13.4,0,20.2c0,0.5,0,0.5-0.5,0.5
		c-3.2,0-6.4,0-9.5,0c-0.3,0-0.4-0.1-0.4-0.4C95.3,62.8,95.3,54.9,95.3,46.9z"/>
</g>
</svg>
