<?xml version="1.0" encoding="utf-8"?>
<!-- Generator: Adobe Illustrator 28.0.0, SVG Export Plug-In . SVG Version: 6.00 Build 0)  -->
<svg version="1.1" id="Layer_1" xmlns="http://www.w3.org/2000/svg" xmlns:xlink="http://www.w3.org/1999/xlink" x="0px" y="0px"
	 viewBox="0 0 156 156" style="enable-background:new 0 0 156 156;" xml:space="preserve">
<style type="text/css">
	.st0{fill:#FF0000;}
</style>
<path class="st0" d="M46.7,0.9C46.7,2,47,3.1,47.2,4.2c0.1,0.5,0.2,1.1,0.3,1.6c0.1,0.5,0.1,0.6-0.5,0.6c-1.2,0.2-2.4,0.4-3.6,0.5
	c-3.9,0.6-7.8,1.2-11.8,1.7c-3.6,0.5-7.1,1.1-10.7,1.6c-3.1,0.5-6.3,0.9-9.4,1.4c-0.6,0.1-0.7,0.1-0.6,0.8c0.1,2.8,0.2,5.7,0.3,8.5
	c0.1,3,0.3,6,0.4,8.9c0.2,6,0.5,11.9,0.7,17.9c0,1.1,0.1,2.3,0.1,3.4c0,0.6,0,0.6-0.6,0.6c-1,0.1-2.1,0.1-3.1,0.2
	c-0.5,0-1,0.1-1.6,0.1c-0.5,0-0.5,0-0.5-0.5c0-0.9-0.1-1.9-0.1-2.8C6.3,42.5,6,36.1,5.7,29.7C5.5,24.2,5.3,18.6,5,13.1
	c-0.1-1.8-0.1-3.7-0.2-5.5c0-0.6-0.1-0.7,0.6-0.8C10.6,6,15.8,5.3,21,4.5C26,3.8,31.1,3,36.1,2.3c2.8-0.4,5.6-0.8,8.4-1.2
	c0.2,0,0.5,0,0.6-0.2C45.7,0.9,46.2,0.9,46.7,0.9z"/>
<path class="st0" d="M146.7,118.9c0.6,0.3,0.6,0.3,0.7-0.2c0-0.1,0.1-0.3,0.1-0.4c0.1-0.1,0.2-0.1,0.2,0c1.3,0.6,1.3,0.7,0.4,1.7
	c-0.9,1-1.3,2-1.4,3.3c-0.1,2.3-0.4,4.6-0.6,6.9c-0.3,3.1-0.6,6.2-0.9,9.3c-0.2,2.4-0.4,4.8-0.7,7.2c-0.1,0.6-0.1,1.2-0.2,1.9
	c0,0.5-0.1,0.5-0.6,0.4c-1.1-0.2-2.2-0.3-3.3-0.5c-3.7-0.6-7.4-1.2-11.1-1.7c-4-0.6-8-1.3-12-1.9c-4-0.6-8-1.2-12-1.9
	c-2.6-0.4-5.1-0.8-7.7-1.3c-3.7-0.6-7.4-1.2-11.1-1.7c-4-0.6-8-1.2-12-1.9c-1.5-0.2-3-0.5-4.5-0.7c-0.3,0-0.6-0.1-0.9-0.2
	c0.1-0.6,0.3-1.3,0.4-1.9c0.2-0.7,0.2-0.7-0.5-0.9c-2.7-0.8-5.5-1.6-8.2-2.4c-0.9-0.3-0.9-0.3-0.7-1.2c0.1-0.3,0-0.7,0.3-0.8
	c0.3-0.1,0.5,0.1,0.8,0.2c1.4,0.5,2.8,1,4.3,1.4c1.4,0.4,2.8,0.7,4.2,1c0.3,0,0.4,0,0.4-0.3c0.1-0.4,0.1-0.9,0.2-1.3
	c0-0.4,0.2-0.5,0.6-0.5c2.1,0.3,4.1,0.6,6.2,0.9c3.6,0.5,7.1,1.1,10.7,1.6c1,0.1,2,0.3,3.1,0.4c1,0,2-0.2,3-0.4
	c3.5-0.8,6.7-2.2,10-3.5c4.1-1.7,8-3.9,11.7-6.4c2.9-1.9,5.5-4.1,7.9-6.6c1.3-1.3,2.6-2.7,3.7-4.1c3.4-4.3,6-8.9,8-14
	c1.5-4,2.6-8.1,3.3-12.3c0.1-0.7,0.1-0.7,0.8-0.6c0.9,0.2,0.9,0.2,0.7,1c-0.5,3-1.2,6-2.2,8.9c-1.4,3.9-3.1,7.7-5.3,11.2
	c-1.6,2.5-3.3,4.9-5.1,7.2c-1.9,2.3-3.9,4.5-6.1,6.5c-2.2,2-4.5,3.8-7,5.5c-1.7,1.1-3.5,2.1-5.3,3.1c-2.1,1.2-4.3,2-6.5,2.9
	c-2.1,0.8-4.2,1.5-6.4,2.1c-0.2,0-0.4,0-0.5,0.3c0.3,0.1,0.7,0.2,1,0.2c3.1,0.5,6.2,1,9.3,1.5c5,0.9,10,1.7,15,2.5
	c4.7,0.8,9.5,1.6,14.2,2.3c0.8,0.1,1.6,0.3,2.4,0.4c0.6,0.1,0.6,0,0.7-0.5c0.2-1.5,0.3-3,0.4-4.6c0.1-1.5,0.3-3.1,0.4-4.8
	c-3.2,2.6-6,5.5-9,8.2c-0.2,0-0.3-0.3-0.4-0.4c-0.7-1-0.7-1.1,0.2-1.8c0.8-0.6,1.4-1.3,2.2-2c2.5-2.2,4.7-4.6,7.1-6.9
	c0.2-0.2,0.3-0.5,0.3-0.8c0.3-2.6,0.5-5.3,0.8-7.9c0.3-2.8,0.6-5.7,0.9-8.5c0.3-2.7,0.5-5.3,0.8-8c0.3-2.8,0.6-5.7,0.9-8.5
	c0.3-2.8,0.5-5.6,0.8-8.4c0.3-2.7,0.6-5.5,0.8-8.2c0.2-2.2,0.4-4.4,0.7-6.7c0.1-1.2,0.1-1.3,1.3-1.1c1.7,0.2,3.3,0.3,5,0.5
	c0.6,0.1,0.6,0.1,0.5,0.7c-0.2,1.6-0.3,3.2-0.5,4.9c-0.2,2.3-0.5,4.5-0.7,6.8c-0.3,3.3-0.7,6.7-1,10c-0.3,2.7-0.5,5.4-0.8,8.2
	c-0.3,3.3-0.7,6.6-1,9.9c-0.2,2-0.4,3.9-0.6,5.9c0,0.5-0.2,1-0.6,1.4C146.9,118.6,146.8,118.8,146.7,118.9z"/>
<path class="st0" d="M140.1,65.3c-0.5,0.1-1,0-1.5,0.1c-0.2,0-0.4-0.1-0.4-0.3c-0.2-1.1-0.6-2.1-0.9-3.1c-0.6-2.3-1.4-4.5-2.3-6.7
	c-1-2.4-2.2-4.6-3.4-6.9c-1-1.8-2.1-3.4-3.4-5.1c-2.1-2.9-4.6-5.5-7.2-8c-1.6-1.5-3.4-2.9-5.2-4.2c-0.9-0.7-1.9-1.4-2.8-2
	c-1.3-0.9-2.7-1.6-4.1-2.4c-2.2-1.2-4.5-2.3-6.8-3.1c-2.2-0.8-4.4-1.5-6.6-2c-1.1-0.3-2.1-0.5-3.2-0.7c-1.9-0.4-3.8-0.5-5.7-0.7
	c-2.3-0.2-4.7-0.2-7-0.1c-2.1,0.1-4.3,0.3-6.4,0.6c-2.6,0.4-5.1,1-7.6,1.7c-3,0.8-5.8,2-8.6,3.3c-1.5,0.7-3,1.6-4.4,2.5
	c-3.6,2.3-6.9,4.8-10.1,7.5c-1.3,1.1-2.6,2.2-3.8,3.5c-0.4,0.4-0.5,0.4-0.9,0c-0.9-1-0.9-0.7,0-1.6c1.7-1.6,3.4-3.2,5.2-4.7
	c2.8-2.2,5.5-4.5,8.6-6.3c2.2-1.3,4.4-2.4,6.7-3.4c2.4-1,4.8-1.9,7.3-2.6c1.7-0.5,3.4-0.9,5.2-1.2c2.4-0.5,4.9-0.6,7.4-0.9
	c0.1,0,0.2,0,0.4,0c1.2,0,2.5-0.1,3.7-0.1c2.8,0.1,5.7,0.1,8.5,0.5c2.7,0.4,5.4,1,8,1.7c2.3,0.7,4.6,1.5,6.9,2.5
	c0.7,0.3,1.4,0.7,2.1,1c0.2-0.2,0.1-0.3,0-0.5c-0.3-1-0.6-1.9-0.8-2.9c-0.2-0.7-0.2-0.7,0.5-0.9c4.9-1.5,9.8-3,14.6-4.6
	c1.2-0.4,2.4-0.7,3.7-1.2c-0.9-0.7-2-1.1-2.8-1.8c0.3-0.4,0.6-0.7,0.9-1.1c0.2-0.3,0.4-0.3,0.7-0.1c0.9,0.7,1.9,1.3,2.9,1.9
	c0.4,0.3,0.8,0.3,1.3,0.2c7.2-2.4,14.4-4.7,21.6-7.1c0.3-0.1,0.6-0.3,1-0.3c0.1,0.2,0.1,0.4,0.1,0.6c-0.1,2.3-0.3,4.6-0.4,6.8
	c-0.2,3.6-0.5,7.2-0.7,10.7c-0.1,2.1-0.2,4.2-0.4,6.3c-0.2,3.6-0.5,7.2-0.7,10.8c-0.1,2.1-0.2,4.1-0.4,6.2c-0.1,1.9-0.2,3.7-0.3,5.6
	c0,0.1,0,0.2,0,0.2c-0.1,0.5-0.1,0.5-0.6,0.5c-1-0.1-2-0.2-3.1-0.3c-0.7-0.1-1.5-0.2-2.2-0.2c-0.5-0.1-0.5-0.1-0.5-0.6
	c0.1-1.6,0.1-3.1,0.2-4.7c0.1-2.3,0.3-4.5,0.4-6.8c0.2-3.4,0.4-6.7,0.6-10.1c0-0.3,0-0.6-0.2-0.9c-0.5-0.8-1.1-1.4-1.7-2.1
	c-1.4-1.6-2.9-3.1-4.4-4.7c-1.4-1.4-2.9-2.7-4.3-4.1c-0.3-0.3-0.6-0.3-1-0.2c-6.8,2.2-13.7,4.4-20.5,6.6c-0.2,0.1-0.4,0.1-0.6,0.3
	C126.2,34.3,135.9,47.7,140.1,65.3z M133.4,17.7c3.6,3.3,7,6.7,10.1,10.6c0.1-1.7,0.2-3.3,0.3-4.8c0.1-1.6,0.2-3.1,0.3-4.7
	c0.1-1.5,0.3-3.1,0.2-4.7C140.7,15.3,137.1,16.5,133.4,17.7z"/>
<path class="st0" d="M18.6,121.6c0.2,0.1,0.3,0.2,0.4,0.4c1.7,2.4,3.5,4.7,5.5,6.9c2.1,2.4,4.5,4.5,6.8,6.6c1.8,1.6,3.6,3.1,5.6,4.4
	c1,0.7,2,1.4,3,2.1c0.4,0.3,0.7,0.4,1.2,0.5c4.5,1.1,9.1,2,13.6,3c0.1,0,0.1,0,0.2,0c0.4,0,0.5,0.2,0.4,0.6
	c-0.2,0.8-0.3,1.6-0.5,2.4c-0.2,1-0.4,2-0.6,3c-0.1,0.7-0.1,0.7-0.8,0.5c-1.8-0.4-3.6-0.8-5.4-1.2c-9.6-2.1-19.1-4.3-28.7-6.4
	c-2-0.4-3.9-0.9-5.9-1.3c-0.5-0.1-0.7-0.3-0.8-0.7c-2.2-8-4.3-16.1-6.5-24.1c-0.2-0.6-0.2-0.7,0.5-0.8c1.8-0.4,3.6-0.9,5.4-1.3
	c0.7-0.2,0.7-0.2,0.9,0.5c1.7,6.6,3.4,13.2,5.1,19.7c0.3,1.2,0,1,1.3,1.3c5.1,1.1,10.1,2.3,15.2,3.4c0.2,0.1,0.5,0.2,0.8,0.1
	c-0.4-0.4-0.9-0.8-1.4-1.1c-0.4-0.3-0.8-0.6-1.2-0.9c-2.1-1.7-4.1-3.5-6.1-5.4c-2.5-2.5-4.9-5-7-7.8c-0.7-0.9-1.4-1.8-2-2.8
	c-0.2-0.3-0.2-0.5,0.1-0.8C18,122.2,18.3,121.9,18.6,121.6z"/>
<path class="st0" d="M75,16.1c-9.7,0-19.4,0-29,0c-1.1,0-1,0.1-1-1c0-1.5,0-3,0-4.4c0-0.6,0-0.6,0.6-0.6c0.2,0,0.4,0,0.5,0
	c19.3,0,38.5,0,57.8,0c1.3,0,1.1-0.1,1.2,1.2c0,1.4,0,2.9,0,4.3c0,0.5,0,0.5-0.6,0.6c-0.2,0-0.4,0-0.6,0
	C94.3,16.1,84.7,16.1,75,16.1z"/>
<path class="st0" d="M6.9,59.6c0.3,0.3,0.3,0.7,0.4,1c2.2,8.3,4.4,16.5,6.6,24.8c1.4,5.4,2.8,10.8,4.3,16.1c0,0.1,0,0.2,0.1,0.3
	c0.2,0.4,0,0.5-0.4,0.6c-1.6,0.4-3.2,0.9-4.8,1.4c-0.5,0.1-0.5,0.1-0.6-0.4c-0.9-3.4-1.8-6.7-2.7-10.1C6.9,82.9,4.2,72.6,1.4,62.2
	c-0.3-1-0.3-1,0.7-1.2C3.7,60.5,5.3,60.1,6.9,59.6z"/>
<path class="st0" d="M32.1,45.6c0.2,0.1,0.4,0.3,0.7,0.4c0.6,0.4,0.5,0.3,0.2,0.9c-1.4,2.7-2.7,5.4-3.8,8.2c-1,2.5-1.9,5.1-2.6,7.7
	c-0.6,2.2-1.1,4.4-1.4,6.7c-0.6,3.7-0.7,7.4-0.4,11.1c0.2,2.9,0.5,5.8,1.1,8.7c1.1,5.3,2.9,10.3,5.5,15.1c1.8,3.2,3.8,6.1,6.1,8.9
	c3.2,3.8,6.8,7.1,10.7,10.2c0.9,0.7,0.9,0.4,0.2,1.5c-0.2,0.3-0.4,0.3-0.7,0.1c-1.4-1-2.7-2-4.1-3.1c-4-3.3-7.6-6.9-10.6-11.1
	c-2.9-4.1-5.3-8.5-7-13.3c-1.2-3.5-2.1-7.2-2.6-10.9c-0.4-3.1-0.7-6.2-0.7-9.3c0-2.9,0.3-5.9,0.7-8.8c0.4-2.9,1.1-5.8,2-8.6
	c1.1-3.7,2.7-7.2,4.5-10.6c0.6-1.1,1.3-2.3,2-3.4C31.8,45.9,31.8,45.7,32.1,45.6z"/>
<path class="st0" d="M107.4,106.5c-1.3,0.9-2.5,1.6-3.6,2.4c-1.3,1-2.8,1.7-4.3,2.5c-2.5,1.4-5.1,2.5-7.8,3.3
	c-1.1,0.3-2.4,0.5-3.6,0.6c-2.8,0.3-5.6,0.5-8.5,0.3c-2.5-0.1-4.9-0.4-7.4-0.9c-1.8-0.4-3.6-0.8-5.3-1.5c-2.9-1.1-5.7-2.6-8.3-4.4
	c-1.7-1.2-3.3-2.6-4.7-4.1c-1.5-1.5-2.9-3.2-4.1-5c-0.7-1-1.3-2.1-2-3.2c-0.7-1.1-1.3-2.3-1.9-3.5c-0.3-0.5-0.3-0.6,0.2-0.8
	c0.3-0.2,0.6-0.3,0.9-0.5c0.3-0.2,0.5-0.2,0.7,0.2c0.1,0.3,0.3,0.5,0.4,0.7c2.2,4.6,5.2,8.6,8.9,12.1c1.7,1.6,3.6,2.9,5.6,4.1
	c1.4,0.8,2.9,1.6,4.4,2.2c3.3,1.4,6.8,2.2,10.4,2.7c2.9,0.4,5.8,0.5,8.8,0.2c2.8-0.2,5.5-1,8.2-1.9c1.7-0.6,3.3-1.5,4.9-2.5
	c2.2-1.3,4.3-2.7,6.4-4c0.4-0.2,0.6-0.2,0.9,0.1C106.7,106,107,106.2,107.4,106.5z"/>
<path class="st0" d="M113.6,99.7c-0.1,0-0.2-0.1-0.2-0.1c-0.4-0.3-1.1-0.5-1.3-1c-0.1-0.5,0.5-0.9,0.8-1.3c1.6-2.4,2.9-4.9,3.9-7.6
	c0.7-1.8,1.2-3.7,1.6-5.6c0.5-2.5,0.7-5,0.7-7.5c0-2.6-0.3-5.1-0.9-7.6c-0.6-2.5-1.4-5-2.5-7.3c-1.2-2.5-2.6-4.9-4.4-7.1
	c-0.9-1.1-1.8-2.3-2.8-3.3c-0.6-0.6-1.3-1.3-1.9-1.9c-1.3-1.1-2.5-2.2-3.9-3.1c-1.5-0.9-2.9-1.9-4.5-2.6c-1.6-0.8-3.3-1.4-4.9-2
	c-0.1,0-0.2-0.1-0.2-0.1c0-0.5,0.3-0.8,0.4-1.3c0.1-0.3,0.3-0.2,0.5-0.1c0.8,0.3,1.7,0.5,2.5,0.8c2.1,0.8,4.2,1.8,6.1,3
	c2,1.3,4,2.7,5.7,4.4c0.5,0.5,1,1,1.6,1.5c1.7,1.7,3.2,3.5,4.6,5.5c1.7,2.4,3.1,4.9,4.2,7.6c0.9,2.4,1.6,4.8,2.1,7.3
	c0.7,3.7,0.7,7.4,0.1,11.1c-0.5,3.4-1.5,6.7-2.8,10c-1.1,2.8-2.7,5.4-4.2,8.1C113.7,99.6,113.6,99.6,113.6,99.7z"/>
<path class="st0" d="M42.6,75.2c0-1.4,0.2-2.8,0.4-4.2c0.2-1.5,0.6-2.9,1-4.3c0.6-2,1.3-4,2.3-5.9c0.4-0.8,0.9-1.7,1.3-2.6
	c1.1-2.2,2.5-4.2,4.1-6.1c1.3-1.6,2.6-3.1,4.2-4.4c2.9-2.4,6-4.6,9.5-6c2.4-1,4.8-1.9,7.3-2.5c2.1-0.5,4.3-0.7,6.5-0.9
	c0.8-0.1,1.6-0.1,2.4-0.2c0.4,0,0.5,0.1,0.5,0.4c0,0.4,0.1,0.9-0.1,1.2c-0.2,0.4-0.7,0.2-1.1,0.2c-2,0.1-4,0.4-6,0.7
	c-1.5,0.2-3,0.6-4.4,1.1c-2.3,0.7-4.5,1.7-6.6,2.8c-1.5,0.8-3,1.7-4.3,2.8c-1.2,1-2.4,1.9-3.5,3c-1.3,1.3-2.6,2.7-3.7,4.2
	c-1.2,1.7-2.4,3.4-3.4,5.3c-1,2-1.9,4.1-2.6,6.2c-0.5,1.3-0.7,2.7-1,4c-0.3,1.4-0.5,2.9-0.6,4.3c0,0.8-0.1,1.6,0,2.3
	c0,0.4-0.1,0.6-0.5,0.5c-0.1,0-0.3,0-0.4,0c-1.1,0-1.1,0-1.2-1.2C42.6,75.9,42.6,75.6,42.6,75.2z"/>
<path class="st0" d="M82.6,60.4c-0.8,0.1-1.5,0-2.2,0.1c-2,0.2-3.8,0.8-5.5,1.9c-2.3,1.5-4.5,3.2-6.2,5.4c-1.3,1.8-2.2,3.7-2.6,5.9
	c-0.6,2.7-0.3,5.3,0.3,8c0.2,0.7,0.5,1.4,0.8,2c0.7,1.6,1.6,3.1,2.8,4.3c1.1,1.1,2.2,2.1,3.5,2.9c0.3,0.2,0.4,0.4,0.1,0.7
	c-0.1,0.1-0.2,0.3-0.2,0.4c-0.5,0.8-0.5,0.8-1.2,0.3c-0.8-0.6-1.7-1-2.5-1.7c-1.7-1.6-3.3-3.3-4.3-5.5c-0.8-1.8-1.2-3.6-1.5-5.5
	c-0.4-2.9,0-5.6,0.9-8.3c0.5-1.5,1.3-2.9,2.2-4.2c0.9-1.3,1.9-2.5,3-3.6c0.9-1,2-1.8,3.2-2.5c1.5-0.9,3.1-1.6,4.8-2
	c1.1-0.3,2.3-0.3,3.5-0.3c0.3,0,0.5,0.1,0.6,0.4C82.3,59.5,82.5,59.9,82.6,60.4z"/>
<path class="st0" d="M87.7,61.8c0.2-0.4,0.6-0.6,0.8-0.9c0.2-0.3,0.5-0.3,0.8-0.2c0.9,0.5,1.8,0.9,2.6,1.6c1.6,1.3,3.1,2.7,4.4,4.4
	c1.3,1.8,2.3,3.7,2.9,5.9c0.5,1.7,0.7,3.4,0.6,5.1c-0.1,1.5-0.3,3-0.7,4.4c-0.4,1.4-1.1,2.7-1.9,4c-0.6,0.9-1.3,1.8-2.1,2.6
	c-1.3,1.3-2.7,2.4-4.2,3.5c-1,0.7-2,1.3-3.2,1.8c-1.9,0.8-3.9,1.1-6,1c-0.3,0-0.4-0.1-0.4-0.4c0-0.1,0-0.2,0-0.3c0-1,0-1.1,1-1.1
	c3.6-0.1,6.7-1.4,9.5-3.7c1.9-1.5,3.4-3.4,4.6-5.5c0.9-1.7,1.5-3.4,1.8-5.3c0.3-2.3,0-4.4-0.7-6.6c-0.5-1.4-1.2-2.6-2.1-3.8
	c-0.6-0.8-1.2-1.6-1.9-2.3c-1.1-1.1-2.3-2.1-3.7-2.9C89.1,62.6,88.4,62.2,87.7,61.8z"/>
<path class="st0" d="M18.3,32.3c-0.1,0-0.1-0.1-0.2-0.1c-0.3-0.3-0.8-0.6-0.9-1c-0.2-0.5,0.4-0.7,0.7-1.1c0.6-0.7,1-1.4,1.6-2.1
	c2.2-2.6,4.6-5.1,7.1-7.5c1.4-1.3,2.9-2.6,4.4-3.9c0.6-0.6,1.3-1,2-1.6c0.2-0.2,0.4-0.2,0.6,0c0.8,0.9,0.8,0.9-0.1,1.7
	c-2.8,2.3-5.4,4.8-7.9,7.4c-1.7,1.7-3.4,3.4-4.8,5.3c-0.7,0.9-1.5,1.7-2.1,2.6C18.5,32.1,18.5,32.3,18.3,32.3z"/>
</svg>
