<?xml version="1.0" encoding="utf-8"?>
<!-- Generator: Adobe Illustrator 28.0.0, SVG Export Plug-In . SVG Version: 6.00 Build 0)  -->
<svg version="1.1" id="Layer_1" xmlns="http://www.w3.org/2000/svg" xmlns:xlink="http://www.w3.org/1999/xlink" x="0px" y="0px"
	 viewBox="0 0 156 156" width="156px" height="156px"  style="enable-background:new 0 0 156 156;" xml:space="preserve">
<style type="text/css">
	.st0{enable-background:new    ;}
	.st1{fill:#FF0000;}
</style>
<g class="st0">
	<path class="st1" d="M0,78C0,52.2,0,26.5,0,0.7c0-0.1,0-0.2,0-0.3C0,0.1,0.1,0,0.3,0c0.1,0,0.2,0,0.3,0c51.6,0,103.2,0,154.8,0
		c0.6,0,0.6,0,0.6,0.6c0,51.6,0,103.2,0,154.8c0,0.6,0,0.6-0.6,0.6c-51.6,0-103.2,0-154.8,0c-0.1,0-0.2,0-0.3,0
		c-0.2,0-0.3-0.1-0.3-0.3c0-0.1,0-0.2,0-0.4C0,129.6,0,103.8,0,78z M150,45.8c0-0.1,0-0.3,0-0.4c0-13.2,0-26.3,0-39.5
		c0-0.6,0.1-0.6-0.6-0.6c-47.7,0-95.4,0-143.1,0c-0.1,0-0.2,0-0.3,0c-0.2,0-0.3,0.1-0.3,0.2c0,0.1,0,0.2,0,0.4
		c0,47.7,0,95.5,0,143.2c0,0.6-0.1,0.6,0.6,0.6c13.3,0,26.6,0,39.9,0c34.4,0,68.8,0,103.3,0c0.5,0,0.5,0,0.5-0.5
		c0-30.4,0-60.9,0-91.3c0-0.3-0.1-0.5-0.3-0.8c-4.8-6-9.5-12.1-14.2-18.1c-4.5-5.7-9-11.5-13.5-17.2c-0.9-1.2-1.9-2.4-2.8-3.6
		c-0.2-0.2-0.3-0.3-0.4,0c0,0.1-0.1,0.1-0.1,0.2c-5.6,7.1-11.1,14.3-16.7,21.4c-1,1.2-1.9,2.4-2.8,3.7c-0.1,0.1-0.2,0.3-0.4,0.1
		c-1.9-1.1-3.8-2.2-5.8-3.3c-0.2-0.1-0.2-0.2-0.1-0.3c0.3-0.3,0.5-0.6,0.8-0.9c8.6-11,17.1-22,25.7-33c0.1-0.1,0.1-0.2,0.3-0.3
		C129.8,19.1,139.8,32.5,150,45.8z"/>
	<path class="st1" d="M28.6,142.2c-1.7,0.1-3.4-0.1-5.1-0.1c-1.5,0-2.9-0.3-4.4-0.5c-1.9-0.2-3.7-0.7-5.5-1.4
		c-1.3-0.5-2.4-1.2-3.5-2.1c-0.9-0.7-1.3-1.7-1.9-2.5c-0.4-0.5-0.4-1.2-0.6-1.8c-0.2-0.7-0.4-1.3-0.5-2c-0.2-1.3-0.2-2.6-0.1-3.9
		c0.1-1.4,0.3-2.9,0.5-4.3c0.2-1.6,0.6-3.1,1-4.7c0.4-1.4,0.9-2.9,1.3-4.3c0.6-1.8,1.4-3.5,2.3-5.1c0.6-1.1,1.3-2.2,2-3.3
		c0.4-0.6,0.8-1.2,1.3-1.7c1.8-2.2,3.6-4.4,5.7-6.4c2-1.8,4-3.4,6.2-5c5.5-4.1,10.9-8.3,16.3-12.6c2.7-2.1,5.3-4.3,7.9-6.5
		c0.8-0.7,1.6-1.3,2.6-1.8c0.9-0.5,1.7-0.9,2.6-1.2c0.4-0.2,0.8-0.4,1.3-0.5c0.7-0.2,1.5-0.3,2.2-0.5c1.6-0.3,3.3-0.3,5-0.3
		c1.7,0,3.4,0.4,5,1.1c1.4,0.6,2.5,1.4,3.5,2.4c0.9,0.9,1.7,1.9,2.3,3.1c0.5,1,0.8,2.1,1.1,3.2c0.6,2.1,0.8,4.2,1.1,6.3
		c0.1,1,0.2,2,0.2,3c0,1.9,0.2,3.8,0.1,5.8c-0.2,3.5-0.1,6.9-0.5,10.4c-0.2,2.1-0.3,4.3-0.6,6.4c-0.2,1.8-0.5,3.5-0.9,5.3
		c-0.3,1.5-0.8,2.9-1.3,4.4c-0.4,1-0.8,2-1.2,2.9c-0.5,1-1,2.1-1.7,3c-0.5,0.6-0.9,1.4-1.4,2c-1.2,1.5-2.3,2.9-3.6,4.2
		c-2,2-4.3,3.6-6.8,5c-0.4,0.2-0.8,0.4-1.3,0.6c-1.7,0.8-3.5,1.3-5.3,1.7c-2.5,0.6-5.1,0.7-7.7,0.9c-3.2,0.2-6.4,0.3-9.7,0.6
		C33.7,142,31.2,142.1,28.6,142.2z M29.1,121.8c0.7,0,1.5-0.1,2.2-0.1c1.4,0,2.8-0.3,4.2-0.6c1-0.2,2-0.4,3-0.6
		c2.2-0.5,4.4-1.1,6.5-2c0.8-0.4,1.6-0.9,2.3-1.4c0.6-0.4,1.1-0.7,1.7-1.2c1.4-1.2,2.4-2.7,3.4-4.3c0.7-1.1,1.1-2.3,1.5-3.5
		c0.2-0.6,0.5-1.2,0.6-1.9c0.5-3.3,1.1-6.6,1.7-10c0.4-2.5,1.1-5,1.5-7.5c0.3-1.8,0.9-3.3,1.9-4.8c0.7-1,1.5-2,2-3.2
		c0.3-0.8,0.7-1.7,0.7-2.6c0-0.3,0-0.6-0.1-0.8c-0.1-0.4-0.6-0.5-1.1-0.3c-1,0.4-1.9,0.9-2.7,1.5c-1.6,1.2-3.3,2.4-4.9,3.6
		c-3.4,2.6-6.8,5.3-10.1,8c-0.7,0.6-1.5,1.2-2.3,1.7c-1.1,0.8-2.3,1.5-3.4,2.4c-5.8,4.5-11.3,9.4-16.6,14.4
		c-1.3,1.2-2.4,2.6-3.1,4.3c-0.4,0.9-0.5,1.8-0.2,2.8c0.4,1.3,1.2,2.3,2.2,3.2c1.1,1.1,2.5,1.9,4,2.2
		C25.7,121.6,27.4,121.9,29.1,121.8z"/>
	<path class="st1" d="M81.2,29.2c0.5,0.7,1.1,1.4,1.6,2.1c1.9,2.5,3.8,5.1,5.7,7.6c10.6,13.9,21,27.9,31.6,41.8
		c0.2,0.2,0.2,0.3,0,0.5c-1.6,1.2-3.1,2.5-4.7,3.7c-0.3,0.2-0.4,0.2-0.6-0.1C104.7,72,94.6,59.1,84.5,46.3c-1.2-1.5-2.4-3.1-3.6-4.6
		c-0.2-0.3-0.3-0.3-0.5,0c-6.5,8.3-13,16.7-19.5,25c-0.3,0.3-0.4,0.3-0.8,0.1c-1.8-1.1-3.5-2.2-5.3-3.2c-0.2-0.1-0.3-0.2-0.1-0.5
		c6.2-7.9,12.3-15.8,18.5-23.7c2.6-3.4,5.3-6.7,7.9-10.1C81.1,29.3,81.2,29.3,81.2,29.2z"/>
	<path class="st1" d="M106.4,138.8c-10,0-20,0-30,0c-0.6,0-0.5,0.1-0.5-0.5c0-2.4,0-4.9,0-7.3c0-0.3,0.1-0.4,0.4-0.4
		c20.1,0,40.2,0,60.3,0c0.3,0,0.4,0.1,0.4,0.4c0,2.5,0,4.9,0,7.4c0,0.4-0.1,0.4-0.5,0.4C126.5,138.8,116.4,138.8,106.4,138.8z"/>
</g>
</svg>
