<?xml version="1.0" encoding="utf-8"?>
<!-- Generator: Adobe Illustrator 28.0.0, SVG Export Plug-In . SVG Version: 6.00 Build 0)  -->
<svg version="1.1" id="Layer_1" xmlns="http://www.w3.org/2000/svg" xmlns:xlink="http://www.w3.org/1999/xlink" x="0px" y="0px"
	 viewBox="0 0 156 156" style="enable-background:new 0 0 156 156;" xml:space="preserve">
<style type="text/css">
	.st0{fill-rule:evenodd;clip-rule:evenodd;fill:#FFFFFF;}
	.st1{fill-rule:evenodd;clip-rule:evenodd;fill:#FF1415;}
	.st2{fill:#FFFFFF;}
	.st3{fill:none;}
</style>
<g>
	<polygon class="st0" points="0,11.24 156,11.24 156,144.76 0,144.76 	"/>
	<path class="st1" d="M0.44,144.39l54.02-22.19L14.97,73.3l49.81,29.76L39.3,21.13l38.33,57l9.27-66.47l13.9,73.72l33.17-67.83
		l-19.27,84.76l40.86-34.71l-33.7,55.95l25.38,20.82L0.44,144.39L0.44,144.39z M81.73,124.09l-25.28-14.82l14.95,18.4l-19.27,6.94
		h67.92l-11.26-8.63l8.11-13.35l-16.74,14.41l8.53-37.54L96.9,114.21l-8.53-44.8l-4.84,34.91L66.04,80.98L81.73,124.09L81.73,124.09
		z"/>
	<path class="st2" d="M147.37,144.45H0.17l0.25-0.1l53.96-22.16L14.74,73.1L15,73.26l49.69,29.69L39.13,20.81l0.2,0.3l38.25,56.88
		l9.3-66.64l0.06,0.32l13.87,73.57l33.3-68.1l-0.1,0.45l-19.23,84.62l40.98-34.81l-0.16,0.27l-33.68,55.91L147.37,144.45z
		 M0.7,144.33h146.38l-25.3-20.76l0.02-0.04l33.53-55.67l-40.73,34.6l0.03-0.15l19.17-84.33l-33.04,67.57l-0.03-0.15L86.9,12
		l-9.24,66.28l-0.08-0.12l-38.13-56.7l25.42,81.71l-0.12-0.07L15.19,73.5l39.35,48.73l-0.07,0.03L0.7,144.33z M120.21,134.66H51.84
		l19.48-7.02l-15.09-18.57l0.25,0.15l25.15,14.76L65.87,80.66l0.21,0.28l17.4,23.25l4.87-35.1l0.06,0.32l8.5,44.64l11.93-24.99
		l-0.1,0.46l-8.5,37.39l16.88-14.52l-0.17,0.28l-8.09,13.31L120.21,134.66z M52.44,134.56h67.46L108.72,126l0.03-0.04l7.93-13.07
		l-16.61,14.29l8.47-37.24l-11.66,24.44l-0.03-0.15l-8.47-44.49l-4.82,34.72l-0.08-0.1L66.21,81.3l15.62,42.92l-0.13-0.08
		l-25.02-14.68l14.82,18.23l-0.07,0.03L52.44,134.56z"/>
	<polygon class="st3" points="0.44,144.33 155.56,144.33 155.56,11.67 0.44,11.67 	"/>
</g>
</svg>
