<?xml version="1.0" encoding="utf-8"?>
<!-- Generator: Adobe Illustrator 28.0.0, SVG Export Plug-In . SVG Version: 6.00 Build 0)  -->
<svg version="1.1" id="Layer_1" xmlns="http://www.w3.org/2000/svg" xmlns:xlink="http://www.w3.org/1999/xlink" x="0px" y="0px"
	 viewBox="0 0 156 156" style="enable-background:new 0 0 156 156;" xml:space="preserve">
<style type="text/css">
	.st0{fill-rule:evenodd;clip-rule:evenodd;fill:#FFFFFF;}
	.st1{font-family:'MyriadPro-Regular';}
	.st2{font-size:34.0689px;}
	.st3{letter-spacing:1;}
	
		.st4{clip-path:url(#SVGID_00000114784596248605163540000012167022280995167155_);fill-rule:evenodd;clip-rule:evenodd;fill:#FF1415;}
	.st5{clip-path:url(#SVGID_00000114784596248605163540000012167022280995167155_);fill:#FFFFFF;}
	.st6{fill:none;}
</style>
<g>
	<polygon class="st0" points="-11.98,0 167.98,0 167.98,156 -11.98,156 -11.98,0 	"/>
	<polygon class="st0" points="-10.99,1.25 166.1,1.25 166.1,153.99 -10.99,153.99 -10.99,1.25 	"/>
	<path d="M121.86,153.73H3.85V72.2h118.01V153.73z M7.04,150.54h111.63V75.39H7.04V150.54z"/>
	<text transform="matrix(1.0021 0 0 1 9.6465 146.0514)"><tspan x="0" y="0" class="st1 st2 st3">1</tspan><tspan x="18.87" y="0" class="st1 st2">3</tspan></text>
	<g>
		<defs>
			<polygon id="SVGID_1_" points="59.85,91.85 165.97,91.85 165.97,1.38 59.85,1.38 59.85,91.85 			"/>
		</defs>
		<clipPath id="SVGID_00000070099335459102691870000006414484951348628665_">
			<use xlink:href="#SVGID_1_"  style="overflow:visible;"/>
		</clipPath>
		
			<path style="clip-path:url(#SVGID_00000070099335459102691870000006414484951348628665_);fill-rule:evenodd;clip-rule:evenodd;fill:#FF1415;" d="
			M59.85,91.83l36.97-15.12L69.79,43.38l34.09,20.28L86.44,7.83l26.23,38.85l6.34-45.3l9.51,50.24l22.7-46.23l-13.19,57.77
			L166,39.51l-23.06,38.13l17.37,14.19H59.85L59.85,91.83z M115.48,78l-17.3-10.11l10.23,12.54l-13.19,4.73h46.48l-7.71-5.88
			l5.55-9.1l-11.46,9.82l5.84-25.59l-8.07,16.84l-5.84-30.53l-3.32,23.8l-11.96-15.91L115.48,78L115.48,78z"/>
		<path style="clip-path:url(#SVGID_00000070099335459102691870000006414484951348628665_);fill:#FFFFFF;" d="M160.41,91.87H59.66
			l0.17-0.07L96.76,76.7L69.64,43.25l0.17,0.1l34.01,20.23L86.33,7.61l0.14,0.2l26.18,38.77l6.36-45.42l0.04,0.21l9.49,50.14
			L151.33,5.1l-0.07,0.3L138.1,63.06l28.05-23.72l-0.11,0.19l-23.05,38.1L160.41,91.87z M60.03,91.8h100.18l-17.32-14.15l0.02-0.03
			l22.95-37.94l-27.88,23.58l0.02-0.11l13.12-57.47l-22.62,46.05l-0.02-0.11L119.02,1.6l-6.32,45.18l-0.05-0.08L86.55,8.05
			l17.4,55.69l-34-20.23l26.93,33.21l-0.05,0.02L60.03,91.8z M141.82,85.2h-46.8l0.2-0.07l13.14-4.71L98.03,67.76l0.17,0.1
			l17.21,10.06L104.63,48.4l0.14,0.19l11.91,15.84l3.34-23.92l0.04,0.21l5.81,30.43l8.16-17.04l-0.07,0.31l-5.81,25.48l11.55-9.9
			l-0.12,0.19l-5.53,9.08L141.82,85.2z M95.44,85.13h46.17l-7.65-5.83l0.02-0.03l5.43-8.91l-11.37,9.75l0.02-0.11l5.76-25.28
			l-7.98,16.65l-0.02-0.11l-5.79-30.32l-3.3,23.67l-0.05-0.07l-11.82-15.72l10.69,29.25l-0.09-0.05L98.34,68.03l10.14,12.43
			l-0.05,0.02L95.44,85.13z"/>
	</g>
	<polygon class="st6" points="-11.49,155.51 167.49,155.51 167.49,0.49 -11.49,0.49 -11.49,155.51 	"/>
</g>
</svg>
