<?xml version="1.0" encoding="utf-8"?>
<!-- Generator: Adobe Illustrator 28.0.0, SVG Export Plug-In . SVG Version: 6.00 Build 0)  -->
<svg version="1.1" id="Layer_1" xmlns="http://www.w3.org/2000/svg" xmlns:xlink="http://www.w3.org/1999/xlink" x="0px" y="0px"
	 viewBox="0 0 156 156" style="enable-background:new 0 0 156 156;" xml:space="preserve">
<style type="text/css">
	.st0{font-family:'MyriadPro-Regular';}
	.st1{font-size:32.7828px;}
	
		.st2{clip-path:url(#SVGID_00000065780223819802370670000016378910614165734531_);fill-rule:evenodd;clip-rule:evenodd;fill:#FF1415;}
	.st3{clip-path:url(#SVGID_00000050645728207602711550000011457855070324970642_);fill:#FFFFFF;}
</style>
<g>
	<path d="M113.6,150.9H0V72.4h113.6V150.9z M3.1,147.8h107.4V75.5H3.1V147.8z"/>
	<text transform="matrix(1.0021 0 0 1 5.5773 143.5074)" class="st0 st1">1</text>
	<text transform="matrix(1.0021 0 0 1 23.7731 143.5074)" class="st0 st1">3</text>
	<g>
		<g>
			<defs>
				<rect id="SVGID_1_" x="53.9" y="4.3" width="102.1" height="87.1"/>
			</defs>
			<clipPath id="SVGID_00000098924700589154077340000014641601202927107467_">
				<use xlink:href="#SVGID_1_"  style="overflow:visible;"/>
			</clipPath>
			
				<path style="clip-path:url(#SVGID_00000098924700589154077340000014641601202927107467_);fill-rule:evenodd;clip-rule:evenodd;fill:#FF1415;" d="
				M53.9,91.3l35.6-14.5l-26-32.1l32.8,19.5L79.5,10.5l25.2,37.4l6.1-43.6l9.2,48.3l21.8-44.5l-12.7,55.6L156,41l-22.2,36.7
				l16.7,13.7H53.9L53.9,91.3z M107.4,78l-16.6-9.7l9.8,12.1l-12.7,4.6h44.7l-7.4-5.7l5.3-8.8l-11,9.4l5.6-24.6l-7.8,16.2l-5.6-29.4
				l-3.2,22.9L97.1,49.7L107.4,78L107.4,78z"/>
		</g>
		<g>
			<defs>
				<rect id="SVGID_00000182498168913712580490000013153411363531475112_" x="53.9" y="4.3" width="102.1" height="87.1"/>
			</defs>
			<clipPath id="SVGID_00000039116281674575086270000017562543174287527573_">
				<use xlink:href="#SVGID_00000182498168913712580490000013153411363531475112_"  style="overflow:visible;"/>
			</clipPath>
			<path style="clip-path:url(#SVGID_00000039116281674575086270000017562543174287527573_);fill:#FFFFFF;" d="M150.6,91.4H53.7
				l0.2-0.1l35.5-14.5L63.3,44.6l0.2,0.1l32.7,19.5L79.4,10.3l0.1,0.2l25.2,37.3l6.1-43.7l0,0.2l9.1,48.2l21.9-44.7l-0.1,0.3
				l-12.7,55.5l27-22.8l-0.1,0.2l-22.2,36.7L150.6,91.4z M54.1,91.3h96.4l-16.7-13.6l0,0l22.1-36.5l-26.8,22.7l0-0.1l12.6-55.3
				l-21.8,44.3l0-0.1l-9.1-48.1L104.7,48l0-0.1L79.6,10.7l16.7,53.6L63.6,44.8l25.9,32l0,0L54.1,91.3z M132.8,85h-45l0.2-0.1
				l12.6-4.5l-9.9-12.2l0.2,0.1l16.6,9.7L97,49.5l0.1,0.2L108.6,65l3.2-23l0,0.2l5.6,29.3l7.9-16.4l-0.1,0.3l-5.6,24.5l11.1-9.5
				l-0.1,0.2l-5.3,8.7L132.8,85z M88.1,84.9h44.4l-7.4-5.6l0,0l5.2-8.6l-10.9,9.4l0-0.1l5.5-24.3l-7.7,16l0-0.1l-5.6-29.2l-3.2,22.8
				l0-0.1L97.2,49.9l10.3,28.1l-0.1,0l-16.5-9.6l9.8,12l0,0L88.1,84.9z"/>
		</g>
	</g>
</g>
</svg>
