<?xml version="1.0" encoding="utf-8"?>
<!-- Generator: Adobe Illustrator 28.0.0, SVG Export Plug-In . SVG Version: 6.00 Build 0)  -->
<svg version="1.1" id="Layer_1" xmlns="http://www.w3.org/2000/svg" xmlns:xlink="http://www.w3.org/1999/xlink" x="0px" y="0px"
	 viewBox="0 0 156 156" style="enable-background:new 0 0 156 156;" xml:space="preserve">
<style type="text/css">
	.st0{fill:#FF0000;}
</style>
<g>
	<path class="st0" d="M143.9,127.5c4-7.2,8-14.5,12-21.8c0.2,0.2,0.1,0.4,0.1,0.5c0,16.3,0,32.7,0,49c0,0.1,0,0.1,0,0.2
		c0,0.5,0,0.5-0.6,0.5c-0.2,0-0.3,0-0.5,0c-16,0-32.1,0-48.1,0c-0.3,0-0.5,0-0.9,0c0.1-0.3,0.3-0.4,0.5-0.5c1-0.6,2-1.2,3-1.8
		c2.3-1.4,4.6-2.8,6.9-4.2c1.3-0.8,2.5-1.5,3.8-2.2c1.6-1,3.3-1.9,4.9-2.9c0.5-0.3,0.5-0.3,0.1-0.7c-0.7-0.8-1.4-1.5-2.2-2.2
		c-1.7-1.7-3.3-3.4-4.9-5c-0.9-0.9-1.7-1.8-2.6-2.6c-1.3-1.3-2.6-2.7-4-4c-1.1-1.1-2.1-2.2-3.2-3.2c-0.4-0.4-0.4-0.3-0.8,0
		c-0.8,0.8-1.5,1.5-2.5,2c-0.5,0.3-0.9,0.5-1.5,0.7c-0.3,0.1-0.4,0.3-0.4,0.6c0,0.6-0.1,1.1-0.2,1.7c0,0.4-0.2,0.6-0.6,0.8
		c-1.7,0.7-3.2,1.8-4.9,2.3c-1.3,0.9-2.9,1.3-4.2,2.1c-0.5,0.3-0.7,0.6-0.7,1.2c0,5.7,0,11.4,0,17.2c0,1,0.2,1-1,1
		c-30.2,0-60.3,0-90.5,0c-1,0-1,0.1-1-0.9C0,103.7,0,52.3,0,0.9C0-0.1,0,0,1,0c30.2,0,60.4,0,90.6,0c0.1,0,0.1,0,0.2,0
		c0.9,0,0.8-0.1,0.8,0.8c0,1.4,0,2.7,0,4.1c0,0.6,0,0.6-0.7,0.6c-0.2,0-0.5,0-0.7,0c-28,0-56.1,0-84.1,0c-1.4,0-1.3-0.2-1.3,1.1
		c0,47.6,0,95.1,0,142.7c0,1.3-0.2,1.1,1.2,1.1c7.1,0,14.1,0,21.2,0c0.3,0,0.6,0,0.9-0.1c-0.3-0.4-0.6-0.9-0.9-1.3
		c-0.6-0.9-1.1-1.8-1.5-2.8c-0.4-1.1-0.5-2.3-0.4-3.5c0.1-1.5,0.4-3,0.7-4.5c0.4-2,0.8-3.9,1.5-5.8c0.5-1.2,0-2.3-0.3-3.5
		c-0.1-0.2-0.2-0.3-0.4-0.3c-0.5-0.1-1-0.3-1.6-0.4c-1-0.2-2-0.6-3-0.8c-0.3-0.1-0.4-0.3-0.6-0.4c-0.7-0.7-1.3-1.6-1.7-2.5
		c-1.4-2.8-2.5-5.8-3.2-8.9c-0.8-3.5-1.5-7-1.9-10.6c-0.5-4.8-0.9-9.6-1.1-14.4c-0.1-3.2-0.2-6.4-0.1-9.7c0.1-2.4,0.2-4.9,0.5-7.3
		c0.2-1.3,0.5-2.7,0.7-4c0.1-0.6,0.2-1.1,0.3-1.7c0.4-1.6,0.9-3.2,1.6-4.7c1-2.3,2.2-4.5,4.2-6.2c2-1.7,4.1-3.1,6.7-3.9
		c0.8-0.3,1.6-0.6,2.4-0.8c3.4-0.9,6.9-1.4,10.5-1.6c1.7-0.1,3.3-0.1,5-0.1c0.5,0,0.9,0,1.4,0.1c0.6,0.1,0.7,0,0.6-0.5
		c-0.1-0.7-0.2-1.5-0.2-2.2c0-2.1,0.3-4.2,0.7-6.3c0.3-1.7,1-3.2,1.5-4.9c0.3-1.1,0.8-2.1,1.3-3.1c0.4-0.8,0.9-1.6,1.4-2.4
		c0.8-1,1.6-1.9,2.4-2.9c0.2-0.2,0.5-0.3,0.7-0.6c1.1-1,2.3-1.8,3.6-2.5c1.5-0.8,3-1.3,4.6-1.6c1.7-0.3,3.4-0.4,5.1-0.2
		c1.6,0.2,3.1,0.4,4.5,1c1.4,0.6,2.9,1.3,4.1,2.4c0.5,0.5,1.1,0.7,1.6,1.2c0.7,0.8,1.6,1.5,2.3,2.4c0.7,0.9,1.4,1.8,2,2.7
		c0.9,1.4,1.5,3,2,4.5c0.7,2.1,1,4.2,1.4,6.3c0.1,0.4,0.1,0.9,0.1,1.4c0.1,0.5,0.1,0.6,0.7,0.6c1.2,0,2.4,0.1,3.6,0.1
		c1.3,0,1.2,0,2.1-0.9c1.7-1.8,3.5-3.5,5.2-5.3c1.5-1.5,2.9-3.1,4.5-4.5c0.8-0.8,1.6-1.6,2.4-2.4c1.5-1.5,3.1-3,4.5-4.6
		c0.6-0.7,1.3-1.3,1.9-1.9c1-0.9,1.9-1.9,2.9-2.9c1.4-1.4,2.7-2.8,4.1-4.2c0.7-0.7,1.4-1.4,2.1-2c1.4-1.4,2.9-2.9,4.3-4.3
		c0.1-0.1,0.2-0.2,0.3-0.4c-6.8-4.2-13.6-8.4-20.4-12.7c0.3-0.1,0.5-0.1,0.7-0.1c16.2,0,32.5,0,48.7,0c0.1,0,0.2,0,0.3,0
		c0.4,0,0.5,0.2,0.5,0.5c0,0.1,0,0.3,0,0.4c0,16.4,0,32.9,0,49.3c0,0.2,0,0.5,0,0.7c-0.3,0.1-0.3-0.1-0.3-0.2
		c-2.3-3.6-4.5-7.2-6.8-10.8c-1.7-2.7-3.3-5.4-5-8.1c-0.8-1.2-0.8-1.3-1.8-0.2c-1.5,1.5-3,3-4.5,4.5c-1.3,1.3-2.7,2.6-4,4
		c-1.4,1.3-2.7,2.7-4.1,4c-1.4,1.4-2.8,2.8-4.3,4.2c-1.5,1.5-3,3-4.6,4.6c-0.6,0.6-1.3,1.3-1.9,1.9c-0.9,0.9-1.8,1.8-2.7,2.7
		c-1.3,1.3-2.6,2.6-3.9,3.9c-1.1,1.1-2.2,2.2-3.3,3.2c-1.5,1.5-2.9,2.9-4.4,4.4c-1.1,1.1-2.2,2.2-3.3,3.2c-0.3,0.3-0.3,0.5-0.2,0.9
		c1.7,4.9,3.3,9.8,5,14.7c0.2,0.6,0.4,1.2,0.6,1.8c0.2,0.7,0.7,1.3,1.2,1.9c1.6,1.5,3.2,3.1,4.7,4.6c1.1,1.2,2.3,2.3,3.5,3.5
		c2,2,4,4.1,6,6.1c1.4,1.4,2.8,2.8,4.2,4.1c1.3,1.3,2.6,2.6,3.9,3.9c1.4,1.4,2.8,2.8,4.1,4.2c1.5,1.6,3.1,3.1,4.6,4.7
		c0.6,0.6,1.1,1.1,1.7,1.7c1,1,1.9,2.1,3,3C143.5,127.4,143.6,127.5,143.9,127.5z M91.6,116.7c-0.3,0.1-0.5,0.2-0.8,0.3
		c-0.7,0.3-1.4,0.7-2.2,0.8c-1.5,0.3-2.9,0.3-4.4,0.2c-1.2-0.1-2.5-0.2-3.7-0.3c-1.3-0.2-2.7-0.2-4-0.4c-1.5-0.2-2.9-0.3-4.4-0.3
		c-9.7,0-19.5,0-29.2,0c-2,0-3.9-0.6-5.8-1.2c-0.2-0.1-0.3-0.2-0.4-0.3c-0.4-0.4-0.6-1-1-1.4c-0.6-0.7-0.8-1.4-0.9-2.2
		c-0.5-3.3-0.9-6.6-1.3-9.9c-0.3-2.8-0.5-5.6-0.8-8.3c-0.3-2.6-0.5-5.1-0.7-7.7c-0.1-1.3-0.2-2.6-0.4-3.8c0-0.3,0-0.5,0.5-0.6
		c1.5-0.2,3-0.3,4.5-0.5c0.5-0.1,0.5,0,0.6,0.4c0.4,3,0.5,5.9,0.8,8.9c0.3,3.6,0.6,7.2,1,10.8c0.2,1.9,0.5,3.8,0.8,5.7
		c0.2,1.2,0.4,2.3,0.7,3.4c0.1,0.4,0.2,0.5,0.6,0.6c0.9,0.3,1.9,0.3,2.8,0.4c2,0.2,4,0.3,6,0.4c2.6,0,5.2,0.2,7.8,0.1
		c2.2-0.1,4.3-0.1,6.5-0.1c3.8-0.1,7.5-0.1,11.3,0c1.1,0,2.3,0.1,3.4,0.2c1.1,0.1,2.2,0.3,3.3,0.4c1.5,0.1,3,0.1,4.4,0.4
		c0.3,0.1,0.7,0,1-0.2c0.8-0.4,1.6-0.8,2.4-1.2c0.4-0.2,0.5-0.4,0.4-0.9c-0.5-1.8-0.9-3.6-1.2-5.4c-0.7-3.6-1.6-7.1-2.2-10.7
		c-0.5-2.8-1-5.5-1.4-8.3c-0.6-3.7-0.9-7.5-1.3-11.3c-0.1-1.1-0.1-2.2-0.2-3.4c-0.1-1.9-0.1-3.8,0-5.6c0-0.6,0.1-1.3,0-2
		c-1.1,1-1.9,2.2-2.8,3.2c-0.5,0.5-1,1-1.5,1.6c-1,1.2-2.2,2-3.5,2.9c-0.4,0.3-1,0.4-1.4,0.7c-1,0.7-2.1,1-3.3,1.3
		c-1.8,0.3-3.5,0.3-5.3,0.3c-0.6,0-1.2-0.1-1.8-0.2c-1.5-0.3-2.9-0.8-4.3-1.4c-1.4-0.7-2.6-1.7-3.7-2.6c-0.7-0.6-1.3-1.2-1.8-1.9
		c-0.4-0.5-0.8-1.1-1.2-1.6c-0.9-1.3-1.7-2.6-2.3-4c-0.6-1.3-1.1-2.6-1.5-4c-0.3-1-0.3-1-1.5-1c-2.3,0-4.6-0.2-6.9-0.1
		c-2.2,0.1-4.4,0.3-6.6,0.8c-0.7,0.1-1.4,0.2-2,0.5c-1.9,0.8-3.9,1.4-5.6,2.7c-0.8,0.7-1.7,1.3-2.5,2c-0.1,0.1-0.2,0.2-0.3,0.4
		c-0.4,1.2-0.9,2.4-1.2,3.6c-1,3.4-1.7,6.8-2.2,10.2c-0.4,3.2-0.7,6.4-0.8,9.6c-0.1,5.2,0.1,10.3,0.8,15.5c0.2,1.4,0.4,2.8,0.6,4.2
		c0.2,1.2,0.5,2.3,0.7,3.4c0.3,1.8,0.8,3.5,1.3,5.2c0.6,2.5,1.5,4.8,2.4,7.2c0.1,0.3,0.3,0.4,0.6,0.5c1,0.3,2,0.5,3,0.6
		c2.5,0.4,5.1,0.7,7.7,1c2,0.2,4,0.4,6,0.6c2.1,0.2,4.2,0.2,6.3,0.3c4.9,0.1,9.8,0.3,14.8,0.3c2.7,0,5.4,0,8.1,0
		c1.4,0,2.8-0.1,4.3-0.1c1.5-0.1,3-0.2,4.5-0.2c1.1,0,2.2-0.1,3.2-0.3c1.6-0.2,3.1-0.6,4.6-1c0.4-0.1,0.9-0.3,1.2-0.6
		c0.9-0.8,1.7-1.7,2.6-2.5c0.2-0.2,0.2-0.4,0.1-0.6c-0.2-0.5-0.3-1.1-0.4-1.6C92,117.8,91.9,117.3,91.6,116.7z M53.7,49.1
		c0.1,0.8,0.1,1.8,0.2,2.7c0.1,1.1,0.2,2.2,0.6,3.3c0.3,1,0.6,2,1.1,3c0.6,1.4,1.4,2.8,2.2,4.1c0.7,1,1.5,2,2.3,2.9
		c1,1,2.1,1.7,3.4,2.4c1.1,0.6,2.4,0.8,3.7,0.9c3.5,0.2,6.4-0.9,8.7-3.3c1.3-1.3,2.2-2.8,3.1-4.3c0.5-0.9,1-1.9,1.4-2.9
		c0.5-1.3,1-2.5,1.2-3.8c0.1-0.4,0.1-0.9,0.2-1.3c0.3-1.2,0.3-2.4,0.4-3.6c0.1-1.8-0.1-3.6-0.4-5.3c-0.2-1.2-0.5-2.4-0.9-3.5
		c-0.6-1.8-1.5-3.5-2.5-5.2c-0.7-1.1-1.5-2.2-2.4-3.2c-1.1-1.1-2.4-2.2-4-2.7c-0.7-0.2-1.4-0.5-2.1-0.7c-2-0.3-4-0.1-6,0.6
		c-1.4,0.5-2.6,1.4-3.6,2.4c-0.9,0.9-1.7,1.9-2.4,3c-1.8,2.9-3.3,5.9-3.8,9.2C53.8,45.5,53.7,47.2,53.7,49.1z M97.5,128.4
		c-0.6-1-1.6-1.6-2.3-2.5c-0.2-0.2-0.4-0.1-0.6,0.1c-0.9,0.8-1.9,1.3-2.9,1.9c-0.8,0.6-1.7,0.9-2.7,1.2c-0.2,0.1-0.5,0.1-0.6,0.3
		c-0.3,0.4-0.7,0.4-1.2,0.5c-0.7,0.1-1.5,0.2-2.2,0.2c-2.5,0.1-4.9,0.3-7.4,0.3c-7.7,0.1-15.5,0-23.2-0.2c-3.4-0.1-6.7-0.2-10.1-0.3
		c-3.1-0.1-6.2-0.1-9.3-0.2c-0.8,0-0.9,0-1.1,0.7c-0.5,1.5-0.8,3.1-1.1,4.6c-0.6,2.8-0.9,5.7-0.8,8.6c0,1.1,0.2,2.1,1.1,2.9
		c0.3,0.3,0.6,0.7,0.8,1c0.2,0.3,0.4,0.5,0.8,0.6c1.4,0.5,2.8,0.7,4.3,0.8c2,0.1,3.9,0,5.9-0.4c2.3-0.4,4.5-0.9,6.8-1.4
		c0.7-0.2,1.4-0.5,2.2-0.7c1.4-0.3,2.7-0.9,4.1-1.3c2.6-0.7,5-1.8,7.5-2.6c0.3-0.1,0.5-0.2,0.8-0.3c2.1-1,4.4-1.7,6.5-2.7
		c1.2-0.6,2.5-1,3.7-1.6c2.7-1.3,5.4-2.3,8.1-3.6c2.1-1,4.2-2,6.4-2.9c0.1,0,0.1-0.1,0.2-0.1c0.8-0.6,1.7-0.9,2.6-1.3
		C95,129.7,96.1,129,97.5,128.4C97.4,128.5,97.5,128.4,97.5,128.4z M91.3,51.5c-0.2,0.6-0.2,1.2-0.3,1.8c-0.4,2.1-0.7,4.2-1,6.3
		c-0.2,1.8-0.4,3.6-0.7,5.5c-0.3,1.8-0.4,3.5-0.3,5.3c0.2,2.2,0.4,4.4,0.8,6.5c0.7,4.5,1.4,9,2.1,13.4c0.5,3.4,1.1,6.8,1.9,10.2
		c0.6,2.7,1.2,5.5,1.8,8.2c0.9,3.8,1.7,7.5,2.6,11.3c0.1,0.2,0.1,0.5,0.3,0.6c0.7,0.9,1.4,1.7,2.1,2.6c0.2,0.3,0.5,0.4,0.9,0.4
		c0.4,0,0.9,0,1.3,0c0.6,0.1,1-0.1,1.4-0.6c1.1-1.1,2-2.4,2.8-3.7c0.7-1.1,1.1-2.3,1.1-3.5c0-2.1-0.3-4.1-0.8-6.1
		c-0.7-3-1.7-6-2.7-9c-0.7-2.1-1.4-4.1-2.1-6.2c-0.7-2.1-1.4-4.1-2-6.2c-0.8-2.5-1.7-5.1-2.4-7.6c-0.9-3-1.8-6-2.7-8.9
		c-0.3-0.9-0.5-1.7-0.8-2.6c-0.2-0.7-0.3-1.3-0.4-2c-0.1-1.5,0-3,0.2-4.5c0.4-2.4,0.6-4.9,0.5-7.3c0-0.5-0.1-1.1-0.1-1.6
		c0-0.5-0.2-0.8-0.7-1.1c-0.2-0.1-0.3-0.2-0.5-0.3C92.8,52.2,92.1,51.8,91.3,51.5z M87.6,139.1c-0.3,0-0.5,0.2-0.8,0.3
		c-2.2,1-4.4,2.1-6.7,3c-2.8,1.1-5.5,2.4-8.2,3.6c-2.6,1.1-5.3,2.2-7.9,3.3c-0.7,0.3-1.3,0.6-2,0.9c0,0,0,0.1,0,0.1
		c0.2,0,0.5,0,0.7,0c8,0,16,0,23.9,0c0.2,0,0.4,0,0.5,0c0.3,0,0.5-0.1,0.4-0.4c0-0.1,0-0.2,0-0.4c0-3.2,0-6.5,0-9.7
		C87.7,139.6,87.7,139.3,87.6,139.1z"/>
	<path class="st0" d="M143.5,92c-0.8,0-1.5,0-2.3,0c-0.4,0-0.5-0.1-0.4-0.5c0.1-1.3,0.3-2.7,0.7-3.9c0.3-1.1,0.8-2.2,1.4-3.3
		c0.6-1.1,1.3-2.1,2.1-3.1c0.7-1,1.8-1.7,2.6-2.7c1.5-1.7,2.8-3.5,3.4-5.6c0.3-1.1,0.4-2.1,0.2-3.2c-0.1-0.7-0.3-1.3-0.5-1.9
		c-0.4-1-1.2-1.6-2.1-2.2c-1.4-0.9-3.1-1.1-4.7-1c-1.5,0.1-3,0.5-4.4,1.3c-1.4,0.8-2.2,2-2.7,3.4c-0.4,1.3-0.6,2.6-0.6,3.9
		c0,0.3-0.1,0.5-0.5,0.5c-1.4,0-2.8,0-4.3,0c-0.4,0-0.5-0.2-0.5-0.5c0-1.2,0.1-2.4,0.4-3.5c0.3-1.5,1-2.9,1.8-4.2
		c0.2-0.4,0.6-0.7,0.9-1.1c0.8-1.1,1.9-2,3-2.7c0.9-0.6,2-1.1,3.2-1.3c0.6-0.1,1.2-0.3,1.8-0.4c0.7-0.2,1.5-0.2,2.3-0.1
		c1.8,0.1,3.6,0.5,5.3,1c1.7,0.5,3,1.5,4.1,2.8c1.5,1.7,2.1,3.7,2.3,5.7c0.2,1.4,0.3,2.7,0,4.1c-0.2,1.1-0.6,2.2-1.1,3.2
		c-0.8,1.7-2,3.1-3.2,4.5c-1.1,1.2-2.1,2.5-3,3.9c-0.5,0.7-0.9,1.6-1.2,2.4c-0.5,1.4-0.9,2.7-0.9,4.2c0,0.4-0.1,0.5-0.5,0.5
		C145.1,92,144.3,92,143.5,92z"/>
	<path class="st0" d="M146.4,100.1c0,0.8,0,1.6,0,2.4c0,0.4-0.1,0.5-0.5,0.5c-1.5,0-3,0-4.6,0c-0.4,0-0.5-0.1-0.5-0.5
		c0-1.7,0-3.3,0-5c0-0.3,0.1-0.5,0.5-0.5c1.5,0,3.1,0,4.6,0c0.3,0,0.5,0.1,0.4,0.4C146.4,98.4,146.4,99.2,146.4,100.1z"/>
</g>
</svg>
