<?xml version="1.0" encoding="utf-8"?>
<!-- Generator: Adobe Illustrator 28.0.0, SVG Export Plug-In . SVG Version: 6.00 Build 0)  -->
<svg version="1.1" id="Layer_1" xmlns="http://www.w3.org/2000/svg" xmlns:xlink="http://www.w3.org/1999/xlink" x="0px" y="0px"
	 viewBox="0 0 156 156" width="156px" height="156px"  style="enable-background:new 0 0 156 156;" xml:space="preserve">
<style type="text/css">
	.st0{enable-background:new    ;}
	.st1{fill:#FF0000;}
</style>
<g class="st0">
	<path class="st1" d="M15.1,20.4c1,0.7,2,1.4,2.9,2.3c1.2,1.1,2.3,2.3,3.4,3.5c0.6,0.7,1.1,1.4,1.7,2.1c0.4,0.5,0.4,0.5,0.7,0
		c2.5-4.5,4.9-9.1,7.4-13.6c0.3-0.5,0.5-1,0.8-1.4c0.1-0.2,0.3-0.3,0.5-0.1c0.7,0.5,1.4,0.9,2,1.5c1.1,0.8,2.2,1.6,3.3,2.4
		c0.3,0.2,0.5,0.5,0.5,0.9c0.3,2.6,0.5,5.2,0.8,7.8c0.3,3.3,0.7,6.7,1,10c0.3,3.2,0.7,6.4,1,9.6c0,0.4,0.2,0.7,0.5,1
		c4,3.8,7.9,7.5,11.8,11.3c0.1,0.1,0.2,0.3,0.5,0.3c0.1-0.3-0.1-0.6-0.2-0.8c-1.4-3.9-2.9-7.7-4.3-11.6c-1.9-5.2-3.8-10.4-5.7-15.7
		c-0.6-1.5-0.9-3.1-0.8-4.7c0.1-0.9,0.2-1.7,0.7-2.5c0.4-0.7,1.3-0.7,1.7,0c0.5,0.8,0.9,1.7,1.3,2.5c0.5,1,0.8,2,1.3,3
		c0.8,1.9,1.6,3.8,2.4,5.7c1.2,2.9,2.3,5.8,3.5,8.7c0.7,1.8,1.6,3.5,2.3,5.3c0.7,1.6,1.5,3.2,2.2,4.8c0.4,0.9,0.8,1.7,1.2,2.5
		c0.9,1.6,1.7,3.3,2.6,4.9c0.8,1.3,1.5,2.7,2.3,4c1.5,2.7,3.3,5.2,5,7.7c0.6,1,1.4,1.8,2,2.8c0.4,0.6,1,1.1,1.5,1.5
		c1.4,1.2,2.9,2.4,4.3,3.5c1.9,1.6,3.9,3,5.9,4.5c8.1,5.9,16.1,11.8,24.1,17.8c1.2,0.9,2.4,2,3.6,3c2.8,2.4,5.6,4.9,8.2,7.5
		c1.4,1.4,2.7,2.9,4.1,4.4c0.9,1,1.7,2,2.5,3c1,1.3,1.9,2.7,2.7,4c0.7,1.1,1.3,2.2,1.9,3.4c1,2.3,1.8,4.6,1.6,7.1
		c-0.1,1.8-1.1,2.9-2.8,3.6c-2.2,0.8-4.3,0.5-6.4-0.3c-2.5-1-4.8-2.4-6.9-4.1c-7.9-6.2-15.9-12.3-23.8-18.6
		c-2.6-2.1-5.3-4.1-7.9-6.2c-0.1-0.1-0.2-0.2-0.3-0.2c-0.5-0.4-0.5-0.4-0.9,0.1c-0.6,0.8-1.2,1.6-1.9,2.4c-0.1,0.2-0.2,0.4-0.5,0.5
		c-0.3,0-0.4-0.3-0.5-0.4c-2.4-2.3-4.8-4.5-7.3-6.8c-0.8-0.7-1.5-1.5-1.4-2.7c0.1-0.6-0.1-1.3-0.1-1.9c0-0.3,0-0.6-0.1-0.8
		c-0.2-0.1-0.4,0.1-0.6,0.2c-0.8,0.4-1.6,0.8-2.4,1.2c-0.2,0.1-0.5,0.2-0.7,0c-1.5-0.9-3.1-1.9-4.3-3.2c-1.7-1.8-2.8-3.9-2.8-6.5
		c0-0.8,0-1.5,0-2.3c0-0.4-0.1-0.7-0.4-1c-2.8-2.7-5.7-5.4-8.4-8.3c-2.4-2.6-4.8-5.2-7.1-7.9c-2.8-3.3-5.6-6.5-8.2-9.9
		c-3.1-4.1-6.2-8.2-9-12.5c-1.1-1.7-2.3-3.4-3.4-5.1c-2-3.3-4-6.6-5.9-9.9c-0.3-0.5-0.3-0.9-0.2-1.4c0.2-0.6,0.3-1.3,0.6-1.9
		c0.2-0.4,0.1-0.7,0.1-1c-0.4-1.9-1.1-3.6-1.9-5.3c-0.5-1.1-1-2.1-1.5-3.1c-0.1-0.2-0.2-0.5-0.3-0.7C15,20.5,15,20.5,15.1,20.4z"/>
	<path class="st1" d="M156,72.8c-0.2,1.8-0.3,3.5-0.5,5.2c-0.2,2.4-0.5,4.8-0.7,7.1c-0.3,3.4-0.7,6.7-1,10.1
		c-0.3,2.7-0.6,5.5-0.8,8.2c-0.3,3.4-0.7,6.9-1,10.3c-0.3,2.9-0.6,5.8-0.8,8.7c-0.3,2.7-0.5,5.3-0.8,8c-0.2,2.4-0.5,4.7-0.7,7.1
		c-0.3,2.9-0.6,5.8-0.9,8.7c-0.2,1.8-0.4,3.6-0.5,5.4c0,0.2,0,0.4-0.1,0.5c0,0.4-0.2,0.5-0.6,0.4c-1.1-0.2-2.2-0.3-3.2-0.5
		c-1.5-0.2-3.1-0.5-4.6-0.7c-4.4-0.8-8.7-1.4-13.1-2.1c-3.8-0.6-7.6-1.2-11.4-1.8c-4.1-0.7-8.3-1.3-12.4-2
		c-3.9-0.6-7.7-1.2-11.6-1.8c-4.2-0.7-8.3-1.3-12.5-2c-2.1-0.3-4.3-0.7-6.5-1c-0.1,0-0.3,0-0.4-0.1c-0.7-0.1-0.7-0.1-0.6-0.9
		c0.3-1.7,0.6-3.4,0.8-5.1c0.1-0.7,0.1-0.7,0.8-0.6c2.7,0.4,5.4,0.9,8.1,1.3c4.3,0.7,8.7,1.4,13,2.1c4.3,0.7,8.6,1.4,13,2.1
		c4,0.7,8.1,1.3,12.1,2c4.3,0.7,8.6,1.4,13,2.1c3.3,0.5,6.5,1.1,9.8,1.6c0.6,0.1,0.6,0.1,0.7-0.5c0.5-4.8,0.9-9.6,1.4-14.4
		c0.4-4.4,0.9-8.7,1.3-13.1c0.4-3.9,0.8-7.8,1.2-11.7c0.5-4.9,1-9.8,1.5-14.7c0.4-3.9,0.8-7.7,1.2-11.6c0.2-2.4,0.5-4.8,0.7-7.2
		c0.1-0.6,0.1-0.6,0.6-0.5c1.8,0.2,3.5,0.4,5.3,0.5C155.8,72.3,156.1,72.4,156,72.8z"/>
	<path class="st1" d="M109.4,19.7c0.2-0.3,0.5-0.3,0.8-0.4c4.3-1.4,8.7-2.7,13.1-4.1c9.7-3.2,19.4-6.1,29.1-9.2
		c0.7-0.2,1.4-0.6,2.1-0.7C155,5,155.1,5,155,5.7c-0.1,2.1-0.3,4.2-0.4,6.3c-0.3,4.7-0.6,9.4-0.9,14.1c-0.2,3-0.4,6.1-0.6,9.1
		c-0.3,4.7-0.6,9.3-0.9,14c-0.1,1.2-0.1,2.3-0.2,3.5c-0.1,0.9,0,0.9-0.9,0.8c-1.5-0.1-3-0.3-4.6-0.5c-0.5-0.1-0.5-0.1-0.5-0.7
		c0.1-1.2,0.1-2.5,0.2-3.7c0.2-3.1,0.4-6.1,0.6-9.2c0.2-4,0.5-8,0.7-12c0.2-2.8,0.3-5.6,0.5-8.3c0.1-1.5,0.2-3,0.3-4.5
		c0-0.3,0.1-0.5-0.1-0.8c-1.1,0.4-2.3,0.7-3.4,1.1c-0.3,0.1-0.5,0.2-0.8,0.3c-10.3,3.2-20.5,6.5-30.8,9.7c-0.1,0-0.3,0.1-0.4,0.1
		c-0.3,0.1-0.5,0.1-0.6-0.2C111.2,23.1,110.3,21.4,109.4,19.7z"/>
	<path class="st1" d="M8.5,52.9c-0.7,0-1.4,0-2.2,0c-0.7,0-0.7,0-0.7-0.7c0-1-0.1-2-0.1-3.1c-0.2-4.2-0.3-8.5-0.5-12.7
		c-0.3-6-0.5-12-0.8-18C4,14.9,3.8,11.4,3.7,8c0-0.5,0-0.9-0.1-1.4c0-0.4,0.1-0.6,0.5-0.6c1.4-0.2,2.8-0.5,4.2-0.7
		c3.9-0.6,7.8-1.1,11.7-1.7c3.8-0.6,7.6-1.1,11.5-1.6c3.8-0.6,7.6-1.1,11.5-1.7C44.1,0.1,45.3,0,46.5,0c0.3,0,0.5,0.1,0.6,0.5
		c0.3,1.5,0.5,2.9,0.8,4.4c0.1,0.4,0,0.5-0.4,0.6c-1.3,0.2-2.6,0.5-3.9,0.7C40,6.7,36.3,7.2,32.6,7.8c-3.7,0.6-7.4,1.1-11.1,1.7
		c-3.6,0.5-7.3,1.1-10.9,1.6c-0.7,0.1-0.7,0.1-0.7,0.8c0.3,6.4,0.5,12.7,0.8,19.1c0.2,5,0.4,10.1,0.6,15.1c0.1,1.9,0.2,3.9,0.3,5.8
		c0,0.7,0,0.8-0.7,0.8c-0.8,0-1.6,0-2.4,0C8.5,52.7,8.5,52.8,8.5,52.9z"/>
	<path class="st1" d="M55.6,150.3c-0.2,0.7-0.4,1.6-0.5,2.5c-0.2,0.8-0.3,1.6-0.5,2.5c-0.2,0.9-0.2,0.8-0.9,0.6
		c-4.1-0.9-8.1-1.8-12.2-2.8c-2.2-0.5-4.4-1-6.5-1.5c-7.3-1.8-14.6-3.4-22-5c-0.6-0.1-0.7-0.5-0.8-0.9c-1.6-6.1-3.2-12.3-4.8-18.4
		c-0.5-1.9-1-3.7-1.5-5.6c-0.2-0.7-0.2-0.7,0.5-0.9c1.7-0.4,3.3-0.9,5-1.3c0.6-0.2,0.6-0.2,0.8,0.5c1,4,2,7.9,3,11.9
		c0.7,3,1.5,6,2.2,9c0.1,0.5,0.3,0.8,0.9,0.9c9.8,2,19.6,4.1,29.4,6.1c2.5,0.5,5,1,7.5,1.6C55.3,149.7,55.7,149.6,55.6,150.3z"/>
	<path class="st1" d="M76.4,9.3c10.1,0,20.1,0,30.2,0c1.1,0,1-0.1,1,1c0,1.6,0,3.1,0,4.7c0,0.6,0,0.6-0.7,0.7c-0.2,0-0.3,0-0.5,0
		c-20,0-40,0-60,0c-1.1,0-1.1,0.2-1.1-1.1c0-1.5,0-2.9,0-4.4c0-0.8,0-0.8,0.8-0.8c7.5,0,14.9,0,22.4,0C71.1,9.3,73.8,9.3,76.4,9.3z"
		/>
	<path class="st1" d="M17.6,104.4c0.1,0.3,0,0.4-0.2,0.5c-0.1,0-0.3,0.1-0.4,0.1c-1.6,0.4-3.2,0.8-4.7,1.3c-0.7,0.2-0.7,0.2-0.8-0.5
		c-1.4-5.3-2.8-10.5-4.2-15.8C4.9,81,2.6,72.1,0.2,63.1c-0.3-1-0.5-1,0.7-1.3c1.5-0.4,2.9-0.8,4.3-1.2c0.6-0.2,0.7-0.2,0.8,0.5
		c1.8,6.7,3.6,13.4,5.4,20.1c2,7.4,4,14.9,6,22.3C17.5,103.9,17.6,104.2,17.6,104.4z"/>
</g>
</svg>
