<?xml version="1.0" encoding="utf-8"?>
<!-- Generator: Adobe Illustrator 28.0.0, SVG Export Plug-In . SVG Version: 6.00 Build 0)  -->
<svg version="1.1" id="Layer_1" xmlns="http://www.w3.org/2000/svg" xmlns:xlink="http://www.w3.org/1999/xlink" x="0px" y="0px"
	 viewBox="0 0 156 156" style="enable-background:new 0 0 156 156;" xml:space="preserve">
<style type="text/css">
	.st0{fill-rule:evenodd;clip-rule:evenodd;fill:#FFFFFF;}
	
		.st1{clip-path:url(#SVGID_00000136406894850164640530000013618824668459404215_);fill-rule:evenodd;clip-rule:evenodd;fill:#FFFFFF;}
	.st2{clip-path:url(#SVGID_00000136406894850164640530000013618824668459404215_);fill:#FF0000;}
	
		.st3{clip-path:url(#SVGID_00000136406894850164640530000013618824668459404215_);fill-rule:evenodd;clip-rule:evenodd;fill:#FF0000;}
	.st4{fill:none;}
</style>
<g>
	<polygon class="st0" points="-0.98,0 156.98,0 156.98,156 -0.98,156 -0.98,0 	"/>
	<polygon class="st0" points="-0.31,0.99 156.08,0.99 156.08,154.93 -0.31,154.93 -0.31,0.99 	"/>
	<g>
		<defs>
			<polygon id="SVGID_1_" points="-0.23,154.85 155.99,154.85 155.99,1.07 -0.23,1.07 -0.23,154.85 			"/>
		</defs>
		<clipPath id="SVGID_00000132054978915316945800000000519848392970657169_">
			<use xlink:href="#SVGID_1_"  style="overflow:visible;"/>
		</clipPath>
		
			<polygon style="clip-path:url(#SVGID_00000132054978915316945800000000519848392970657169_);fill-rule:evenodd;clip-rule:evenodd;fill:#FFFFFF;" points="
			-0.02,1.29 155.26,1.29 155.26,154.22 -0.02,154.22 -0.02,1.29 		"/>
		
			<rect x="5.51" y="61.09" transform="matrix(0.9674 -0.2534 0.2534 0.9674 -21.0203 4.8706)" style="clip-path:url(#SVGID_00000132054978915316945800000000519848392970657169_);fill:#FF0000;" width="5.78" height="45.91"/>
		
			<rect x="43.83" y="10.69" transform="matrix(1 -3.434046e-03 3.434046e-03 1 -0.0462 0.2573)" style="clip-path:url(#SVGID_00000132054978915316945800000000519848392970657169_);fill:#FF0000;" width="62.15" height="5.78"/>
		<polygon style="clip-path:url(#SVGID_00000132054978915316945800000000519848392970657169_);fill:#FF0000;" points="150.04,52.97 
			144.3,52.35 148.71,11.52 108.63,26.5 106.6,21.09 155.46,2.84 		"/>
		<polygon style="clip-path:url(#SVGID_00000132054978915316945800000000519848392970657169_);fill:#FF0000;" points="146,151.98 
			68.32,139.38 69.25,133.67 140.78,145.28 147.08,72.44 152.84,72.94 		"/>
		<polygon style="clip-path:url(#SVGID_00000132054978915316945800000000519848392970657169_);fill:#FF0000;" points="53.09,154.15 
			12.02,145.78 4.76,121.1 10.3,119.47 16.58,140.81 54.24,148.49 		"/>
		<polygon style="clip-path:url(#SVGID_00000132054978915316945800000000519848392970657169_);fill:#FF0000;" points="4.81,53.29 
			2.54,8.5 45.34,1.33 46.29,7.03 8.57,13.36 10.58,53 		"/>
		
			<rect x="19.79" y="40.15" transform="matrix(0.89 -0.456 0.456 0.89 -13.902 27.8949)" style="clip-path:url(#SVGID_00000132054978915316945800000000519848392970657169_);fill:#FF0000;" width="62.13" height="5.21"/>
		
			<rect x="-4.18" y="87.21" transform="matrix(7.615925e-03 -1 1 7.615925e-03 -55.1797 124.0178)" style="clip-path:url(#SVGID_00000132054978915316945800000000519848392970657169_);fill:#FF0000;" width="78.15" height="5.21"/>
		
			<rect x="33.72" y="123.63" style="clip-path:url(#SVGID_00000132054978915316945800000000519848392970657169_);fill:#FF0000;" width="59.05" height="5.21"/>
		
			<rect x="45.75" y="82.34" style="clip-path:url(#SVGID_00000132054978915316945800000000519848392970657169_);fill:#FF0000;" width="25.83" height="5.21"/>
		
			<rect x="25.49" y="103.18" transform="matrix(0.0244 -0.9997 0.9997 0.0244 -59.2211 150.8939)" style="clip-path:url(#SVGID_00000132054978915316945800000000519848392970657169_);fill:#FF0000;" width="44.42" height="5.21"/>
		
			<rect x="49.52" y="102.37" transform="matrix(0.0137 -0.9999 0.9999 0.0137 -36.9869 172.4439)" style="clip-path:url(#SVGID_00000132054978915316945800000000519848392970657169_);fill:#FF0000;" width="38.8" height="5.21"/>
		
			<path style="clip-path:url(#SVGID_00000132054978915316945800000000519848392970657169_);fill-rule:evenodd;clip-rule:evenodd;fill:#FF0000;" d="
			M106.41,89.98c-0.86,1.24-0.27,7.58-1.71,9.92c-0.38,0.62-0.86,1.18-1.14,1.86c-0.49,1.19-1.14,3.72-1.14,3.72
			c0.19,1.45,0.86,2.91,0.57,4.34c-0.15,0.73-1.1,0.91-1.71,1.24c-1.4,0.76-3.82,1-5.14,1.24c-0.38,0.62-0.83,1.19-1.14,1.86
			c-0.45,0.98-0.62,3.13-1.71,3.72c-1.4,0.76-4.57,1.24-4.57,1.24c-1.36,4.43-2.14,3,0.57,4.96c0.38,0.62,0.66,1.33,1.14,1.86
			c0.49,0.53,1.28,0.66,1.71,1.24c0.38,0.51,0.15,1.4,0.57,1.86c0.27,0.3,3.97,1.23,3.99,1.24c0.57,0.41,1.28,0.66,1.71,1.24
			c1.84,2.5-0.96,1.4,1.71,3.72c0.47,0.41,1.14,0.41,1.71,0.62c2.09-0.21,4.2-0.3,6.28-0.62c0.6-0.09,1.12-0.51,1.71-0.62
			c1.7-0.31,3.42-0.41,5.14-0.62c4.3-1.56-1,0.54,3.42-1.86c1.3-0.71,3.26-0.89,4.57-1.24c0.58-0.16,1.14-0.41,1.71-0.62
			c0.19-0.62,0.3-1.28,0.57-1.86c0.31-0.67,1.07-1.12,1.14-1.86c0.13-1.45-0.27-2.92-0.57-4.34c-0.27-1.27-1.14-3.72-1.14-3.72
			c-0.19-4.13,0.14-8.34-0.57-12.4c-0.11-0.64-1.19-0.3-1.71-0.62c-1.2-0.72-3.42-2.48-3.42-2.48c-0.42-1.39-1.01-4.37-2.28-5.58
			l-5.14-3.72c-0.57-0.41-1.06-1-1.71-1.24C107.61,91.66,107.27,88.74,106.41,89.98L106.41,89.98z"/>
		
			<rect x="84.65" y="23.15" transform="matrix(0.5971 -0.8022 0.8022 0.5971 5.756 84.7651)" style="clip-path:url(#SVGID_00000132054978915316945800000000519848392970657169_);fill:#FF0000;" width="5.21" height="27.01"/>
		<path style="clip-path:url(#SVGID_00000132054978915316945800000000519848392970657169_);fill:#FF0000;" d="M112.91,112.79h-4.25
			l0.02-0.9c0.02-0.45,0.04-0.9-0.01-1.35c-0.08-0.76-0.24-1.49-0.39-2.22l-0.15-0.68c-0.06-0.27-0.13-0.54-0.21-0.81
			c-0.17-0.62-0.34-1.25-0.4-1.9c-0.21-2.17-0.3-4.1-0.39-5.97c-0.13-2.69-0.25-5.24-0.73-8.14c-0.01-0.08-0.03-0.15-0.05-0.23
			c-0.1,0-0.2-0.01-0.3-0.02c-1.23-0.09-2.51-0.18-3.82-0.54c-2.13-0.58-2.91-1.77-3.18-2.67c-0.49-1.58-0.53-3.15-0.57-4.68
			c-0.02-0.65-0.03-1.3-0.09-1.94c-0.02-0.23,0-0.45,0.04-0.67l0.57-2.48c0.12-0.49,0.27-0.96,0.42-1.43l0.89-2.88
			c-0.08-0.06-0.17-0.11-0.26-0.16c-0.47-0.25-0.69-0.3-0.97-0.37c-1.06-0.24-1.78-0.59-3-1.92c-1.27-1.37-1.63-2.64-1.99-3.87
			l-0.19-0.66c-0.45-1.47-0.77-1.8-0.79-1.81c-2.98,0.15-3.94-2.48-4.53-7.95c-0.13-1.26,0.67-2.32,1.89-3.93
			c0.3-0.4,0.77-1.01,1.01-1.39c-0.13-0.96-0.23-1.92-0.33-2.89l-0.17-1.63l4.22-0.49l0.18,1.68c0.11,1.07,0.22,2.13,0.38,3.2
			c0.2,1.32-0.63,2.42-1.9,4.08c-0.3,0.39-0.76,1-1,1.37c0.27,2.32,0.54,3.37,0.71,3.84c2.22,0.17,3.44,1.52,4.4,4.66l0.21,0.73
			c0.31,1.05,0.44,1.53,1.03,2.17c0.46,0.5,0.63,0.61,0.65,0.62c0.59,0.13,1.23,0.28,2.22,0.81c0.52,0.28,0.98,0.64,1.44,1l0.5,0.38
			c0.74,0.53,1.06,1.47,0.79,2.34l-1.36,4.39c-0.12,0.35-0.23,0.69-0.32,1.04l-0.5,2.15c0.05,0.62,0.06,1.25,0.08,1.88
			c0.03,1.17,0.06,2.28,0.3,3.25c0.07,0.03,0.17,0.07,0.31,0.1c0.92,0.25,1.94,0.33,3.02,0.4c0.61,0.04,1.22,0.09,1.82,0.16
			c0.83,0.1,1.53,0.69,1.78,1.49l0.18,0.53c0.19,0.53,0.36,1.05,0.45,1.6c0.53,3.15,0.65,5.82,0.79,8.64
			c0.09,1.8,0.17,3.66,0.38,5.76c0.04,0.4,0.15,0.78,0.26,1.16c0.1,0.36,0.2,0.73,0.27,1.1l0.14,0.64c0.19,0.88,0.37,1.77,0.46,2.67
			c0.07,0.63,0.05,1.29,0.03,1.94L112.91,112.79z M103.11,86.12C103.11,86.13,103.11,86.13,103.11,86.12
			C103.11,86.13,103.11,86.13,103.11,86.12z M92.74,56.78C92.74,56.78,92.74,56.78,92.74,56.78S92.74,56.78,92.74,56.78z"/>
	</g>
	<polygon class="st4" points="-0.49,155.51 156.49,155.51 156.49,0.49 -0.49,0.49 -0.49,155.51 	"/>
</g>
</svg>
