<?xml version="1.0" encoding="utf-8"?>
<!-- Generator: Adobe Illustrator 28.0.0, SVG Export Plug-In . SVG Version: 6.00 Build 0)  -->
<svg version="1.1" id="Layer_1" xmlns="http://www.w3.org/2000/svg" xmlns:xlink="http://www.w3.org/1999/xlink" x="0px" y="0px"
	 viewBox="0 0 156 156" style="enable-background:new 0 0 156 156;" xml:space="preserve">
<style type="text/css">
	.st0{fill:#FF0000;}
</style>
<g>
	<rect x="5.5" y="61.1" transform="matrix(0.9674 -0.2534 0.2534 0.9674 -21.0225 4.8722)" class="st0" width="5.8" height="45.9"/>
	
		<rect x="43.8" y="10.7" transform="matrix(1 -3.434249e-03 3.434249e-03 1 -4.619565e-02 0.2573)" class="st0" width="62.2" height="5.8"/>
	<polygon class="st0" points="148.7,11.5 144.3,52.3 150,53 155.5,2.8 106.6,21.1 108.6,26.5 	"/>
	<polygon class="st0" points="140.8,145.3 69.2,133.7 68.3,139.4 146,152 152.8,72.9 147.1,72.4 	"/>
	<polygon class="st0" points="10.3,119.5 4.8,121.1 12,145.8 53.1,154.1 54.2,148.5 16.6,140.8 	"/>
	<polygon class="st0" points="10.6,53 8.6,13.4 46.3,7 45.3,1.3 2.5,8.5 4.8,53.3 	"/>
	<path class="st0" d="M103,85.8c-0.2-1-0.3-2.1-0.3-3.2c0-0.6,0-1.3-0.1-1.9l0.5-2.2c0.1-0.3,0.2-0.7,0.3-1l1.4-4.4
		c0.3-0.9,0-1.8-0.8-2.3l-0.5-0.4c-0.5-0.4-0.9-0.7-1.4-1c-1-0.5-1.6-0.7-2.2-0.8c0,0-0.2-0.1-0.7-0.6c-0.6-0.6-0.7-1.1-1-2.2L98,65
		c-1-3.1-2.2-4.5-4.4-4.7c-0.2-0.5-0.4-1.5-0.7-3.8c0.2-0.4,0.7-1,1-1.4c1.3-1.7,2.1-2.8,1.9-4.1c-0.2-1.1-0.3-2.1-0.4-3.2l-0.2-1.7
		L91,46.7l0.2,1.6c0.1,1,0.2,1.9,0.3,2.9c-0.2,0.4-0.7,1-1,1.4c-1.2,1.6-2,2.7-1.9,3.9c0.6,5.5,1.5,8.1,4.5,8c0,0,0.3,0.3,0.8,1.8
		l0.2,0.7c0.4,1.2,0.7,2.5,2,3.9c1.2,1.3,1.9,1.7,3,1.9c0.3,0.1,0.5,0.1,1,0.4c0.1,0,0.2,0.1,0.3,0.2l-0.9,2.9
		c-0.1,0.5-0.3,0.9-0.4,1.4l-0.6,2.5c0,0.2-0.1,0.4,0,0.7c0.1,0.6,0.1,1.3,0.1,1.9c0,1.5,0.1,3.1,0.6,4.7c0.3,0.9,1,2.1,3.2,2.7
		c1.3,0.4,2.6,0.5,3.8,0.5c0,0,0.1,0,0.1,0c-0.5,2-0.2,7.2-1.5,9.3c-0.4,0.6-0.9,1.2-1.1,1.9c-0.5,1.2-1.1,3.7-1.1,3.7
		c0.2,1.5,0.9,2.9,0.6,4.3c-0.1,0.7-1.1,0.9-1.7,1.2c-1.4,0.8-3.8,1-5.1,1.2c-0.4,0.6-0.8,1.2-1.1,1.9c-0.5,1-0.6,3.1-1.7,3.7
		c-1.4,0.8-4.6,1.2-4.6,1.2c-1.2,4-2,3.2-0.1,4.5H71.3l0.5-38l-0.2,0v-3.3H45.8v1.2l-0.1,0l-1,40.1h-7.4l0.5-71.3L77,32.3l19.5,14.5
		l3.1-4.2L78,26.5l-0.3,0.4l-0.3-0.7L22,54.6l2.4,4.6l8.2-4.2L32,128.9l5.2,0l0-0.1h55.4c0,0.1,0.1,0.1,0.1,0.2c0.3,0.3,4,1.2,4,1.2
		c0.6,0.4,1.3,0.7,1.7,1.2c1.8,2.5-1,1.4,1.7,3.7c0.5,0.4,1.1,0.4,1.7,0.6c2.1-0.2,4.2-0.3,6.3-0.6c0.6-0.1,1.1-0.5,1.7-0.6
		c1.7-0.3,3.4-0.4,5.1-0.6c4.3-1.6-1,0.5,3.4-1.9c1.3-0.7,3.3-0.9,4.6-1.2c0.6-0.2,1.1-0.4,1.7-0.6c0.2-0.6,0.3-1.3,0.6-1.9
		c0.3-0.7,1.1-1.1,1.1-1.9c0.1-1.5-0.3-2.9-0.6-4.3c-0.3-1.3-1.1-3.7-1.1-3.7c-0.2-4.1,0.1-8.3-0.6-12.4c-0.1-0.6-1.2-0.3-1.7-0.6
		c-1.2-0.7-3.4-2.5-3.4-2.5c-0.4-1.4-1-4.4-2.3-5.6l-5.1-3.7c-0.2-0.1-0.4-0.3-0.6-0.5c-0.1-1-0.2-2.1-0.4-3.2
		c-0.1-0.5-0.3-1.1-0.5-1.6l-0.2-0.5c-0.2-0.8-1-1.4-1.8-1.5c-0.6-0.1-1.2-0.1-1.8-0.2c-1.1-0.1-2.1-0.2-3-0.4
		C103.2,85.9,103.1,85.8,103,85.8z M50.7,87.5h15.8l-0.5,36.1H49.9L50.7,87.5z"/>
</g>
</svg>
