<?xml version="1.0" encoding="utf-8"?>
<!-- Generator: Adobe Illustrator 28.0.0, SVG Export Plug-In . SVG Version: 6.00 Build 0)  -->
<svg version="1.1" id="Layer_1" xmlns="http://www.w3.org/2000/svg" xmlns:xlink="http://www.w3.org/1999/xlink" x="0px" y="0px"
	 viewBox="0 0 156 156" style="enable-background:new 0 0 156 156;" xml:space="preserve">
<style type="text/css">
	.st0{fill-rule:evenodd;clip-rule:evenodd;fill:#FF9415;}
</style>
<g>
	<path class="st0" d="M88.8,86.6L78,105.3L67,86.6h8V55.3h5.5v31.3H88.8L88.8,86.6z M153.8,143.6H1.7L77.9,12.2L153.8,143.6
		L153.8,143.6z M134.9,132.7l-57-98.5l-57.1,98.5H134.9L134.9,132.7z M112.7,110.3h-0.5h-0.3l-0.5,0.1h-0.3l-0.3,0.1h-0.5l-0.3,0.1
		l-0.2,0.1l-0.3,0.1L109,111l-0.3,0.1l-0.2,0.2l-0.2,0.1l-0.2,0.2l-0.3,0.2l-0.1,0.2l-0.2,0.2l-0.2,0.2l-0.2,0.2l-0.1,0.3l-0.1,0.2
		l-0.2,0.3l-0.1,0.3l-0.1,0.3l-0.1,0.3v0.3l-0.1,0.3l-0.1,0.5v0.3v0.5l-0.1,0.3v0.5v0.4v0.2v0.2v0.2l-0.1,0.2v0.2v0.2l-0.1,0.1
		l-0.1,0.2v0.2l-0.1,0.1l-0.1,0.2l-0.1,0.1l-0.1,0.1l-0.1,0.2l-0.1,0.1l-0.1,0.1l-0.1,0.1l-0.2,0.1l-0.1,0.1l-0.1,0.1h-0.2l-0.1,0.1
		l-0.2,0.1H103l-0.2,0.1h-0.2h-0.2l-0.2,0.1h-0.2h-0.2h-0.2h-0.2h-0.3h-0.2l-0.2-0.1h-0.2H100l-0.2-0.1h-0.2l-0.2-0.1l-0.1-0.1h-0.2
		l-0.1-0.1l-0.2-0.1l-0.1-0.1l-0.1-0.1l-0.1-0.1l-0.2-0.1l-0.1-0.2l-0.1-0.1v-0.1l-0.1-0.2l-0.1-0.1l-0.1-0.2v-0.2l-0.1-0.1v-0.2
		l-0.3-0.2v-0.2v-0.2v-0.2l-0.1-0.2v-0.3v-0.5v-0.3v-0.5l-0.1-0.3v-0.5l0-0.3l-0.1-0.3l-0.1-0.3l-0.1-0.3l-0.1-0.3l-0.1-0.3
		l-0.2-0.2l-0.1-0.3l-0.2-0.2l-0.2-0.2l-0.2-0.2l-0.2-0.2l-0.2-0.2l-0.3-0.2l-0.2-0.1l-0.3-0.2l-0.3-0.1l-0.2-0.1l-0.3-0.1l-0.5-0.1
		l-0.3-0.1h-0.3l-0.5-0.1h-0.3l-0.5-0.1h-0.5h-0.5h-0.5h-0.3l-0.5,0.1h-0.3l-0.5,0.1h-0.3l-0.3,0.1l-0.3,0.1l-0.2,0.1l-0.3,0.1
		l-0.3,0.1l-0.3,0.2l-0.2,0.1l-0.3,0.2l-0.2,0.2l-0.2,0.2l-0.2,0.2l-0.1,0.2l-0.2,0.2l-0.1,0.3l-0.2,0.2l-0.1,0.3l-0.1,0.3l-0.1,0.3
		l-0.1,0.3l-0.1,0.3v0.3l-0.1,0.5v0.3l-0.1,0.5v0.3v0.5v0.4v0.2v0.2v0.2l-0.1,0.2v0.2l-0.1,0.2v0.1l-0.1,0.2v0.2l-0.1,0.1l-0.1,0.2
		l-0.1,0.1l-0.1,0.1l-0.1,0.2l-0.1,0.1L81,121l-0.1,0.1l-0.2,0.1l-0.1,0.1l-0.2,0.1h-0.1l-0.2,0.1l-0.1,0.1h-0.2l-0.2,0.1h-0.2h-0.2
		l-0.2,0.1h-0.2h-0.2H78h-0.4h-0.2h-0.2l-0.2-0.1h-0.2h-0.2l-0.2-0.1h-0.1l-0.2-0.1l-0.2-0.1h-0.1l-0.2-0.1l-0.1-0.1l-0.1-0.1
		l-0.2-0.1l-0.1-0.1l-0.1-0.1l-0.1-0.2l-0.1-0.1l-0.1-0.1v-0.2l-0.1-0.1l-0.1-0.2l-0.1-0.2v-0.1v-0.2l-0.1-0.2v-0.2v-0.2l-0.1-0.2
		V118v-0.3v-0.5v-0.3v-0.5l-0.1-0.3v-0.5l-0.1-0.3l-0.1-0.3l-0.1-0.3l-0.2-0.4l-0.1-0.3l-0.2-0.3l-0.1-0.2l-0.2-0.3l-0.1-0.2
		l-0.2-0.2l-0.2-0.2l-0.2-0.2l-0.3-0.2l-0.2-0.2l-0.2-0.1l-0.3-0.2L70,111l-0.3-0.1l-0.3-0.1l-0.3-0.1l-0.3-0.1h-0.3l-0.5-0.1h-0.5
		l-0.3-0.1h-0.5H66h-0.5h-0.5l-0.3,0.1h-0.5l-0.3,0.1h-0.3l-0.3,0.1l-0.3,0.1l-0.3,0.1l-0.2,0.1l-0.3,0.1l-0.2,0.2l-0.3,0.1
		l-0.2,0.2l-0.2,0.2l-0.2,0.2l-0.2,0.2l-0.1,0.2l-0.2,0.2l-0.2,0.3l-0.1,0.2l-0.1,0.3l-0.1,0.3l-0.1,0.3l-0.1,0.3l-0.1,0.3l-0.1,0.3
		v0.5l-0.1,0.3v0.5v0.3v0.5v0.4v0.2v0.2l-0.1,0.2v0.2v0.2l-0.1,0.2v0.1l-0.1,0.2l-0.1,0.2v0.1l-0.1,0.2l-0.1,0.1l-0.1,0.1l-0.1,0.2
		l-0.1,0.1l-0.1,0.1l-0.2,0.1l-0.1,0.1l-0.1,0.1l-0.2,0.1h-0.1l-0.2,0.1l-0.2,0.1h-0.1l-0.2,0.1h-0.2h-0.2l-0.2,0.1h-0.2H55h-0.2
		h-0.3h-0.2h-0.2l-0.2-0.1h-0.2h-0.2l-0.2-0.1h-0.1l-0.2-0.1l-0.2-0.1h-0.3l-0.2-0.1l-0.1-0.1l-0.1-0.1l-0.2-0.1l-0.1-0.1l-0.1-0.1
		l-0.1-0.2l-0.1-0.1l-0.1-0.1l-0.1-0.2v-0.1l-0.1-0.2l-0.1-0.2v-0.1l-0.1-0.2v-0.2v-0.2l-0.1-0.2v-0.2V118v-0.3v-0.5v-0.3l-0.1-0.5
		V116l-0.1-0.5v-0.3l-0.1-0.3l-0.1-0.3l-0.1-0.3l-0.1-0.3l-0.2-0.3l-0.1-0.2l-0.2-0.3l-0.2-0.2l-0.1-0.2l-0.2-0.2l-0.3-0.2l-0.2-0.2
		l-0.2-0.2l-0.3-0.1l-0.2-0.2l-0.3-0.1l-0.3-0.1l-0.3-0.1l-0.3-0.1l-0.3-0.1h-0.5l-0.3-0.1h-0.5l-0.5-0.1h-0.6h-0.4h-0.3h-0.5
		l-0.3,0.1h-0.5l-0.3,0.1h-0.3l-0.3,0.1l-0.3,0.1l-0.3,0.1l-0.3,0.1l-0.2,0.1l-0.3,0.2l-0.2,0.1l-0.2,0.2l-0.2,0.1l-0.2,0.2
		l-0.2,0.2l-0.2,0.2l-0.1,0.2l-0.2,0.3l-0.1,0.2l-0.1,0.3l-0.2,0.2l-0.1,0.3v0.3l-0.1,0.3l-0.1,0.3v0.5l-0.1,0.3v0.5v0.3v0.5h3v-0.2
		l0.1-0.2v-0.2v-0.2v-0.2l0.1-0.2v-0.1v-0.2l0.1-0.2l0.1-0.1v-0.2l0.1-0.1l0.1-0.1l0.1-0.1l0.1-0.2l0.1-0.1l0.1-0.1l0.1-0.1l0.1-0.1
		h0.2l0.1-0.1l0.1-0.1h0.2l0.1-0.1l0.2-0.1h0.2h0.2l0.1-0.1h0.2H42h0.2h0.2h0.2H43h0.2l0.1,0.1h0.2l0.2,0.1h0.1l0.2,0.1l0.2,0.1
		l0.1,0.1l0.1,0.1l0.2,0.1l0.1,0.1l0.2,0.1l0.1,0.2l0.1,0.1l0.2,0.2l0.1,0.1l0.1,0.2l0.1,0.2l0.1,0.2l0.1,0.2l0.1,0.2l0.2,0.2
		l0.1,0.3v0.2l0.2,0.3v0.2l0.1,0.3l0.1,0.3l0.1,0.3l0.1,0.2v0.3l0.1,0.3l0.1,0.3l0.1,0.3l0.1,0.3l0.2,0.2l0.1,0.2l0.1,0.3l0.1,0.2
		l0.2,0.2l0.1,0.2l0.2,0.2l0.2,0.2l0.1,0.2l0.2,0.1l0.2,0.2l0.2,0.2l0.2,0.1l0.2,0.1l0.2,0.1L51,124l0.3,0.1l0.2,0.1l0.3,0.1
		l0.2,0.1l0.3,0.1h0.2h0.3l0.3,0.1h0.3H54h0.5H55h0.5h0.3l0.5-0.1h0.3l0.4,0l0.3-0.1l0.3-0.1l0.3-0.1l0.2-0.1l0.3-0.1l0.2-0.2
		l0.3-0.1l0.2-0.2l0.2-0.1l0.2-0.2l0.2-0.2l0.2-0.2l0.1-0.3l0.2-0.2l0.1-0.2l0.1-0.3l0.1-0.3l0.1-0.3l0.1-0.3l0.1-0.3l0.1-0.3v-0.3
		l0.1-0.3v-0.5v-0.5v-0.5v-0.2v-0.2v-0.2l0.1-0.2v-0.2l0.1-0.2v-0.1v-0.2l0.1-0.2l0.1-0.1l0.1-0.2v-0.1l0.1-0.2l0.1-0.1l0.1-0.1
		l0.1-0.1l0.1-0.1l0.2-0.1l0.1-0.1l0.1-0.1l0.2-0.1l0.1-0.1H64l0.2-0.1l0.1-0.1h0.2h0.2l0.2-0.1h0.2h0.2h0.2h0.3h0.2h0.2h0.3h0.2
		l0.2,0.1h0.2l0.2,0.1H68l0.1,0.1l0.2,0.1h0.2l0.1,0.1l0.2,0.1l0.1,0.1l0.1,0.1l0.2,0.1l0.1,0.2l0.1,0.1l0.1,0.1l0.1,0.2l0.1,0.1
		l0.1,0.2v0.1l0.1,0.2l0.1,0.2v0.2l0.1,0.2v0.2v0.2v0.2l0.1,0.3v0.2v0.5v0.3v0.5v0.3l0.1,0.3l0.1,0.3v0.3L71,121l0.2,0.3l0.1,0.2
		l0.1,0.3l0.1,0.2l0.2,0.2l0.2,0.2l0.1,0.2l0.2,0.2l0.2,0.2l0.2,0.2l0.3,0.1l0.2,0.2l0.3,0.1l0.2,0.1l0.3,0.2l0.3,0.1h0.3l0.3,0.1
		l0.3,0.1h0.5l0.3,0.1h0.5h0.5H78h0.3h0.5h0.5l0.3-0.1H80l0.3-0.1l0.3-0.1l0.3-0.1l0.3-0.1l0.3-0.1L82,124l0.3-0.2l0.2-0.1l0.2-0.2
		l0.2-0.1l0.2-0.2l0.2-0.2l0.2-0.2l0.1-0.3l0.2-0.2l0.1-0.2l0.2-0.3l0.1-0.3l0.1-0.3l0.1-0.3V120l0.1-0.3l0.1-0.3V119v-0.5V118v-0.5
		v-0.2l0.1-0.2v-0.2v-0.2v-0.2l0.1-0.2v-0.1l0.1-0.2v-0.2l0.1-0.1l0.1-0.2l0.1-0.1v-0.2l0.1-0.1l0.1-0.1l0.2-0.1l0.1-0.1l0.1-0.1
		l0.1-0.1l0.2-0.1l0.1-0.1l0.2-0.1h0.1l0.2-0.1l0.2-0.1h0.1h0.2l0.2-0.1h0.2h0.2h0.3h0.2h0.2h0.3h0.2h0.2l0.2,0.1h0.2l0.2,0.1h0.2
		l0.2,0.1l0.1,0.1h0.2l0.2,0.1l0.1,0.1l0.1,0.1l0.2,0.1l0.1,0.1l0.1,0.2l0.1,0.1l0.1,0.1l-0.2,0.2l0.1,0.1l0.1,0.2l0.1,0.1v0.2
		l0.1,0.2v0.2l0.1,0.2v0.2v0.2l0.1,0.2v0.3v0.2v0.5v0.3v0.5l0.1,0.3v0.3l0.1,0.3l0.1,0.3l0.1,0.3l0.1,0.3l0.1,0.2l0.1,0.3l0.2,0.2
		l0.1,0.2l0.2,0.2l0.2,0.2l0.2,0.2l0.2,0.2l0.2,0.2l0.2,0.1l0.2,0.2l0.3,0.1l0.3,0.1l0.2,0.2l0.3,0.1H98l0.3,0.1l0.5,0.1h0.3
		l0.5,0.1h0.3h0.5h0.5h0.5h0.3h0.5l0.3-0.1h0.3l0.5-0.1l0.3-0.1l0.2-0.1l0.3-0.1l0.3-0.1l0.2-0.1l0.3-0.2l0.2-0.1l0.2-0.2l0.2-0.1
		l0.3-0.2l0.1-0.2l0.2-0.2l0.2-0.3l0.1-0.2l0.1-0.2l0.2-0.3l0.1-0.3l0.1-0.3l0.1-0.3V120l0.1-0.3l0.1-0.3V119v-0.5l0.1-0.5v-0.5
		v-0.2v-0.2v-0.2v-0.2l0.1-0.2v-0.2V116l0.1-0.2l0.1-0.2v-0.1l0.1-0.2l0.1-0.1l0.1-0.2l0.1-0.1l0.1-0.1l0.1-0.1l0.1-0.1l0.1-0.1
		l0.1-0.1l0.2-0.1l0.1-0.1l0.2-0.1h0.2l0.1-0.1l0.2-0.1h0.2h0.2l0.2-0.1h0.2h0.2h0.2h0.2h0.3h0.2h0.2h0.2l0.2,0.1h0.2h0.2l0.2,0.1
		l0.2,0.1h0.2l0.1,0.1l0.2,0.1h0.1l0.2,0.1l0.1,0.1l0.1,0.1l0.1,0.1l0.2,0.2l0.1,0.1l0.1,0.1v0.1l0.1,0.2l0.1,0.1l0.1,0.2v0.2
		l0.1,0.1v0.2v0.2l0.1,0.2v0.2v0.2v0.2h3.2v-0.5v-0.3l-0.1-0.5v-0.3l-0.1-0.5l-0.1-0.3v-0.3l-0.1-0.3l-0.2-0.3l-0.1-0.2l-0.1-0.3
		l-0.1-0.2l-0.2-0.3l-0.2-0.2l-0.2-0.2L118,112l-0.2-0.2l-0.2-0.1l-0.2-0.2l-0.3-0.1l-0.3-0.2l-0.2-0.1l-0.3-0.1l-0.3-0.1l-0.3-0.1
		l-0.5-0.1h-0.3l-0.5-0.1h-0.3l-0.5-0.1L112.7,110.3l-0.5,0v0H112.7z"/>
</g>
</svg>
