<?xml version="1.0" encoding="utf-8"?>
<!-- Generator: Adobe Illustrator 28.0.0, SVG Export Plug-In . SVG Version: 6.00 Build 0)  -->
<svg version="1.1" id="Layer_1" xmlns="http://www.w3.org/2000/svg" xmlns:xlink="http://www.w3.org/1999/xlink" x="0px" y="0px"
	 viewBox="0 0 156 156" style="enable-background:new 0 0 156 156;" xml:space="preserve">
<style type="text/css">
	.st0{fill-rule:evenodd;clip-rule:evenodd;fill:#FF9415;}
	.st1{fill:#FF9415;}
</style>
<g>
	<path class="st0" d="M88.8,86.6L78,105.3L67,86.6h8V55.3h5.5v31.3H88.8L88.8,86.6z M153.8,143.6H1.7L77.9,12.2L153.8,143.6
		L153.8,143.6z M134.9,132.7l-57-98.5l-57.1,98.5H134.9L134.9,132.7z"/>
</g>
<g>
	<path class="st1" d="M100.3,124c-1.8,0-3.5-0.6-4.7-1.6c-1.5-1.2-2.3-2.9-2.3-5c0-1.1-0.4-2-1.2-2.7c-0.7-0.6-1.7-0.9-2.8-0.9
		c-2,0-4.1,1.1-4.1,3.6c0,4.3-3.6,6.6-7.1,6.6c-1.8,0-3.5-0.6-4.7-1.6c-1.5-1.2-2.3-2.9-2.3-5c0-2.6-2.1-3.6-4-3.6
		c-2,0-4.1,1.1-4.1,3.6c0,4.3-3.6,6.6-7.1,6.6c-1.8,0-3.5-0.6-4.7-1.6c-1.5-1.2-2.3-2.9-2.3-5c0-2.6-2.1-3.6-4-3.6
		c-2,0-4.1,1.1-4.1,3.6h-3c0-4.3,3.6-6.6,7.1-6.6c1.8,0,3.5,0.6,4.7,1.6c1.5,1.2,2.3,2.9,2.3,5c0,2.6,2.1,3.6,4,3.6
		c2,0,4.1-1.1,4.1-3.6c0-4.3,3.6-6.6,7.1-6.6c1.8,0,3.5,0.6,4.7,1.6c1.5,1.2,2.3,2.9,2.3,5c0,2.6,2.1,3.6,4,3.6c2,0,4.1-1.1,4.1-3.6
		c0-4.3,3.6-6.6,7.1-6.6c1.8,0,3.5,0.6,4.7,1.6c1.5,1.2,2.3,2.9,2.3,5c0,2.6,2.1,3.6,4,3.6c2,0,4.1-1.1,4.1-3.6
		c0-4.3,3.6-6.6,7.1-6.6c1.8,0,3.5,0.6,4.7,1.6c1.5,1.2,2.3,2.9,2.3,5h-3c0-2.6-2.1-3.6-4-3.6c-2,0-4.1,1.1-4.1,3.6
		C107.5,121.8,103.9,124,100.3,124z"/>
</g>
</svg>
