<?xml version="1.0" encoding="utf-8"?>
<!-- Generator: Adobe Illustrator 28.0.0, SVG Export Plug-In . SVG Version: 6.00 Build 0)  -->
<svg version="1.1" id="Layer_1" xmlns="http://www.w3.org/2000/svg" xmlns:xlink="http://www.w3.org/1999/xlink" x="0px" y="0px"
	 viewBox="0 0 156 156" style="enable-background:new 0 0 156 156;" xml:space="preserve">
<style type="text/css">
	.st0{fill-rule:evenodd;clip-rule:evenodd;fill:#FFFFFF;}
	.st1{fill:none;}
	.st2{fill-rule:evenodd;clip-rule:evenodd;fill:#FF9415;}
	.st3{fill:#FFFFFF;}
</style>
<g>
	<polygon class="st0" points="0,10.56 156,10.56 156,145.44 0,145.44 	"/>
	<polygon class="st0" points="1.49,12.04 154.09,12.04 154.09,143.77 1.49,143.77 	"/>
	<rect x="1.69" y="12.24" class="st1" width="152.19" height="131.32"/>
	<path class="st2" d="M88.76,86.64l-10.81,18.71L67.02,86.64h7.99V55.29h5.53v31.35H88.76L88.76,86.64z M153.84,143.6H1.69
		L77.95,12.24L153.84,143.6L153.84,143.6z M134.92,132.72L77.95,34.23l-57.1,98.49H134.92L134.92,132.72z M112.72,110.26h-0.47
		h-0.35l-0.47,0.11h-0.35l-0.35,0.12h-0.47l-0.35,0.12l-0.23,0.12l-0.35,0.12l-0.35,0.12l-0.35,0.11l-0.23,0.23l-0.23,0.12
		l-0.23,0.23l-0.35,0.23l-0.12,0.23l-0.23,0.23l-0.23,0.23l-0.23,0.23l-0.12,0.35l-0.12,0.23l-0.23,0.35l-0.12,0.35l-0.12,0.35
		l-0.12,0.35v0.33l-0.12,0.35l-0.12,0.47v0.35v0.47l-0.12,0.35v0.47V118v0.23v0.23v0.23l-0.12,0.23v0.23v0.23l-0.12,0.12l-0.12,0.23
		v0.23l-0.12,0.12l-0.12,0.23l-0.12,0.12l-0.12,0.12l-0.12,0.23l-0.12,0.12l-0.12,0.11l-0.12,0.12l-0.23,0.12l-0.12,0.12l-0.12,0.12
		h-0.23l-0.12,0.12l-0.23,0.11h-0.23l-0.23,0.12h-0.23h-0.23l-0.23,0.12h-0.23h-0.23h-0.23h-0.23h-0.35h-0.23l-0.23-0.12h-0.23
		h-0.12l-0.23-0.12h-0.23l-0.23-0.11l-0.12-0.12h-0.23l-0.12-0.12l-0.23-0.12l-0.12-0.12l-0.12-0.12l-0.12-0.11l-0.23-0.12
		l-0.12-0.23l-0.12-0.12v-0.12l-0.12-0.23l-0.12-0.12l-0.12-0.23v-0.25l-0.12-0.12v-0.23L97,118.92v-0.23v-0.23v-0.23l-0.12-0.23
		v-0.35v-0.47v-0.35v-0.47l-0.12-0.35v-0.47l-0.01-0.34l-0.12-0.35l-0.12-0.35l-0.12-0.35l-0.12-0.35l-0.1-0.34l-0.23-0.23
		l-0.12-0.35l-0.23-0.23l-0.23-0.23l-0.23-0.23l-0.23-0.23l-0.23-0.23l-0.35-0.23l-0.23-0.12l-0.35-0.23l-0.35-0.11l-0.23-0.12
		l-0.35-0.12l-0.47-0.12l-0.35-0.12h-0.35l-0.47-0.12h-0.35l-0.47-0.11h-0.47h-0.47h-0.47h-0.35l-0.47,0.11h-0.35l-0.47,0.12h-0.35
		l-0.35,0.12l-0.35,0.12l-0.23,0.12l-0.35,0.12l-0.35,0.11L85,111.31l-0.23,0.12l-0.35,0.23l-0.23,0.23l-0.23,0.23l-0.23,0.23
		l-0.12,0.23l-0.23,0.23l-0.12,0.35l-0.23,0.23l-0.12,0.35l-0.12,0.35l-0.12,0.35l-0.12,0.35l-0.11,0.34v0.35L82.29,116v0.35
		l-0.12,0.47v0.35v0.47V118v0.23v0.23v0.23l-0.12,0.23v0.23l-0.12,0.23v0.1l-0.12,0.23v0.23l-0.12,0.12l-0.12,0.23l-0.12,0.12
		l-0.12,0.12l-0.12,0.23l-0.12,0.12l-0.12,0.11l-0.12,0.12l-0.23,0.12l-0.12,0.12l-0.23,0.12h-0.12l-0.23,0.12l-0.12,0.11h-0.23
		l-0.23,0.12h-0.18h-0.23l-0.23,0.12h-0.23h-0.23h-0.23H77.6h-0.23h-0.23l-0.23-0.12h-0.23h-0.23l-0.23-0.12h-0.12l-0.23-0.11
		l-0.23-0.12h-0.12l-0.23-0.12l-0.12-0.12l-0.12-0.12l-0.23-0.12l-0.12-0.11l-0.12-0.13l-0.12-0.23l-0.12-0.12l-0.12-0.12v-0.23
		l-0.12-0.12l-0.12-0.23l-0.1-0.22v-0.12v-0.23l-0.12-0.23v-0.23v-0.23l-0.12-0.23v-0.23v-0.35v-0.47v-0.35v-0.47l-0.12-0.35v-0.47
		l-0.1-0.34l-0.12-0.35l-0.12-0.35L73,114.12l-0.12-0.35l-0.23-0.35l-0.12-0.23l-0.23-0.35l-0.12-0.23l-0.23-0.23l-0.23-0.23
		l-0.23-0.23l-0.35-0.23l-0.23-0.23l-0.23-0.12l-0.35-0.23l-0.35-0.11l-0.35-0.12l-0.35-0.12l-0.35-0.12l-0.35-0.12h-0.35
		l-0.47-0.12h-0.47l-0.35-0.11h-0.47h-0.47h-0.47h-0.47l-0.35,0.11h-0.47l-0.35,0.12h-0.35l-0.35,0.12l-0.35,0.12l-0.34,0.14
		l-0.23,0.12l-0.35,0.11l-0.23,0.23l-0.35,0.12l-0.23,0.23l-0.23,0.23l-0.23,0.23l-0.23,0.23l-0.12,0.23l-0.23,0.23l-0.23,0.35
		l-0.12,0.23l-0.12,0.35l-0.12,0.35l-0.12,0.35l-0.12,0.35l-0.1,0.34l-0.12,0.35V116l-0.12,0.35v0.47v0.35v0.47V118v0.23v0.23
		l-0.12,0.23v0.23v0.23l-0.12,0.23v0.1l-0.12,0.23l-0.12,0.23v0.12l-0.12,0.23l-0.12,0.12l-0.12,0.12l-0.12,0.23l-0.12,0.12
		l-0.12,0.11l-0.23,0.12l-0.12,0.12l-0.12,0.12l-0.23,0.12h-0.12l-0.23,0.12l-0.23,0.11h-0.07l-0.23,0.12h-0.23h-0.23l-0.23,0.12
		h-0.23h-0.23h-0.24h-0.35h-0.23h-0.23l-0.23-0.12h-0.24h-0.23l-0.23-0.12h-0.12l-0.23-0.11l-0.23-0.12H52.1l-0.23-0.12l-0.12-0.12
		l-0.12-0.12l-0.23-0.12l-0.12-0.11l-0.12-0.12l-0.12-0.23l-0.12-0.12l-0.12-0.12l-0.12-0.23v-0.12l-0.12-0.23l-0.09-0.23v-0.12
		l-0.12-0.23v-0.23v-0.23l-0.12-0.23v-0.23v-0.23v-0.35v-0.47v-0.35l-0.12-0.47v-0.35l-0.12-0.47v-0.34l-0.12-0.35l-0.12-0.35
		l-0.12-0.35l-0.12-0.35l-0.23-0.35l-0.12-0.23l-0.23-0.35l-0.23-0.23l-0.12-0.23l-0.23-0.23l-0.35-0.23l-0.23-0.23l-0.23-0.23
		l-0.35-0.12l-0.23-0.23l-0.35-0.11l-0.35-0.12l-0.35-0.12l-0.35-0.12l-0.35-0.12h-0.47l-0.35-0.12h-0.47l-0.47-0.11H42.9h-0.44
		h-0.35h-0.47l-0.35,0.11h-0.48l-0.35,0.12h-0.35l-0.35,0.12l-0.35,0.12l-0.35,0.12l-0.35,0.12l-0.23,0.11l-0.35,0.23l-0.23,0.12
		l-0.23,0.23l-0.23,0.12l-0.23,0.23l-0.23,0.23l-0.23,0.23l-0.12,0.23l-0.23,0.35l-0.12,0.23l-0.12,0.35l-0.23,0.23l-0.12,0.35v0.35
		l-0.12,0.35l-0.12,0.35v0.47l-0.12,0.35v0.47v0.35v0.47h3.05v-0.23l0.12-0.23v-0.23v-0.23v-0.23l0.12-0.23v-0.12v-0.23l0.12-0.23
		l0.12-0.12v-0.23l0.12-0.11l0.12-0.12l0.12-0.12l0.12-0.23l0.12-0.12l0.12-0.11l0.12-0.12l0.12-0.12h0.23l0.12-0.12l0.12-0.12h0.23
		l0.12-0.12l0.23-0.11h0.23h0.23l0.12-0.12h0.23h0.23h0.23h0.23h0.23h0.23h0.23l0.12,0.12h0.23l0.23,0.11h0.12l0.23,0.12l0.23,0.12
		l0.12,0.12l0.12,0.12l0.23,0.12l0.12,0.11l0.23,0.12l0.12,0.23l0.12,0.12l0.23,0.23l0.12,0.12l0.12,0.23l0.12,0.23l0.12,0.23
		l0.12,0.23l0.12,0.23l0.23,0.23l0.12,0.35v0.23l0.23,0.35v0.23l0.12,0.35l0.12,0.35l0.12,0.35l0.12,0.23v0.35l0.12,0.35l0.12,0.35
		l0.12,0.35l0.12,0.35l0.23,0.23l0.12,0.23l0.12,0.35l0.12,0.23l0.23,0.23l0.12,0.23l0.23,0.23l0.23,0.23l0.12,0.23l0.23,0.12
		l0.23,0.23l0.23,0.23l0.23,0.11l0.23,0.12l0.23,0.12l0.23,0.12l0.35,0.12l0.23,0.11l0.35,0.12l0.23,0.12l0.35,0.12h0.23h0.35
		l0.35,0.12h0.35h0.23h0.47H55h0.47h0.35l0.47-0.12h0.35L57,124.6l0.35-0.12l0.35-0.12l0.35-0.11l0.23-0.12l0.35-0.12l0.23-0.23
		l0.35-0.11l0.23-0.23l0.23-0.12l0.23-0.23l0.23-0.23l0.23-0.23l0.12-0.35l0.23-0.23l0.12-0.23l0.12-0.35l0.12-0.35l0.12-0.35
		l0.12-0.35l0.12-0.35l0.12-0.35v-0.35l0.12-0.35v-0.47v-0.47v-0.47v-0.23v-0.23v-0.23l0.12-0.23v-0.23l0.12-0.23v-0.12v-0.23
		l0.12-0.23l0.12-0.12l0.12-0.23v-0.12l0.12-0.23l0.12-0.12l0.12-0.12l0.12-0.12l0.12-0.12l0.23-0.11l0.12-0.12l0.12-0.12l0.23-0.12
		l0.12-0.12H64l0.23-0.12l0.12-0.11h0.23h0.23l0.23-0.12h0.23h0.23h0.23h0.35h0.23h0.23h0.35h0.23l0.23,0.12h0.23l0.23,0.11h0.23
		l0.12,0.12l0.23,0.12h0.23l0.12,0.12l0.23,0.12l0.12,0.12l0.12,0.11l0.23,0.12l0.12,0.23l0.12,0.12l0.12,0.12l0.12,0.23l0.12,0.12
		l0.12,0.23v0.11l0.12,0.23l0.12,0.23v0.23l0.12,0.23v0.23v0.23v0.23l0.12,0.35v0.23v0.47v0.35v0.47v0.34l0.12,0.35l0.12,0.35v0.35
		l0.12,0.35l0.23,0.35l0.12,0.23l0.12,0.35l0.12,0.23l0.23,0.23l0.23,0.23l0.12,0.23l0.23,0.23l0.23,0.23l0.23,0.23l0.35,0.12
		l0.23,0.23l0.35,0.12l0.23,0.12l0.35,0.23l0.35,0.12h0.35l0.35,0.12l0.35,0.12h0.47l0.35,0.12h0.47h0.47h0.47h0.35h0.47h0.47
		l0.35-0.12h0.35l0.35-0.12l0.35-0.12l0.35-0.12l0.35-0.11l0.35-0.12l0.23-0.12l0.35-0.23l0.23-0.11l0.23-0.23l0.23-0.12l0.23-0.23
		l0.23-0.23l0.23-0.23l0.12-0.35l0.23-0.23l0.12-0.23l0.23-0.35l0.12-0.35l0.12-0.35l0.12-0.35v-0.35l0.12-0.35l0.12-0.35v-0.35
		v-0.47v-0.47v-0.47v-0.23l0.12-0.23v-0.23v-0.23v-0.23l0.12-0.23v-0.12l0.12-0.23v-0.23l0.12-0.12l0.12-0.23l0.12-0.12v-0.23
		l0.12-0.12l0.12-0.12l0.23-0.12l0.12-0.12l0.12-0.11l0.12-0.12l0.23-0.12l0.12-0.12l0.23-0.12h0.12l0.23-0.12l0.23-0.11h0.12h0.23
		l0.23-0.12h0.23h0.23h0.35h0.23h0.23h0.35h0.23h0.23l0.23,0.12h0.23l0.23,0.11h0.23l0.23,0.12l0.12,0.12h0.23l0.23,0.12l0.12,0.12
		l0.12,0.12l0.23,0.11l0.12,0.12l0.12,0.23l0.12,0.12l0.12,0.12l-0.16,0.25l0.12,0.12l0.12,0.23l0.12,0.11v0.23l0.12,0.23v0.23
		l0.12,0.23v0.23v0.23l0.12,0.23v0.35v0.23v0.47v0.35v0.47l0.12,0.35v0.35l0.12,0.35l0.12,0.35l0.12,0.35l0.12,0.35l0.12,0.23
		l0.12,0.35l0.23,0.23l0.12,0.23l0.23,0.23l0.23,0.23l0.23,0.23l0.23,0.23l0.23,0.23l0.23,0.12l0.23,0.23l0.35,0.12l0.35,0.12
		l0.23,0.23l0.35,0.12h0.35l0.35,0.12l0.47,0.12h0.35l0.47,0.12h0.35h0.47h0.47h0.47h0.35h0.47l0.35-0.12h0.35l0.47-0.12l0.35-0.12
		l0.23-0.12l0.35-0.11l0.35-0.12l0.23-0.12l0.35-0.23l0.23-0.11l0.23-0.23l0.23-0.12l0.35-0.23l0.12-0.23l0.23-0.23l0.23-0.35
		l0.12-0.23l0.12-0.23l0.23-0.35l0.12-0.35l0.12-0.35l0.12-0.35v-0.35l0.12-0.35l0.12-0.35v-0.35v-0.47l0.12-0.47v-0.47v-0.23v-0.23
		v-0.23v-0.23l0.12-0.23v-0.23V116l0.12-0.23l0.12-0.23v-0.12l0.12-0.23l0.12-0.12l0.12-0.23l0.12-0.12l0.12-0.12l0.12-0.12
		l0.12-0.12l0.12-0.11l0.12-0.12l0.23-0.12l0.12-0.12l0.23-0.12h0.23l0.12-0.12l0.23-0.11h0.23h0.23l0.23-0.12h0.23h0.23h0.23h0.23
		h0.35h0.23h0.23h0.23l0.23,0.12h0.23h0.23l0.23,0.11l0.23,0.12h0.23l0.12,0.12l0.23,0.12h0.12l0.23,0.12l0.12,0.12l0.12,0.11
		l0.12,0.12l0.23,0.23l0.12,0.12l0.12,0.12v0.11l0.12,0.23l0.12,0.12l0.12,0.23v0.23l0.12,0.12v0.23v0.23l0.12,0.23v0.23v0.23v0.23
		h3.17v-0.47v-0.35l-0.12-0.47v-0.35l-0.12-0.47l-0.12-0.35v-0.35l-0.12-0.35l-0.23-0.35l-0.12-0.23l-0.12-0.35l-0.12-0.23
		l-0.23-0.35l-0.23-0.23l-0.23-0.23l-0.23-0.23l-0.23-0.23l-0.23-0.12l-0.23-0.23l-0.35-0.12l-0.35-0.23l-0.23-0.11l-0.35-0.12
		l-0.35-0.12l-0.35-0.12l-0.47-0.12h-0.35l-0.47-0.12h-0.35l-0.47-0.11h-0.47h-0.59V110.26z"/>
	<rect x="1.69" y="12.24" class="st1" width="152.19" height="131.32"/>
	<path class="st3" d="M153.94,143.66H1.6l0.05-0.09l76.3-131.45L78,12.21L153.94,143.66z M1.8,143.54h151.94L77.95,12.36L1.8,143.54
		z M135.02,132.78H20.74l0.05-0.09l57.15-98.58L78,34.21L135.02,132.78z M20.95,132.66h113.87L77.95,34.35L20.95,132.66z
		 M102.63,124.83h-2.59l-0.48-0.12h-0.34l-0.48-0.12l-0.35-0.11h-0.35l-0.38-0.13l-0.22-0.22l-0.72-0.24l-0.22-0.22l-0.24-0.13
		l-1.18-1.18l-0.11-0.22l-0.24-0.25l-0.12-0.35l-0.11-0.22l-0.48-1.43v-0.34l-0.12-0.36v-1.86l-0.11-0.25v-0.45l-0.12-0.25v-0.22
		l-0.11-0.25v-0.21l-0.11-0.12l-0.11-0.22l-0.12-0.13l-0.11-0.22l-0.24-0.24l-0.11-0.22l-0.1-0.1l-0.22-0.11l-0.24-0.23l-0.22-0.11
		h-0.24l-0.13-0.13l-0.22-0.1l-0.25-0.01l-0.22-0.11l-0.24-0.01l-0.22-0.11H88.3l-0.25,0.11h-0.34l-0.48,0.23h-0.1l-0.21,0.1
		l-0.13,0.12l-0.22,0.11l-0.35,0.35l-0.24,0.12l-0.21,0.21v0.23l-0.13,0.13l-0.12,0.24l-0.1,0.1l-0.01,0.23l-0.11,0.22l-0.01,0.13
		l-0.11,0.22l-0.01,0.71l-0.11,0.22v1.99l-0.23,0.69v0.35l-0.35,1.05l-0.24,0.36l-0.12,0.24l-0.22,0.22l-0.13,0.36l-0.73,0.72
		l-0.22,0.11l-0.24,0.24l-0.23,0.11l-0.35,0.23l-0.24,0.12l-1.79,0.6H79.6l-0.36,0.11h-2.72l-0.35-0.11h-0.48l-0.7-0.23h-0.36
		l-0.35-0.11l-0.36-0.24l-0.23-0.11l-0.36-0.13l-0.22-0.22l-0.36-0.13l-0.72-0.72l-0.11-0.22l-0.48-0.48l-0.12-0.23l-0.12-0.35
		l-0.11-0.22l-0.23-0.35l-0.13-0.38v-0.34l-0.22-0.71v-1.86l-0.12-0.36v-0.68l-0.12-0.25v-0.22l-0.23-0.48v-0.1l-0.1-0.21
		l-0.12-0.13l-0.11-0.22l-0.24-0.24l-0.11-0.22l-0.23-0.11l-0.22-0.22l-0.24-0.12l-0.1-0.1l-0.23-0.01l-0.25-0.13l-0.1-0.1
		l-0.23-0.01l-0.22-0.11l-0.25-0.01l-0.22-0.11h-2.08l-0.25,0.11h-0.45l-0.11,0.11l-0.26,0.12h-0.21l-0.11,0.11l-0.22,0.11
		l-0.24,0.23l-0.22,0.11l-0.46,0.45l-0.1,0.22l-0.01,0.13l-0.13,0.25l-0.11,0.11l-0.1,0.22l-0.01,0.36l-0.11,0.22l-0.01,0.25
		l-0.11,0.22v2.11l-0.11,0.35v0.35l-0.71,2.1l-0.13,0.26l-0.22,0.22l-0.13,0.36l-0.72,0.72l-0.22,0.11l-0.25,0.24l-0.34,0.11
		l-0.25,0.24l-0.35,0.11L58,124.23l-1.44,0.48h-0.35l-0.46,0.11H53.5h-0.01l-0.35-0.11h-0.6l-0.35-0.11l-0.24-0.12l-0.35-0.11
		l-0.24-0.12l-0.35-0.11l-0.96-0.48l-0.47-0.47l-0.24-0.12l-0.12-0.24l-0.48-0.48l-0.11-0.22l-0.24-0.24l-0.11-0.23l-0.12-0.35
		l-0.1-0.22l-0.24-0.25l-0.48-1.42v-0.34l-0.11-0.22l-0.35-1.09v-0.22l-0.23-0.35v-0.24l-0.11-0.33l-0.23-0.24l-0.58-1.16
		l-0.48-0.48l-0.11-0.22l-0.23-0.11l-0.11-0.11l-0.24-0.12l-0.23-0.22l-0.45-0.22l-0.13-0.01l-0.22-0.11h-0.24l-0.02-0.02l-0.1-0.1
		h-1.6l-0.12,0.11h-0.48l-0.22,0.11l-0.13,0.13h-0.23l-0.23,0.23h-0.23l-0.45,0.44l-0.12,0.24l-0.34,0.34v0.23l-0.13,0.13l-0.1,0.22
		l-0.01,0.36l-0.11,0.22l-0.01,0.72l-0.11,0.22v0.28h-3.17v-1.37l0.11-0.35v-0.48l0.23-0.7v-0.35l0.13-0.37l0.22-0.22l0.11-0.34
		l0.12-0.24l0.24-0.35l0.13-0.24l0.72-0.71l0.22-0.11l0.24-0.24l0.23-0.11l0.35-0.23l0.24-0.12l1.44-0.48h0.35l0.36-0.11h0.46
		l0.36-0.12h1.76l0.48,0.12h0.47h0.01l0.35,0.11h0.48l1.79,0.6l0.22,0.22l0.36,0.13l0.47,0.47l0.35,0.22l0.26,0.26l0.11,0.22
		l0.22,0.22l0.24,0.36l0.12,0.24l0.23,0.35l0.48,1.44v0.35l0.11,0.46v0.36l0.12,0.45v1.63l0.11,0.25v0.45l0.12,0.25v0.1l0.23,0.48
		v0.1l0.1,0.22l0.23,0.22l0.13,0.24l0.22,0.22l0.24,0.12l0.22,0.22l0.22,0.1l0.13,0.01l0.46,0.22l0.13,0.01l0.22,0.11l0.48,0.01
		l0.22,0.11h1.5l0.25-0.12h0.46l0.25-0.11h0.1l0.48-0.23h0.1l0.22-0.1l0.24-0.24l0.22-0.11l0.22-0.22l0.12-0.24l0.23-0.22l0.1-0.22
		l0.01-0.13l0.23-0.46l0.01-0.13l0.11-0.22l0.01-0.48l0.11-0.22v-2.11l0.11-0.35v-0.48l0.71-2.1l0.12-0.24l0.24-0.35l0.23-0.23
		l0.12-0.24l0.97-0.95l0.34-0.11l0.25-0.24l0.35-0.11l0.22-0.11l1.08-0.35h0.35l0.36-0.11h0.46l0.36-0.12h1.9l0.35,0.11h0.46
		l0.48,0.12h0.35h0.01l1.76,0.59l0.37,0.24l0.24,0.12l0.23,0.23l0.35,0.22l0.73,0.73l0.12,0.23l0.23,0.35l0.12,0.24l0.23,0.35
		l0.6,1.78v0.46l0.12,0.36v1.86l0.12,0.25v0.46l0.12,0.24v0.34l0.22,0.45l0.13,0.13v0.23l0.23,0.23l0.11,0.22l0.22,0.22l0.24,0.12
		l0.22,0.22l0.22,0.1l0.13,0.01l0.46,0.22l0.13,0.01l0.22,0.11l0.48,0.01l0.22,0.11h1.5l0.25-0.12h0.46l0.25-0.11h0.21l0.11-0.11
		l0.26-0.13h0.1l0.22-0.1l0.12-0.12l0.23-0.12l0.34-0.34l0.12-0.24l0.22-0.22l0.13-0.24l0.1-0.1l0.01-0.24l0.11-0.22l0.01-0.13
		l0.11-0.22l0.01-0.24l0.11-0.22v-1.86l0.12-0.48v-0.34l0.12-0.48v-0.35v-0.01l0.6-1.78l0.22-0.22l0.13-0.36l0.22-0.22l0.12-0.24
		l0.71-0.7l0.36-0.24l0.23-0.11l0.25-0.24l0.71-0.23l0.22-0.11l0.73-0.24h0.35l0.46-0.11h0.36l0.46-0.11h1.78l0.48,0.12h0.34
		l0.48,0.12h0.35H92l0.35,0.11l0.47,0.12l0.35,0.11l0.24,0.12l0.34,0.11l0.37,0.24l0.22,0.11l0.35,0.24l1.2,1.2l0.11,0.34l0.24,0.25
		l0.71,2.12v0.46l0.11,0.36v1.63l0.12,0.24v0.69l0.11,0.24v0.21l0.12,0.11v0.24l0.1,0.22l0.12,0.13l0.12,0.26v0.1l0.11,0.12
		l0.1,0.22l0.22,0.11l0.36,0.35l0.24,0.12l0.1,0.1h0.23l0.13,0.13l0.22,0.1l0.24,0.01l0.22,0.11l0.36,0.01l0.22,0.11h1.5l0.25-0.12
		h0.46l0.25-0.11h0.22l0.22-0.1l0.13-0.13h0.23l0.23-0.22l0.23-0.12l0.34-0.34l0.12-0.24l0.22-0.22l0.13-0.24l0.1-0.1l0.01-0.24
		l0.13-0.25l0.1-0.1l0.01-0.47l0.11-0.22v-1.52l0.11-0.35v-0.8l0.12-0.48l0.11-0.35v-0.35l0.35-1.05l0.24-0.36l0.11-0.22l0.13-0.37
		l0.7-0.69l0.13-0.25l0.35-0.23l0.24-0.24l0.22-0.11l0.25-0.24l1.05-0.35l0.22-0.11l0.38-0.12h0.46l0.36-0.11h0.35l0.46-0.11h1.77
		l0.48,0.12h0.34l0.48,0.12h0.34l0.48,0.12l1.06,0.35l0.24,0.12l0.35,0.24l0.36,0.12l0.22,0.22l0.24,0.12l0.94,0.93l0.24,0.36
		l0.12,0.24l0.12,0.35l0.11,0.22l0.23,0.35l0.13,0.38v0.35l0.11,0.35l0.12,0.47v0.36l0.11,0.46v0.89h-3.29v-0.74l-0.12-0.25v-0.44
		l-0.11-0.12v-0.24l-0.11-0.22l-0.12-0.12l-0.13-0.26V115l-0.8-0.8l-0.22-0.1l-0.13-0.01l-0.25-0.13l-0.1-0.1l-0.23-0.01l-0.46-0.22
		l-0.48-0.01l-0.22-0.11h-1.97l-0.25,0.11h-0.46l-0.22,0.11l-0.13,0.13h-0.24l-0.22,0.1l-0.13,0.12l-0.22,0.11l-0.69,0.68
		l-0.12,0.24l-0.11,0.11l-0.1,0.22l-0.01,0.13l-0.22,0.46l-0.01,0.36l-0.11,0.22v1.39l-0.12,0.48v0.82v0.01l-0.23,0.69v0.35
		l-0.35,1.05l-0.24,0.36l-0.23,0.47l-0.24,0.35l-0.23,0.24l-0.13,0.25l-0.35,0.23l-0.23,0.11l-0.24,0.24l-0.23,0.11l-0.35,0.23
		l-0.24,0.12l-0.71,0.24l-0.22,0.11l-0.36,0.12l-0.48,0.11h-0.35L102.63,124.83z M99.56,124.6l0.48,0.12h2.56l0.36-0.11h0.35
		l0.46-0.11l0.35-0.12l0.22-0.11l0.71-0.24l0.22-0.11l0.35-0.23l0.23-0.11l0.24-0.24l0.23-0.11l0.34-0.22l0.12-0.24l0.23-0.23
		l0.22-0.34l0.23-0.46l0.24-0.35l0.35-1.03v-0.35l0.23-0.69v-0.81l0.12-0.48v-1.4l0.12-0.23l0.01-0.36l0.22-0.46l0.01-0.13
		l0.13-0.25l0.11-0.11l0.12-0.24l0.73-0.71l0.22-0.11l0.13-0.12l0.26-0.12h0.21l0.11-0.11l0.26-0.13h0.46l0.25-0.11l2.02,0.01
		l0.22,0.11l0.48,0.01l0.46,0.22h0.24l0.13,0.13l0.22,0.11l0.13,0.01l0.25,0.13l0.84,0.84v0.13l0.11,0.22l0.12,0.12l0.13,0.26v0.21
		l0.11,0.12v0.48l0.12,0.25v0.64h3.05v-0.76l-0.11-0.46v-0.36l-0.11-0.45l-0.12-0.36v-0.35l-0.11-0.35l-0.22-0.34l-0.12-0.24
		l-0.12-0.35l-0.11-0.22l-0.23-0.35l-0.93-0.92l-0.24-0.12l-0.22-0.22l-0.34-0.11l-0.36-0.24l-0.22-0.11l-1.05-0.35l-0.47-0.11H115
		l-0.48-0.12h-0.34l-0.48-0.12h-1.75l-0.46,0.11h-0.35l-0.36,0.11h-0.46l-0.35,0.11l-0.22,0.11l-1.05,0.35l-0.24,0.23l-0.22,0.11
		l-0.22,0.22l-0.35,0.22l-0.12,0.24l-0.69,0.69l-0.11,0.34l-0.12,0.24l-0.24,0.35l-0.35,1.03v0.35l-0.11,0.35l-0.12,0.47v0.81v0.01
		l-0.11,0.35l-0.01,1.54l-0.11,0.22v0.48l-0.13,0.13l-0.11,0.22V120l-0.13,0.13l-0.13,0.24l-0.22,0.22l-0.12,0.24l-0.35,0.35
		l-0.24,0.13l-0.24,0.24h-0.23l-0.11,0.11l-0.26,0.12h-0.22l-0.25,0.11h-0.46l-0.25,0.12l-1.56-0.01l-0.22-0.11l-0.36-0.01
		l-0.22-0.11l-0.24-0.01l-0.25-0.13l-0.1-0.1h-0.23l-0.13-0.13l-0.24-0.12l-0.35-0.35l-0.23-0.12l-0.01-0.02l-0.11-0.22l-0.13-0.13
		v-0.13l-0.1-0.22l-0.12-0.13l-0.12-0.26v-0.21l-0.12-0.11v-0.24l-0.11-0.24v-0.69l-0.12-0.24v-1.63l-0.11-0.36v-0.46l-0.73-2.08
		l-0.24-0.25l-0.11-0.34l-1.17-1.16l-0.34-0.22l-0.22-0.11l-0.36-0.24l-0.34-0.11l-0.24-0.12l-0.35-0.11l-0.47-0.12l-0.35-0.11
		h-0.35l-0.48-0.12h-0.34l-0.48-0.12h-1.75l-0.46,0.11H87.7l-0.46,0.11h-0.35l-0.7,0.23l-0.22,0.11l-0.7,0.23l-0.24,0.23l-0.23,0.11
		l-0.35,0.23l-0.68,0.68l-0.12,0.24l-0.22,0.22l-0.13,0.36l-0.23,0.25l-0.58,1.73v0.34L82.35,116v0.34l-0.12,0.48v1.88l-0.12,0.23
		l-0.01,0.24l-0.11,0.22l-0.01,0.13l-0.11,0.22V120l-0.13,0.13l-0.1,0.24l-0.22,0.22l-0.12,0.24l-0.35,0.35l-0.24,0.13l-0.13,0.12
		l-0.26,0.12h-0.1l-0.22,0.11l-0.13,0.13h-0.24l-0.25,0.11H78.9l-0.25,0.12l-1.56-0.01l-0.22-0.11l-0.48-0.01l-0.22-0.11l-0.13-0.01
		l-0.46-0.22l-0.13-0.01l-0.25-0.13l-0.23-0.22l-0.24-0.12l-0.25-0.25l-0.11-0.22l-0.24-0.24v-0.23L74,120.01l-0.22-0.51v-0.34
		l-0.12-0.24v-0.46l-0.12-0.25v-1.86l-0.12-0.36v-0.46l-0.59-1.75l-0.22-0.34l-0.12-0.24l-0.23-0.35l-0.11-0.22l-0.7-0.7l-0.35-0.22
		l-0.24-0.23l-0.22-0.11l-0.35-0.24l-1.74-0.58h-0.35l-0.48-0.12h-0.47l-0.35-0.12h-1.85l-0.36,0.12h-0.46l-0.36,0.11H63.5
		l-1.05,0.35L62.23,111l-0.35,0.11l-0.25,0.24l-0.34,0.11l-0.93,0.92l-0.12,0.24l-0.23,0.23l-0.22,0.34l-0.12,0.26l-0.7,2.09v0.48
		l-0.11,0.35l-0.01,2.12l-0.11,0.22l-0.01,0.48l-0.11,0.22l-0.01,0.13L58.37,120l-0.01,0.13l-0.11,0.24l-0.22,0.22l-0.12,0.24
		l-0.25,0.24l-0.22,0.11l-0.24,0.24l-0.26,0.12h-0.1l-0.48,0.23h-0.1l-0.25,0.11h-0.47l-0.25,0.12l-1.56-0.01l-0.22-0.11L53,121.89
		l-0.22-0.11l-0.13-0.01l-0.46-0.22l-0.13-0.01l-0.25-0.13l-0.23-0.22l-0.24-0.12l-0.23-0.23l-0.13-0.24l-0.23-0.24l-0.12-0.26v-0.1
		l-0.22-0.48v-0.1l-0.12-0.25v-0.45l-0.11-0.25v-1.63l-0.12-0.45V116l-0.11-0.46v-0.35l-0.47-1.39l-0.23-0.35l-0.12-0.24l-0.23-0.35
		l-0.24-0.24l-0.11-0.22l-0.22-0.22l-0.35-0.22l-0.47-0.47l-0.36-0.13l-0.22-0.22l-1.74-0.58h-0.48l-0.35-0.11h-0.46l-0.48-0.12
		h-1.74l-0.36,0.12h-0.46l-0.36,0.11h-0.35l-1.4,0.47l-0.22,0.11l-0.35,0.23l-0.23,0.11l-0.25,0.25l-0.22,0.11l-0.69,0.68
		l-0.11,0.22l-0.24,0.35l-0.11,0.22l-0.13,0.37l-0.22,0.22l-0.11,0.33v0.35l-0.23,0.7v0.48l-0.11,0.35v1.22h2.94l0.01-0.21
		l0.11-0.22l0.01-0.71l0.11-0.22l0.01-0.36l0.13-0.25l0.1-0.1v-0.23l0.36-0.36l0.12-0.24l0.48-0.48h0.23l0.23-0.23h0.23l0.11-0.11
		l0.26-0.13h0.45l0.12-0.11h1.69l0.02,0.02l0.1,0.1l0.23,0.01l0.22,0.11l0.13,0.01l0.48,0.24l0.22,0.22l0.24,0.12l0.11,0.11
		l0.24,0.12l0.12,0.24l0.48,0.48l0.58,1.16l0.24,0.25l0.12,0.37v0.22l0.23,0.35v0.24l0.35,1.05l0.12,0.25v0.34l0.47,1.38l0.23,0.24
		l0.11,0.23l0.12,0.35l0.1,0.22l0.24,0.24l0.11,0.22l0.48,0.48l0.1,0.22l0.23,0.11l0.47,0.47l0.93,0.47l0.35,0.11l0.24,0.12
		l0.35,0.11l0.24,0.12l0.34,0.11h0.6l0.35,0.11h2.22l0.46-0.11h0.35l1.4-0.47l0.22-0.11l0.35-0.11l0.25-0.24l0.34-0.11l0.24-0.23
		l0.22-0.11l0.69-0.68l0.13-0.36l0.22-0.22l0.11-0.22l0.7-2.09v-0.35l0.11-0.35l0.01-2.13l0.11-0.22l0.01-0.24l0.11-0.22l0.01-0.36
		l0.13-0.25l0.11-0.11l0.1-0.22l0.01-0.13l0.13-0.25l0.48-0.48l0.22-0.11l0.24-0.23l0.22-0.11l0.13-0.13h0.24l0.22-0.1l0.13-0.13
		h0.48l0.25-0.11l2.14,0.01l0.22,0.11l0.25,0.01l0.22,0.11h0.24l0.02,0.02l0.11,0.11l0.22,0.1h0.24l0.13,0.13l0.24,0.12l0.23,0.22
		l0.24,0.12l0.12,0.24l0.24,0.24l0.11,0.22l0.12,0.13l0.12,0.26v0.1l0.23,0.48v0.22l0.12,0.25v0.69l0.12,0.36v1.86l0.23,0.72v0.34
		l0.11,0.35l0.22,0.34l0.12,0.23l0.12,0.36l0.11,0.22l0.48,0.48l0.11,0.22l0.69,0.68l0.36,0.13l0.22,0.22l0.34,0.11l0.24,0.12
		l0.36,0.24l0.33,0.1h0.36l0.69,0.23h0.48l0.35,0.11h2.68l0.36-0.11h0.34l1.76-0.58l0.22-0.11l0.35-0.23l0.23-0.11l0.24-0.24
		l0.22-0.11l0.68-0.68l0.13-0.36l0.22-0.22l0.11-0.22l0.24-0.35l0.35-1.03v-0.35l0.23-0.69l0.01-2.01l0.11-0.22l0.01-0.72l0.11-0.22
		l0.01-0.13l0.11-0.22v-0.24l0.13-0.13l0.12-0.24l0.1-0.1v-0.23l0.27-0.26l0.23-0.11l0.35-0.35l0.22-0.11l0.13-0.12l0.26-0.12h0.1
		l0.48-0.23h0.34l0.25-0.11l2.14,0.01l0.22,0.11l0.25,0.01l0.22,0.11l0.24,0.01l0.25,0.13l0.1,0.1l0.24,0.01l0.25,0.13l0.23,0.23
		l0.23,0.12l0.13,0.13l0.11,0.22l0.24,0.24l0.11,0.22l0.12,0.13l0.11,0.22l0.13,0.13v0.24l0.11,0.25v0.22l0.12,0.25v0.45l0.11,0.25
		v1.86l0.12,0.36v0.34l0.47,1.4l0.11,0.22l0.12,0.35l0.23,0.24l0.11,0.22l1.16,1.15l0.24,0.13l0.22,0.22l0.72,0.24l0.22,0.22
		l0.34,0.11h0.35l0.35,0.12l0.47,0.11L99.56,124.6z M77.95,105.47l-0.05-0.09L66.92,86.58h8.03V55.23h5.65v31.34h8.27l-0.05,0.09
		L77.95,105.47z M67.12,86.7l10.83,18.54L88.66,86.7h-8.18V55.35h-5.4V86.7H67.12z"/>
	<polygon class="st1" points="0.43,145.01 155.57,145.01 155.57,10.99 0.43,10.99 	"/>
</g>
</svg>
