<?xml version="1.0" encoding="utf-8"?>
<!-- Generator: Adobe Illustrator 28.0.0, SVG Export Plug-In . SVG Version: 6.00 Build 0)  -->
<svg version="1.1" id="Layer_1" xmlns="http://www.w3.org/2000/svg" xmlns:xlink="http://www.w3.org/1999/xlink" x="0px" y="0px"
	 viewBox="0 0 156 156" style="enable-background:new 0 0 156 156;" xml:space="preserve">
<style type="text/css">
	.st0{fill-rule:evenodd;clip-rule:evenodd;fill:#FFFFFF;}
	.st1{fill-rule:evenodd;clip-rule:evenodd;fill:#FF9900;}
	.st2{fill:#FF9900;}
	.st3{font-family:'MyriadPro-Regular';}
	.st4{font-size:39.3325px;}
	.st5{fill:none;}
</style>
<g>
	<polygon class="st0" points="0,10.33 156,10.33 156,145.67 0,145.67 	"/>
	<polygon class="st0" points="0.82,11.73 152.62,11.73 152.62,142.31 0.82,142.31 	"/>
	<path class="st1" d="M152.43,142.11H1.02l75.7-130.19L152.43,142.11L152.43,142.11L152.43,142.11z M133.38,132.62L76.72,34.08
		l-56.67,98.54H133.38L133.38,132.62L133.38,132.62z"/>
	
		<rect x="74.06" y="71.99" transform="matrix(0.7072 -0.707 0.707 0.7072 -49.4316 83.8521)" class="st2" width="4.92" height="59.23"/>
	
		<rect x="46.91" y="99.14" transform="matrix(0.7075 -0.7068 0.7068 0.7075 -49.4198 83.8118)" class="st2" width="59.24" height="4.92"/>
	<text transform="matrix(0.9998 0 0 1 58.7119 116.8477)" class="st2 st3 st4">W</text>
	<polygon class="st5" points="0.43,145.24 155.57,145.24 155.57,10.76 0.43,10.76 	"/>
</g>
</svg>
