<?xml version="1.0" encoding="utf-8"?>
<!-- Generator: Adobe Illustrator 28.0.0, SVG Export Plug-In . SVG Version: 6.00 Build 0)  -->
<svg version="1.1" id="Layer_1" xmlns="http://www.w3.org/2000/svg" xmlns:xlink="http://www.w3.org/1999/xlink" x="0px" y="0px"
	 viewBox="0 0 156 156" style="enable-background:new 0 0 156 156;" xml:space="preserve">
<style type="text/css">
	.st0{fill-rule:evenodd;clip-rule:evenodd;fill:#FFFFFF;}
	.st1{fill:#FF9900;}
	.st2{enable-background:new    ;}
	.st3{font-family:'MyriadPro-Regular';}
	.st4{font-size:36.0575px;}
	.st5{letter-spacing:1;}
	.st6{fill:none;}
</style>
<g>
	<polygon class="st0" points="0,23.66 156,23.66 156,132.34 0,132.34 	"/>
	<polygon class="st0" points="2.39,25.23 149.58,25.23 149.58,125.96 2.39,125.96 	"/>
	<path class="st1" d="M149.19,125.57H2.79V34.64h146.4V125.57z M10.23,118.11h131.5V42.09H10.23V118.11z"/>
	<g class="st2">
		<text transform="matrix(1.0015 0 0 1 55.4531 71.5684)" class="st1 st3 st4 st5">8</text>
	</g>
	<g class="st2">
		<text transform="matrix(1.0015 0 0 1 75.457 71.5684)" class="st1 st3 st4">0</text>
	</g>
	<g class="st2">
		<text transform="matrix(1.0015 0 0 1 35.4463 114.6914)" class="st1 st3 st4 st5">178</text>
	</g>
	<g class="st2">
		<text transform="matrix(1.0015 0 0 1 95.4639 114.6914)" class="st1 st3 st4">9</text>
	</g>
	<rect x="6.51" y="76.18" class="st1" width="139.08" height="7.45"/>
	<polygon class="st6" points="0.47,131.87 155.53,131.87 155.53,24.13 0.47,24.13 	"/>
</g>
</svg>
