<?xml version="1.0" encoding="utf-8"?>
<!-- Generator: Adobe Illustrator 28.0.0, SVG Export Plug-In . SVG Version: 6.00 Build 0)  -->
<svg version="1.1" id="Layer_1" xmlns="http://www.w3.org/2000/svg" xmlns:xlink="http://www.w3.org/1999/xlink" x="0px" y="0px"
	 viewBox="0 0 156 156" style="enable-background:new 0 0 156 156;" xml:space="preserve">
<style type="text/css">
	.st0{fill:#0000FF;}
	.st1{fill-rule:evenodd;clip-rule:evenodd;fill:#0000FF;}
	.st2{font-family:'MyriadPro-Regular';}
	.st3{font-size:27.6817px;}
	.st4{letter-spacing:2;}
</style>
<g>
	<rect x="39.3" y="41.1" class="st0" width="7.9" height="91.4"/>
	<path class="st1" d="M28.4,137.8c0-7.9,6.7-14.4,14.9-14.4l0,0l0,0c8.2,0,14.9,6.4,14.9,14.4l0,0l0,0c0,7.9-6.7,14.4-14.9,14.4l0,0
		l0,0C35.1,152.2,28.4,145.7,28.4,137.8L28.4,137.8L28.4,137.8z"/>
	<path class="st0" d="M43.3,152.7c-8.5,0-15.4-6.7-15.4-14.9s6.9-14.9,15.4-14.9s15.4,6.7,15.4,14.9C58.7,146,51.8,152.7,43.3,152.7
		z M43.3,123.9c-8,0-14.5,6.2-14.5,13.9c0,7.7,6.5,13.9,14.5,13.9s14.5-6.2,14.5-13.9C57.8,130.1,51.3,123.9,43.3,123.9z"/>
	<path class="st0" d="M80.5,81c-22.7,0-41.2-17.9-41.2-39.9S57.8,1.1,80.5,1.1s41.2,17.9,41.2,39.9S103.3,81,80.5,81z M80.5,9
		c-18.4,0-33.3,14.4-33.3,32s15,32,33.3,32s33.3-14.4,33.3-32C113.9,23.4,98.9,9,80.5,9z"/>
	<text transform="matrix(0.999 0 0 1 50.6455 51.3076)" class="st0 st2 st3">G</text>
	<text transform="matrix(0.999 0 0 1 72.1138 51.3076)" class="st0 st2 st3 st4">F</text>
	<text transform="matrix(0.999 0 0 1 89.0068 51.3076)" class="st0 st2 st3">O</text>
</g>
</svg>
