<?xml version="1.0" encoding="utf-8"?>
<!-- Generator: Adobe Illustrator 28.0.0, SVG Export Plug-In . SVG Version: 6.00 Build 0)  -->
<svg version="1.1" id="Layer_1" xmlns="http://www.w3.org/2000/svg" xmlns:xlink="http://www.w3.org/1999/xlink" x="0px" y="0px"
	 viewBox="0 0 156 156" style="enable-background:new 0 0 156 156;" xml:space="preserve">
<style type="text/css">
	.st0{fill-rule:evenodd;clip-rule:evenodd;fill:#FFFFFF;}
	.st1{fill:#0000FF;}
	.st2{fill-rule:evenodd;clip-rule:evenodd;fill:#0000FF;}
	.st3{font-family:'MyriadPro-Regular';}
	.st4{font-size:27.6817px;}
	.st5{letter-spacing:3;}
	.st6{fill:none;}
</style>
<g>
	<polygon class="st0" points="27.4,0 128.6,0 128.6,156 27.4,156 27.4,0 	"/>
	<polygon class="st0" points="27.75,0.96 127.3,0.96 127.3,152.82 27.75,152.82 27.75,0.96 	"/>
	<rect x="39.28" y="41.14" class="st1" width="7.91" height="91.43"/>
	<path class="st2" d="M28.38,137.79c0-7.95,6.69-14.39,14.93-14.39l0,0l0,0c8.25,0,14.93,6.44,14.93,14.39l0,0l0,0
		c0,7.95-6.69,14.39-14.93,14.39l0,0l0,0C35.07,152.18,28.38,145.74,28.38,137.79L28.38,137.79L28.38,137.79z"/>
	<path class="st1" d="M43.32,152.66c-8.5,0-15.41-6.67-15.41-14.87c0-8.2,6.91-14.87,15.41-14.87s15.41,6.67,15.41,14.87
		C58.72,145.99,51.81,152.66,43.32,152.66z M43.32,123.87c-7.97,0-14.46,6.24-14.46,13.92c0,7.68,6.49,13.92,14.46,13.92
		s14.46-6.24,14.46-13.92C57.77,130.11,51.29,123.87,43.32,123.87z"/>
	<path class="st1" d="M80.53,81c-22.74,0-41.25-17.92-41.25-39.94c0-22.02,18.5-39.94,41.25-39.94s41.25,17.92,41.25,39.94
		C121.78,63.08,103.27,81,80.53,81z M80.53,9.03c-18.38,0-33.34,14.37-33.34,32.03c0,17.66,14.96,32.03,33.34,32.03
		c18.38,0,33.34-14.37,33.34-32.03C113.87,23.4,98.91,9.03,80.53,9.03z"/>
	<text transform="matrix(0.999 0 0 1 50.6453 51.3076)" class="st1 st3 st4">G</text>
	<text transform="matrix(0.999 0 0 1 72.114 51.3076)"><tspan x="0" y="0" class="st1 st3 st4 st5">F</tspan><tspan x="16.91" y="0" class="st1 st3 st4">O</tspan></text>
	<polygon class="st6" points="27.89,155.51 128.11,155.51 128.11,0.49 27.89,0.49 27.89,155.51 	"/>
</g>
</svg>
