<?xml version="1.0" encoding="utf-8"?>
<!-- Generator: Adobe Illustrator 28.0.0, SVG Export Plug-In . SVG Version: 6.00 Build 0)  -->
<svg version="1.1" id="Layer_1" xmlns="http://www.w3.org/2000/svg" xmlns:xlink="http://www.w3.org/1999/xlink" x="0px" y="0px"
	 viewBox="0 0 156 156" style="enable-background:new 0 0 156 156;" xml:space="preserve">
<style type="text/css">
	.st0{fill-rule:evenodd;clip-rule:evenodd;fill:#FFFFFF;}
	.st1{fill:#0000FF;}
	.st2{fill:none;}
</style>
<g>
	<polygon class="st0" points="38.51,0 117.49,0 117.49,156 38.51,156 38.51,0 	"/>
	<polygon class="st0" points="38.99,0.92 115.15,0.92 115.15,154 38.99,154 38.99,0.92 	"/>
	<path class="st1" d="M77.07,153.89c-20.94,0-37.97-16.99-37.97-37.86c0-20.88,17.03-37.86,37.97-37.86
		c20.94,0,37.97,16.99,37.97,37.86C115.05,136.9,98.01,153.89,77.07,153.89z M77.07,87.39c-15.85,0-28.75,12.85-28.75,28.64
		s12.9,28.64,28.75,28.64s28.75-12.84,28.75-28.64S92.93,87.39,77.07,87.39z"/>
	
		<rect x="35.34" y="36.83" transform="matrix(1.742537e-03 -1 1 1.742537e-03 34.1211 117.0616)" class="st1" width="80.71" height="9.22"/>
	<rect x="71.92" y="1.14" class="st1" width="28.54" height="9.22"/>
	<polygon class="st2" points="39,155.51 117,155.51 117,0.49 39,0.49 39,155.51 	"/>
</g>
</svg>
