<?xml version="1.0" encoding="utf-8"?>
<!-- Generator: Adobe Illustrator 28.0.0, SVG Export Plug-In . SVG Version: 6.00 Build 0)  -->
<svg version="1.1" id="Layer_1" xmlns="http://www.w3.org/2000/svg" xmlns:xlink="http://www.w3.org/1999/xlink" x="0px" y="0px"
	 viewBox="0 0 156 156" style="enable-background:new 0 0 156 156;" xml:space="preserve">
<style type="text/css">
	.st0{fill:#0000FF;}
</style>
<g>
	<path class="st0" d="M77.1,152.5c-31,0-56.3-25.2-56.3-56.1s25.3-56.1,56.3-56.1c31.1,0,56.3,25.2,56.3,56.1
		C133.4,127.3,108.2,152.5,77.1,152.5z M77.1,54c-23.5,0-42.6,19-42.6,42.4s19.1,42.4,42.6,42.4c23.5,0,42.6-19,42.6-42.4
		C119.8,73.1,100.6,54,77.1,54z"/>
	
		<rect x="41.3" y="23.8" transform="matrix(0.4884 -0.8726 0.8726 0.4884 10.2926 75.2574)" class="st0" width="56.1" height="10.1"/>
	
		<rect x="75.9" y="19.5" transform="matrix(0.4743 -0.8804 0.8804 0.4743 30.5476 100.2154)" class="st0" width="46.5" height="10.1"/>
</g>
</svg>
