<?xml version="1.0" encoding="utf-8"?>
<!-- Generator: Adobe Illustrator 28.0.0, SVG Export Plug-In . SVG Version: 6.00 Build 0)  -->
<svg version="1.1" id="Layer_1" xmlns="http://www.w3.org/2000/svg" xmlns:xlink="http://www.w3.org/1999/xlink" x="0px" y="0px"
	 viewBox="0 0 156 156" style="enable-background:new 0 0 156 156;" xml:space="preserve">
<style type="text/css">
	.st0{fill:#0000FF;}
</style>
<path class="st0" d="M80.2,78.3l0.1-68h20.1V1.1H80.4l0,0l-9.2,0L71,78.7C52.9,81.6,39.1,97.2,39.1,116c0,20.9,17,37.9,38,37.9
	s38-17,38-37.9C115,96.2,99.7,79.9,80.2,78.3z M77.1,144.7c-15.8,0-28.8-12.8-28.8-28.6c0-15.8,12.9-28.6,28.8-28.6
	c15.9,0,28.8,12.8,28.8,28.6C105.8,131.8,92.9,144.7,77.1,144.7z"/>
</svg>
