<?xml version="1.0" encoding="utf-8"?>
<!-- Generator: Adobe Illustrator 28.0.0, SVG Export Plug-In . SVG Version: 6.00 Build 0)  -->
<svg version="1.1" id="Layer_1" xmlns="http://www.w3.org/2000/svg" xmlns:xlink="http://www.w3.org/1999/xlink" x="0px" y="0px"
	 viewBox="0 0 156 156" style="enable-background:new 0 0 156 156;" xml:space="preserve">
<style type="text/css">
	.st0{fill-rule:evenodd;clip-rule:evenodd;fill:#FFFFFF;}
	.st1{fill:#0000FF;}
	.st2{fill:none;}
</style>
<g>
	<polygon class="st0" points="19.41,0 136.59,0 136.59,156 19.41,156 19.41,0 	"/>
	<polygon class="st0" points="20.64,1.56 133.6,1.56 133.6,152.67 20.64,152.67 20.64,1.56 	"/>
	<path class="st1" d="M77.12,152.51c-31.05,0-56.32-25.16-56.32-56.08c0-30.92,25.27-56.08,56.32-56.08
		c31.06,0,56.33,25.16,56.33,56.08C133.45,127.35,108.18,152.51,77.12,152.51z M77.12,54.02c-23.51,0-42.64,19.02-42.64,42.4
		c0,23.38,19.13,42.4,42.64,42.4c23.51-0.01,42.64-19.02,42.64-42.4C119.77,73.05,100.63,54.02,77.12,54.02z"/>
	
		<rect x="41.29" y="23.78" transform="matrix(0.4884 -0.8726 0.8726 0.4884 10.2962 75.2534)" class="st1" width="56.07" height="10.14"/>
	
		<rect x="75.92" y="19.47" transform="matrix(0.4743 -0.8804 0.8804 0.4743 30.5365 100.2131)" class="st1" width="46.53" height="10.14"/>
	<polygon class="st2" points="20.15,155.25 135.85,155.25 135.85,0.75 20.15,0.75 20.15,155.25 	"/>
</g>
</svg>
