<?xml version="1.0" encoding="utf-8"?>
<!-- Generator: Adobe Illustrator 28.0.0, SVG Export Plug-In . SVG Version: 6.00 Build 0)  -->
<svg version="1.1" id="Layer_1" xmlns="http://www.w3.org/2000/svg" xmlns:xlink="http://www.w3.org/1999/xlink" x="0px" y="0px"
	 viewBox="0 0 156 156" style="enable-background:new 0 0 156 156;" xml:space="preserve">
<style type="text/css">
	.st0{fill-rule:evenodd;clip-rule:evenodd;fill:#FFFFFF;}
	.st1{fill:#0000FF;}
	.st2{fill-rule:evenodd;clip-rule:evenodd;fill:#0000FF;}
	.st3{fill:none;}
</style>
<g>
	<polygon class="st0" points="0,23.4 156,23.4 156,132.6 0,132.6 	"/>
	<polygon class="st0" points="2.95,25.84 148.66,25.84 148.66,123.22 2.95,123.22 	"/>
	<path class="st1" d="M148.16,122.72H3.45V26.33h144.7L148.16,122.72L148.16,122.72z M14.76,111.41h122.09V37.65H14.76V111.41z"/>
	<polygon class="st2" points="11.82,71.09 141.27,71.09 141.27,78.46 11.82,78.46 	"/>
	<polygon class="st2" points="41.35,41.58 76.79,55.66 41.35,67.65 	"/>
	<polygon class="st2" points="109.77,41.58 74.82,55.66 109.77,67.65 	"/>
	<polygon class="st3" points="0.48,132.13 155.52,132.13 155.52,23.88 0.48,23.88 	"/>
</g>
</svg>
