<?xml version="1.0" encoding="utf-8"?>
<!-- Generator: Adobe Illustrator 28.0.0, SVG Export Plug-In . SVG Version: 6.00 Build 0)  -->
<svg version="1.1" id="Layer_1" xmlns="http://www.w3.org/2000/svg" xmlns:xlink="http://www.w3.org/1999/xlink" x="0px" y="0px"
	 viewBox="0 0 156 156" style="enable-background:new 0 0 156 156;" xml:space="preserve">
<style type="text/css">
	.st0{fill-rule:evenodd;clip-rule:evenodd;fill:#FFFFFF;}
	.st1{fill-rule:evenodd;clip-rule:evenodd;fill:#FF0000;}
	.st2{fill:#FF0000;}
	.st3{fill:none;}
</style>
<g>
	<polygon class="st0" points="0,0 156,0 156,156 0,156 0,0 	"/>
	<polygon class="st0" points="0.54,0.54 154.69,0.54 154.69,154.69 0.54,154.69 0.54,0.54 	"/>
	<path class="st1" d="M145.3,125.88c-14.93,4.85-34.55-14.36-43.82-42.9s-4.67-55.62,10.26-60.46l0,0l0,0
		c-6.35,31.3,7.24,76.17,30.34,100.22C143.14,123.84,144.22,124.89,145.3,125.88L145.3,125.88z"/>
	<path class="st1" d="M10.45,125.67c13.31,4.52,31.91-14.86,41.56-43.28c9.65-28.42,6.68-55.12-6.63-59.64l0,0l0,0
		c6.05,25.91-4.99,67.2-24.66,92.22C17.39,119.21,13.93,122.81,10.45,125.67L10.45,125.67z"/>
	<polygon class="st1" points="48.4,22.99 65.93,22.88 65.76,76.64 48.4,76.64 48.4,22.99 48.4,22.99 	"/>
	<polygon class="st1" points="89.9,22.74 106.7,22.74 106.7,76.37 89.9,76.37 89.9,22.74 	"/>
	<polygon class="st1" points="97.62,22.85 111.83,22.51 111.2,25.6 97.73,25.6 97.62,22.85 97.62,22.85 	"/>
	<polygon class="st1" points="45.31,22.78 59.28,23.02 59.24,25.28 46.69,25.23 45.31,22.78 45.31,22.78 	"/>
	<path class="st1" d="M65.98,22.91c-5.32,0.84-6.86,19.24-3.43,41.1c3.43,21.86,10.53,38.91,15.85,38.08l0,0l0,0
		C70.95,78.39,66.14,47.75,65.98,22.91L65.98,22.91z"/>
	<path class="st1" d="M76.92,101.83c5.32,0.87,12.52-16.13,16.09-37.98c3.57-21.84,2.15-40.25-3.17-41.12l0,0l0,0
		C90.42,46.73,85.11,79.26,76.92,101.83L76.92,101.83z"/>
	<path class="st1" d="M84.13,76.55c0,11.86-2.72,21.48-6.08,21.48c-3.36,0-6.08-9.62-6.08-21.48l0,0l0,0
		c2.52,11.86,7.29,14.27,10.65,5.37C83.19,80.39,83.7,78.58,84.13,76.55L84.13,76.55z"/>
	<path class="st1" d="M17.75,133.62c0-24.48,26.89-44.32,60.07-44.32s60.07,19.84,60.07,44.32l0,0l0,0
		c-16.2-24.48-56.22-34.63-89.4-22.68C35.11,115.76,24.29,123.75,17.75,133.62L17.75,133.62z"/>
	<polygon class="st1" points="17.86,121.04 23.05,126.68 18.23,131.11 13.04,125.47 17.86,121.04 	"/>
	<path class="st1" d="M17.42,133.97c-2.57-2.54-4.75-5.47-7.32-8.02l3.32-2.98l9.64,3.94L17.42,133.97L17.42,133.97L17.42,133.97z"
		/>
	<path class="st1" d="M137.87,133.46c2.65-2.34,4.81-5.23,7.46-7.57l-3.73-3.56l-9.71,2.89L137.87,133.46L137.87,133.46
		L137.87,133.46z"/>
	<path class="st1" d="M107.43,100.57c-0.15-8.58-2.01-17.12-2.16-25.7H88.14l-4.28,23.8L107.43,100.57L107.43,100.57L107.43,100.57z
		"/>
	<path class="st1" d="M70.97,100.57c-0.16-8.58-2.2-17.12-2.36-25.7H49.9l-4.68,23.8L70.97,100.57L70.97,100.57L70.97,100.57z"/>
	<path class="st2" d="M154.65,154.65H0.59V0.58h154.06V154.65z M6.63,148.61H148.6V6.62H6.63V148.61z"/>
	<polygon class="st3" points="0.49,155.51 155.51,155.51 155.51,0.49 0.49,0.49 0.49,155.51 	"/>
</g>
</svg>
