<?xml version="1.0" encoding="utf-8"?>
<!-- Generator: Adobe Illustrator 28.0.0, SVG Export Plug-In . SVG Version: 6.00 Build 0)  -->
<svg version="1.1" id="Layer_1" xmlns="http://www.w3.org/2000/svg" xmlns:xlink="http://www.w3.org/1999/xlink" x="0px" y="0px"
	 viewBox="0 0 156 156" width="156px" height="156px"  style="enable-background:new 0 0 156 156;" xml:space="preserve">
<style type="text/css">
	.st0{fill:#FF0000;}
</style>
<path class="st0" d="M17.4,134l5.4-6.8c6.5-6.9,15.3-12.5,25.5-16.2c33.2-12,73.2-1.8,89.4,22.7c0-0.1,0-0.1,0-0.2
	c2.6-2.3,4.8-5.2,7.4-7.6l-2.1-2.2c-0.3-0.3-0.6-0.6-0.9-0.9c-22.4-23.3-35.8-66-30.9-97.1l0.6-3.1l-9.6,0.2H89.9c0,0,0,0-0.1,0
	c0.4,16.9-2.1,38.1-6.5,57c-0.2,0.8-0.5,1.5-0.7,2.2c-3.4,8.9-8.1,6.5-10.7-5.4c0,0.1,0,0.2,0,0.3c-3.7-18-5.9-37.3-6-53.9
	c0,0,0,0-0.1,0L55,23.1l-9.6-0.2h-0.1h-0.1l0.1,0.2c5.9,25.9-5.1,67-24.7,92c-2.3,2.9-4.7,5.6-7.2,7.9l0,0l-2.8,2.5
	c-0.1,0.1-0.2,0.2-0.3,0.3c0,0,0,0,0,0l-0.2,0.2C12.6,128.5,14.8,131.5,17.4,134z"/>
<path class="st0" d="M0.6,0.6v154h154h0.1V0.6H0.6z M148.6,148.6H6.6V6.6h142V148.6z"/>
</svg>
