<?xml version="1.0" encoding="utf-8"?>
<!-- Generator: Adobe Illustrator 28.0.0, SVG Export Plug-In . SVG Version: 6.00 Build 0)  -->
<svg version="1.1" id="Layer_1" xmlns="http://www.w3.org/2000/svg" xmlns:xlink="http://www.w3.org/1999/xlink" x="0px" y="0px"
	 viewBox="0 0 156 156" width="156px" height="156px"  style="enable-background:new 0 0 156 156;" xml:space="preserve">
<style type="text/css">
	.st0{fill:#0000FF;}
	.st1{fill-rule:evenodd;clip-rule:evenodd;fill:#0000FF;}
</style>
<g>
	<path class="st0" d="M123.5,148.2H27.1V2.9h96.4C123.5,2.9,123.5,148.2,123.5,148.2z M38.5,136.8h73.7V14.3H38.4
		C38.4,14.3,38.4,136.8,38.5,136.8z"/>
	<rect x="35.7" y="79" class="st0" width="77.6" height="7.4"/>
	<rect x="36.2" y="61.7" class="st0" width="77.6" height="7.4"/>
	<path class="st1" d="M45.3,106.4c0-2.6,2.1-4.7,4.7-4.7l0,0l0,0c2.6,0,4.7,2.1,4.7,4.7l0,0l0,0c0,2.6-2.1,4.7-4.7,4.7l0,0l0,0
		C47.4,111.1,45.3,109,45.3,106.4L45.3,106.4L45.3,106.4z"/>
	<path class="st0" d="M50,111.6c-2.8,0-5.2-2.3-5.2-5.2s2.3-5.2,5.2-5.2c2.8,0,5.2,2.3,5.2,5.2S52.8,111.6,50,111.6z M50,102.2
		c-2.3,0-4.2,1.9-4.2,4.2c0,2.3,1.9,4.2,4.2,4.2c2.3,0,4.2-1.9,4.2-4.2C54.2,104.1,52.3,102.2,50,102.2z"/>
	<path class="st1" d="M97.4,106.4c0-2.6,2.1-4.7,4.7-4.7l0,0l0,0c2.6,0,4.7,2.1,4.7,4.7l0,0l0,0c0,2.6-2.1,4.7-4.7,4.7l0,0l0,0
		C99.5,111.1,97.4,109,97.4,106.4L97.4,106.4L97.4,106.4z"/>
	<path class="st0" d="M102.1,111.6c-2.8,0-5.2-2.3-5.2-5.2s2.3-5.2,5.2-5.2s5.2,2.3,5.2,5.2C107.3,109.3,104.9,111.6,102.1,111.6z
		 M102.1,102.2c-2.3,0-4.2,1.9-4.2,4.2c0,2.3,1.9,4.2,4.2,4.2s4.2-1.9,4.2-4.2C106.3,104.1,104.4,102.2,102.1,102.2z"/>
	<path class="st0" d="M75.8,133.3c-0.7,0-1.3-0.3-1.7-0.9l-15.7-23.7c-0.4-0.6-0.4-1.4-0.1-2c0.3-0.6,1-1,1.7-1h31.5
		c0.7,0,1.4,0.4,1.7,1s0.3,1.4-0.1,2l-15.7,23.7C77.1,133,76.5,133.3,75.8,133.3z M63.7,109.6l12,18.2l12.1-18.2H63.7z"/>
	<rect x="51.9" y="86.9" transform="matrix(0.8101 -0.5863 0.5863 0.8101 -45.354 49.5963)" class="st0" width="4" height="15.9"/>
	
		<rect x="89.4" y="92.7" transform="matrix(0.5972 -0.8021 0.8021 0.5972 -36.7636 116.0461)" class="st0" width="15.6" height="4"/>
	
		<rect x="57.1" y="98.5" transform="matrix(0.9999 -1.370008e-02 1.370008e-02 0.9999 -1.3698 1.0465)" class="st0" width="37.2" height="3.9"/>
</g>
</svg>
