<?xml version="1.0" encoding="utf-8"?>
<!-- Generator: Adobe Illustrator 28.0.0, SVG Export Plug-In . SVG Version: 6.00 Build 0)  -->
<svg version="1.1" id="Layer_1" xmlns="http://www.w3.org/2000/svg" xmlns:xlink="http://www.w3.org/1999/xlink" x="0px" y="0px"
	 viewBox="0 0 156 156" style="enable-background:new 0 0 156 156;" xml:space="preserve">
<style type="text/css">
	.st0{fill-rule:evenodd;clip-rule:evenodd;fill:#FFFFFF;}
	.st1{fill:#0000FF;}
	.st2{fill-rule:evenodd;clip-rule:evenodd;fill:#0000FF;}
	.st3{fill:none;}
</style>
<g>
	<polygon class="st0" points="23.71,0 132.29,0 132.29,156 23.71,156 23.71,0 	"/>
	<polygon class="st0" points="26.62,2.43 123.98,2.43 123.98,148.66 26.62,148.66 26.62,2.43 	"/>
	<path class="st1" d="M123.51,148.16H27.09V2.93h96.42V148.16z M38.45,136.8h73.7V14.29h-73.7V136.8z"/>
	<rect x="35.72" y="79" class="st1" width="77.59" height="7.41"/>
	<rect x="36.21" y="61.72" class="st1" width="77.59" height="7.41"/>
	<path class="st2" d="M45.31,106.42c0-2.59,2.09-4.69,4.67-4.69l0,0l0,0c2.58,0,4.67,2.1,4.67,4.69l0,0l0,0
		c0,2.59-2.09,4.69-4.67,4.69l0,0l0,0C47.4,111.11,45.31,109.01,45.31,106.42L45.31,106.42L45.31,106.42z"/>
	<path class="st1" d="M49.98,111.61c-2.85,0-5.16-2.33-5.16-5.19c0-2.86,2.32-5.19,5.16-5.19c2.85,0,5.17,2.33,5.17,5.19
		C55.15,109.28,52.83,111.61,49.98,111.61z M49.98,102.22c-2.3,0-4.18,1.89-4.18,4.2c0,2.32,1.87,4.2,4.18,4.2
		c2.3,0,4.18-1.88,4.18-4.2C54.16,104.11,52.28,102.22,49.98,102.22z"/>
	<path class="st2" d="M97.43,106.42c0-2.59,2.09-4.69,4.67-4.69l0,0l0,0c2.58,0,4.67,2.1,4.67,4.69l0,0l0,0
		c0,2.59-2.09,4.69-4.67,4.69l0,0l0,0C99.52,111.11,97.43,109.01,97.43,106.42L97.43,106.42L97.43,106.42z"/>
	<path class="st1" d="M102.1,111.61c-2.85,0-5.17-2.33-5.17-5.19c0-2.86,2.32-5.19,5.17-5.19c2.85,0,5.16,2.33,5.16,5.19
		C107.26,109.28,104.95,111.61,102.1,111.61z M102.1,102.22c-2.3,0-4.18,1.89-4.18,4.2c0,2.32,1.88,4.2,4.18,4.2s4.18-1.88,4.18-4.2
		C106.27,104.11,104.4,102.22,102.1,102.22z"/>
	<path class="st1" d="M75.79,133.34c-0.66,0-1.28-0.33-1.65-0.88l-15.73-23.71c-0.4-0.61-0.44-1.39-0.09-2.03
		c0.34-0.64,1.01-1.04,1.74-1.04h31.47c0.73,0,1.4,0.4,1.74,1.04s0.31,1.42-0.09,2.03l-15.73,23.71
		C77.07,133.01,76.46,133.34,75.79,133.34z M63.74,109.64l12.05,18.16l12.05-18.16H63.74z"/>
	
		<rect x="51.91" y="86.88" transform="matrix(0.8101 -0.5863 0.5863 0.8101 -45.3532 49.6009)" class="st1" width="3.95" height="15.85"/>
	
		<rect x="89.38" y="92.65" transform="matrix(0.5972 -0.8021 0.8021 0.5972 -36.7613 116.0443)" class="st1" width="15.55" height="3.95"/>
	
		<rect x="57.11" y="98.53" transform="matrix(0.9999 -0.0137 0.0137 0.9999 -1.3669 1.0442)" class="st1" width="37.17" height="3.95"/>
	<polygon class="st3" points="24.18,155.53 131.82,155.53 131.82,0.47 24.18,0.47 24.18,155.53 	"/>
</g>
</svg>
