<?xml version="1.0" encoding="utf-8"?>
<!-- Generator: Adobe Illustrator 28.0.0, SVG Export Plug-In . SVG Version: 6.00 Build 0)  -->
<svg version="1.1" id="Layer_1" xmlns="http://www.w3.org/2000/svg" xmlns:xlink="http://www.w3.org/1999/xlink" x="0px" y="0px"
	 viewBox="0 0 156 156" width="156px" height="156px"  style="enable-background:new 0 0 156 156;" xml:space="preserve">
<style type="text/css">
	.st0{fill:#FF0000;}
	.st1{fill-rule:evenodd;clip-rule:evenodd;fill:#FF0000;}
</style>
<polygon class="st0" points="74.8,77.1 65.6,83.8 57.6,82 49.1,76.8 47.8,69.8 49,65.8 48.9,66.3 48.9,62.6 52.2,58.2 64.1,51.3 
	66,54.6 54.5,61.3 55,60.8 52.4,64.4 52.8,63.3 52.8,66.6 51.6,70.5 51.7,69.6 52.7,75.2 51.8,74 59.3,78.6 58.7,78.3 65.6,79.9 
	64.1,80.2 72.6,74.1 "/>
<path class="st0" d="M0.7,0.6h154.1v154.1H0.7V0.6L0.7,0.6z M6.7,151.7l-3-3h148.2l-3,3V3.5l3,3H3.7l3-3V151.7L6.7,151.7z"/>
<path class="st0" d="M34.3,117.9l0.6,0.4l0.6,0.4l0.6,0.4l0.5,0.5l0.5,0.5l0.5,0.5l0.5,0.5l0.5,0.5l0.4,0.6l0.4,0.6l0.4,0.6l0.3,0.6
	l0.3,0.6l0.3,0.6l0.2,0.6l0.2,0.6l0.2,0.6l0.2,0.7l0.1,0.6l0.1,0.7l0,0.7l0,0.7l0,0.6l-0.1,0.6l-0.1,0.7l-0.1,0.6l-0.2,0.6l-0.2,0.6
	l-0.3,0.6l-0.3,0.6l-0.3,0.6l-0.4,0.5l0.2-0.4l-0.3,0.6l-0.3,0.7l-0.4,0.6l-0.4,0.6l-0.5,0.6l-0.5,0.5l-0.5,0.5l-0.5,0.5l-0.6,0.4
	l-0.6,0.4l-0.6,0.4l-0.6,0.4l-0.7,0.3l-0.7,0.3l-0.7,0.2l-0.7,0.2l-0.7,0.2l-0.7,0.1l-0.7,0.1l-0.7,0.1l-0.7,0l-0.7,0l-0.7,0
	l-0.7-0.1l-0.7-0.1l-0.7-0.1l-0.7-0.2l-0.7-0.2l-0.7-0.3l-0.7-0.3l-0.7-0.3l-0.7-0.4l-0.6-0.4l-0.6-0.4l-0.6-0.4l-0.6-0.5l-0.5-0.5
	l-0.5-0.5l-0.5-0.5l-0.4-0.6l-0.4-0.6l-0.4-0.6l-0.4-0.6l-0.3-0.6l-0.3-0.6l-0.3-0.6l-0.2-0.6l-0.2-0.7l-0.2-0.7l-0.1-0.7l-0.1-0.7
	l-0.1-0.7l0-0.7l0-0.7l0-0.7l0.1-0.7l0.1-0.7l0.1-0.7l0.2-0.7l0.2-0.7l0.3-0.7l0.3-0.7l0.3-0.7l0.4-0.6l-0.1,0.2l0.3-0.6l0.4-0.7
	l0.4-0.6l0.4-0.6l0.5-0.6l0.5-0.5l0.5-0.5l0.6-0.4l0.6-0.4l0.6-0.4l0.6-0.3l0.6-0.3l0.6-0.3l0.7-0.2l0.7-0.2l0.7-0.2l0.7-0.1
	l0.7-0.1l0.7-0.1l0.7,0l0.7,0l0.7,0.1l0.7,0.1l0.7,0.1l0.7,0.2l0.7,0.2l0.7,0.2l0.7,0.2l0.7,0.3l0.7,0.3l0.7,0.3L34.3,117.9
	L34.3,117.9z M31.7,121.2L31.7,121.2l-0.5-0.3l0.1,0l-0.6-0.3l0.1,0.1l-0.6-0.2l0.1,0l-0.6-0.2l0.1,0l-0.6-0.2l0.1,0l-0.6-0.1l0.1,0
	l-0.6-0.1l0.1,0l-0.6-0.1h0.1l-0.6-0.1l0.1,0l-0.6,0h0.1l-0.6,0h0.1l-0.6,0h0.1l-0.6,0l0.1,0l-0.6,0.1l0.1,0l-0.6,0.1l0.1,0
	l-0.6,0.1l0.1,0l-0.6,0.2l0.1,0l-0.6,0.2l0.1,0l-0.5,0.2l0.1-0.1l-0.5,0.2l0.1-0.1l-0.5,0.3l0.1-0.1l-0.5,0.3l0.1-0.1l-0.5,0.3
	l0.1-0.1l-0.5,0.3l0.1-0.1l-0.4,0.4l0.1-0.1l-0.4,0.4l0.1-0.1l-0.4,0.4l0.1-0.1l-0.3,0.5l0.1-0.1l-0.3,0.5l0.1-0.1l-0.3,0.5l0.1-0.1
	l-0.3,0.6l-0.4,0.7l0.1-0.1l-0.3,0.6l0-0.1l-0.3,0.6l0-0.1l-0.2,0.6l0-0.1l-0.2,0.6l0-0.1l-0.2,0.6l0-0.1l-0.1,0.6l0-0.1l-0.1,0.6
	l0-0.1l-0.1,0.6l0-0.1l0,0.6v-0.1v0.6v-0.1l0,0.6l0-0.1l0.1,0.6l0-0.1l0.1,0.6l0-0.1l0.1,0.6l0-0.1l0.2,0.6l0-0.1l0.2,0.6l0-0.1
	l0.2,0.6l0-0.1l0.2,0.6l0-0.1l0.3,0.5l0-0.1l0.3,0.5l0-0.1l0.3,0.5l-0.1-0.1l0.4,0.5l-0.1-0.1l0.4,0.5l-0.1-0.1l0.4,0.5l-0.1-0.1
	l0.4,0.5l-0.1-0.1l0.5,0.4l-0.1-0.1l0.5,0.4l-0.1-0.1l0.5,0.4l-0.1-0.1l0.5,0.4l-0.1-0.1l0.5,0.4l-0.1,0l0.5,0.4l-0.1-0.1l0.6,0.3
	l-0.1-0.1l0.6,0.3l-0.1-0.1l0.6,0.3l-0.1-0.1l0.6,0.2l-0.1,0l0.6,0.2l-0.1,0l0.6,0.1l-0.1,0l0.6,0.1l-0.1,0l0.6,0.1l-0.1,0l0.6,0.1
	h-0.1l0.6,0h-0.1l0.6,0h-0.1l0.6,0l-0.1,0l0.6-0.1l-0.1,0l0.6-0.1l-0.1,0l0.6-0.1l-0.1,0l0.6-0.2l-0.1,0l0.6-0.2l-0.1,0l0.6-0.2
	l-0.1,0l0.6-0.2l-0.1,0.1l0.5-0.3l-0.1,0.1l0.5-0.3l-0.1,0.1l0.5-0.3l-0.1,0.1l0.5-0.4l-0.1,0.1l0.5-0.4l-0.1,0.1l0.5-0.4l-0.1,0.1
	l0.4-0.4l-0.1,0.1l0.4-0.4l-0.1,0.1l0.4-0.5l-0.1,0.1l0.3-0.5l-0.1,0.1l0.3-0.5l-0.1,0.1L36,135l-0.1,0.1l0.3-0.8l0.5-0.6l-0.1,0.1
	l0.3-0.5l-0.1,0.1l0.3-0.5l-0.1,0.1l0.2-0.5l0,0.1l0.2-0.5l0,0.1l0.2-0.5l0,0.1l0.1-0.5l0,0.1l0.1-0.5l0,0.1l0.1-0.5l0,0.1l0-0.5
	v0.1l0-0.6l0,0.1l0-0.6l0,0.1l-0.1-0.5l0,0.1l-0.1-0.6l0,0.1l-0.1-0.5l0,0.1l-0.2-0.6l0,0.1l-0.2-0.5l0,0.1l-0.2-0.5l0,0.1l-0.2-0.5
	l0,0.1l-0.3-0.5l0,0.1l-0.3-0.5l0,0.1L36,125L36,125l-0.3-0.5l0.1,0.1l-0.4-0.5l0.1,0.1l-0.4-0.5l0.1,0.1l-0.4-0.5l0.1,0.1l-0.5-0.4
	l0.1,0.1l-0.5-0.4l0.1,0.1l-0.5-0.4l0.1,0.1l-0.5-0.4l0.1,0.1l-0.5-0.4l0.1,0.1l-0.5-0.3l0.1,0L31.7,121.2L31.7,121.2z"/>
<polygon class="st0" points="123.3,13.7 123.9,13.4 124.5,13.1 125.1,12.8 125.8,12.6 126.4,12.4 127.1,12.2 127.7,12.1 128.4,12 
	129,11.9 129.7,11.9 130.4,11.9 131,12 131.7,12.1 132.3,12.2 132.9,12.4 133.6,12.6 134.2,12.8 134.8,13.1 135.4,13.4 136,13.7 
	136.6,14.1 137.1,14.5 137.6,14.9 138.2,15.4 138.7,15.9 139.2,16.4 139.6,17 140.1,17.6 140.5,18.2 140.9,18.8 141.3,19.5 
	141.6,20.1 141.6,20.1 141.9,20.6 142.2,21.3 142.5,21.9 142.8,22.5 142.9,23.2 143.1,23.8 143.2,24.5 143.3,25.1 143.4,25.8 
	143.4,26.5 143.4,27.1 143.4,27.8 143.3,28.4 143.2,29 143.1,29.7 142.9,30.3 142.7,30.9 142.5,31.5 142.2,32.1 141.9,32.7 
	141.6,33.2 141.3,33.8 140.9,34.3 140.5,34.9 140.1,35.4 139.6,35.9 139.1,36.3 138.6,36.8 138.1,37.2 137.6,37.7 137,38 
	136.5,38.4 134.3,34.9 134.8,34.6 134.7,34.6 135.2,34.3 135.1,34.3 135.6,34 135.5,34.1 136,33.7 135.9,33.7 136.3,33.3 
	136.3,33.4 136.7,33 136.6,33.1 137,32.6 136.9,32.7 137.3,32.3 137.2,32.3 137.6,31.9 137.5,32 137.8,31.5 137.8,31.6 138.1,31.1 
	138,31.2 138.3,30.7 138.2,30.8 138.5,30.3 138.4,30.4 138.7,29.9 138.6,30 138.8,29.5 138.8,29.6 138.9,29.1 138.9,29.2 
	139.1,28.6 139,28.7 139.2,28.2 139.1,28.3 139.2,27.8 139.2,27.9 139.3,27.3 139.3,27.4 139.3,26.9 139.3,27 139.3,26.5 
	139.3,26.6 139.3,26 139.3,26.1 139.2,25.6 139.3,25.7 139.2,25.1 139.2,25.2 139.1,24.7 139.1,24.8 139,24.2 139,24.4 138.8,23.8 
	138.9,23.9 138.7,23.4 138.7,23.5 138.5,23 138.5,23 138.3,22.5 138.3,22.6 138,22.1 137.7,21.4 137.7,21.5 137.4,20.9 137.4,21 
	137.1,20.4 137.1,20.5 136.7,20 136.8,20 136.4,19.5 136.5,19.6 136,19.1 136.1,19.2 135.7,18.8 135.8,18.8 135.3,18.4 135.4,18.5 
	135,18.1 135,18.1 134.6,17.8 134.6,17.8 134.2,17.5 134.3,17.5 133.8,17.2 133.9,17.3 133.4,17 133.5,17.1 133,16.8 133.1,16.9 
	132.6,16.6 132.7,16.7 132.1,16.5 132.3,16.5 131.7,16.3 131.9,16.4 131.3,16.2 131.4,16.2 130.9,16.1 131,16.2 130.5,16.1 
	130.6,16.1 130.1,16.1 130.2,16.1 129.6,16 129.7,16 129.2,16.1 129.3,16 128.8,16.1 128.9,16.1 128.3,16.1 128.4,16.1 127.9,16.2 
	128,16.2 127.5,16.4 127.6,16.3 127,16.5 127.2,16.5 126.6,16.7 126.7,16.6 126.2,16.9 126.3,16.8 125.8,17.1 125.8,17 125.3,17.3 
	"/>
<polygon class="st0" points="13.6,123.7 32.4,86.4 43.8,83.7 48.2,89.6 46.5,88.8 53.2,88.8 59.1,97.7 40.2,136.2 36.5,134.4 
	54.8,96.9 55,98.9 50.4,92 52.1,92.9 45.5,92.9 41.3,87.3 43.4,88 34.3,90.2 35.6,89.1 17.3,125.5 "/>
<polygon class="st0" points="126.5,16.7 66.2,54.7 67,52.1 67.3,52.8 65.8,51.6 69.6,52.2 69.1,52.2 95.4,50 77.4,61.7 78.2,59.1 
	80.3,64.2 80.4,64.9 80.4,65.2 80.4,65.5 80.4,65.7 80.4,66 80.4,66.3 80.4,66.2 80.5,66.5 80.5,67.1 80.4,67.5 80.4,67.9 
	80.2,68.5 80,69.1 79.8,69.6 79.8,69.6 79.6,70.1 79.7,70.1 79.5,70.6 79.5,70.5 79.4,70.9 79.4,70.8 79.4,71 79.4,70.8 79.4,71.3 
	79.2,71.7 79.1,72 78.8,72.4 78.6,72.8 78.3,73.2 78,73.6 77.7,73.9 77.3,74.3 77,74.7 76.7,75.1 76.7,75.1 76.4,75.5 76.4,75.5 
	76.1,75.8 76.1,75.8 75.8,76.2 75.9,76.1 75.6,76.5 75.7,76.4 75.5,76.7 75.5,76.6 75.4,76.8 75.5,76.6 75.4,76.7 75.5,76.6 
	75.5,76.7 72.4,74.2 134.9,34.5 137.1,38 69.5,81 71.7,75.1 71.8,74.8 72,74.4 72.3,74.1 72.6,73.7 72.9,73.3 73.2,72.9 73.5,72.5 
	73.8,72.1 74.2,71.7 74.2,71.7 74.5,71.3 74.5,71.3 74.8,71 74.8,71 75,70.6 75,70.7 75.2,70.3 75.2,70.4 75.4,70.1 75.3,70.2 
	75.5,70 75.4,70.1 75.4,70 75.4,70.2 75.4,70.1 75.3,70.6 75.3,70.3 75.4,69.9 75.6,69.3 75.7,68.8 75.9,68.2 76.1,67.7 76.1,67.7 
	76.3,67.2 76.2,67.4 76.4,66.9 76.3,67.1 76.4,66.8 76.4,67 76.4,66.8 76.4,67.1 76.3,66.8 76.3,66.4 76.3,66.2 76.3,65.9 
	76.3,65.7 76.3,65.4 76.3,65.4 76.3,65.1 76.2,64.8 76.4,65.5 73.7,59.2 86.3,51 87.6,54.8 69.2,56.3 64.1,55.6 62.5,52.2 
	124.3,13.2 "/>
<polygon class="st1" points="66.9,85 71.1,92.4 72.1,100.4 72.1,106.6 71.1,111.7 68.8,117.9 66.9,124.8 67.8,129.9 69.7,135 
	74,140.1 81.6,142.4 91.1,145.2 101.1,145.2 113.9,142.4 122.5,141.2 126.8,138.4 132,135 134.4,129.9 134.4,123.1 132.9,116.8 
	131,111.7 125.8,106.6 121.5,104.3 113.9,102.6 104.4,102.6 95.4,100.4 88.2,97.5 79.7,91.3 73,86.2 64.5,78.8 "/>
</svg>
