<?xml version="1.0" encoding="utf-8"?>
<!-- Generator: Adobe Illustrator 28.0.0, SVG Export Plug-In . SVG Version: 6.00 Build 0)  -->
<svg version="1.1" id="Layer_1" xmlns="http://www.w3.org/2000/svg" xmlns:xlink="http://www.w3.org/1999/xlink" x="0px" y="0px"
	 viewBox="0 0 156 156" style="enable-background:new 0 0 156 156;" xml:space="preserve">
<style type="text/css">
	.st0{fill-rule:evenodd;clip-rule:evenodd;fill:#FFFFFF;}
	.st1{fill:#FF0000;}
	.st2{fill-rule:evenodd;clip-rule:evenodd;fill:#FF0000;}
	.st3{fill:#FFFFFF;}
	.st4{fill:#E2001A;}
	.st5{fill:none;}
</style>
<g>
	<polygon class="st0" points="0,0 156,0 156,156 0,156 0,0 	"/>
	<polygon class="st1" points="74.82,77.13 65.63,83.8 57.56,82 49.13,76.76 47.83,69.84 49.02,65.8 48.94,66.34 48.94,62.63 
		52.21,58.21 64.14,51.33 66.04,54.64 54.46,61.31 55.03,60.8 52.38,64.39 52.75,63.26 52.75,66.62 51.6,70.48 51.66,69.58 
		52.71,75.24 51.85,73.97 59.3,78.59 58.71,78.35 65.62,79.9 64.08,80.21 72.59,74.05 74.82,77.13 	"/>
	<path class="st1" d="M65.63,83.8l-8.07-1.8l-8.43-5.24l-1.3-6.93l1.12-3.81l-0.01-3.4l3.27-4.43l11.93-6.88l1.91,3.31l-11.27,6.51
		l-2.03,2.77l0.01,2.71l-1.01,3.41l0.82,4.38l6.51,4.02l5.71,1.27l7.81-5.66l2.24,3.08c0,0,0,0.01,0,0.01L65.63,83.8z M48.94,66.03
		l-1.11,3.8l1.3,6.92L57.57,82l8.06,1.8l9.18-6.66l-2.22-3.08l-7.81,5.66l0.83,0.19l-1.53,0.32l0.7-0.51l-5.71-1.27l0.23,0.14
		l-0.6-0.23l0.37,0.08l-6.51-4.02l0.15,0.82l-0.87-1.26l0.72,0.44l-0.82-4.38l-0.13,0.44l0.04-0.9l0.08,0.45l1-3.41v-2.71
		l-0.36,0.49l0.36-1.14l0,0.65l2.03-2.77l-0.31,0.18l0.57-0.53l-0.25,0.35l11.27-6.51l-1.91-3.3l-11.92,6.88l-3.27,4.43V66.03
		l0.07-0.23l-0.06,0.54L48.94,66.03z M64.78,79.71l-0.7,0.51l1.53-0.32L64.78,79.71z M58.7,78.36l0.6,0.23l-0.23-0.14L58.7,78.36z
		 M51.85,73.98l0.87,1.26l-0.15-0.81L51.85,73.98z M51.65,69.58l-0.04,0.9l0.13-0.44L51.65,69.58z M48.95,66.03v0.31l0.06-0.54
		L48.95,66.03z M52.74,63.26l-0.36,1.13l0.36-0.49V63.26z M55.03,60.79l-0.56,0.53l0.31-0.18L55.03,60.79z"/>
	<path class="st1" d="M0.7,0.57h154.11v154.15H0.7V0.57L0.7,0.57z M6.66,151.74l-2.98-2.98h148.16l-2.98,2.98V3.55l2.98,2.98H3.68
		l2.98-2.98V151.74L6.66,151.74z"/>
	<path class="st1" d="M0.7,154.73L0.69,0.57c0,0,0-0.01,0.01-0.01h154.11l0,154.16L0.7,154.73z M0.71,0.58v154.15l154.11,0l0-154.15
		L0.71,0.58z M6.66,151.75C6.66,151.75,6.66,151.75,6.66,151.75l-2.98-2.98h2.98V6.54H3.68l2.98-2.99v2.99l142.2-0.01V3.55
		l2.99,2.98h-2.99l0.01,142.23h2.98l-2.98,2.99v-2.99L6.66,148.77L6.66,151.75C6.66,151.75,6.66,151.75,6.66,151.75L6.66,151.75z
		 M148.86,148.76v2.98l2.97-2.98H148.86z M6.65,148.77H3.68l2.97,2.96V148.77z M6.65,6.54l0.01,142.23l142.19-0.01L148.85,6.53
		L6.65,6.54z M6.65,3.55L3.68,6.53h2.97V3.55z M148.85,3.55v2.97h2.98L148.85,3.55z"/>
	<path class="st1" d="M34.32,117.92l0.63,0.39l0.6,0.43l0.59,0.45l0.55,0.47l0.54,0.48l0.5,0.5l0.48,0.52l0.45,0.54l0.43,0.56
		l0.4,0.57l0.36,0.58l0.35,0.58l0.3,0.61l0.28,0.63l0.25,0.62l0.22,0.64l0.18,0.64l0.15,0.65l0.12,0.64l0.08,0.66l0.04,0.66
		l0.01,0.66l-0.02,0.65l-0.07,0.65l-0.11,0.66L41.49,133l-0.19,0.64l-0.22,0.63l-0.28,0.62l-0.31,0.61l-0.35,0.59l-0.37,0.52
		l0.2-0.36l-0.27,0.62l-0.34,0.66l-0.38,0.63l-0.41,0.59l-0.45,0.57l-0.48,0.54l-0.52,0.49l-0.53,0.48l-0.56,0.44l-0.58,0.41
		l-0.6,0.37l-0.63,0.35l-0.65,0.31l-0.65,0.28l-0.67,0.25l-0.68,0.21l-0.71,0.19l-0.71,0.15l-0.71,0.11l-0.72,0.08l-0.73,0.04
		l-0.73,0.01l-0.74-0.03l-0.73-0.06l-0.74-0.11l-0.72-0.13l-0.73-0.18l-0.72-0.21l-0.71-0.26l-0.71-0.3l-0.69-0.34l-0.66-0.38
		l-0.64-0.4l-0.6-0.41l-0.58-0.45l-0.57-0.47l-0.53-0.49l-0.5-0.5l-0.49-0.53l-0.45-0.56l-0.43-0.56l-0.39-0.57l-0.38-0.61
		l-0.34-0.6l-0.3-0.63l-0.28-0.64l-0.25-0.65l-0.21-0.66l-0.19-0.67l-0.15-0.67l-0.11-0.68l-0.08-0.69l-0.04-0.69l-0.01-0.69
		l0.02-0.71l0.07-0.69l0.1-0.72l0.15-0.69l0.18-0.69l0.21-0.7l0.26-0.69l0.29-0.68l0.34-0.67l0.35-0.62l-0.09,0.18l0.27-0.62
		l0.35-0.66l0.39-0.62l0.43-0.58l0.46-0.55l0.5-0.52l0.52-0.47l0.56-0.44l0.57-0.4l0.59-0.36l0.63-0.34l0.64-0.28l0.65-0.26
		l0.67-0.22l0.67-0.18l0.69-0.15l0.69-0.12l0.71-0.08l0.71-0.05l0.72-0.02l0.72,0.02l0.73,0.05l0.72,0.08l0.72,0.11l0.72,0.15
		l0.72,0.18l0.71,0.21l0.71,0.25l0.68,0.27l0.68,0.31l0.67,0.35L34.32,117.92L34.32,117.92z M31.67,121.15l0.08,0.04l-0.58-0.3
		l0.09,0.04l-0.59-0.27l0.08,0.05l-0.6-0.25l0.09,0.03l-0.62-0.21l0.09,0.03l-0.62-0.19l0.09,0.02L28.55,120l0.08,0.01l-0.63-0.12
		l0.09,0.01l-0.63-0.09h0.08l-0.63-0.07l0.1,0.01l-0.63-0.04h0.09l-0.63-0.01h0.09l-0.62,0.01h0.09l-0.62,0.04l0.11-0.01l-0.62,0.07
		l0.09-0.01l-0.59,0.1l0.11-0.02l-0.59,0.13l0.09-0.02l-0.57,0.15l0.11-0.02l-0.57,0.18l0.11-0.03l-0.55,0.21l0.1-0.05l-0.53,0.24
		l0.11-0.06l-0.52,0.27l0.11-0.06l-0.49,0.3l0.1-0.07l-0.47,0.33l0.11-0.08l-0.45,0.35l0.09-0.08l-0.41,0.38l0.1-0.1l-0.4,0.41
		l0.1-0.11l-0.37,0.45l0.09-0.12l-0.34,0.47l0.08-0.11l-0.31,0.49l0.08-0.13l-0.28,0.53l0.07-0.12l-0.29,0.64l-0.37,0.66l0.06-0.1
		l-0.29,0.58l0.04-0.09l-0.26,0.58l0.04-0.12l-0.21,0.59l0.03-0.1l-0.19,0.59l0.03-0.1l-0.16,0.58l0.03-0.1l-0.12,0.59l0.02-0.11
		l-0.09,0.59l0.01-0.11l-0.06,0.61l0.01-0.1l-0.02,0.59v-0.11v0.58v-0.1l0.04,0.59l-0.01-0.1l0.07,0.58l-0.02-0.1l0.1,0.57
		l-0.02-0.09l0.13,0.57l-0.03-0.1l0.16,0.57l-0.02-0.09l0.18,0.56l-0.03-0.1l0.21,0.56l-0.03-0.09l0.24,0.55l-0.04-0.1l0.27,0.54
		l-0.04-0.08l0.29,0.53l-0.04-0.09l0.31,0.52l-0.06-0.08l0.35,0.5l-0.06-0.08l0.37,0.49l-0.06-0.08l0.39,0.48l-0.07-0.08l0.43,0.46
		l-0.07-0.07l0.45,0.44l-0.07-0.06l0.47,0.43l-0.08-0.06l0.49,0.4l-0.08-0.06l0.52,0.38l-0.07-0.05l0.53,0.37l-0.08-0.04l0.55,0.35
		l-0.08-0.06l0.57,0.32l-0.1-0.06l0.58,0.29l-0.11-0.06l0.59,0.26l-0.1-0.05l0.6,0.22l-0.09-0.03l0.6,0.19l-0.11-0.03l0.62,0.15
		l-0.1-0.02l0.63,0.12l-0.1-0.01l0.63,0.09l-0.11-0.02l0.63,0.06h-0.09l0.63,0.02h-0.1l0.63-0.01h-0.11l0.63-0.03l-0.09,0.01
		l0.63-0.07l-0.11,0.01l0.62-0.1l-0.09,0.02l0.6-0.13l-0.1,0.02l0.59-0.16l-0.09,0.03l0.58-0.19l-0.09,0.03l0.57-0.21l-0.09,0.04
		l0.56-0.25l-0.09,0.05l0.55-0.27l-0.1,0.06l0.53-0.29l-0.09,0.06l0.52-0.32l-0.1,0.07l0.49-0.35l-0.09,0.07l0.47-0.37l-0.09,0.08
		l0.45-0.4l-0.09,0.08l0.43-0.41l-0.09,0.09l0.4-0.45l-0.08,0.09l0.37-0.46l-0.08,0.1l0.35-0.49l-0.08,0.12l0.3-0.52l-0.06,0.11
		l0.27-0.53l-0.06,0.12l0.32-0.75l0.45-0.63l-0.09,0.12l0.29-0.48l-0.07,0.11l0.26-0.48l-0.06,0.12l0.21-0.5l-0.04,0.12l0.18-0.5
		l-0.03,0.12l0.15-0.52l-0.03,0.12l0.12-0.53l-0.02,0.13l0.09-0.53l-0.02,0.12l0.06-0.54l-0.01,0.11l0.02-0.54v0.13l-0.01-0.55
		l0.01,0.11l-0.03-0.55l0.01,0.12l-0.08-0.54l0.02,0.1l-0.1-0.55l0.02,0.1l-0.12-0.54l0.02,0.1l-0.16-0.55l0.03,0.11l-0.18-0.54
		l0.03,0.09l-0.21-0.54l0.03,0.09l-0.24-0.53l0.04,0.1l-0.27-0.53l0.04,0.09l-0.29-0.52l0.04,0.08l-0.31-0.5l0.06,0.08l-0.35-0.49
		l0.06,0.08l-0.37-0.48l0.06,0.07l-0.39-0.46l0.06,0.06l-0.43-0.46l0.08,0.08l-0.45-0.45l0.07,0.07l-0.47-0.43l0.07,0.06l-0.49-0.4
		l0.08,0.06l-0.5-0.39l0.06,0.06l-0.53-0.38l0.08,0.06l-0.55-0.35l0.08,0.04L31.67,121.15L31.67,121.15z"/>
	<path class="st1" d="M27.28,144.03L26.54,144l-0.73-0.06l-0.74-0.11l-0.72-0.13l-0.73-0.18l-0.72-0.21l-0.71-0.26l-0.71-0.3
		l-0.7-0.34l-0.66-0.38l-0.64-0.4l-0.61-0.41l-0.58-0.45l-0.57-0.47l-0.53-0.49l-0.5-0.51l-0.49-0.53l-0.45-0.56l-0.43-0.56
		l-0.39-0.57l-0.38-0.61l-0.34-0.61l-0.3-0.63l-0.28-0.64l-0.24-0.65l-0.21-0.66L13,132.61l-0.15-0.67l-0.11-0.68l-0.08-0.69
		l-0.04-0.7l-0.01-0.7l0.02-0.71l0.07-0.69l0.1-0.72l0.15-0.7l0.18-0.69l0.21-0.7l0.26-0.7l0.29-0.69l0.34-0.67l0.33-0.59l0.19-0.46
		l0.35-0.66l0.39-0.61l0.43-0.59l0.46-0.55l0.5-0.52l0.52-0.47l0.56-0.44l0.57-0.4l0.59-0.36l0.63-0.34l0.64-0.28l0.65-0.26
		l0.67-0.22l0.67-0.18l0.7-0.15l0.7-0.12l0.71-0.08l0.71-0.05l0.72-0.02l0.72,0.02l0.73,0.05l0.72,0.08l0.72,0.11l0.72,0.15
		l0.72,0.18l0.71,0.21l0.71,0.24l0.68,0.27l0.68,0.31l0.67,0.35l0.66,0.37l0,0l0.63,0.39l0.61,0.42l0.59,0.45l1.09,0.95l0.5,0.51
		l0.48,0.52l0.45,0.54l0.43,0.56l0.4,0.57l0.71,1.16l0.3,0.61l0.28,0.62l0.25,0.62l0.22,0.64l0.18,0.64l0.15,0.65l0.12,0.64
		l0.08,0.66l0.04,0.66l0.01,0.66l-0.02,0.65l-0.07,0.65l-0.11,0.66L41.5,133l-0.19,0.64l-0.22,0.63l-0.28,0.62l-0.32,0.61
		l-0.35,0.59l-0.27,0.38l-0.16,0.39l-0.34,0.66l-0.38,0.63l-0.41,0.59l-0.45,0.57l-0.48,0.53l-0.51,0.49l-0.53,0.49l-0.56,0.44
		l-0.58,0.41l-0.61,0.37l-0.63,0.35l-0.65,0.31l-0.65,0.28l-0.67,0.25l-0.68,0.21l-0.71,0.19l-0.71,0.15l-0.71,0.11l-0.72,0.08
		l-0.73,0.04L27.28,144.03z M14.56,122.32l-0.32,0.6l-0.34,0.67l-0.29,0.68l-0.26,0.69l-0.21,0.7l-0.18,0.69l-0.15,0.7l-0.1,0.72
		l-0.07,0.69l-0.02,0.71l0.01,0.7l0.04,0.7l0.08,0.69l0.11,0.68l0.15,0.67l0.19,0.68l0.21,0.66l0.24,0.65l0.28,0.63l0.3,0.63
		l0.34,0.61l0.38,0.61l0.39,0.57l0.43,0.56l0.45,0.56l0.49,0.53l0.5,0.51l0.53,0.49l0.57,0.47l0.58,0.45l0.61,0.41l0.63,0.4
		l0.66,0.38l0.7,0.34l0.71,0.3l0.71,0.26l0.72,0.21l0.73,0.18l0.72,0.13l0.74,0.11l0.73,0.06l0.74,0.03l0.73-0.01l0.73-0.04
		l0.72-0.08l0.71-0.11l0.7-0.15l0.71-0.19l0.68-0.21l0.67-0.25l0.65-0.28l0.65-0.31l0.63-0.35l0.6-0.37l0.58-0.41l0.56-0.44
		l0.53-0.49l0.51-0.49l0.48-0.53l0.45-0.57l0.41-0.59l0.38-0.63l0.34-0.66l0.16-0.37l-0.08,0.12l0.19-0.37l-0.09,0.22l0.26-0.38
		l0.35-0.59l0.31-0.61l0.28-0.61l0.22-0.62l0.19-0.64l0.15-0.65l0.11-0.66l0.07-0.65l0.02-0.65l-0.01-0.66l-0.04-0.66l-0.08-0.66
		l-0.12-0.64l-0.15-0.65l-0.18-0.64l-0.22-0.64l-0.25-0.61l-0.28-0.62L40.2,124l-0.71-1.16l-0.4-0.57l-0.43-0.56l-0.45-0.54
		l-0.48-0.52l-0.5-0.51l-1.09-0.95l-0.59-0.45l-0.6-0.42l-0.63-0.39l-0.66-0.37l-0.67-0.35l-0.68-0.31l-0.68-0.27l-0.71-0.24
		l-0.71-0.21l-0.72-0.18l-0.72-0.15l-0.72-0.11l-0.72-0.08l-0.73-0.05l-0.72-0.02l-0.72,0.02l-0.71,0.05l-0.71,0.08l-0.69,0.12
		L22.38,116l-0.67,0.18l-0.67,0.22l-0.65,0.26l-0.64,0.28l-0.63,0.34l-0.59,0.36l-0.57,0.4l-0.56,0.44l-0.52,0.47l-0.5,0.52
		l-0.46,0.55l-0.43,0.59l-0.39,0.61l-0.35,0.66l-0.27,0.62L14.56,122.32z M39.96,136.23l-0.19,0.37l0.09-0.13L39.96,136.23z
		 M27.28,139.9l0.63-0.02L27.28,139.9z M27.3,139.9l0.08-0.01l-0.63-0.01l0.09-0.01l-0.53-0.04l0.01,0l-0.02,0l-0.1-0.01l0.1,0.01
		l-0.61-0.08l0.61,0.08l0.53,0.04l-0.09,0.01l0.63,0.01L27.3,139.9z M27.79,139.9L27.79,139.9l0.63-0.04l-0.09,0.02l0.61-0.07
		l0.52-0.09l-0.09,0.03l0.4-0.09l-0.4,0.09l0.08-0.03l-0.52,0.09h0.02h-0.02l-0.09,0.02l0.09-0.02l-0.61,0.07l0.09-0.02L27.79,139.9
		z M25.8,139.76l-0.1,0L25.8,139.76z M25.28,139.66l-0.11-0.01L25.28,139.66z M29.88,139.62l0.59-0.17l-0.09,0.04l0.21-0.07
		l-0.21,0.07l0.09-0.04L29.88,139.62z M29.97,139.6L29.97,139.6L29.97,139.6z M24.77,139.55l-0.12-0.02L24.77,139.55z M24.4,139.44
		l-0.24-0.07L24.4,139.44z M24.26,139.39l-0.04-0.01L24.26,139.39z M24.13,139.35l-0.39-0.14l0.01,0.01l-0.01-0.01l-0.09-0.03
		l0.09,0.03l-0.58-0.24l0.58,0.24L24.13,139.35z M30.88,139.35l0.08-0.04L30.88,139.35z M31.28,139.19l0.17-0.06l-0.09,0.05
		l0.56-0.25l-0.06,0.04l0.06-0.04l-0.56,0.25l0.09-0.05L31.28,139.19z M23.27,139.01l-0.59-0.28L23.27,139.01z M31.83,138.97
		l0.54-0.27l-0.1,0.06l0.1-0.06L31.83,138.97z M22.79,138.78l-0.09-0.04L22.79,138.78z M22.58,138.66l-0.3-0.16l0.01,0.01
		l-0.01-0.01l-0.07-0.04l0.07,0.04l-0.54-0.33l0.08,0.04l-0.53-0.36l0.53,0.36l-0.08-0.04l0.54,0.33L22.58,138.66z M32.71,138.53
		l0.51-0.34l-0.04,0.03l0.04-0.03L32.71,138.53z M32.71,138.53l0.08-0.06L32.71,138.53z M33.13,138.27l0.24-0.18L33.13,138.27z
		 M33.53,137.99l0.37-0.3L33.53,137.99z M33.57,137.95l0.05-0.04L33.57,137.95z M21.37,137.88l-0.04-0.02L21.37,137.88z
		 M21.19,137.75l-0.34-0.24l0.09,0.04l-0.5-0.39l0.09,0.05l-0.48-0.42l0.08,0.05l-0.46-0.43l0.46,0.43l-0.08-0.05l0.48,0.42
		l-0.09-0.05l0.5,0.39l-0.09-0.04L21.19,137.75z M33.91,137.7l0.41-0.38L33.91,137.7z M33.95,137.66l0.04-0.04L33.95,137.66z
		 M34.27,137.37L34.27,137.37l0.41-0.42L34.27,137.37z M34.61,137.05L34.61,137.05l0.3-0.34L34.61,137.05z M34.68,136.96l0.01-0.01
		L34.68,136.96z M34.95,136.67l0.05-0.08L34.95,136.67z M19.73,136.47l-0.07-0.06L19.73,136.47l-0.43-0.45L19.73,136.47z
		 M35.22,136.33L35.22,136.33l0.34-0.5l-0.07,0.13l0.07-0.13L35.22,136.33z M19.37,136.09l-0.04-0.03L19.37,136.09z M19.27,135.96
		l-0.3-0.35L19.27,135.96z M35.55,135.86l0.23-0.42l-0.05,0.12l0.05-0.12L35.55,135.86z M19.04,135.68L19.04,135.68L19.04,135.68z
		 M18.94,135.55l-0.27-0.35L18.94,135.55z M18.73,135.27l-0.03-0.03L18.73,135.27l-0.36-0.5L18.73,135.27z M35.95,135.16l0.05-0.13
		L35.95,135.16z M35.95,135.15l0.31-0.76l0.47-0.66l-0.05,0.08l0.03-0.04l-0.08,0.13l0.03-0.05l-0.03,0.05l0.04-0.08l-0.4,0.58
		L35.95,135.15z M18.43,134.85l-0.06-0.07L18.43,134.85z M18.41,134.81l-0.25-0.4L18.41,134.81z M18.17,134.42l-0.02-0.03
		L18.17,134.42z M18.16,134.4l-0.04-0.07L18.16,134.4z M17.92,133.97l-0.28-0.53L17.92,133.97z M17.7,133.53l-0.04-0.06L17.7,133.53
		z M36.86,133.53l0.25-0.49l-0.03,0.09l0.03-0.09L36.86,133.53z M36.89,133.47l0.03-0.06L36.89,133.47z M17.64,133.41l-0.19-0.41h0
		L17.64,133.41z M17.44,132.94l-0.17-0.42v0L17.44,132.94z M37.23,132.79l0.17-0.5L37.23,132.79z M37.24,132.76l0.03-0.1
		L37.24,132.76z M17.32,132.62l-0.11-0.31L17.32,132.62z M37.37,132.41l0.14-0.52L37.37,132.41z M37.38,132.4l0.02-0.11L37.38,132.4
		z M17.16,132.15l-0.03-0.06L17.16,132.15z M37.49,132.02l0.07-0.34L37.49,132.02z M17.04,131.68l-0.04-0.1L17.04,131.68l-0.15-0.57
		L17.04,131.68z M37.59,131.62l0.08-0.52l0.03-0.42v0.11v-0.11l-0.03,0.42v-0.01l-0.01,0.13l0.01-0.12L37.59,131.62z M37.59,131.62
		l0.01-0.13L37.59,131.62z M16.92,131.2l-0.03-0.09L16.92,131.2l-0.08-0.41L16.92,131.2z M16.85,130.73l-0.03-0.1L16.85,130.73
		l-0.08-0.58L16.85,130.73z M37.71,130.45l0-0.19l0.01,0.08l-0.01-0.08L37.71,130.45z M37.72,130.39l-0.01-0.13L37.72,130.39z
		 M16.79,130.24l-0.01-0.06L16.79,130.24z M37.72,129.95l-0.02-0.11L37.72,129.95z M16.74,129.75l-0.01-0.58L16.74,129.75z
		 M37.7,129.52L37.7,129.52l-0.09-0.53l0.03,0.1l-0.03-0.1L37.7,129.52z M37.69,129.47l-0.01-0.07L37.69,129.47z M16.74,129.28
		l-0.01-0.11L16.74,129.28l0-0.23L16.74,129.28z M37.57,128.64l-0.03-0.1L37.57,128.64z M16.8,128.3l0-0.11L16.8,128.3l0.08-0.59
		L16.8,128.3z M37.47,128.24l-0.03-0.14L37.47,128.24z M37.47,128.21L37.47,128.21l-0.17-0.55L37.47,128.21z M16.87,127.81
		l0.11-0.56L16.87,127.81z M37.34,127.77l-0.19-0.54l0.02,0.05l-0.02-0.05L37.34,127.77z M37.2,127.32l-0.22-0.53L37.2,127.32z
		 M16.97,127.26l0.01-0.04L16.97,127.26z M37.02,126.87L37.02,126.87l-0.18-0.38L37.02,126.87z M17.08,126.84l0.18-0.59
		L17.08,126.84z M36.82,126.44l-0.16-0.31L36.82,126.44z M36.79,126.38l-0.02-0.03L36.79,126.38z M17.24,126.35l0.02-0.1
		L17.24,126.35z M17.34,126.05l0.1-0.3L17.34,126.05z M36.6,126l-0.3-0.51L36.6,126z M36.56,125.94l-0.01-0.02L36.56,125.94z
		 M17.41,125.88l0.02-0.09L17.41,125.88z M36.35,125.57l-0.32-0.49l0.06,0.07l-0.06-0.07L36.35,125.57z M17.54,125.54l0.11-0.25v0
		L17.54,125.54z M17.62,125.38l0.28-0.59L17.62,125.38z M36.02,125.04l-0.28-0.38L36.02,125.04z M17.85,124.9l0.02-0.04L17.85,124.9
		l0.36-0.67l0.26-0.55l-0.25,0.56L17.85,124.9z M35.8,124.72l-0.37-0.46l0.04,0.04l-0.04-0.04L35.8,124.72z M35.49,124.31
		l-0.32-0.36L35.49,124.31z M35.15,123.91l-0.06-0.05L35.15,123.91l-0.43-0.45l0.09,0.07l-0.09-0.07L35.15,123.91z M18.44,123.73
		l0.06-0.13l-0.05,0.11l0.05-0.11L18.44,123.73z M34.79,123.51l-0.44-0.42L34.79,123.51z M18.59,123.44l0.13-0.24L18.59,123.44z
		 M18.65,123.33L18.65,123.33L18.65,123.33l0.31-0.5h0L18.65,123.33z M34.43,123.15l-0.48-0.42l0.07,0.04l-0.07-0.04L34.43,123.15z
		 M18.88,122.95l0.03-0.05L18.88,122.95z M19.04,122.72l0.16-0.24L19.04,122.72z M33.85,122.64l-0.33-0.26l0.09,0.04l-0.51-0.38
		l0.51,0.38l-0.09-0.04L33.85,122.64z M19.13,122.61l0.06-0.1L19.13,122.61z M19.4,122.27l0.09-0.12L19.4,122.27z M33.16,122.1
		l-0.43-0.3L33.16,122.1z M19.7,121.96l0.09-0.11L19.7,121.96z M32.7,121.77l-0.08-0.04L32.7,121.77z M20.02,121.66l0.08-0.08
		L20.02,121.66l0.44-0.36h0L20.02,121.66z M32.24,121.47l-0.08-0.04L32.24,121.47z M32.24,121.47l-0.58-0.32c0,0,0,0,0-0.01l0,0
		l-0.31-0.15l0.31,0.15c0,0,0,0,0,0h0L32.24,121.47z M20.73,121.13l0.09-0.07L20.73,121.13z M20.95,120.99l0.17-0.11L20.95,120.99z
		 M31.26,120.93l-0.55-0.24l-0.57-0.22l0.1,0.02l-0.1-0.02l0.57,0.22l-0.04-0.02l0,0l0.08,0.03l-0.03-0.02L31.26,120.93z
		 M31.18,120.9l-0.02-0.01L31.18,120.9z M21.11,120.88l0.03-0.02L21.11,120.88z M21.12,120.88l0.1-0.06L21.12,120.88z M21.51,120.67
		l0.11-0.06L21.51,120.67z M30.23,120.49l-0.62-0.21L30.23,120.49z M21.94,120.48l0.1-0.06l-0.06,0.03l0.06-0.03L21.94,120.48
		l0.45-0.19l-0.02,0l0.02,0l0.09-0.04l-0.09,0.04l0.53-0.17l-0.08,0.02l0.11-0.03l-0.02,0l0.18-0.05l-0.18,0.05l-0.53,0.18
		L21.94,120.48z M29.7,120.31L29.7,120.31l-0.62-0.18l0.08,0.01l-0.08-0.01L29.7,120.31z M29.17,120.14l-0.62-0.14l0.08,0l-0.08,0
		L29.17,120.14z M23.31,120.02l0.09-0.03L23.31,120.02z M28.44,119.97L28,119.9h0.09h-0.09L28.44,119.97z M23.71,119.92l0.19-0.04
		L23.71,119.92z M23.79,119.91l0.06-0.02L23.79,119.91z M28.04,119.89l-0.57-0.07l0.08-0.01l-0.63-0.06H27h-0.08l0.63,0.06
		l-0.08,0.01L28.04,119.89z M24.01,119.87l0.38-0.07h0L24.01,119.87z M24.3,119.82l0.62-0.07h0L24.3,119.82z M26.96,119.75
		l-0.57-0.03l0.09-0.01l-0.63,0l0.04,0l-0.04,0l0.63,0l-0.09,0.01L26.96,119.75z M25.33,119.72l0.61-0.02L25.33,119.72z"/>
	<polygon class="st1" points="123.29,13.73 123.86,13.41 124.48,13.09 125.12,12.81 125.76,12.58 126.41,12.38 127.06,12.21 
		127.72,12.09 128.38,11.99 129.04,11.94 129.7,11.92 130.36,11.95 131.01,12.01 131.66,12.1 132.3,12.23 132.94,12.4 133.58,12.6 
		134.19,12.84 134.8,13.11 135.4,13.41 135.99,13.74 136.55,14.11 137.11,14.53 137.64,14.95 138.17,15.41 138.67,15.92 
		139.16,16.43 139.63,16.98 140.07,17.56 140.5,18.17 140.9,18.81 141.3,19.47 141.63,20.12 141.61,20.07 141.92,20.65 
		142.24,21.26 142.52,21.9 142.75,22.54 142.95,23.19 143.12,23.84 143.24,24.49 143.34,25.14 143.4,25.8 143.42,26.46 
		143.42,27.11 143.38,27.76 143.3,28.4 143.2,29.04 143.06,29.66 142.89,30.29 142.68,30.91 142.46,31.51 142.2,32.1 141.91,32.68 
		141.6,33.25 141.26,33.8 140.88,34.35 140.49,34.87 140.07,35.38 139.62,35.87 139.14,36.34 138.65,36.8 138.14,37.24 137.6,37.65 
		137.03,38.04 136.48,38.39 134.27,34.91 134.79,34.58 134.71,34.64 135.2,34.29 135.12,34.35 135.59,33.99 135.52,34.06 
		135.96,33.67 135.9,33.73 136.33,33.34 136.27,33.39 136.67,32.99 136.6,33.07 136.98,32.64 136.93,32.71 137.29,32.27 
		137.23,32.34 137.57,31.89 137.51,31.97 137.82,31.51 137.78,31.6 138.07,31.13 138.01,31.21 138.28,30.72 138.24,30.81 
		138.48,30.31 138.44,30.4 138.66,29.9 138.63,29.99 138.82,29.47 138.79,29.57 138.95,29.06 138.92,29.16 139.07,28.63 
		139.04,28.73 139.16,28.21 139.13,28.31 139.22,27.77 139.21,27.87 139.28,27.33 139.27,27.43 139.3,26.89 139.3,27.01 
		139.3,26.46 139.3,26.56 139.29,26.01 139.29,26.12 139.25,25.57 139.26,25.7 139.18,25.15 139.19,25.25 139.08,24.7 139.11,24.8 
		138.97,24.25 139,24.36 138.83,23.83 138.86,23.93 138.66,23.39 138.71,23.49 138.47,22.95 138.52,23.05 138.26,22.52 138.3,22.62 
		138,22.07 137.67,21.43 137.7,21.5 137.36,20.91 137.41,20.99 137.05,20.43 137.1,20.5 136.73,19.97 136.78,20.05 136.39,19.55 
		136.46,19.62 136.04,19.13 136.11,19.21 135.7,18.75 135.75,18.82 135.33,18.39 135.4,18.47 134.96,18.08 135.02,18.14 
		134.56,17.77 134.64,17.83 134.17,17.49 134.27,17.55 133.79,17.24 133.87,17.3 133.38,17 133.48,17.06 132.97,16.8 133.09,16.86 
		132.57,16.63 132.66,16.67 132.14,16.47 132.26,16.51 131.73,16.34 131.85,16.38 131.33,16.23 131.43,16.25 130.89,16.15 
		131.01,16.18 130.48,16.1 130.59,16.11 130.05,16.06 130.16,16.06 129.61,16.04 129.74,16.04 129.2,16.06 129.3,16.05 128.76,16.1 
		128.89,16.09 128.34,16.15 128.44,16.14 127.9,16.24 128.01,16.22 127.47,16.35 127.59,16.32 127.04,16.49 127.15,16.46 
		126.61,16.66 126.71,16.61 126.19,16.85 126.28,16.8 125.75,17.07 125.85,17.02 125.33,17.31 123.29,13.73 	"/>
	<path class="st1" d="M136.48,38.4l-2.22-3.49l0.52-0.33l-0.07,0.06l0.07-0.06l-0.51,0.34L136.48,38.4l0.54-0.36l0.57-0.39
		l0.54-0.41l0.52-0.44l0.49-0.46l0.47-0.47l0.46-0.49l0.42-0.51l0.39-0.53l0.38-0.55l0.34-0.55l0.32-0.57l0.29-0.58l0.25-0.58
		l0.23-0.6l0.2-0.62l0.18-0.63l0.13-0.63l0.1-0.64l0.08-0.64l0.05-0.65v-0.65l-0.02-0.66l-0.06-0.66l-0.1-0.65l-0.12-0.65
		l-0.17-0.65l-0.2-0.65l-0.23-0.64l-0.28-0.64l-0.32-0.62l-0.31-0.57l0.32,0.57l0.32,0.62l0.28,0.64l0.23,0.64l0.2,0.65l0.17,0.65
		l0.12,0.65l0.1,0.65l0.06,0.66l0.02,0.66v0.65l-0.05,0.65l-0.08,0.64l-0.1,0.64l-0.13,0.63l-0.18,0.63l-0.2,0.62l-0.23,0.6
		l-0.25,0.58l-0.29,0.58l-0.32,0.57l-0.34,0.55l-0.38,0.55l-0.39,0.53l-0.42,0.51l-0.46,0.49l-0.47,0.47l-0.49,0.46l-0.52,0.44
		l-0.54,0.41l-0.57,0.39L136.48,38.4z M135.03,34.41l0.17-0.12L135.03,34.41z M135.13,34.35l0.04-0.03L135.13,34.35z M135.52,34.06
		l0.07-0.07L135.52,34.06l0.22-0.19L135.52,34.06z M135.9,33.74l0.35-0.32L135.9,33.74z M136.27,33.4l0.06-0.06L136.27,33.4z
		 M136.33,33.34l0.34-0.35l-0.04,0.06l0.04-0.06L136.33,33.34z M136.61,33.07l0.29-0.34L136.61,33.07z M136.93,32.71l0.35-0.44
		L136.93,32.71z M136.94,32.7l0.04-0.06L136.94,32.7z M137.51,31.98l0.05-0.09L137.51,31.98z M137.6,31.84l0.21-0.33l-0.04,0.1
		l0.04-0.09L137.6,31.84z M137.97,31.29l0.09-0.15l0.22-0.42l-0.04,0.1l0.04-0.1l-0.22,0.42l0,0l0,0l-0.04,0.08l0.04-0.08
		L137.97,31.29z M138.37,30.55l0.11-0.24L138.37,30.55z M138.44,30.41l0.21-0.51l-0.02,0.07l0.02-0.07L138.44,30.41z M138.63,29.99
		l0.18-0.52l-0.02,0.11l0.02-0.11L138.63,29.99z M138.79,29.58l0.16-0.52l-0.02,0.11l0.02-0.11L138.79,29.58z M138.99,28.9
		l0.07-0.26l-0.01,0.04l0.01-0.04L138.99,28.9z M139.05,28.74L139.05,28.74l0.04-0.18L139.05,28.74z M139.14,28.31l0.05-0.36
		L139.14,28.31z M139.14,28.27l0.01-0.06L139.14,28.27z M139.22,27.87l0-0.1L139.22,27.87z M139.27,27.43l0-0.09L139.27,27.43z
		 M139.27,27.39l0.01-0.06L139.27,27.39z M139.3,27.01l-0.01-0.12L139.3,27.01z M139.3,26.56l-0.02-0.55l-0.03-0.32l0.04,0.43
		l-0.01-0.11L139.3,26.56z M139.26,25.67l-0.02-0.1L139.26,25.67z M139.25,25.63l-0.07-0.44l-0.11-0.49l0.04,0.1l-0.04-0.1
		l0.11,0.49l0-0.04l0,0.05l0.01,0.05l-0.01-0.05L139.25,25.63z M139.11,24.77l-0.15-0.51l0.01,0.02l-0.01-0.02L139.11,24.77z
		 M139,24.36l-0.17-0.53L139,24.36z M138.87,23.93l-0.02-0.04L138.87,23.93z M138.71,23.53l-0.05-0.14l0.05,0.1l-0.05-0.1
		L138.71,23.53z M138.52,23.05l-0.13-0.26L138.52,23.05z M138.49,23l-0.02-0.04L138.49,23z M138.31,22.62l-0.05-0.1l0,0.01
		L138,22.07l-0.34-0.64L138.31,22.62l-0.04-0.07L138.31,22.62z M137.7,21.5l-0.34-0.58L137.7,21.5z M137.41,20.99l-0.05-0.07
		L137.41,20.99z M137.27,20.77l-0.22-0.33L137.27,20.77z M137.1,20.49l-0.01-0.01L137.1,20.49z M141.63,20.12l-0.34-0.65l-0.39-0.66
		l-0.4-0.64l-0.43-0.6l-0.45-0.58l-0.47-0.55l-0.48-0.52l-0.51-0.51l-0.53-0.46l-0.54-0.43l-0.56-0.41l-0.56-0.37l-0.58-0.34
		l-0.6-0.3l-0.61-0.27l-0.61-0.23l-0.64-0.2l-0.64-0.17l-0.64-0.13l-0.65-0.09l-0.65-0.06l-0.66-0.03l-0.66,0.02l-0.66,0.05
		l-0.66,0.1l-0.66,0.13l-0.65,0.17l-0.65,0.2l-0.64,0.24l-0.63,0.28l-0.63,0.31l-0.57,0.33l2.05,3.57l0.51-0.29l-0.51,0.3
		l-2.06-3.57c0,0,0-0.01,0-0.01l0.57-0.33l0.63-0.31l0.64-0.28l0.64-0.24l0.65-0.2l0.65-0.17l0.66-0.13l0.66-0.1l0.66-0.05
		l0.66-0.02l0.66,0.03l0.65,0.06l0.65,0.09l0.64,0.13l0.64,0.17l0.64,0.2l0.61,0.23l0.61,0.27l0.6,0.3l0.58,0.34l0.56,0.37
		l0.56,0.41l0.54,0.43l0.53,0.46l0.51,0.51l0.48,0.52l0.47,0.55l0.45,0.58l0.43,0.61l0.4,0.64l0.39,0.66L141.63,20.12z
		 M136.79,20.05l-0.4-0.5l0.08,0.06l-0.08-0.06L136.79,20.05z M136.76,20.02l-0.04-0.04L136.76,20.02z M136.45,19.59l-0.41-0.46
		L136.45,19.59z M135.76,18.82L135.76,18.82l-0.42-0.41l-0.22-0.19l0.22,0.19l-0.01-0.01l0.08,0.07l-0.07-0.06L135.76,18.82z
		 M135.03,18.13l-0.08-0.05L135.03,18.13z M135.03,18.13l-0.47-0.36L135.03,18.13z M134.65,17.83l-0.05-0.04L134.65,17.83z
		 M134.28,17.55l-0.49-0.31L134.28,17.55z M134.25,17.53l-0.08-0.04L134.25,17.53z M133.76,17.23l-0.38-0.22l0.11,0.05l-0.11-0.05
		L133.76,17.23z M125.75,17.08l0.34-0.18L125.75,17.08z M133.24,16.94l-0.27-0.13v0L133.24,16.94z M133.09,16.85l-0.53-0.21
		l0.1,0.02l-0.1-0.02L133.09,16.85z M126.19,16.85l0.08-0.05L126.19,16.85l0.3-0.14L126.19,16.85z M126.61,16.66l0.09-0.06
		L126.61,16.66z M126.82,16.58l0.23-0.09l-0.01,0l0.11-0.04l-0.1,0.04l0.34-0.11l-0.34,0.11L126.82,16.58z M132.26,16.51l-0.22-0.07
		L132.26,16.51z M131.85,16.37l-0.12-0.02L131.85,16.37z M127.47,16.36l0.54-0.15l0,0L127.47,16.36z M127.55,16.33l0.04-0.01
		L127.55,16.33z M131.43,16.25l-0.27-0.04L131.43,16.25z M127.9,16.25l0.54-0.11l-0.01,0L127.9,16.25z M131.4,16.25l-0.07-0.01
		L131.4,16.25z M131.01,16.17l-0.16-0.02L131.01,16.17z M130.95,16.16l-0.06-0.01L130.95,16.16z M128.34,16.16l0.33-0.05
		L128.34,16.16z M130.59,16.1l-0.54-0.03l0.11-0.01l-0.55-0.01l0.06-0.01l-0.06,0.01l0.55,0.01l-0.11,0.01L130.59,16.1z
		 M130.53,16.1h-0.06H130.53z M128.76,16.1l0.13-0.02L128.76,16.1z M128.76,16.1l0.54-0.06l-0.1,0.02l0.54-0.03l-0.54,0.03l0.1-0.02
		L128.76,16.1z"/>
	<polygon class="st1" points="13.6,123.68 32.37,86.38 43.8,83.72 48.18,89.62 46.52,88.79 53.23,88.79 59.08,97.67 40.21,136.23 
		36.52,134.42 54.85,96.92 54.99,98.95 50.39,91.99 52.12,92.92 45.48,92.92 41.3,87.26 43.42,88.04 34.26,90.18 35.62,89.11 
		17.29,125.54 13.6,123.68 	"/>
	<path class="st1" d="M40.22,136.23l-3.7-1.8l17.82-36.47L51,92.91l-5.52,0.01l-3.38-4.57l-6.92,1.63l-17.89,35.57l-3.69-1.86
		c0,0,0,0,0-0.01l18.77-37.29l11.43-2.67l3.77,5.09l5.66-0.01l5.85,8.87L40.22,136.23z M54.34,97.96l-17.81,36.47l3.7,1.8
		l18.85-38.56l-5.85-8.86h-5.65l0.61,0.82l-1.66-0.82h1.05l-3.77-5.08l-11.42,2.67l-18.76,37.29l3.68,1.86l17.89-35.56l-0.92,0.21
		l1.36-1.08l-0.44,0.87l6.92-1.63l-0.8-1.08l2.12,0.78l-1.32,0.31l3.38,4.56H51l-0.61-0.92l1.73,0.92H51L54.34,97.96l0.51-1.05
		l0.14,2.05L54.34,97.96z M54.34,97.96l0.65,0.99l-0.14-2.04L54.34,97.96z M50.39,91.99L51,92.91h1.12L50.39,91.99z M35.62,89.1
		l-1.36,1.08l0.92-0.21L35.62,89.1z M47.57,88.8h-1.05l1.66,0.82L47.57,88.8z M41.3,87.26l0.8,1.08l1.31-0.31L41.3,87.26z"/>
	<polygon class="st1" points="126.49,16.66 66.23,54.68 67,52.09 67.35,52.84 65.76,51.64 69.57,52.19 69.1,52.18 95.43,49.95 
		77.41,61.67 78.18,59.13 80.34,64.18 80.38,64.89 80.4,65.2 80.41,65.49 80.42,65.74 80.43,65.99 80.44,66.28 80.44,66.24 
		80.46,66.54 80.49,67.05 80.44,67.5 80.38,67.87 80.21,68.48 80.02,69.08 79.82,69.63 79.82,69.61 79.63,70.13 79.65,70.08 
		79.48,70.59 79.52,70.47 79.39,70.94 79.43,70.77 79.39,70.98 79.4,70.85 79.36,71.31 79.2,71.73 79.07,72 78.84,72.38 
		78.59,72.77 78.29,73.15 77.99,73.55 77.67,73.94 77.34,74.33 77.02,74.73 76.68,75.13 76.69,75.11 76.38,75.49 76.39,75.48 
		76.09,75.85 76.1,75.83 75.83,76.19 75.86,76.14 75.62,76.47 75.67,76.39 75.47,76.68 75.53,76.59 75.38,76.84 75.49,76.63 
		75.45,76.74 75.49,76.62 75.46,76.72 72.43,74.25 134.86,34.55 137.06,38.03 69.46,81.02 71.65,75.11 71.79,74.82 72.02,74.42 
		72.28,74.05 72.57,73.66 72.87,73.28 73.19,72.88 73.52,72.48 73.85,72.09 74.18,71.7 74.17,71.71 74.49,71.32 74.48,71.33 
		74.78,70.96 74.76,70.99 75.04,70.63 75,70.68 75.25,70.35 75.19,70.42 75.39,70.13 75.32,70.25 75.46,69.99 75.39,70.13 
		75.45,70.02 75.37,70.21 75.4,70.11 75.29,70.6 75.32,70.32 75.38,69.95 75.55,69.33 75.74,68.75 75.94,68.2 76.13,67.68 
		76.11,67.74 76.28,67.25 76.24,67.36 76.37,66.89 76.33,67.06 76.37,66.84 76.36,66.98 76.38,66.77 76.37,67.12 76.35,66.77 
		76.32,66.45 76.31,66.17 76.3,65.92 76.29,65.66 76.28,65.39 76.29,65.42 76.27,65.12 76.24,64.78 76.41,65.48 73.7,59.16 
		86.3,50.97 87.6,54.76 69.21,56.3 64.05,55.57 62.51,52.15 124.29,13.17 126.49,16.66 	"/>
	<path class="st1" d="M69.46,81.02l2.19-5.91l0.14-0.3l0.24-0.4l0.26-0.37l0.29-0.39l0.62-0.77l1-1.19l0.59-0.74l-0.01,0.04
		l0.11-0.14L74.76,71l0.01-0.04l-0.6,0.76l-0.98,1.18l-0.62,0.77l-0.29,0.39l-0.26,0.37l-0.23,0.4l-0.13,0.29L69.46,81.02
		l67.6-42.99l-2.21-3.48L79.86,69.53l-0.23,0.6l0.21-0.59l-7.41,4.71l3.03,2.45l0.01-0.02l0.02-0.06l-0.02,0.06l0.02-0.06
		l-0.01,0.02l0.01-0.04l-0.02,0.06l0.05-0.09l-0.05,0.09l-0.02,0.05l0.01-0.02l-0.01,0.03l0.01-0.03l0,0l-0.03,0.05l0.03-0.05
		l-0.01,0l-0.07,0.14l0.07-0.14l-3.03-2.45l7.42-4.72l0.17-0.46l0.19-0.59l0.17-0.62l0.07-0.37l0.04-0.45l-0.04-0.8l0.05,0.8
		l-0.04,0.45l-0.07,0.37l-0.17,0.62l-0.19,0.59l-0.16,0.44l54.99-34.98l2.22,3.49L69.46,81.02z M75.46,76.71l0-0.02L75.46,76.71z
		 M75.46,76.71L75.46,76.71l0.01-0.02L75.46,76.71z M75.48,76.69l0.02-0.05L75.48,76.69l0.19-0.3L75.48,76.69z M75.48,76.63l0-0.02
		L75.48,76.63z M75.48,76.63l0-0.02L75.48,76.63z M75.62,76.48l0.05-0.09L75.62,76.48z M75.7,76.36l0.16-0.22L75.7,76.36z
		 M75.83,76.19l0.26-0.36l0,0.03l0.6-0.75l0.32-0.38l0.97-1.19l0.59-0.77l0.26-0.39L79.06,72l0.13-0.27l0.16-0.43l0.04-0.45
		l-0.04,0.45l-0.16,0.43L79.07,72l-0.22,0.38l-0.26,0.39L78,73.55l-1.9,2.31l0-0.03L75.83,76.19z M79.39,70.98v-0.04V70.98
		l0.01-0.08L79.39,70.98z M79.39,70.94l0-0.09L79.39,70.94l0.02-0.16L79.39,70.94L79.39,70.94L79.39,70.94z M79.41,70.9l0.02-0.13
		L79.41,70.9z M75.01,70.68l0.31-0.44l-0.08,0.13l0.01-0.02l-0.05,0.07l0.03-0.05L75.01,70.68z M79.46,70.67l0.05-0.21L79.46,70.67z
		 M75.01,70.66l0.02-0.03L75.01,70.66z M75.3,70.6l0.02-0.35l0.02-0.03l-0.02,0.1L75.3,70.6l0.08-0.41L75.3,70.6z M79.49,70.59
		l0.02-0.1L79.49,70.59l0.16-0.51L79.49,70.59z M75.32,70.25L75.32,70.25l0.01-0.03l0.02-0.02l0,0.02l0.04-0.08L75.32,70.25z
		 M75.33,70.22l0.05-0.27l0.17-0.62l0.19-0.58l0.39-1.08l-0.01,0.05l0.01-0.05l-0.18,0.53l-0.2,0.55l-0.19,0.58l-0.17,0.62
		l-0.04,0.24L75.33,70.22z M75.38,70.21l0.01-0.06L75.38,70.21z M75.38,70.2l0.02-0.09L75.38,70.2z M75.36,70.19l0.03-0.07
		L75.36,70.19z M75.4,70.16l0.04-0.13l-0.02,0.04l0.02-0.06l-0.01,0.02l0.02-0.04l-0.08,0.15l0.08-0.15L75.4,70.16z M75.4,70.13
		l0.01-0.03L75.4,70.13z M76.12,67.74l0.05-0.15L76.12,67.74z M76.25,67.36L76.25,67.36l0.1-0.45l-0.04-0.46l-0.04-1.07l0.02,0.03
		l-0.03-0.31l-2.57-5.95l5.71-3.71l-10.19,0.86l-5.16-0.74l-1.54-3.42l61.78-38.98l2.2,3.49c0,0,0,0.01,0,0.01L70.36,52.08
		l25.07-2.13L78.87,60.73l1.48,3.45l0.1,2.1l-0.08-1.39l-0.03-0.71l-1.48-3.45l-1.45,0.94l0.76-2.55l0.69,1.6l16.56-10.78
		l-25.06,2.13l-4.13,2.6l0.65-2.2l-1.13-0.84l3.63,0.52l0.97-0.08l56.12-35.42l-2.19-3.48L62.52,52.15l1.54,3.41l5.16,0.74
		l10.21-0.86l6.88-4.47l1.31,3.79l-8.19,0.69l-5.71,3.72l2.56,5.95l-0.02-0.33l0.18,0.69l-0.14-0.33l0.02,0.28l-0.02-0.03l0.03,0.53
		l0.05,0.96v0l0,0.03l0-0.01v-0.05v0.05v0l0,0.06l0-0.05l0,0.05l0.01,0.16v-0.35v0.35l-0.02-0.18l0,0.04l0-0.05l0,0.01l-0.01,0.13
		l0.01-0.13L76.25,67.36z M76.36,66.98L76.36,66.98L76.36,66.98z M76.35,66.92l0,0.02L76.35,66.92L76.35,66.92z M76.36,66.91l0,0.02
		v-0.04L76.36,66.91z M76.36,66.9L76.36,66.9l0-0.01L76.36,66.9z M76.36,66.89L76.36,66.89L76.36,66.89L76.36,66.89z M76.27,65.14
		l0.14,0.33l-0.18-0.69L76.27,65.14z M78.18,59.13l-0.76,2.54l1.45-0.94L78.18,59.13z M86.3,50.97l-6.87,4.47l8.17-0.69L86.3,50.97z
		 M66.88,52.49l-0.64,2.19l4.12-2.6l-0.97,0.08l0.18,0.02H69.1l0.29-0.02l-3.63-0.51L66.88,52.49l0.12-0.4l0.36,0.75L66.88,52.49z
		 M66.88,52.49l0.47,0.35L67,52.09L66.88,52.49z M69.39,52.16l-0.29,0.02h0.47L69.39,52.16z M76.26,67.31l0.01-0.06L76.26,67.31z"/>
	<polygon class="st2" points="66.86,85.04 71.14,92.41 72.09,100.37 72.09,106.61 71.14,111.71 68.76,117.95 66.86,124.77 
		67.81,129.87 69.7,134.98 73.98,140.09 81.6,142.37 91.11,145.2 101.09,145.2 113.92,142.37 122.48,141.23 126.76,138.39 
		131.99,134.98 134.36,129.87 134.36,123.06 132.94,116.82 131.04,111.71 125.81,106.61 121.53,104.33 113.92,102.63 104.41,102.63 
		95.39,100.37 88.25,97.52 79.69,91.28 73.04,86.17 64.47,78.79 66.86,85.04 	"/>
	<path class="st3" d="M91.11,145.2l-17.13-5.11l-4.28-5.11l-1.89-5.11l-0.95-5.11l1.9-6.81l2.38-6.24l0.95-5.11v-6.24l-0.95-7.96
		l-4.28-7.37l-2.39-6.25l8.58,7.38l6.65,5.11l8.56,6.24l7.13,2.85l9.02,2.26h9.51l7.61,1.7l4.28,2.27l5.23,5.11l1.9,5.11l1.42,6.24
		v6.81l-2.37,5.11l-5.23,3.4l-4.28,2.85l-8.56,1.13l-12.84,2.83H91.11z M66.86,85.04l4.28,7.37l0.95,7.96v6.24l-0.95,5.11
		l-2.38,6.24l-1.9,6.81l0.95,5.11l1.89,5.11l4.28,5.11l17.12,5.11h9.98l12.84-2.83l8.56-1.13l4.28-2.85l5.23-3.4l2.37-5.11v-6.8
		l-1.42-6.24l-1.9-5.11l-5.23-5.11l-4.28-2.27l-7.6-1.7h-9.51l-9.03-2.26l-7.14-2.85l-8.56-6.24l-6.65-5.11l-8.57-7.38L66.86,85.04z
		"/>
	<path class="st1" d="M66.88,85.03h-0.01l4.29,7.38l0.95,7.95v6.24l-0.95,5.12l-2.39,6.24l0,0l-1.89,6.81v-0.01l0.95,5.11h-0.01
		l1.9,5.11v-0.01l4.28,5.11h-0.01l7.6,2.26l9.51,2.85v-0.01h9.98v0.01l12.84-2.85l8.56-1.13h-0.01l4.28-2.83l5.23-3.41l-0.01,0.01
		l2.39-5.11h-0.01v-6.81l0.01,0.01l-1.43-6.24l0,0l-1.9-5.11l0.01,0.01l-5.23-5.11l0,0l-4.28-2.27h0.01l-7.6-1.7l0,0h-9.51
		l-9.04-2.26l-7.13-2.85l-8.56-6.24l-6.66-5.11l-8.56-7.38l0.03-0.02L66.88,85.03L66.88,85.03z M64.43,78.72l8.62,7.44l0,0
		l6.65,5.11l0,0l8.56,6.24l0,0l7.12,2.83l0,0l9.04,2.27l-0.01-0.01h9.51l7.62,1.71l4.29,2.26l5.23,5.12l1.9,5.12l1.42,6.24v6.82
		l-2.37,5.12l-5.24,3.41l0,0l-4.28,2.85l-8.57,1.13h0.01l-12.85,2.83H91.1l-9.51-2.83l-7.62-2.27l-4.28-5.12l-1.9-5.11l-0.95-5.12
		l1.9-6.81l2.37-6.25v0.01l0.95-5.11l0,0v-6.24l0,0l-0.95-7.94l0,0l-4.28-7.37L64.43,78.72L64.43,78.72z"/>
	<path class="st1" d="M91.09,145.22l-17.13-5.11L69.69,135l-1.91-5.11l-0.95-5.12l1.9-6.81l2.38-6.25l0.95-5.1v-6.24l-0.95-7.94
		l-4.28-7.37l-2.41-6.34c0,0,0,0,0.01,0c0,0,0,0,0,0l8.62,7.44l6.65,5.11l8.56,6.24l7.12,2.83l9.03,2.27h-0.01l-9.03-2.26
		l-7.13-2.83l-8.56-6.24l-6.65-5.11l-8.61-7.42l0.03,0.07l0.02-0.02l0.03,0.08l8.5,7.33l6.66,5.11l8.56,6.24l7.14,2.85l9.03,2.26
		h9.51l7.61,1.7l4.27,2.28l5.23,5.11l1.89,5.1l1.44,6.24c0,0,0,0,0,0l0,0h0l0,0c0,0-0.01,0-0.01,0l0.01,4.29l-0.01-4.29l0,0
		c0,0,0,0,0,0c0,0,0,0,0,0l0,0c0,0,0.01,0,0.01,0l-1.44-6.23l-1.9-5.11l-5.22-5.09l-4.28-2.28l-7.59-1.7h-9.51l-9.04-2.26
		l-7.14-2.85l-8.56-6.24l-6.66-5.11l-8.49-7.32l2.36,6.15c0,0,0,0,0,0c0,0,0,0,0,0h-0.01l4.29,7.37l0.95,7.96v6.24l-0.95,5.12
		l-2.39,6.24l-1.89,6.81l0.95,5.09l1.89,5.11l4.28,5.09l7.59,2.26l9.51,2.85l9.98-0.01l12.84-2.84l8.56-1.13l4.27-2.83l5.23-3.41
		l2.28-4.9l-2.28,4.92l-5.22,3.4l-4.28,2.83l-8.55,1.13l-12.84,2.85l-9.98-0.01l-17.12-5.1l-4.27-5.11l-1.91-5.1l-0.94-5.11
		l1.89-6.8l2.39-6.24l0.95-5.12v-6.24l-0.95-7.96l-4.29-7.38l0.01,0l-2.36-6.16l-0.04-0.04l2.37,6.22l4.28,7.37l0.95,7.94v6.24
		l-0.95,5.11l-2.38,6.24l-1.9,6.81l0.95,5.12l1.9,5.11l4.28,5.11l7.61,2.28L91.09,145.22l9.99-0.01l12.85-2.83l8.56-1.13l4.27-2.85
		l5.24-3.4l2.37-5.12v-6.82l-1.42-6.24l-1.9-5.12l-5.23-5.11l-4.29-2.26l-7.61-1.71h-8.62l8.62-0.01l7.62,1.71l4.29,2.26l5.23,5.12
		l1.9,5.12l1.42,6.24v6.82l-2.37,5.13l-5.24,3.4l-4.28,2.85l-8.57,1.13l-12.84,2.83H91.09z M64.48,78.82l0.04,0.04l-0.03-0.07
		l-0.02,0.02L64.48,78.82z"/>
	<polygon class="st4" points="54.05,76.31 54.59,76.85 54.56,76.88 54.02,76.34 54.05,76.31 	"/>
	<path class="st4" d="M54.56,76.88l-0.54-0.54l0.03-0.03c0,0,0,0,0,0s0,0,0,0l0.54,0.54L54.56,76.88z M54.05,76.32l-0.03,0.02
		l0.54,0.54l0.02-0.03L54.05,76.32z"/>
	<polygon class="st5" points="0.5,155.5 155.5,155.5 155.5,0.5 0.5,0.5 0.5,155.5 	"/>
</g>
</svg>
