<?xml version="1.0" encoding="utf-8"?>
<!-- Generator: Adobe Illustrator 28.0.0, SVG Export Plug-In . SVG Version: 6.00 Build 0)  -->
<svg version="1.1" id="Layer_1" xmlns="http://www.w3.org/2000/svg" xmlns:xlink="http://www.w3.org/1999/xlink" x="0px" y="0px"
	 viewBox="0 0 156 156" style="enable-background:new 0 0 156 156;" xml:space="preserve">
<style type="text/css">
	.st0{fill-rule:evenodd;clip-rule:evenodd;fill:#FFFFFF;}
	.st1{fill:#0000FF;}
	.st2{fill-rule:evenodd;clip-rule:evenodd;fill:#0000FF;}
	.st3{font-family:'MyriadPro-Regular';}
	.st4{font-size:27.7083px;}
	.st5{letter-spacing:4.02;}
	.st6{letter-spacing:3.01;}
	.st7{fill:none;}
</style>
<g>
	<polygon class="st0" points="27.89,0 128.11,0 128.11,156 27.89,156 27.89,0 	"/>
	<polygon class="st0" points="28.4,0.98 126.81,0.98 126.81,152.98 28.4,152.98 28.4,0.98 	"/>
	<rect x="40.06" y="41.2" class="st1" width="7.92" height="91.52"/>
	<path class="st2" d="M29.04,137.94c0-7.96,6.67-14.41,14.9-14.41l0,0l0,0c8.23,0,14.9,6.45,14.9,14.41l0,0l0,0
		c0,7.96-6.67,14.41-14.9,14.41l0,0l0,0C35.71,152.35,29.04,145.9,29.04,137.94L29.04,137.94L29.04,137.94z"/>
	<path class="st1" d="M43.94,152.82c-8.48,0-15.38-6.67-15.38-14.88s6.9-14.88,15.38-14.88s15.37,6.68,15.37,14.88
		S52.42,152.82,43.94,152.82z M43.94,124c-7.95,0-14.43,6.25-14.43,13.94c0,7.68,6.47,13.93,14.43,13.93s14.43-6.25,14.43-13.93
		C58.36,130.26,51.89,124,43.94,124z"/>
	<path class="st1" d="M81.15,81.1c-22.75,0-41.26-17.93-41.26-39.98S58.41,1.14,81.15,1.14c22.75,0,41.25,17.94,41.25,39.98
		S103.9,81.1,81.15,81.1z M81.15,9.06c-18.38,0-33.34,14.38-33.34,32.06s14.96,32.06,33.34,32.06s33.34-14.38,33.34-32.06
		S99.54,9.06,81.15,9.06z"/>
	<text transform="matrix(0.996 0 0 1 51.9586 51.374)"><tspan x="0" y="0" class="st1 st3 st4 st5">K</tspan><tspan x="19.95" y="0" class="st1 st3 st4 st6">F</tspan><tspan x="36.88" y="0" class="st1 st3 st4">O</tspan></text>
	<polygon class="st7" points="28.39,155.51 127.61,155.51 127.61,0.49 28.39,0.49 28.39,155.51 	"/>
</g>
</svg>
