<?xml version="1.0" encoding="utf-8"?>
<!-- Generator: Adobe Illustrator 28.0.0, SVG Export Plug-In . SVG Version: 6.00 Build 0)  -->
<svg version="1.1" id="Layer_1" xmlns="http://www.w3.org/2000/svg" xmlns:xlink="http://www.w3.org/1999/xlink" x="0px" y="0px"
	 viewBox="0 0 157 157" style="enable-background:new 0 0 157 157;" xml:space="preserve">
<style type="text/css">
	.st0{fill-rule:evenodd;clip-rule:evenodd;fill:#FFFFFF;}
	.st1{fill:#FFFFFF;stroke:#FFFFFF;stroke-width:0;stroke-linecap:square;stroke-miterlimit:10;}
	.st2{fill-rule:evenodd;clip-rule:evenodd;fill:#0000FF;}
	.st3{fill:#0000FF;stroke:#0000FF;stroke-width:0;stroke-linecap:square;stroke-miterlimit:10;}
</style>
<g>
	<polygon class="st0" points="103.86,110.12 78.5,84.82 103.86,55.31 	"/>
	<path class="st1" d="M103.86,110.12L103.86,110.12L103.86,110.12L78.5,84.82l0,0l25.36-29.51l0,0l0,0V110.12L103.86,110.12z
		 M103.86,55.31L103.86,55.31L78.5,84.82l0,0l25.36,25.3l0,0V55.31L103.86,55.31z"/>
	<polygon class="st0" points="48.92,110.12 78.5,84.82 48.92,55.31 	"/>
	<path class="st1" d="M48.92,110.12L48.92,110.12L78.5,80.61v4.22L48.92,55.31l0,0V110.12L48.92,110.12z M48.92,55.31L48.92,55.31
		L48.92,55.31l29.58,25.3v4.22l0,0l-29.58,25.3l0,0l0,0V55.31L48.92,55.31z"/>
	<polygon class="st2" points="48.92,110.12 78.5,84.82 103.86,110.12 78.5,139.64 	"/>
	<path class="st3" d="M48.92,110.12L48.92,110.12l29.58-25.3l0,0l25.36,25.3l0,0L78.5,139.64l0,0L48.92,110.12L48.92,110.12z
		 M78.5,139.64L78.5,139.64l25.36-29.51l0,0L78.5,84.82l0,0l-29.58,25.3l0,0L78.5,139.64L78.5,139.64z"/>
	<polygon class="st2" points="103.86,55.31 78.5,80.61 48.92,55.31 	"/>
	<path class="st3" d="M103.86,55.31L103.86,55.31L103.86,55.31L78.5,84.82l0,0L48.92,55.31l0,0l0,0H103.86L103.86,55.31z
		 M48.92,55.31h4.23l25.36,25.3l0,0l25.36-25.3l0,0H48.92L48.92,55.31z"/>
	<path class="st3" d="M48.92,55.31L48.92,55.31h54.94l0,0v54.81l0,0H48.92l0,0V55.31L48.92,55.31z M48.92,110.12L48.92,110.12h54.94
		l0,0V55.31l0,0H48.92l0,0V110.12L48.92,110.12z"/>
	<polygon class="st3" points="32.01,156.5 32.01,51.09 78.5,0.5 124.99,51.09 124.99,156.5 116.53,156.5 116.53,51.09 116.53,55.31 
		74.27,13.15 82.73,13.15 40.47,55.31 40.47,51.09 40.47,156.5 	"/>
</g>
</svg>
