<?xml version="1.0" encoding="utf-8"?>
<!-- Generator: Adobe Illustrator 28.0.0, SVG Export Plug-In . SVG Version: 6.00 Build 0)  -->
<svg version="1.1" id="Layer_1" xmlns="http://www.w3.org/2000/svg" xmlns:xlink="http://www.w3.org/1999/xlink" x="0px" y="0px"
	 viewBox="0 0 156 156" style="enable-background:new 0 0 156 156;" xml:space="preserve">
<style type="text/css">
	.st0{fill-rule:evenodd;clip-rule:evenodd;fill:#FFFFFF;}
	.st1{fill:#0000FF;}
	.st2{fill:#FFFFFF;}
	.st3{fill-rule:evenodd;clip-rule:evenodd;fill:#0000FF;}
	.st4{fill:none;}
</style>
<g>
	<polygon class="st0" points="26.4,0 129.6,0 129.6,156 26.4,156 	"/>
	<polygon class="st0" points="27.82,1.49 120.59,1.49 120.59,148.81 27.82,148.81 	"/>
	<path class="st1" d="M120.13,148.33H28.28V1.97h91.85V148.33z M39.25,137.36h69.91V12.93H39.25V137.36z"/>
	<rect x="36.62" y="79.2" class="st1" width="74.04" height="7.15"/>
	<rect x="37.1" y="60.61" class="st1" width="74.03" height="7.15"/>
	<polygon class="st0" points="101.56,91.6 74.92,65.14 101.56,38.68 	"/>
	<path class="st2" d="M101.56,92.07c-0.12,0-2.96-2.37-3.05-2.46L74.58,65.47c-0.09-0.09-0.14-0.21-0.14-0.34s0.05-0.25,0.14-0.34
		l26.64-26.46c0.13-0.14,0.34-0.18,0.52-0.1c0.18,0.07,0.29,0.25,0.29,0.44V91.6c0,0.19-0.12,0.37-0.29,0.44
		C101.69,92.06,101.62,92.07,101.56,92.07z M75.59,65.14l25.49,25.32V39.82L75.59,65.14z"/>
	<polygon class="st0" points="46.85,91.6 73.97,64.9 46.85,38.2 	"/>
	<path class="st2" d="M46.85,92.07c-0.06,0-0.12-0.01-0.18-0.04c-0.18-0.07-0.29-0.25-0.29-0.44V38.2c0-0.19,0.12-0.37,0.29-0.44
		c0.18-0.07,0.38-0.04,0.52,0.1l27.12,26.7c0.09,0.09,0.14,0.21,0.14,0.34s-0.05,0.25-0.14,0.34l-27.12,26.7
		C47.09,92.03,46.97,92.07,46.85,92.07z M47.32,39.34v51.12L73.29,64.9L47.32,39.34z"/>
	<polygon class="st3" points="46.97,92.81 73.99,65.73 101.01,92.81 73.99,119.88 	"/>
	<path class="st1" d="M73.99,120.38c-0.13,0-0.26-0.05-0.35-0.14L46.62,93.16c-0.19-0.2-0.19-0.51,0-0.7l27.02-27.07
		c0.19-0.18,0.52-0.18,0.7,0l27.02,27.07c0.2,0.2,0.2,0.51,0,0.7l-27.02,27.07C74.24,120.33,74.12,120.38,73.99,120.38z
		 M47.67,92.81l26.32,26.37l26.32-26.37L73.99,66.44L47.67,92.81z"/>
	<polygon class="st3" points="101.08,38.68 74.44,64.42 47.8,38.68 	"/>
	<path class="st1" d="M74.44,64.9c-0.12,0-0.24-0.04-0.33-0.13L47.47,39.02c-0.14-0.14-0.18-0.34-0.11-0.52s0.25-0.3,0.44-0.3h53.29
		c0.2,0,0.37,0.12,0.44,0.3s0.03,0.38-0.11,0.52L74.77,64.77C74.68,64.85,74.56,64.9,74.44,64.9z M48.98,39.15l25.46,24.61
		L99.9,39.15H48.98z"/>
	<path class="st1" d="M101.8,93.5H46.61c-0.13,0-0.24-0.11-0.24-0.24v-55.3c0-0.13,0.11-0.24,0.24-0.24h55.19
		c0.13,0,0.24,0.11,0.24,0.24v55.3C102.04,93.4,101.93,93.5,101.8,93.5z M46.85,93.03h54.71V38.2H46.85V93.03z"/>
	<polygon class="st4" points="26.88,155.52 129.12,155.52 129.12,0.48 26.88,0.48 	"/>
</g>
<polygon class="st2" points="100.48,94.05 102.38,94.32 102.38,35.71 101.43,35.71 101.43,93.16 "/>
<rect x="46" y="35.71" class="st2" width="0.96" height="58.87"/>
</svg>
