<?xml version="1.0" encoding="utf-8"?>
<!-- Generator: Adobe Illustrator 28.0.0, SVG Export Plug-In . SVG Version: 6.00 Build 0)  -->
<svg version="1.1" id="Layer_1" xmlns="http://www.w3.org/2000/svg" xmlns:xlink="http://www.w3.org/1999/xlink" x="0px" y="0px"
	 viewBox="0 0 156 156" style="enable-background:new 0 0 156 156;" xml:space="preserve">
<style type="text/css">
	.st0{fill-rule:evenodd;clip-rule:evenodd;fill:#FFFFFF;}
	.st1{fill:#0000FF;}
	.st2{font-family:'MyriadPro-Regular';}
	.st3{font-size:27.2912px;}
	.st4{fill:none;}
</style>
<g>
	<polygon class="st0" points="28.63,0 127.37,0 127.37,156 28.63,156 28.63,0 	"/>
	<polygon class="st0" points="29.6,0.8 124.83,0.8 124.83,153.16 29.6,153.16 29.6,0.8 	"/>
	<rect x="42.74" y="40.56" class="st1" width="7.8" height="89.98"/>
	<path class="st1" d="M83.78,79.71c-22.54,0-40.88-17.66-40.88-39.38S61.24,0.95,83.78,0.95s40.88,17.67,40.88,39.38
		S106.32,79.71,83.78,79.71z M83.78,8.75c-18.24,0-33.08,14.17-33.08,31.58s14.84,31.58,33.08,31.58s33.08-14.17,33.08-31.58
		S102.02,8.75,83.78,8.75z"/>
	<text transform="matrix(1.0027 0 0 1 75.3711 50.4951)" class="st1 st2 st3">F</text>
	
		<rect x="42.7" y="116.23" transform="matrix(0.7078 -0.7064 0.7064 0.7078 -82.5398 72.6958)" class="st1" width="7.8" height="39.76"/>
	
		<rect x="26.71" y="132.3" transform="matrix(0.7058 -0.7084 0.7084 0.7058 -82.7709 73.0783)" class="st1" width="39.78" height="7.8"/>
	<polygon class="st4" points="29.13,155.51 126.87,155.51 126.87,0.49 29.13,0.49 29.13,155.51 	"/>
</g>
</svg>
