<?xml version="1.0" encoding="utf-8"?>
<!-- Generator: Adobe Illustrator 28.0.0, SVG Export Plug-In . SVG Version: 6.00 Build 0)  -->
<svg version="1.1" id="Layer_1" xmlns="http://www.w3.org/2000/svg" xmlns:xlink="http://www.w3.org/1999/xlink" x="0px" y="0px"
	 viewBox="0 0 156 156" width="156px" height="156px"  style="enable-background:new 0 0 156 156;" xml:space="preserve">
<style type="text/css">
	.st0{enable-background:new    ;}
	.st1{fill:#FF0000;}
</style>
<g class="st0">
	<path class="st1" d="M0,0c52,0,104,0,156,0c0,0.2,0,0.4,0,0.6c0,51.6,0,103.2,0,154.7c0,0.6,0,0.6-0.6,0.6c-51.6,0-103.1,0-154.7,0
		C0,156,0,156,0,155.4C0,103.8,0,52.2,0,0.6C0,0.4,0,0.2,0,0z M146.2,114c-0.1,0.1-0.3,0.2-0.4,0.3c-6.8,4.2-13.9,8-21,11.7
		c-4.6,2.4-9.2,4.7-13.9,6.8c-5,2.3-10,4.6-15.1,6.5c-2.7,1-5.3,2.1-8,3.1c-4.5,1.5-9.1,3.1-13.8,4.2c-2.2,0.5-4.4,0.7-6.7,0.8
		c-1.3,0-2.7,0-4,0c-1.1,0-2.2-0.2-3.4-0.3c-1.9-0.1-3.7-0.5-5.6-0.8c-0.9-0.2-1.7-0.3-2.5-0.7c-0.9-0.4-1.8-0.8-2.7-1.3
		c-0.6-0.4-1.3-0.7-1.9-1.2c-0.9-0.8-2-1.5-2.9-2.3c-1.4-1.2-2.8-2.4-4.1-3.7c-0.2-0.2-0.3-0.2-0.5-0.2c-1.1,0.3-2.2,0.6-3.3,0.8
		c-1.5,0.3-3.1,0.8-4.6,1.2c-1.4,0.3-2.7,0.6-4.1,0.6c-1.2,0-2.5-0.1-3.7-0.3c-1.3-0.2-2.5-0.7-3.6-1.2c-0.6-0.3-1.1-0.8-1.5-1.3
		c-0.7-0.7-1.2-1.5-1.6-2.3c-0.8-1.7-1.1-3.4-1-5.3c0.2-2,0.3-4,0.3-6.1c0-1.3-0.5-2.5-1.7-3.2c-0.5-0.3-1.1-0.4-1.6-0.4
		c-0.9,0-1.7,0.3-2.4,0.8c-1.4,0.9-2.5,2-3.5,3.3c-0.5,0.6-1,1.3-1.5,1.9c-0.2,0.2-0.2,0.4-0.2,0.6c0,1.7,0,3.5,0,5.2
		c0,6,0,12,0,18.1c0,0.4,0.1,0.5,0.5,0.4c0.1,0,0.1,0,0.2,0c47.7,0,95.4,0,143.1,0c0.6,0,0.6,0,0.6-0.6c0-47.8,0-95.5,0-143.3
		c0-0.6,0-0.6-0.6-0.6c-47.7,0-95.4,0-143.1,0c-0.7,0-0.6-0.1-0.6,0.6c0,33.7,0,67.5,0,101.2c0,0.1,0,0.2,0,0.3
		c0,0.3,0.1,0.3,0.3,0.2c0.5-0.2,1.1-0.4,1.6-0.6c3.7-1.3,7.2-2.9,11-4c0.5-0.1,1-0.3,1.5-0.2c0.5,0.1,1.1,0.1,1.6,0.3
		c1.4,0.3,2.5,1.1,3.5,2.2c0.3,0.3,0.6,0.7,0.9,1c0.8,0.7,1.2,1.6,1.8,2.4c0.8,1.2,1.2,2.5,1.6,3.8c0.2,0.7,0.3,1.5,0.3,2.3
		c0,3.2,0,6.3,0,9.5c0,0.4,0.1,0.5,0.4,0.4c1.1-0.2,2.3-0.1,3.4-0.4c1-0.2,2-0.5,2.9-1c1-0.6,1.7-1.4,2.3-2.5
		c1.2-2.2,1.5-4.5,1.6-6.9c0-2.3,0-4.6,0.3-6.9c0-0.2,0-0.5,0.4-0.5c3.2-0.3,6.4-0.7,9.6-1.1c3.8-0.5,7.5-0.9,11.3-1.2
		c4.4-0.4,8.7-0.9,13.1-1.5c0.2,0,0.4,0,0.5,0.2c0.6,0.5,1.1,1,1.6,1.6c0.9,0.8,1.7,1.7,2.4,2.7c0.7,0.9,1.3,1.8,1.9,2.8
		c0.9,1.4,1.6,2.9,2.2,4.4c0.1,0.3,0.2,0.3,0.5,0.2c2-0.8,4.1-1.4,6.1-2.3c1.9-0.8,3.7-1.6,5.5-2.6c3.1-1.6,6.2-3.3,9.3-5
		c2.5-1.3,5-2.8,7.5-4.2c0.2-0.1,0.3-0.1,0.5,0c0.5,0.2,0.9,0.4,1.4,0.6c3.3,1.2,6.6,2.7,9.8,4.1c0.6,0.3,1.1,0.5,1.7,0.8
		c-0.1,0.1-0.1,0.1-0.2,0.2c-1.6,1.2-3.3,2.3-5,3.3c-1.5,0.9-3,1.7-4.5,2.6c-2.3,1.3-4.7,2.5-7.1,3.7c-2.9,1.4-5.9,2.8-8.9,4
		c-4.2,1.7-8.3,3.7-12.4,5.7c-1.7,0.8-3.3,1.7-4.9,2.6c-0.1,0.1-0.4,0.1-0.3,0.3c0.1,0.3,0.2,0.5,0.5,0.6c0.6,0.2,1.1,0.1,1.7-0.1
		c1.2-0.4,2.5-0.8,3.7-1.2c4-1.3,8-2.6,12-4.1c2-0.8,4.1-1.3,6-2.2c2.9-1.3,5.7-2.7,8.5-4.1c4.7-2.4,9.3-4.7,13.9-7.3
		c0.5-0.3,1-0.4,1.6-0.3c2.4,0.5,4.8,0.9,7.2,1.5c2.8,0.7,5.4,1.6,8.1,2.6C146.1,113.9,146.2,113.9,146.2,114z"/>
	<path class="st1" d="M116.2,93.5c0-0.9-0.1-1.8-0.1-2.7c-0.1-1.9,0-3.8-0.2-5.7c-0.2-2.7-0.3-5.4-0.5-8.1c-0.2-2.4-0.3-4.9-0.5-7.3
		c-0.2-2.9-0.4-5.9-0.7-8.8c-0.2-2.3-0.4-4.5-0.6-6.8c-0.2-2.1-0.3-4.1-0.5-6.2c0-0.5-0.3-0.7-0.6-0.9c-0.7-0.5-1.6-0.9-2.5-1.1
		c-0.3-0.1-0.4,0-0.4,0.4c0.1,3.8,0.2,7.5,0.3,11.3c0.1,5.4,0.3,10.7,0.4,16.1c0.1,4.7,0.3,9.4,0.4,14.1c0,1.6,0.1,3.1,0.1,4.7
		c0,0.2-0.1,0.4-0.3,0.5c-2.3,1.6-4.6,3.2-7,4.7c-1.8,1.2-3.6,2.4-5.5,3.6c-0.1-0.1-0.1-0.2-0.1-0.3c0.2-4.1,0.4-8.2,0.5-12.3
		c0-0.9,0-1.8,0-2.7c0-1.9,0.1-3.9,0.1-5.8c0-2,0-3.9-0.1-5.8c-0.1-2.3-0.2-4.6-0.4-6.8c-0.1-0.5-0.1-1-0.1-1.5
		c0-0.4-0.2-0.4-0.5-0.5c-0.9-0.1-1.7,0-2.6-0.2c-2.3-0.4-4.5-0.8-6.6-1.7c-2.6-1-4.7-2.5-6.6-4.6c-0.7-0.8-1.5-1.6-2-2.7
		c-0.7-1.5-1.4-2.9-1.9-4.5c-0.4-1.4-0.7-2.9-1.1-4.3c-0.3-1.4-0.5-2.8-0.7-4.2c-0.3-2.2-0.4-4.3-0.2-6.5c0-0.8,0-1.6,0.2-2.4
		c0.3-1.5,0.6-3.1,1.1-4.5c0.6-1.9,1.4-3.8,2.6-5.5c1.2-1.7,2.4-3.4,4-4.7c0.5-0.4,1-0.8,1.4-1.1c0.8-0.6,1.7-1.2,2.6-1.7
		c0.7-0.4,1.5-0.6,2.2-0.8c1.2-0.4,2.5-0.7,3.7-0.8c3.6-0.3,7,0.1,10.5,1.1c2.1,0.6,4.1,1.6,5.9,2.8c1.9,1.3,3.5,2.8,4.8,4.7
		c1.1,1.5,2,3.2,2.8,4.9c1.6,3.3,2.9,6.6,4.1,10c1.1,3.3,2,6.8,2.7,10.2c0.6,3.1,1.1,6.2,1.3,9.4c0.2,2.9,0.5,5.9,0.7,8.8
		c0.2,3.3,0.4,6.6,0.6,9.9c0.1,1.5,0.2,3,0.4,4.6c0,0.2,0,0.4-0.2,0.5c-0.3,0.3-0.4,0.7-0.7,1c-1,1.3-2.1,2.5-3.2,3.7
		c-1.5,1.5-3.1,2.9-4.7,4.2c-0.7,0.6-1.5,1.1-2.2,1.7C116.5,93.2,116.4,93.4,116.2,93.5z"/>
</g>
</svg>
