<?xml version="1.0" encoding="utf-8"?>
<!-- Generator: Adobe Illustrator 28.0.0, SVG Export Plug-In . SVG Version: 6.00 Build 0)  -->
<svg version="1.1" id="Layer_1" xmlns="http://www.w3.org/2000/svg" xmlns:xlink="http://www.w3.org/1999/xlink" x="0px" y="0px"
	 viewBox="0 0 156 156" style="enable-background:new 0 0 156 156;" xml:space="preserve">
<style type="text/css">
	.st0{fill-rule:evenodd;clip-rule:evenodd;fill:#FFFFFF;}
	.st1{fill:#0000FF;}
	.st2{fill-rule:evenodd;clip-rule:evenodd;fill:#0000FF;}
	.st3{font-family:'MyriadPro-Regular';}
	.st4{font-size:27.7084px;}
	.st5{fill:none;}
</style>
<g>
	<polygon class="st0" points="29.37,0 126.63,0 126.63,156 29.37,156 29.37,0 	"/>
	<polygon class="st0" points="29.72,0.98 124.23,0.98 124.23,152.98 29.72,152.98 29.72,0.98 	"/>
	<rect x="41.57" y="41.2" class="st1" width="7.92" height="91.52"/>
	<path class="st2" d="M30.36,137.94c0-7.96,6.69-14.41,14.93-14.41l0,0l0,0c8.25,0,14.93,6.45,14.93,14.41l0,0l0,0
		c0,7.96-6.69,14.41-14.93,14.41l0,0l0,0C37.04,152.35,30.36,145.9,30.36,137.94L30.36,137.94L30.36,137.94z"/>
	<path class="st1" d="M45.29,152.82c-8.5,0-15.41-6.68-15.41-14.88s6.91-14.88,15.41-14.88s15.41,6.67,15.41,14.88
		S53.79,152.82,45.29,152.82z M45.29,124c-7.97,0-14.46,6.25-14.46,13.93c0,7.69,6.49,13.94,14.46,13.94s14.46-6.25,14.46-13.94
		C59.75,130.26,53.26,124,45.29,124z"/>
	<path class="st1" d="M82.74,81.1c-22.79,0-41.33-17.93-41.33-39.98S59.95,1.14,82.74,1.14c22.79,0,41.33,17.94,41.33,39.98
		S105.53,81.1,82.74,81.1z M82.74,9.06c-18.42,0-33.41,14.38-33.41,32.06s14.99,32.06,33.41,32.06s33.42-14.38,33.42-32.06
		S101.17,9.06,82.74,9.06z"/>
	<text transform="matrix(0.9981 0 0 1 72.6429 51.3916)" class="st1 st3 st4">R</text>
	<polygon class="st5" points="29.87,155.51 126.13,155.51 126.13,0.49 29.87,0.49 29.87,155.51 	"/>
</g>
</svg>
