<?xml version="1.0" encoding="utf-8"?>
<!-- Generator: Adobe Illustrator 28.0.0, SVG Export Plug-In . SVG Version: 6.00 Build 0)  -->
<svg version="1.1" id="Layer_1" xmlns="http://www.w3.org/2000/svg" xmlns:xlink="http://www.w3.org/1999/xlink" x="0px" y="0px"
	 viewBox="0 0 156 156" width="156px" height="156px"  style="enable-background:new 0 0 156 156;" xml:space="preserve">
<style type="text/css">
	.st0{fill:#0000FF;}
	.st1{fill-rule:evenodd;clip-rule:evenodd;fill:#0000FF;}
	.st2{font-family:'Arial'; font-weight: 600;}
	.st3{font-size:27.7084px;}
</style>
<g>
	<rect x="41.6" y="41.2" class="st0" width="7.9" height="91.5"/>
	<path class="st1" d="M30.4,137.9c0-8,6.7-14.4,14.9-14.4l0,0l0,0c8.2,0,14.9,6.4,14.9,14.4l0,0l0,0c0,8-6.7,14.4-14.9,14.4l0,0l0,0
		C37,152.4,30.4,145.9,30.4,137.9L30.4,137.9L30.4,137.9z"/>
	<path class="st0" d="M45.3,152.8c-8.5,0-15.4-6.7-15.4-14.9s6.9-14.9,15.4-14.9s15.4,6.7,15.4,14.9S53.8,152.8,45.3,152.8z
		 M45.3,124c-8,0-14.5,6.2-14.5,13.9c0,7.7,6.5,13.9,14.5,13.9s14.5-6.2,14.5-13.9C59.8,130.3,53.3,124,45.3,124z"/>
	<path class="st0" d="M82.7,81.1c-22.8,0-41.3-17.9-41.3-40s18.5-40,41.3-40s41.3,17.9,41.3,40S105.5,81.1,82.7,81.1z M82.7,9.1
		c-18.4,0-33.4,14.4-33.4,32.1s15,32.1,33.4,32.1s33.4-14.4,33.4-32.1S101.2,9.1,82.7,9.1z"/>
	<text transform="matrix(0.9981 0 0 1 72.6431 51.3916)" class="st0 st2 st3">R</text>
</g>
</svg>
