<?xml version="1.0" encoding="utf-8"?>
<!-- Generator: Adobe Illustrator 28.0.0, SVG Export Plug-In . SVG Version: 6.00 Build 0)  -->
<svg version="1.1" id="Layer_1" xmlns="http://www.w3.org/2000/svg" xmlns:xlink="http://www.w3.org/1999/xlink" x="0px" y="0px"
	 viewBox="0 0 156 156" style="enable-background:new 0 0 156 156;" xml:space="preserve">
<style type="text/css">
	.st0{fill:#0000FF;}
	.st1{font-family:'MyriadPro-Regular';}
	.st2{font-size:27.2912px;}
</style>
<g>
	<rect x="42.7" y="40.6" class="st0" width="7.8" height="90"/>
	<path class="st0" d="M83.8,79.7c-22.5,0-40.9-17.7-40.9-39.4S61.2,0.9,83.8,0.9s40.9,17.7,40.9,39.4S106.3,79.7,83.8,79.7z
		 M83.8,8.8c-18.2,0-33.1,14.2-33.1,31.6s14.8,31.6,33.1,31.6s33.1-14.2,33.1-31.6S102,8.8,83.8,8.8z"/>
	<text transform="matrix(1.0027 0 0 1 75.3711 50.4951)" class="st0 st1 st2">F</text>
	
		<rect x="42.7" y="116.2" transform="matrix(0.7078 -0.7064 0.7064 0.7078 -82.5396 72.685)" class="st0" width="7.8" height="39.8"/>
	
		<rect x="26.7" y="132.3" transform="matrix(0.7058 -0.7084 0.7084 0.7058 -82.7721 73.0825)" class="st0" width="39.8" height="7.8"/>
</g>
</svg>
