<?xml version="1.0" encoding="utf-8"?>
<!-- Generator: Adobe Illustrator 28.0.0, SVG Export Plug-In . SVG Version: 6.00 Build 0)  -->
<svg version="1.1" id="Layer_1" xmlns="http://www.w3.org/2000/svg" xmlns:xlink="http://www.w3.org/1999/xlink" x="0px" y="0px"
	 viewBox="0 0 156 156" style="enable-background:new 0 0 156 156;" xml:space="preserve">
<style type="text/css">
	.st0{fill:#0000FF;}
</style>
<g>
	<path class="st0" d="M76.9,152.8c-28.3,0-51.3-22.9-51.3-51.1s23-51.1,51.3-51.1s51.3,22.9,51.3,51.1S105.2,152.8,76.9,152.8z
		 M76.9,63c-21.4,0-38.8,17.3-38.8,38.7c0,21.3,17.4,38.6,38.8,38.6s38.8-17.3,38.8-38.7C115.7,80.4,98.3,63,76.9,63z"/>
	
		<rect x="48" y="23.8" transform="matrix(4.161640e-03 -1 1 4.161640e-03 46.3118 103.3153)" class="st0" width="54.1" height="9.2"/>
	<rect x="50.9" y="22.5" class="st0" width="48.5" height="9.2"/>
</g>
</svg>
