<?xml version="1.0" encoding="utf-8"?>
<!-- Generator: Adobe Illustrator 28.0.0, SVG Export Plug-In . SVG Version: 6.00 Build 0)  -->
<svg version="1.1" id="Layer_1" xmlns="http://www.w3.org/2000/svg" xmlns:xlink="http://www.w3.org/1999/xlink" x="0px" y="0px"
	 viewBox="0 0 156 156" style="enable-background:new 0 0 156 156;" xml:space="preserve">
<style type="text/css">
	.st0{fill-rule:evenodd;clip-rule:evenodd;fill:#FFFFFF;}
	.st1{fill:#0000FF;}
	.st2{fill-rule:evenodd;clip-rule:evenodd;fill:#0000FF;}
	.st3{fill:none;}
</style>
<g>
	<polygon class="st0" points="0.49,0 155.51,0 155.51,156 0.49,156 0.49,0 	"/>
	<polygon class="st0" points="1.61,1.54 152.46,1.54 152.46,152.28 1.61,152.28 1.61,1.54 	"/>
	<path class="st1" d="M35.75,79.92l-3.33-2.24c8.21-12.16,20.73-20.38,35.25-23.14c14.99-2.85,30.26,0.41,43.01,9.17
		c5.26,3.61,9.86,8.03,13.68,13.13l-3.21,2.41c-3.56-4.75-7.84-8.86-12.74-12.23c-11.86-8.14-26.06-11.18-39.99-8.53
		C54.97,61.04,43.36,68.65,35.75,79.92z"/>
	<path class="st1" d="M77.13,152.14L1.9,76.86l75.15-75.2l75.24,75.28L77.13,152.14z M20.82,76.86l56.32,56.35l56.23-56.27
		L77.05,20.59L20.82,76.86z"/>
	<path class="st1" d="M81.19,99.37c-0.24,0-0.48,0-0.71-0.01c-17.39-0.21-34.86-8.08-47.93-21.58l2.89-2.79
		c12.33,12.74,28.77,20.16,45.09,20.36c13.54,0.28,25.71-4.6,34.66-13.41c2.23-2.2,4.25-4.65,6-7.29l3.35,2.22
		c-1.9,2.87-4.1,5.54-6.54,7.93C108.43,94.2,95.38,99.37,81.19,99.37z"/>
	<path class="st2" d="M65.8,76.27c0-7.09,5.75-12.85,12.84-12.85l0,0l0,0c7.09,0,12.84,5.75,12.84,12.85l0,0l0,0
		c0,7.1-5.75,12.85-12.84,12.85l0,0l0,0C71.55,89.11,65.8,83.36,65.8,76.27L65.8,76.27L65.8,76.27z"/>
	<path class="st1" d="M78.64,89.33c-7.2,0-13.05-5.86-13.05-13.06s5.85-13.06,13.05-13.06s13.05,5.86,13.05,13.06
		S85.84,89.33,78.64,89.33z M78.64,63.63c-6.96,0-12.63,5.67-12.63,12.63c0,6.97,5.66,12.63,12.63,12.63
		c6.96,0,12.62-5.66,12.62-12.63C91.26,69.3,85.6,63.63,78.64,63.63z"/>
	<polygon class="st3" points="0.98,155.51 155.02,155.51 155.02,0.49 0.98,0.49 0.98,155.51 	"/>
</g>
</svg>
