<?xml version="1.0" encoding="utf-8"?>
<!-- Generator: Adobe Illustrator 28.0.0, SVG Export Plug-In . SVG Version: 6.00 Build 0)  -->
<svg version="1.1" id="Layer_1" xmlns="http://www.w3.org/2000/svg" xmlns:xlink="http://www.w3.org/1999/xlink" x="0px" y="0px"
	 viewBox="0 0 156 156" style="enable-background:new 0 0 156 156;" xml:space="preserve">
<style type="text/css">
	.st0{fill:#0000FF;}
	.st1{fill-rule:evenodd;clip-rule:evenodd;fill:#0000FF;}
</style>
<g>
	<path class="st0" d="M126.8,152.3H27.2V1.4h99.6V152.3z M38.1,141.4h77.8V12.3H38.1V141.4z"/>
	<path class="st0" d="M118.1,78.6c-4.8-5.7-10.4-10.6-16.8-14.3c-13.2-7.7-28-9.9-40.7-5.9c-10.1,3.1-18.1,10-22.4,19.3l-7.1-3.3
		c5.3-11.3,15-19.6,27.2-23.4c14.8-4.6,31.9-2.2,47,6.7c7.2,4.2,13.5,9.6,18.9,16L118.1,78.6z"/>
	<path class="st0" d="M77.4,100.8c-18.1,0-36.1-8.3-47.7-24l6.3-4.7c16.9,22.7,49,27.6,71.6,10.9c3.8-2.8,7.2-6.2,10.1-9.9l6.2,4.8
		c-3.3,4.3-7.2,8.2-11.7,11.4C101.8,97.1,89.5,100.8,77.4,100.8z"/>
	<path class="st1" d="M62.7,74.9c0-7.4,6-13.3,13.3-13.3l0,0l0,0c7.4,0,13.3,6,13.3,13.3l0,0l0,0c0,7.4-6,13.3-13.3,13.3l0,0l0,0
		C68.7,88.2,62.7,82.3,62.7,74.9L62.7,74.9L62.7,74.9z"/>
	<path class="st0" d="M76,88.4c-7.5,0-13.5-6.1-13.5-13.5S68.6,61.4,76,61.4s13.5,6.1,13.5,13.5S83.5,88.4,76,88.4z M76,61.8
		c-7.2,0-13.2,5.9-13.2,13.2S68.8,88.1,76,88.1s13.2-5.9,13.2-13.2S83.3,61.8,76,61.8z"/>
</g>
</svg>
