<?xml version="1.0" encoding="utf-8"?>
<!-- Generator: Adobe Illustrator 28.0.0, SVG Export Plug-In . SVG Version: 6.00 Build 0)  -->
<svg version="1.1" id="Layer_1" xmlns="http://www.w3.org/2000/svg" xmlns:xlink="http://www.w3.org/1999/xlink" x="0px" y="0px"
	 viewBox="0 0 156 156" style="enable-background:new 0 0 156 156;" xml:space="preserve">
<style type="text/css">
	.st0{fill-rule:evenodd;clip-rule:evenodd;fill:#FFFFFF;}
	.st1{fill:#0000FF;}
	.st2{fill-rule:evenodd;clip-rule:evenodd;fill:#0000FF;}
	.st3{fill:none;}
</style>
<g>
	<polygon class="st0" points="25.92,0 130.08,0 130.08,156 25.92,156 25.92,0 	"/>
	<polygon class="st0" points="26.98,1.25 126.96,1.25 126.96,152.51 26.98,152.51 26.98,1.25 	"/>
	<path class="st1" d="M126.77,152.32h-99.6V1.44h99.6V152.32z M38.07,141.43h77.8V12.33h-77.8V141.43z"/>
	<path class="st1" d="M118.09,78.55c-4.75-5.74-10.4-10.55-16.79-14.29c-13.18-7.71-28.02-9.87-40.7-5.93
		c-10.09,3.13-18.06,9.98-22.44,19.29l-7.08-3.34c5.33-11.32,14.99-19.64,27.21-23.43c14.77-4.59,31.9-2.16,46.97,6.65
		c7.18,4.2,13.53,9.6,18.87,16.05L118.09,78.55z"/>
	<path class="st1" d="M77.42,100.84c-18.13,0-36.08-8.32-47.72-24.01l6.29-4.66C52.84,94.9,84.94,99.8,107.55,83.1
		c3.81-2.81,7.2-6.15,10.09-9.91l6.21,4.76c-3.33,4.34-7.25,8.19-11.65,11.45C101.75,97.12,89.54,100.84,77.42,100.84z"/>
	<path class="st2" d="M62.69,74.91c0-7.37,5.97-13.34,13.34-13.34l0,0l0,0c7.37,0,13.34,5.97,13.34,13.34l0,0l0,0
		c0,7.37-5.97,13.34-13.34,13.34l0,0l0,0C68.66,88.25,62.69,82.27,62.69,74.91L62.69,74.91L62.69,74.91z"/>
	<path class="st1" d="M76.03,88.44c-7.46,0-13.53-6.07-13.53-13.53s6.07-13.53,13.53-13.53c7.46,0,13.53,6.07,13.53,13.53
		S83.49,88.44,76.03,88.44z M76.03,61.75c-7.25,0-13.15,5.9-13.15,13.15c0,7.25,5.9,13.15,13.15,13.15c7.25,0,13.15-5.9,13.15-13.15
		C89.18,67.65,83.28,61.75,76.03,61.75z"/>
	<polygon class="st3" points="26.4,155.52 129.6,155.52 129.6,0.48 26.4,0.48 26.4,155.52 	"/>
</g>
</svg>
