<?xml version="1.0" encoding="utf-8"?>
<!-- Generator: Adobe Illustrator 28.0.0, SVG Export Plug-In . SVG Version: 6.00 Build 0)  -->
<svg version="1.1" id="Layer_1" xmlns="http://www.w3.org/2000/svg" xmlns:xlink="http://www.w3.org/1999/xlink" x="0px" y="0px"
	 viewBox="0 0 156 156" width="156px" height="156px"  style="enable-background:new 0 0 156 156;" xml:space="preserve">
<style type="text/css">
	.st0{fill:#0000FF;}
	.st1{fill-rule:evenodd;clip-rule:evenodd;fill:#0000FF;}
</style>
<g>
	<path class="st0" d="M35.8,79.9l-3.3-2.2c8.2-12.2,20.7-20.4,35.2-23.1c15-2.8,30.3,0.4,43,9.2c5.3,3.6,9.9,8,13.7,13.1l-3.2,2.4
		c-3.6-4.8-7.8-8.9-12.7-12.2c-11.9-8.1-26.1-11.2-40-8.5C55,61,43.4,68.7,35.8,79.9z"/>
	<path class="st0" d="M77.1,152.1L1.9,76.9L77.1,1.7l75.2,75.3L77.1,152.1z M20.8,76.9l56.3,56.3l56.2-56.3L77.1,20.6L20.8,76.9z"/>
	<path class="st0" d="M81.2,99.4c-0.2,0-0.5,0-0.7,0c-17.4-0.2-34.9-8.1-47.9-21.6l2.9-2.8c12.3,12.7,28.8,20.2,45.1,20.4
		c13.5,0.3,25.7-4.6,34.7-13.4c2.2-2.2,4.2-4.7,6-7.3l3.3,2.2c-1.9,2.9-4.1,5.5-6.5,7.9C108.4,94.2,95.4,99.4,81.2,99.4z"/>
	<path class="st1" d="M65.8,76.3c0-7.1,5.8-12.8,12.8-12.8l0,0l0,0c7.1,0,12.8,5.8,12.8,12.8l0,0l0,0c0,7.1-5.8,12.8-12.8,12.8l0,0
		l0,0C71.6,89.1,65.8,83.4,65.8,76.3L65.8,76.3L65.8,76.3z"/>
	<path class="st0" d="M78.6,89.3c-7.2,0-13.1-5.9-13.1-13.1s5.8-13.1,13.1-13.1s13.1,5.9,13.1,13.1S85.8,89.3,78.6,89.3z M78.6,63.6
		c-7,0-12.6,5.7-12.6,12.6c0,7,5.7,12.6,12.6,12.6c7,0,12.6-5.7,12.6-12.6C91.3,69.3,85.6,63.6,78.6,63.6z"/>
</g>
</svg>
