<?xml version="1.0" encoding="utf-8"?>
<!-- Generator: Adobe Illustrator 28.0.0, SVG Export Plug-In . SVG Version: 6.00 Build 0)  -->
<svg version="1.1" id="Layer_1" xmlns="http://www.w3.org/2000/svg" xmlns:xlink="http://www.w3.org/1999/xlink" x="0px" y="0px"
	 viewBox="0 0 156 156" width="156px" height="156px"  style="enable-background:new 0 0 156 156;" xml:space="preserve">
<style type="text/css">
	.st0{enable-background:new    ;}
	.st1{fill:#FF0000;}
</style>
<g class="st0">
	<path class="st1" d="M0,156C0,104,0,52,0,0c0.3,0,0.6,0,0.9,0c51.3,0,102.6,0,153.8,0c1.4,0,1.2-0.2,1.2,1.3
		c0,51.2,0,102.3,0,153.5c0,0.2,0,0.5,0,0.7c0,0.4-0.1,0.6-0.5,0.6c-0.3,0-0.5,0-0.8,0c-51.2,0-102.5,0-153.7,0
		C0.7,156,0.3,156,0,156z M149.4,45.2c0.1,0,0.1,0,0.2-0.1c0-0.3,0-0.6,0-0.9c0-12.5,0-25,0-37.6c0-1.4,0.2-1.2-1.2-1.2
		c-47.2,0-94.4,0-141.6,0c-1.5,0-1.3-0.2-1.3,1.3c0,47.3,0,94.5,0,141.8c0,1.5-0.2,1.3,1.3,1.3c47.2,0,94.4,0,141.6,0
		c0.2,0,0.4,0,0.5,0c0.7,0,0.7,0,0.7-0.7c0-0.1,0-0.2,0-0.3c0-30.3,0-60.7,0-91c0-0.6-0.2-1.1-0.5-1.5c-3.3-4.2-6.6-8.4-9.9-12.6
		c-6.6-8.3-13-16.6-19.5-25c-0.5-0.6-0.5-0.6-1,0c-2.6,3.3-5.2,6.7-7.8,10c-3.8,4.8-7.5,9.7-11.3,14.5c-0.5,0.6-0.4,0.6-1,0.2
		c-1.6-0.9-3.3-1.9-4.9-2.8c-0.2-0.1-0.4-0.2-0.5-0.5c8.9-11.4,17.7-22.8,26.7-34.3C129.6,19,139.5,32.2,149.4,45.2z"/>
	<path class="st1" d="M63.1,133.4c0,1.6,0,3.3-0.3,4.9c-0.5,2.3-1.6,4.3-3.6,5.6c-1.1,0.7-2.3,1.2-3.6,1.5c-2.2,0.5-4.4,0.6-6.6,0.3
		c-2-0.2-4-0.7-6-1.3c-1.9-0.6-3.8-1.4-5.6-2.3c-0.4-0.2-0.5-0.1-0.7,0.2c-0.7,1.2-1.4,2.4-2.3,3.4c-1.1,1.2-2.3,2.2-3.9,2.9
		c-3.2,1.4-6.2,1.2-9.3-0.2c-2.5-1.2-4.6-3-6.3-5.2c-1.1-1.3-1.9-2.8-2.4-4.5c-0.6-1.8-0.6-3.6-0.2-5.5c0.4-1.8,1-3.4,1.8-5
		c0.5-1.1,1.2-2.2,1.8-3.4c0.2-0.3,0.2-0.5-0.2-0.8c-1.1-0.7-2.1-1.6-2.9-2.6c-1.1-1.3-2.2-2.6-2.8-4.3c-0.3-0.9-0.5-1.8-0.6-2.8
		c-0.1-0.7,0.1-1.4,0.1-2.2c0.1-1.2,0.4-2.3,0.7-3.5c0.4-1.4,0.8-2.8,1.3-4.2c0.1-0.4,0.3-0.6,0.8-0.6c2.5-0.1,5-0.4,7.5-1.1
		c0.4-0.1,0.9-0.2,1.3-0.3c0.6-0.1,0.7-0.3,0.8-0.9c0.1-0.6,0-1.3,0.1-1.9c0.2-2,0.4-3.9,0.7-5.9c0-0.2,0.1-0.4,0.1-0.6
		c0.2-1.2,1-1.9,2.1-2.2c1.9-0.6,3.9-0.7,5.9-0.5c1.3,0.1,2.6,0.1,3.9,0.3c1.6,0.3,3.3,0.5,4.9,0.8c0.6,0.1,0.7,0.1,0.8-0.4
		c0.5-2,1.4-3.8,2.4-5.6c1.2-2.3,2.7-4.4,4.5-6.3c2.4-2.5,5-4.5,8.2-6c2.8-1.3,5.8-1.7,8.9-1.2c2.7,0.5,4.9,1.9,6.4,4.2
		c0.7,1.1,1.2,2.3,1.6,3.6c0.5,1.5,0.7,3.1,0.8,4.7c0.1,1.5,0.2,2.9,0.1,4.4c0,0.5,0.1,0.8,0.6,1.1c1.8,1,3.6,2.1,5.1,3.6
		c1.2,1.2,2.2,2.6,2.7,4.2c0.6,1.8,0.6,3.6-0.1,5.3c-0.6,1.4-1.3,2.7-2.4,3.8c-1,1-2.1,1.9-3.3,2.7c-0.7,0.5-1.4,1-2.2,1.4
		c-0.2,0.1-0.4,0.3-0.4,0.5c-0.3,1.5-0.7,2.9-0.8,4.4c-0.2,2.8,0,5.6-0.1,8.5c0,1-0.3,1.8-0.8,2.6c-1,1.6-2.6,2.2-4.3,2.4
		c-1.2,0.1-2.3,0.1-3.5-0.1c-0.5-0.1-0.5-0.1-0.5,0.5C63.1,131,63.1,132.2,63.1,133.4z M47.7,120.5c0.3-0.2,0.6-0.1,0.9,0
		c2.2,0.2,4.4,0.3,6.7,0.4c3.2,0,6.3-0.2,9.4-0.6c0.3,0,0.6-0.1,0.7-0.4c0.4-0.8,0.6-1.7,0.5-2.6c-0.1-0.7-0.3-1.4-0.5-2
		c-0.5-2-1.3-3.9-1.7-5.9c-0.2-1-0.2-1.9,0-2.8c0.2-0.6,0.4-0.9,1.1-1c2-0.4,4-0.9,6.1-1.2c1.1-0.2,2-0.7,2.8-1.4
		c0.8-0.7,1.1-1.7,1-2.8c0-0.9-0.7-1.5-1.5-2c-1-0.6-2.1-0.9-3.2-1.1c-1.7-0.3-3.4-0.7-5-1.5c-0.6-0.3-1.1-0.6-1.6-1.1
		c-0.2-0.3-0.2-0.5,0-0.7c0.3-0.4,0.6-0.9,0.9-1.3c1.3-2,2.3-4,2.2-6.5c-0.1-1.8-0.5-3.4-1.5-4.8c-0.4-0.5-0.9-1-1.5-1.3
		c-0.9-0.3-1.9-0.4-2.9-0.2c-3.1,0.7-5.8,2-8.2,4.2c-2.1,1.9-3.4,4.3-4.3,6.9c-0.4,1.1-0.6,2.3-0.8,3.5c-0.5,2.9-1.3,5.8-1.7,8.7
		c0,0.1,0,0.2-0.1,0.3c-0.1,0.3-0.2,0.4-0.5,0.3c-0.1-0.1-0.2-0.1-0.4-0.2c-1.3-0.5-2.4-1.3-3.6-2c-1.4-0.8-2.7-1.6-4.3-2
		c-2.1-0.6-4.3-0.9-6.5-0.7c-0.4,0-0.5,0.1-0.4,0.5c0.1,1.4-0.1,2.7-0.3,4.1c-0.1,0.8-0.2,1.6-0.4,2.5c-0.3,1.5-0.6,3-0.9,4.5
		c-0.1,0.7-0.2,0.7-0.9,0.6c-0.6,0-1.3-0.1-1.9-0.2c-1.1-0.1-2.2-0.2-3.2-0.3c-1.2-0.1-2.5,0-3.7,0.4c-1.5,0.6-2.4,2.3-1.8,3.9
		c0.2,0.6,0.6,1.2,1,1.8c0.7,0.9,1.5,1.7,2.3,2.4c0.8,0.7,1.6,1.5,2.2,2.4c0.6,0.9,1,1.9,0.8,3c-0.2,2-0.9,3.9-1.8,5.7
		c-0.6,1.2-1.1,2.4-1.7,3.6c-0.3,0.6-0.3,1.2-0.1,1.9c0.2,1,0.6,1.9,1.1,2.8c0.6,0.9,1.3,1.6,2.3,2.1c1,0.5,2.1,0.6,3.2,0.6
		c0.9,0,1.8-0.1,2.5-0.7c1-0.7,1.7-1.7,2.2-2.8c0.7-1.2,1.2-2.5,1.9-3.7c0.6-1,1.3-2,2.2-2.8c0.6-0.4,0.6-0.4,1.2-0.1
		c1.8,1.1,3.6,2.4,5.3,3.6c1.8,1.3,3.6,2.6,5.6,3.6c1.2,0.6,2.4,1.1,3.8,1c1.2-0.1,2.3-0.3,3.3-1.1c1.3-1.1,1.6-2.7,1.4-4.3
		c-0.2-1.8-1.2-3.4-2.3-4.8c-1.6-2.1-3.4-4.1-4.7-6.4C48.2,121.9,47.7,121.3,47.7,120.5z"/>
	<path class="st1" d="M80.8,41.6c-0.3,0.2-0.5,0.5-0.6,0.7c-6.3,8.1-12.6,16.1-18.9,24.2c-0.7,0.9-0.5,0.8-1.4,0.3
		c-1.5-0.9-3-1.8-4.4-2.7c-0.2-0.1-0.5-0.2-0.6-0.4c0.2-0.6,25.4-33,26.5-34.2c0.3,0.1,0.4,0.4,0.6,0.7c5.5,7.2,10.9,14.5,16.4,21.7
		c7.2,9.5,14.4,19.1,21.5,28.6c0.5,0.7,0.5,0.7-0.2,1.2c-1.4,1.1-2.8,2.2-4.3,3.4c-0.7,0.5-0.6,0.6-1.2-0.2
		c-3.6-4.6-7.2-9.3-10.7-13.9c-7.4-9.6-14.7-19.1-22.1-28.7C81.2,42,81,41.8,80.8,41.6z"/>
	<path class="st1" d="M106.5,138.8c-9.8,0-19.6,0-29.4,0c-1,0-1,0.1-1-1c0-2.1,0-4.2,0-6.3c0-0.2,0-0.4,0-0.5c0-0.3,0.1-0.4,0.4-0.4
		c0.2,0,0.4,0,0.5,0c19.7,0,39.3,0,59,0c1.1,0,1-0.1,1,1c0,2.2,0,4.3,0,6.5c0,0.8,0,0.8-0.8,0.8c-7.5,0-15.1,0-22.6,0
		C111.2,138.8,108.8,138.8,106.5,138.8z"/>
</g>
</svg>
