<?xml version="1.0" encoding="utf-8"?>
<!-- Generator: Adobe Illustrator 28.0.0, SVG Export Plug-In . SVG Version: 6.00 Build 0)  -->
<svg version="1.1" id="Layer_1" xmlns="http://www.w3.org/2000/svg" xmlns:xlink="http://www.w3.org/1999/xlink" x="0px" y="0px"
	 viewBox="0 0 156 156" style="enable-background:new 0 0 156 156;" xml:space="preserve">
<style type="text/css">
	.st0{fill-rule:evenodd;clip-rule:evenodd;fill:#FFFFFF;}
	
		.st1{clip-path:url(#SVGID_00000091008966179292603000000007983003637428973206_);fill-rule:evenodd;clip-rule:evenodd;fill:#FFFFFF;}
	
		.st2{clip-path:url(#SVGID_00000091008966179292603000000007983003637428973206_);fill-rule:evenodd;clip-rule:evenodd;fill:#FF0000;}
	.st3{clip-path:url(#SVGID_00000091008966179292603000000007983003637428973206_);fill:#FF0000;}
	
		.st4{clip-path:url(#SVGID_00000072245177430951373100000004969551700518417080_);fill-rule:evenodd;clip-rule:evenodd;fill:#FFFFFF;}
	
		.st5{clip-path:url(#SVGID_00000072245177430951373100000004969551700518417080_);fill-rule:evenodd;clip-rule:evenodd;fill:#FF0000;}
	.st6{clip-path:url(#SVGID_00000072245177430951373100000004969551700518417080_);fill:#FF0000;}
	
		.st7{clip-path:url(#SVGID_00000032644554055201386270000003513475549930827709_);fill-rule:evenodd;clip-rule:evenodd;fill:#FFFFFF;}
	
		.st8{clip-path:url(#SVGID_00000032644554055201386270000003513475549930827709_);fill-rule:evenodd;clip-rule:evenodd;fill:#FF0000;}
	.st9{clip-path:url(#SVGID_00000032644554055201386270000003513475549930827709_);fill:#FF0000;}
	
		.st10{clip-path:url(#SVGID_00000181053292629658297600000018131747133820947845_);fill-rule:evenodd;clip-rule:evenodd;fill:#FFFFFF;}
	
		.st11{clip-path:url(#SVGID_00000181053292629658297600000018131747133820947845_);fill-rule:evenodd;clip-rule:evenodd;fill:#FF0000;}
	.st12{clip-path:url(#SVGID_00000181053292629658297600000018131747133820947845_);fill:#FF0000;}
	.st13{fill:#FF0000;}
	.st14{fill:none;}
</style>
<g>
	<polygon class="st0" points="0,0 156,0 156,156 0,156 0,0 	"/>
	<polygon class="st0" points="0.63,0.67 154.77,0.67 154.77,154.82 0.63,154.82 0.63,0.67 	"/>
	<g>
		<defs>
			<polygon id="SVGID_1_" points="12.25,78.91 88.89,78.91 88.89,14.57 12.25,14.57 12.25,78.91 			"/>
		</defs>
		<clipPath id="SVGID_00000161607483231483842370000003946448270066878885_">
			<use xlink:href="#SVGID_1_"  style="overflow:visible;"/>
		</clipPath>
		
			<polygon style="clip-path:url(#SVGID_00000161607483231483842370000003946448270066878885_);fill-rule:evenodd;clip-rule:evenodd;fill:#FFFFFF;" points="
			11.89,16.18 81.62,16.18 81.62,72.84 11.89,72.84 11.89,16.18 		"/>
		
			<path style="clip-path:url(#SVGID_00000161607483231483842370000003946448270066878885_);fill-rule:evenodd;clip-rule:evenodd;fill:#FF0000;" d="
			M59.32,22.86c0-2.35,1.91-4.25,4.26-4.25l0,0l0,0c2.35,0,4.26,1.9,4.26,4.25l0,0l0,0c0,2.35-1.91,4.25-4.26,4.25l0,0l0,0
			C61.23,27.11,59.32,25.21,59.32,22.86L59.32,22.86L59.32,22.86z"/>
		<path style="clip-path:url(#SVGID_00000161607483231483842370000003946448270066878885_);fill:#FF0000;" d="M63.58,27.52
			c-2.57,0-4.66-2.09-4.66-4.66c0-2.57,2.09-4.65,4.66-4.65c2.57,0,4.66,2.09,4.66,4.65C68.24,25.43,66.15,27.52,63.58,27.52z
			 M63.58,19.01c-2.12,0-3.85,1.72-3.85,3.84s1.73,3.85,3.85,3.85c2.12,0,3.85-1.73,3.85-3.85S65.7,19.01,63.58,19.01z"/>
		<path style="clip-path:url(#SVGID_00000161607483231483842370000003946448270066878885_);fill:#FF0000;" d="M67.89,43.55
			c-0.67,0-1.34-0.25-1.86-0.77l-9.58-9.56c-1.03-1.03-1.03-2.69,0-3.72c1.03-1.03,2.69-1.03,3.72,0l9.58,9.56
			c1.03,1.03,1.03,2.69,0,3.72C69.24,43.29,68.56,43.55,67.89,43.55z"/>
		<path style="clip-path:url(#SVGID_00000161607483231483842370000003946448270066878885_);fill:#FF0000;" d="M68.85,42.74
			c-0.67,0-1.35-0.26-1.86-0.77c-1.03-1.03-1.02-2.69,0-3.72l9.58-9.56c1.02-1.03,2.69-1.03,3.72,0c1.03,1.03,1.03,2.69,0,3.72
			l-9.58,9.56C70.19,42.49,69.52,42.74,68.85,42.74z"/>
		<path style="clip-path:url(#SVGID_00000161607483231483842370000003946448270066878885_);fill:#FF0000;" d="M37.63,29.5
			c-0.67,0-1.35-0.26-1.86-0.77c-1.03-1.03-1.02-2.69,0-3.72l7.66-7.65c1.03-1.03,2.69-1.03,3.72,0c1.03,1.03,1.02,2.69,0,3.72
			l-7.66,7.65C38.98,29.24,38.31,29.5,37.63,29.5z"/>
		<path style="clip-path:url(#SVGID_00000161607483231483842370000003946448270066878885_);fill:#FF0000;" d="M56.99,31.87
			c-0.6,0-1.2-0.2-1.69-0.62l-10.44-8.8c-1.11-0.94-1.25-2.6-0.32-3.71c0.94-1.11,2.59-1.25,3.71-0.32l10.44,8.8
			c1.11,0.94,1.25,2.6,0.32,3.71C58.49,31.55,57.74,31.87,56.99,31.87z"/>
		<path style="clip-path:url(#SVGID_00000161607483231483842370000003946448270066878885_);fill:#FF0000;" d="M42.09,47.52
			c-0.98,0-1.97-0.38-2.72-1.13c-1.5-1.5-1.5-3.94,0-5.44l14.37-14.34c1.51-1.5,3.94-1.5,5.44,0c1.5,1.5,1.5,3.94,0,5.44L44.81,46.4
			C44.06,47.15,43.08,47.52,42.09,47.52z"/>
		<path style="clip-path:url(#SVGID_00000161607483231483842370000003946448270066878885_);fill:#FF0000;" d="M55.37,54.94
			c-0.6,0-1.2-0.2-1.69-0.62l-10.44-8.8c-1.11-0.94-1.25-2.6-0.32-3.71c0.94-1.11,2.59-1.25,3.71-0.32l10.44,8.8
			c1.11,0.94,1.25,2.6,0.32,3.71C56.86,54.62,56.12,54.94,55.37,54.94z"/>
		<path style="clip-path:url(#SVGID_00000161607483231483842370000003946448270066878885_);fill:#FF0000;" d="M54.66,72.34
			c-0.04,0-0.07,0-0.11,0c-1.45-0.06-2.58-1.29-2.52-2.74l0.71-16.9c0.06-1.45,1.31-2.56,2.74-2.52c1.45,0.06,2.58,1.29,2.52,2.74
			l-0.71,16.9C57.23,71.23,56.07,72.34,54.66,72.34z"/>
		<path style="clip-path:url(#SVGID_00000161607483231483842370000003946448270066878885_);fill:#FF0000;" d="M33.17,58.48
			c-0.7,0-1.4-0.28-1.92-0.83c-0.99-1.06-0.94-2.73,0.12-3.72l8.41-7.89c1.06-0.99,2.72-0.94,3.72,0.12
			c0.99,1.06,0.94,2.73-0.12,3.72l-8.41,7.89C34.47,58.24,33.82,58.48,33.17,58.48z"/>
		<path style="clip-path:url(#SVGID_00000161607483231483842370000003946448270066878885_);fill:#FF0000;" d="M33.27,58.27
			c-0.6,0-1.2-0.2-1.69-0.62l-11.04-9.31c-1.11-0.94-1.25-2.6-0.32-3.71c0.93-1.11,2.6-1.26,3.71-0.32l11.04,9.31
			c1.11,0.94,1.25,2.6,0.32,3.71C34.76,57.96,34.02,58.27,33.27,58.27z"/>
		<path style="clip-path:url(#SVGID_00000161607483231483842370000003946448270066878885_);fill:#FF0000;" d="M30.43,66.98
			c0,0-0.01,0-0.01,0l-16.92-0.2c-0.67-0.01-1.21-0.56-1.2-1.23c0.01-0.67,0.55-1.2,1.21-1.2c0,0,0.01,0,0.01,0l16.92,0.2
			c0.67,0.01,1.21,0.56,1.2,1.23C31.64,66.44,31.1,66.98,30.43,66.98z"/>
		<path style="clip-path:url(#SVGID_00000161607483231483842370000003946448270066878885_);fill:#FF0000;" d="M30.43,62.93
			c0,0-0.01,0-0.01,0l-16.92-0.2c-0.67-0.01-1.21-0.56-1.2-1.23c0.01-0.67,0.55-1.2,1.21-1.2c0,0,0.01,0,0.01,0l16.92,0.2
			c0.67,0.01,1.21,0.56,1.2,1.23C31.64,62.39,31.1,62.93,30.43,62.93z"/>
	</g>
	<g>
		<defs>
			<polygon id="SVGID_00000182488609039617678270000006735958389469811349_" points="74.46,78.91 151.1,78.91 151.1,14.57 
				74.46,14.57 74.46,78.91 			"/>
		</defs>
		<clipPath id="SVGID_00000062150620362104294880000006085153863760706997_">
			<use xlink:href="#SVGID_00000182488609039617678270000006735958389469811349_"  style="overflow:visible;"/>
		</clipPath>
		
			<polygon style="clip-path:url(#SVGID_00000062150620362104294880000006085153863760706997_);fill-rule:evenodd;clip-rule:evenodd;fill:#FFFFFF;" points="
			74.09,16.18 143.82,16.18 143.82,72.84 74.09,72.84 74.09,16.18 		"/>
		
			<path style="clip-path:url(#SVGID_00000062150620362104294880000006085153863760706997_);fill-rule:evenodd;clip-rule:evenodd;fill:#FF0000;" d="
			M121.52,22.86c0-2.35,1.91-4.25,4.26-4.25l0,0l0,0c2.35,0,4.26,1.9,4.26,4.25l0,0l0,0c0,2.35-1.91,4.25-4.26,4.25l0,0l0,0
			C123.43,27.11,121.52,25.21,121.52,22.86L121.52,22.86L121.52,22.86z"/>
		<path style="clip-path:url(#SVGID_00000062150620362104294880000006085153863760706997_);fill:#FF0000;" d="M125.78,27.52
			c-2.57,0-4.66-2.09-4.66-4.66c0-2.57,2.09-4.65,4.66-4.65s4.66,2.09,4.66,4.65C130.44,25.43,128.35,27.52,125.78,27.52z
			 M125.78,19.01c-2.12,0-3.85,1.72-3.85,3.84s1.73,3.85,3.85,3.85s3.85-1.73,3.85-3.85S127.9,19.01,125.78,19.01z"/>
		<path style="clip-path:url(#SVGID_00000062150620362104294880000006085153863760706997_);fill:#FF0000;" d="M130.09,43.55
			c-0.67,0-1.35-0.25-1.86-0.77l-9.57-9.56c-1.03-1.03-1.03-2.69,0-3.72c1.03-1.02,2.69-1.03,3.72,0l9.57,9.56
			c1.03,1.03,1.03,2.69,0,3.72C131.43,43.29,130.76,43.55,130.09,43.55z"/>
		<path style="clip-path:url(#SVGID_00000062150620362104294880000006085153863760706997_);fill:#FF0000;" d="M131.05,42.74
			c-0.68,0-1.35-0.26-1.86-0.77c-1.03-1.03-1.03-2.69,0-3.72l9.57-9.56c1.03-1.02,2.69-1.02,3.72,0c1.03,1.03,1.03,2.69,0,3.72
			l-9.57,9.56C132.4,42.48,131.72,42.74,131.05,42.74z"/>
		<path style="clip-path:url(#SVGID_00000062150620362104294880000006085153863760706997_);fill:#FF0000;" d="M99.84,29.5
			c-0.68,0-1.35-0.26-1.86-0.77c-1.02-1.03-1.02-2.69,0-3.72l7.66-7.65c1.03-1.03,2.69-1.02,3.72,0c1.02,1.03,1.02,2.69,0,3.72
			l-7.66,7.65C101.18,29.24,100.51,29.5,99.84,29.5z"/>
		<path style="clip-path:url(#SVGID_00000062150620362104294880000006085153863760706997_);fill:#FF0000;" d="M119.19,31.87
			c-0.6,0-1.2-0.2-1.69-0.62l-10.44-8.8c-1.11-0.94-1.25-2.6-0.32-3.71c0.94-1.11,2.6-1.25,3.7-0.32l10.44,8.8
			c1.11,0.94,1.25,2.6,0.32,3.71C120.69,31.55,119.94,31.87,119.19,31.87z"/>
		<path style="clip-path:url(#SVGID_00000062150620362104294880000006085153863760706997_);fill:#FF0000;" d="M104.3,47.52
			c-0.99,0-1.97-0.38-2.72-1.13c-1.5-1.5-1.5-3.94,0-5.44l14.37-14.34c1.51-1.5,3.93-1.5,5.44,0c1.5,1.5,1.5,3.94,0,5.44
			L107.01,46.4C106.26,47.15,105.28,47.52,104.3,47.52z"/>
		<path style="clip-path:url(#SVGID_00000062150620362104294880000006085153863760706997_);fill:#FF0000;" d="M117.57,54.94
			c-0.6,0-1.2-0.2-1.69-0.62l-10.44-8.8c-1.11-0.94-1.25-2.6-0.32-3.71c0.93-1.11,2.6-1.25,3.7-0.32l10.44,8.8
			c1.11,0.94,1.25,2.6,0.32,3.71C119.07,54.62,118.32,54.94,117.57,54.94z"/>
		<path style="clip-path:url(#SVGID_00000062150620362104294880000006085153863760706997_);fill:#FF0000;" d="M116.86,72.34
			c-0.04,0-0.07,0-0.11,0c-1.45-0.06-2.58-1.29-2.52-2.74l0.71-16.9c0.06-1.45,1.32-2.56,2.74-2.52c1.45,0.06,2.58,1.29,2.52,2.74
			l-0.71,16.9C119.43,71.23,118.26,72.34,116.86,72.34z"/>
		<path style="clip-path:url(#SVGID_00000062150620362104294880000006085153863760706997_);fill:#FF0000;" d="M95.38,58.48
			c-0.7,0-1.4-0.28-1.92-0.83c-0.99-1.06-0.94-2.73,0.12-3.72l8.41-7.89c1.06-0.99,2.73-0.94,3.72,0.12
			c0.99,1.06,0.94,2.73-0.12,3.72l-8.41,7.89C96.67,58.24,96.02,58.48,95.38,58.48z"/>
		<path style="clip-path:url(#SVGID_00000062150620362104294880000006085153863760706997_);fill:#FF0000;" d="M95.47,58.27
			c-0.6,0-1.2-0.2-1.69-0.62l-11.05-9.31c-1.11-0.94-1.25-2.6-0.32-3.71c0.94-1.11,2.6-1.25,3.71-0.32l11.05,9.31
			c1.11,0.94,1.25,2.6,0.32,3.71C96.97,57.96,96.22,58.27,95.47,58.27z"/>
		<path style="clip-path:url(#SVGID_00000062150620362104294880000006085153863760706997_);fill:#FF0000;" d="M92.64,66.98
			c0,0-0.01,0-0.02,0l-16.92-0.2c-0.67-0.01-1.21-0.56-1.2-1.23c0.01-0.67,0.55-1.2,1.21-1.2c0,0,0.01,0,0.01,0l16.92,0.2
			c0.67,0.01,1.2,0.56,1.2,1.23C93.84,66.44,93.3,66.98,92.64,66.98z"/>
		<path style="clip-path:url(#SVGID_00000062150620362104294880000006085153863760706997_);fill:#FF0000;" d="M92.64,62.93
			c0,0-0.01,0-0.02,0l-16.92-0.2c-0.67-0.01-1.21-0.56-1.2-1.23c0.01-0.67,0.55-1.2,1.21-1.2c0,0,0.01,0,0.01,0l16.92,0.2
			c0.67,0.01,1.2,0.56,1.2,1.23C93.84,62.39,93.3,62.93,92.64,62.93z"/>
	</g>
	<g>
		<defs>
			<polygon id="SVGID_00000110443932973814461270000004587534016947283840_" points="74.46,144.92 151.1,144.92 151.1,80.59 
				74.46,80.59 74.46,144.92 			"/>
		</defs>
		<clipPath id="SVGID_00000139283114609392844040000014051062916842281383_">
			<use xlink:href="#SVGID_00000110443932973814461270000004587534016947283840_"  style="overflow:visible;"/>
		</clipPath>
		
			<polygon style="clip-path:url(#SVGID_00000139283114609392844040000014051062916842281383_);fill-rule:evenodd;clip-rule:evenodd;fill:#FFFFFF;" points="
			74.09,82.2 143.82,82.2 143.82,138.86 74.09,138.86 74.09,82.2 		"/>
		
			<path style="clip-path:url(#SVGID_00000139283114609392844040000014051062916842281383_);fill-rule:evenodd;clip-rule:evenodd;fill:#FF0000;" d="
			M121.52,88.88c0-2.35,1.91-4.25,4.26-4.25l0,0l0,0c2.35,0,4.26,1.9,4.26,4.25l0,0l0,0c0,2.35-1.91,4.25-4.26,4.25l0,0l0,0
			C123.43,93.13,121.52,91.23,121.52,88.88L121.52,88.88L121.52,88.88z"/>
		<path style="clip-path:url(#SVGID_00000139283114609392844040000014051062916842281383_);fill:#FF0000;" d="M125.78,93.53
			c-2.57,0-4.66-2.09-4.66-4.65s2.09-4.65,4.66-4.65s4.66,2.09,4.66,4.65S128.35,93.53,125.78,93.53z M125.78,85.03
			c-2.12,0-3.85,1.73-3.85,3.84s1.73,3.84,3.85,3.84s3.85-1.73,3.85-3.84S127.9,85.03,125.78,85.03z"/>
		<path style="clip-path:url(#SVGID_00000139283114609392844040000014051062916842281383_);fill:#FF0000;" d="M130.09,109.57
			c-0.67,0-1.35-0.26-1.86-0.77l-9.57-9.56c-1.03-1.03-1.03-2.69,0-3.72c1.03-1.02,2.69-1.03,3.72,0l9.57,9.56
			c1.03,1.03,1.03,2.69,0,3.72C131.43,109.31,130.76,109.57,130.09,109.57z"/>
		<path style="clip-path:url(#SVGID_00000139283114609392844040000014051062916842281383_);fill:#FF0000;" d="M131.05,108.76
			c-0.68,0-1.35-0.26-1.86-0.77c-1.03-1.03-1.03-2.69,0-3.72l9.57-9.56c1.03-1.03,2.69-1.02,3.72,0c1.03,1.03,1.03,2.69,0,3.72
			l-9.57,9.56C132.4,108.5,131.72,108.76,131.05,108.76z"/>
		<path style="clip-path:url(#SVGID_00000139283114609392844040000014051062916842281383_);fill:#FF0000;" d="M99.84,95.52
			c-0.68,0-1.35-0.26-1.86-0.77c-1.03-1.03-1.03-2.7,0-3.72l7.66-7.65c1.03-1.03,2.7-1.02,3.72,0c1.03,1.03,1.03,2.7,0,3.72
			l-7.66,7.65C101.18,95.26,100.51,95.52,99.84,95.52z"/>
		<path style="clip-path:url(#SVGID_00000139283114609392844040000014051062916842281383_);fill:#FF0000;" d="M119.19,97.89
			c-0.6,0-1.2-0.21-1.7-0.62l-10.44-8.81c-1.11-0.93-1.25-2.6-0.31-3.71c0.94-1.11,2.59-1.25,3.71-0.31l10.44,8.81
			c1.11,0.93,1.25,2.6,0.31,3.71C120.69,97.57,119.94,97.89,119.19,97.89z"/>
		<path style="clip-path:url(#SVGID_00000139283114609392844040000014051062916842281383_);fill:#FF0000;" d="M104.3,113.54
			c-0.99,0-1.97-0.38-2.72-1.13c-1.5-1.5-1.5-3.94,0-5.44l14.37-14.34c1.51-1.5,3.93-1.5,5.44,0c1.5,1.5,1.5,3.94,0,5.44
			l-14.37,14.34C106.26,113.17,105.28,113.54,104.3,113.54z"/>
		<path style="clip-path:url(#SVGID_00000139283114609392844040000014051062916842281383_);fill:#FF0000;" d="M117.57,120.96
			c-0.6,0-1.2-0.21-1.7-0.62l-10.44-8.81c-1.11-0.93-1.25-2.6-0.31-3.71c0.93-1.11,2.59-1.25,3.71-0.31l10.44,8.81
			c1.11,0.93,1.25,2.6,0.31,3.71C119.07,120.64,118.32,120.96,117.57,120.96z"/>
		<path style="clip-path:url(#SVGID_00000139283114609392844040000014051062916842281383_);fill:#FF0000;" d="M116.86,138.36
			c-0.04,0-0.07,0-0.11,0c-1.45-0.06-2.58-1.29-2.52-2.74l0.71-16.9c0.06-1.45,1.32-2.52,2.74-2.52c1.45,0.06,2.58,1.29,2.52,2.74
			l-0.71,16.9C119.43,137.25,118.26,138.36,116.86,138.36z"/>
		<path style="clip-path:url(#SVGID_00000139283114609392844040000014051062916842281383_);fill:#FF0000;" d="M95.38,124.5
			c-0.7,0-1.4-0.28-1.92-0.83c-0.99-1.06-0.94-2.72,0.12-3.72l8.41-7.89c1.06-0.99,2.73-0.95,3.72,0.12
			c0.99,1.06,0.94,2.72-0.12,3.72l-8.41,7.89C96.67,124.26,96.02,124.5,95.38,124.5z"/>
		<path style="clip-path:url(#SVGID_00000139283114609392844040000014051062916842281383_);fill:#FF0000;" d="M95.47,124.29
			c-0.6,0-1.2-0.21-1.69-0.62l-11.05-9.31c-1.11-0.94-1.25-2.6-0.32-3.71c0.94-1.11,2.6-1.25,3.71-0.32l11.05,9.31
			c1.11,0.94,1.25,2.6,0.32,3.71C96.97,123.97,96.22,124.29,95.47,124.29z"/>
		<path style="clip-path:url(#SVGID_00000139283114609392844040000014051062916842281383_);fill:#FF0000;" d="M92.64,132.99
			c0,0-0.01,0-0.02,0l-16.92-0.2c-0.67-0.01-1.21-0.56-1.2-1.23c0.01-0.67,0.57-1.09,1.23-1.2l16.92,0.2
			c0.67,0.01,1.2,0.56,1.2,1.23C93.84,132.46,93.3,132.99,92.64,132.99z"/>
		<path style="clip-path:url(#SVGID_00000139283114609392844040000014051062916842281383_);fill:#FF0000;" d="M92.64,128.94
			c0,0-0.01,0-0.02,0l-16.92-0.2c-0.67-0.01-1.21-0.56-1.2-1.23c0.01-0.67,0.57-1.06,1.23-1.2l16.92,0.2
			c0.67,0.01,1.2,0.56,1.2,1.23C93.84,128.41,93.3,128.94,92.64,128.94z"/>
	</g>
	<g>
		<defs>
			<polygon id="SVGID_00000081648972202749233760000009932584262016751792_" points="12.25,144.97 88.89,144.97 88.89,80.59 
				12.25,80.59 12.25,144.97 			"/>
		</defs>
		<clipPath id="SVGID_00000144328490587187540500000007263714872970104982_">
			<use xlink:href="#SVGID_00000081648972202749233760000009932584262016751792_"  style="overflow:visible;"/>
		</clipPath>
		
			<polygon style="clip-path:url(#SVGID_00000144328490587187540500000007263714872970104982_);fill-rule:evenodd;clip-rule:evenodd;fill:#FFFFFF;" points="
			11.89,82.2 81.62,82.2 81.62,138.9 11.89,138.9 11.89,82.2 		"/>
		
			<path style="clip-path:url(#SVGID_00000144328490587187540500000007263714872970104982_);fill-rule:evenodd;clip-rule:evenodd;fill:#FF0000;" d="
			M59.32,88.89c0-2.35,1.91-4.25,4.26-4.25l0,0l0,0c2.35,0,4.26,1.9,4.26,4.25l0,0l0,0c0,2.35-1.91,4.25-4.26,4.25l0,0l0,0
			C61.23,93.14,59.32,91.23,59.32,88.89L59.32,88.89L59.32,88.89z"/>
		<path style="clip-path:url(#SVGID_00000144328490587187540500000007263714872970104982_);fill:#FF0000;" d="M63.58,93.54
			c-2.57,0-4.66-2.09-4.66-4.66s2.09-4.65,4.66-4.65c2.57,0,4.66,2.09,4.66,4.65S66.15,93.54,63.58,93.54z M63.58,85.04
			c-2.12,0-3.85,1.73-3.85,3.84c0,2.12,1.73,3.85,3.85,3.85c2.12,0,3.85-1.73,3.85-3.85C67.43,86.76,65.7,85.04,63.58,85.04z"/>
		<path style="clip-path:url(#SVGID_00000144328490587187540500000007263714872970104982_);fill:#FF0000;" d="M67.89,109.59
			c-0.67,0-1.35-0.25-1.86-0.77l-9.58-9.57c-1.03-1.03-1.03-2.7,0-3.72c1.02-1.03,2.69-1.04,3.72,0l9.58,9.57
			c1.03,1.03,1.03,2.7,0,3.72C69.24,109.33,68.56,109.59,67.89,109.59z"/>
		<path style="clip-path:url(#SVGID_00000144328490587187540500000007263714872970104982_);fill:#FF0000;" d="M68.85,108.78
			c-0.68,0-1.35-0.26-1.86-0.77c-1.03-1.03-1.03-2.7,0-3.72l9.58-9.57c1.03-1.03,2.7-1.02,3.72,0s1.03,2.7,0,3.72l-9.58,9.57
			C70.2,108.52,69.52,108.78,68.85,108.78z"/>
		<path style="clip-path:url(#SVGID_00000144328490587187540500000007263714872970104982_);fill:#FF0000;" d="M37.63,95.53
			c-0.68,0-1.35-0.26-1.86-0.77c-1.03-1.03-1.03-2.7,0-3.72l7.66-7.65c1.03-1.03,2.69-1.02,3.72,0c1.03,1.03,1.03,2.7,0,3.72
			l-7.66,7.65C38.98,95.27,38.31,95.53,37.63,95.53z"/>
		<path style="clip-path:url(#SVGID_00000144328490587187540500000007263714872970104982_);fill:#FF0000;" d="M56.99,97.9
			c-0.6,0-1.2-0.2-1.69-0.62l-10.44-8.81c-1.11-0.94-1.25-2.6-0.32-3.71c0.94-1.1,2.6-1.25,3.71-0.32l10.44,8.81
			c1.11,0.94,1.25,2.6,0.32,3.71C58.49,97.58,57.74,97.9,56.99,97.9z"/>
		<path style="clip-path:url(#SVGID_00000144328490587187540500000007263714872970104982_);fill:#FF0000;" d="M42.09,113.57
			c-0.98,0-1.97-0.38-2.72-1.13c-1.5-1.5-1.5-3.94,0-5.44l14.37-14.35c1.5-1.5,3.94-1.5,5.44,0c1.5,1.5,1.5,3.94,0,5.44
			l-14.37,14.35C44.06,113.19,43.08,113.57,42.09,113.57z"/>
		<path style="clip-path:url(#SVGID_00000144328490587187540500000007263714872970104982_);fill:#FF0000;" d="M55.37,120.98
			c-0.6,0-1.2-0.2-1.7-0.62l-10.44-8.81c-1.11-0.94-1.25-2.6-0.31-3.71c0.94-1.12,2.59-1.25,3.71-0.32l10.44,8.81
			c1.11,0.94,1.25,2.6,0.31,3.71C56.86,120.67,56.12,120.98,55.37,120.98z"/>
		<path style="clip-path:url(#SVGID_00000144328490587187540500000007263714872970104982_);fill:#FF0000;" d="M54.66,138.4
			c-0.04,0-0.07,0-0.11,0c-1.45-0.06-2.58-1.29-2.52-2.74l0.71-16.91c0.06-1.45,1.31-2.55,2.74-2.52c1.45,0.06,2.58,1.29,2.52,2.74
			l-0.71,16.91C57.23,137.29,56.07,138.4,54.66,138.4z"/>
		<path style="clip-path:url(#SVGID_00000144328490587187540500000007263714872970104982_);fill:#FF0000;" d="M33.17,124.53
			c-0.7,0-1.4-0.28-1.92-0.83c-1-1.06-0.94-2.73,0.12-3.72l8.41-7.9c1.06-0.99,2.73-0.94,3.72,0.12c1,1.06,0.94,2.73-0.12,3.72
			l-8.41,7.9C34.47,124.29,33.82,124.53,33.17,124.53z"/>
		<path style="clip-path:url(#SVGID_00000144328490587187540500000007263714872970104982_);fill:#FF0000;" d="M33.27,124.32
			c-0.6,0-1.2-0.2-1.7-0.62l-11.04-9.32c-1.11-0.94-1.25-2.6-0.31-3.71c0.93-1.11,2.59-1.25,3.71-0.32l11.04,9.32
			c1.11,0.94,1.25,2.6,0.31,3.71C34.76,124,34.02,124.32,33.27,124.32z"/>
		<path style="clip-path:url(#SVGID_00000144328490587187540500000007263714872970104982_);fill:#FF0000;" d="M30.43,133.03
			c0,0-0.01,0-0.01,0l-16.92-0.2c-0.67,0-1.21-0.56-1.2-1.23c0.01-0.66,0.55-1.2,1.21-1.2c0,0,0.01,0,0.01,0l16.92,0.19
			c0.67,0.01,1.21,0.56,1.2,1.23C31.64,132.49,31.1,133.03,30.43,133.03z"/>
		<path style="clip-path:url(#SVGID_00000144328490587187540500000007263714872970104982_);fill:#FF0000;" d="M30.43,128.98
			c0,0-0.01,0-0.01,0l-16.92-0.2c-0.67,0-1.21-0.56-1.2-1.23c0.01-0.66,0.55-1.2,1.21-1.2c0,0,0.01,0,0.01,0l16.92,0.2
			c0.67,0,1.21,0.56,1.2,1.23C31.64,128.45,31.1,128.98,30.43,128.98z"/>
	</g>
	<path class="st13" d="M154.73,154.78H0.68V0.72h154.05V154.78z M6.72,148.74h141.97V6.76H6.72V148.74z"/>
	<polygon class="st14" points="0.5,155.5 155.5,155.5 155.5,0.5 0.5,0.5 0.5,155.5 	"/>
</g>
</svg>
