<?xml version="1.0" encoding="utf-8"?>
<!-- Generator: Adobe Illustrator 28.0.0, SVG Export Plug-In . SVG Version: 6.00 Build 0)  -->
<svg version="1.1" id="Layer_1" xmlns="http://www.w3.org/2000/svg" xmlns:xlink="http://www.w3.org/1999/xlink" x="0px" y="0px"
	 viewBox="0 0 156 156" width="156px" height="156px"  style="enable-background:new 0 0 156 156;" xml:space="preserve">
<style type="text/css">
	
		.st0{clip-path:url(#SVGID_00000094580634925760822070000013395923837783831169_);fill-rule:evenodd;clip-rule:evenodd;fill:#FF0000;}
	.st1{clip-path:url(#SVGID_00000051370512935876120030000005873402940866827419_);fill:#FF0000;}
	.st2{clip-path:url(#SVGID_00000011735699492050973590000014614998507336825985_);fill:#FF0000;}
	.st3{clip-path:url(#SVGID_00000142158184132605639910000017103309072704377497_);fill:#FF0000;}
	.st4{clip-path:url(#SVGID_00000083051851345859980410000011143551108954513549_);fill:#FF0000;}
	.st5{clip-path:url(#SVGID_00000140730283384113859740000001727953170408629167_);fill:#FF0000;}
	.st6{clip-path:url(#SVGID_00000022536319572904566920000007771114693789275785_);fill:#FF0000;}
	.st7{clip-path:url(#SVGID_00000056387029016455011110000017108405623101539514_);fill:#FF0000;}
	.st8{clip-path:url(#SVGID_00000011028457467098116460000014217303530095839161_);fill:#FF0000;}
	.st9{clip-path:url(#SVGID_00000098908505141764600210000000945356673025517247_);fill:#FF0000;}
	.st10{clip-path:url(#SVGID_00000129197286723364888910000006999873481187017090_);fill:#FF0000;}
	.st11{clip-path:url(#SVGID_00000122691597591228837970000002688977614780944563_);fill:#FF0000;}
	.st12{clip-path:url(#SVGID_00000000190064584633804260000013946689617863472038_);fill:#FF0000;}
	
		.st13{clip-path:url(#SVGID_00000183940044554919503780000013923351218545223347_);fill-rule:evenodd;clip-rule:evenodd;fill:#FF0000;}
	.st14{clip-path:url(#SVGID_00000145741681357798005910000002522898584955365269_);fill:#FF0000;}
	.st15{clip-path:url(#SVGID_00000121259003362930682030000003134033373999789246_);fill:#FF0000;}
	.st16{clip-path:url(#SVGID_00000162348634000527120990000005271609512726504072_);fill:#FF0000;}
	.st17{clip-path:url(#SVGID_00000005258811050174853170000014108215162241188031_);fill:#FF0000;}
	.st18{clip-path:url(#SVGID_00000093858924147968487410000006035069687622713228_);fill:#FF0000;}
	.st19{clip-path:url(#SVGID_00000101064227962901463950000018366443259794082201_);fill:#FF0000;}
	.st20{clip-path:url(#SVGID_00000042010681521499099270000010160065252819009713_);fill:#FF0000;}
	.st21{clip-path:url(#SVGID_00000183954208865832376900000003612098949207020973_);fill:#FF0000;}
	.st22{clip-path:url(#SVGID_00000039822173358830330320000007387382058723028878_);fill:#FF0000;}
	.st23{clip-path:url(#SVGID_00000064340933923226769350000002139780288658552220_);fill:#FF0000;}
	.st24{clip-path:url(#SVGID_00000127028242595202002500000002270236700251389624_);fill:#FF0000;}
	.st25{clip-path:url(#SVGID_00000067195297235072210870000012889376668504403896_);fill:#FF0000;}
	
		.st26{clip-path:url(#SVGID_00000157998705528638741530000007042378119449938314_);fill-rule:evenodd;clip-rule:evenodd;fill:#FF0000;}
	.st27{clip-path:url(#SVGID_00000178204495857332030610000006574035982486226861_);fill:#FF0000;}
	.st28{clip-path:url(#SVGID_00000145047241979544976630000011154157247877088183_);fill:#FF0000;}
	.st29{clip-path:url(#SVGID_00000023247220462534260370000001196866787378535580_);fill:#FF0000;}
	.st30{clip-path:url(#SVGID_00000092433957237423272500000017908257584325094787_);fill:#FF0000;}
	.st31{clip-path:url(#SVGID_00000132066480172766748160000017094573499401049246_);fill:#FF0000;}
	.st32{clip-path:url(#SVGID_00000123413211162683552360000016550418382333465754_);fill:#FF0000;}
	.st33{clip-path:url(#SVGID_00000111166253324119967570000007381575864656521140_);fill:#FF0000;}
	.st34{clip-path:url(#SVGID_00000018915439972621521730000018370082723462013595_);fill:#FF0000;}
	.st35{clip-path:url(#SVGID_00000008859418301820593510000008054637644908497539_);fill:#FF0000;}
	.st36{clip-path:url(#SVGID_00000097467970427340121180000014552199226979980433_);fill:#FF0000;}
	.st37{clip-path:url(#SVGID_00000134940922683345087050000015755951634692988553_);fill:#FF0000;}
	.st38{clip-path:url(#SVGID_00000155138993684639683040000005994244068737814719_);fill:#FF0000;}
	
		.st39{clip-path:url(#SVGID_00000023252971746727344890000001574549273893338524_);fill-rule:evenodd;clip-rule:evenodd;fill:#FF0000;}
	.st40{clip-path:url(#SVGID_00000163764993622717392540000000578800974276613520_);fill:#FF0000;}
	.st41{clip-path:url(#SVGID_00000119802130648210951540000006415000205173459633_);fill:#FF0000;}
	.st42{clip-path:url(#SVGID_00000099655877957638825020000006519264336865186703_);fill:#FF0000;}
	.st43{clip-path:url(#SVGID_00000046327692409931509450000012378985939613616559_);fill:#FF0000;}
	.st44{clip-path:url(#SVGID_00000083066580942344164930000007705342032904906914_);fill:#FF0000;}
	.st45{clip-path:url(#SVGID_00000035528560089232892910000010767103724140163989_);fill:#FF0000;}
	.st46{clip-path:url(#SVGID_00000165928791009656841010000005560938195108289668_);fill:#FF0000;}
	.st47{clip-path:url(#SVGID_00000010993639289298747520000016118003339202810026_);fill:#FF0000;}
	.st48{clip-path:url(#SVGID_00000176722697878538399330000010273620027535879861_);fill:#FF0000;}
	.st49{clip-path:url(#SVGID_00000155105515637351344610000005272083097431793306_);fill:#FF0000;}
	.st50{clip-path:url(#SVGID_00000052075433221873928960000017982564751934907831_);fill:#FF0000;}
	.st51{clip-path:url(#SVGID_00000104707147604035890590000005438556252684314012_);fill:#FF0000;}
	.st52{fill:#FF0000;}
</style>
<g>
	<g>
		<g>
			<g>
				<defs>
					<rect id="SVGID_1_" x="11.7" y="14" width="77.6" height="65.2"/>
				</defs>
				<clipPath id="SVGID_00000115475122113794173420000000442561111099394475_">
					<use xlink:href="#SVGID_1_"  style="overflow:visible;"/>
				</clipPath>
				
					<path style="clip-path:url(#SVGID_00000115475122113794173420000000442561111099394475_);fill-rule:evenodd;clip-rule:evenodd;fill:#FF0000;" d="
					M59.4,22.4c0-2.4,1.9-4.3,4.3-4.3l0,0l0,0c2.4,0,4.3,1.9,4.3,4.3l0,0l0,0c0,2.4-1.9,4.3-4.3,4.3l0,0l0,0
					C61.3,26.7,59.4,24.8,59.4,22.4L59.4,22.4L59.4,22.4z"/>
			</g>
		</g>
		<g>
			<g>
				<defs>
					<rect id="SVGID_00000071547740456943507160000007978829668426456981_" x="11.7" y="14" width="77.6" height="65.2"/>
				</defs>
				<clipPath id="SVGID_00000080186506486496646330000002197409709786852493_">
					<use xlink:href="#SVGID_00000071547740456943507160000007978829668426456981_"  style="overflow:visible;"/>
				</clipPath>
				<path style="clip-path:url(#SVGID_00000080186506486496646330000002197409709786852493_);fill:#FF0000;" d="M63.7,27.1
					c-2.6,0-4.7-2.1-4.7-4.7s2.1-4.7,4.7-4.7s4.7,2.1,4.7,4.7S66.3,27.1,63.7,27.1z M63.7,18.5c-2.1,0-3.9,1.7-3.9,3.9
					s1.8,3.9,3.9,3.9s3.9-1.8,3.9-3.9S65.8,18.5,63.7,18.5z"/>
			</g>
		</g>
		<g>
			<g>
				<defs>
					<rect id="SVGID_00000124851391335634242320000003780338397251949233_" x="11.7" y="14" width="77.6" height="65.2"/>
				</defs>
				<clipPath id="SVGID_00000062180711187330255320000005288236610737818796_">
					<use xlink:href="#SVGID_00000124851391335634242320000003780338397251949233_"  style="overflow:visible;"/>
				</clipPath>
				<path style="clip-path:url(#SVGID_00000062180711187330255320000005288236610737818796_);fill:#FF0000;" d="M68.1,43.4
					c-0.7,0-1.4-0.3-1.9-0.8l-9.7-9.7c-1-1-1-2.7,0-3.8c1-1,2.7-1,3.8,0l9.7,9.7c1,1,1,2.7,0,3.8C69.4,43.1,68.7,43.4,68.1,43.4z"/>
			</g>
		</g>
		<g>
			<g>
				<defs>
					<rect id="SVGID_00000062880009190480556130000000910486052428653473_" x="11.7" y="14" width="77.6" height="65.2"/>
				</defs>
				<clipPath id="SVGID_00000090294971489455165180000012255913711000328595_">
					<use xlink:href="#SVGID_00000062880009190480556130000000910486052428653473_"  style="overflow:visible;"/>
				</clipPath>
				<path style="clip-path:url(#SVGID_00000090294971489455165180000012255913711000328595_);fill:#FF0000;" d="M69,42.5
					c-0.7,0-1.4-0.3-1.9-0.8c-1-1-1-2.7,0-3.8l9.7-9.7c1-1,2.7-1,3.8,0s1,2.7,0,3.8l-9.7,9.7C70.4,42.3,69.7,42.5,69,42.5z"/>
			</g>
		</g>
		<g>
			<g>
				<defs>
					<rect id="SVGID_00000141441901640023456920000000188686330485862798_" x="11.7" y="14" width="77.6" height="65.2"/>
				</defs>
				<clipPath id="SVGID_00000160909406126692171310000001555706891439494582_">
					<use xlink:href="#SVGID_00000141441901640023456920000000188686330485862798_"  style="overflow:visible;"/>
				</clipPath>
				<path style="clip-path:url(#SVGID_00000160909406126692171310000001555706891439494582_);fill:#FF0000;" d="M37.4,29.1
					c-0.7,0-1.4-0.3-1.9-0.8c-1-1-1-2.7,0-3.8l7.8-7.7c1-1,2.7-1,3.8,0c1,1,1,2.7,0,3.8l-7.8,7.7C38.8,28.9,38.1,29.1,37.4,29.1z"/>
			</g>
		</g>
		<g>
			<g>
				<defs>
					<rect id="SVGID_00000000941092913654705720000012004297875135432883_" x="11.7" y="14" width="77.6" height="65.2"/>
				</defs>
				<clipPath id="SVGID_00000169515971582904251010000004511856140934875793_">
					<use xlink:href="#SVGID_00000000941092913654705720000012004297875135432883_"  style="overflow:visible;"/>
				</clipPath>
				<path style="clip-path:url(#SVGID_00000169515971582904251010000004511856140934875793_);fill:#FF0000;" d="M57,31.5
					c-0.6,0-1.2-0.2-1.7-0.6L44.7,22c-1.1-1-1.3-2.6-0.3-3.8c1-1.1,2.6-1.3,3.8-0.3l10.6,8.9c1.1,1,1.3,2.6,0.3,3.8
					C58.5,31.2,57.8,31.5,57,31.5z"/>
			</g>
		</g>
		<g>
			<g>
				<defs>
					<rect id="SVGID_00000092414037011581010360000011355992100939656622_" x="11.7" y="14" width="77.6" height="65.2"/>
				</defs>
				<clipPath id="SVGID_00000135675009791960836520000015663044240290159034_">
					<use xlink:href="#SVGID_00000092414037011581010360000011355992100939656622_"  style="overflow:visible;"/>
				</clipPath>
				<path style="clip-path:url(#SVGID_00000135675009791960836520000015663044240290159034_);fill:#FF0000;" d="M41.9,47.4
					c-1,0-2-0.4-2.8-1.1c-1.5-1.5-1.5-4,0-5.5l14.6-14.5c1.5-1.5,4-1.5,5.5,0s1.5,4,0,5.5L44.7,46.3C43.9,47,42.9,47.4,41.9,47.4z"
					/>
			</g>
		</g>
		<g>
			<g>
				<defs>
					<rect id="SVGID_00000013915964541738453360000009841988481843320969_" x="11.7" y="14" width="77.6" height="65.2"/>
				</defs>
				<clipPath id="SVGID_00000123411897559829763490000013358891378903314593_">
					<use xlink:href="#SVGID_00000013915964541738453360000009841988481843320969_"  style="overflow:visible;"/>
				</clipPath>
				<path style="clip-path:url(#SVGID_00000123411897559829763490000013358891378903314593_);fill:#FF0000;" d="M55.4,54.9
					c-0.6,0-1.2-0.2-1.7-0.6l-10.6-8.9c-1.1-1-1.3-2.6-0.3-3.8c1-1.1,2.6-1.3,3.8-0.3l10.6,8.9c1.1,1,1.3,2.6,0.3,3.8
					C56.9,54.6,56.1,54.9,55.4,54.9z"/>
			</g>
		</g>
		<g>
			<g>
				<defs>
					<rect id="SVGID_00000156581076537609728120000014220419552051493764_" x="11.7" y="14" width="77.6" height="65.2"/>
				</defs>
				<clipPath id="SVGID_00000100354877873424246680000004683736567274935964_">
					<use xlink:href="#SVGID_00000156581076537609728120000014220419552051493764_"  style="overflow:visible;"/>
				</clipPath>
				<path style="clip-path:url(#SVGID_00000100354877873424246680000004683736567274935964_);fill:#FF0000;" d="M54.7,72.5
					L54.7,72.5c-1.6-0.1-2.7-1.3-2.7-2.8l0.7-17.1c0.1-1.5,1.3-2.6,2.8-2.6c1.5,0.1,2.6,1.3,2.6,2.8L57.3,70
					C57.3,71.4,56.1,72.5,54.7,72.5z"/>
			</g>
		</g>
		<g>
			<g>
				<defs>
					<rect id="SVGID_00000041289718144350092390000010889140131953676448_" x="11.7" y="14" width="77.6" height="65.2"/>
				</defs>
				<clipPath id="SVGID_00000116236409915036488800000016621411361765963964_">
					<use xlink:href="#SVGID_00000041289718144350092390000010889140131953676448_"  style="overflow:visible;"/>
				</clipPath>
				<path style="clip-path:url(#SVGID_00000116236409915036488800000016621411361765963964_);fill:#FF0000;" d="M32.9,58.5
					c-0.7,0-1.4-0.3-1.9-0.8c-1-1.1-1-2.8,0.1-3.8l8.5-8c1.1-1,2.8-1,3.8,0.1s1,2.8-0.1,3.8l-8.5,8C34.2,58.2,33.6,58.5,32.9,58.5z"
					/>
			</g>
		</g>
		<g>
			<g>
				<defs>
					<rect id="SVGID_00000092425887848445875360000008084466391034182804_" x="11.7" y="14" width="77.6" height="65.2"/>
				</defs>
				<clipPath id="SVGID_00000095330654054700729520000012078207202813687992_">
					<use xlink:href="#SVGID_00000092425887848445875360000008084466391034182804_"  style="overflow:visible;"/>
				</clipPath>
				<path style="clip-path:url(#SVGID_00000095330654054700729520000012078207202813687992_);fill:#FF0000;" d="M33,58.3
					c-0.6,0-1.2-0.2-1.7-0.6l-11.2-9.4c-1.1-1-1.3-2.6-0.3-3.8c0.9-1.1,2.6-1.3,3.8-0.3l11.2,9.4c1.1,1,1.3,2.6,0.3,3.8
					C34.5,58,33.8,58.3,33,58.3z"/>
			</g>
		</g>
		<g>
			<g>
				<defs>
					<rect id="SVGID_00000048474163726551913880000009815275529291713197_" x="11.7" y="14" width="77.6" height="65.2"/>
				</defs>
				<clipPath id="SVGID_00000108307696638776650110000013120966914509472402_">
					<use xlink:href="#SVGID_00000048474163726551913880000009815275529291713197_"  style="overflow:visible;"/>
				</clipPath>
				<path style="clip-path:url(#SVGID_00000108307696638776650110000013120966914509472402_);fill:#FF0000;" d="M30.1,67.1
					L30.1,67.1L13,66.9c-0.7,0-1.2-0.6-1.2-1.2c0-0.7,0.6-1.2,1.2-1.2l0,0l17.1,0.2c0.7,0,1.2,0.6,1.2,1.2
					C31.4,66.5,30.8,67.1,30.1,67.1z"/>
			</g>
		</g>
		<g>
			<g>
				<defs>
					<rect id="SVGID_00000049212316209840952060000003998149824768080778_" x="11.7" y="14" width="77.6" height="65.2"/>
				</defs>
				<clipPath id="SVGID_00000106119036833467735610000010605365907359652783_">
					<use xlink:href="#SVGID_00000049212316209840952060000003998149824768080778_"  style="overflow:visible;"/>
				</clipPath>
				<path style="clip-path:url(#SVGID_00000106119036833467735610000010605365907359652783_);fill:#FF0000;" d="M30.1,63L30.1,63
					L13,62.8c-0.7,0-1.2-0.6-1.2-1.2c0-0.7,0.6-1.2,1.2-1.2l0,0l17.1,0.2c0.7,0,1.2,0.6,1.2,1.2C31.4,62.4,30.8,63,30.1,63z"/>
			</g>
		</g>
	</g>
	<g>
		<g>
			<g>
				<defs>
					<rect id="SVGID_00000100382734254092604160000017425358080564620444_" x="74.7" y="14" width="77.6" height="65.2"/>
				</defs>
				<clipPath id="SVGID_00000100381559390186350860000016088929141087959981_">
					<use xlink:href="#SVGID_00000100382734254092604160000017425358080564620444_"  style="overflow:visible;"/>
				</clipPath>
				
					<path style="clip-path:url(#SVGID_00000100381559390186350860000016088929141087959981_);fill-rule:evenodd;clip-rule:evenodd;fill:#FF0000;" d="
					M122.4,22.4c0-2.4,1.9-4.3,4.3-4.3l0,0l0,0c2.4,0,4.3,1.9,4.3,4.3l0,0l0,0c0,2.4-1.9,4.3-4.3,4.3l0,0l0,0
					C124.3,26.7,122.4,24.8,122.4,22.4L122.4,22.4L122.4,22.4z"/>
			</g>
		</g>
		<g>
			<g>
				<defs>
					<rect id="SVGID_00000102543614192199215300000012355751567666898356_" x="74.7" y="14" width="77.6" height="65.2"/>
				</defs>
				<clipPath id="SVGID_00000147932089623971847330000005791305210068402108_">
					<use xlink:href="#SVGID_00000102543614192199215300000012355751567666898356_"  style="overflow:visible;"/>
				</clipPath>
				<path style="clip-path:url(#SVGID_00000147932089623971847330000005791305210068402108_);fill:#FF0000;" d="M126.7,27.1
					c-2.6,0-4.7-2.1-4.7-4.7s2.1-4.7,4.7-4.7c2.6,0,4.7,2.1,4.7,4.7S129.3,27.1,126.7,27.1z M126.7,18.5c-2.1,0-3.9,1.7-3.9,3.9
					s1.8,3.9,3.9,3.9c2.1,0,3.9-1.8,3.9-3.9S128.8,18.5,126.7,18.5z"/>
			</g>
		</g>
		<g>
			<g>
				<defs>
					<rect id="SVGID_00000013165694542053344720000001627841276556098958_" x="74.7" y="14" width="77.6" height="65.2"/>
				</defs>
				<clipPath id="SVGID_00000154389153665966265530000001294431534568392104_">
					<use xlink:href="#SVGID_00000013165694542053344720000001627841276556098958_"  style="overflow:visible;"/>
				</clipPath>
				<path style="clip-path:url(#SVGID_00000154389153665966265530000001294431534568392104_);fill:#FF0000;" d="M131,43.4
					c-0.7,0-1.4-0.3-1.9-0.8l-9.7-9.7c-1-1-1-2.7,0-3.8c1-1,2.7-1,3.8,0l9.7,9.7c1,1,1,2.7,0,3.8C132.4,43.1,131.7,43.4,131,43.4z"
					/>
			</g>
		</g>
		<g>
			<g>
				<defs>
					<rect id="SVGID_00000155836702175556581150000005620330969698699447_" x="74.7" y="14" width="77.6" height="65.2"/>
				</defs>
				<clipPath id="SVGID_00000092448235142963592660000005278982789837366442_">
					<use xlink:href="#SVGID_00000155836702175556581150000005620330969698699447_"  style="overflow:visible;"/>
				</clipPath>
				<path style="clip-path:url(#SVGID_00000092448235142963592660000005278982789837366442_);fill:#FF0000;" d="M132,42.5
					c-0.7,0-1.4-0.3-1.9-0.8c-1-1-1-2.7,0-3.8l9.7-9.7c1-1,2.7-1,3.8,0c1,1,1,2.7,0,3.8l-9.7,9.7C133.4,42.3,132.7,42.5,132,42.5z"
					/>
			</g>
		</g>
		<g>
			<g>
				<defs>
					<rect id="SVGID_00000065042468150683235480000009632263501331165320_" x="74.7" y="14" width="77.6" height="65.2"/>
				</defs>
				<clipPath id="SVGID_00000160887705747411538250000014838777823735473797_">
					<use xlink:href="#SVGID_00000065042468150683235480000009632263501331165320_"  style="overflow:visible;"/>
				</clipPath>
				<path style="clip-path:url(#SVGID_00000160887705747411538250000014838777823735473797_);fill:#FF0000;" d="M100.4,29.1
					c-0.7,0-1.4-0.3-1.9-0.8c-1-1-1-2.7,0-3.8l7.8-7.7c1-1,2.7-1,3.8,0c1,1,1,2.7,0,3.8l-7.8,7.7C101.8,28.9,101.1,29.1,100.4,29.1z
					"/>
			</g>
		</g>
		<g>
			<g>
				<defs>
					<rect id="SVGID_00000142160389374175804400000001414696848972551103_" x="74.7" y="14" width="77.6" height="65.2"/>
				</defs>
				<clipPath id="SVGID_00000072276731964944677530000015820325701553833377_">
					<use xlink:href="#SVGID_00000142160389374175804400000001414696848972551103_"  style="overflow:visible;"/>
				</clipPath>
				<path style="clip-path:url(#SVGID_00000072276731964944677530000015820325701553833377_);fill:#FF0000;" d="M120,31.5
					c-0.6,0-1.2-0.2-1.7-0.6L107.7,22c-1.1-1-1.3-2.6-0.3-3.8c1-1.1,2.6-1.3,3.7-0.3l10.6,8.9c1.1,1,1.3,2.6,0.3,3.8
					C121.5,31.2,120.8,31.5,120,31.5z"/>
			</g>
		</g>
		<g>
			<g>
				<defs>
					<rect id="SVGID_00000039134281312512694820000000915064083302065026_" x="74.7" y="14" width="77.6" height="65.2"/>
				</defs>
				<clipPath id="SVGID_00000107565216095526771390000004928359269743292045_">
					<use xlink:href="#SVGID_00000039134281312512694820000000915064083302065026_"  style="overflow:visible;"/>
				</clipPath>
				<path style="clip-path:url(#SVGID_00000107565216095526771390000004928359269743292045_);fill:#FF0000;" d="M104.9,47.4
					c-1,0-2-0.4-2.8-1.1c-1.5-1.5-1.5-4,0-5.5l14.6-14.5c1.5-1.5,4-1.5,5.5,0s1.5,4,0,5.5l-14.6,14.5
					C106.9,47,105.9,47.4,104.9,47.4z"/>
			</g>
		</g>
		<g>
			<g>
				<defs>
					<rect id="SVGID_00000151504644287713635850000005998226184494991766_" x="74.7" y="14" width="77.6" height="65.2"/>
				</defs>
				<clipPath id="SVGID_00000015313471689259836700000006915652338227241367_">
					<use xlink:href="#SVGID_00000151504644287713635850000005998226184494991766_"  style="overflow:visible;"/>
				</clipPath>
				<path style="clip-path:url(#SVGID_00000015313471689259836700000006915652338227241367_);fill:#FF0000;" d="M118.4,54.9
					c-0.6,0-1.2-0.2-1.7-0.6l-10.6-8.9c-1.1-1-1.3-2.6-0.3-3.8c0.9-1.1,2.6-1.3,3.7-0.3l10.6,8.9c1.1,1,1.3,2.6,0.3,3.8
					C119.9,54.6,119.1,54.9,118.4,54.9z"/>
			</g>
		</g>
		<g>
			<g>
				<defs>
					<rect id="SVGID_00000057149765036526885030000006690368424704011192_" x="74.7" y="14" width="77.6" height="65.2"/>
				</defs>
				<clipPath id="SVGID_00000137095013237487491280000016455535540803320196_">
					<use xlink:href="#SVGID_00000057149765036526885030000006690368424704011192_"  style="overflow:visible;"/>
				</clipPath>
				<path style="clip-path:url(#SVGID_00000137095013237487491280000016455535540803320196_);fill:#FF0000;" d="M117.7,72.5
					L117.7,72.5c-1.6-0.1-2.7-1.3-2.7-2.8l0.7-17.1c0.1-1.5,1.3-2.6,2.8-2.6c1.5,0.1,2.6,1.3,2.6,2.8L120.3,70
					C120.3,71.4,119.1,72.5,117.7,72.5z"/>
			</g>
		</g>
		<g>
			<g>
				<defs>
					<rect id="SVGID_00000123429899964085696980000015102201957783251334_" x="74.7" y="14" width="77.6" height="65.2"/>
				</defs>
				<clipPath id="SVGID_00000031928973560982763100000017431428712431229099_">
					<use xlink:href="#SVGID_00000123429899964085696980000015102201957783251334_"  style="overflow:visible;"/>
				</clipPath>
				<path style="clip-path:url(#SVGID_00000031928973560982763100000017431428712431229099_);fill:#FF0000;" d="M95.9,58.5
					c-0.7,0-1.4-0.3-1.9-0.8c-1-1.1-1-2.8,0.1-3.8l8.5-8c1.1-1,2.8-1,3.8,0.1s1,2.8-0.1,3.8l-8.5,8C97.2,58.2,96.5,58.5,95.9,58.5z"
					/>
			</g>
		</g>
		<g>
			<g>
				<defs>
					<rect id="SVGID_00000093899563552976388900000009341475178435003046_" x="74.7" y="14" width="77.6" height="65.2"/>
				</defs>
				<clipPath id="SVGID_00000147187420913583044700000012726938363842178944_">
					<use xlink:href="#SVGID_00000093899563552976388900000009341475178435003046_"  style="overflow:visible;"/>
				</clipPath>
				<path style="clip-path:url(#SVGID_00000147187420913583044700000012726938363842178944_);fill:#FF0000;" d="M96,58.3
					c-0.6,0-1.2-0.2-1.7-0.6l-11.2-9.4c-1.1-1-1.3-2.6-0.3-3.8c1-1.1,2.6-1.3,3.8-0.3l11.2,9.4c1.1,1,1.3,2.6,0.3,3.8
					C97.5,58,96.7,58.3,96,58.3z"/>
			</g>
		</g>
		<g>
			<g>
				<defs>
					<rect id="SVGID_00000085235844896315741450000007685718379273755030_" x="74.7" y="14" width="77.6" height="65.2"/>
				</defs>
				<clipPath id="SVGID_00000046307154954212870250000004692318133847994242_">
					<use xlink:href="#SVGID_00000085235844896315741450000007685718379273755030_"  style="overflow:visible;"/>
				</clipPath>
				<path style="clip-path:url(#SVGID_00000046307154954212870250000004692318133847994242_);fill:#FF0000;" d="M93.1,67.1
					L93.1,67.1L76,66.9c-0.7,0-1.2-0.6-1.2-1.2c0-0.7,0.6-1.2,1.2-1.2l0,0l17.1,0.2c0.7,0,1.2,0.6,1.2,1.2
					C94.3,66.5,93.8,67.1,93.1,67.1z"/>
			</g>
		</g>
		<g>
			<g>
				<defs>
					<rect id="SVGID_00000121247092500831273340000011864353030542479775_" x="74.7" y="14" width="77.6" height="65.2"/>
				</defs>
				<clipPath id="SVGID_00000140720572309036136720000000161704219504009915_">
					<use xlink:href="#SVGID_00000121247092500831273340000011864353030542479775_"  style="overflow:visible;"/>
				</clipPath>
				<path style="clip-path:url(#SVGID_00000140720572309036136720000000161704219504009915_);fill:#FF0000;" d="M93.1,63L93.1,63
					L76,62.8c-0.7,0-1.2-0.6-1.2-1.2s0.6-1.2,1.2-1.2l0,0l17.1,0.2c0.7,0,1.2,0.6,1.2,1.2C94.3,62.4,93.8,63,93.1,63z"/>
			</g>
		</g>
	</g>
	<g>
		<g>
			<g>
				<defs>
					<rect id="SVGID_00000127754860900098510470000009723326561847544244_" x="74.7" y="80.9" width="77.6" height="65.1"/>
				</defs>
				<clipPath id="SVGID_00000075863198109029812260000005341498922327907774_">
					<use xlink:href="#SVGID_00000127754860900098510470000009723326561847544244_"  style="overflow:visible;"/>
				</clipPath>
				
					<path style="clip-path:url(#SVGID_00000075863198109029812260000005341498922327907774_);fill-rule:evenodd;clip-rule:evenodd;fill:#FF0000;" d="
					M122.4,89.3c0-2.4,1.9-4.3,4.3-4.3l0,0l0,0c2.4,0,4.3,1.9,4.3,4.3l0,0l0,0c0,2.4-1.9,4.3-4.3,4.3l0,0l0,0
					C124.3,93.6,122.4,91.6,122.4,89.3L122.4,89.3L122.4,89.3z"/>
			</g>
		</g>
		<g>
			<g>
				<defs>
					<rect id="SVGID_00000075131099303471110260000012342222291986856341_" x="74.7" y="80.9" width="77.6" height="65.1"/>
				</defs>
				<clipPath id="SVGID_00000092457133805013291390000002931557610588651695_">
					<use xlink:href="#SVGID_00000075131099303471110260000012342222291986856341_"  style="overflow:visible;"/>
				</clipPath>
				<path style="clip-path:url(#SVGID_00000092457133805013291390000002931557610588651695_);fill:#FF0000;" d="M126.7,94
					c-2.6,0-4.7-2.1-4.7-4.7s2.1-4.7,4.7-4.7c2.6,0,4.7,2.1,4.7,4.7S129.3,94,126.7,94z M126.7,85.4c-2.1,0-3.9,1.8-3.9,3.9
					s1.8,3.9,3.9,3.9c2.1,0,3.9-1.8,3.9-3.9S128.8,85.4,126.7,85.4z"/>
			</g>
		</g>
		<g>
			<g>
				<defs>
					<rect id="SVGID_00000118392031809509646730000016416838424511446184_" x="74.7" y="80.9" width="77.6" height="65.1"/>
				</defs>
				<clipPath id="SVGID_00000000198390487305766470000002520554852737724813_">
					<use xlink:href="#SVGID_00000118392031809509646730000016416838424511446184_"  style="overflow:visible;"/>
				</clipPath>
				<path style="clip-path:url(#SVGID_00000000198390487305766470000002520554852737724813_);fill:#FF0000;" d="M131,110.2
					c-0.7,0-1.4-0.3-1.9-0.8l-9.7-9.7c-1-1-1-2.7,0-3.8c1-1,2.7-1,3.8,0l9.7,9.7c1,1,1,2.7,0,3.8C132.4,110,131.7,110.2,131,110.2z"
					/>
			</g>
		</g>
		<g>
			<g>
				<defs>
					<rect id="SVGID_00000131358436707687035210000005411098183207886218_" x="74.7" y="80.9" width="77.6" height="65.1"/>
				</defs>
				<clipPath id="SVGID_00000094584768398848743170000003998452210695471514_">
					<use xlink:href="#SVGID_00000131358436707687035210000005411098183207886218_"  style="overflow:visible;"/>
				</clipPath>
				<path style="clip-path:url(#SVGID_00000094584768398848743170000003998452210695471514_);fill:#FF0000;" d="M132,109.4
					c-0.7,0-1.4-0.3-1.9-0.8c-1-1-1-2.7,0-3.8l9.7-9.7c1-1,2.7-1,3.8,0c1,1,1,2.7,0,3.8l-9.7,9.7C133.4,109.1,132.7,109.4,132,109.4
					z"/>
			</g>
		</g>
		<g>
			<g>
				<defs>
					<rect id="SVGID_00000091699608663647777330000013979109401503169176_" x="74.7" y="80.9" width="77.6" height="65.1"/>
				</defs>
				<clipPath id="SVGID_00000052073860943571427350000003936627787634737048_">
					<use xlink:href="#SVGID_00000091699608663647777330000013979109401503169176_"  style="overflow:visible;"/>
				</clipPath>
				<path style="clip-path:url(#SVGID_00000052073860943571427350000003936627787634737048_);fill:#FF0000;" d="M100.4,96
					c-0.7,0-1.4-0.3-1.9-0.8c-1-1-1-2.7,0-3.8l7.8-7.7c1-1,2.7-1,3.8,0c1,1,1,2.7,0,3.8l-7.8,7.7C101.8,95.7,101.1,96,100.4,96z"/>
			</g>
		</g>
		<g>
			<g>
				<defs>
					<rect id="SVGID_00000026134134833849973090000013140283984676561324_" x="74.7" y="80.9" width="77.6" height="65.1"/>
				</defs>
				<clipPath id="SVGID_00000179617250704566363830000003462991830649444004_">
					<use xlink:href="#SVGID_00000026134134833849973090000013140283984676561324_"  style="overflow:visible;"/>
				</clipPath>
				<path style="clip-path:url(#SVGID_00000179617250704566363830000003462991830649444004_);fill:#FF0000;" d="M120,98.4
					c-0.6,0-1.2-0.2-1.7-0.6l-10.6-8.9c-1.1-0.9-1.3-2.6-0.3-3.8c1-1.1,2.6-1.3,3.8-0.3l10.6,8.9c1.1,0.9,1.3,2.6,0.3,3.8
					C121.5,98.1,120.8,98.4,120,98.4z"/>
			</g>
		</g>
		<g>
			<g>
				<defs>
					<rect id="SVGID_00000178206171056327284590000002742980127980562061_" x="74.7" y="80.9" width="77.6" height="65.1"/>
				</defs>
				<clipPath id="SVGID_00000001639424715255041090000014776842757721392816_">
					<use xlink:href="#SVGID_00000178206171056327284590000002742980127980562061_"  style="overflow:visible;"/>
				</clipPath>
				<path style="clip-path:url(#SVGID_00000001639424715255041090000014776842757721392816_);fill:#FF0000;" d="M104.9,114.2
					c-1,0-2-0.4-2.8-1.1c-1.5-1.5-1.5-4,0-5.5l14.6-14.5c1.5-1.5,4-1.5,5.5,0s1.5,4,0,5.5l-14.6,14.5
					C106.9,113.9,105.9,114.2,104.9,114.2z"/>
			</g>
		</g>
		<g>
			<g>
				<defs>
					<rect id="SVGID_00000109749152311716113710000015961389807025807271_" x="74.7" y="80.9" width="77.6" height="65.1"/>
				</defs>
				<clipPath id="SVGID_00000046339417337474278650000000261113498375358365_">
					<use xlink:href="#SVGID_00000109749152311716113710000015961389807025807271_"  style="overflow:visible;"/>
				</clipPath>
				<path style="clip-path:url(#SVGID_00000046339417337474278650000000261113498375358365_);fill:#FF0000;" d="M118.4,121.8
					c-0.6,0-1.2-0.2-1.7-0.6l-10.6-8.9c-1.1-0.9-1.3-2.6-0.3-3.8c0.9-1.1,2.6-1.3,3.8-0.3l10.6,8.9c1.1,0.9,1.3,2.6,0.3,3.8
					C119.9,121.4,119.1,121.8,118.4,121.8z"/>
			</g>
		</g>
		<g>
			<g>
				<defs>
					<rect id="SVGID_00000000198973946782015670000009010228378909981628_" x="74.7" y="80.9" width="77.6" height="65.1"/>
				</defs>
				<clipPath id="SVGID_00000099639841622988379920000003624355181761765771_">
					<use xlink:href="#SVGID_00000000198973946782015670000009010228378909981628_"  style="overflow:visible;"/>
				</clipPath>
				<path style="clip-path:url(#SVGID_00000099639841622988379920000003624355181761765771_);fill:#FF0000;" d="M117.7,139.4
					L117.7,139.4c-1.6-0.1-2.7-1.3-2.7-2.8l0.7-17.1c0.1-1.5,1.3-2.6,2.8-2.6c1.5,0.1,2.6,1.3,2.6,2.8l-0.7,17.1
					C120.3,138.2,119.1,139.4,117.7,139.4z"/>
			</g>
		</g>
		<g>
			<g>
				<defs>
					<rect id="SVGID_00000135657551716772103360000017739128700728080783_" x="74.7" y="80.9" width="77.6" height="65.1"/>
				</defs>
				<clipPath id="SVGID_00000022518841678998152650000001561347586184664978_">
					<use xlink:href="#SVGID_00000135657551716772103360000017739128700728080783_"  style="overflow:visible;"/>
				</clipPath>
				<path style="clip-path:url(#SVGID_00000022518841678998152650000001561347586184664978_);fill:#FF0000;" d="M95.9,125.3
					c-0.7,0-1.4-0.3-1.9-0.8c-1-1.1-1-2.8,0.1-3.8l8.5-8c1.1-1,2.8-1,3.8,0.1s1,2.8-0.1,3.8l-8.5,8
					C97.2,125.1,96.5,125.3,95.9,125.3z"/>
			</g>
		</g>
		<g>
			<g>
				<defs>
					<rect id="SVGID_00000129205775485219431490000008373487439699871882_" x="74.7" y="80.9" width="77.6" height="65.1"/>
				</defs>
				<clipPath id="SVGID_00000039105325865205934020000015099641234932683697_">
					<use xlink:href="#SVGID_00000129205775485219431490000008373487439699871882_"  style="overflow:visible;"/>
				</clipPath>
				<path style="clip-path:url(#SVGID_00000039105325865205934020000015099641234932683697_);fill:#FF0000;" d="M96,125.1
					c-0.6,0-1.2-0.2-1.7-0.6l-11.2-9.4c-1.1-1-1.3-2.6-0.3-3.8c1-1.1,2.6-1.3,3.8-0.3l11.2,9.4c1.1,1,1.3,2.6,0.3,3.8
					C97.5,124.8,96.7,125.1,96,125.1z"/>
			</g>
		</g>
		<g>
			<g>
				<defs>
					<rect id="SVGID_00000160161193655668252770000015816497893068092089_" x="74.7" y="80.9" width="77.6" height="65.1"/>
				</defs>
				<clipPath id="SVGID_00000129203461896409474140000001807742105066640268_">
					<use xlink:href="#SVGID_00000160161193655668252770000015816497893068092089_"  style="overflow:visible;"/>
				</clipPath>
				<path style="clip-path:url(#SVGID_00000129203461896409474140000001807742105066640268_);fill:#FF0000;" d="M93.1,133.9
					L93.1,133.9L76,133.7c-0.7,0-1.2-0.6-1.2-1.2s0.6-1.1,1.2-1.2l17.1,0.2c0.7,0,1.2,0.6,1.2,1.2C94.3,133.4,93.8,133.9,93.1,133.9
					z"/>
			</g>
		</g>
		<g>
			<g>
				<defs>
					<rect id="SVGID_00000018922661201931988600000000169388400609682580_" x="74.7" y="80.9" width="77.6" height="65.1"/>
				</defs>
				<clipPath id="SVGID_00000101824825481407165520000010896444733958531225_">
					<use xlink:href="#SVGID_00000018922661201931988600000000169388400609682580_"  style="overflow:visible;"/>
				</clipPath>
				<path style="clip-path:url(#SVGID_00000101824825481407165520000010896444733958531225_);fill:#FF0000;" d="M93.1,129.8
					L93.1,129.8L76,129.6c-0.7,0-1.2-0.6-1.2-1.2c0-0.7,0.6-1.1,1.2-1.2l17.1,0.2c0.7,0,1.2,0.6,1.2,1.2
					C94.3,129.3,93.8,129.8,93.1,129.8z"/>
			</g>
		</g>
	</g>
	<g>
		<g>
			<g>
				<defs>
					<rect id="SVGID_00000081642452495252871640000012599639895858796476_" x="11.7" y="80.9" width="77.6" height="65.2"/>
				</defs>
				<clipPath id="SVGID_00000118396572857637391440000006488295688243466371_">
					<use xlink:href="#SVGID_00000081642452495252871640000012599639895858796476_"  style="overflow:visible;"/>
				</clipPath>
				
					<path style="clip-path:url(#SVGID_00000118396572857637391440000006488295688243466371_);fill-rule:evenodd;clip-rule:evenodd;fill:#FF0000;" d="
					M59.4,89.3c0-2.4,1.9-4.3,4.3-4.3l0,0l0,0c2.4,0,4.3,1.9,4.3,4.3l0,0l0,0c0,2.4-1.9,4.3-4.3,4.3l0,0l0,0
					C61.3,93.6,59.4,91.6,59.4,89.3L59.4,89.3L59.4,89.3z"/>
			</g>
		</g>
		<g>
			<g>
				<defs>
					<rect id="SVGID_00000013889769656137802530000008131152055127185844_" x="11.7" y="80.9" width="77.6" height="65.2"/>
				</defs>
				<clipPath id="SVGID_00000029020760457668362510000014174065544442635677_">
					<use xlink:href="#SVGID_00000013889769656137802530000008131152055127185844_"  style="overflow:visible;"/>
				</clipPath>
				<path style="clip-path:url(#SVGID_00000029020760457668362510000014174065544442635677_);fill:#FF0000;" d="M63.7,94
					c-2.6,0-4.7-2.1-4.7-4.7s2.1-4.7,4.7-4.7s4.7,2.1,4.7,4.7S66.3,94,63.7,94z M63.7,85.4c-2.1,0-3.9,1.8-3.9,3.9s1.8,3.9,3.9,3.9
					s3.9-1.8,3.9-3.9C67.6,87.1,65.8,85.4,63.7,85.4z"/>
			</g>
		</g>
		<g>
			<g>
				<defs>
					<rect id="SVGID_00000096048695580046410010000012535657654506560672_" x="11.7" y="80.9" width="77.6" height="65.2"/>
				</defs>
				<clipPath id="SVGID_00000074428133822866460450000010929371808075232949_">
					<use xlink:href="#SVGID_00000096048695580046410010000012535657654506560672_"  style="overflow:visible;"/>
				</clipPath>
				<path style="clip-path:url(#SVGID_00000074428133822866460450000010929371808075232949_);fill:#FF0000;" d="M68.1,110.2
					c-0.7,0-1.4-0.3-1.9-0.8l-9.7-9.7c-1-1-1-2.7,0-3.8c1-1,2.7-1.1,3.8,0l9.7,9.7c1,1,1,2.7,0,3.8C69.4,110,68.7,110.2,68.1,110.2z
					"/>
			</g>
		</g>
		<g>
			<g>
				<defs>
					<rect id="SVGID_00000037692757671274223550000013450217671185687445_" x="11.7" y="80.9" width="77.6" height="65.2"/>
				</defs>
				<clipPath id="SVGID_00000039115098364560939580000005109803905137716668_">
					<use xlink:href="#SVGID_00000037692757671274223550000013450217671185687445_"  style="overflow:visible;"/>
				</clipPath>
				<path style="clip-path:url(#SVGID_00000039115098364560939580000005109803905137716668_);fill:#FF0000;" d="M69,109.4
					c-0.7,0-1.4-0.3-1.9-0.8c-1-1-1-2.7,0-3.8l9.7-9.7c1-1,2.7-1,3.8,0c1,1,1,2.7,0,3.8l-9.7,9.7C70.4,109.2,69.7,109.4,69,109.4z"
					/>
			</g>
		</g>
		<g>
			<g>
				<defs>
					<rect id="SVGID_00000084490737131243224610000012237447016820049334_" x="11.7" y="80.9" width="77.6" height="65.2"/>
				</defs>
				<clipPath id="SVGID_00000148647043861771942520000017733310602728488889_">
					<use xlink:href="#SVGID_00000084490737131243224610000012237447016820049334_"  style="overflow:visible;"/>
				</clipPath>
				<path style="clip-path:url(#SVGID_00000148647043861771942520000017733310602728488889_);fill:#FF0000;" d="M37.4,96
					c-0.7,0-1.4-0.3-1.9-0.8c-1-1-1-2.7,0-3.8l7.8-7.7c1-1,2.7-1,3.8,0c1,1,1,2.7,0,3.8l-7.8,7.7C38.8,95.7,38.1,96,37.4,96z"/>
			</g>
		</g>
		<g>
			<g>
				<defs>
					<rect id="SVGID_00000070079906432363469260000017335109820473811645_" x="11.7" y="80.9" width="77.6" height="65.2"/>
				</defs>
				<clipPath id="SVGID_00000144309306392195593590000017836161755735699333_">
					<use xlink:href="#SVGID_00000070079906432363469260000017335109820473811645_"  style="overflow:visible;"/>
				</clipPath>
				<path style="clip-path:url(#SVGID_00000144309306392195593590000017836161755735699333_);fill:#FF0000;" d="M57,98.4
					c-0.6,0-1.2-0.2-1.7-0.6l-10.6-8.9c-1.1-1-1.3-2.6-0.3-3.8c1-1.1,2.6-1.3,3.8-0.3l10.6,8.9c1.1,1,1.3,2.6,0.3,3.8
					C58.5,98.1,57.8,98.4,57,98.4z"/>
			</g>
		</g>
		<g>
			<g>
				<defs>
					<rect id="SVGID_00000088819626860630306310000009404613664686802077_" x="11.7" y="80.9" width="77.6" height="65.2"/>
				</defs>
				<clipPath id="SVGID_00000078016624411485106760000006006055373284921276_">
					<use xlink:href="#SVGID_00000088819626860630306310000009404613664686802077_"  style="overflow:visible;"/>
				</clipPath>
				<path style="clip-path:url(#SVGID_00000078016624411485106760000006006055373284921276_);fill:#FF0000;" d="M41.9,114.3
					c-1,0-2-0.4-2.8-1.1c-1.5-1.5-1.5-4,0-5.5l14.6-14.5c1.5-1.5,4-1.5,5.5,0s1.5,4,0,5.5l-14.6,14.5
					C43.9,113.9,42.9,114.3,41.9,114.3z"/>
			</g>
		</g>
		<g>
			<g>
				<defs>
					<rect id="SVGID_00000152956303114308750420000017418124737425071002_" x="11.7" y="80.9" width="77.6" height="65.2"/>
				</defs>
				<clipPath id="SVGID_00000081639112579748066340000015459563253966936741_">
					<use xlink:href="#SVGID_00000152956303114308750420000017418124737425071002_"  style="overflow:visible;"/>
				</clipPath>
				<path style="clip-path:url(#SVGID_00000081639112579748066340000015459563253966936741_);fill:#FF0000;" d="M55.4,121.8
					c-0.6,0-1.2-0.2-1.7-0.6l-10.6-8.9c-1.1-1-1.3-2.6-0.3-3.8c1-1.1,2.6-1.3,3.8-0.3l10.6,8.9c1.1,1,1.3,2.6,0.3,3.8
					C56.9,121.5,56.1,121.8,55.4,121.8z"/>
			</g>
		</g>
		<g>
			<g>
				<defs>
					<rect id="SVGID_00000100383812471931433530000000919910026068836778_" x="11.7" y="80.9" width="77.6" height="65.2"/>
				</defs>
				<clipPath id="SVGID_00000008112030156263964500000004625596700000794297_">
					<use xlink:href="#SVGID_00000100383812471931433530000000919910026068836778_"  style="overflow:visible;"/>
				</clipPath>
				<path style="clip-path:url(#SVGID_00000008112030156263964500000004625596700000794297_);fill:#FF0000;" d="M54.7,139.4
					L54.7,139.4c-1.6-0.1-2.7-1.3-2.7-2.8l0.7-17.1c0.1-1.5,1.3-2.6,2.8-2.6c1.5,0.1,2.6,1.3,2.6,2.8l-0.7,17.1
					C57.3,138.3,56.1,139.4,54.7,139.4z"/>
			</g>
		</g>
		<g>
			<g>
				<defs>
					<rect id="SVGID_00000180330327563498205410000003163335898605295028_" x="11.7" y="80.9" width="77.6" height="65.2"/>
				</defs>
				<clipPath id="SVGID_00000100351447131732636050000001434320276103143588_">
					<use xlink:href="#SVGID_00000180330327563498205410000003163335898605295028_"  style="overflow:visible;"/>
				</clipPath>
				<path style="clip-path:url(#SVGID_00000100351447131732636050000001434320276103143588_);fill:#FF0000;" d="M32.9,125.4
					c-0.7,0-1.4-0.3-1.9-0.8c-1-1.1-1-2.8,0.1-3.8l8.5-8c1.1-1,2.8-1,3.8,0.1s1,2.8-0.1,3.8l-8.5,8
					C34.2,125.1,33.6,125.4,32.9,125.4z"/>
			</g>
		</g>
		<g>
			<g>
				<defs>
					<rect id="SVGID_00000144296090900079558610000008492215287011694767_" x="11.7" y="80.9" width="77.6" height="65.2"/>
				</defs>
				<clipPath id="SVGID_00000119807174995143836250000008331213825153872538_">
					<use xlink:href="#SVGID_00000144296090900079558610000008492215287011694767_"  style="overflow:visible;"/>
				</clipPath>
				<path style="clip-path:url(#SVGID_00000119807174995143836250000008331213825153872538_);fill:#FF0000;" d="M33,125.2
					c-0.6,0-1.2-0.2-1.7-0.6l-11.2-9.4c-1.1-1-1.3-2.6-0.3-3.8c0.9-1.1,2.6-1.3,3.8-0.3l11.2,9.4c1.1,1,1.3,2.6,0.3,3.8
					C34.5,124.8,33.8,125.2,33,125.2z"/>
			</g>
		</g>
		<g>
			<g>
				<defs>
					<rect id="SVGID_00000027570085737137643080000015671800175656204940_" x="11.7" y="80.9" width="77.6" height="65.2"/>
				</defs>
				<clipPath id="SVGID_00000076582036131977904670000008782540534338261651_">
					<use xlink:href="#SVGID_00000027570085737137643080000015671800175656204940_"  style="overflow:visible;"/>
				</clipPath>
				<path style="clip-path:url(#SVGID_00000076582036131977904670000008782540534338261651_);fill:#FF0000;" d="M30.1,134L30.1,134
					L13,133.8c-0.7,0-1.2-0.6-1.2-1.2c0-0.7,0.6-1.2,1.2-1.2l0,0l17.1,0.2c0.7,0,1.2,0.6,1.2,1.2C31.4,133.4,30.8,134,30.1,134z"/>
			</g>
		</g>
		<g>
			<g>
				<defs>
					<rect id="SVGID_00000098940186349892344230000004858013712307955610_" x="11.7" y="80.9" width="77.6" height="65.2"/>
				</defs>
				<clipPath id="SVGID_00000028295565504111875340000000419686789885416323_">
					<use xlink:href="#SVGID_00000098940186349892344230000004858013712307955610_"  style="overflow:visible;"/>
				</clipPath>
				<path style="clip-path:url(#SVGID_00000028295565504111875340000000419686789885416323_);fill:#FF0000;" d="M30.1,129.9
					L30.1,129.9L13,129.7c-0.7,0-1.2-0.6-1.2-1.2c0-0.7,0.6-1.2,1.2-1.2l0,0l17.1,0.2c0.7,0,1.2,0.6,1.2,1.2
					C31.4,129.3,30.8,129.9,30.1,129.9z"/>
			</g>
		</g>
	</g>
	<path class="st52" d="M156,156H0V0h156V156z M6.1,149.9h143.8V6.1H6.1V149.9z"/>
</g>
</svg>
