<?xml version="1.0" encoding="utf-8"?>
<!-- Generator: Adobe Illustrator 28.0.0, SVG Export Plug-In . SVG Version: 6.00 Build 0)  -->
<svg version="1.1" id="Layer_1" xmlns="http://www.w3.org/2000/svg" xmlns:xlink="http://www.w3.org/1999/xlink" x="0px" y="0px"
	 viewBox="0 0 156 156" style="enable-background:new 0 0 156 156;" xml:space="preserve">
<style type="text/css">
	
		.st0{clip-path:url(#SVGID_00000101814671788108010180000002436396142706330045_);fill-rule:evenodd;clip-rule:evenodd;fill:#FFFFFF;}
	
		.st1{clip-path:url(#SVGID_00000039826765290396298880000017089455354662601660_);fill-rule:evenodd;clip-rule:evenodd;fill:#FF0000;}
	.st2{clip-path:url(#SVGID_00000173126539743191057270000008922869864371660972_);fill:#FF0000;}
	.st3{clip-path:url(#SVGID_00000114072349435606540270000014348301199006447788_);fill:#FF0000;}
	.st4{clip-path:url(#SVGID_00000003093064422264239730000002446083503243355059_);fill:#FF0000;}
	.st5{clip-path:url(#SVGID_00000007406673611388762150000015387105588898408611_);fill:#FF0000;}
	.st6{clip-path:url(#SVGID_00000064319286174863450120000000798696860558821026_);fill:#FF0000;}
	.st7{clip-path:url(#SVGID_00000169535255245261820500000018413071788251978624_);fill:#FF0000;}
	.st8{clip-path:url(#SVGID_00000021083892235356332230000014155162464043915692_);fill:#FF0000;}
	.st9{clip-path:url(#SVGID_00000160168363484541948580000000479901064361775236_);fill:#FF0000;}
	.st10{clip-path:url(#SVGID_00000057851224880674974460000013565274916233064630_);fill:#FF0000;}
	.st11{clip-path:url(#SVGID_00000119812164646708321160000011698838992712330163_);fill:#FF0000;}
	.st12{clip-path:url(#SVGID_00000073685723224376152940000013320523007555008136_);fill:#FF0000;}
	.st13{clip-path:url(#SVGID_00000043452078596286698290000004374590233834872206_);fill:#FF0000;}
	
		.st14{clip-path:url(#SVGID_00000080896052628487792360000004403884642724023962_);fill-rule:evenodd;clip-rule:evenodd;fill:#FFFFFF;}
	
		.st15{clip-path:url(#SVGID_00000116931968389523789030000001366124363311040140_);fill-rule:evenodd;clip-rule:evenodd;fill:#FF0000;}
	.st16{clip-path:url(#SVGID_00000096047444838261156530000009437587475682761860_);fill:#FF0000;}
	.st17{clip-path:url(#SVGID_00000005267039903805700120000015338226071052031898_);fill:#FF0000;}
	.st18{clip-path:url(#SVGID_00000183229393253283777780000003428926855401064855_);fill:#FF0000;}
	.st19{clip-path:url(#SVGID_00000137843315911435284010000017172706536998875558_);fill:#FF0000;}
	.st20{clip-path:url(#SVGID_00000034812571750831278710000008208295924700681894_);fill:#FF0000;}
	.st21{clip-path:url(#SVGID_00000109738434083551655680000017728665068264249517_);fill:#FF0000;}
	.st22{clip-path:url(#SVGID_00000060004811267535940390000000245309277689511860_);fill:#FF0000;}
	.st23{clip-path:url(#SVGID_00000076597260165267564320000012789743021707892893_);fill:#FF0000;}
	.st24{clip-path:url(#SVGID_00000099654240737968157020000013424891931572570508_);fill:#FF0000;}
	.st25{clip-path:url(#SVGID_00000024724013714765491790000011766455747287562112_);fill:#FF0000;}
	.st26{clip-path:url(#SVGID_00000163786117391699755910000014628535426876956310_);fill:#FF0000;}
	.st27{clip-path:url(#SVGID_00000063606190472941872360000015306423599225511604_);fill:#FF0000;}
	
		.st28{clip-path:url(#SVGID_00000054963347144293809300000011428150958659664519_);fill-rule:evenodd;clip-rule:evenodd;fill:#FFFFFF;}
	
		.st29{clip-path:url(#SVGID_00000053540122449484562590000000132606560316820659_);fill-rule:evenodd;clip-rule:evenodd;fill:#FF0000;}
	.st30{clip-path:url(#SVGID_00000120543704761330803460000015449548631815375498_);fill:#FF0000;}
	.st31{clip-path:url(#SVGID_00000158708811095027387870000001709721634074141331_);fill:#FF0000;}
	.st32{clip-path:url(#SVGID_00000021809866508934676520000009617526087340793476_);fill:#FF0000;}
	.st33{clip-path:url(#SVGID_00000086667950160397574720000004622883275673334958_);fill:#FF0000;}
	.st34{clip-path:url(#SVGID_00000083776638584688476400000013200094988477602709_);fill:#FF0000;}
	.st35{clip-path:url(#SVGID_00000092420464217920721600000016344007278257142958_);fill:#FF0000;}
	.st36{clip-path:url(#SVGID_00000033357414374396259140000009453612544011165834_);fill:#FF0000;}
	.st37{clip-path:url(#SVGID_00000114044943216417541450000004067488696006228901_);fill:#FF0000;}
	.st38{clip-path:url(#SVGID_00000095323781074306043350000010421878258993759135_);fill:#FF0000;}
	.st39{clip-path:url(#SVGID_00000152951982174511684750000002929012378776686256_);fill:#FF0000;}
	.st40{clip-path:url(#SVGID_00000167358801358107169640000013043325981620122757_);fill:#FF0000;}
	.st41{clip-path:url(#SVGID_00000170973256795618721100000013177753689580072844_);fill:#FF0000;}
	
		.st42{clip-path:url(#SVGID_00000153687908405746875140000017906248294358820264_);fill-rule:evenodd;clip-rule:evenodd;fill:#FFFFFF;}
	
		.st43{clip-path:url(#SVGID_00000129906466286985592170000013853925852504285824_);fill-rule:evenodd;clip-rule:evenodd;fill:#FF0000;}
	.st44{clip-path:url(#SVGID_00000059273794152620113520000015913873830292889216_);fill:#FF0000;}
	.st45{clip-path:url(#SVGID_00000178177949264256272470000017312656627093412495_);fill:#FF0000;}
	.st46{clip-path:url(#SVGID_00000062172787528325681850000017865107988689112717_);fill:#FF0000;}
	.st47{clip-path:url(#SVGID_00000092452387216744529960000013738056077112575892_);fill:#FF0000;}
	.st48{clip-path:url(#SVGID_00000026844568212482873920000009636403294025409682_);fill:#FF0000;}
	.st49{clip-path:url(#SVGID_00000142865072527651102440000004627373461888007855_);fill:#FF0000;}
	.st50{clip-path:url(#SVGID_00000114752419353266953760000009322557654851125893_);fill:#FF0000;}
	.st51{clip-path:url(#SVGID_00000078729026192571761390000018414878601020323738_);fill:#FF0000;}
	.st52{clip-path:url(#SVGID_00000075842749247260317580000012305680062506632344_);fill:#FF0000;}
	.st53{clip-path:url(#SVGID_00000030465855876285005660000014831854344518090422_);fill:#FF0000;}
	.st54{clip-path:url(#SVGID_00000143579200687874111580000003555080794946213293_);fill:#FF0000;}
	.st55{clip-path:url(#SVGID_00000155132584976784811780000016507213902142609800_);fill:#FF0000;}
	.st56{fill:#FF0000;}
</style>
<g>
	<g>
		<g>
			<defs>
				<rect id="SVGID_1_" x="11.7" y="14" width="77.6" height="65.2"/>
			</defs>
			<clipPath id="SVGID_00000166637431913278496010000003649015982631683739_">
				<use xlink:href="#SVGID_1_"  style="overflow:visible;"/>
			</clipPath>
			
				<polygon style="clip-path:url(#SVGID_00000166637431913278496010000003649015982631683739_);fill-rule:evenodd;clip-rule:evenodd;fill:#FFFFFF;" points="
				11.4,15.7 82,15.7 82,73 11.4,73 			"/>
		</g>
		<g>
			<defs>
				<rect id="SVGID_00000013906327007420255130000018429487445863261575_" x="11.7" y="14" width="77.6" height="65.2"/>
			</defs>
			<clipPath id="SVGID_00000026121458785266084380000010058315976271200662_">
				<use xlink:href="#SVGID_00000013906327007420255130000018429487445863261575_"  style="overflow:visible;"/>
			</clipPath>
			
				<path style="clip-path:url(#SVGID_00000026121458785266084380000010058315976271200662_);fill-rule:evenodd;clip-rule:evenodd;fill:#FF0000;" d="
				M59.4,22.4c0-2.4,1.9-4.3,4.3-4.3l0,0l0,0c2.4,0,4.3,1.9,4.3,4.3l0,0l0,0c0,2.4-1.9,4.3-4.3,4.3l0,0l0,0
				C61.3,26.7,59.4,24.8,59.4,22.4L59.4,22.4L59.4,22.4z"/>
		</g>
		<g>
			<defs>
				<rect id="SVGID_00000041987606317973256680000016152655250324311983_" x="11.7" y="14" width="77.6" height="65.2"/>
			</defs>
			<clipPath id="SVGID_00000108267475831302213870000001917044882857871760_">
				<use xlink:href="#SVGID_00000041987606317973256680000016152655250324311983_"  style="overflow:visible;"/>
			</clipPath>
			<path style="clip-path:url(#SVGID_00000108267475831302213870000001917044882857871760_);fill:#FF0000;" d="M63.7,27.1
				c-2.6,0-4.7-2.1-4.7-4.7s2.1-4.7,4.7-4.7s4.7,2.1,4.7,4.7C68.4,25,66.3,27.1,63.7,27.1z M63.7,18.5c-2.1,0-3.9,1.7-3.9,3.9
				s1.8,3.9,3.9,3.9c2.1,0,3.9-1.8,3.9-3.9S65.8,18.5,63.7,18.5z"/>
		</g>
		<g>
			<defs>
				<rect id="SVGID_00000107561700488487833490000015558023798631592629_" x="11.7" y="14" width="77.6" height="65.2"/>
			</defs>
			<clipPath id="SVGID_00000013167158050766234440000005419661031254149791_">
				<use xlink:href="#SVGID_00000107561700488487833490000015558023798631592629_"  style="overflow:visible;"/>
			</clipPath>
			<path style="clip-path:url(#SVGID_00000013167158050766234440000005419661031254149791_);fill:#FF0000;" d="M68.1,43.4
				c-0.7,0-1.4-0.3-1.9-0.8l-9.7-9.7c-1-1-1-2.7,0-3.8c1-1,2.7-1,3.8,0l9.7,9.7c1,1,1,2.7,0,3.8C69.4,43.1,68.7,43.4,68.1,43.4z"/>
		</g>
		<g>
			<defs>
				<rect id="SVGID_00000003803742168246531270000008235346548879186081_" x="11.7" y="14" width="77.6" height="65.2"/>
			</defs>
			<clipPath id="SVGID_00000179646106702089238650000008148202107382161547_">
				<use xlink:href="#SVGID_00000003803742168246531270000008235346548879186081_"  style="overflow:visible;"/>
			</clipPath>
			<path style="clip-path:url(#SVGID_00000179646106702089238650000008148202107382161547_);fill:#FF0000;" d="M69,42.5
				c-0.7,0-1.4-0.3-1.9-0.8c-1-1-1-2.7,0-3.8l9.7-9.7c1-1,2.7-1,3.8,0s1,2.7,0,3.8l-9.7,9.7C70.4,42.3,69.7,42.5,69,42.5z"/>
		</g>
		<g>
			<defs>
				<rect id="SVGID_00000080183403914310602170000017971216938097914287_" x="11.7" y="14" width="77.6" height="65.2"/>
			</defs>
			<clipPath id="SVGID_00000179641407047658789470000013085031959805191597_">
				<use xlink:href="#SVGID_00000080183403914310602170000017971216938097914287_"  style="overflow:visible;"/>
			</clipPath>
			<path style="clip-path:url(#SVGID_00000179641407047658789470000013085031959805191597_);fill:#FF0000;" d="M37.4,29.1
				c-0.7,0-1.4-0.3-1.9-0.8c-1-1-1-2.7,0-3.8l7.8-7.7c1-1,2.7-1,3.8,0c1,1,1,2.7,0,3.8l-7.8,7.7C38.8,28.9,38.1,29.1,37.4,29.1z"/>
		</g>
		<g>
			<defs>
				<rect id="SVGID_00000035505373339623052420000008547509249439473305_" x="11.7" y="14" width="77.6" height="65.2"/>
			</defs>
			<clipPath id="SVGID_00000149352878496312716970000015835613149360999305_">
				<use xlink:href="#SVGID_00000035505373339623052420000008547509249439473305_"  style="overflow:visible;"/>
			</clipPath>
			<path style="clip-path:url(#SVGID_00000149352878496312716970000015835613149360999305_);fill:#FF0000;" d="M57,31.5
				c-0.6,0-1.2-0.2-1.7-0.6L44.7,22c-1.1-1-1.3-2.6-0.3-3.8c1-1.1,2.6-1.3,3.8-0.3l10.6,8.9c1.1,1,1.3,2.6,0.3,3.8
				C58.5,31.2,57.8,31.5,57,31.5z"/>
		</g>
		<g>
			<defs>
				<rect id="SVGID_00000126319829469764588290000008668575999137693332_" x="11.7" y="14" width="77.6" height="65.2"/>
			</defs>
			<clipPath id="SVGID_00000087390306723424976140000014690296171763678342_">
				<use xlink:href="#SVGID_00000126319829469764588290000008668575999137693332_"  style="overflow:visible;"/>
			</clipPath>
			<path style="clip-path:url(#SVGID_00000087390306723424976140000014690296171763678342_);fill:#FF0000;" d="M41.9,47.4
				c-1,0-2-0.4-2.8-1.1c-1.5-1.5-1.5-4,0-5.5l14.6-14.5c1.5-1.5,4-1.5,5.5,0c1.5,1.5,1.5,4,0,5.5L44.7,46.3
				C43.9,47,42.9,47.4,41.9,47.4z"/>
		</g>
		<g>
			<defs>
				<rect id="SVGID_00000070836942041817201700000012711570752842438812_" x="11.7" y="14" width="77.6" height="65.2"/>
			</defs>
			<clipPath id="SVGID_00000122710650397338547630000006972347983011767736_">
				<use xlink:href="#SVGID_00000070836942041817201700000012711570752842438812_"  style="overflow:visible;"/>
			</clipPath>
			<path style="clip-path:url(#SVGID_00000122710650397338547630000006972347983011767736_);fill:#FF0000;" d="M55.4,54.9
				c-0.6,0-1.2-0.2-1.7-0.6l-10.6-8.9c-1.1-1-1.3-2.6-0.3-3.8c1-1.1,2.6-1.3,3.8-0.3l10.6,8.9c1.1,1,1.3,2.6,0.3,3.8
				C56.9,54.6,56.1,54.9,55.4,54.9z"/>
		</g>
		<g>
			<defs>
				<rect id="SVGID_00000137105213233321654270000014801145976477941690_" x="11.7" y="14" width="77.6" height="65.2"/>
			</defs>
			<clipPath id="SVGID_00000080174453814357872580000007157242760190635392_">
				<use xlink:href="#SVGID_00000137105213233321654270000014801145976477941690_"  style="overflow:visible;"/>
			</clipPath>
			<path style="clip-path:url(#SVGID_00000080174453814357872580000007157242760190635392_);fill:#FF0000;" d="M54.7,72.5
				c0,0-0.1,0-0.1,0c-1.5-0.1-2.6-1.3-2.6-2.8l0.7-17.1c0.1-1.5,1.3-2.6,2.8-2.6c1.5,0.1,2.6,1.3,2.6,2.8L57.3,70
				C57.3,71.4,56.1,72.5,54.7,72.5z"/>
		</g>
		<g>
			<defs>
				<rect id="SVGID_00000025406445658542456300000014982288772858264706_" x="11.7" y="14" width="77.6" height="65.2"/>
			</defs>
			<clipPath id="SVGID_00000072962620383604188460000009321051002198595508_">
				<use xlink:href="#SVGID_00000025406445658542456300000014982288772858264706_"  style="overflow:visible;"/>
			</clipPath>
			<path style="clip-path:url(#SVGID_00000072962620383604188460000009321051002198595508_);fill:#FF0000;" d="M32.9,58.5
				c-0.7,0-1.4-0.3-1.9-0.8c-1-1.1-1-2.8,0.1-3.8l8.5-8c1.1-1,2.8-1,3.8,0.1c1,1.1,1,2.8-0.1,3.8l-8.5,8
				C34.2,58.2,33.6,58.5,32.9,58.5z"/>
		</g>
		<g>
			<defs>
				<rect id="SVGID_00000047778371666108299540000002879400712848174494_" x="11.7" y="14" width="77.6" height="65.2"/>
			</defs>
			<clipPath id="SVGID_00000112619684294193496220000001799855782371335306_">
				<use xlink:href="#SVGID_00000047778371666108299540000002879400712848174494_"  style="overflow:visible;"/>
			</clipPath>
			<path style="clip-path:url(#SVGID_00000112619684294193496220000001799855782371335306_);fill:#FF0000;" d="M33,58.3
				c-0.6,0-1.2-0.2-1.7-0.6l-11.2-9.4c-1.1-1-1.3-2.6-0.3-3.8c0.9-1.1,2.6-1.3,3.8-0.3l11.2,9.4c1.1,1,1.3,2.6,0.3,3.8
				C34.5,58,33.8,58.3,33,58.3z"/>
		</g>
		<g>
			<defs>
				<rect id="SVGID_00000163069955479931353670000011871687835338317235_" x="11.7" y="14" width="77.6" height="65.2"/>
			</defs>
			<clipPath id="SVGID_00000103961644444392154170000010298109805569730739_">
				<use xlink:href="#SVGID_00000163069955479931353670000011871687835338317235_"  style="overflow:visible;"/>
			</clipPath>
			<path style="clip-path:url(#SVGID_00000103961644444392154170000010298109805569730739_);fill:#FF0000;" d="M30.1,67.1L30.1,67.1
				L13,66.9c-0.7,0-1.2-0.6-1.2-1.2c0-0.7,0.6-1.2,1.2-1.2h0l17.1,0.2c0.7,0,1.2,0.6,1.2,1.2C31.4,66.5,30.8,67.1,30.1,67.1z"/>
		</g>
		<g>
			<defs>
				<rect id="SVGID_00000150815687757287041140000004627251409553399473_" x="11.7" y="14" width="77.6" height="65.2"/>
			</defs>
			<clipPath id="SVGID_00000078025960241149933990000016776106341935994248_">
				<use xlink:href="#SVGID_00000150815687757287041140000004627251409553399473_"  style="overflow:visible;"/>
			</clipPath>
			<path style="clip-path:url(#SVGID_00000078025960241149933990000016776106341935994248_);fill:#FF0000;" d="M30.1,63L30.1,63
				L13,62.8c-0.7,0-1.2-0.6-1.2-1.2c0-0.7,0.6-1.2,1.2-1.2h0l17.1,0.2c0.7,0,1.2,0.6,1.2,1.2C31.4,62.4,30.8,63,30.1,63z"/>
		</g>
	</g>
	<g>
		<g>
			<defs>
				<rect id="SVGID_00000155845469075914901300000017051062813083378060_" x="74.7" y="14" width="77.6" height="65.2"/>
			</defs>
			<clipPath id="SVGID_00000075842203859993527000000012451578265011098518_">
				<use xlink:href="#SVGID_00000155845469075914901300000017051062813083378060_"  style="overflow:visible;"/>
			</clipPath>
			
				<polygon style="clip-path:url(#SVGID_00000075842203859993527000000012451578265011098518_);fill-rule:evenodd;clip-rule:evenodd;fill:#FFFFFF;" points="
				74.3,15.7 145,15.7 145,73 74.3,73 			"/>
		</g>
		<g>
			<defs>
				<rect id="SVGID_00000146479260223910254250000017757858556013491355_" x="74.7" y="14" width="77.6" height="65.2"/>
			</defs>
			<clipPath id="SVGID_00000087404699700905645980000003206229075756490129_">
				<use xlink:href="#SVGID_00000146479260223910254250000017757858556013491355_"  style="overflow:visible;"/>
			</clipPath>
			
				<path style="clip-path:url(#SVGID_00000087404699700905645980000003206229075756490129_);fill-rule:evenodd;clip-rule:evenodd;fill:#FF0000;" d="
				M122.4,22.4c0-2.4,1.9-4.3,4.3-4.3l0,0l0,0c2.4,0,4.3,1.9,4.3,4.3l0,0l0,0c0,2.4-1.9,4.3-4.3,4.3l0,0l0,0
				C124.3,26.7,122.4,24.8,122.4,22.4L122.4,22.4L122.4,22.4z"/>
		</g>
		<g>
			<defs>
				<rect id="SVGID_00000041271762533832779520000009448727199864835980_" x="74.7" y="14" width="77.6" height="65.2"/>
			</defs>
			<clipPath id="SVGID_00000034807177886903640440000002107554979974241963_">
				<use xlink:href="#SVGID_00000041271762533832779520000009448727199864835980_"  style="overflow:visible;"/>
			</clipPath>
			<path style="clip-path:url(#SVGID_00000034807177886903640440000002107554979974241963_);fill:#FF0000;" d="M126.7,27.1
				c-2.6,0-4.7-2.1-4.7-4.7s2.1-4.7,4.7-4.7s4.7,2.1,4.7,4.7C131.4,25,129.3,27.1,126.7,27.1z M126.7,18.5c-2.1,0-3.9,1.7-3.9,3.9
				s1.8,3.9,3.9,3.9s3.9-1.8,3.9-3.9S128.8,18.5,126.7,18.5z"/>
		</g>
		<g>
			<defs>
				<rect id="SVGID_00000091724270374208772400000016737226965907788206_" x="74.7" y="14" width="77.6" height="65.2"/>
			</defs>
			<clipPath id="SVGID_00000161609142592695019000000011650511769399381640_">
				<use xlink:href="#SVGID_00000091724270374208772400000016737226965907788206_"  style="overflow:visible;"/>
			</clipPath>
			<path style="clip-path:url(#SVGID_00000161609142592695019000000011650511769399381640_);fill:#FF0000;" d="M131,43.4
				c-0.7,0-1.4-0.3-1.9-0.8l-9.7-9.7c-1-1-1-2.7,0-3.8c1-1,2.7-1,3.8,0l9.7,9.7c1,1,1,2.7,0,3.8C132.4,43.1,131.7,43.4,131,43.4z"/>
		</g>
		<g>
			<defs>
				<rect id="SVGID_00000024706791395746275610000001329330467602503080_" x="74.7" y="14" width="77.6" height="65.2"/>
			</defs>
			<clipPath id="SVGID_00000121268450926401027700000015936208446519460795_">
				<use xlink:href="#SVGID_00000024706791395746275610000001329330467602503080_"  style="overflow:visible;"/>
			</clipPath>
			<path style="clip-path:url(#SVGID_00000121268450926401027700000015936208446519460795_);fill:#FF0000;" d="M132,42.5
				c-0.7,0-1.4-0.3-1.9-0.8c-1-1-1-2.7,0-3.8l9.7-9.7c1-1,2.7-1,3.8,0c1,1,1,2.7,0,3.8l-9.7,9.7C133.4,42.3,132.7,42.5,132,42.5z"/>
		</g>
		<g>
			<defs>
				<rect id="SVGID_00000164507775896892256810000017889198812222910106_" x="74.7" y="14" width="77.6" height="65.2"/>
			</defs>
			<clipPath id="SVGID_00000108995522614043502560000016688923904838939304_">
				<use xlink:href="#SVGID_00000164507775896892256810000017889198812222910106_"  style="overflow:visible;"/>
			</clipPath>
			<path style="clip-path:url(#SVGID_00000108995522614043502560000016688923904838939304_);fill:#FF0000;" d="M100.4,29.1
				c-0.7,0-1.4-0.3-1.9-0.8c-1-1-1-2.7,0-3.8l7.8-7.7c1-1,2.7-1,3.8,0c1,1,1,2.7,0,3.8l-7.8,7.7C101.8,28.9,101.1,29.1,100.4,29.1z"
				/>
		</g>
		<g>
			<defs>
				<rect id="SVGID_00000130606789375024140830000006415916727063795588_" x="74.7" y="14" width="77.6" height="65.2"/>
			</defs>
			<clipPath id="SVGID_00000136408672115888317310000011891880314175331761_">
				<use xlink:href="#SVGID_00000130606789375024140830000006415916727063795588_"  style="overflow:visible;"/>
			</clipPath>
			<path style="clip-path:url(#SVGID_00000136408672115888317310000011891880314175331761_);fill:#FF0000;" d="M120,31.5
				c-0.6,0-1.2-0.2-1.7-0.6L107.7,22c-1.1-1-1.3-2.6-0.3-3.8c1-1.1,2.6-1.3,3.7-0.3l10.6,8.9c1.1,1,1.3,2.6,0.3,3.8
				C121.5,31.2,120.8,31.5,120,31.5z"/>
		</g>
		<g>
			<defs>
				<rect id="SVGID_00000046312420400265771490000002181065763273092264_" x="74.7" y="14" width="77.6" height="65.2"/>
			</defs>
			<clipPath id="SVGID_00000013166525552556989300000017582058093086015161_">
				<use xlink:href="#SVGID_00000046312420400265771490000002181065763273092264_"  style="overflow:visible;"/>
			</clipPath>
			<path style="clip-path:url(#SVGID_00000013166525552556989300000017582058093086015161_);fill:#FF0000;" d="M104.9,47.4
				c-1,0-2-0.4-2.8-1.1c-1.5-1.5-1.5-4,0-5.5l14.6-14.5c1.5-1.5,4-1.5,5.5,0c1.5,1.5,1.5,4,0,5.5l-14.6,14.5
				C106.9,47,105.9,47.4,104.9,47.4z"/>
		</g>
		<g>
			<defs>
				<rect id="SVGID_00000080895395148708442460000013843981547247526791_" x="74.7" y="14" width="77.6" height="65.2"/>
			</defs>
			<clipPath id="SVGID_00000072249106685599891380000003236901699594748814_">
				<use xlink:href="#SVGID_00000080895395148708442460000013843981547247526791_"  style="overflow:visible;"/>
			</clipPath>
			<path style="clip-path:url(#SVGID_00000072249106685599891380000003236901699594748814_);fill:#FF0000;" d="M118.4,54.9
				c-0.6,0-1.2-0.2-1.7-0.6l-10.6-8.9c-1.1-1-1.3-2.6-0.3-3.8c0.9-1.1,2.6-1.3,3.7-0.3l10.6,8.9c1.1,1,1.3,2.6,0.3,3.8
				C119.9,54.6,119.1,54.9,118.4,54.9z"/>
		</g>
		<g>
			<defs>
				<rect id="SVGID_00000029757638529360315670000006510174450338451391_" x="74.7" y="14" width="77.6" height="65.2"/>
			</defs>
			<clipPath id="SVGID_00000117639509002891342300000007202196140306564513_">
				<use xlink:href="#SVGID_00000029757638529360315670000006510174450338451391_"  style="overflow:visible;"/>
			</clipPath>
			<path style="clip-path:url(#SVGID_00000117639509002891342300000007202196140306564513_);fill:#FF0000;" d="M117.7,72.5
				c0,0-0.1,0-0.1,0c-1.5-0.1-2.6-1.3-2.6-2.8l0.7-17.1c0.1-1.5,1.3-2.6,2.8-2.6c1.5,0.1,2.6,1.3,2.6,2.8L120.3,70
				C120.3,71.4,119.1,72.5,117.7,72.5z"/>
		</g>
		<g>
			<defs>
				<rect id="SVGID_00000131362908746669907860000012430918651684655782_" x="74.7" y="14" width="77.6" height="65.2"/>
			</defs>
			<clipPath id="SVGID_00000088127372753584698890000004160265106723222693_">
				<use xlink:href="#SVGID_00000131362908746669907860000012430918651684655782_"  style="overflow:visible;"/>
			</clipPath>
			<path style="clip-path:url(#SVGID_00000088127372753584698890000004160265106723222693_);fill:#FF0000;" d="M95.9,58.5
				c-0.7,0-1.4-0.3-1.9-0.8c-1-1.1-1-2.8,0.1-3.8l8.5-8c1.1-1,2.8-1,3.8,0.1c1,1.1,1,2.8-0.1,3.8l-8.5,8
				C97.2,58.2,96.5,58.5,95.9,58.5z"/>
		</g>
		<g>
			<defs>
				<rect id="SVGID_00000070116297107627214870000017536464539568194202_" x="74.7" y="14" width="77.6" height="65.2"/>
			</defs>
			<clipPath id="SVGID_00000110429913172262631700000004343224380854807436_">
				<use xlink:href="#SVGID_00000070116297107627214870000017536464539568194202_"  style="overflow:visible;"/>
			</clipPath>
			<path style="clip-path:url(#SVGID_00000110429913172262631700000004343224380854807436_);fill:#FF0000;" d="M96,58.3
				c-0.6,0-1.2-0.2-1.7-0.6l-11.2-9.4c-1.1-1-1.3-2.6-0.3-3.8c1-1.1,2.6-1.3,3.8-0.3l11.2,9.4c1.1,1,1.3,2.6,0.3,3.8
				C97.5,58,96.7,58.3,96,58.3z"/>
		</g>
		<g>
			<defs>
				<rect id="SVGID_00000022527791017035768790000008930669316660883086_" x="74.7" y="14" width="77.6" height="65.2"/>
			</defs>
			<clipPath id="SVGID_00000000201236808170220990000015102029231729181338_">
				<use xlink:href="#SVGID_00000022527791017035768790000008930669316660883086_"  style="overflow:visible;"/>
			</clipPath>
			<path style="clip-path:url(#SVGID_00000000201236808170220990000015102029231729181338_);fill:#FF0000;" d="M93.1,67.1
				C93.1,67.1,93.1,67.1,93.1,67.1L76,66.9c-0.7,0-1.2-0.6-1.2-1.2c0-0.7,0.6-1.2,1.2-1.2h0l17.1,0.2c0.7,0,1.2,0.6,1.2,1.2
				C94.3,66.5,93.8,67.1,93.1,67.1z"/>
		</g>
		<g>
			<defs>
				<rect id="SVGID_00000024682378949775365260000006098943921199435180_" x="74.7" y="14" width="77.6" height="65.2"/>
			</defs>
			<clipPath id="SVGID_00000160190626227284742970000005270943056632981387_">
				<use xlink:href="#SVGID_00000024682378949775365260000006098943921199435180_"  style="overflow:visible;"/>
			</clipPath>
			<path style="clip-path:url(#SVGID_00000160190626227284742970000005270943056632981387_);fill:#FF0000;" d="M93.1,63
				C93.1,63,93.1,63,93.1,63L76,62.8c-0.7,0-1.2-0.6-1.2-1.2s0.6-1.2,1.2-1.2h0l17.1,0.2c0.7,0,1.2,0.6,1.2,1.2
				C94.3,62.4,93.8,63,93.1,63z"/>
		</g>
	</g>
	<g>
		<g>
			<defs>
				<rect id="SVGID_00000035526633666331835910000009226131098669275551_" x="74.7" y="80.9" width="77.6" height="65.1"/>
			</defs>
			<clipPath id="SVGID_00000132055975684416397250000011352194484678729386_">
				<use xlink:href="#SVGID_00000035526633666331835910000009226131098669275551_"  style="overflow:visible;"/>
			</clipPath>
			
				<polygon style="clip-path:url(#SVGID_00000132055975684416397250000011352194484678729386_);fill-rule:evenodd;clip-rule:evenodd;fill:#FFFFFF;" points="
				74.3,82.5 145,82.5 145,139.9 74.3,139.9 			"/>
		</g>
		<g>
			<defs>
				<rect id="SVGID_00000118355894517640457120000001937865022905923723_" x="74.7" y="80.9" width="77.6" height="65.1"/>
			</defs>
			<clipPath id="SVGID_00000068646102447422429550000008209963452408784794_">
				<use xlink:href="#SVGID_00000118355894517640457120000001937865022905923723_"  style="overflow:visible;"/>
			</clipPath>
			
				<path style="clip-path:url(#SVGID_00000068646102447422429550000008209963452408784794_);fill-rule:evenodd;clip-rule:evenodd;fill:#FF0000;" d="
				M122.4,89.3c0-2.4,1.9-4.3,4.3-4.3l0,0l0,0c2.4,0,4.3,1.9,4.3,4.3l0,0l0,0c0,2.4-1.9,4.3-4.3,4.3l0,0l0,0
				C124.3,93.6,122.4,91.6,122.4,89.3L122.4,89.3L122.4,89.3z"/>
		</g>
		<g>
			<defs>
				<rect id="SVGID_00000117638160541915646920000013987931283135144612_" x="74.7" y="80.9" width="77.6" height="65.1"/>
			</defs>
			<clipPath id="SVGID_00000083077070130516274320000017467976320602131087_">
				<use xlink:href="#SVGID_00000117638160541915646920000013987931283135144612_"  style="overflow:visible;"/>
			</clipPath>
			<path style="clip-path:url(#SVGID_00000083077070130516274320000017467976320602131087_);fill:#FF0000;" d="M126.7,94
				c-2.6,0-4.7-2.1-4.7-4.7c0-2.6,2.1-4.7,4.7-4.7s4.7,2.1,4.7,4.7C131.4,91.9,129.3,94,126.7,94z M126.7,85.4
				c-2.1,0-3.9,1.8-3.9,3.9s1.8,3.9,3.9,3.9s3.9-1.8,3.9-3.9S128.8,85.4,126.7,85.4z"/>
		</g>
		<g>
			<defs>
				<rect id="SVGID_00000089572605928149588890000015352556394820963515_" x="74.7" y="80.9" width="77.6" height="65.1"/>
			</defs>
			<clipPath id="SVGID_00000099637922568472600040000012662632112806614178_">
				<use xlink:href="#SVGID_00000089572605928149588890000015352556394820963515_"  style="overflow:visible;"/>
			</clipPath>
			<path style="clip-path:url(#SVGID_00000099637922568472600040000012662632112806614178_);fill:#FF0000;" d="M131,110.2
				c-0.7,0-1.4-0.3-1.9-0.8l-9.7-9.7c-1-1-1-2.7,0-3.8c1-1,2.7-1,3.8,0l9.7,9.7c1,1,1,2.7,0,3.8C132.4,110,131.7,110.2,131,110.2z"
				/>
		</g>
		<g>
			<defs>
				<rect id="SVGID_00000116206414679453432670000007384070296326118058_" x="74.7" y="80.9" width="77.6" height="65.1"/>
			</defs>
			<clipPath id="SVGID_00000086676051319343446930000010135161739174336446_">
				<use xlink:href="#SVGID_00000116206414679453432670000007384070296326118058_"  style="overflow:visible;"/>
			</clipPath>
			<path style="clip-path:url(#SVGID_00000086676051319343446930000010135161739174336446_);fill:#FF0000;" d="M132,109.4
				c-0.7,0-1.4-0.3-1.9-0.8c-1-1-1-2.7,0-3.8l9.7-9.7c1-1,2.7-1,3.8,0c1,1,1,2.7,0,3.8l-9.7,9.7C133.4,109.1,132.7,109.4,132,109.4z
				"/>
		</g>
		<g>
			<defs>
				<rect id="SVGID_00000067933396293528029240000015936191992778670263_" x="74.7" y="80.9" width="77.6" height="65.1"/>
			</defs>
			<clipPath id="SVGID_00000063607564154332790680000011916349266203145392_">
				<use xlink:href="#SVGID_00000067933396293528029240000015936191992778670263_"  style="overflow:visible;"/>
			</clipPath>
			<path style="clip-path:url(#SVGID_00000063607564154332790680000011916349266203145392_);fill:#FF0000;" d="M100.4,96
				c-0.7,0-1.4-0.3-1.9-0.8c-1-1-1-2.7,0-3.8l7.8-7.7c1-1,2.7-1,3.8,0c1,1,1,2.7,0,3.8l-7.8,7.7C101.8,95.7,101.1,96,100.4,96z"/>
		</g>
		<g>
			<defs>
				<rect id="SVGID_00000024681583257151602050000012854138706768363952_" x="74.7" y="80.9" width="77.6" height="65.1"/>
			</defs>
			<clipPath id="SVGID_00000079470558961111142200000017182471200501373317_">
				<use xlink:href="#SVGID_00000024681583257151602050000012854138706768363952_"  style="overflow:visible;"/>
			</clipPath>
			<path style="clip-path:url(#SVGID_00000079470558961111142200000017182471200501373317_);fill:#FF0000;" d="M120,98.4
				c-0.6,0-1.2-0.2-1.7-0.6l-10.6-8.9c-1.1-0.9-1.3-2.6-0.3-3.8c1-1.1,2.6-1.3,3.8-0.3l10.6,8.9c1.1,0.9,1.3,2.6,0.3,3.8
				C121.5,98.1,120.8,98.4,120,98.4z"/>
		</g>
		<g>
			<defs>
				<rect id="SVGID_00000157288146216504209010000010994715378791339704_" x="74.7" y="80.9" width="77.6" height="65.1"/>
			</defs>
			<clipPath id="SVGID_00000068642314738479274930000001037893376638898864_">
				<use xlink:href="#SVGID_00000157288146216504209010000010994715378791339704_"  style="overflow:visible;"/>
			</clipPath>
			<path style="clip-path:url(#SVGID_00000068642314738479274930000001037893376638898864_);fill:#FF0000;" d="M104.9,114.2
				c-1,0-2-0.4-2.8-1.1c-1.5-1.5-1.5-4,0-5.5l14.6-14.5c1.5-1.5,4-1.5,5.5,0c1.5,1.5,1.5,4,0,5.5l-14.6,14.5
				C106.9,113.9,105.9,114.2,104.9,114.2z"/>
		</g>
		<g>
			<defs>
				<rect id="SVGID_00000052082124834887030110000016308346130825025180_" x="74.7" y="80.9" width="77.6" height="65.1"/>
			</defs>
			<clipPath id="SVGID_00000055699591426955020620000010505003045354112667_">
				<use xlink:href="#SVGID_00000052082124834887030110000016308346130825025180_"  style="overflow:visible;"/>
			</clipPath>
			<path style="clip-path:url(#SVGID_00000055699591426955020620000010505003045354112667_);fill:#FF0000;" d="M118.4,121.8
				c-0.6,0-1.2-0.2-1.7-0.6l-10.6-8.9c-1.1-0.9-1.3-2.6-0.3-3.8c0.9-1.1,2.6-1.3,3.8-0.3l10.6,8.9c1.1,0.9,1.3,2.6,0.3,3.8
				C119.9,121.4,119.1,121.8,118.4,121.8z"/>
		</g>
		<g>
			<defs>
				<rect id="SVGID_00000116949534430866292650000003154077664290428055_" x="74.7" y="80.9" width="77.6" height="65.1"/>
			</defs>
			<clipPath id="SVGID_00000053526186918227355870000002518106500798960517_">
				<use xlink:href="#SVGID_00000116949534430866292650000003154077664290428055_"  style="overflow:visible;"/>
			</clipPath>
			<path style="clip-path:url(#SVGID_00000053526186918227355870000002518106500798960517_);fill:#FF0000;" d="M117.7,139.4
				c0,0-0.1,0-0.1,0c-1.5-0.1-2.6-1.3-2.6-2.8l0.7-17.1c0.1-1.5,1.3-2.6,2.8-2.6c1.5,0.1,2.6,1.3,2.6,2.8l-0.7,17.1
				C120.3,138.2,119.1,139.4,117.7,139.4z"/>
		</g>
		<g>
			<defs>
				<rect id="SVGID_00000174568879114604415790000010526936703929063041_" x="74.7" y="80.9" width="77.6" height="65.1"/>
			</defs>
			<clipPath id="SVGID_00000039101557582884937170000002167556762567966134_">
				<use xlink:href="#SVGID_00000174568879114604415790000010526936703929063041_"  style="overflow:visible;"/>
			</clipPath>
			<path style="clip-path:url(#SVGID_00000039101557582884937170000002167556762567966134_);fill:#FF0000;" d="M95.9,125.3
				c-0.7,0-1.4-0.3-1.9-0.8c-1-1.1-1-2.8,0.1-3.8l8.5-8c1.1-1,2.8-1,3.8,0.1c1,1.1,1,2.8-0.1,3.8l-8.5,8
				C97.2,125.1,96.5,125.3,95.9,125.3z"/>
		</g>
		<g>
			<defs>
				<rect id="SVGID_00000095338755677630446250000009749640811371946136_" x="74.7" y="80.9" width="77.6" height="65.1"/>
			</defs>
			<clipPath id="SVGID_00000107566090769682340380000008774236549892016784_">
				<use xlink:href="#SVGID_00000095338755677630446250000009749640811371946136_"  style="overflow:visible;"/>
			</clipPath>
			<path style="clip-path:url(#SVGID_00000107566090769682340380000008774236549892016784_);fill:#FF0000;" d="M96,125.1
				c-0.6,0-1.2-0.2-1.7-0.6l-11.2-9.4c-1.1-1-1.3-2.6-0.3-3.8c1-1.1,2.6-1.3,3.8-0.3l11.2,9.4c1.1,1,1.3,2.6,0.3,3.8
				C97.5,124.8,96.7,125.1,96,125.1z"/>
		</g>
		<g>
			<defs>
				<rect id="SVGID_00000087395462992469285430000015242982167789793682_" x="74.7" y="80.9" width="77.6" height="65.1"/>
			</defs>
			<clipPath id="SVGID_00000179608505610920444430000001796151486795174549_">
				<use xlink:href="#SVGID_00000087395462992469285430000015242982167789793682_"  style="overflow:visible;"/>
			</clipPath>
			<path style="clip-path:url(#SVGID_00000179608505610920444430000001796151486795174549_);fill:#FF0000;" d="M93.1,133.9
				C93.1,133.9,93.1,133.9,93.1,133.9L76,133.7c-0.7,0-1.2-0.6-1.2-1.2s0.6-1.1,1.2-1.2l17.1,0.2c0.7,0,1.2,0.6,1.2,1.2
				C94.3,133.4,93.8,133.9,93.1,133.9z"/>
		</g>
		<g>
			<defs>
				<rect id="SVGID_00000012452057280058723730000010958999849146625978_" x="74.7" y="80.9" width="77.6" height="65.1"/>
			</defs>
			<clipPath id="SVGID_00000097485527216449592800000006583859687623998615_">
				<use xlink:href="#SVGID_00000012452057280058723730000010958999849146625978_"  style="overflow:visible;"/>
			</clipPath>
			<path style="clip-path:url(#SVGID_00000097485527216449592800000006583859687623998615_);fill:#FF0000;" d="M93.1,129.8
				C93.1,129.8,93.1,129.8,93.1,129.8L76,129.6c-0.7,0-1.2-0.6-1.2-1.2c0-0.7,0.6-1.1,1.2-1.2l17.1,0.2c0.7,0,1.2,0.6,1.2,1.2
				C94.3,129.3,93.8,129.8,93.1,129.8z"/>
		</g>
	</g>
	<g>
		<g>
			<defs>
				<rect id="SVGID_00000069397461787549187660000008177358180473212852_" x="11.7" y="80.9" width="77.6" height="65.2"/>
			</defs>
			<clipPath id="SVGID_00000058563397367116168190000013257688888602099387_">
				<use xlink:href="#SVGID_00000069397461787549187660000008177358180473212852_"  style="overflow:visible;"/>
			</clipPath>
			
				<polygon style="clip-path:url(#SVGID_00000058563397367116168190000013257688888602099387_);fill-rule:evenodd;clip-rule:evenodd;fill:#FFFFFF;" points="
				11.4,82.5 82,82.5 82,139.9 11.4,139.9 			"/>
		</g>
		<g>
			<defs>
				<rect id="SVGID_00000178187357782722379440000010619791338485417610_" x="11.7" y="80.9" width="77.6" height="65.2"/>
			</defs>
			<clipPath id="SVGID_00000140729351352007876980000001867506516877713330_">
				<use xlink:href="#SVGID_00000178187357782722379440000010619791338485417610_"  style="overflow:visible;"/>
			</clipPath>
			
				<path style="clip-path:url(#SVGID_00000140729351352007876980000001867506516877713330_);fill-rule:evenodd;clip-rule:evenodd;fill:#FF0000;" d="
				M59.4,89.3c0-2.4,1.9-4.3,4.3-4.3l0,0l0,0c2.4,0,4.3,1.9,4.3,4.3l0,0l0,0c0,2.4-1.9,4.3-4.3,4.3l0,0l0,0
				C61.3,93.6,59.4,91.6,59.4,89.3L59.4,89.3L59.4,89.3z"/>
		</g>
		<g>
			<defs>
				<rect id="SVGID_00000088098519635848094850000006092702637175089029_" x="11.7" y="80.9" width="77.6" height="65.2"/>
			</defs>
			<clipPath id="SVGID_00000146488643586755595530000000165335958892024200_">
				<use xlink:href="#SVGID_00000088098519635848094850000006092702637175089029_"  style="overflow:visible;"/>
			</clipPath>
			<path style="clip-path:url(#SVGID_00000146488643586755595530000000165335958892024200_);fill:#FF0000;" d="M63.7,94
				c-2.6,0-4.7-2.1-4.7-4.7c0-2.6,2.1-4.7,4.7-4.7s4.7,2.1,4.7,4.7C68.4,91.9,66.3,94,63.7,94z M63.7,85.4c-2.1,0-3.9,1.8-3.9,3.9
				c0,2.1,1.8,3.9,3.9,3.9c2.1,0,3.9-1.8,3.9-3.9C67.6,87.1,65.8,85.4,63.7,85.4z"/>
		</g>
		<g>
			<defs>
				<rect id="SVGID_00000123434961988154605540000001913679925465137343_" x="11.7" y="80.9" width="77.6" height="65.2"/>
			</defs>
			<clipPath id="SVGID_00000002343083992050439980000006069121254854603927_">
				<use xlink:href="#SVGID_00000123434961988154605540000001913679925465137343_"  style="overflow:visible;"/>
			</clipPath>
			<path style="clip-path:url(#SVGID_00000002343083992050439980000006069121254854603927_);fill:#FF0000;" d="M68.1,110.2
				c-0.7,0-1.4-0.3-1.9-0.8l-9.7-9.7c-1-1-1-2.7,0-3.8c1-1,2.7-1.1,3.8,0l9.7,9.7c1,1,1,2.7,0,3.8C69.4,110,68.7,110.2,68.1,110.2z"
				/>
		</g>
		<g>
			<defs>
				<rect id="SVGID_00000179620325199476463570000012250906268489515139_" x="11.7" y="80.9" width="77.6" height="65.2"/>
			</defs>
			<clipPath id="SVGID_00000103242281741987243180000010094844943723877528_">
				<use xlink:href="#SVGID_00000179620325199476463570000012250906268489515139_"  style="overflow:visible;"/>
			</clipPath>
			<path style="clip-path:url(#SVGID_00000103242281741987243180000010094844943723877528_);fill:#FF0000;" d="M69,109.4
				c-0.7,0-1.4-0.3-1.9-0.8c-1-1-1-2.7,0-3.8l9.7-9.7c1-1,2.7-1,3.8,0c1,1,1,2.7,0,3.8l-9.7,9.7C70.4,109.2,69.7,109.4,69,109.4z"/>
		</g>
		<g>
			<defs>
				<rect id="SVGID_00000138557921613460739280000003223898580178913213_" x="11.7" y="80.9" width="77.6" height="65.2"/>
			</defs>
			<clipPath id="SVGID_00000108294658085188235110000014899951936075358141_">
				<use xlink:href="#SVGID_00000138557921613460739280000003223898580178913213_"  style="overflow:visible;"/>
			</clipPath>
			<path style="clip-path:url(#SVGID_00000108294658085188235110000014899951936075358141_);fill:#FF0000;" d="M37.4,96
				c-0.7,0-1.4-0.3-1.9-0.8c-1-1-1-2.7,0-3.8l7.8-7.7c1-1,2.7-1,3.8,0c1,1,1,2.7,0,3.8l-7.8,7.7C38.8,95.7,38.1,96,37.4,96z"/>
		</g>
		<g>
			<defs>
				<rect id="SVGID_00000139990124782061869810000012916982990842808216_" x="11.7" y="80.9" width="77.6" height="65.2"/>
			</defs>
			<clipPath id="SVGID_00000158736094627279476960000005794480244528709042_">
				<use xlink:href="#SVGID_00000139990124782061869810000012916982990842808216_"  style="overflow:visible;"/>
			</clipPath>
			<path style="clip-path:url(#SVGID_00000158736094627279476960000005794480244528709042_);fill:#FF0000;" d="M57,98.4
				c-0.6,0-1.2-0.2-1.7-0.6l-10.6-8.9c-1.1-1-1.3-2.6-0.3-3.8c1-1.1,2.6-1.3,3.8-0.3l10.6,8.9c1.1,1,1.3,2.6,0.3,3.8
				C58.5,98.1,57.8,98.4,57,98.4z"/>
		</g>
		<g>
			<defs>
				<rect id="SVGID_00000084498510170190454470000002890534555534316941_" x="11.7" y="80.9" width="77.6" height="65.2"/>
			</defs>
			<clipPath id="SVGID_00000028325228168921876890000003092046869915607689_">
				<use xlink:href="#SVGID_00000084498510170190454470000002890534555534316941_"  style="overflow:visible;"/>
			</clipPath>
			<path style="clip-path:url(#SVGID_00000028325228168921876890000003092046869915607689_);fill:#FF0000;" d="M41.9,114.3
				c-1,0-2-0.4-2.8-1.1c-1.5-1.5-1.5-4,0-5.5l14.6-14.5c1.5-1.5,4-1.5,5.5,0c1.5,1.5,1.5,4,0,5.5l-14.6,14.5
				C43.9,113.9,42.9,114.3,41.9,114.3z"/>
		</g>
		<g>
			<defs>
				<rect id="SVGID_00000114773095474345140710000008556371458135930554_" x="11.7" y="80.9" width="77.6" height="65.2"/>
			</defs>
			<clipPath id="SVGID_00000003806652553814964650000002125584229521602223_">
				<use xlink:href="#SVGID_00000114773095474345140710000008556371458135930554_"  style="overflow:visible;"/>
			</clipPath>
			<path style="clip-path:url(#SVGID_00000003806652553814964650000002125584229521602223_);fill:#FF0000;" d="M55.4,121.8
				c-0.6,0-1.2-0.2-1.7-0.6l-10.6-8.9c-1.1-1-1.3-2.6-0.3-3.8c1-1.1,2.6-1.3,3.8-0.3l10.6,8.9c1.1,1,1.3,2.6,0.3,3.8
				C56.9,121.5,56.1,121.8,55.4,121.8z"/>
		</g>
		<g>
			<defs>
				<rect id="SVGID_00000050652871208746580060000003062959294137971845_" x="11.7" y="80.9" width="77.6" height="65.2"/>
			</defs>
			<clipPath id="SVGID_00000152245770228360767430000006591420349281496992_">
				<use xlink:href="#SVGID_00000050652871208746580060000003062959294137971845_"  style="overflow:visible;"/>
			</clipPath>
			<path style="clip-path:url(#SVGID_00000152245770228360767430000006591420349281496992_);fill:#FF0000;" d="M54.7,139.4
				c0,0-0.1,0-0.1,0c-1.5-0.1-2.6-1.3-2.6-2.8l0.7-17.1c0.1-1.5,1.3-2.6,2.8-2.6c1.5,0.1,2.6,1.3,2.6,2.8l-0.7,17.1
				C57.3,138.3,56.1,139.4,54.7,139.4z"/>
		</g>
		<g>
			<defs>
				<rect id="SVGID_00000048478573547369893830000011347835253341973172_" x="11.7" y="80.9" width="77.6" height="65.2"/>
			</defs>
			<clipPath id="SVGID_00000005951860746881172340000013649833083223827897_">
				<use xlink:href="#SVGID_00000048478573547369893830000011347835253341973172_"  style="overflow:visible;"/>
			</clipPath>
			<path style="clip-path:url(#SVGID_00000005951860746881172340000013649833083223827897_);fill:#FF0000;" d="M32.9,125.4
				c-0.7,0-1.4-0.3-1.9-0.8c-1-1.1-1-2.8,0.1-3.8l8.5-8c1.1-1,2.8-1,3.8,0.1c1,1.1,1,2.8-0.1,3.8l-8.5,8
				C34.2,125.1,33.6,125.4,32.9,125.4z"/>
		</g>
		<g>
			<defs>
				<rect id="SVGID_00000048465939838110942610000015121219151818600576_" x="11.7" y="80.9" width="77.6" height="65.2"/>
			</defs>
			<clipPath id="SVGID_00000167377091544969965270000014052458385787214513_">
				<use xlink:href="#SVGID_00000048465939838110942610000015121219151818600576_"  style="overflow:visible;"/>
			</clipPath>
			<path style="clip-path:url(#SVGID_00000167377091544969965270000014052458385787214513_);fill:#FF0000;" d="M33,125.2
				c-0.6,0-1.2-0.2-1.7-0.6l-11.2-9.4c-1.1-1-1.3-2.6-0.3-3.8c0.9-1.1,2.6-1.3,3.8-0.3l11.2,9.4c1.1,1,1.3,2.6,0.3,3.8
				C34.5,124.8,33.8,125.2,33,125.2z"/>
		</g>
		<g>
			<defs>
				<rect id="SVGID_00000091735714478347347490000016243091203545982862_" x="11.7" y="80.9" width="77.6" height="65.2"/>
			</defs>
			<clipPath id="SVGID_00000098940427098092644800000006619157196781494451_">
				<use xlink:href="#SVGID_00000091735714478347347490000016243091203545982862_"  style="overflow:visible;"/>
			</clipPath>
			<path style="clip-path:url(#SVGID_00000098940427098092644800000006619157196781494451_);fill:#FF0000;" d="M30.1,134L30.1,134
				L13,133.8c-0.7,0-1.2-0.6-1.2-1.2c0-0.7,0.6-1.2,1.2-1.2h0l17.1,0.2c0.7,0,1.2,0.6,1.2,1.2C31.4,133.4,30.8,134,30.1,134z"/>
		</g>
		<g>
			<defs>
				<rect id="SVGID_00000112615538669677882580000013229795542258587046_" x="11.7" y="80.9" width="77.6" height="65.2"/>
			</defs>
			<clipPath id="SVGID_00000124130438773241836180000015675985936660567211_">
				<use xlink:href="#SVGID_00000112615538669677882580000013229795542258587046_"  style="overflow:visible;"/>
			</clipPath>
			<path style="clip-path:url(#SVGID_00000124130438773241836180000015675985936660567211_);fill:#FF0000;" d="M30.1,129.9
				L30.1,129.9L13,129.7c-0.7,0-1.2-0.6-1.2-1.2c0-0.7,0.6-1.2,1.2-1.2h0l17.1,0.2c0.7,0,1.2,0.6,1.2,1.2
				C31.4,129.3,30.8,129.9,30.1,129.9z"/>
		</g>
	</g>
	<path class="st56" d="M156,156H0V0h156V156z M6.1,149.9h143.8V6.1H6.1V149.9z"/>
</g>
</svg>
