<?xml version="1.0" encoding="utf-8"?>
<!-- Generator: Adobe Illustrator 28.0.0, SVG Export Plug-In . SVG Version: 6.00 Build 0)  -->
<svg version="1.1" id="Layer_1" xmlns="http://www.w3.org/2000/svg" xmlns:xlink="http://www.w3.org/1999/xlink" x="0px" y="0px"
	 viewBox="0 0 156 156" width="156px" height="156px"  style="enable-background:new 0 0 156 156;" xml:space="preserve">
<style type="text/css">
	.st0{fill:#0000FF;}
	.st1{font-family:'Arial'; font-weight: 600;}
	.st2{font-size:27.2913px;}
	.st3{letter-spacing:3;}
</style>
<g>
	<rect x="41.1" y="40.9" class="st0" width="7.8" height="90"/>
	<path class="st0" d="M82,80.2c-22.4,0-40.7-17.7-40.7-39.5C41.3,19,59.5,1.3,82,1.3s40.7,17.7,40.7,39.5
		C122.7,62.5,104.4,80.2,82,80.2z M82,9.1c-18.1,0-32.9,14.2-32.9,31.7S63.9,72.4,82,72.4c18.1,0,32.9-14.2,32.9-31.7
		C114.9,23.3,100.1,9.1,82,9.1z"/>
	<text transform="matrix(0.9997 0 0 1 52.9746 50.8623)" class="st0 st1 st2">M</text>
	<text transform="matrix(0.9997 0 0 1 75.7275 50.8623)" class="st0 st1 st2 st3">E</text>
	<text transform="matrix(0.9997 0 0 1 93.9521 50.8623)" class="st0 st1 st2">Z</text>
	
		<rect x="41" y="116.6" transform="matrix(0.7088 -0.7054 0.7054 0.7088 -83.2144 71.3938)" class="st0" width="7.8" height="39.7"/>
	<rect x="25" y="132.7" transform="matrix(0.7048 -0.7094 0.7094 0.7048 -83.64 72.1487)" class="st0" width="39.7" height="7.8"/>
</g>
</svg>
