<?xml version="1.0" encoding="utf-8"?>
<!-- Generator: Adobe Illustrator 28.0.0, SVG Export Plug-In . SVG Version: 6.00 Build 0)  -->
<svg version="1.1" id="Layer_1" xmlns="http://www.w3.org/2000/svg" xmlns:xlink="http://www.w3.org/1999/xlink" x="0px" y="0px"
	 viewBox="0 0 156 156" style="enable-background:new 0 0 156 156;" xml:space="preserve">
<style type="text/css">
	.st0{fill-rule:evenodd;clip-rule:evenodd;fill:#FFFFFF;}
	.st1{fill:#0000FF;}
	.st2{font-family:'MyriadPro-Regular';}
	.st3{font-size:27.2913px;}
	.st4{letter-spacing:4;}
	.st5{fill:none;}
</style>
<g>
	<polygon class="st0" points="26.9,0 129.1,0 129.1,156 26.9,156 26.9,0 	"/>
	<polygon class="st0" points="27.88,1.13 127.19,1.13 127.19,153.5 27.88,153.5 27.88,1.13 	"/>
	<rect x="41.13" y="40.9" class="st1" width="7.8" height="89.98"/>
	<path class="st1" d="M81.98,80.2c-22.44,0-40.69-17.7-40.69-39.45c0-21.76,18.25-39.46,40.69-39.46s40.69,17.7,40.69,39.46
		C122.67,62.5,104.42,80.2,81.98,80.2z M81.98,9.09c-18.14,0-32.89,14.2-32.89,31.66c0,17.46,14.76,31.66,32.89,31.66
		c18.14,0,32.9-14.2,32.9-31.66C114.88,23.29,100.12,9.09,81.98,9.09z"/>
	<text transform="matrix(0.9997 0 0 1 52.9745 50.8623)"><tspan x="0" y="0" class="st1 st2 st3">M</tspan><tspan x="22.76" y="0" class="st1 st2 st3 st4">E</tspan><tspan x="40.99" y="0" class="st1 st2 st3">Z</tspan></text>
	
		<rect x="40.97" y="116.64" transform="matrix(0.7088 -0.7054 0.7054 0.7088 -83.2138 71.3988)" class="st1" width="7.8" height="39.69"/>
	
		<rect x="25.02" y="132.67" transform="matrix(0.7048 -0.7094 0.7094 0.7048 -83.6385 72.154)" class="st1" width="39.71" height="7.8"/>
	<polygon class="st5" points="27.4,155.51 128.6,155.51 128.6,0.49 27.4,0.49 27.4,155.51 	"/>
</g>
</svg>
