<?xml version="1.0" encoding="utf-8"?>
<!-- Generator: Adobe Illustrator 28.0.0, SVG Export Plug-In . SVG Version: 6.00 Build 0)  -->
<svg version="1.1" id="Layer_1" xmlns="http://www.w3.org/2000/svg" xmlns:xlink="http://www.w3.org/1999/xlink" x="0px" y="0px"
	 viewBox="0 0 156 156" width="156px" height="156px"  style="enable-background:new 0 0 156 156;" xml:space="preserve">
<style type="text/css">
	.st0{fill:#ED2224;}
</style>
<path class="st0" d="M48.2,0c0,0.8,0.2,1.5,0.3,2.2C48.7,3.1,48.8,4,49,4.8c0,0.2,0,0.3-0.3,0.3c-1.4,0.2-2.9,0.4-4.3,0.7
	c-2.3,0.4-4.6,0.7-6.8,1.1c-2.4,0.4-4.9,0.8-7.3,1.1c-2.5,0.4-4.9,0.8-7.4,1.1c-2.3,0.4-4.6,0.7-6.9,1c-0.5,0.1-0.9,0.2-1.4,0.2
	c-0.2,0-0.2,0.1-0.2,0.3c0.1,3.6,0.2,7.2,0.4,10.9c0,0,0,0,0,0.1c0.6-0.4,1.1-0.8,1.7-1.1c0.7-0.4,1.5-0.8,2.3-1
	c0.3-0.1,0.6-0.3,1-0.4c0.2,0,0.4-0.1,0.6,0c0.6,0.2,1.3,0.4,1.9,0.6c-0.8,0.5-1.5,1-2.2,1.5c-0.5,0.3-0.9,0.8-1.3,1.1
	c-1.5,1-2.6,2.4-3.8,3.8C13.4,28,12.1,30,11,32.1c-0.9,1.7-1.7,3.4-2.4,5.1c-0.2,0.5-0.3,1-0.5,1.5c-0.7,1.8-1.3,3.6-1.8,5.4
	c-0.7,2.3-1.2,4.6-1.7,7c-0.4,1.8-0.7,3.6-0.9,5.4c-0.4,3.2-0.5,6.5-0.4,9.7c0,1.3,0.1,2.7,0.2,4c0.1,1.2,0.3,2.4,0.5,3.6
	c0.1,1,0.4,1.9,0.6,2.9c0.5,1.8,1.1,3.6,1.8,5.3c-0.1,0.1-0.2,0-0.3,0c-0.6-0.2-1.3-0.3-1.9-0.5c-0.2-0.1-0.4-0.2-0.5-0.3
	c-1.2-1.5-2-3.3-2.7-5.1c-0.4-1.1-0.6-2.2-0.9-3.3c0-0.1-0.1-0.1-0.1-0.2C0,66.1,0,59.5,0,53c0.1,0,0.1-0.1,0.1-0.2
	c0.2-1.7,0.6-3.4,0.9-5c0.8-3.4,1.8-6.7,3.2-9.9c1.5-3.4,3-6.7,5.1-9.7c0.1-0.1,0.1-0.2,0.1-0.4c-0.1-1.3-0.1-2.5-0.2-3.8
	c-0.1-2.8-0.2-5.7-0.4-8.5c-0.1-1.6-0.1-3.1-0.2-4.7C8.6,9.1,8.6,7.4,8.5,5.7c0-0.2,0-0.3,0.2-0.3c0.7-0.1,1.3-0.2,2-0.3
	c2.6-0.4,5.1-0.8,7.7-1.1c2.3-0.3,4.6-0.7,7-1c2.9-0.4,5.7-0.9,8.6-1.3c2.9-0.4,5.9-0.9,8.8-1.3C43.4,0.2,44,0.2,44.5,0
	C45.8,0,47,0,48.2,0z"/>
<path class="st0" d="M91.4,92.4c0.4,0.1,0.9,0,1.3-0.1c2.1-0.1,4.2-0.1,6.3-0.2c2.5,0,5,0.2,7.5,0.6c2.5,0.4,5,1,7.5,1.8
	c3.1,1,6.1,2.4,9,4.1c0.7,0.4,1.4,1,1.7,1.9c0.4,0.9,0.5,1.9,0.3,2.9c-0.2,1.2-0.6,2.3-1.2,3.3c-0.4,0.7-0.9,1.3-1.3,1.9
	c-0.5,0.7-1,1.4-1.1,2.3c0,0.3,0.1,0.4,0.3,0.5c3.5,1,6.9,2.1,10.4,3.2c1.6,0.5,3.2,0.8,4.7,1.3c0.3,0.1,0.3-0.1,0.3-0.3
	c0.1-0.9,0.2-1.7,0.3-2.6c0.2-1.7,0.3-3.5,0.5-5.2c0.2-1.7,0.3-3.4,0.5-5.1c0.2-1.7,0.3-3.4,0.5-5.1c0.2-1.7,0.3-3.4,0.5-5
	c0.2-1.7,0.3-3.4,0.5-5.1c0.2-1.7,0.3-3.4,0.5-5.1c0.2-1.7,0.3-3.3,0.5-5c0.2-1.7,0.3-3.4,0.5-5.1c0.2-1.7,0.3-3.3,0.5-5
	c0-0.3,0.1-0.4,0.4-0.3c1.6,0.2,3.3,0.4,4.9,0.6c0.2,0,0.3,0.1,0.3,0.3c-0.3,2.6-0.5,5.2-0.8,7.9c-0.3,2.8-0.6,5.6-0.8,8.3
	c-0.3,2.8-0.5,5.6-0.8,8.5c-0.2,2.5-0.5,5.1-0.7,7.6c-0.2,2-0.4,4.1-0.6,6.1c-0.2,2-0.4,4-0.6,6c-0.2,1.8-0.3,3.5-0.5,5.3
	c0,0.3,0.1,0.5,0.4,0.6c1.6,0.6,3.1,1.3,4.6,2.2c1.4,0.8,2.7,1.7,4,2.7c1.2,1,2.2,2.1,3,3.4c0.5,0.9,1,1.8,1.2,2.8
	c0.2,1.1,0.3,2.3,0.1,3.4c-0.1,0.8-0.2,1.7-0.5,2.4c-0.8,2.3-2,4.3-3.6,6c-2.5,2.6-5.5,4.6-8.7,6.2c-3.1,1.6-6.3,2.9-9.6,4
	c-3,1-6,1.7-9.1,2.4c-2.1,0.5-4.2,0.8-6.3,1.1c-2.1,0.3-4.1,0.5-6.2,0.7c-2.3,0.2-4.6,0.3-6.8,0.4c-2.7,0.1-5.5,0.1-8.2,0
	c-2.2,0-4.4-0.2-6.6-0.4c-3.3-0.2-6.6-0.6-9.9-1.1c-3.4-0.5-6.8-1.2-10.1-2.2c-2.4-0.7-4.7-1.3-7.1-2.2c-3-1.1-6-2.4-8.8-4
	c-1.4-0.8-3-1.1-4.5-1.5c-5.5-1.3-11-2.5-16.5-3.8c-5-1.1-10-2.3-15-3.5c-0.5-0.1-1.1-0.2-1.6-0.3c-0.2,0-0.4-0.1-0.4-0.4
	c-1.6-6-3.1-12-4.7-18c-0.4-1.7-0.9-3.3-1.3-5c-0.1-0.3-0.1-0.4,0.2-0.5c1.6-0.5,3.3-1,4.9-1.5c0.3-0.1,0.3,0,0.4,0.2
	c0.7,2.8,1.4,5.7,2.2,8.5c1.1,3.9,2,7.8,3,11.7c0.1,0.2,0.2,0.4,0.4,0.4c4.7,1,9.3,2.1,14,3.1c4.4,1,8.9,2,13.3,2.9
	c0.6,0.1,0.5,0.2,0.6-0.4c0.3-1.5,0.9-2.9,1.5-4.3c0.3-0.7,0.5-1.5,0.6-2.4c0.1-0.7,0.1-1.5,0.1-2.2c-0.1-1.5-0.2-3-0.6-4.4
	c-0.3-0.9-0.5-1.9-0.8-2.9c-0.4-1.2-0.9-2.4-1.4-3.6c-0.7-1.5-1.1-3.2-1.3-4.9c-0.1-1.3-0.1-2.5,0.3-3.8c0.2-0.7,0.5-1.4,1-2
	c0.3-0.4,0.5-0.7,0.8-1c1.5-1.4,3.4-2.1,5.4-2.6c1.6-0.4,3.3-0.6,5-0.5c2.2,0.1,4.5,0.1,6.7,0c1.1,0,2.3,0,3.4-0.1
	c0.9-0.1,1.7-0.2,2.5-0.5c0.9-0.3,1.8-0.7,2.7-1c0.7-0.2,1.1-0.7,1.2-1.4c0.1-0.5,0.2-0.9,0.3-1.4c0.1-0.6-0.1-1.2-0.4-1.7
	c-0.7-1.6-1.2-3.2-1.7-4.9c-0.3-1.1-0.5-2.2-0.8-3.4c-0.3-1.3-0.5-2.6-0.6-3.9c-0.5-3.7-0.3-7.5-0.3-11.2c0-2.7,0.4-5.3,0.8-8
	c0.4-2.4,0.9-4.8,1.5-7.1c0.6-2.4,1.5-4.8,2.5-7c1.6-3.4,3.5-6.7,5.9-9.5c1.7-1.9,3.5-3.7,5.5-5.3c0.6-0.5,1.1-0.9,1.7-1.3
	c0.2-0.1,0.3-0.1,0.5-0.1c1.4,0.4,2.9,0.7,4.3,1.1c0.5,0.1,0.7,0.6,1,0.9c1.8,1.9,2.7,4.3,3.3,6.8c0.6,2.1,0.9,4.3,1,6.5
	c0.1,1.9,0.2,3.8,0.1,5.6c-0.1,2.5-0.2,4.9-0.5,7.4c-0.2,1.6-0.5,3.3-0.8,4.9c-0.5,2.9-1.2,5.8-2.1,8.7c-1.1,3.2-2.3,6.3-3.8,9.4
	c-0.8,1.6-1.8,3.1-2.7,4.7C91.5,92.1,91.3,92.2,91.4,92.4z M75.3,83.1c0,0.7,0,1.5,0.1,2.2c0.1,1.5,0.2,3.1,0.6,4.6
	c0.5,2,1.2,4,2.6,5.6c0.2,0.2,0.3,0.5,0.5,0c0-0.1,0.1-0.1,0.2-0.1c1-0.3,1.9-0.7,2.8-1c1.3-0.5,2.6-0.7,3.9-1.1
	c0.2-0.1,0.4-0.2,0.6-0.4c0.6-0.6,0.9-1.3,1.3-1.9c1.5-2.2,2.8-4.5,3.9-6.9c0.9-2,1.7-4.1,2.4-6.1c1-2.9,1.6-5.9,2.1-8.9
	c0.3-1.9,0.6-3.8,0.8-5.7c0.3-2.6,0.3-5.3,0.4-8c0-1.1-0.1-2.1-0.1-3.2c0-0.7,0-1.5-0.1-2.2c-0.1-0.6-0.1-1.2-0.2-1.8
	C97,47.1,96.8,46,96.5,45c-0.2-0.8-0.4-1.5-0.8-2.2c-0.4-0.7-0.9-1.4-1.5-1.9c-1-0.7-2.1-0.8-3.3-0.3c-0.9,0.4-1.7,1-2.4,1.8
	c-0.6,0.7-1.2,1.3-1.7,2.1c-1.1,1.6-2.1,3.2-3,5c-0.6,1.2-1.2,2.5-1.8,3.7c-0.6,1.2-1.1,2.5-1.6,3.8c-0.7,1.9-1.4,3.7-1.9,5.6
	c-0.5,1.8-0.9,3.6-1.3,5.5c-0.4,2-0.8,3.9-1.1,5.9c-0.2,1.3-0.4,2.6-0.5,3.9C75.5,79.6,75.2,81.3,75.3,83.1z"/>
<path class="st0" d="M66.3,30c-0.3,0.3-0.6,0.5-1,0.8c-1.4,1-2.6,2.2-3.7,3.6c-1.2,1.4-2.3,2.7-3.3,4.3c-1.4,2.2-2.7,4.5-3.7,6.9
	c-0.8,1.7-1.5,3.5-2.1,5.3c-0.6,1.9-1.3,3.8-1.7,5.7c-0.2,0.7-0.5,1.3-0.6,2.1c-0.3,1.4-0.6,2.7-0.8,4.1c-0.3,1.8-0.6,3.6-0.7,5.5
	c-0.1,1.6-0.2,3.2-0.3,4.8c-0.1,1.1-0.1,2.2,0,3.3c0.1,0.8,0.1,1.6,0.1,2.4c0.1,1.4,0.3,2.7,0.4,4.1c0.1,0.9,0.3,1.8,0.5,2.7
	c0.2,0.9,0.4,1.9,0.7,2.8c0.4,1.1,0.8,2.1,1.2,3.2c0.1,0.3,0.4,0.6,0.5,0.9c0,0.1,0,0.1,0.1,0.3c-1.1-0.3-2.1-0.5-3.2-0.7
	c-5.3-1.3-10.6-2.5-15.9-3.8c-0.3-0.1-0.5-0.2-0.7-0.5c-0.5-0.9-0.9-1.9-1.2-2.9c-0.6-1.9-1.1-3.7-1.4-5.7c-0.2-1.3-0.4-2.5-0.6-3.8
	c-0.1-0.5,0-1-0.1-1.4c-0.1-0.7-0.1-1.3-0.1-2c0-1.2-0.1-2.5-0.1-3.7c0.1-2.2,0.1-4.4,0.3-6.7c0.2-2.3,0.5-4.6,1-6.9
	c0.3-1.5,0.5-3,0.9-4.4c0.7-2.8,1.6-5.5,2.8-8.1c1.6-3.4,3.5-6.7,5.9-9.6c2.2-2.6,4.7-4.9,7.6-6.7c0.2-0.1,0.3-0.1,0.5-0.1
	c6.1,1.4,12.2,2.7,18.3,4.1C66.1,29.9,66.2,30,66.3,30z"/>
<path class="st0" d="M35.3,22.7c-0.5,0.4-1,0.7-1.5,1.1c-2,1.4-3.7,3.2-5.3,5.1c-1.2,1.4-2.2,2.9-3.2,4.5c-1.3,2.2-2.4,4.4-3.4,6.7
	c-0.9,2.1-1.6,4.2-2.3,6.3c-0.5,1.3-0.8,2.6-1.1,3.9c-0.3,1.2-0.7,2.5-0.9,3.8c-0.3,1.3-0.5,2.7-0.6,4c-0.2,1.4-0.3,2.9-0.5,4.3
	c-0.1,0.7-0.1,1.5-0.1,2.2c0,1.8,0,3.5,0,5.3c0,1.5,0.2,3,0.3,4.5c0.1,1.2,0.3,2.3,0.5,3.5c0.3,1.2,0.5,2.3,0.9,3.5
	c0.4,1.2,1,2.4,1.5,3.6c0,0,0,0.1,0,0.2c-0.4-0.1-0.8-0.2-1.2-0.2c-0.4-0.1-0.5,0-0.3,0.4c0.7,2.2,1.2,4.5,1.7,6.7
	c0.5,1.9,0.9,3.8,1.4,5.7c0.1,0.3,0,0.4-0.3,0.5c-1.5,0.4-3.1,0.8-4.6,1.2c-0.3,0.1-0.4-0.1-0.4-0.3c-1.3-5.1-2.7-10.1-4-15.2
	c-0.1-0.3-0.2-0.4-0.4-0.5c-0.3-0.1-0.4-0.2-0.5-0.5c-0.5-1.4-1-2.9-1.5-4.3c-0.5-1.9-0.9-3.8-1.1-5.7c-0.2-1.8-0.4-3.5-0.4-5.3
	c-0.1-3,0-6,0.1-9c0-1.5,0.3-3,0.5-4.6c0.2-1.9,0.4-3.7,0.8-5.5c0.5-2.6,1.2-5.1,2.1-7.7c1.5-4.3,3.5-8.3,6.3-11.8
	c1.9-2.4,4-4.7,6.6-6.4c0.7-0.5,1.3-1.1,2.1-1.5c0.1-0.1,0.3-0.1,0.4-0.1c2.8,0.6,5.6,1.2,8.4,1.8C35.1,22.7,35.2,22.7,35.3,22.7z"
	/>
<path class="st0" d="M71.9,97.7c-1.1-0.3-2.1-0.5-3.2-0.8c-1.4-0.4-2.9-0.7-4.3-1.1c-0.2-0.1-0.3-0.2-0.4-0.4
	c-0.3-0.7-0.6-1.5-1-2.2c-0.3-0.8-0.7-1.6-0.8-2.4c-0.2-0.8-0.5-1.6-0.6-2.4c-0.3-1.5-0.6-3.1-0.9-4.7c-0.3-2-0.3-4-0.5-6
	c-0.1-1.8-0.1-3.7,0-5.5c0.1-1.1,0.1-2.3,0.2-3.4c0.1-1.4,0.3-2.7,0.4-4.1c0.3-2.6,0.8-5.1,1.4-7.6c0.7-2.7,1.5-5.3,2.6-7.8
	c1.3-2.8,2.7-5.5,4.5-8c1.6-2.1,3.3-4.1,5.4-5.8c1-0.8,2-1.7,3-2.4c0.2-0.2,0.4-0.2,0.7-0.2c2.7,0.6,5.5,1.2,8.2,1.8
	c0,0,0.1,0,0.2,0.1c-0.2,0.2-0.4,0.4-0.6,0.5c-0.8,0.6-1.5,1.3-2.3,1.9c-1.8,1.5-3.2,3.3-4.6,5.2c-1,1.4-1.9,2.8-2.7,4.3
	c-1.2,2.2-2.2,4.4-3.1,6.7c-0.5,1.1-0.9,2.3-1.3,3.4c-0.5,1.5-1,3-1.4,4.5c-0.3,1.1-0.6,2.2-0.8,3.3c-0.5,2.5-0.9,5-1.2,7.5
	c-0.4,3.3-0.4,6.7-0.3,10c0,2.6,0.4,5.2,0.9,7.8c0.3,1.4,0.7,2.8,1.1,4.2C70.9,95.4,71.5,96.5,71.9,97.7z"/>
<path class="st0" d="M140.3,12.8c-0.2,0-0.4,0.1-0.6,0.2c-10.6,3.4-21.1,6.8-31.7,10.2c-0.3,0.1-0.5,0.1-0.6-0.3
	c-0.7-1.5-1.4-3-2.2-4.5c-0.2-0.4-0.2-0.4,0.3-0.6c9.2-3,18.3-6,27.5-9c4.4-1.4,8.8-2.9,13.2-4.3c0.3-0.1,0.4-0.1,0.4,0.3
	c-0.2,3-0.3,6-0.5,9c-0.2,3.9-0.5,7.7-0.7,11.6c-0.2,3-0.3,5.9-0.5,8.9c-0.2,3.4-0.4,6.8-0.6,10.2c-0.1,1.6-0.2,3.2-0.2,4.8
	c0,0.3-0.1,0.4-0.4,0.4c-1.6-0.1-3.2-0.2-4.8-0.2c-0.3,0-0.4-0.1-0.4-0.4c0.2-3.3,0.3-6.6,0.5-9.9c0.2-3.5,0.4-7,0.5-10.5
	c0.2-3.5,0.4-7,0.5-10.5c0.1-1.7,0.2-3.4,0.3-5.1C140.3,13.1,140.3,13,140.3,12.8z"/>
<path class="st0" d="M75.1,8.4c9.3,0,18.5,0,27.8,0c0.4,0,0.5,0.1,0.5,0.5c0,1.7,0,3.4,0,5.1c0,0.4-0.1,0.5-0.5,0.5
	c-13.4,0-26.8,0-40.2,0c-5.1,0-10.3,0-15.4,0c-0.4,0-0.5-0.1-0.5-0.4c0-1.7,0-3.4,0-5.1c0-0.3,0.1-0.5,0.4-0.5
	C56.5,8.4,65.8,8.4,75.1,8.4z"/>
<path class="st0" d="M27.5,87.2c-1-0.2-1.9-0.4-2.8-0.6c-0.1,0-0.2-0.1-0.2-0.2c-0.4-0.8-0.7-1.6-1-2.5c-0.6-1.6-1-3.3-1.4-5
	c-0.3-1.4-0.5-2.8-0.7-4.1c-0.3-2-0.3-4-0.4-6c-0.1-2.3,0-4.6,0.1-6.9c0.2-2.9,0.4-5.8,1-8.7c0.6-3.2,1.3-6.3,2.4-9.3
	c1.6-4.6,4-8.9,7.1-12.7c2.1-2.5,4.5-4.7,7.1-6.7c0.3-0.3,0.7-0.5,1.1-0.7c0.1-0.1,0.2-0.1,0.3-0.1c0.9,0.2,1.7,0.4,2.6,0.6
	c-0.1,0.2-0.2,0.2-0.3,0.3c-1.5,1.1-2.9,2.3-4.2,3.6c-1.5,1.6-2.8,3.3-4,5.1c-1.1,1.7-2.1,3.4-3,5.2c-0.9,1.9-1.8,3.8-2.5,5.8
	c-0.8,2.2-1.6,4.4-2.1,6.7c-0.3,1.1-0.6,2.2-0.8,3.4c-0.5,2.7-1,5.3-1.3,8c-0.4,3.4-0.3,6.8-0.3,10.2c0,1.2,0.2,2.5,0.3,3.7
	c0.1,1.3,0.3,2.5,0.6,3.8c0.2,1,0.5,2.1,0.8,3.1C26.4,84.5,27,85.8,27.5,87.2z"/>
<path class="st0" d="M73.8,32c-2.3,1.6-4.3,3.5-6.1,5.6c-1.5,1.8-2.9,3.8-4,5.9c-1.1,2-2.1,4.2-2.9,6.3c-0.7,1.7-1.2,3.4-1.8,5
	c-0.5,1.3-0.8,2.7-1.1,4.1c-0.5,2-0.9,4-1.3,6c-0.3,1.6-0.5,3.2-0.6,4.9c-0.2,2-0.3,4-0.3,6c0,1.4,0,2.9,0.1,4.4
	c0.1,0.8,0.1,1.7,0.2,2.6c0.2,1.6,0.5,3.3,0.8,4.9c0.2,1,0.6,2.1,0.9,3.1c0.3,0.9,0.6,1.7,0.9,2.6c0.2,0.5,0.5,0.9,0.7,1.4
	c-0.7-0.2-1.4-0.4-2.1-0.5c-0.1,0-0.2,0-0.2-0.2c-0.2-0.6-0.5-1.2-0.8-1.7c-0.5-1.1-0.9-2.2-1.2-3.3c-0.5-2-1-4.1-1.3-6.1
	c-0.2-1.6-0.3-3.3-0.5-4.9C53,77.2,53,76.5,53,75.8c0-2.7-0.1-5.5,0.2-8.2c0.1-1.5,0.3-3,0.5-4.5c0.2-2.1,0.6-4.2,1.1-6.3
	c0.4-1.7,0.8-3.4,1.3-5c0.9-2.6,2-5.1,3.3-7.5c1.8-3.3,4-6.2,6.6-8.8c1.4-1.4,3-2.7,4.6-3.9c0.2-0.2,0.5-0.2,0.8-0.1
	C72.2,31.6,73,31.8,73.8,32z"/>
</svg>
