<?xml version="1.0" encoding="utf-8"?>
<!-- Generator: Adobe Illustrator 28.0.0, SVG Export Plug-In . SVG Version: 6.00 Build 0)  -->
<svg version="1.1" id="Layer_1" xmlns="http://www.w3.org/2000/svg" xmlns:xlink="http://www.w3.org/1999/xlink" x="0px" y="0px"
	 viewBox="0 0 156 156" style="enable-background:new 0 0 156 156;" xml:space="preserve">
<style type="text/css">
	.st0{fill-rule:evenodd;clip-rule:evenodd;fill:#FFFFFF;}
	.st1{fill:#0000FF;}
	.st2{fill:none;}
</style>
<g>
	<polygon class="st0" points="39,0 117,0 117,156 39,156 39,0 	"/>
	<polygon class="st0" points="39.5,0.61 115.12,0.61 115.12,153.66 39.5,153.66 39.5,0.61 	"/>
	<path class="st1" d="M77.31,153.55c-20.8,0-37.72-16.96-37.72-37.8s16.92-37.8,37.72-37.8s37.72,16.96,37.72,37.8
		S98.11,153.55,77.31,153.55z M77.31,87.16c-15.72,0-28.5,12.82-28.5,28.58s12.79,28.58,28.5,28.58c15.72,0,28.51-12.82,28.51-28.58
		S93.03,87.16,77.31,87.16z"/>
	
		<rect x="35.64" y="36.62" transform="matrix(1.742917e-03 -1 1 1.742917e-03 34.6297 117.1454)" class="st1" width="80.7" height="9.22"/>
	<rect x="72.24" y="0.72" class="st1" width="28.37" height="9.22"/>
	<rect x="72.24" y="19.48" class="st1" width="28.37" height="9.22"/>
	<polygon class="st2" points="39.49,155.51 116.51,155.51 116.51,0.49 39.49,0.49 39.49,155.51 	"/>
</g>
</svg>
