<?xml version="1.0" encoding="utf-8"?>
<!-- Generator: Adobe Illustrator 28.0.0, SVG Export Plug-In . SVG Version: 6.00 Build 0)  -->
<svg version="1.1" id="Layer_1" xmlns="http://www.w3.org/2000/svg" xmlns:xlink="http://www.w3.org/1999/xlink" x="0px" y="0px"
	 viewBox="0 0 156 156" style="enable-background:new 0 0 156 156;" xml:space="preserve">
<style type="text/css">
	.st0{fill:#0000FF;}
</style>
<g>
	<path class="st0" d="M77.3,153.6c-20.8,0-37.7-17-37.7-37.8s16.9-37.8,37.7-37.8s37.7,17,37.7,37.8S98.1,153.6,77.3,153.6z
		 M77.3,87.2c-15.7,0-28.5,12.8-28.5,28.6s12.8,28.6,28.5,28.6c15.7,0,28.5-12.8,28.5-28.6S93,87.2,77.3,87.2z"/>
	
		<rect x="35.6" y="36.6" transform="matrix(1.742914e-03 -1 1 1.742914e-03 34.6325 117.1474)" class="st0" width="80.7" height="9.2"/>
	<rect x="72.2" y="0.7" class="st0" width="28.4" height="9.2"/>
	<rect x="72.2" y="19.5" class="st0" width="28.4" height="9.2"/>
</g>
</svg>
