<?xml version="1.0" encoding="utf-8"?>
<!-- Generator: Adobe Illustrator 28.0.0, SVG Export Plug-In . SVG Version: 6.00 Build 0)  -->
<svg version="1.1" id="Layer_1" xmlns="http://www.w3.org/2000/svg" xmlns:xlink="http://www.w3.org/1999/xlink" x="0px" y="0px"
	 viewBox="0 0 156 156" width="156px" height="156px"  style="enable-background:new 0 0 156 156;" xml:space="preserve">
<style type="text/css">
	.st0{fill:#FF0000;}
</style>
<g>
	<g>
		<path class="st0" d="M51.7,24.2V9.9h4.7c1.8,0,3,0.1,3.6,0.3c0.7,0.1,1.4,0.6,2,1.3c0.6,0.9,0.8,1.7,0.8,2.8
			c0,0.9-0.1,1.7-0.4,2.3c-0.3,0.6-0.7,1-1.3,1.4c-0.4,0.3-1,0.6-1.4,0.6c-0.7,0.1-1.7,0.3-3.1,0.3h-1.8v5.4L51.7,24.2L51.7,24.2z
			 M54.7,12.3v4.1h1.6c1.1,0,2-0.1,2.3-0.3c0.4-0.1,0.7-0.4,1-0.7c0.1-0.3,0.3-0.7,0.3-1.1s-0.1-0.9-0.4-1.3
			c-0.3-0.3-0.7-0.6-1.1-0.6c-0.4-0.1-1.1-0.1-2.1-0.1C56.1,12.3,54.7,12.3,54.7,12.3z"/>
	</g>
	<g>
		<path class="st0" d="M66.4,17l-2.4-0.4c0.3-1,0.7-1.7,1.4-2.3c0.7-0.4,1.7-0.7,3.1-0.7c1.1,0,2.1,0.1,2.7,0.4
			c0.6,0.3,1,0.7,1.3,1.1c0.3,0.4,0.4,1.3,0.4,2.4l-0.1,3.3c0,0.9,0.1,1.6,0.1,2c0.1,0.4,0.3,1,0.6,1.4h-2.7
			c-0.1-0.1-0.3-0.4-0.3-0.9c-0.1-0.1-0.1-0.3-0.1-0.3c-0.4,0.4-1,0.9-1.6,1c-0.4,0.3-1,0.4-1.7,0.4c-1,0-1.8-0.3-2.6-0.9
			c-0.6-0.7-0.8-1.4-0.8-2.3c0-0.6,0.1-1.1,0.4-1.6c0.3-0.4,0.6-0.9,1.1-1c0.6-0.3,1.3-0.6,2.3-0.7c1.3-0.3,2.1-0.4,2.6-0.7v-0.3
			c0-0.4,0-0.9-0.3-1.1c-0.3-0.1-0.8-0.3-1.6-0.3c-0.4,0-0.8,0.1-1.1,0.3C66.8,16.1,66.6,16.5,66.4,17z M70,19.2
			c-0.3,0.1-0.8,0.3-1.6,0.4c-0.8,0.1-1.3,0.3-1.6,0.4c-0.4,0.3-0.6,0.6-0.6,1c0,0.4,0.1,0.7,0.4,1s0.7,0.4,1.1,0.4
			c0.6,0,1-0.1,1.4-0.4c0.3-0.3,0.6-0.6,0.7-1c0-0.1,0-0.7,0-1.3L70,19.2L70,19.2z"/>
	</g>
	<g>
		<path class="st0" d="M80.6,13.9V16h-1.8v4.3c0,0.9,0,1.3,0,1.4c0.1,0.1,0.1,0.3,0.3,0.4c0.1,0,0.3,0.1,0.4,0.1
			c0.3,0,0.7-0.1,1.1-0.3l0.3,2.1c-0.7,0.3-1.4,0.4-2.3,0.4c-0.4,0-0.8-0.1-1.3-0.3s-0.7-0.4-0.8-0.7c-0.3-0.3-0.4-0.6-0.4-1
			c0-0.3-0.1-1-0.1-2V16h-1.3v-2.1h1.3v-2.1l2.8-1.6v3.7L80.6,13.9L80.6,13.9z"/>
	</g>
</g>
<path class="st0" d="M68,48.7h-3.6c0-0.4,0-0.7,0-0.8c0-1.1,0.3-2.1,0.6-2.8c0.4-0.7,1.1-1.6,2.3-2.4c1.1-1,1.8-1.6,2-1.8
	c0.3-0.4,0.6-0.8,0.6-1.4c0-0.8-0.3-1.4-1-2c-0.6-0.6-1.3-0.7-2.4-0.7c-0.8,0-1.7,0.1-2.4,0.7c-0.6,0.6-1,1.4-1.3,2.6l-3.6-0.4
	c0.1-1.6,0.8-3,2.1-4.1s3-1.7,5-1.7c2.3,0,4,0.6,5.3,1.7s2,2.6,2,4.1c0,0.8-0.3,1.6-0.7,2.4c-0.6,0.7-1.6,1.7-3.1,3
	c-0.7,0.7-1.3,1.3-1.4,1.7C68,47,68,47.7,68,48.7z M64.4,53.9v-3.8h3.8v3.8H64.4z"/>
<path class="st0" d="M44,0v156h68V0H44z M45.8,154V2H110v152H45.8z"/>
<path class="st0" d="M75.2,62.9L75.2,62.9c0,3.8,0,7.7,0.1,11.4c0,2.9,0,5.9,0.1,8.8c-3,0-6.1,0-9.1,0.1c-2.9,0-5.9,0-8.8,0.1
	c0-3,0-6-0.1-8.9c0-3.7-0.1-7.5-0.1-11.2v-0.1h-2.4v0.1c0,3.8,0,7.6,0.1,11.2c0,3.7,0.1,7.5,0.1,11.2v0.1v0.1h0.1
	c3.7,0,7.5,0,11.1-0.1c3.7,0,7.5-0.1,11.2-0.1h0.1h0.3V62.9H75.2z"/>
<path class="st0" d="M54.7,94v23.2h23.2V94H54.7z M57.3,114.7V96.5h18.2v18.2H57.3z"/>
<path class="st0" d="M74.4,130.6L74.4,130.6c-2.4,0-4.7,0-7,0.1v-7.3h-2.3v7.3c-2.3,0-4.6,0.1-6.9,0.1h-0.1v2.3h7v14.2h2.3V133h7
	V130.6z"/>
</svg>
