<?xml version="1.0" encoding="utf-8"?>
<!-- Generator: Adobe Illustrator 28.0.0, SVG Export Plug-In . SVG Version: 6.00 Build 0)  -->
<svg version="1.1" id="Layer_1" xmlns="http://www.w3.org/2000/svg" xmlns:xlink="http://www.w3.org/1999/xlink" x="0px" y="0px"
	 viewBox="0 0 156 156" width="156px" height="156px"  style="enable-background:new 0 0 156 156;" xml:space="preserve">
<style type="text/css">
	.st0{fill:#FF0000;}
	.st1{fill:none;}
</style>
<g>
	<g>
		<g>
			<path class="st0" d="M78,24.22V9.87h4.69c1.85,0,2.98,0.14,3.55,0.28c0.71,0.14,1.42,0.57,1.99,1.28
				c0.57,0.85,0.85,1.7,0.85,2.84c0,0.85-0.14,1.7-0.43,2.27c-0.28,0.57-0.71,0.99-1.28,1.42c-0.43,0.28-0.99,0.57-1.42,0.57
				c-0.71,0.14-1.7,0.28-3.13,0.28h-1.85v5.4H78z M80.98,12.29v4.12h1.56c1.14,0,1.99-0.14,2.27-0.28c0.43-0.14,0.71-0.43,0.99-0.71
				c0.14-0.28,0.28-0.71,0.28-1.14s-0.14-0.85-0.43-1.28c-0.28-0.28-0.71-0.57-1.14-0.57c-0.43-0.14-1.14-0.14-2.13-0.14H80.98z"/>
		</g>
		<g>
			<rect x="78" y="9.87" class="st1" width="11.37" height="14.49"/>
		</g>
	</g>
	<g>
		<g>
			<path class="st0" d="M93.63,16.98l-2.42-0.43c0.28-0.99,0.71-1.7,1.42-2.27c0.71-0.43,1.7-0.71,3.13-0.71
				c1.14,0,2.13,0.14,2.7,0.43c0.57,0.28,0.99,0.71,1.28,1.14c0.28,0.43,0.43,1.28,0.43,2.42l-0.14,3.27c0,0.85,0.14,1.56,0.14,1.99
				c0.14,0.43,0.28,0.99,0.57,1.42h-2.7c-0.14-0.14-0.28-0.43-0.28-0.85c-0.14-0.14-0.14-0.28-0.14-0.28
				c-0.43,0.43-0.99,0.85-1.56,0.99c-0.43,0.28-0.99,0.43-1.7,0.43c-0.99,0-1.85-0.28-2.56-0.85c-0.57-0.71-0.85-1.42-0.85-2.27
				c0-0.57,0.14-1.14,0.43-1.56c0.28-0.43,0.57-0.85,1.14-0.99c0.57-0.28,1.28-0.57,2.27-0.71c1.28-0.28,2.13-0.43,2.56-0.71v-0.28
				c0-0.43,0-0.85-0.28-1.14c-0.28-0.14-0.85-0.28-1.56-0.28c-0.43,0-0.85,0.14-1.14,0.28C94.05,16.13,93.91,16.55,93.63,16.98z
				 M97.32,19.25c-0.28,0.14-0.85,0.28-1.56,0.43c-0.85,0.14-1.28,0.28-1.56,0.43c-0.43,0.28-0.57,0.57-0.57,0.99
				c0,0.43,0.14,0.71,0.43,0.99s0.71,0.43,1.14,0.43c0.57,0,0.99-0.14,1.42-0.43c0.28-0.28,0.57-0.57,0.71-0.99
				c0-0.14,0-0.71,0-1.28V19.25z"/>
		</g>
		<g>
			<rect x="90.79" y="13.57" class="st1" width="10.09" height="11.08"/>
		</g>
	</g>
	<g>
		<g>
			<path class="st0" d="M107.84,13.85v2.13h-1.85v4.26c0,0.85,0,1.28,0,1.42c0.14,0.14,0.14,0.28,0.28,0.43
				c0.14,0,0.28,0.14,0.43,0.14c0.28,0,0.71-0.14,1.14-0.28l0.28,2.13c-0.71,0.28-1.42,0.43-2.27,0.43c-0.43,0-0.85-0.14-1.28-0.28
				s-0.71-0.43-0.85-0.71c-0.28-0.28-0.43-0.57-0.43-0.99c0-0.28-0.14-0.99-0.14-1.99v-4.55h-1.28v-2.13h1.28v-2.13l2.84-1.56v3.69
				H107.84z"/>
		</g>
		<g>
			<rect x="101.87" y="10.16" class="st1" width="6.39" height="14.49"/>
		</g>
	</g>
	<g>
		<g>
			<path class="st0" d="M87.09,48.66h-3.55c0-0.43,0-0.71,0-0.85c0-1.14,0.28-2.13,0.57-2.84c0.43-0.71,1.14-1.56,2.27-2.42
				c1.14-0.99,1.85-1.56,1.99-1.85c0.28-0.43,0.57-0.85,0.57-1.42c0-0.85-0.28-1.42-0.99-1.99c-0.57-0.57-1.28-0.71-2.42-0.71
				c-0.85,0-1.7,0.14-2.42,0.71c-0.57,0.57-0.99,1.42-1.28,2.56l-3.55-0.43c0.14-1.56,0.85-2.98,2.13-4.12
				c1.28-1.14,2.98-1.7,4.97-1.7c2.27,0,3.98,0.57,5.26,1.7s1.99,2.56,1.99,4.12c0,0.85-0.28,1.56-0.71,2.42
				c-0.57,0.71-1.56,1.7-3.13,2.98c-0.71,0.71-1.28,1.28-1.42,1.7C87.09,46.96,87.09,47.67,87.09,48.66z M83.54,53.92v-3.84h3.84
				v3.84H83.54z"/>
		</g>
		<g>
			<rect x="78.28" y="33.46" class="st1" width="14.49" height="20.6"/>
		</g>
	</g>
	<g>
		<g>
			<path class="st0" d="M44.04,0.07c22.59,0,45.32,0,67.91,0c0,52,0,103.86,0,155.86c-22.59,0-45.32,0-67.91,0
				C44.04,103.93,44.04,52.07,44.04,0.07z M45.75,154.93c-0.28-0.28-0.57-0.57-0.85-0.85c22.02,0,44.19,0,66.21,0
				c-0.28,0.28-0.71,0.57-0.99,0.85c0-51.29,0-102.58,0-153.87c0.28,0.28,0.71,0.57,0.99,0.85c-22.02,0-44.19,0-66.21,0
				c0.28-0.28,0.57-0.57,0.85-0.85C45.75,52.36,45.75,103.64,45.75,154.93z"/>
		</g>
		<g id="Drawing_5_0">
			<path class="st0" d="M112.03,156H43.97V0h68.05V156z M44.11,155.86h67.77V0.14H44.11V155.86z"/>
		</g>
		<g id="Drawing_5_1">
			<path class="st0" d="M110.04,155.11v-0.95H45.82v0.95l-1.09-1.09h0.95V1.99h-0.95l1.09-1.09v0.95h64.22V0.89l0.12,0.12
				c0.14,0.14,0.32,0.28,0.49,0.42c0.18,0.14,0.36,0.29,0.5,0.43l0.12,0.12h-1.1v152.02h1.1l-0.12,0.12
				c-0.14,0.14-0.33,0.29-0.5,0.43c-0.17,0.14-0.35,0.28-0.49,0.42L110.04,155.11z M110.18,154.15v0.62
				c0.12-0.11,0.25-0.22,0.39-0.32c0.12-0.1,0.25-0.2,0.36-0.3H110.18z M45.07,154.15l0.61,0.61v-0.61H45.07z M45.82,154.01h64.22
				V1.99H45.82V154.01z M110.18,1.85h0.74c-0.11-0.1-0.24-0.2-0.36-0.3c-0.13-0.1-0.26-0.21-0.38-0.32V1.85z M45.07,1.85h0.61V1.24
				L45.07,1.85z"/>
		</g>
	</g>
	<g>
		<g>
			<path class="st0" d="M69.48,63.15c0,7.53,0.14,14.92,0.14,22.45c-0.71,0-1.56,0-2.27,0c0-7.53-0.14-14.92-0.14-22.45
				C67.91,63.15,68.76,63.15,69.48,63.15z"/>
		</g>
		<g id="Drawing_13_0">
			<path class="st0" d="M69.69,85.67h-2.42V85.6c0-3.77-0.04-7.56-0.07-11.22c-0.03-3.67-0.07-7.46-0.07-11.22v-0.07h2.41v0.07
				c0,3.76,0.04,7.56,0.07,11.22c0.03,3.67,0.07,7.46,0.07,11.22V85.67z M67.41,85.53h2.13c0-3.74-0.04-7.51-0.07-11.15
				c-0.03-3.64-0.07-7.41-0.07-11.15h-2.13c0,3.74,0.04,7.51,0.07,11.15C67.38,78.02,67.41,81.79,67.41,85.53z"/>
		</g>
	</g>
	<g>
		<g>
			<path class="st0" d="M89.93,63.01c0,7.53,0,15.06,0,22.59c-0.71,0-1.56,0-2.27,0c0-7.53-0.14-15.06-0.14-22.59
				C88.37,63.01,89.08,63.01,89.93,63.01z"/>
		</g>
		<g id="Drawing_14_0">
			<path class="st0" d="M90,85.67h-2.41V85.6c0-3.77-0.04-7.59-0.07-11.29c-0.03-3.7-0.07-7.53-0.07-11.3v-0.07H90V85.67z
				 M87.73,85.53h2.13V63.08h-2.27c0,3.74,0.04,7.55,0.07,11.22C87.7,77.98,87.73,81.79,87.73,85.53z"/>
		</g>
	</g>
	<g>
		<g>
			<path class="st0" d="M89.65,85.6c-7.39,0-14.92,0.14-22.31,0.14c0-0.85,0-1.56,0-2.42c7.39,0,14.92-0.14,22.31-0.14
				C89.65,84.04,89.65,84.75,89.65,85.6z"/>
		</g>
		<g id="Drawing_15_0">
			<path class="st0" d="M67.34,85.81h-0.07v-2.56h0.07c3.69,0,7.49-0.04,11.15-0.07c3.67-0.03,7.46-0.07,11.15-0.07h0.07v2.56h-0.07
				c-3.69,0-7.49,0.04-11.15,0.07C74.83,85.78,71.04,85.81,67.34,85.81z M67.41,83.4v2.27c3.67,0,7.44-0.04,11.08-0.07
				c3.64-0.03,7.41-0.07,11.08-0.07v-2.27c-3.67,0-7.44,0.04-11.08,0.07C74.85,83.36,71.09,83.4,67.41,83.4z"/>
		</g>
	</g>
	<g>
		<g>
			<path class="st0" d="M66.35,94.13c7.67,0,15.34,0,23.02,0c0,7.67,0,15.34,0,23.02c-7.67,0-15.34,0-23.02,0
				C66.35,109.47,66.35,101.8,66.35,94.13z M68.76,116.01c-0.43-0.43-0.71-0.85-1.14-1.28c6.82,0,13.78,0,20.6,0
				c-0.43,0.43-0.71,0.85-1.14,1.28c0-6.96,0-13.78,0-20.74c0.43,0.43,0.71,0.71,1.14,1.14c-6.82,0-13.78,0-20.6,0
				c0.43-0.43,0.71-0.71,1.14-1.14C68.76,102.22,68.76,109.04,68.76,116.01z"/>
		</g>
		<g id="Drawing_16_0">
			<path class="st0" d="M89.44,117.21H66.28V94.05h23.16V117.21z M66.42,117.07H89.3V94.2H66.42V117.07z"/>
		</g>
		<g id="Drawing_16_1">
			<path class="st0" d="M87.02,116.18v-1.38H68.84v1.38l-0.12-0.12c-0.21-0.22-0.4-0.43-0.57-0.64c-0.17-0.21-0.35-0.42-0.57-0.64
				l-0.12-0.12h1.24V96.47h-1.24l1.38-1.38v1.24h18.19v-1.24l0.12,0.12c0.28,0.28,0.5,0.5,0.73,0.73l0.53,0.53h-1.24v18.19h1.24
				l-0.12,0.12c-0.21,0.21-0.39,0.43-0.57,0.64c-0.17,0.21-0.36,0.43-0.57,0.64L87.02,116.18z M67.8,114.8
				c0.17,0.18,0.31,0.35,0.46,0.52c0.14,0.17,0.28,0.34,0.44,0.51v-1.03H67.8z M87.16,114.8v1.03c0.16-0.17,0.3-0.34,0.44-0.51
				c0.14-0.17,0.29-0.35,0.46-0.53H87.16z M68.84,114.66h18.19V96.47H68.84V114.66z M87.16,96.33h0.89l-0.28-0.28
				c-0.2-0.2-0.39-0.39-0.61-0.61V96.33z M67.8,96.33h0.89v-0.89L67.8,96.33z"/>
		</g>
	</g>
	<g>
		<g>
			<path class="st0" d="M87.38,123.39c0,7.96,0,15.77,0,23.73c-0.71,0-1.42,0-2.13,0c0-7.96,0-15.77,0-23.73
				C85.96,123.39,86.67,123.39,87.38,123.39z"/>
		</g>
		<g id="Drawing_17_0">
			<path class="st0" d="M87.45,147.19h-2.27v-23.87h2.27V147.19z M85.32,147.05h1.99v-23.59h-1.99V147.05z"/>
		</g>
	</g>
	<g>
		<g>
			<path class="st0" d="M94.34,132.91c-5.4,0-10.66,0-16.05,0c0-0.71,0-1.42,0-2.13c5.4,0,10.66-0.14,16.05-0.14
				C94.34,131.35,94.34,132.2,94.34,132.91z"/>
		</g>
		<g id="Drawing_18_0">
			<path class="st0" d="M94.41,132.98h-16.2v-2.27h0.07c2.7,0,5.41-0.04,8.03-0.07c2.62-0.03,5.33-0.07,8.03-0.07h0.07V132.98z
				 M78.36,132.84h15.91v-2.13c-2.67,0-5.36,0.04-7.96,0.07c-2.6,0.03-5.28,0.07-7.96,0.07V132.84z"/>
		</g>
	</g>
</g>
</svg>
