<?xml version="1.0" encoding="utf-8"?>
<!-- Generator: Adobe Illustrator 28.0.0, SVG Export Plug-In . SVG Version: 6.00 Build 0)  -->
<svg version="1.1" id="Layer_1" xmlns="http://www.w3.org/2000/svg" xmlns:xlink="http://www.w3.org/1999/xlink" x="0px" y="0px"
	 viewBox="0 0 156 156" style="enable-background:new 0 0 156 156;" xml:space="preserve">
<style type="text/css">
	.st0{fill-rule:evenodd;clip-rule:evenodd;fill:#FFFFFF;}
	
		.st1{clip-path:url(#SVGID_00000180340210486564430460000005406078610349038270_);fill-rule:evenodd;clip-rule:evenodd;fill:#0000FF;}
	.st2{clip-path:url(#SVGID_00000024682884007284056100000003759827694576752054_);fill:#FFFFFF;}
	.st3{fill:none;}
</style>
<g>
	<polygon class="st0" points="0,17.2 156,17.2 156,138.8 0,138.8 	"/>
	<polygon class="st0" points="2.39,19.49 146.78,19.49 146.78,129.62 2.39,129.62 	"/>
	<g>
		<g>
			<defs>
				<rect id="SVGID_1_" x="3" y="20.11" width="143.15" height="108.89"/>
			</defs>
			<clipPath id="SVGID_00000110448077235944502880000015435240014956408481_">
				<use xlink:href="#SVGID_1_"  style="overflow:visible;"/>
			</clipPath>
			
				<path style="clip-path:url(#SVGID_00000110448077235944502880000015435240014956408481_);fill-rule:evenodd;clip-rule:evenodd;fill:#0000FF;" d="
				M143.96,63.67H3V20.11h14.12v29.28h112.71V20.11h14.12V63.67L143.96,63.67z M17.12,129.01H3V85.45h140.95v43.56h-14.12V99.72
				H17.12V129.01L17.12,129.01z"/>
		</g>
		<g>
			<defs>
				<rect id="SVGID_00000086655916222488336610000013964210741021324178_" x="3" y="20.11" width="143.15" height="108.89"/>
			</defs>
			<clipPath id="SVGID_00000008141615353614773110000003864210253461671813_">
				<use xlink:href="#SVGID_00000086655916222488336610000013964210741021324178_"  style="overflow:visible;"/>
			</clipPath>
			<path style="clip-path:url(#SVGID_00000008141615353614773110000003864210253461671813_);fill:#FFFFFF;" d="M144.03,129.08
				h-14.27V99.79H17.2v29.28H2.93v-43.7h141.1V129.08z M129.9,128.94h13.98V85.52H3.08v43.42h13.98V99.65H129.9V128.94z
				 M144.03,63.74H2.93v-43.7H17.2v29.28h112.55V20.04h14.27L144.03,63.74L144.03,63.74z M3.08,63.6h140.81V20.19H129.9v29.28H17.05
				V20.19H3.08V63.6z"/>
		</g>
	</g>
	<polygon class="st3" points="0.48,138.32 155.52,138.32 155.52,17.67 0.48,17.67 	"/>
</g>
</svg>
