<?xml version="1.0" encoding="utf-8"?>
<!-- Generator: Adobe Illustrator 28.0.0, SVG Export Plug-In . SVG Version: 6.00 Build 0)  -->
<svg version="1.1" id="Layer_1" xmlns="http://www.w3.org/2000/svg" xmlns:xlink="http://www.w3.org/1999/xlink" x="0px" y="0px"
	 viewBox="0 0 156 156" width="156px" height="156px"  style="enable-background:new 0 0 156 156;" xml:space="preserve">
<style type="text/css">
	
		.st0{clip-path:url(#SVGID_00000080181566582839907670000000119409045618707863_);fill-rule:evenodd;clip-rule:evenodd;fill:#0000FF;}
	.st1{clip-path:url(#SVGID_00000134960049765646528040000012043819394158439577_);fill:#FFFFFF;}
</style>
<g>
	<g>
		<g>
			<g>
				<defs>
					<rect id="SVGID_1_" x="3" y="16.4" width="153" height="116.4"/>
				</defs>
				<clipPath id="SVGID_00000060009844913155065790000010041487661777751174_">
					<use xlink:href="#SVGID_1_"  style="overflow:visible;"/>
				</clipPath>
				
					<path style="clip-path:url(#SVGID_00000060009844913155065790000010041487661777751174_);fill-rule:evenodd;clip-rule:evenodd;fill:#0000FF;" d="
					M153.7,62.9H3V16.4h15.1v31.3h120.5V16.4h15.1L153.7,62.9L153.7,62.9z M18.1,132.8H3V86.2h150.6v46.6h-15.1v-31.3H18.1V132.8
					L18.1,132.8z"/>
			</g>
		</g>
		<g>
			<g>
				<defs>
					<rect id="SVGID_00000085972344723729213740000009499284592991760286_" x="3" y="16.4" width="153" height="116.4"/>
				</defs>
				<clipPath id="SVGID_00000100381541118803411080000017346790790034102714_">
					<use xlink:href="#SVGID_00000085972344723729213740000009499284592991760286_"  style="overflow:visible;"/>
				</clipPath>
				<path style="clip-path:url(#SVGID_00000100381541118803411080000017346790790034102714_);fill:#FFFFFF;" d="M153.7,132.8h-15.3
					v-31.3H18.2v31.3H2.9V86.1h150.8V132.8z M138.6,132.7h14.9V86.3H3.1v46.4H18v-31.3h120.6V132.7z M153.7,63H2.9V16.3h15.3v31.3
					h120.3V16.3h15.3L153.7,63L153.7,63z M3.1,62.8h150.5V16.4h-15v31.3H18V16.4H3.1V62.8z"/>
			</g>
		</g>
	</g>
</g>
</svg>
