<?xml version="1.0" encoding="utf-8"?>
<!-- Generator: Adobe Illustrator 28.0.0, SVG Export Plug-In . SVG Version: 6.00 Build 0)  -->
<svg version="1.1" id="Layer_1" xmlns="http://www.w3.org/2000/svg" xmlns:xlink="http://www.w3.org/1999/xlink" x="0px" y="0px"
	 viewBox="0 0 156 156" style="enable-background:new 0 0 156 156;" xml:space="preserve">
<style type="text/css">
	.st0{fill:#FF0000;enable-background:new    ;}
</style>
<path class="st0" d="M156,0c0,0.3,0,0.5,0,0.8c0,51.5,0,103,0,154.5c0,0.8,0,0.8-0.8,0.8c-51.5,0-103,0-154.5,0
	c-0.9,0-0.8,0.1-0.8-0.8C0,103.7,0,52.2,0,0.6C0,0.4,0,0.2,0,0C52,0,104,0,156,0z M149.7,77.9c0-23.8,0-47.6,0-71.3
	c0-0.9,0.1-0.8-0.8-0.8c-47.3,0-94.6,0-142,0c-0.8,0-0.8-0.1-0.8,0.8c0,47.5,0,95.1,0,142.6c0,0.9-0.1,0.7,0.7,0.7
	c47.3,0,94.7,0,142,0c0.9,0,0.7,0.1,0.7-0.7C149.7,125.4,149.7,101.7,149.7,77.9z"/>
<path class="st0" d="M107.5,70.2c0.7-0.4,1.4-0.8,1.9-1.5c0.9-1.4,1.8-2.9,2.2-4.5c0.5-1.9,0.9-3.8,0.9-5.8c0-0.6,0.2-1.1,0.4-1.7
	c0.4-0.9,0.1-1.7-0.4-2.3c-1.7-2.1-3.1-4.3-4.6-6.5c-2.7-4.1-5.6-8.2-8.4-12.3c-0.2-0.4-0.5-0.7-0.9-0.9c-0.6-0.4-1.2-0.7-1.8-1.1
	c-0.8-0.5-1.4-1.3-1.6-2.3c-0.1-0.5-0.5-0.9-1.1-1.1c-1.2-0.3-2-1-2.6-2c-0.3-0.5-0.7-1.1-1.1-1.6c-0.5-0.7-1.1-1.1-2-1.3
	c-2.3-0.4-4.7-0.7-7.1-0.6c-2.1,0.1-4.1,0.3-6.1,0.5c-1.2,0.1-2.4,0.3-3.5,0.3c-1.3,0.1-2.5-0.3-3.8-0.3c-3.7-0.2-7.2-1.4-10.8-2
	c-3.1-0.5-6-1.4-9-2.3c-2.4-0.7-4.9-1-7.3-1.4c-2-0.3-3.8-1-5.7-1.7c-0.9-0.3-0.9-0.3-0.6-1.2c0.8-2,1.5-4,2.2-6
	c0.1-0.4,0.2-0.4,0.6-0.3c1.5,0.5,2.9,1.2,4.5,1.5c2.2,0.3,4.4,0.6,6.5,1.1c2,0.4,3.9,1.1,5.9,1.7c2.4,0.7,4.9,1,7.3,1.5
	c1.7,0.4,3.3,0.9,5,1.1c1.6,0.2,3.2,0.5,4.8,0.5c1.1,0,2.2-0.2,3.3-0.3c5.5-0.7,11-0.8,16.4,0.5c1,0.2,1.9,0.6,2.8,1.3
	c1.2,0.9,2.4,1.7,3.1,3c0.1,0.1,0.2,0.2,0.3,0.3c2.2,1.6,4.2,3.5,5.8,5.7c0.1,0.2,0.3,0.3,0.5,0.4c1,0.6,1.7,1.3,2.3,2.2
	c3.7,5.4,7.4,10.8,11.1,16.3c0.7,1.1,1.5,2.1,2.3,3.2c1.1,1.7,1.6,3.5,2,5.4c0.1,0.5,0,1-0.1,1.4c-0.7,1.6-0.8,3.3-1,5
	c-0.6,3.5-1.5,6.9-3.4,10c-1.1,1.8-2.4,3.4-4.3,4.4c-0.3,0.2-0.5,0.4-0.6,0.7c-0.4,1.3-1.1,2.4-2.2,3.1c-0.2,0.2-0.2,0.2,0,0.4
	c1.8,1.5,3,3.3,4,5.3c0.7,1.6,1.1,3.2,1.4,4.9c0.1,0.8,0.2,1.6,0.2,2.3c0,0.6,0,1.3,0,1.9c0.1,1.6-0.1,3.2-0.4,4.7
	c-0.3,1.6-0.8,3.2-1.6,4.6c-1.3,2.5-3.1,4.5-5.5,6c-1.8,1.1-3.8,1.8-5.9,2.2c-1.9,0.4-3.9,0.4-5.8,0.3c-2.7-0.2-5.2-0.8-7.6-2.2
	c-1.2-0.7-2.3-1.5-3.3-2.4c-1.8-1.8-3.1-4-3.9-6.5c-0.9-2.7-1-5.5-0.9-8.4c0-0.4-0.1-0.6-0.5-0.7c-1.5-0.5-3.1-0.9-4.7-1.3
	c-1.7-0.4-3.2-1-4.6-2.1c-1.1-0.8-2.2-1.3-3.5-1.7c-0.9-0.2-1.7-0.7-2.2-1.4c-0.3-0.4-0.6-0.9-0.9-1.3c-0.1-0.2-0.3-0.4-0.6-0.4
	c-1.2-0.2-2.2-0.8-3-1.7c-0.8-0.9-1.5-1.8-2.2-2.9c-0.8-1.4-1.8-2.7-2.5-4.2c-0.1-0.2-0.3-0.4-0.5-0.5c-2-1.3-4-2.6-6.1-3.9
	c-1.3-0.8-2.5-1.7-3.1-3.1c-0.2-0.5-0.6-0.7-1-1c-1.9-1.3-3.7-2.8-5.3-4.4c-0.4-0.4-0.9-0.6-1.3-0.9c-1.1-0.7-1.8-1.6-2.2-2.8
	c-0.4-1.4-0.8-2.7-1.6-4c-0.4-0.6-0.8-1.2-1.5-1.6c-0.6-0.4-1.2-0.8-1.8-1.1c-1.4-0.8-2.2-2.1-3-3.6c0.6,0.4,1,0.6,1.5,0.9
	c0.1,0.1,0.2,0.2,0.4,0.1c0.1-0.1,0.1-0.2,0.1-0.4c0-2.3,0-4.5,0-6.8c0-0.5,0.1-0.6,0.6-0.6c2.1,0,3.6,0.9,4.5,2.8
	c0.2,0.4,0.3,0.9,0.8,1.1c3.7,2.1,5.9,5.3,7.1,9.2c0.1,0.4,0.3,0.7,0.7,0.9c1,0.6,1.8,1.3,2.6,2.2c0.9,1,2,1.9,3.3,2.5
	c0.9,0.4,1.6,1,2,1.8c0.6,1,1.4,1.8,2.4,2.4c1.8,1.1,3.5,2.2,5.2,3.4c1.5,1,2.7,2.2,3.5,3.8c0.8,1.5,1.8,2.9,2.6,4.3
	c0.1,0.2,0.3,0.3,0.5,0.3c1.9,0.3,3.2,1.4,4.2,3c0.2,0.4,0.5,0.6,1,0.7c0.9,0.2,1.7,0.7,2.4,1.2c1.4,1.1,3.1,1.8,4.9,2.2
	c0.8,0.1,1.6,0.3,2.3,0.6c0.3,0.1,0.4,0.1,0.5-0.2c0.5-0.9,1.2-1.5,2.2-1.8c0.1,0,0.2-0.1,0.3-0.2c0.5-0.8,1.3-1.4,1.9-2
	c0.2-0.2,0.2-0.3,0.2-0.6c-0.2-0.6-0.4-1.1-0.8-1.6c-0.4-0.4-0.7-0.9-1-1.4c-0.7-1.3-1.8-2.1-3-2.9c-2.5-1.6-5-3.2-7.5-4.8
	c-1.2-0.8-2.4-1.6-3.5-2.4c-1.2-0.8-1.9-2-2.2-3.4c-0.1-0.6-0.2-1.1-0.4-1.7c-0.1-0.6-0.1-1.2,0.1-1.8c1.1-3,1.8-6,3.1-8.9
	c0.6-1.5,1.5-2.8,2.9-3.8c0.9-0.6,1.9-0.8,3-1c2.1-0.4,4.2-0.3,6.3-0.5c2.1-0.2,4,0.7,5.9,1.3c0.5,0.1,0.7,0.5,1.1,0.9
	c0.5,0.5,1.1,0.8,1.8,1c2.4,0.4,4.1,1.8,5.2,3.8c1,1.7,1.7,3.6,2,5.6c0.1,0.4,0,0.8-0.1,1.3c-0.6,2.2-1.3,4.3-2.2,6.3
	c-0.6,1.2-1.4,2.3-2.4,3.3c-0.5,0.5-0.4,1.1-0.5,1.6c-0.1,0.5,0,0.8,0.5,1.1c1.7,0.9,2.8,2.3,3.1,4.2c0,0.2,0.1,0.3,0.3,0.3
	c0.9,0,1.7,0.2,2.4-0.5c0.1-0.1,0.1-0.1,0.2-0.1c0.6-0.2,0.8-0.6,0.8-1.2c0-0.7,0.3-1,1-1.1c0.2,0,0.4-0.1,0.6-0.2
	c0.8-0.5,1.4-1.1,1.9-1.8c0.8-1.2,1.4-2.4,1.8-3.7c0.4-1.7,1.1-3.2,1.6-4.9c0.5-1.6,0.7-3.2,1.1-4.8c0-0.2,0-0.3-0.1-0.5
	c-0.5-1.5-1-3-1.5-4.5c-0.1-0.4-0.3-0.7-0.5-1c-2.1-2.5-3.6-5.4-5.5-8c-1.2-1.7-2.2-3.5-3.4-5.2c0,0,0-0.1-0.1-0.1
	c-0.6-1-1.4-1.8-2.8-1.9c-0.7,0-0.7-0.1-0.5-0.8c0.2-1,0.2-0.9,1.3-0.8c1.5,0.2,2.5,1.1,3.2,2.3c2.1,3.3,4.3,6.5,6.5,9.8
	c0.9,1.3,1.7,2.5,2.7,3.8c0.4,0.5,0.6,1,0.8,1.6c0.5,1.5,1,3,1.5,4.5c0.2,0.5,0.2,0.9,0.1,1.4c-0.5,2.9-1.4,5.8-2.4,8.6
	C108,68.1,107.9,69.2,107.5,70.2z M107.8,94.7c0-0.7,0-1.4-0.1-2.1c-0.1-1.3-0.3-2.5-0.8-3.7c-0.8-2.2-2.1-4-4.3-5.1
	c-0.3-0.2-0.6-0.2-0.9-0.1c-1,0.4-2,0.7-3.1,0.5c-0.6-0.1-1.2-0.1-1.8-0.1c-0.8,0-1.6-0.1-2.4-0.3c-0.9-0.2-0.9-0.2-1.2,0.6
	c-1,2.2-2.3,4.1-4.6,5.1c-0.2,0.1-0.2,0.2-0.3,0.4c-0.2,1-0.4,2-0.4,3c-0.1,1.6-0.1,3.1,0.1,4.6c0.2,1.3,0.5,2.6,1.1,3.9
	c0.5,1.1,1.2,2,2.1,2.9c0.7,0.6,1.4,1.2,2.2,1.6c0.8,0.4,1.7,0.7,2.6,0.8c1.1,0.2,2.2,0.2,3.4,0c0.9-0.1,1.7-0.4,2.6-0.7
	c1.2-0.5,2.3-1.3,3.1-2.2c1-1.1,1.8-2.5,2.2-4C107.7,98.3,107.9,96.5,107.8,94.7z M83.2,53.8c-1.5,0.1-3,0-4.5,0.3
	c-0.3,0-0.4,0.2-0.6,0.4c-0.9,2.1-1.4,4.3-2.2,6.5c-0.1,0.3,0.1,0.4,0.2,0.5c3.2,2.1,6.4,4.1,9.5,6.2c0.3,0.2,0.4,0.2,0.5-0.2
	c0.4-1.5,1.1-2.8,2.4-3.8c0.3-0.2,0.5-0.5,0.7-0.8c0.6-1.2,1-2.4,1.4-3.7c0.3-0.9-0.3-1.6-0.7-2.4c0-0.1-0.1-0.1-0.2-0.1
	c-1.9-0.4-3.5-1.4-5.2-2.4C84.1,53.9,83.7,53.7,83.2,53.8z"/>
<path class="st0" d="M74.3,124c0,5.7,0,11.3,0,17c0,0.4-0.1,0.6-0.6,0.6c-2.1,0-4.1,0-6.2,0c-0.4,0-0.6-0.1-0.6-0.5
	c0-4.8,0-9.6,0-14.3c0-0.4-0.1-0.6-0.6-0.6c-4.4,0-8.8,0-13.2,0c-0.5,0-0.6,0.2-0.6,0.6c0,4.8,0,9.5,0,14.3c0,0.5-0.1,0.6-0.6,0.6
	c-2.1,0-4.1,0-6.2,0c-0.4,0-0.5-0.1-0.5-0.5c0-11.4,0-22.8,0-34.2c0-0.4,0.1-0.5,0.5-0.5c2.1,0,4.2,0,6.3,0c0.5,0,0.6,0.2,0.6,0.6
	c0,4.2,0,8.4,0,12.7c0,0.5,0.1,0.6,0.6,0.6c4.4,0,8.7,0,13.1,0c0.6,0,0.6-0.2,0.6-0.7c0-4.2,0-8.4,0-12.6c0-0.5,0.1-0.6,0.6-0.6
	c2.1,0,4.1,0,6.2,0c0.4,0,0.5,0.1,0.5,0.5C74.3,112.6,74.3,118.3,74.3,124z"/>
<path class="st0" d="M9.9,130.3c1.8-0.2,3.5-0.4,5.3-0.6c0.5,0,1-0.1,1.5-0.1c0.2,0,0.3,0,0.4,0.3c0.3,1.3,0.7,2.5,1.6,3.6
	c1,1.3,2.3,2,3.9,2.4c1.3,0.3,2.6,0.3,3.8,0.2c1.5-0.1,2.9-0.5,4-1.5c1.4-1.2,1.8-2.6,1.4-4.2c-0.2-0.9-0.9-1.5-1.8-2
	c-1.4-0.7-2.9-1-4.4-1.4c-2.5-0.7-5-1.2-7.5-2.1c-2.6-1-4.7-2.6-5.9-5.1c-1.2-2.4-1.3-5-0.2-7.5c1.3-3.1,3.9-4.7,7-5.6
	c2.4-0.7,4.8-0.7,7.3-0.6c2.5,0.1,5,0.7,7.2,2c2.1,1.4,3.5,3.3,4.2,5.7c0.3,0.8,0.3,1.7,0.4,2.6c0,0.3-0.1,0.4-0.4,0.3
	c-1.3-0.1-2.7,0.1-4,0.1c-0.8,0-1.5,0-2.3,0.1c-0.5,0-0.7-0.1-0.8-0.6c-0.1-0.8-0.5-1.6-0.9-2.3c-0.7-1.1-1.8-1.6-3-1.9
	c-1.2-0.3-2.5-0.3-3.8-0.2c-1.4,0.1-2.8,0.5-3.9,1.5c-1.3,1.2-1.1,3.2,0.4,4.2c1.1,0.7,2.3,1.1,3.5,1.4c2.7,0.8,5.5,1.3,8.1,2.2
	c1.4,0.5,2.8,1,4,1.9c2.1,1.5,3.4,3.5,3.9,6c0.2,1.2,0.2,2.4,0.2,3.5c-0.1,1.2-0.5,2.4-1.1,3.5c-0.6,1.1-1.3,2.1-2.2,2.9
	c-1.5,1.3-3.3,2.2-5.3,2.6c-2.2,0.5-4.4,0.7-6.6,0.6c-2.4-0.1-4.8-0.4-7-1.4c-2.2-1-3.9-2.5-5.1-4.5c-0.9-1.5-1.4-3-1.7-4.7
	C10.1,131.1,10,130.7,9.9,130.3z"/>
<path class="st0" d="M121,124c0-5.7,0-11.3,0-17c0-0.5,0.1-0.6,0.6-0.6c3.6,0,7.1,0,10.7,0c1.7,0,3.3,0,5,0.1
	c1.4,0.1,2.8,0.1,4.1,0.4c2.5,0.6,4.5,2.1,5.9,4.2c0.9,1.3,1.3,2.7,1.5,4.2c0.2,1.1,0.1,2.2,0.1,3.2c-0.1,1.7-0.6,3.2-1.5,4.7
	c-1.3,2.1-3.2,3.4-5.4,4.2c-0.9,0.3-1.9,0.5-2.9,0.6c-3.4,0.4-6.8,0.1-10.3,0.2c-0.5,0-0.4,0.3-0.4,0.5c0,4.1,0,8.1,0,12.2
	c0,0.5-0.1,0.6-0.6,0.6c-2,0-4.1,0-6.1,0c-0.5,0-0.6-0.1-0.6-0.6C121,135.3,121,129.6,121,124z M128.3,117.3c0,1.5,0,3,0,4.6
	c0,0.3,0,0.5,0.4,0.5c2.7-0.1,5.4,0.2,8.1-0.2c1.6-0.2,2.8-0.9,3.7-2.2c0.7-0.9,0.8-2,0.7-3.1c0-1.5-0.7-2.6-1.9-3.5
	c-1.1-0.9-2.5-1.1-3.8-1.1c-2.3,0-4.5-0.2-6.8-0.1c-0.4,0-0.5,0.1-0.5,0.5C128.3,114.3,128.3,115.8,128.3,117.3z"/>
</svg>
