<?xml version="1.0" encoding="utf-8"?>
<!-- Generator: Adobe Illustrator 28.0.0, SVG Export Plug-In . SVG Version: 6.00 Build 0)  -->
<svg version="1.1" id="Layer_1" xmlns="http://www.w3.org/2000/svg" xmlns:xlink="http://www.w3.org/1999/xlink" x="0px" y="0px"
	 viewBox="0 0 156 156" style="enable-background:new 0 0 156 156;" xml:space="preserve">
<style type="text/css">
	.st0{fill-rule:evenodd;clip-rule:evenodd;fill:#FF9415;}
</style>
<path class="st0" d="M156,144.5H0L78.2,11.5L156,144.5L156,144.5z M136.6,133.5L78.2,33.8l-58.5,99.7H136.6L136.6,133.5z
	 M64.1,124.7l-0.8-0.6l-0.8-0.5l-0.8-0.5l-0.7-0.6l-0.7-0.6l-0.8-0.6l-0.6-0.6l-0.7-0.6l-0.6-0.6l-0.7-0.6l-0.5-0.7l-0.6-0.7
	l-0.6-0.7l-0.5-0.7l-0.5-0.7l-0.5-0.7l-0.4-0.7l-0.5-0.8l-0.4-0.8l-0.2-0.7l-0.4-0.8l-0.2-0.8l-0.4-0.9l-0.2-0.8l-0.1-0.8l-0.2-0.9
	l-0.1-0.9l-0.1-0.9l-0.1-0.9v-0.9l-0.1-0.9v-1.1v-0.5v-0.5v-0.4l0.1-0.5v-0.5V98l0.1-0.5v-0.5l0.1-0.5v-0.4l0.1-0.5v-0.5l0.1-0.4
	l0.1-0.5l0.1-0.5l0.1-0.4l0.1-0.5l0.1-0.4l0.1-0.5l0.1-0.4l0.2-0.5l0.1-0.4l0.1-0.5l0.2-0.4l0.1-0.5l0.2-0.4l0.2-0.5l0.1-0.4
	l0.2-0.5l0.2-0.4l0.2-0.4l0.2-0.5l0.5-0.8l0.6-0.8l0.5-0.8l0.6-0.7l0.6-0.7l0.6-0.7l0.6-0.7l0.6-0.7l0.7-0.6l0.6-0.6l0.7-0.6
	l0.6-0.6l0.7-0.5l0.7-0.6l0.7-0.5l0.9-0.4l0.7-0.5l0.8-0.3l0.7-0.4l0.8-0.4l0.8-0.4l0.8-0.2l0.8-0.2l1-0.2l0.8-0.2l1-0.2l0.8-0.1
	l1-0.1l1-0.1h1l1-0.1h1.1h0.4h0.5l0.5,0.1H80h0.5h0.4l0.5,0.1h0.5l0.5,0.1h0.4l0.5,0.1l0.5,0.1H84l0.5,0.2l0.4,0.1l0.5,0.1l0.5,0.1
	l0.4,0.1l0.5,0.1l0.4,0.2l0.5,0.1l0.4,0.1l0.5,0.2l0.4,0.1l0.5,0.2l0.4,0.1L90,76l0.4,0.2l0.4,0.1l0.5,0.2l0.4,0.2l0.5,0.2l0.8,0.5
	l0.8,0.6l0.8,0.5l0.7,0.6l0.7,0.6l0.7,0.6l0.7,0.6l0.7,0.6l0.6,0.7l0.6,0.6l0.6,0.7l0.6,0.6l0.6,0.7l0.5,0.7l0.5,0.7l0.5,0.8
	l0.4,0.7l0.4,0.8l0.5,0.7l0.2,0.8l0.4,0.8l0.2,0.8l0.4,0.8l0.2,0.8l0.1,0.9l0.2,0.9l0.1,0.8l0.1,0.9l0.1,0.9v0.9l0.1,0.9v1.1v0.4
	v0.5v0.5l-0.1,0.5v0.4v0.5l-0.1,0.5v0.5l-0.2,0.3v0.5l-0.1,0.5l-0.1,0.4v0.5l-0.1,0.5l-0.1,0.4l-0.1,0.5l-0.1,0.4l-0.1,0.5l-0.1,0.4
	l-0.1,0.5l-0.2,0.4l-0.1,0.5l-0.2,0.4l-0.1,0.5l-0.1,0.4l-0.2,0.5l-0.2,0.4l-0.1,0.5l-0.2,0.4l-0.2,0.4l-0.2,0.5l-0.2,0.4l-0.5,0.8
	l-0.5,0.8l-0.6,0.8l-0.5,0.8l-0.6,0.7l-0.6,0.7l-0.7,0.7l-0.6,0.6l-0.6,0.7l-0.7,0.6l-0.6,0.6l-0.7,0.6l-0.7,0.5l-0.7,0.5l-0.7,0.5
	l-0.7,0.5l-0.7,0.5l-0.8,0.4l-0.7,0.4l-0.8,0.4l-0.8,0.4l-0.8,0.2l-0.8,0.2l-0.8,0.2l-1,0.2l-0.8,0.1l-1,0.2h-1l-1,0.1l-1,0.1h-1h-1
	h-0.4h-0.5h-0.5h-0.5h-0.5l-0.5-0.1h-0.5l-0.4-0.1H74l-0.5-0.1H73l-0.5-0.1l-0.4-0.1l-0.5-0.1l-0.5-0.1l-0.4-0.1l-0.5-0.1l-0.5-0.1
	l-0.4-0.1l-0.5-0.1l-0.5-0.1l-0.4-0.2l-0.5-0.1l-0.4-0.2l-0.5-0.1l-0.4-0.2l-0.5-0.1l-0.4-0.2l-0.4-0.2l-0.5-0.2l-0.4-0.1
	L64.1,124.7L64.1,124.7z M55.9,101h44.4v-0.8v-0.8v-0.7l-0.1-0.8l-0.1-0.7l-0.1-0.7l-0.1-0.7L99.8,95l-0.2-0.6l-0.1-0.7L99.2,93
	l-0.2-0.6l-0.4-0.7l-0.2-0.6l-0.4-0.6l-0.2-0.6l-0.4-0.6l-0.5-0.6l-0.4-0.6l-0.4-0.5l-0.5-0.6l-0.5-0.5L94.7,86l-0.5-0.5l-0.6-0.5
	l-0.5-0.5l-0.6-0.5L92,83.7l-0.6-0.5l-0.6-0.4L90,82.4L89.3,82L67,120.1l0.2,0.1l0.4,0.2l0.4,0.1l0.2,0.1l0.4,0.2l0.4,0.1l0.2,0.1
	l0.4,0.1l0.4,0.1l0.4,0.1l0.2,0.2h0.4l0.4,0.1l0.4,0.1l0.4,0.1l0.2,0.1l0.4,0.1H73l0.4,0.1l0.4,0.1h0.4l0.4,0.1h0.4h0.4l0.4,0.1h0.4
	h0.4l0.4,0.1H77h0.4h0.4H78h0.4h0.4h0.5h0.4l0.4-0.1h0.4h0.4l0.4-0.1h0.4l0.5-0.1h0.4l0.4-0.1l0.4-0.1h0.4l0.4-0.1l0.4-0.1l0.4-0.1
	l0.4-0.1l0.4-0.1l0.4-0.1l0.4-0.1l0.4-0.1l0.2-0.1l0.4-0.2l0.4-0.1l0.4-0.1l0.4-0.2l0.4-0.1l0.2-0.2l0.4-0.1l0.4-0.2l0.4-0.2
	L67,81.8l-0.7,0.5l-0.7,0.4L65,83.2l-0.7,0.5l-0.6,0.5l-0.6,0.4l-0.5,0.6L62,85.5L61.5,86l-0.5,0.5l-0.5,0.6l-0.5,0.5l-0.5,0.6
	l-0.4,0.6l-0.4,0.6l-0.4,0.5l-0.4,0.7l-0.4,0.6l-0.2,0.6l-0.2,0.7l-0.2,0.6l-0.2,0.7l-0.2,0.6L56.5,95l-0.1,0.7l-0.2,0.7v0.7
	L56,97.8l-0.1,0.8v0.7v0.8L55.9,101L55.9,101L55.9,101z"/>
</svg>
