<?xml version="1.0" encoding="utf-8"?>
<!-- Generator: Adobe Illustrator 28.0.0, SVG Export Plug-In . SVG Version: 6.00 Build 0)  -->
<svg version="1.1" id="Layer_1" xmlns="http://www.w3.org/2000/svg" xmlns:xlink="http://www.w3.org/1999/xlink" x="0px" y="0px"
	 viewBox="0 0 156 156" width="156px" height="156px"  style="enable-background:new 0 0 156 156;" xml:space="preserve">
<style type="text/css">
	.st0{fill-rule:evenodd;clip-rule:evenodd;fill:#FFFF66;}
	.st1{font-family:'Arial'; font-weight: 600;}
	.st2{font-size:24.1644px;}
</style>
<g>
	<path d="M72.3,136.4c-0.1,0-0.2,0-0.3,0l-8.7-1.8c-1.3-0.3-2.5-0.8-3.7-1.2c-0.5-0.2-1.1-0.4-1.7-0.6L37,125.6
		c-1.6-0.5-2.8-1.5-4-2.5c-0.5-0.4-1-0.8-1.6-1.2l-15.7-10.7c-2.6-1.8-4-4.7-5.4-7.4c-0.6-1.3-1.2-2.6-2-3.7c-1.6-2.4-2.2-5.3-2.9-8
		C5.2,91,5,90,4.7,88.9c-1.9-6.5-2.2-9.8-2.8-15.3c-0.2-1.8-0.4-3.9-0.7-6.3c0-0.2,0-0.4,0.1-0.6L4.7,56c0.5-1.6,1.5-2.9,2.4-4.1
		c0.4-0.5,0.8-1.1,1.2-1.6l10.4-16.1c0.1-0.2,0.2-0.3,0.4-0.4l10.4-7.1c1.2-0.9,2.6-1.2,3.9-1.5c0.6-0.1,1.1-0.3,1.7-0.5
		c1.2-0.4,2.3-0.8,3.4-1.2c2.3-0.9,4.7-1.7,7.1-2.4c8.6-2.2,24.9-3.4,29.9-3.6l0,0l0.7,0c3.1-0.1,3.3-0.2,4.2,0.4
		c0.4,0.2,1.1,0.7,4.2,1.5c5.2,1.3,8,2,9.7,2.4c3,0.7,3.1,0.8,6.9,2.1l2.6,0.9c1.4,0.5,2.7,0.9,3.9,1.3c6.5,2.1,11.7,3.7,17.6,9.8
		c1,1,1.2,2.4,1.3,3.6c0.1,0.8,0.2,1.5,0.5,1.9c1.4,1.8,2.3,2.8,2.9,3.3c0.2-0.3,0.6-0.6,0.9-0.7c0.7-0.1,1.5,0.6,1.7,1.3
		c0.1,0.5,0.5,1.8,1.4,4.7l4.5,1.5c3.5,1.2,5,4.9,6.3,8.1c0.5,1.2,0.9,2.3,1.5,3.3c0.8,1.4,1.2,2.9,1.5,4.4c0.1,0.4,0.2,0.8,0.3,1.2
		c2.2,8,2.4,10.6,2.8,16.8c0.2,2.6,0.4,5.8,0.8,10.2c0,0.2,0,0.4-0.1,0.6l-1.8,5.3c-0.5,1.6-1.5,2.9-2.4,4.1
		c-0.4,0.5-0.8,1.1-1.2,1.6l-6.9,10.7c-0.1,0.2-0.2,0.3-0.4,0.4l-5.2,3.6c-2.4,1.6-5.1,2.3-7.8,2.9c-1,0.2-2,0.5-3,0.8
		c-4.1,1.3-8.8,2.2-13.1,3.1l-2.8,0.6c-1.1,0.2-2.1,0.6-3.3,1.1c-0.6,0.2-1.2,0.5-1.8,0.7c-1.1,0.4-2.3,0.8-3.4,1.3
		c-2.3,0.9-4.7,1.9-7.3,2.4c-4.3,0.8-8.7,1.1-12.9,1.3c-2.1,0.1-4.3,0.3-6.4,0.5C72.4,136.4,72.3,136.4,72.3,136.4z M4.1,67.3
		c0.3,2.4,0.5,4.3,0.7,6.1c0.6,5.5,0.9,8.6,2.7,14.8c0.3,1.1,0.6,2.2,0.8,3.3c0.6,2.6,1.2,5,2.5,7.1c0.8,1.3,1.5,2.7,2.2,4
		c1.2,2.6,2.4,4.9,4.4,6.3l15.7,10.7c0.6,0.4,1.2,0.9,1.8,1.4c1,0.8,2,1.6,3.1,2l20.9,7.1c0.6,0.2,1.2,0.4,1.8,0.7
		c1.1,0.4,2.2,0.9,3.3,1.1l8.5,1.7c2.1-0.2,4.2-0.3,6.2-0.4c4.2-0.3,8.5-0.5,12.6-1.3c2.3-0.4,4.4-1.3,6.7-2.2
		c1.2-0.5,2.3-0.9,3.5-1.3c0.6-0.2,1.1-0.4,1.7-0.6c1.2-0.5,2.4-0.9,3.7-1.2l2.8-0.6c4.3-0.9,8.8-1.8,12.8-3
		c1.1-0.3,2.1-0.6,3.2-0.8c2.5-0.6,4.9-1.2,6.9-2.5l5-3.4l6.8-10.5c0.4-0.6,0.9-1.2,1.4-1.8c0.8-1.1,1.6-2.1,2-3.2l1.6-5.1
		c-0.4-4.4-0.6-7.5-0.7-10c-0.4-6.2-0.5-8.5-2.7-16.2c-0.1-0.4-0.2-0.8-0.3-1.3c-0.4-1.4-0.7-2.7-1.3-3.8c-0.6-1.1-1.1-2.4-1.6-3.6
		c-1.2-2.9-2.3-5.7-4.6-6.5l-5.2-1.8c-0.4-0.2-0.8-0.5-0.9-0.9c-0.5-1.5-0.8-2.6-1.1-3.5c-1.3-0.1-3-1.6-5.6-5
		c-0.8-1-0.9-2.2-1.1-3.3c-0.1-0.8-0.2-1.6-0.5-1.9c-5.4-5.5-10-7-16.4-9c-1.3-0.4-2.6-0.8-4-1.3l-2.6-0.9c-3.8-1.3-3.8-1.3-6.7-2
		c-1.8-0.4-4.6-1.1-9.8-2.4c-3.3-0.8-4.3-1.4-5-1.8c-0.3-0.1-1.2,0-2.6,0l-0.7,0C68.5,20.7,54,22,46.5,23.9
		c-2.3,0.6-4.6,1.4-6.8,2.3c-1.2,0.4-2.3,0.9-3.5,1.3c-0.6,0.2-1.3,0.4-1.9,0.5c-1.1,0.3-2.2,0.5-3,1.1l-10.2,7L10.8,51.8
		c-0.4,0.6-0.9,1.2-1.4,1.8c-0.8,1.1-1.6,2.1-2,3.2L4.1,67.3z"/>
	<rect x="-5.2" y="44.2" transform="matrix(0.6357 -0.7719 0.7719 0.6357 -27.5149 30.9417)" width="48.5" height="0.9"/>
	<rect x="-8.8" y="47.2" transform="matrix(0.6443 -0.7648 0.7648 0.6443 -27.7872 35.4694)" width="66.1" height="0.9"/>
	<rect x="-10.6" y="50.9" transform="matrix(0.6397 -0.7686 0.7686 0.6397 -28.6421 41.6612)" width="81.5" height="0.9"/>
	<rect x="-10.3" y="53.7" transform="matrix(0.6397 -0.7686 0.7686 0.6397 -28.9245 46.5575)" width="91" height="0.9"/>
	<rect x="-5.4" y="64.6" transform="matrix(0.6397 -0.7686 0.7686 0.6397 -31.497 62.8708)" width="113.5" height="0.9"/>
	<polygon points="20.3,112.2 19.6,111.6 93.8,22.7 94.5,23.3 	"/>
	<rect x="-10.2" y="56.8" transform="matrix(0.6397 -0.7686 0.7686 0.6397 -29.4125 51.8408)" width="101.5" height="0.9"/>
	<rect x="-8" y="60.5" transform="matrix(0.6409 -0.7676 0.7676 0.6409 -30.1846 57.3297)" width="108.3" height="0.9"/>
	<rect x="4" y="70.1" transform="matrix(0.6409 -0.7676 0.7676 0.6409 -31.3973 74.0364)" width="118.8" height="0.9"/>
	<rect x="9.1" y="73.1" transform="matrix(0.6409 -0.7676 0.7676 0.6409 -31.5114 79.6472)" width="120.6" height="0.9"/>
	<rect x="14.1" y="76.2" transform="matrix(0.6397 -0.7686 0.7686 0.6397 -31.8508 85.3944)" width="122.2" height="0.9"/>
	<rect x="20.2" y="78.8" transform="matrix(0.6409 -0.7676 0.7676 0.6409 -31.8423 90.4192)" width="121" height="0.9"/>
	<polygon points="47.9,128.5 47.2,128 124.5,35.7 125.2,36.2 	"/>
	<rect x="34.2" y="86.5" transform="matrix(0.6409 -0.7676 0.7676 0.6409 -34.1343 100.8639)" width="113" height="0.9"/>
	<rect x="41" y="89.8" transform="matrix(0.6397 -0.7686 0.7686 0.6397 -34.5711 106.7098)" width="111.1" height="0.9"/>
	<polygon points="68,134.6 67.4,134 136,51.8 136.7,52.3 	"/>
	<polygon points="75.9,134.9 75.2,134.3 141.6,55.1 142.3,55.7 	"/>
	<rect x="68.1" y="97.8" transform="matrix(0.6449 -0.7643 0.7643 0.6449 -34.3452 122.5489)" width="93.2" height="0.9"/>
	<rect x="79.4" y="100.3" transform="matrix(0.6397 -0.7686 0.7686 0.6397 -33.8879 129.1558)" width="82.9" height="0.9"/>
	<polygon points="106.4,128.1 105.7,127.6 148.5,76.4 149.2,77 	"/>
	<polygon points="116.2,126.3 115.5,125.7 149.4,84.9 150.1,85.5 	"/>
	<polygon points="126.3,124.2 125.6,123.7 150,94.3 150.7,94.9 	"/>
	<polygon class="st0" points="64.6,71.1 88.5,71.1 88.5,113.4 64.6,113.4 	"/>
	<path d="M88.5,114.5h-24c-0.6,0-1.1-0.5-1.1-1.1V71.1c0-0.6,0.5-1.1,1.1-1.1h24c0.6,0,1.1,0.5,1.1,1.1v42.3
		C89.7,114,89.2,114.5,88.5,114.5z M65.7,112.2h21.7V72.2H65.7V112.2z"/>
	<text transform="matrix(1.0013 0 0 1 67.9199 99.9072)" class="st1 st2">N</text>
	<path class="st0" d="M51.8,70.6c-1-13.5,9.2-25.2,22.7-26.2s25.3,9.2,26.3,22.7c0.1,1.2,0.1,2.4,0,3.7L51.8,70.6z"/>
	<path d="M100.7,71.9L100.7,71.9l-49-0.1c-0.6,0-1.1-0.5-1.2-1.1c-0.5-6.8,1.7-13.5,6.2-18.7c4.5-5.2,10.7-8.3,17.6-8.8
		c14.2-1,26.5,9.6,27.5,23.7c0.1,1.3,0.1,2.6,0,3.8C101.8,71.4,101.3,71.9,100.7,71.9z M52.9,69.5l46.7,0.1c0-0.8,0-1.6-0.1-2.4
		c-0.9-12.8-12.2-22.5-25-21.6c-6.2,0.5-11.9,3.3-16,8C54.7,58,52.7,63.6,52.9,69.5z"/>
</g>
</svg>
