<?xml version="1.0" encoding="utf-8"?>
<!-- Generator: Adobe Illustrator 28.0.0, SVG Export Plug-In . SVG Version: 6.00 Build 0)  -->
<svg version="1.1" id="Layer_1" xmlns="http://www.w3.org/2000/svg" xmlns:xlink="http://www.w3.org/1999/xlink" x="0px" y="0px"
	 viewBox="0 0 156 156" style="enable-background:new 0 0 156 156;" xml:space="preserve">
<style type="text/css">
	.st0{fill-rule:evenodd;clip-rule:evenodd;fill:#FFFFFF;}
	.st1{fill-rule:evenodd;clip-rule:evenodd;fill:#FFFF66;}
	.st2{font-family:'MyriadPro-Regular';}
	.st3{font-size:24.1644px;}
	.st4{fill:none;}
</style>
<g>
	<polygon class="st0" points="0,15.76 156,15.76 156,140.24 0,140.24 	"/>
	<polygon class="st0" points="0.93,17.16 152.39,17.16 152.39,136.63 0.93,136.63 	"/>
	<path d="M72.3,136.41c-0.1,0-0.2-0.01-0.3-0.02l-8.71-1.79c-1.32-0.27-2.55-0.75-3.74-1.21c-0.55-0.22-1.11-0.43-1.67-0.62
		l-20.91-7.14c-1.57-0.53-2.8-1.54-3.99-2.52c-0.52-0.42-1.04-0.85-1.59-1.23l-15.68-10.71c-2.64-1.8-4.04-4.67-5.39-7.44
		c-0.65-1.32-1.25-2.56-1.98-3.68c-1.59-2.44-2.24-5.26-2.88-7.98c-0.25-1.05-0.49-2.1-0.78-3.12c-1.89-6.46-2.24-9.79-2.82-15.3
		c-0.19-1.8-0.41-3.86-0.71-6.35c-0.02-0.21-0.01-0.42,0.06-0.62L4.7,55.95c0.52-1.6,1.5-2.86,2.45-4.07
		c0.41-0.53,0.84-1.07,1.2-1.63L18.8,34.18c0.1-0.16,0.24-0.3,0.4-0.41l10.45-7.14c1.24-0.85,2.59-1.18,3.91-1.5
		c0.57-0.14,1.13-0.27,1.67-0.46c1.15-0.39,2.29-0.81,3.43-1.24c2.31-0.85,4.68-1.74,7.13-2.36c8.65-2.22,24.9-3.38,29.92-3.61l0,0
		l0.69-0.03c3.06-0.14,3.3-0.16,4.21,0.39c0.36,0.22,1.11,0.67,4.24,1.47c5.18,1.32,7.96,1.99,9.71,2.42
		c3.03,0.73,3.1,0.75,6.93,2.07l2.63,0.9c1.37,0.47,2.67,0.89,3.91,1.28c6.51,2.09,11.66,3.73,17.56,9.79
		c1.01,1.04,1.19,2.39,1.35,3.57c0.1,0.77,0.2,1.51,0.5,1.9c1.39,1.78,2.31,2.76,2.88,3.3c0.22-0.34,0.55-0.58,0.95-0.65
		c0.71-0.13,1.52,0.57,1.71,1.28c0.14,0.49,0.49,1.8,1.44,4.74l4.54,1.55c3.5,1.2,4.99,4.87,6.31,8.12
		c0.49,1.19,0.94,2.31,1.47,3.29c0.77,1.43,1.17,2.95,1.54,4.44c0.1,0.41,0.21,0.82,0.32,1.23c2.23,7.96,2.39,10.55,2.78,16.79
		c0.16,2.56,0.36,5.76,0.76,10.25c0.02,0.19-0.01,0.39-0.06,0.58l-1.75,5.35c-0.52,1.6-1.5,2.86-2.44,4.07
		c-0.41,0.53-0.84,1.07-1.2,1.64l-6.95,10.7c-0.1,0.16-0.24,0.3-0.4,0.41l-5.23,3.57c-2.39,1.64-5.15,2.31-7.81,2.95
		c-1.02,0.25-2.04,0.49-3.03,0.8c-4.1,1.26-8.85,2.21-13.05,3.05l-2.77,0.56c-1.09,0.22-2.14,0.64-3.26,1.07
		c-0.59,0.23-1.19,0.46-1.79,0.67c-1.13,0.39-2.26,0.84-3.38,1.28c-2.32,0.93-4.72,1.88-7.28,2.35c-4.29,0.77-8.67,1.05-12.91,1.33
		c-2.13,0.14-4.26,0.27-6.38,0.47C72.4,136.41,72.35,136.41,72.3,136.41z M4.09,67.26c0.29,2.37,0.49,4.34,0.68,6.08
		c0.58,5.53,0.9,8.57,2.72,14.79c0.31,1.07,0.57,2.17,0.83,3.27C8.93,94,9.5,96.45,10.8,98.46c0.82,1.27,1.5,2.65,2.15,3.99
		c1.24,2.55,2.41,4.95,4.42,6.31l15.68,10.71c0.61,0.42,1.2,0.9,1.79,1.38c1.04,0.85,2.01,1.64,3.09,2.01L58.84,130
		c0.6,0.21,1.19,0.43,1.78,0.66c1.13,0.44,2.19,0.85,3.27,1.07l8.5,1.74c2.07-0.19,4.16-0.33,6.25-0.45
		c4.16-0.27,8.46-0.54,12.58-1.29c2.27-0.41,4.43-1.27,6.72-2.18c1.17-0.46,2.34-0.93,3.52-1.33c0.56-0.19,1.12-0.41,1.67-0.62
		c1.19-0.46,2.41-0.94,3.73-1.21l2.78-0.56c4.33-0.86,8.8-1.76,12.77-2.98c1.05-0.32,2.12-0.58,3.2-0.85
		c2.52-0.61,4.91-1.2,6.86-2.53l4.99-3.41l6.81-10.47c0.41-0.63,0.88-1.24,1.35-1.84c0.83-1.06,1.61-2.07,1.97-3.18l1.65-5.07
		c-0.38-4.36-0.58-7.51-0.74-10.03c-0.39-6.2-0.53-8.52-2.67-16.19c-0.12-0.42-0.22-0.85-0.34-1.28c-0.35-1.36-0.68-2.66-1.28-3.77
		c-0.61-1.12-1.12-2.36-1.6-3.57c-1.19-2.93-2.31-5.69-4.56-6.46l-5.23-1.79c-0.43-0.15-0.77-0.49-0.91-0.93
		c-0.48-1.48-0.83-2.6-1.09-3.45c-1.34-0.12-2.97-1.6-5.64-5.03c-0.8-1.02-0.95-2.24-1.09-3.32c-0.1-0.81-0.21-1.57-0.54-1.92
		c-5.4-5.54-10-7.01-16.37-9.05c-1.26-0.4-2.58-0.82-3.97-1.3l-2.63-0.9c-3.75-1.28-3.75-1.28-6.67-1.99
		c-1.76-0.42-4.55-1.1-9.75-2.43c-3.3-0.83-4.33-1.36-5.04-1.79c-0.26-0.09-1.18-0.05-2.57,0.02l-0.69,0.03
		c-7.36,0.34-21.82,1.6-29.32,3.53c-2.31,0.59-4.61,1.44-6.85,2.27c-1.17,0.43-2.33,0.86-3.5,1.26c-0.62,0.22-1.27,0.38-1.92,0.53
		c-1.11,0.27-2.16,0.53-2.96,1.08L21.1,36.01L10.8,51.84c-0.41,0.63-0.88,1.23-1.35,1.84c-0.83,1.06-1.61,2.07-1.98,3.18L4.09,67.26
		z"/>
	<rect x="-5.23" y="44.18" transform="matrix(0.6357 -0.7719 0.7719 0.6357 -27.5146 30.9405)" width="48.51" height="0.89"/>
	<rect x="-8.83" y="47.16" transform="matrix(0.6443 -0.7648 0.7648 0.6443 -27.7901 35.4728)" width="66.14" height="0.89"/>
	<rect x="-10.62" y="50.94" transform="matrix(0.6397 -0.7686 0.7686 0.6397 -28.6447 41.6614)" width="81.48" height="0.89"/>
	<rect x="-10.3" y="53.68" transform="matrix(0.6397 -0.7686 0.7686 0.6397 -28.9188 46.5625)" width="91" height="0.89"/>
	<rect x="-5.42" y="64.59" transform="matrix(0.6397 -0.7686 0.7686 0.6397 -31.4984 62.87)" width="113.47" height="0.89"/>
	<polygon points="20.32,112.2 19.63,111.63 93.85,22.69 94.53,23.26 	"/>
	<rect x="-10.18" y="56.85" transform="matrix(0.6397 -0.7686 0.7686 0.6397 -29.4117 51.8396)" width="101.54" height="0.89"/>
	<rect x="-7.95" y="60.48" transform="matrix(0.6409 -0.7676 0.7676 0.6409 -30.1821 57.3321)" width="108.27" height="0.89"/>
	<rect x="4.03" y="70.13" transform="matrix(0.6409 -0.7676 0.7676 0.6409 -31.3945 74.0381)" width="118.81" height="0.89"/>
	<rect x="9.08" y="73.06" transform="matrix(0.6409 -0.7676 0.7676 0.6409 -31.5137 79.6509)" width="120.6" height="0.89"/>
	<rect x="14.06" y="76.22" transform="matrix(0.6397 -0.7686 0.7686 0.6397 -31.8458 85.4006)" width="122.21" height="0.89"/>
	<rect x="20.23" y="78.8" transform="matrix(0.6409 -0.7676 0.7676 0.6409 -31.8427 90.4203)" width="120.99" height="0.89"/>
	<polygon points="47.88,128.53 47.19,127.96 124.49,35.66 125.18,36.24 	"/>
	<rect x="34.22" y="86.47" transform="matrix(0.6409 -0.7676 0.7676 0.6409 -34.1311 100.8642)" width="113.04" height="0.89"/>
	<rect x="41.01" y="89.79" transform="matrix(0.6397 -0.7686 0.7686 0.6397 -34.5761 106.7119)" width="111.07" height="0.89"/>
	<polygon points="68.04,134.57 67.36,134 135.97,51.77 136.66,52.35 	"/>
	<polygon points="75.89,134.85 75.2,134.28 141.57,55.13 142.26,55.71 	"/>
	<rect x="68.12" y="97.79" transform="matrix(0.6449 -0.7643 0.7643 0.6449 -34.3489 122.5468)" width="93.16" height="0.89"/>
	<rect x="79.39" y="100.28" transform="matrix(0.6397 -0.7686 0.7686 0.6397 -33.8867 129.1573)" width="82.87" height="0.89"/>
	<polygon points="106.36,128.14 105.67,127.57 148.52,76.39 149.2,76.96 	"/>
	<polygon points="116.21,126.29 115.53,125.72 149.41,84.89 150.1,85.46 	"/>
	<polygon points="126.29,124.23 125.61,123.65 149.97,94.29 150.66,94.86 	"/>
	<polygon class="st1" points="64.56,71.07 88.53,71.07 88.53,113.37 64.56,113.37 	"/>
	<path d="M88.53,114.48H64.56c-0.61,0-1.12-0.5-1.12-1.12V71.07c0-0.61,0.5-1.12,1.12-1.12h23.97c0.61,0,1.12,0.5,1.12,1.12v42.28
		C89.65,113.98,89.16,114.48,88.53,114.48z M65.68,112.25h21.74V72.2H65.68V112.25z"/>
	<text transform="matrix(1.0013 0 0 1 67.9199 99.9072)" class="st2 st3">N</text>
	<path class="st1" d="M51.78,70.64c-0.99-13.5,9.17-25.24,22.69-26.23c13.52-0.99,25.27,9.16,26.26,22.66
		c0.09,1.21,0.09,2.43-0.01,3.65L51.78,70.64z"/>
	<path d="M100.73,71.9L100.73,71.9l-48.95-0.08c-0.61,0-1.12-0.47-1.16-1.09c-0.5-6.84,1.7-13.46,6.18-18.66
		c4.49-5.19,10.73-8.32,17.58-8.82c14.16-1.01,26.48,9.62,27.51,23.74c0.1,1.27,0.1,2.55-0.01,3.82
		C101.84,71.42,101.33,71.9,100.73,71.9z M52.89,69.48l46.73,0.08c0.02-0.8,0.01-1.6-0.05-2.4c-0.94-12.84-12.15-22.55-25.02-21.58
		c-6.22,0.45-11.91,3.3-15.98,8.02C54.72,58.04,52.73,63.64,52.89,69.48z"/>
	<polygon class="st4" points="0.26,139.98 155.74,139.98 155.74,16.02 0.26,16.02 	"/>
</g>
</svg>
