<?xml version="1.0" encoding="utf-8"?>
<!-- Generator: Adobe Illustrator 28.0.0, SVG Export Plug-In . SVG Version: 6.00 Build 0)  -->
<svg version="1.1" id="Layer_1" xmlns="http://www.w3.org/2000/svg" xmlns:xlink="http://www.w3.org/1999/xlink" x="0px" y="0px"
	 viewBox="0 0 156 156" style="enable-background:new 0 0 156 156;" xml:space="preserve">
<style type="text/css">
	.st0{fill-rule:evenodd;clip-rule:evenodd;fill:#FFFFFF;}
	.st1{fill:none;}
	.st2{fill-rule:evenodd;clip-rule:evenodd;fill:#FF9415;}
	.st3{fill:#FFFFFF;}
</style>
<g>
	<polygon class="st0" points="0,10.1 156,10.1 156,145.9 0,145.9 	"/>
	<polygon class="st0" points="0.85,11.33 154.58,11.33 154.58,144.87 0.85,144.87 	"/>
	<rect x="1.05" y="11.53" class="st1" width="153.33" height="133.13"/>
	<path class="st2" d="M154.34,144.61H1.05L77.87,11.53L154.34,144.61L154.34,144.61z M135.28,133.61L77.87,33.89l-57.52,99.72
		H135.28L135.28,133.61z M63.99,124.74l-0.83-0.59l-0.83-0.47l-0.83-0.47l-0.71-0.59l-0.71-0.59l-0.83-0.59l-0.59-0.59l-0.71-0.59
		l-0.59-0.59l-0.71-0.59l-0.47-0.71l-0.59-0.71l-0.59-0.71l-0.47-0.71l-0.47-0.71l-0.47-0.71l-0.35-0.71l-0.47-0.83l-0.36-0.83
		l-0.24-0.71l-0.36-0.83l-0.24-0.83l-0.35-0.95l-0.24-0.83l-0.11-0.83l-0.24-0.95l-0.12-0.95l-0.11-0.95l-0.12-0.95v-0.95
		l-0.11-0.95v-1.06v-0.47v-0.47v-0.36l0.11-0.47v-0.47v-0.36l0.12-0.47v-0.47l0.11-0.47v-0.36l0.12-0.47v-0.47l0.11-0.36l0.12-0.47
		l0.11-0.47l0.12-0.36l0.12-0.47l0.11-0.36l0.12-0.47l0.11-0.36l0.24-0.47l0.12-0.36l0.11-0.47l0.24-0.36l0.12-0.47l0.24-0.36
		l0.24-0.47l0.12-0.36l0.24-0.47l0.24-0.36l0.24-0.36l0.24-0.47l0.47-0.83l0.59-0.83l0.47-0.83l0.59-0.71l0.59-0.7l0.58-0.71
		l0.59-0.71l0.59-0.71l0.71-0.59l0.59-0.59l0.71-0.59l0.59-0.59l0.71-0.47l0.71-0.59l0.71-0.47L64,76.82l0.71-0.47L65.53,76
		l0.71-0.36l0.83-0.36l0.83-0.36l0.83-0.24l0.83-0.24l0.94-0.24l0.83-0.24l0.94-0.24l0.83-0.12l0.94-0.12l0.94-0.12h0.94l0.94-0.12
		h1.06h0.36h0.47l0.47,0.12h0.47h0.47h0.35l0.47,0.12h0.47l0.47,0.12h0.35l0.47,0.12l0.47,0.12h0.35L84.01,74l0.35,0.12l0.47,0.12
		l0.47,0.12l0.35,0.12l0.47,0.12l0.36,0.24l0.47,0.12l0.36,0.12l0.47,0.24l0.36,0.12l0.47,0.24l0.36,0.12l0.47,0.24l0.35,0.24
		l0.36,0.12l0.47,0.24l0.36,0.24l0.47,0.24l0.83,0.47l0.83,0.59l0.83,0.47l0.71,0.59l0.71,0.59l0.71,0.59l0.71,0.59l0.71,0.59
		l0.59,0.71l0.58,0.59l0.59,0.71l0.59,0.59l0.59,0.71l0.47,0.71l0.47,0.71l0.47,0.83l0.36,0.71l0.35,0.83l0.47,0.71l0.24,0.83
		l0.35,0.83l0.24,0.83l0.36,0.83l0.24,0.83l0.12,0.95l0.24,0.95l0.11,0.83l0.12,0.95l0.11,0.95v0.95l0.12,0.95v1.06v0.36v0.47v0.47
		l-0.12,0.47v0.36v0.47l-0.11,0.47v0.47l-0.16,0.31v0.47l-0.11,0.47l-0.12,0.36v0.47l-0.11,0.47l-0.12,0.36l-0.11,0.47l-0.12,0.36
		l-0.11,0.47l-0.12,0.36l-0.12,0.47l-0.24,0.36l-0.11,0.47l-0.24,0.36l-0.12,0.47l-0.11,0.36l-0.24,0.47l-0.24,0.36l-0.11,0.47
		l-0.24,0.36l-0.24,0.36l-0.24,0.47l-0.24,0.36l-0.47,0.83l-0.47,0.83l-0.59,0.83l-0.47,0.83l-0.59,0.71l-0.58,0.71L97.64,120
		l-0.59,0.59l-0.58,0.71l-0.71,0.59l-0.58,0.59l-0.71,0.59l-0.71,0.47l-0.71,0.47l-0.71,0.47l-0.71,0.47l-0.71,0.47l-0.83,0.36
		l-0.71,0.36l-0.83,0.36l-0.83,0.36l-0.83,0.24l-0.83,0.24l-0.83,0.24l-0.94,0.24l-0.83,0.12l-0.94,0.24h-0.94l-0.94,0.12
		l-0.94,0.12h-0.94h-0.94H77.4h-0.47h-0.47h-0.47h-0.47l-0.47-0.12h-0.47l-0.36-0.12h-0.47l-0.47-0.12h-0.47l-0.47-0.12l-0.35-0.12
		l-0.47-0.12l-0.47-0.12l-0.35-0.12l-0.47-0.12l-0.47-0.12l-0.35-0.12l-0.47-0.12l-0.47-0.12l-0.35-0.24l-0.47-0.12l-0.36-0.24
		l-0.47-0.12l-0.36-0.24L66,125.75l-0.36-0.24l-0.35-0.24l-0.47-0.24l-0.35-0.12L63.99,124.74L63.99,124.74z M55.99,101.09h43.65
		v-0.83v-0.83v-0.71l-0.11-0.83l-0.12-0.71l-0.11-0.71l-0.12-0.71l-0.11-0.71l-0.24-0.59l-0.11-0.71l-0.24-0.71l-0.24-0.59
		l-0.36-0.71l-0.24-0.59l-0.36-0.59l-0.24-0.59l-0.35-0.59l-0.47-0.59l-0.35-0.59l-0.36-0.47l-0.47-0.59l-0.47-0.47l-0.47-0.59
		l-0.47-0.47l-0.58-0.47l-0.47-0.47l-0.58-0.47l-0.59-0.47l-0.61-0.46l-0.58-0.36l-0.71-0.47l-0.71-0.36l-21.89,38.09l0.24,0.12
		l0.36,0.24l0.36,0.12l0.24,0.12l0.35,0.24l0.36,0.12l0.24,0.12l0.36,0.12l0.35,0.12l0.36,0.12l0.24,0.24h0.36l0.35,0.12l0.36,0.12
		l0.36,0.12l0.24,0.12l0.35,0.12h0.36l0.36,0.12l0.35,0.12h0.36l0.36,0.12h0.35h0.36l0.36,0.12h0.35h0.36l0.35,0.12h0.36h0.36h0.35
		h0.36h0.36h0.35h0.47h0.35l0.36-0.12h0.35h0.36l0.36-0.12h0.35l0.47-0.12h0.35l0.36-0.12l0.35-0.12h0.36l0.36-0.12l0.35-0.12
		l0.36-0.12l0.36-0.12l0.35-0.12l0.36-0.12l0.36-0.12l0.35-0.12l0.24-0.12l0.36-0.24l0.36-0.12l0.35-0.12l0.36-0.24l0.36-0.12
		l0.24-0.24l0.35-0.12l0.36-0.24l0.36-0.24L66.93,81.92l-0.71,0.47l-0.71,0.36l-0.58,0.48l-0.71,0.47l-0.59,0.47l-0.59,0.36
		l-0.47,0.59l-0.59,0.47l-0.47,0.47l-0.47,0.47l-0.47,0.59l-0.47,0.47l-0.47,0.59l-0.35,0.59l-0.36,0.59l-0.36,0.47l-0.35,0.71
		l-0.36,0.59l-0.24,0.59l-0.24,0.71l-0.24,0.59l-0.24,0.71l-0.24,0.59l-0.12,0.71l-0.11,0.71l-0.24,0.71v0.71l-0.12,0.71l-0.12,0.83
		v0.71v0.83v0.81H55.99z"/>
	<rect x="1.05" y="11.53" class="st1" width="153.33" height="133.13"/>
	<path class="st3" d="M154.44,144.67H0.95L1,144.59L77.87,11.41l0.05,0.09L154.44,144.67z M1.16,144.55h153.08L77.87,11.66
		L1.16,144.55z M135.38,133.67H20.24l0.05-0.09l57.58-99.82l0.05,0.09L135.38,133.67z M20.45,133.55h114.73L77.87,34.01
		L20.45,133.55z M78.81,128.46h-3.29l-0.49-0.12h-0.47h-0.01l-0.35-0.11h-0.46l-0.49-0.12H72.8l-0.49-0.12l-0.36-0.12l-0.92-0.23
		l-0.36-0.11l-0.93-0.24l-0.36-0.12l-0.96-0.24l-0.35-0.23l-0.48-0.12l-0.35-0.24l-0.48-0.12l-0.35-0.24l-0.48-0.12l-0.71-0.47
		l-0.46-0.24l-0.35-0.11l-0.49-0.24l-0.83-0.59l-1.65-0.94l-1.42-1.19l-0.82-0.58l-0.59-0.6l-0.71-0.59l-0.59-0.59l-0.71-0.58
		l-0.48-0.72l-1.18-1.41l-1.42-2.13l-0.36-0.71l-0.47-0.83l-0.36-0.84l-0.24-0.71l-0.35-0.82l-0.24-0.84l-0.35-0.94l-0.24-0.84
		l-0.11-0.84l-0.24-0.94l-0.36-2.85v-0.96l-0.12-0.94v-2.38l0.12-0.49v-0.82l0.12-0.49v-0.46l0.12-0.49v-0.34l0.12-0.49V95.4v-0.01
		l0.11-0.36L51,94.1l0.12-0.36l0.11-0.47l0.12-0.36l0.11-0.47l0.12-0.36l0.24-0.48l0.11-0.34l0.12-0.49l0.24-0.35l0.12-0.48
		l0.24-0.36l0.24-0.47L53,88.78l0.24-0.48l0.47-0.71l0.24-0.47l0.47-0.83l0.59-0.84l0.47-0.82l2.94-3.56l0.71-0.6l0.58-0.59
		l0.71-0.59l0.58-0.58l0.71-0.48l0.7-0.58l0.71-0.48l0.84-0.36l0.7-0.46l0.84-0.37l0.71-0.35l1.65-0.71l1.65-0.48l0.94-0.24
		l0.82-0.24l0.94-0.24l0.83-0.11l1.88-0.24h0.95l0.93-0.11h1.89l0.49,0.12h1.28l0.48,0.12h0.46l0.49,0.12h0.34l0.96,0.24h0.34
		l0.49,0.12l0.36,0.12l0.94,0.24l0.36,0.12l0.48,0.12l0.35,0.24l0.46,0.12l0.36,0.12l0.48,0.24l0.34,0.11l0.48,0.24l0.34,0.11
		l0.48,0.24l0.36,0.24l0.34,0.11l0.48,0.24l0.36,0.24l0.46,0.24l0.83,0.47l0.83,0.59l0.82,0.47l3.54,2.97l0.59,0.71l0.58,0.58
		l0.59,0.71l0.58,0.58l0.59,0.71l0.95,1.43l0.47,0.84l0.36,0.71l0.36,0.83l0.47,0.71l0.24,0.83l0.35,0.82l0.24,0.84l0.36,0.82
		l0.24,0.84l0.12,0.96l0.24,0.94l0.12,0.84l0.24,1.89v0.96l0.12,0.94v2.38l-0.12,0.49v0.82l-0.12,0.49v0.47v0.01l-0.11,0.35v0.46
		l-0.12,0.49l-0.11,0.35v0.46l-0.12,0.49l-0.12,0.36l-0.12,0.47l-0.11,0.36l-0.12,0.47l-0.11,0.36l-0.12,0.49l-0.24,0.35l-0.12,0.48
		l-0.23,0.35l-0.12,0.46l-0.12,0.36l-0.24,0.48l-0.24,0.36l-0.12,0.48l-0.47,0.71l-0.24,0.47l-0.24,0.36l-0.94,1.65l-0.59,0.84
		l-0.47,0.82l-1.77,2.14l-0.59,0.59l-0.58,0.71l-0.71,0.6l-0.58,0.58l-0.71,0.59l-3.53,2.37l-0.84,0.36l-0.71,0.36l-1.65,0.71
		l-2.47,0.71l-0.94,0.24l-0.84,0.12l-0.93,0.24h-0.96l-1.87,0.24h-0.93V128.46z M74.59,128.23h0.46l0.49,0.12h4.22l1.87-0.24h0.95
		l0.92-0.24l0.84-0.12l0.93-0.24l2.46-0.71l1.64-0.71l0.71-0.36l0.83-0.36l3.52-2.36l0.7-0.58l0.58-0.58l0.71-0.59l0.58-0.71
		l0.59-0.59l1.76-2.12l0.46-0.82l0.59-0.84l0.94-1.65l0.24-0.36l0.24-0.47l0.46-0.71l0.12-0.48l0.24-0.36l0.24-0.47l0.11-0.34
		l0.12-0.49l0.23-0.35l0.12-0.48l0.24-0.35l0.12-0.46l0.11-0.36l0.12-0.47l0.11-0.36l0.12-0.47l0.12-0.36l0.11-0.47v-0.47v-0.01
		l0.12-0.36l0.11-0.47V105v-0.01l0.11-0.35v-0.46l0.12-0.49v-0.82l0.12-0.49v-2.35l-0.12-0.94v-0.96l-0.24-1.89l-0.11-0.84
		l-0.24-0.94l-0.12-0.96l-0.24-0.82l-0.36-0.82l-0.24-0.84l-0.35-0.82l-0.24-0.83l-0.46-0.71l-0.36-0.84l-0.35-0.71l-0.47-0.83
		l-0.94-1.42L99.7,84.2l-0.58-0.58l-0.59-0.71l-0.58-0.58l-0.59-0.71l-3.53-2.95l-0.81-0.46l-0.83-0.59l-0.82-0.47l-0.47-0.24
		l-0.36-0.24l-0.46-0.24l-0.34-0.11l-0.37-0.24l-0.46-0.24l-0.34-0.11l-0.48-0.24l-0.34-0.11l-0.48-0.24l-0.34-0.11l-0.49-0.12
		l-0.35-0.24l-0.46-0.11l-0.36-0.12l-0.94-0.24l-0.36-0.12l-0.47-0.11h-0.34l-0.96-0.24h-0.34l-0.49-0.12h-0.46l-0.48-0.12h-1.28
		l-0.49-0.12h-1.87l-0.93,0.11h-0.95l-1.87,0.24l-0.83,0.11l-0.93,0.24l-0.82,0.24l-0.94,0.24l-1.65,0.47l-1.64,0.71l-0.71,0.35
		l-0.83,0.36l-0.7,0.46l-0.84,0.36l-0.7,0.47l-0.7,0.58l-0.71,0.48l-0.58,0.58l-0.71,0.59l-0.58,0.59l-0.72,0.62l-2.93,3.54
		L55.1,85.5l-0.59,0.84l-0.47,0.82l-0.24,0.47l-0.47,0.71l-0.24,0.47l-0.11,0.35l-0.24,0.48l-0.24,0.36l-0.12,0.48l-0.24,0.35
		l-0.11,0.46l-0.12,0.36l-0.24,0.48l-0.11,0.35l-0.11,0.47l-0.12,0.36l-0.11,0.47l-0.12,0.36l-0.24,0.94l-0.1,0.36v0.46l-0.12,0.49
		v0.34l-0.12,0.49v0.46l-0.12,0.49v0.82l-0.12,0.49v2.35l0.12,0.94v0.96l0.36,2.83l0.24,0.94l0.11,0.84l0.24,0.82l0.35,0.94
		l0.24,0.83l0.35,0.82l0.24,0.71l0.35,0.82l0.47,0.83l0.36,0.71l1.41,2.12l1.18,1.41l0.47,0.71l0.7,0.57l0.59,0.59l0.71,0.59
		l0.59,0.59l0.82,0.58l1.41,1.18l1.64,0.94l0.83,0.59l0.46,0.24l0.35,0.11l0.48,0.24l0.71,0.47l0.48,0.12l0.35,0.24l0.48,0.12
		l0.35,0.24l0.48,0.12l0.35,0.23l0.93,0.24l0.36,0.12l0.93,0.24l0.36,0.11l0.93,0.24l0.36,0.12l0.46,0.12h0.45l0.49,0.12h0.47h0.01
		L74.59,128.23z M79.18,123.02h-2.97l-0.35-0.11h-0.71l-0.34-0.11h-0.71l-0.35-0.11h-0.37l-0.7-0.24h-0.37l-0.36-0.12l-0.24-0.12
		l-1.04-0.35H70.3l-0.24-0.24l-1.04-0.35l-0.24-0.12l-0.35-0.11l-0.37-0.24l-0.21-0.13l-0.35-0.11l-0.37-0.24l-0.29-0.14l0.03-0.05
		l10.89-18.95H55.93v-2.43l0.12-0.84l0.12-0.71v-0.71v-0.01l0.24-0.71l0.24-1.41l0.24-0.6l0.22-0.71l0.24-0.59l0.24-0.71l0.24-0.59
		l0.36-0.6l0.35-0.71l0.36-0.48l0.71-1.18l0.48-0.6l0.47-0.48L61,86.51l0.94-0.95l0.59-0.48l0.48-0.59l0.59-0.36l0.58-0.47
		l0.71-0.48l0.58-0.47l0.71-0.36l0.75-0.5l0.03,0.05l11,18.87l10.8-18.8L88.84,82l0.71,0.36l0.71,0.48l0.58,0.36l1.77,1.42
		l0.48,0.48l0.58,0.44l0.48,0.48l0.47,0.59l0.47,0.47l0.47,0.59l0.36,0.48l0.36,0.59l0.46,0.58l0.36,0.6l0.24,0.6l0.35,0.58
		l0.24,0.6l0.35,0.71l0.24,0.6l0.24,0.71l0.12,0.71l0.24,0.58l0.48,2.85l0.11,0.83v2.44H78.21l10.8,18.52l-0.05,0.03l-0.71,0.47
		l-0.36,0.12l-0.25,0.24l-0.35,0.12l-0.34,0.24l-0.72,0.24l-0.34,0.24l-0.24,0.12l-2.86,0.95h-0.34l-0.71,0.24H81.4l-0.46,0.11
		h-0.36l-0.37,0.11h-0.7L79.18,123.02z M76.23,122.9h2.92l0.37-0.12h0.7l0.37-0.11h0.35l0.46-0.11h0.36l0.71-0.24h0.34l2.82-0.94
		l0.23-0.11l0.35-0.24l0.72-0.24l0.34-0.24l0.36-0.12l0.25-0.24l0.36-0.12l0.64-0.44l-10.78-18.49h-0.17L67.03,120.1l0.18,0.09
		l0.36,0.24l0.34,0.11l0.24,0.12l0.36,0.24l0.34,0.11l0.24,0.12l1.08,0.37l0.22,0.22h0.35l1.06,0.36l0.24,0.12l0.34,0.11h0.37
		l0.7,0.24h0.37l0.35,0.11h0.71l0.35,0.11h0.71L76.23,122.9z M78.14,101.03h21.44v-2.31l-0.11-0.82L99,95.06l-0.24-0.58l-0.12-0.72
		l-0.24-0.71l-0.24-0.58l-0.35-0.71l-0.24-0.6l-0.35-0.58L97,89.98l-0.35-0.58l-0.46-0.58l-0.36-0.6l-0.35-0.47l-0.46-0.58
		l-0.47-0.47l-0.47-0.59l-0.47-0.47l-0.58-0.47l-0.48-0.48l-1.76-1.41l-0.58-0.36l-0.71-0.47l-0.65-0.33l-10.79,18.77L78.14,101.03z
		 M77.97,101.03H78L77.98,101L77.97,101.03z M56.05,101.03h21.79l0.08-0.14L66.91,82l-0.65,0.44l-0.71,0.36l-0.57,0.47l-0.71,0.48
		l-0.58,0.47l-0.58,0.36l-0.46,0.58l-0.59,0.48l-0.93,0.94l-0.47,0.58l-0.47,0.48l-0.47,0.58l-0.71,1.18l-0.36,0.48l-0.35,0.71
		l-0.36,0.59l-0.24,0.58l-0.24,0.71l-0.24,0.59l-0.24,0.71l-0.24,0.59l-0.24,1.41l-0.24,0.71v0.7l-0.12,0.72l-0.12,0.82
		L56.05,101.03z"/>
	<polygon class="st1" points="0.43,145.48 155.57,145.48 155.57,10.52 0.43,10.52 	"/>
</g>
</svg>
