<?xml version="1.0" encoding="utf-8"?>
<!-- Generator: Adobe Illustrator 28.0.0, SVG Export Plug-In . SVG Version: 6.00 Build 0)  -->
<svg version="1.1" id="Layer_1" xmlns="http://www.w3.org/2000/svg" xmlns:xlink="http://www.w3.org/1999/xlink" x="0px" y="0px"
	 viewBox="0 0 156 156" width="156px" height="156px"  style="enable-background:new 0 0 156 156;" xml:space="preserve">
<style type="text/css">
	.st0{fill:#0000FF;}
	.st1{fill-rule:evenodd;clip-rule:evenodd;fill:#0000FF;}
	.st2{font-family:'Arial'; font-weight: 600;}
	.st3{font-size:27.7084px;}
	.st4{letter-spacing:4;}
	.st5{letter-spacing:2;}
</style>
<g>
	<rect x="39.9" y="41.2" class="st0" width="7.9" height="91.5"/>
	<path class="st1" d="M29.2,137.9c0-8,6.7-14.4,14.9-14.4l0,0l0,0c8.2,0,14.9,6.4,14.9,14.4l0,0l0,0c0,8-6.7,14.4-14.9,14.4l0,0l0,0
		C35.8,152.4,29.2,145.9,29.2,137.9L29.2,137.9L29.2,137.9z"/>
	<path class="st0" d="M44.1,152.8c-8.5,0-15.4-6.7-15.4-14.9s6.9-14.9,15.4-14.9s15.4,6.7,15.4,14.9S52.5,152.8,44.1,152.8z
		 M44.1,124c-8,0-14.4,6.2-14.4,13.9c0,7.7,6.5,13.9,14.4,13.9s14.4-6.2,14.4-13.9C58.5,130.3,52,124,44.1,124z"/>
	<path class="st0" d="M81.2,81.1c-22.7,0-41.2-17.9-41.2-40s18.5-40,41.2-40s41.2,17.9,41.2,40S103.9,81.1,81.2,81.1z M81.2,9.1
		C62.9,9.1,48,23.4,48,41.1s14.9,32.1,33.3,32.1c18.3,0,33.3-14.4,33.3-32.1S99.6,9.1,81.2,9.1z"/>
	<text transform="matrix(0.9964 0 0 1 52.0508 51.4053)" class="st0 st2 st3 st4">R</text>
	<text transform="matrix(0.9964 0 0 1 71.9287 51.4053)" class="st0 st2 st3 st5">F</text>
	<text transform="matrix(0.9964 0 0 1 88.7979 51.4053)" class="st0 st2 st3">O</text>
</g>
</svg>
