<?xml version="1.0" encoding="utf-8"?>
<!-- Generator: Adobe Illustrator 28.0.0, SVG Export Plug-In . SVG Version: 6.00 Build 0)  -->
<svg version="1.1" id="Layer_1" xmlns="http://www.w3.org/2000/svg" xmlns:xlink="http://www.w3.org/1999/xlink" x="0px" y="0px"
	 viewBox="0 0 156 156" style="enable-background:new 0 0 156 156;" xml:space="preserve">
<style type="text/css">
	.st0{fill-rule:evenodd;clip-rule:evenodd;fill:#FF1415;}
</style>
<path class="st0" d="M132.7,76.1l3.3,9.3h0.3l0.2-0.1h0.2h0.2h0.2h0.2l0.2,0.1h0.2h1.5v-10h3.9v10h3.9v-10h3.9v10h3.7v3.8h-16.8
	h-0.4h-0.4l-0.4,0.1l-0.3,0.1h-0.3l-0.4,0.1l-0.3,0.2l-0.3,0.1l-0.3,0.1l-0.2,0.2l-0.3,0.2l-0.2,0.2l-0.2,0.2l-0.2,0.2l-0.2,0.3
	l-0.2,0.3l-0.2,0.3l-0.2,0.2l-0.2,0.3l-0.2,0.3l-0.2,0.3l-0.2,0.3l-0.2,0.3l-0.2,0.3l-0.1,0.3l-0.1,0.4l-0.2,0.3l-0.1,0.4l-0.1,0.4
	l-0.1,0.4v0.5l-0.1,0.4l-0.1,0.9l-0.1,0.9l-0.2,0.8l-0.2,0.9l-0.2,0.8l-0.2,0.8l-0.2,0.8l-0.3,0.8l-0.2,0.8l-0.3,0.8l-0.3,0.8
	l-0.3,0.8l-0.4,0.8l-0.4,0.8l-0.4,0.8l-0.5,0.8l-0.5,0.7l-0.5,0.8l-0.5,0.8l-0.6,0.7l-0.6,0.7l-0.6,0.7l-0.7,0.7l-0.7,0.7l-0.7,0.7
	l-0.7,0.7l-0.8,0.6l-0.8,0.7l-0.8,0.6l-0.8,0.6l-0.8,0.6l-0.8,0.6l-0.9,0.6l-0.8,0.6l-0.9,0.5l-0.9,0.5l-0.9,0.5l-0.9,0.5l-0.9,0.4
	l-1,0.4l-0.9,0.4l-1,0.4l-1,0.4l-1,0.3l-1,0.3l-1,0.3l-1,0.3l-1.1,0.3l-1.1,0.3l-1,0.3l-1.2,0.3l-1.1,0.3l-1.1,0.2l-1.1,0.2
	l-1.2,0.2l-1.2,0.2l-1.1,0.2l-1.2,0.1l-1.2,0.1l-1.3,0.1l-1.2,0.1l-1.3,0.1h-1.4H81h-0.7h-0.7h-0.6l-0.7-0.1h-0.7h-0.6h-0.7
	l-0.6-0.1h-0.7l-0.6-0.1l-0.7-0.1l-0.6-0.1h-0.7l-0.6-0.1l-0.6-0.1l-0.7-0.1l-0.6-0.1l-0.6-0.1l-0.6-0.1l-0.7-0.1l-0.6-0.2l-0.6-0.1
	l-0.6-0.1l-0.6-0.2l-0.6-0.1l-0.6-0.2l-0.6-0.2l-0.6-0.1l-0.6-0.2l-0.6-0.2l-0.7-0.2l-0.6-0.2l-0.8-0.2l-0.7-0.3l-0.8-0.3l-0.7-0.3
	l-0.8-0.3l-0.7-0.3l-0.7-0.3l-0.7-0.3l-0.8-0.3l-0.6-0.3l-0.7-0.3l-0.7-0.3l-0.7-0.3l-0.6-0.3l-0.7-0.3l-0.6-0.3l-0.7-0.3l-0.6-0.3
	l-0.6-0.3l-0.6-0.4l-0.6-0.3l-0.6-0.3l-0.6-0.4l-0.5-0.4l-0.6-0.3l-0.6-0.4l-0.5-0.4l-0.5-0.4l-0.6-0.4l-0.6-0.4l-0.5-0.4l-0.5-0.5
	l-0.6-0.5l-0.5-0.5l-0.6-0.6l-0.5-0.6l-0.5-0.5l-0.5-0.6l-0.4-0.6l-0.5-0.6l-0.4-0.5l-0.4-0.6l-0.4-0.6l-0.3-0.6l-0.4-0.6l-0.3-0.7
	l-0.3-0.6l-0.2-0.6l-0.3-0.7l-0.2-0.6l-0.2-0.6l-0.2-0.7l-0.2-0.6l-0.2-0.7l-0.2-0.7l-0.2-0.7l-0.2-0.6l-0.1-0.7l-0.2-0.7l-0.1-0.7
	l-0.1-0.7v-0.7l-0.1-0.7v-0.8V69.6v-0.8L31.2,68v-0.8l-0.1-0.8L31,65.7l-0.1-0.8l-0.1-0.8l-0.2-0.7l-0.1-0.8L30.4,62l-0.3-0.8
	L30,60.6l-0.2-0.8l-0.2-0.7l-0.2-0.7L29,57.8l-0.3-0.6l-0.2-0.7l-0.3-0.7l-0.3-0.6l-0.3-0.7l-0.3-0.6l-0.4-0.6l-0.4-0.7L25.8,52
	l-0.4-0.6L25,50.9l-0.5-0.6L24,49.7l-0.5-0.5L23,48.6l-0.5-0.5l-0.6-0.6L21.3,47l-0.5-0.4l-0.6-0.5l-0.6-0.4L19,45.1l-0.6-0.4
	l-0.6-0.4l-0.6-0.3l-0.6-0.4l-0.7-0.3l-0.6-0.3l-0.7-0.3l-0.6-0.3l-0.7-0.3l-0.7-0.3l-0.6-0.3l-0.7-0.3l-0.7-0.3l-0.7-0.2l-0.8-0.2
	l-0.8-0.3l-0.7-0.1L7.2,40l-0.8-0.2l-0.7-0.1L5,39.6l-0.7-0.1l-0.8-0.1H2.8H2H1.2v-4.2h3.2L6,25.8l3.9,0.6l-2.3,9.2h0.2l0.2,0.1
	l0.3,0.1l0.4,0.1l0.6,0.2l0.6,0.3l0.8,0.3l0.9,0.3l3.3-9l3.7,1.3l-3.7,8.5l0.2,0.1l0.4,0.2l0.3,0.2l0.4,0.2l0.4,0.3l0.4,0.3l0.5,0.3
	l0.6,0.3l5.4-7.8l3.5,2.1l-6,7.7l0.3,0.3l0.3,0.3l0.3,0.3l0.4,0.3l0.3,0.3l0.3,0.3l0.3,0.3l0.4,0.3l7.8-6.2l2.7,3.1l-8.1,5.2
	l0.2,0.3l0.2,0.3l0.2,0.3l0.2,0.4l0.4,0.5l0.3,0.5l0.5,0.6l0.5,0.7L38,45l2,3.3l-9.1,4l0.2,0.4l0.2,0.4l0.2,0.4l0.3,0.4l0.2,0.5
	l0.2,0.5l0.2,0.5l0.2,0.5L43,53.6l0.8,4l-9.7,1.9l0.1,0.3l0.1,0.4l0.2,0.4l0.1,0.4l0.1,0.6l0.1,0.5l0.2,0.6l0.1,0.7l10.3-0.6
	l0.4,4.1h-9.9v0.3v0.3v0.3v0.3v0.4v0.4v0.4v0.5v1.8h10v3.8h-1.2h-1.3H42h-1.2h-1.3h-1.2H37h-1.3v4.2h10v3.9h-10v4h10v3.9h-10v4.6
	l9.4-0.7l0.6,4l-10,0.6v0.3v0.3l-0.1,0.3v0.3v0.3l0.1,0.3v0.3v0.3v0.3l0.1,0.3l0.1,0.3v0.3l0.1,0.3l0.1,0.3l0.1,0.3l0.1,0.3l0.1,0.3
	l0.2,0.3l0.1,0.3l0.2,0.3l0.1,0.3l0.2,0.3l0.2,0.3l0.2,0.3l0.2,0.3l0.2,0.3l0.2,0.3l0.2,0.2l0.2,0.3l0.2,0.3l0.2,0.3l0.2,0.3
	l8.8-5.4l2.3,3.6l-8.3,5.3l0.3,0.4l0.3,0.4l0.4,0.4l0.3,0.3l0.3,0.4l0.3,0.3l0.3,0.3l0.3,0.3l0.3,0.3l0.4,0.3l0.3,0.3l0.3,0.3
	l0.3,0.3l0.3,0.3l0.3,0.3l0.3,0.2l5.8-7.7l3.3,2.5l-5.5,7.5l0.3,0.3l0.3,0.3l0.3,0.3l0.3,0.2l0.3,0.3l0.3,0.3l0.5,0.1l0.3,0.2
	l0.4,0.2l0.4,0.2l0.3,0.2l0.4,0.2l0.4,0.1l0.4,0.1l0.5,0.2l0.4,0.1l3.7-8.6l3.7,1.5l-3.5,8.5l0.6,0.1l0.6,0.2l0.8,0.3l0.8,0.2
	l0.9,0.3l0.8,0.2l0.9,0.3l1,0.3l1.7-9.1l4.1,0.6l-1.6,9.1l0.4,0.2l0.5,0.1l0.4,0.1l0.4,0.1l0.5,0.1l0.4,0.1l0.4,0.1h0.4l0.4,0.1h0.5
	h0.4H77h0.4h0.4l0.4-0.1h0.4V117H83v9.7h0.4l0.4,0.1h0.4h0.4h0.5h0.4h0.4l0.4-0.1h0.4l0.4-0.1l0.5-0.1l0.4-0.1l0.4-0.1l0.4-0.1
	l0.4-0.1l0.4-0.2l-1.6-9.1l4.3-0.6l1.6,9.1l0.6-0.1l0.6-0.2l0.8-0.2l0.8-0.2l0.8-0.3l0.9-0.3l1-0.3l1.1-0.3l-3.7-8.5l3.9-1.5
	l3.7,8.6l0.3-0.1l0.3-0.2l0.3-0.1l0.4-0.2l0.3-0.1l0.4-0.2l0.3-0.2l0.4-0.2l0.3-0.3l0.4-0.2l0.4-0.3l0.3-0.3l0.4-0.3l0.4-0.3
	l0.4-0.3l0.4-0.3l-5.6-7.3l3.3-2.5l6,7.7l0.3-0.2l0.3-0.3l0.3-0.3l0.3-0.3l0.3-0.3l0.3-0.3l0.3-0.3l0.3-0.3l0.3-0.3l0.3-0.3l0.3-0.4
	l0.3-0.3l0.3-0.3l0.3-0.4l0.3-0.4l0.3-0.4l-8.1-5.3l2.1-3.6l8.5,5.5l0.2-0.2l0.2-0.3l0.2-0.2l0.2-0.3l0.2-0.3l0.2-0.2l0.2-0.3
	l0.2-0.3l0.1-0.2l0.2-0.3l0.2-0.3l0.1-0.3l0.1-0.3l0.2-0.3l0.1-0.3l0.1-0.3l0.1-0.3l0.1-0.3l0.1-0.3l0.1-0.3l0.1-0.3l0.1-0.3v-0.3
	l0.1-0.3v-0.3l0.1-0.3v-0.3l0.1-0.3v-0.3v-0.3v-0.3v-0.3L115,99l0.4-4.2h0.6h0.6l0.7,0.1h0.7h0.8l0.8,0.1l0.9,0.1l1,0.1l0.8,0.1h0.8
	l0.8,0.1h0.6l0.6,0.1h0.5h0.5h0.3l0.1-0.3v-0.4v-0.3l0.1-0.4l0.1-0.4l0.2-0.5l0.1-0.5l0.2-0.5l-9.2-5.1l2.1-3.5l8.9,5.4l0.4-0.3
	l0.4-0.4l0.4-0.3l0.4-0.3l0.3-0.3l0.4-0.3l0.2-0.2l0.3-0.2l-3.9-9L132.7,76.1L132.7,76.1z M66.8,99.4l3.3-15.5l4.4,4.4l61.9-62.5
	l3.1,3.5l-62,62.3l4.5,4.4L66.8,99.4L66.8,99.4z"/>
</svg>
