<?xml version="1.0" encoding="utf-8"?>
<!-- Generator: Adobe Illustrator 28.0.0, SVG Export Plug-In . SVG Version: 6.00 Build 0)  -->
<svg version="1.1" id="Layer_1" xmlns="http://www.w3.org/2000/svg" xmlns:xlink="http://www.w3.org/1999/xlink" x="0px" y="0px"
	 viewBox="0 0 156 156" style="enable-background:new 0 0 156 156;" xml:space="preserve">
<style type="text/css">
	.st0{fill-rule:evenodd;clip-rule:evenodd;fill:#FFFFFF;}
	.st1{fill:none;}
	.st2{fill-rule:evenodd;clip-rule:evenodd;fill:#FF1415;}
	.st3{fill:#FFFFFF;}
</style>
<g>
	<polygon class="st0" points="0,24.82 156,24.82 156,131.18 0,131.18 	"/>
	<polygon class="st0" points="1.07,25.77 155.18,25.77 155.18,130.48 1.07,130.48 	"/>
	<rect x="1.19" y="25.89" class="st1" width="153.87" height="104.47"/>
	<path class="st2" d="M132.72,76.1l3.32,9.31h0.34l0.25-0.09h0.25h0.25h0.25h0.25l0.25,0.09h0.17h1.53v-10h3.91v9.99h3.91v-9.99
		h3.91v9.99h3.74v3.76h-16.77h-0.42h-0.42l-0.42,0.09l-0.34,0.09h-0.34l-0.42,0.09l-0.34,0.17l-0.34,0.09l-0.34,0.09l-0.25,0.17
		l-0.34,0.17l-0.25,0.17l-0.25,0.17l-0.25,0.17l-0.25,0.26l-0.25,0.26l-0.25,0.26l-0.18,0.24l-0.25,0.26l-0.17,0.26l-0.17,0.34
		l-0.17,0.34l-0.17,0.34l-0.17,0.34l-0.08,0.34l-0.08,0.43l-0.17,0.34l-0.08,0.43l-0.08,0.43l-0.08,0.43v0.51l-0.08,0.43l-0.08,0.94
		l-0.08,0.94l-0.17,0.85l-0.17,0.94l-0.25,0.85l-0.17,0.85l-0.25,0.85l-0.34,0.85l-0.25,0.85l-0.34,0.77l-0.34,0.85l-0.34,0.77
		l-0.42,0.85l-0.42,0.77l-0.42,0.77l-0.51,0.77l-0.51,0.68l-0.51,0.77l-0.51,0.77l-0.59,0.68l-0.59,0.68l-0.59,0.68l-0.68,0.68
		l-0.68,0.68l-0.68,0.68l-0.68,0.68l-0.76,0.6l-0.76,0.68l-0.85,0.6l-0.76,0.6l-0.85,0.6l-0.85,0.6l-0.93,0.6l-0.85,0.6l-0.93,0.51
		l-0.93,0.51l-0.93,0.51l-0.93,0.51l-0.93,0.43l-1.02,0.43l-0.93,0.43l-1.02,0.43l-1.02,0.43l-1.02,0.34l-1.02,0.34l-1.02,0.34
		l-1.02,0.34l-1.1,0.34l-1.1,0.26l-1.02,0.26l-1.19,0.26l-1.1,0.26l-1.1,0.17l-1.1,0.17l-1.19,0.17l-1.19,0.17l-1.1,0.17l-1.19,0.09
		l-1.19,0.09l-1.28,0.09l-1.19,0.09l-1.28,0.09H82.3h-1.28h-0.68h-0.68h-0.59l-0.68-0.09H77.7h-0.59h-0.68l-0.59-0.09h-0.68
		l-0.59-0.09l-0.68-0.09l-0.59-0.09H72.6l-0.59-0.09l-0.59-0.09l-0.68-0.09l-0.59-0.09l-0.59-0.09l-0.59-0.09l-0.68-0.09l-0.59-0.17
		l-0.59-0.09l-0.59-0.09l-0.59-0.17l-0.59-0.09l-0.59-0.17l-0.59-0.17l-0.59-0.09l-0.59-0.17l-0.59-0.17l-0.7-0.18l-0.59-0.17
		l-0.77-0.17l-0.68-0.26l-0.76-0.26l-0.68-0.26l-0.76-0.26l-0.68-0.26l-0.68-0.26l-0.68-0.26l-0.76-0.34l-0.59-0.26l-0.68-0.26
		l-0.68-0.34l-0.68-0.34l-0.59-0.26l-0.68-0.34l-0.59-0.34l-0.68-0.34l-0.59-0.34l-0.59-0.34l-0.59-0.43l-0.59-0.34l-0.59-0.34
		l-0.59-0.43l-0.51-0.43l-0.59-0.34l-0.59-0.43l-0.51-0.43l-0.51-0.43l-0.59-0.43L42,117.72l-0.51-0.43l-0.51-0.51l-0.59-0.51
		l-0.51-0.51l-0.59-0.6l-0.51-0.6l-0.51-0.51l-0.51-0.6l-0.42-0.6l-0.51-0.6l-0.42-0.51l-0.42-0.6l-0.42-0.6l-0.34-0.6l-0.42-0.6
		l-0.34-0.68l-0.34-0.6l-0.25-0.6l-0.34-0.68l-0.25-0.6l-0.25-0.6l-0.25-0.68l-0.25-0.6l-0.17-0.68l-0.17-0.68l-0.17-0.68l-0.17-0.6
		l-0.08-0.68l-0.17-0.68l-0.08-0.68l-0.08-0.68v-0.68l-0.08-0.68v-0.77V69.61v-0.77l-0.16-0.85v-0.77l-0.08-0.77L31,65.67
		l-0.09-0.76l-0.09-0.77l-0.17-0.68l-0.08-0.77L30.4,62l-0.26-0.76l-0.17-0.68l-0.17-0.77l-0.25-0.68l-0.25-0.68l-0.25-0.68
		l-0.34-0.6l-0.25-0.68l-0.34-0.68l-0.34-0.6l-0.34-0.68l-0.34-0.6l-0.42-0.6l-0.42-0.68l-0.42-0.6l-0.42-0.6l-0.42-0.51l-0.51-0.6
		l-0.51-0.6l-0.51-0.51l-0.51-0.6l-0.51-0.51l-0.59-0.6l-0.59-0.51l-0.51-0.43l-0.59-0.51l-0.62-0.42l-0.59-0.51l-0.59-0.43
		l-0.59-0.43l-0.59-0.34l-0.59-0.43l-0.68-0.34l-0.59-0.34l-0.68-0.34l-0.59-0.26l-0.68-0.34l-0.68-0.26l-0.59-0.26l-0.68-0.26
		l-0.68-0.26l-0.68-0.17L9.3,40.47l-0.76-0.26l-0.68-0.09l-0.68-0.17l-0.76-0.17L5.73,39.7l-0.76-0.09l-0.68-0.09l-0.76-0.09H2.75
		H1.99H1.23v-4.19h3.15l1.62-9.4l3.91,0.6l-2.3,9.22h0.17l0.17,0.09l0.34,0.09l0.42,0.09l0.59,0.17l0.59,0.26l0.76,0.26l0.93,0.26
		l3.32-8.97l3.66,1.28l-3.66,8.54l0.25,0.09L15.51,38l0.34,0.17l0.42,0.17l0.42,0.26l0.42,0.26l0.51,0.26l0.59,0.34l5.37-7.77
		l3.49,2.13l-5.96,7.68l0.34,0.26l0.34,0.26l0.34,0.26l0.42,0.34l0.34,0.26l0.34,0.34l0.34,0.26l0.42,0.34l7.83-6.23l2.73,3.08
		l-8.1,5.2l0.17,0.26l0.25,0.26l0.25,0.34l0.25,0.43l0.42,0.51l0.34,0.51l0.51,0.6l0.51,0.68l8.85-4.44l2.05,3.33l-9.1,4.01
		l0.25,0.43l0.25,0.43l0.25,0.43L32,54.08l0.25,0.51l0.17,0.51l0.25,0.51l0.17,0.51l10.21-2.56l0.76,4.02l-9.7,1.88l0.08,0.26
		l0.08,0.43l0.17,0.43L34.53,61l0.08,0.6l0.08,0.51l0.17,0.6l0.08,0.68l10.3-0.6l0.42,4.1h-9.92v0.26v0.34v0.26v0.34v0.43v0.43v0.43
		v0.51v1.79h9.96v3.76h-1.19h-1.28h-1.27h-1.19H39.5h-1.19h-1.28h-1.27v4.19h9.96v3.93h-9.97v4.02h9.96v3.93h-9.96v4.61l9.36-0.68
		l0.59,4.02l-9.96,0.6v0.26v0.26l-0.08,0.26v0.26v0.26l0.08,0.26v0.26v0.26v0.26l0.08,0.26l0.08,0.26v0.26l0.08,0.26l0.08,0.26
		l0.08,0.26l0.08,0.26l0.08,0.26l0.17,0.26l0.08,0.26l0.17,0.26l0.08,0.26l0.17,0.26l0.17,0.26l0.17,0.26l0.17,0.26l0.17,0.26
		l0.17,0.26l0.25,0.17l0.17,0.26l0.25,0.26l0.17,0.26l0.25,0.26l8.77-5.38l2.3,3.59l-8.26,5.29l0.34,0.43l0.34,0.43l0.42,0.43
		l0.34,0.34l0.34,0.43l0.34,0.34l0.34,0.34l0.34,0.34l0.34,0.34l0.42,0.34l0.34,0.26l0.34,0.26l0.34,0.26l0.34,0.26l0.34,0.26
		l0.34,0.17l5.79-7.68l3.32,2.47l-5.45,7.51l0.34,0.34l0.34,0.26l0.34,0.26l0.34,0.17l0.34,0.26l0.34,0.26L53.5,121l0.34,0.17
		l0.42,0.17l0.42,0.17l0.34,0.17l0.42,0.17l0.42,0.09l0.42,0.09l0.51,0.17l0.42,0.09l3.74-8.62l3.74,1.53l-3.49,8.54l0.59,0.09
		l0.59,0.17l0.76,0.26l0.76,0.17l0.85,0.26l0.85,0.17l0.93,0.26l1.02,0.26l1.7-9.14l4.08,0.6l-1.62,9.14l0.42,0.17l0.51,0.09
		l0.42,0.09l0.42,0.09l0.51,0.09l0.42,0.09l0.42,0.09h0.42l0.42,0.09h0.51h0.42h0.42h0.42h0.42l0.42-0.09h0.42v-9.65h4.34v9.65h0.42
		l0.42,0.09h0.42h0.42h0.51h0.42h0.42l0.42-0.09h0.42l0.42-0.09l0.51-0.09l0.42-0.09l0.42-0.09l0.42-0.09l0.42-0.09l0.42-0.17
		l-1.62-9.14l4.34-0.6l1.62,9.14l0.59-0.09l0.59-0.17l0.76-0.17l0.76-0.17l0.85-0.26l0.93-0.26l1.02-0.26l1.1-0.26l-3.66-8.54
		l3.91-1.53l3.74,8.62l0.34-0.09l0.34-0.17l0.34-0.09l0.42-0.17l0.34-0.09l0.42-0.17l0.34-0.17l0.42-0.17l0.34-0.26l0.42-0.17
		l0.42-0.26l0.34-0.26l0.42-0.26l0.42-0.26l0.42-0.34l0.42-0.26l-5.62-7.34l3.32-2.47l5.96,7.68l0.34-0.17l0.34-0.26l0.34-0.34
		l0.34-0.26l0.34-0.26l0.34-0.34l0.34-0.26l0.34-0.34l0.34-0.34l0.34-0.34l0.34-0.43l0.34-0.34l0.34-0.34l0.34-0.43l0.34-0.43
		l0.34-0.43l-8.09-5.29l2.05-3.59l8.52,5.46l0.17-0.17l0.17-0.26l0.17-0.17l0.17-0.26l0.17-0.26l0.17-0.17l0.17-0.26l0.17-0.26
		l0.08-0.17l0.17-0.26l0.17-0.26l0.08-0.26l0.08-0.26l0.17-0.26l0.08-0.26l0.08-0.26l0.08-0.26l0.08-0.26l0.08-0.26l0.08-0.26
		l0.08-0.26l0.08-0.34v-0.26l0.08-0.26v-0.34l0.08-0.26v-0.34l0.08-0.26v-0.34v-0.26v-0.34v-0.26l-10.55-0.85l0.42-4.19h0.59h0.59
		l0.68,0.09h0.68h0.85l0.85,0.09l0.93,0.09l1.02,0.09l0.85,0.09h0.76l0.76,0.09h0.59l0.59,0.09h0.51h0.51h0.34l0.08-0.26v-0.43
		v-0.34l0.08-0.43l0.08-0.43l0.17-0.51l0.08-0.51l0.17-0.51L118,86.93l2.05-3.5l8.94,5.38l0.42-0.34l0.42-0.43l0.42-0.34l0.42-0.26
		l0.34-0.26l0.42-0.26l0.25-0.17l0.34-0.17l-3.91-8.97L132.72,76.1L132.72,76.1z M66.83,99.4l3.32-15.46l4.42,4.44l61.89-62.5
		l3.15,3.5L77.64,91.64l4.51,4.44L66.83,99.4L66.83,99.4z"/>
	<rect x="1.19" y="25.89" class="st1" width="153.87" height="104.47"/>
	<path class="st3" d="M82.23,130.45H79l-0.69-0.09h-1.95l-0.6-0.09h-0.68l-0.6-0.09l-0.68-0.08l-0.59-0.08h-0.67l-1.2-0.17
		l-0.68-0.08l-1.79-0.25l-0.68-0.08l-0.6-0.17l-1.19-0.17l-0.6-0.17l-0.59-0.08l-1.2-0.34l-0.59-0.08l-2.39-0.68l-0.76-0.17
		l-0.69-0.25l-0.76-0.25l-0.68-0.26l-0.76-0.25l-2.05-0.76l-0.77-0.35l-0.59-0.25l-0.68-0.25l-1.36-0.69l-0.59-0.25l-0.68-0.34
		l-0.59-0.34l-0.68-0.34l-1.19-0.68l-0.6-0.43l-1.19-0.68l-0.6-0.43l-0.53-0.47l-0.59-0.34l-0.6-0.43l-1.02-0.85l-0.59-0.42
		l-1.02-0.86l-0.51-0.51l-0.59-0.51l-1.11-1.11l-0.51-0.6l-0.5-0.51l-0.51-0.6l-0.43-0.6l-0.51-0.59l-0.42-0.51l-0.85-1.2l-0.34-0.6
		l-0.42-0.59l-0.34-0.69l-0.34-0.59l-0.26-0.61l-0.34-0.68l-0.51-1.2l-0.25-0.69l-0.25-0.59l-0.51-2.05l-0.17-0.6l-0.09-0.69
		l-0.17-0.68l-0.17-1.37v-0.69l-0.08-0.68V68.84l-0.08-0.85v-0.77l-0.34-3.07l-0.17-0.68l-0.09-0.77l-0.17-0.68l-0.25-0.76
		l-0.17-0.69l-0.19-0.78l-0.76-2.05l-0.33-0.59l-0.26-0.69l-0.34-0.68l-0.34-0.59l-0.34-0.68l-0.34-0.59l-0.42-0.59l-0.42-0.69
		l-0.85-1.19l-0.42-0.51l-1.02-1.19l-0.51-0.51l-0.51-0.6l-1.1-1.1l-0.59-0.51l-0.51-0.43l-0.59-0.51l-0.59-0.42l-0.6-0.51
		l-1.19-0.85l-0.59-0.34l-0.6-0.43l-0.67-0.33l-0.6-0.34l-0.68-0.34l-0.59-0.25l-0.68-0.34l-0.68-0.25l-0.6-0.25l-1.36-0.51
		l-1.36-0.34L8.5,40.29l-0.67-0.08l-0.69-0.17l-0.76-0.17L5.7,39.78L4.94,39.7l-0.68-0.08l-0.76-0.09H1.15v-4.27h3.16l1.62-9.4
		l0.04,0.01l3.96,0.61l-0.01,0.05L7.63,35.7l0.14,0.01l0.17,0.08l0.33,0.08l0.42,0.08l0.6,0.17l0.6,0.26l0.76,0.26l0.89,0.25
		l3.32-8.97l0.04,0.01l3.7,1.3l-0.02,0.04l-3.64,8.5l0.21,0.07l0.69,0.34l0.42,0.17l0.86,0.52l0.5,0.25l0.57,0.32l5.37-7.8
		l0.03,0.02l3.53,2.16l-0.03,0.03l-5.93,7.65l0.99,0.74l0.42,0.34l0.34,0.25l0.35,0.35l0.33,0.25l0.4,0.32l7.83-6.24l0.03,0.03
		l2.75,3.11l-0.04,0.03l-8.05,5.2l0.15,0.22l0.25,0.25l0.26,0.35l0.26,0.43l0.42,0.5l0.34,0.52l0.51,0.59l0.49,0.66l8.86-4.45
		l0.02,0.03l2.07,3.38l-0.04,0.02l-9.07,4l1,1.66l0.26,0.52l0.17,0.52l0.25,0.5l0.16,0.48L43.1,53.5l0.01,0.04l0.77,4.06l-0.04,0.01
		l-9.65,1.87l0.07,0.21l0.09,0.43l0.17,0.42l0.09,0.44l0.09,0.6l0.08,0.51l0.17,0.59l0.08,0.65l10.3-0.6l0.01,0.04l0.43,4.15H35.8
		v4.7h9.96v3.85H35.8v4.1h9.96v4.02H35.8v3.93h9.96v4.02H35.8v4.52l9.36-0.68l0.01,0.04l0.6,4.06l-0.05,0.01l-9.92,0.59v0.47
		l-0.09,0.27v0.5l0.08,0.24v0.78l0.17,0.5v0.27l0.42,1.27l0.16,0.25l0.09,0.27l0.16,0.25l0.09,0.27l1.01,1.52l0.26,0.18l0.17,0.25
		l0.25,0.25l0.18,0.26l0.23,0.22l8.77-5.39l0.02,0.03l2.33,3.62l-0.03,0.02l-8.2,5.3l0.65,0.81l0.76,0.76l0.34,0.43l1.36,1.36
		l0.42,0.34l1.7,1.28l0.3,0.15l5.8-7.69l0.03,0.03l3.35,2.5l-0.03,0.03l-5.43,7.48l0.31,0.31l0.67,0.51l0.33,0.16l0.69,0.52
		l0.42,0.16l0.34,0.17l0.85,0.34l0.34,0.17l0.42,0.17l0.85,0.17l0.52,0.17l0.39,0.07l3.75-8.63l0.04,0.01l3.78,1.55l-0.01,0.04
		l-3.47,8.49l0.54,0.08l0.6,0.17l0.77,0.25l0.76,0.17l0.85,0.26l0.85,0.18l0.94,0.25l0.98,0.25l1.7-9.14l0.04,0.01l4.13,0.61
		l-0.01,0.04l-1.61,9.1l0.4,0.16l0.5,0.08l0.85,0.17l0.51,0.08l0.85,0.17h0.42l0.44,0.09h2.2l0.42-0.08h0.39v-9.65h4.43v9.65h0.38
		l0.44,0.09h2.2l0.42-0.08h0.44l0.42-0.08l0.51-0.08l1.7-0.34l0.39-0.16l-1.62-9.14l0.04-0.01l4.38-0.61l0.01,0.04l1.61,9.1
		l0.55-0.08l0.59-0.17l1.53-0.34l0.85-0.26l0.94-0.25l1.02-0.25l1.06-0.25l-3.65-8.53l0.04-0.01l3.95-1.55l0.01,0.04l3.73,8.59
		l0.31-0.08l0.33-0.17l0.35-0.09l0.42-0.17l0.35-0.09l0.42-0.17l0.34-0.17l0.43-0.17l0.33-0.25l0.44-0.18l0.42-0.25l0.34-0.25
		l0.85-0.52l0.42-0.34l0.39-0.23l-5.62-7.34l0.03-0.03l3.35-2.5l0.03,0.03l5.94,7.66l0.31-0.16l0.33-0.25l0.33-0.34l0.69-0.51
		l0.33-0.34l0.35-0.26l1.02-1.02l0.34-0.42l0.68-0.68l0.99-1.24l-8.08-5.29l0.02-0.03l2.07-3.63l0.03,0.03l8.49,5.45l0.14-0.15
		l0.16-0.25l0.18-0.18l0.33-0.5l0.18-0.18l0.33-0.51l0.08-0.16l0.34-0.52l0.16-0.5l0.18-0.27l0.59-1.79l0.08-0.34v-0.25l0.09-0.27
		v-0.33l0.09-0.27v-0.33l0.09-0.27v-1.15l-10.55-0.85l0.01-0.04l0.43-4.22h1.23l0.69,0.09h1.53l0.86,0.09l0.93,0.08l1.02,0.08
		l0.85,0.08h0.76l0.77,0.09h0.59l0.6,0.09h1.33l0.08-0.23v-0.76l0.17-0.87l0.17-0.52l0.08-0.51l0.16-0.48l-9.55-5.13l0.03-0.04
		l2.07-3.54l0.03,0.02l8.91,5.36l0.4-0.32l0.42-0.42l0.43-0.35l0.43-0.26l0.34-0.25l0.43-0.26l0.25-0.17l0.31-0.16l-3.96-8.97
		l0.04-0.01l4.38-1.47l0.01,0.04l3.31,9.28h0.31l0.24-0.08h1.04l0.27,0.09h0.16h1.49v-10h4v9.99h3.82v-9.99h4v9.99h3.74v3.85h-17.67
		l-0.42,0.08l-0.34,0.08h-0.35l-0.42,0.08l-0.33,0.17l-0.68,0.17l-0.25,0.17l-0.35,0.17l-0.76,0.51l-0.76,0.76l-0.16,0.25
		l-0.26,0.27l-0.16,0.25l-0.68,1.36l-0.08,0.33l-0.08,0.42l-0.17,0.35l-0.25,1.27v0.5l-0.09,0.44l-0.17,1.88l-0.17,0.86l-0.17,0.94
		l-0.25,0.86l-0.17,0.85l-0.25,0.85l-0.34,0.86l-0.25,0.85l-0.34,0.77l-0.34,0.85l-0.34,0.77l-0.42,0.86l-0.85,1.54l-0.51,0.77
		l-0.51,0.68l-1.02,1.53l-1.79,2.05l-2.73,2.73l-0.77,0.6l-0.76,0.68l-0.85,0.6l-0.76,0.59l-1.7,1.2l-0.94,0.59l-0.85,0.6
		l-3.75,2.05l-0.94,0.43l-1.02,0.42l-0.93,0.43l-2.05,0.85l-4.08,1.37l-1.1,0.34l-1.11,0.25l-1.02,0.25l-1.19,0.25l-1.1,0.26
		l-2.22,0.34l-2.38,0.34l-1.1,0.17l-2.39,0.17l-1.28,0.08l-2.47,0.18h-1.21V130.45z M77.04,130.27h1.28l0.69,0.09h4.42l1.28-0.08
		l4.85-0.34l1.1-0.17l2.38-0.34l2.22-0.34l1.1-0.26l1.19-0.25l1.02-0.25l1.11-0.25l1.1-0.34l4.08-1.36l2.04-0.85l0.93-0.43
		l1.02-0.42l0.93-0.43l3.74-2.05l0.85-0.59l0.94-0.59l1.7-1.19l0.76-0.59l0.85-0.6l0.76-0.68l0.76-0.6l2.72-2.73l1.79-2.05
		l1.02-1.53l0.51-0.68l0.51-0.77l0.85-1.53l0.42-0.85l0.34-0.76l0.34-0.85l0.34-0.76l0.25-0.85l0.34-0.86l0.25-0.85l0.17-0.85
		l0.25-0.86l0.17-0.93l0.17-0.85l0.17-1.88l0.08-0.43v-0.5l0.26-1.29l0.17-0.35l0.08-0.42l0.08-0.35l0.68-1.38l0.17-0.26l0.26-0.26
		l0.16-0.25l0.77-0.78l0.77-0.52l0.35-0.17l0.27-0.17l0.68-0.17l0.33-0.17l0.44-0.09h0.35l0.33-0.08l0.43-0.08h0.86h16.73v-3.67
		h-3.74V75.46h-3.82v9.99h-4v-9.99h-3.83v9.99h-1.75l-0.27-0.09h-1.01l-0.24,0.08H136l-0.01-0.03l-3.31-9.27l-4.25,1.42l3.91,8.96
		l-0.03,0.02l-0.34,0.17l-0.25,0.17l-0.43,0.25l-0.34,0.25l-0.43,0.26L130.09,88l-0.42,0.42l-0.45,0.36l-0.03-0.01l-8.9-5.35
		l-2,3.43l9.53,5.11l-0.01,0.03l-0.17,0.51l-0.08,0.51l-0.17,0.52l-0.17,0.85v0.76l-0.1,0.3h-1.39l-0.6-0.09h-0.59l-0.77-0.09H123
		l-0.86-0.09l-1.02-0.08l-0.93-0.08l-0.85-0.09h-1.53l-0.69-0.09h-1.15l-0.42,4.1l10.55,0.85v1.23l-0.09,0.27v0.33l-0.09,0.27v0.33
		l-0.09,0.27v0.24l-0.09,0.35l-0.59,1.8l-0.18,0.27l-0.16,0.5l-0.35,0.52l-0.08,0.16l-0.34,0.52l-0.18,0.18l-0.33,0.5l-0.18,0.18
		l-0.16,0.25l-0.2,0.2l-0.03-0.02l-8.47-5.44l-2,3.51l8.09,5.3l-1.05,1.32l-0.68,0.68l-0.34,0.42l-1.02,1.02l-0.35,0.26l-0.33,0.34
		l-0.69,0.51l-0.33,0.34l-0.35,0.26l-0.38,0.19l-0.02-0.03l-5.94-7.65l-3.25,2.42l5.62,7.34l-0.47,0.28l-0.42,0.34l-0.86,0.52
		l-0.34,0.25l-0.42,0.26l-0.43,0.17l-0.33,0.25l-0.44,0.18l-0.34,0.17l-0.43,0.17l-0.35,0.09l-0.42,0.17l-0.35,0.09l-0.33,0.17
		l-0.38,0.1l-0.01-0.03l-3.73-8.58l-3.84,1.51l3.66,8.54l-0.05,0.01l-1.1,0.25l-1.02,0.25l-0.93,0.25l-0.85,0.26l-1.53,0.34
		l-0.59,0.17l-0.64,0.1l-0.01-0.04l-1.61-9.1l-4.25,0.59l1.62,9.13l-0.03,0.01l-0.42,0.17l-1.71,0.34l-0.51,0.08l-0.42,0.08h-0.44
		l-0.42,0.08h-2.22l-0.44-0.09h-0.46v-9.65h-4.25v9.65h-0.47l-0.42,0.08h-2.22l-0.44-0.09h-0.42l-0.86-0.17l-0.51-0.08l-0.85-0.17
		l-0.51-0.08l-0.47-0.18l0.01-0.03l1.61-9.1l-4-0.59l-1.7,9.14l-1.06-0.27l-0.93-0.25l-0.85-0.17l-0.85-0.26l-0.76-0.17l-0.77-0.25
		l-0.59-0.17l-0.65-0.09l0.02-0.05l3.48-8.5l-3.67-1.51l-3.74,8.62l-0.03-0.01l-0.42-0.08l-0.52-0.17l-0.8-0.14l-0.44-0.17
		l-0.34-0.17l-0.85-0.34l-0.34-0.17l-0.42-0.17l-0.69-0.52l-0.33-0.16l-0.69-0.52l-0.37-0.37l0.02-0.03l5.43-7.48l-3.25-2.42
		l-5.78,7.68l-0.38-0.18l-1.71-1.29l-0.42-0.34l-1.36-1.37l-0.34-0.43l-0.76-0.76l-0.72-0.89l0.04-0.03l8.22-5.27l-2.25-3.51
		l-8.76,5.38l-0.02-0.03l-0.25-0.26l-0.18-0.26l-0.25-0.25l-0.17-0.25l-0.26-0.18l-1.02-1.54l-0.09-0.27l-0.16-0.25l-0.09-0.27
		l-0.16-0.25l-0.43-1.3v-0.27l-0.17-0.5v-0.78l-0.08-0.24v-0.53l0.09-0.27v-0.54h0.04l9.91-0.59l-0.59-3.93l-9.37,0.68v-4.7h9.96
		v-3.84h-10v-4.1h9.96v-3.88h-9.96v-4.27h9.96v-3.67h-9.96v-4.87h9.95l-0.42-4.01l-10.3,0.6l-0.01-0.04l-0.08-0.68l-0.17-0.59
		l-0.08-0.52l-0.08-0.6l-0.08-0.42l-0.17-0.42l-0.09-0.44l-0.1-0.3l0.05-0.01l9.66-1.87l-0.75-3.93l-10.21,2.56l-0.18-0.55
		l-0.25-0.5l-0.17-0.52l-0.25-0.5l-1.04-1.75l0.04-0.02l9.07-4l-2-3.25l-8.86,4.43l-0.02-0.03l-0.51-0.68l-0.51-0.59l-0.34-0.52
		l-0.42-0.5l-0.26-0.43l-0.25-0.34l-0.25-0.25l-0.2-0.3l0.03-0.02l8.05-5.18l-2.67-3.01l-7.83,6.23l-0.03-0.02l-0.42-0.34
		l-0.34-0.25l-0.35-0.35l-0.33-0.25l-0.42-0.34l-1.06-0.79l0.03-0.03l5.93-7.65l-3.42-2.09l-5.37,7.77l-0.63-0.36l-0.51-0.25
		l-0.85-0.51l-0.42-0.17l-0.68-0.34l-0.29-0.1l0.02-0.04l3.64-8.5l-3.58-1.25l-3.32,8.96l-0.03-0.01l-0.93-0.25l-0.77-0.26
		l-0.6-0.25l-0.59-0.17l-0.42-0.08l-0.34-0.08l-0.17-0.08H7.52l0.01-0.05l2.29-9.18l-3.83-0.59l-1.62,9.39H1.23v4.1h2.26l0.77,0.09
		l0.68,0.08l0.76,0.08l0.68,0.08l0.77,0.17l0.68,0.17l0.68,0.08l0.77,0.26l1.36,0.34l1.36,0.51l0.6,0.25l0.68,0.25l0.69,0.34
		l0.59,0.25l0.68,0.34l0.6,0.34l0.68,0.34l0.6,0.43l0.59,0.34l1.19,0.86l0.6,0.51L20.11,46l1.7,1.45l1.11,1.11l0.51,0.6l0.51,0.51
		l1.02,1.2l0.42,0.51l0.85,1.2l0.43,0.69l0.42,0.59l0.34,0.6l0.34,0.68l0.34,0.59l0.34,0.68l0.26,0.69l0.33,0.59l0.77,2.05L30,60.53
		l0.17,0.68l0.25,0.76l0.17,0.69l0.09,0.78l0.17,0.67l0.34,3.08v0.77l0.08,0.85V97.6l0.08,0.68v0.69l0.17,1.36L31.7,101l0.09,0.69
		l0.17,0.59l0.51,2.05l0.25,0.59l0.25,0.69l0.51,1.19l0.34,0.68l0.26,0.6l0.34,0.59l0.34,0.69l0.42,0.59l0.34,0.6l0.85,1.19
		l0.42,0.51l0.51,0.6l0.43,0.6l0.51,0.59l0.5,0.51l0.51,0.6l1.1,1.1l0.59,0.51l0.51,0.51l1.02,0.85l0.59,0.42l1.02,0.85l0.59,0.42
		l0.59,0.34l0.52,0.43l0.59,0.42l1.19,0.68l0.6,0.43l1.19,0.68l0.68,0.34l0.59,0.34l0.68,0.34l0.59,0.25l1.36,0.68l0.68,0.25
		l0.59,0.26l0.77,0.34l2.04,0.76l0.76,0.25l0.68,0.26l0.76,0.25l0.68,0.25l0.76,0.17l2.39,0.68l0.59,0.08l1.2,0.34l0.59,0.08
		l0.6,0.17l1.19,0.17l0.6,0.17l0.67,0.08l1.79,0.25l0.68,0.08l1.19,0.17h0.67l0.6,0.09l0.68,0.08l0.59,0.08h0.68l0.6,0.09
		L77.04,130.27z M66.77,99.46l0.01-0.06l3.33-15.53l0.05,0.05l4.4,4.41l61.89-62.5l0.03,0.03l3.17,3.53l-0.03,0.03L77.7,91.64
		l4.53,4.47l-0.07,0.01L66.77,99.46z M70.17,84.03l-3.29,15.31l15.18-3.3l-4.49-4.41l0.03-0.03l61.95-62.22l-3.1-3.44l-61.89,62.5
		l-0.03-0.03L70.17,84.03z"/>
	<polygon class="st1" points="0.34,130.84 155.66,130.84 155.66,25.16 0.34,25.16 	"/>
</g>
</svg>
