<?xml version="1.0" encoding="utf-8"?>
<!-- Generator: Adobe Illustrator 28.0.0, SVG Export Plug-In . SVG Version: 6.00 Build 0)  -->
<svg version="1.1" id="Layer_1" xmlns="http://www.w3.org/2000/svg" xmlns:xlink="http://www.w3.org/1999/xlink" x="0px" y="0px"
	 viewBox="0 0 156 156" width="156px" height="156px"  style="enable-background:new 0 0 156 156;" xml:space="preserve">
<style type="text/css">
	.st0{fill-rule:evenodd;clip-rule:evenodd;fill:#FF1415;}
	.st1{fill:#FF1415;}
</style>
<path class="st0" d="M139.5,29.3l-3.1-3.5L74.5,88.3l-4.4-4.4l-3.3,15.5L82,96l-4.5-4.4L139.5,29.3z M19.1,45.2l0.5,0.5l0.6,0.4
	C19.8,45.8,19.5,45.5,19.1,45.2z M30.9,68.8v28.3l0,0.1v-28C30.9,69,30.9,68.9,30.9,68.8z M60.9,125.1l-0.1,0
	c0.2,0.1,0.5,0.1,0.7,0.2L60.9,125.1z M119.1,111.5C119.1,111.5,119.1,111.5,119.1,111.5L119.1,111.5L119.1,111.5z M101,124.9
	L101,124.9L101,124.9C101,124.9,101,124.9,101,124.9z M135.2,89.7L135.2,89.7l0.1-0.1C135.3,89.7,135.3,89.7,135.2,89.7z"/>
<path class="st0" d="M154.6,85.2v4h-17.2c-0.2,0-0.5,0-0.8,0.1c-0.1,0-0.2,0-0.3,0.1c-0.3,0.1-0.6,0.1-0.8,0.3c0,0,0,0,0,0
	c0,0-0.1,0-0.1,0.1c-0.2,0.1-0.4,0.2-0.6,0.3c-2.1,1.1-4.4,3.4-4.4,7.1c0,4.8-4.5,15.3-14.4,23.6c0,0,0,0,0,0
	c-7.7,6.4-18.6,11.5-33.1,11.5c-15.6,0-28.9-3.7-38.3-10.8c-8.6-6.4-13.4-15.1-13.5-24.3v-28c0-0.1,0-0.3,0-0.4l0.3-0.8v-0.8
	l-0.1-0.8L31,65.7l-0.1-0.8l-0.1-0.8l-0.2-0.7l-0.1-0.8L30.4,62l-0.3-0.8L30,60.6l-0.2-0.8l-0.2-0.7l-0.2-0.7L29,57.8l-0.3-0.6
	l-0.2-0.7l-0.3-0.7l-0.3-0.6l-0.3-0.7l-0.3-0.6l-0.4-0.6l-0.4-0.7L25.8,52l-0.4-0.6L25,50.9l-0.5-0.6L24,49.7l-0.5-0.5L23,48.6
	l-1.1-1.1L21.3,47l-0.5-0.4l-0.3-0.2c-0.1-0.1-0.2-0.2-0.3-0.3c-0.4-0.3-0.7-0.6-1.1-0.9L19,45.1L18.9,45c0,0,0,0,0,0
	c-5-3.8-11.1-6.1-17.6-6.1v-3.7h3.2l0-0.2L6,25.8l3.9,0.6l-2.3,9.1l0,0.1h0.2L8,35.7l0.3,0.1l0.4,0.1l0.6,0.2l0.6,0.3l0.8,0.3
	l0.9,0.3l0.1-0.3l3.2-8.7l3.7,1.3l-3.7,8.5l0.2,0.1l0.4,0.2l0.3,0.2l0.4,0.2l0.4,0.3l0.1,0l0.3,0.3l0.5,0.3l0.6,0.3l0,0l5.4-7.8
	L27,34l-6,7.7l0,0l0.6,0.6l0.3,0.3l0.4,0.3l0.3,0.3l0.3,0.3l0.3,0.3l0.4,0.3l0.2-0.1l7.6-6.1l2.7,3.1L26,46.2l0.1,0.1l0.1,0.2
	l0.2,0.3l0.2,0.3l0.2,0.4l0.4,0.5l0.3,0.5l0.5,0.6l0.5,0.7l0.2-0.1L38,45l2,3.3l-9.1,4l0.2,0.4l0.2,0.4l0.2,0.4l0.3,0.4l0.6,1.5
	l0.2,0.5L43,53.6l0.8,4l-9.7,1.9l0.1,0.3l0.1,0.4l0.2,0.4l0.1,0.4l0.1,0.6l0.1,0.5l0.2,0.6l0.1,0.7l10.3-0.6l0.4,4.1h-9.9v4.7h10
	v3.8H35.7v4.2h10v3.9h-10v4h10v3.9h-10V96l9.4-0.7l0.6,4l-10,0.6v0.6l-0.1,0.3v0.6l0.1,0.3v0.9l0.1,0.3l0.1,0.3v0.3l0.2,0.6l0.1,0.3
	l0.1,0.3l0.1,0.3l0.2,0.3l0.1,0.3l0.2,0.3l0.1,0.3l0.4,0.6l0.2,0.3l0.2,0.3l0.4,0.6l0.2,0.2l0.2,0.3l0.4,0.6l0.2,0.3L48,104l2.3,3.6
	l-8.3,5.3l0.3,0.4l0.3,0.4l0.4,0.4l0.3,0.3l0.3,0.4l0.3,0.3l0.3,0.3l0.6,0.6l0.4,0.3l0.3,0.3l0.3,0.3l0.3,0.3l0.3,0.3l0.3,0.3
	L47,118l5.8-7.7l3.3,2.5l-5.5,7.5l0.3,0.3l0.3,0.3l0.3,0.3l0.3,0.2c1.5,0.8,3,1.5,4.6,2.1l3.7-8.5l3.7,1.5l-3.5,8.4l0,0.1l0.5,0.1
	c0.2,0.1,0.5,0.1,0.7,0.2c0,0,0,0,0,0c1.7,0.5,3.5,1,5.2,1.3l1.7-8.8l4.1,0.6l-1.6,9c2.5,0.4,5.1,0.7,7.7,0.8v-9.8H83v9.9
	c0,0,0.1,0,0.1,0c2.3,0,4.6-0.2,6.7-0.4l-1.8-9.6l4.2-1.2l2.1,10.1c2.4-0.5,4.7-1.2,6.8-2.1l0,0v0c0,0,0,0,0,0l-4.1-9.8l3.9-1.5
	l4.1,9.5c2.3-1.2,4.3-2.5,6.2-3.9v0l-6.6-8.2l3.3-2.5l6.4,8.2c1.9-1.7,3.5-3.5,4.9-5.2h0l0,0l-8.6-5.6l2.1-3.6l9,5.8
	c2.4-3.6,3.8-6.9,4.3-9.1L115,99l0.4-4.2l10.9,0.7v0h0.1l-0.1,0c0.1-1,0.4-1.9,0.7-2.8c0-0.1,0.1-0.2,0.1-0.4l0.1-0.1l-9.2-5.1
	l2.1-3.5l9.1,5.5c0.9-1,1.9-1.7,2.9-2.3l-4.2-9.1l4.8-1.6l3.3,9.3c0.5-0.1,1-0.1,1.4-0.1h1.8v-9.8h3.9v9.8h3.9v-9.8h3.9v9.8H154.6z"
	/>
<polygon class="st0" points="126.4,95.5 126.3,95.5 126.3,95.5 "/>
<path class="st0" d="M101,124.9L101,124.9L101,124.9C101,124.9,101,124.9,101,124.9z"/>
<path class="st0" d="M119.1,111.5L119.1,111.5C119.1,111.5,119.1,111.5,119.1,111.5L119.1,111.5z"/>
<g>
	<path class="st1" d="M4.4,35l0,0.2H1.2v-0.3C2.3,34.9,3.4,34.9,4.4,35z"/>
	<path class="st1" d="M11.7,36.7L11.6,37l-0.9-0.3l-0.8-0.3l-0.6-0.3l-0.6-0.2l-0.4-0.1L8,35.7l-0.2-0.1H7.6l0-0.1
		C9,35.8,10.4,36.2,11.7,36.7z"/>
	<path class="st1" d="M18.1,39.7L18.1,39.7l-0.6-0.3L17,39.1l-0.3-0.3C17.2,39.1,17.6,39.4,18.1,39.7z"/>
	<path class="st1" d="M19.1,45.2c-0.1-0.1-0.1-0.1-0.2-0.2L19.1,45.2L19.1,45.2z"/>
	<path class="st1" d="M23.8,44l-0.2,0.1l-0.4-0.3l-0.3-0.3l-0.3-0.3l-0.3-0.3l-0.4-0.3l-0.3-0.3L21,41.7l0,0
		C22,42.4,22.9,43.1,23.8,44z"/>
	<path class="st1" d="M28.7,49.7l-0.2,0.1L28,49.1l-0.5-0.6L27.2,48l-0.4-0.5l-0.2-0.4l-0.2-0.3l-0.2-0.3l-0.1-0.2
		C27,47.4,27.9,48.5,28.7,49.7z"/>
	<path class="st1" d="M31.2,67.2V68l-0.3,0.8c-0.1-8.8-4.2-16.9-10.4-22.4l0.3,0.2l0.5,0.4l0.6,0.5l1.1,1.1l0.5,0.6l0.5,0.5l0.5,0.6
		l0.5,0.6l0.4,0.5l0.4,0.6l0.7,0.6l0.4,0.7l0.4,0.6l0.3,0.6l0.3,0.7l0.3,0.6l0.3,0.7l0.2,0.7l0.3,0.6l0.4,0.6l0.2,0.7l0.2,0.7
		l0.2,0.8l0.1,0.6l0.3,0.8l0.1,0.6l0.1,0.8l0.2,0.7l0.1,0.8l0.1,0.8l0.1,0.7L31.2,67.2z"/>
	<path class="st1" d="M60.8,125.1l-0.5-0.1l0-0.1C60.5,125,60.6,125,60.8,125.1z"/>
	<polygon class="st1" points="126.4,95.5 126.3,95.5 126.3,95.5 	"/>
</g>
</svg>
