<?xml version="1.0" encoding="utf-8"?>
<!-- Generator: Adobe Illustrator 28.0.0, SVG Export Plug-In . SVG Version: 6.00 Build 0)  -->
<svg version="1.1" id="Layer_1" xmlns="http://www.w3.org/2000/svg" xmlns:xlink="http://www.w3.org/1999/xlink" x="0px" y="0px"
	 viewBox="0 0 156 156" style="enable-background:new 0 0 156 156;" xml:space="preserve">
<style type="text/css">
	.st0{fill:#FF0000;enable-background:new    ;}
</style>
<path class="st0" d="M0,156C0,104,0,52,0,0c0.2,0,0.4,0,0.6,0c51.6,0,103.2,0,154.8,0c0.6,0,0.6,0,0.6,0.6c0,51.6,0,103.2,0,154.8
	c0,0.6,0,0.6-0.6,0.6c-51.6,0-103.2,0-154.8,0C0.4,156,0.2,156,0,156z M111.2,24.9c0-0.1-0.1-0.2-0.2-0.2
	c-3.7-3.4-7.3-6.9-11.2-10.1c-1.5-1.2-3-2.4-4.7-3.5c-1-0.6-1.9-1.2-3-1.7c-1.1-0.6-2.3-1.2-3.5-1.6c-1.6-0.5-3.2-1-4.9-1.4
	c-1.5-0.4-3-0.5-4.5-0.6c-1.3-0.1-2.7-0.2-4-0.1C73.9,5.8,72.4,5.8,71,6c-2,0.3-4,0.4-6,0.8c-3,0.7-6,1.4-8.9,2.3
	c-2.9,1-5.8,2.1-8.5,3.4c-1.6,0.8-3.2,1.5-4.7,2.4c-0.9,0.5-1.8,1-2.7,1.6c-3.5,2.3-6.8,4.8-9.6,7.9c-1.8,2-3.4,4.1-5,6.3
	c-1.5,2-2.7,4.1-3.9,6.3c-1.4,2.6-2.7,5.3-3.6,8.2c-0.7,2.2-1.4,4.5-1.7,6.8c-0.2,1.4-0.4,2.8-0.5,4.3c-0.1,2.5-0.1,5.1,0.3,7.6
	c0.3,2,0.8,3.9,1.4,5.8c0.7,2.3,1.7,4.5,2.8,6.7c0.9,1.9,2.2,3.7,3.4,5.5c1,1.4,2,2.8,3.2,4.1c1.4,1.6,3.1,2.9,4.8,4.1
	c1.5,1.1,3.1,2.1,4.8,2.8c2,0.9,4.1,1.6,6.3,2c2.7,0.4,5.3,0.8,8,0.6c1.2-0.1,2.4-0.3,3.7-0.4c1.5-0.2,3-0.5,4.5-0.8
	c4.2-0.8,8.4-1.8,12.6-2.6c0.8-0.2,1.5-0.3,2.3-0.4c1.5-0.2,2.9-0.4,4.4-0.7c1.4-0.3,2.9-0.4,4.3-0.5c0.5,0,0.5,0,0.2-0.4
	c-1.6-2.9-3.1-5.9-4.7-8.8c-0.2-0.3-0.2-0.4,0.2-0.5c5.2-1.8,10.4-3.6,15.7-5.4c0.1,0,0.3,0,0.4-0.2c-3.8-1.1-7.6-2.2-11.4-3.3
	c1.7-2.5,3.3-5,5-7.5c-0.2-0.1-0.3,0-0.5,0c-2.1,0.4-4.2,1-6.3,1.3c-1.6,0.3-3.1,0.7-4.7,0.9c-2.9,0.4-5.8,1-8.7,1.4
	c-1.6,0.2-3.2,0.6-4.9,0.6c-0.7,0-1.3,0.1-2,0.1c-1.9,0.1-3.8,0.1-5.7,0c-1.1-0.1-2.1-0.1-3.2-0.3c-1.6-0.2-3.1-0.5-4.6-1.1
	c-0.9-0.3-1.7-0.7-2.5-1.3c-1.4-1.1-2.5-2.4-3.3-3.9c-0.8-1.3-1.2-2.7-1.3-4.2c-0.1-1.4-0.1-2.7,0.2-4.1c0.2-0.8,0.5-1.6,0.8-2.4
	c0.7-1.8,1.6-3.5,2.8-5.1c0.8-1.1,1.5-2.2,2.4-3.2c0.8-0.9,1.6-1.8,2.4-2.6c1.4-1.5,3-2.7,4.6-3.9c2.5-1.8,5.3-3,8.3-3.9
	c2.1-0.6,4.2-1.1,6.3-1.3c1.5-0.2,3.1-0.4,4.6-0.1c1.7,0.3,3.4,0.9,4.9,1.7c1.7,0.8,3.2,1.9,4.7,3c0.9,0.7,1.7,1.4,2.6,2.2
	c0.3,0.3,0.6,0.3,0.9,0.1c7-3.6,14.1-7.2,21.1-10.7C108.3,26.4,109.8,25.6,111.2,24.9z M93.5,94.8c0,0,0,0.1,0,0.1
	c0.2,0.1,0.3,0.1,0.5,0.2c1,0.2,2.1,0.5,3.1,0.8c1.8,0.5,3.6,0.6,5.4,0.8c1.3,0.2,2.7,0.2,4.1,0.4c1.3,0.2,2.6,0.3,3.9,0.3
	c1.5,0,2.9,0.3,4.3,0.7c1.1,0.4,2.3,0.7,3.3,1.3c1.4,0.9,2.6,1.9,3.5,3.3c0.7,1.1,1.2,2.3,1.3,3.6c0.2,1.8-0.2,3.6-1,5.3
	c-0.3,0.6-0.7,1.1-1,1.7c-0.7,1-1.5,1.9-2.3,2.7c-0.7,0.6-1.5,1.3-2.3,1.8c-1.4,1-2.9,1.9-4.4,2.7c-2.5,1.3-5,2.4-7.7,3.1
	c-1.1,0.3-2.1,0.6-3.2,0.8c-1.3,0.2-2.7,0.5-4,0.5c-2.1,0-4.2,0.1-6.3-0.2c-1.6-0.2-3.3-0.5-4.9-0.8c-1.7-0.4-3.3-1-5-1.6
	c-1.7-0.7-3.4-1.6-5-2.5c-2.1-1.2-3.7-2.9-5.3-4.8c-0.8-1-1.4-2.1-2-3.3c-0.3-0.8-0.7-1.5-1-2.3c-0.1-0.2-0.1-0.3-0.4-0.2
	c-1.7,0.2-3.3,0.4-5,0.6c-3.8,0.4-7.6,0.8-11.4,1.3c-4.1,0.5-8.1,0.9-12.2,1.4c-0.3,0-0.3,0.1-0.3,0.4c0.2,1.2,0.7,2.4,1,3.6
	c0.8,3,2,5.9,3.3,8.7c0.5,1.1,1.1,2.1,1.7,3.2c0.7,1.2,1.5,2.4,2.3,3.6c1,1.5,2.3,2.9,3.5,4.3c1.5,1.6,3.1,2.9,4.9,4.2
	c2.1,1.6,4.4,2.8,6.7,4c3.7,1.9,7.7,3.1,11.6,4.1c3.2,0.9,6.5,1.3,9.8,1.6c2.1,0.2,4.1,0.4,6.2,0.5c2.2,0.1,4.5,0.2,6.7,0.1
	c2.3-0.1,4.6-0.1,6.8-0.4c2.2-0.2,4.3-0.6,6.5-0.9c1.4-0.2,2.6-0.6,4-1c2.9-0.7,5.8-1.7,8.5-2.9c4.3-2,8.2-4.4,11.6-7.7
	c0.9-0.9,1.9-1.8,2.8-2.7c2.6-2.6,4.7-5.6,6.6-8.7c1.5-2.4,2.6-5,3.5-7.7c0.5-1.5,0.8-3.1,1.1-4.7c0.5-2.2,0.6-4.4,0.6-6.6
	c0-1.2,0-2.4-0.1-3.6c-0.1-0.6-0.1-1.3-0.2-1.9c-0.3-1.9-0.6-3.7-1.1-5.6c-0.6-2.3-1.5-4.5-2.5-6.6c-0.8-1.6-1.8-3.1-2.7-4.6
	c-0.7-1.1-1.6-2.1-2.5-3.1c-0.9-1-1.9-1.9-2.9-2.7c-1-0.8-2-1.5-3.2-2.2c-1-0.6-2.1-1-3.2-1.5c-1.2-0.5-2.3-0.8-3.6-0.9
	c-1.5-0.2-2.9-0.4-4.4-0.6c-1.2-0.2-2.5-0.4-3.7-0.6c-4.4-0.7-8.9-1.3-13.3-2.2c-0.3-0.1-0.4,0-0.3,0.3c0.5,2.5,1,5,1.5,7.5
	c0.1,0.3,0,0.4-0.3,0.5c-3.1,0.9-6.2,1.8-9.2,2.7c-0.1,0-0.3,0-0.4,0.2c3.7,2.4,7.4,4.8,11.1,7.2C102.4,91.6,97.9,93.2,93.5,94.8z"
	/>
</svg>
