<?xml version="1.0" encoding="utf-8"?>
<!-- Generator: Adobe Illustrator 28.0.0, SVG Export Plug-In . SVG Version: 6.00 Build 0)  -->
<svg version="1.1" id="Layer_1" xmlns="http://www.w3.org/2000/svg" xmlns:xlink="http://www.w3.org/1999/xlink" x="0px" y="0px"
	 viewBox="0 0 156 156" style="enable-background:new 0 0 156 156;" xml:space="preserve">
<style type="text/css">
	.st0{fill-rule:evenodd;clip-rule:evenodd;fill:#FFFFFF;}
	.st1{fill:#FF0000;}
</style>
<g>
	<polygon class="st0" points="0,36.83 156,36.83 156,119.17 0,119.17 	"/>
	<path class="st1" d="M29.79,119c-9.05,0-18.11-2.7-25.91-11.03c-9.86-8.32,3.37-31,11.29-44.57c0.62-1.06,1.18-2.03,1.68-2.9
		c6.8-11.87,14.05-17.85,25.01-20.67c6.71-1.73,14.95-0.46,23.68,0.87c6.24,0.96,12.64,1.93,18.85,1.87
		c5.47-0.06,11.48-1.29,17.84-2.59c10.48-2.14,21.32-4.36,30.25-1.14c0.16,0.06,0.32,0.14,0.46,0.23
		c11.7,7.99,16.34,25.93,19.42,37.81c0.68,2.62,1.26,4.88,1.84,6.77c2.4,10.34,2.21,16.32-0.61,20.11
		c-3.52,4.75-10.56,5.22-20.3,5.88c-5.42,0.36-11.57,0.78-18.7,1.94c-4.82,0.78-10.93,0.15-17.39-0.53
		c-6.65-0.69-14.19-1.48-21.43-0.82c-0.3,0.02-0.59-0.02-0.87-0.11c-3.57-1.28-10.11,0.81-17.69,3.23
		C49.09,115.92,39.44,119,29.79,119z M49.37,43.06c-2.35,0-4.53,0.21-6.5,0.71c-9.9,2.54-16.21,7.8-22.48,18.75
		c-0.5,0.88-1.08,1.86-1.7,2.92c-5.83,10-19.49,33.41-12.11,39.46c0.07,0.06,0.14,0.12,0.2,0.19c14.39,15.45,33.68,9.3,49.18,4.36
		c8.37-2.67,15.03-4.79,19.86-3.33c7.5-0.63,15.09,0.16,21.8,0.86c6.19,0.64,12.03,1.26,16.32,0.55c7.32-1.19,13.84-1.63,19.08-1.98
		c8.97-0.61,14.9-1.01,17.3-4.24c1.97-2.66,1.95-7.94-0.05-16.63c-0.57-1.84-1.19-4.25-1.86-6.81c-2.9-11.21-7.27-28.1-17.56-35.32
		c-7.81-2.69-17.98-0.62-27.81,1.38c-6.27,1.28-12.75,2.6-18.6,2.67c-6.48,0.12-13.11-0.93-19.52-1.91
		C59.39,43.88,54.06,43.06,49.37,43.06z"/>
</g>
</svg>
