<?xml version="1.0" encoding="utf-8"?>
<!-- Generator: Adobe Illustrator 28.0.0, SVG Export Plug-In . SVG Version: 6.00 Build 0)  -->
<svg version="1.1" id="Layer_1" xmlns="http://www.w3.org/2000/svg" xmlns:xlink="http://www.w3.org/1999/xlink" x="0px" y="0px"
	 viewBox="0 0 156 156" style="enable-background:new 0 0 156 156;" xml:space="preserve">
<style type="text/css">
	.st0{fill:#FF0000;}
</style>
<path class="st0" d="M29.8,119c-9,0-18.1-2.7-25.9-11C-6,99.7,7.3,77,15.2,63.4c0.6-1.1,1.2-2,1.7-2.9c6.8-11.9,14.1-17.8,25-20.7
	c6.7-1.7,15-0.5,23.7,0.9c6.2,1,12.6,1.9,18.8,1.9c5.5-0.1,11.5-1.3,17.8-2.6c10.5-2.1,21.3-4.4,30.2-1.1c0.2,0.1,0.3,0.1,0.5,0.2
	c11.7,8,16.3,25.9,19.4,37.8c0.7,2.6,1.3,4.9,1.8,6.8c2.4,10.3,2.2,16.3-0.6,20.1c-3.5,4.8-10.6,5.2-20.3,5.9
	c-5.4,0.4-11.6,0.8-18.7,1.9c-4.8,0.8-10.9,0.2-17.4-0.5c-6.7-0.7-14.2-1.5-21.4-0.8c-0.3,0-0.6,0-0.9-0.1
	c-3.6-1.3-10.1,0.8-17.7,3.2C49.1,115.9,39.4,119,29.8,119z M49.4,43.1c-2.3,0-4.5,0.2-6.5,0.7c-9.9,2.5-16.2,7.8-22.5,18.8
	c-0.5,0.9-1.1,1.9-1.7,2.9c-5.8,10-19.5,33.4-12.1,39.5c0.1,0.1,0.1,0.1,0.2,0.2c14.4,15.4,33.7,9.3,49.2,4.4
	c8.4-2.7,15-4.8,19.9-3.3c7.5-0.6,15.1,0.2,21.8,0.9c6.2,0.6,12,1.3,16.3,0.6c7.3-1.2,13.8-1.6,19.1-2c9-0.6,14.9-1,17.3-4.2
	c2-2.7,1.9-7.9-0.1-16.6c-0.6-1.8-1.2-4.2-1.9-6.8c-2.9-11.2-7.3-28.1-17.6-35.3c-7.8-2.7-18-0.6-27.8,1.4
	c-6.3,1.3-12.8,2.6-18.6,2.7c-6.5,0.1-13.1-0.9-19.5-1.9C59.4,43.9,54.1,43.1,49.4,43.1z"/>
</svg>
