<?xml version="1.0" encoding="utf-8"?>
<!-- Generator: Adobe Illustrator 28.0.0, SVG Export Plug-In . SVG Version: 6.00 Build 0)  -->
<svg version="1.1" id="Layer_1" xmlns="http://www.w3.org/2000/svg" xmlns:xlink="http://www.w3.org/1999/xlink" x="0px" y="0px"
	 viewBox="0 0 156 156" width="156px" height="156px"  style="enable-background:new 0 0 156 156;" xml:space="preserve">
<style type="text/css">
	.st0{fill:#0000FF;stroke:#0000FF;stroke-width:0.1562;stroke-miterlimit:10;}
	.st1{fill:#0000FF;}
	.st2{fill:none;stroke:#0000FF;stroke-width:0.1562;stroke-miterlimit:10;}
</style>
<g id="MasterSlide_1_Standard">
	<g id="Drawing_1">
		<path class="st0" d="M13.27,77.69L13.27,77.69c0-0.31,0-0.62,0-0.78l0.47-3.44l0,0c0-0.31,0-0.47,0-0.62l0.94-3.44l0,0
			c0-0.16,0.16-0.31,0.16-0.62l1.56-3.12l0,0c0.16-0.16,0.16-0.47,0.31-0.62l0,0l2.03-2.97l2.97-3.44l3.28-2.97l3.9-2.97l4.06-2.5
			l4.68-2.34l4.84-2.03l5.31-1.87l5.47-1.56l5.93-1.09l5.93-0.94l6.25-0.47l6.56-0.31l6.4,0.16l6.25,0.62l5.93,0.94l5.78,1.09
			l5.62,1.56l5.15,1.72l5,2.03l4.53,2.19l4.22,2.65l3.75,2.81l3.44,3.12l2.81,3.12l2.34,3.44l0,0c0.16,0.16,0.16,0.47,0.31,0.62
			l1.56,3.12l0,0c0,0.31,0.16,0.47,0.16,0.62l0.94,3.44l0,0c0,0.16,0,0.31,0,0.62l0.47,3.44l0,0c0,0.16,0,0.47,0,0.78l-0.47,3.44
			l0,0c0,0.16,0,0.31,0,0.47l-0.94,3.44l0,0c0,0.16-0.16,0.47-0.16,0.62l-1.56,3.28l0,0c-0.16,0.16-0.16,0.31-0.31,0.47l0,0
			l-2.03,3.12l-2.81,3.28l-3.44,3.12l-3.75,2.97l-4.22,2.5l-4.53,2.34l-5,2.03l-5.15,1.72l-5.62,1.56l-5.78,1.09l-6.09,0.94
			l-6.25,0.62l-6.4,0.16l-6.4-0.16l-6.25-0.62l-6.09-0.78l-5.78-1.25l-5.47-1.41l-5.31-1.87l-5-1.87l-4.53-2.34l-4.22-2.5
			l-3.75-2.81l-3.44-3.12l-2.81-3.12l-2.34-3.59l0,0c-0.16-0.16-0.16-0.31-0.31-0.47l-1.56-3.28l0,0c0-0.16-0.16-0.47-0.16-0.62
			l-0.94-3.44l0,0c0-0.16,0-0.31,0-0.47L13.27,77.69z M21.39,80.34L21.39,80.34l-0.16-0.62L22.17,83l-0.16-0.62l1.56,3.28
			l-0.31-0.47l1.72,2.65l2.19,2.65l2.81,2.65l3.12,2.34l3.59,2.19l4.22,2.03l4.37,2.03l4.68,1.41l5.15,1.41l5.31,1.09l5.62,0.94
			l5.78,0.31l6.09,0.31l5.93-0.16l5.78-0.47l5.47-0.94l5.47-0.94l5-1.41l4.84-1.56l4.37-1.87l3.9-2.03l3.75-2.19l3.12-2.34l2.81-2.5
			l2.19-2.5l2.03-3.12l-0.31,0.47l1.56-3.28L133.67,83l0.94-3.28l-0.16,0.62l0.31-3.44v0.78l-0.31-3.59l0.16,0.78l-0.94-3.44
			l0.16,0.62l-1.56-3.28l0.31,0.62l-1.72-2.81l-2.19-2.65l-2.81-2.5l-3.12-2.5l-3.59-2.19l-4.06-2.03l-4.53-1.72l-4.68-1.72
			l-5.15-1.41l-5.31-1.09l-5.62-0.78l-5.78-0.47l-5.93-0.31l-5.93,0.31l-5.93,0.47l-5.47,0.78l-5.47,1.09l-5,1.41l-4.84,1.56
			l-4.37,1.87l-3.9,2.03l-3.75,2.19l-3.12,2.34l-2.81,2.5l-2.19,2.5l-2.03,3.12l0.31-0.62l-1.56,3.28l0.16-0.62l-0.94,3.44
			l0.16-0.78l-0.31,3.59v-0.78L21.39,80.34z"/>
		<path class="st1" d="M80.58,25.69v18.58H74.8V25.69H80.58z"/>
		<path class="st2" d="M80.58,25.69v18.58H74.8V25.69H80.58z"/>
		<path class="st1" d="M81.51,109.86v20.46h-7.65v-20.46H81.51z"/>
		<path class="st2" d="M81.51,109.86v20.46h-7.65v-20.46H81.51z"/>
		<path class="st1" d="M136.95,74.56H156v5.78h-19.05V74.56z"/>
		<path class="st2" d="M136.95,74.56H156v5.78h-19.05V74.56z"/>
		<path class="st1" d="M0,74.56h19.05v5.78H0V74.56z"/>
		<path class="st2" d="M0,74.56h19.05v5.78H0V74.56z"/>
		<path class="st1" d="M120.24,101.27l11.71,16.55l-6.25,4.37l-11.71-16.55L120.24,101.27z"/>
		<path class="st2" d="M120.24,101.27l11.71,16.55l-6.25,4.37l-11.71-16.55L120.24,101.27z"/>
		<path class="st1" d="M29.83,33.5l10.93,15.15l-4.84,3.44L24.98,36.93L29.83,33.5z"/>
		<path class="st2" d="M29.83,33.5l10.93,15.15l-4.84,3.44L24.98,36.93L29.83,33.5z"/>
		<path class="st1" d="M40.13,103.77l-11.71,16.55l-6.25-4.22l11.71-16.71L40.13,103.77z"/>
		<path class="st2" d="M40.13,103.77l-11.71,16.55l-6.25-4.22l11.71-16.71L40.13,103.77z"/>
		<path class="st1" d="M129.92,37.56L119.3,52.55l-4.68-3.12l10.62-15.15L129.92,37.56z"/>
		<path class="st2" d="M129.92,37.56L119.3,52.55l-4.68-3.12l10.62-15.15L129.92,37.56z"/>
		<path class="st1" d="M59.81,109.08l-5,19.52l-7.34-1.87l4.84-19.52L59.81,109.08z"/>
		<path class="st2" d="M59.81,109.08l-5,19.52l-7.34-1.87l4.84-19.52L59.81,109.08z"/>
		<path class="st1" d="M106.03,28.5l-4.53,17.8l-5.47-1.25l4.53-17.96L106.03,28.5z"/>
		<path class="st2" d="M106.03,28.5l-4.53,17.8l-5.47-1.25l4.53-17.96L106.03,28.5z"/>
		<path class="st1" d="M102.59,107.36l4.84,19.68l-7.34,1.87l-5-19.68L102.59,107.36z"/>
		<path class="st2" d="M102.59,107.36l4.84,19.68l-7.34,1.87l-5-19.68L102.59,107.36z"/>
		<path class="st1" d="M54.97,27.41l4.53,17.8l-5.62,1.41l-4.53-17.96L54.97,27.41z"/>
		<path class="st2" d="M54.97,27.41l4.53,17.8l-5.62,1.41l-4.53-17.96L54.97,27.41z"/>
		<path class="st1" d="M133.83,90.34l17.33,11.09l-4.22,6.4l-17.18-11.09L133.83,90.34z"/>
		<path class="st2" d="M133.83,90.34l17.33,11.09l-4.22,6.4l-17.18-11.09L133.83,90.34z"/>
		<path class="st1" d="M8.59,49.74l15.77,10.15l-3.28,4.68L5.47,54.58L8.59,49.74z"/>
		<path class="st2" d="M8.59,49.74l15.77,10.15l-3.28,4.68L5.47,54.58L8.59,49.74z"/>
		<path class="st1" d="M150.07,53.17l-15.62,10.15l-3.12-4.84l15.77-9.99L150.07,53.17z"/>
		<path class="st2" d="M150.07,53.17l-15.62,10.15l-3.12-4.84l15.77-9.99L150.07,53.17z"/>
		<path class="st1" d="M24.83,95.18L7.65,106.42l-4.06-6.4l17.18-11.09L24.83,95.18z"/>
		<path class="st2" d="M24.83,95.18L7.65,106.42l-4.06-6.4l17.18-11.09L24.83,95.18z"/>
	</g>
</g>
</svg>
