<?xml version="1.0" encoding="utf-8"?>
<!-- Generator: Adobe Illustrator 28.0.0, SVG Export Plug-In . SVG Version: 6.00 Build 0)  -->
<svg version="1.1" id="Layer_1" xmlns="http://www.w3.org/2000/svg" xmlns:xlink="http://www.w3.org/1999/xlink" x="0px" y="0px"
	 viewBox="0 0 156 156" width="156px" height="156px"  style="enable-background:new 0 0 156 156;" xml:space="preserve">
<style type="text/css">
	.st0{fill:#FF0000;}
</style>
<g>
	<path class="st0" d="M156,156H0V0h156V156z M6.5,149.7h143.1V6.3H6.5V149.7z"/>
	<path class="st0" d="M80.8,82.2c-20.8,0-35.4,0-50,0c-9.8,0-18.4-6.8-19.9-15.9c-1.1-6.5,1-12.2,6.1-16.4c2.9-2.4,6.5-4.1,10.4-4.5
		c1-0.1,1.7-0.3,1.7-1.6c0.1-12.5,14-22.5,27.6-17.9c0.8,0.3,1.6,0.6,2.4,1c0.7,0.3,1.1,0.3,1.7-0.4c7.4-10.2,18-13.3,30.1-12.8
		c9.1,0.4,16.9,3.8,23,10.6c2.6,3,3.8,6.6,5,10.3c0.3,1,0.8,1.3,1.7,1.4c8.9,1.2,16.4,4.9,21.7,12.1c4.2,5.8,4.6,12,1.9,18.3
		c-3.2,7.5-9.6,11.8-17.3,14.3c-4.5,1.5-9.1,1.9-13.8,1.7C100.3,81.8,87.5,82.3,80.8,82.2z"/>
	<polygon class="st0" points="23.2,106.7 32,95.5 35.4,98 26.6,109.2 	"/>
	<polygon class="st0" points="41,106.7 49.8,95.5 53.2,98 44.4,109.2 	"/>
	<polygon class="st0" points="23.2,128.7 32,117.5 35.4,120 26.6,131.2 	"/>
	<polygon class="st0" points="41,123.2 49.8,112 53.2,114.5 44.4,125.7 	"/>
	<polygon class="st0" points="59.8,116.7 68.6,105.5 72,108 63.2,119.2 	"/>
	<polygon class="st0" points="54.7,102.2 63.5,91 66.8,93.5 58,104.7 	"/>
	<polygon class="st0" points="80,104.2 88.8,93 92.2,95.5 83.4,106.7 	"/>
	<polygon class="st0" points="88.9,110.8 97.7,99.6 101.1,102.2 92.3,113.4 	"/>
	<polygon class="st0" points="68.5,128.7 77.3,117.5 80.7,120 71.9,131.2 	"/>
	<polygon class="st0" points="88.9,127.3 97.7,116.1 101.1,118.7 92.3,129.9 	"/>
	<polygon class="st0" points="107.7,120.8 116.5,109.6 119.9,112.2 111.1,123.4 	"/>
	<polygon class="st0" points="107.7,102.2 116.5,91 119.9,93.5 111.1,104.7 	"/>
	<polygon class="st0" points="45.8,134.3 54.6,123.1 57.9,125.7 49.2,136.9 	"/>
	<polygon class="st0" points="54.7,145.5 63.5,134.3 66.8,136.8 58,148 	"/>
	<polygon class="st0" points="75.2,145.5 84,134.3 87.4,136.8 78.6,148 	"/>
	<polygon class="st0" points="97.6,144.2 106.4,133 109.8,135.5 101,146.7 	"/>
	<polygon class="st0" points="122.9,115.5 131.7,104.3 135.1,106.9 126.3,118 	"/>
	<polygon class="st0" points="118.6,134.7 127.4,123.5 130.8,126 122,137.2 	"/>
</g>
</svg>
