<?xml version="1.0" encoding="utf-8"?>
<!-- Generator: Adobe Illustrator 28.0.0, SVG Export Plug-In . SVG Version: 6.00 Build 0)  -->
<svg version="1.1" id="Layer_1" xmlns="http://www.w3.org/2000/svg" xmlns:xlink="http://www.w3.org/1999/xlink" x="0px" y="0px"
	 viewBox="0 0 156 156" style="enable-background:new 0 0 156 156;" xml:space="preserve">
<style type="text/css">
	.st0{fill-rule:evenodd;clip-rule:evenodd;fill:#FFFFFF;}
	.st1{fill:#FF0000;}
	.st2{font-family:'MyriadPro-Regular';}
	.st3{font-size:42.2294px;}
	.st4{letter-spacing:7.01;}
	.st5{letter-spacing:1;}
	.st6{letter-spacing:3;}
	.st7{font-size:84.0979px;}
	.st8{fill:none;}
</style>
<g>
	<polygon class="st0" points="-6.08,0 162.08,0 162.08,156 -6.08,156 -6.08,0 	"/>
	<polygon class="st0" points="-3.82,1.48 157.36,1.48 157.36,150.91 -3.82,150.91 -3.82,1.48 	"/>
	<path class="st1" d="M141.85,142.97H11.32V8.34h130.53V142.97z M16.73,137.55h119.71V13.75H16.73V137.55z"/>
	<text transform="matrix(0.999 0 0 1 21.6726 55.3291)"><tspan x="0" y="0" class="st1 st2 st3 st4">S</tspan><tspan x="28.12" y="0" class="st1 st2 st3 st5">T</tspan><tspan x="50.46" y="0" class="st1 st2 st3 st6">A</tspan><tspan x="79.69" y="0" class="st1 st2 st3">U</tspan></text>
	<text transform="matrix(0.999 0 0 1 62.8054 128.2627)" class="st1 st2 st7">!</text>
	<polygon class="st8" points="-5.65,155.57 161.65,155.57 161.65,0.43 -5.65,0.43 -5.65,155.57 	"/>
</g>
</svg>
