<?xml version="1.0" encoding="utf-8"?>
<!-- Generator: Adobe Illustrator 28.0.0, SVG Export Plug-In . SVG Version: 6.00 Build 0)  -->
<svg version="1.1" id="Layer_1" xmlns="http://www.w3.org/2000/svg" xmlns:xlink="http://www.w3.org/1999/xlink" x="0px" y="0px"
	 viewBox="0 0 156 156" width="156px" height="156px"  style="enable-background:new 0 0 156 156;" xml:space="preserve">
<style type="text/css">
	.st0{fill:#FF0000;}
</style>
<g>
	<rect x="22.3" y="55" transform="matrix(0.7247 -0.6891 0.6891 0.7247 -44.5011 37.0783)" class="st0" width="3.8" height="38.5"/>
	
		<rect x="15.4" y="61.6" transform="matrix(0.7247 -0.6891 0.6891 0.7247 -50.9242 34.1792)" class="st0" width="3.8" height="38.5"/>
	<rect x="5" y="78.9" transform="matrix(0.7214 -0.6925 0.6925 0.7214 -49.2049 39.2538)" class="st0" width="38.5" height="3.8"/>
	
		<rect x="-1.9" y="71.8" transform="matrix(0.7214 -0.6925 0.6925 0.7214 -46.1992 32.4938)" class="st0" width="38.5" height="3.8"/>
	
		<rect x="48.1" y="62.1" transform="matrix(0.2691 -0.9631 0.9631 0.2691 -43.615 108.9863)" class="st0" width="3.8" height="42.3"/>
	
		<rect x="64.9" y="78.5" transform="matrix(0.7005 -0.7136 0.7136 0.7005 -33.9836 79.8821)" class="st0" width="26.6" height="3.8"/>
	
		<rect x="102.7" y="55" transform="matrix(0.1247 -0.9922 0.9922 0.1247 18.5836 168.1303)" class="st0" width="3.8" height="37.1"/>
	<rect x="133.4" y="54" transform="matrix(0.7247 -0.6891 0.6891 0.7247 -13.2146 113.41)" class="st0" width="3.8" height="38.5"/>
	
		<rect x="126.3" y="60.9" transform="matrix(0.7247 -0.6891 0.6891 0.7247 -19.9155 110.3801)" class="st0" width="3.8" height="38.5"/>
	
		<rect x="116.1" y="78.2" transform="matrix(0.7213 -0.6926 0.6926 0.7213 -17.7641 116.0584)" class="st0" width="38.5" height="3.8"/>
	
		<rect x="108.9" y="71.1" transform="matrix(0.7213 -0.6926 0.6926 0.7213 -14.8323 109.0901)" class="st0" width="38.5" height="3.8"/>
</g>
</svg>
