<?xml version="1.0" encoding="utf-8"?>
<!-- Generator: Adobe Illustrator 28.0.0, SVG Export Plug-In . SVG Version: 6.00 Build 0)  -->
<svg version="1.1" id="Layer_1" xmlns="http://www.w3.org/2000/svg" xmlns:xlink="http://www.w3.org/1999/xlink" x="0px" y="0px"
	 viewBox="0 0 156 156" width="156px" height="156px"  style="enable-background:new 0 0 156 156;" xml:space="preserve">
<style type="text/css">
	.st0{fill:#FF0000;}
</style>
<g>
	<path class="st0" d="M42.6,72.5l-2.1-2.3l-5.1,4.7l-4.1-4.4l5-4.6l-2.1-2.3l-4.9,4.6L25,63.5l4.7-4.4l-2.1-2.3l-4.7,4.3l-5.2-5.7
		l-2.3,2.1l5.2,5.7l-5.2,4.9l-5-5.4l-2.3,2.1l5,5.4l-4.8,4.4l-4.8-5.2l-2.3,2.1L6,76.9l-4.9,4.5l2.1,2.3l4.8-4.5l4.3,4.7l-4.6,4.3
		l2.1,2.3l4.6-4.3l4.1,4.4l-4.5,4.2l2.1,2.3l4.5-4.1l4.9,5.4l2.3-2.1L23,90.8l4.8-4.4l4.7,5.1l2.3-2.1L30,84.2l5.2-4.9l4.5,4.9
		l2.3-2.1l-4.5-4.9L42.6,72.5z M22.7,65.6l4.3,4.7l-5.2,4.9l-4.3-4.7L22.7,65.6z M10.4,77l4.8-4.4l4.3,4.7l-4.8,4.4L10.4,77z
		 M20.8,88.5L16.8,84l4.8-4.4l4.1,4.4L20.8,88.5z M27.9,81.9l-4.1-4.4l5.2-4.9l4.1,4.4L27.9,81.9z"/>
	<path class="st0" d="M106.9,72.7c-1.4,0-2.8,0.5-3.8,1.6c-0.9,0.9-1.5,2.2-1.6,3.6c0,0.1-0.1,0.1-0.1,0.2c0,0.7-0.3,1.4-0.7,1.9
		c-0.4,0.5-0.9,0.7-1.5,0.7c-1.2,0-2.1-1.3-2-2.7c0,0,0-0.1,0-0.1c-0.1-1.3-0.5-2.6-1.4-3.6c-1-1.2-2.3-1.8-3.7-1.9
		s-2.8,0.5-3.8,1.6c-1,1.1-1.6,2.5-1.7,4.1c0,0,0,0,0,0.1c-0.1,0.6-0.3,1.1-0.7,1.5c-0.4,0.5-0.9,0.7-1.5,0.7c-1,0-1.8-1-2-2.2
		c0.1-0.1,0.1-0.2,0.1-0.3c0-1.6-0.4-3.1-1.4-4.2c-1-1.2-2.3-1.8-3.7-1.9c-2.9-0.1-5.4,2.5-5.5,5.8c0,0,0,0,0,0
		c-0.1,0.6-0.3,1.2-0.7,1.6c-0.4,0.5-0.9,0.7-1.5,0.7c-1.1,0-1.9-1.2-2-2.5c0,0,0,0,0,0c0.1-3.3-2.1-6-5-6.1
		c-2.7-0.1-5.1,2.3-5.4,5.3c0,0.1-0.1,0.1-0.1,0.2c-0.1,1.5-1,2.7-2.2,2.7c-0.5,0-1-0.3-1.4-0.8c-0.4-0.5-0.6-1.2-0.6-2
		c0-0.1,0-0.2-0.1-0.3c0,0,0,0,0,0c-0.2-2.9-2.4-5.3-5.1-5.4c-1.4,0-2.8,0.5-3.8,1.6c-1,1.1-1.6,2.5-1.7,4.1c0,0.2,0.2,0.4,0.4,0.4
		l2.5,0.1c0.2,0,0.4-0.1,0.4-0.4c0-1.5,1-2.6,2.2-2.6c0.5,0,1,0.3,1.4,0.8c0.4,0.5,0.6,1.2,0.6,1.9c0,0.1,0,0.2,0.1,0.3c0,0,0,0,0,0
		c0.2,2.9,2.4,5.3,5,5.4c0,0,0.1,0,0.2,0c2.7,0,5-2.3,5.3-5.3c0.1-0.1,0.1-0.1,0.1-0.2c0.1-1.5,1.1-2.7,2.2-2.7c1,0,1.8,1.1,2,2.4
		c0,0,0,0.1,0,0.2c-0.1,3.3,2.2,6,5.1,6.1c0.1,0,0.1,0,0.2,0c2.9,0,5.2-2.5,5.4-5.7c0,0,0,0,0,0c0.1-0.6,0.3-1.2,0.7-1.6
		c0.4-0.5,0.9-0.7,1.5-0.7c1,0,1.8,1,2,2.2c-0.1,0.1-0.1,0.2-0.1,0.3c-0.1,3.3,2.2,6,5.1,6.1c0.1,0,0.1,0,0.2,0
		c2.9,0,5.2-2.5,5.4-5.7c0,0,0,0,0,0c0.2-1.3,1.1-2.3,2.1-2.3c0,0,0,0,0.1,0c1.2,0,2,1.3,2,2.8c0,0.1,0,0.1,0,0.2
		c0.1,1.3,0.6,2.5,1.4,3.5c1,1.2,2.3,1.8,3.7,1.9c0.1,0,0.1,0,0.2,0c2.7,0,5-2.3,5.3-5.3c0,0,0,0,0-0.1c0-1.5,1-2.6,2.2-2.6
		c0.5,0,1,0.3,1.4,0.8c0.4,0.5,0.6,1.2,0.6,1.9c0,0.1,0,0.2,0.1,0.3c0.1,0.1,0.2,0.1,0.3,0.1l2.5,0.1h0c0.1,0,0.2,0,0.3-0.1
		c0.1-0.1,0.1-0.2,0.1-0.3C112.2,75.5,109.9,72.8,106.9,72.7z"/>
	<path class="st0" d="M153.4,73l-2.1-2.3l-5.1,4.7l-4.1-4.4l5-4.6l-2.1-2.3l-4.9,4.6l-4.2-4.6l4.7-4.4l-2.1-2.3l-4.7,4.4l-5.3-5.7
		l-2.3,2.1l5.3,5.8l-5.2,4.8l-5-5.4l-2.3,2.1l5,5.4l-4.8,4.5l-4.8-5.3l-2.3,2.1l4.8,5.3l-4.8,4.5l2.1,2.3l4.8-4.4l4.2,4.6l-4.6,4.3
		l2.1,2.3l4.6-4.2l4.1,4.4l-4.5,4.1l2.1,2.3l4.5-4.1l4.9,5.4l2.3-2.1l-4.9-5.4l4.8-4.5l4.8,5.2l2.3-2.1l-4.8-5.2l5.2-4.8l4.5,4.9
		l2.3-2.1l-4.5-4.9L153.4,73z M133.5,66.2l4.2,4.6l-5.2,4.8l-4.2-4.6L133.5,66.2z M121.2,77.6l4.8-4.5l4.2,4.6l-4.8,4.5L121.2,77.6z
		 M131.6,88.9l-4.1-4.4l4.8-4.5l4.1,4.4L131.6,88.9z M138.7,82.3l-4.1-4.4l5.2-4.8l4.1,4.4L138.7,82.3z"/>
</g>
</svg>
