<?xml version="1.0" encoding="utf-8"?>
<!-- Generator: Adobe Illustrator 28.0.0, SVG Export Plug-In . SVG Version: 6.00 Build 0)  -->
<svg version="1.1" id="Layer_1" xmlns="http://www.w3.org/2000/svg" xmlns:xlink="http://www.w3.org/1999/xlink" x="0px" y="0px"
	 viewBox="0 0 156 156" style="enable-background:new 0 0 156 156;" xml:space="preserve">
<style type="text/css">
	.st0{fill-rule:evenodd;clip-rule:evenodd;fill:#FFFFFF;}
	.st1{fill:#FF0000;}
	.st2{fill-rule:evenodd;clip-rule:evenodd;fill:#FF0000;}
	.st3{fill:none;}
</style>
<g>
	<polygon class="st0" points="0,51.5 156,51.5 156,104.53 0,104.53 	"/>
	<polygon class="st0" points="1.82,51.47 154.06,56.79 152.46,102.83 0.21,97.52 	"/>
	
		<rect x="27.14" y="51.81" transform="matrix(0.7371 -0.6758 0.6758 0.7371 -39.6596 37.7597)" class="st1" width="3.13" height="36.08"/>
	
		<rect x="19.85" y="59.08" transform="matrix(0.7371 -0.6758 0.6758 0.7371 -46.4815 34.749)" class="st1" width="3.13" height="36.08"/>
	
		<rect x="4.03" y="75.44" transform="matrix(0.7331 -0.6802 0.6802 0.7331 -46.4847 35.5618)" class="st1" width="36.07" height="3.13"/>
	
		<rect x="-2.64" y="68.69" transform="matrix(0.7331 -0.6802 0.6802 0.7331 -43.6734 29.2272)" class="st1" width="36.07" height="3.13"/>
	
		<rect x="10.32" y="82.05" transform="matrix(0.7331 -0.6802 0.6802 0.7331 -49.3 41.6061)" class="st1" width="36.07" height="3.13"/>
	
		<rect x="12.97" y="65.85" transform="matrix(0.7371 -0.6758 0.6758 0.7371 -52.87 31.8774)" class="st1" width="3.13" height="36.08"/>
	<path class="st2" d="M42.72,76.58c0.11-3.04,2.41-5.43,5.14-5.33c2.73,0.1,4.86,2.64,4.76,5.68l0,0l0,0l-2.48-0.09l0,0
		c0.06-1.68-1-3.07-2.37-3.12c-1.37-0.05-2.52,1.27-2.58,2.95l0,0L42.72,76.58z"/>
	<path class="st1" d="M52.62,77.3c0,0-0.01,0-0.01,0l-2.48-0.09c-0.1,0-0.19-0.05-0.26-0.12s-0.11-0.17-0.1-0.27
		c0.03-0.72-0.18-1.41-0.57-1.93c-0.38-0.5-0.89-0.78-1.43-0.8c-1.2-0.04-2.14,1.12-2.19,2.59c-0.01,0.21-0.19,0.35-0.39,0.36
		l-2.47-0.09c-0.21-0.01-0.37-0.18-0.36-0.39C42.4,75,43,73.55,44.03,72.48c1.05-1.09,2.41-1.66,3.84-1.61
		c2.94,0.1,5.23,2.82,5.12,6.07c0,0.1-0.05,0.19-0.12,0.26C52.81,77.26,52.72,77.3,52.62,77.3z M50.52,76.47l1.73,0.06
		c-0.08-2.66-1.99-4.83-4.39-4.91c-1.21-0.05-2.38,0.45-3.27,1.37c-0.82,0.85-1.33,1.99-1.46,3.22l1.73,0.06
		c0.21-1.7,1.45-3,2.94-2.94c0.78,0.03,1.49,0.42,2.01,1.1C50.22,75,50.48,75.71,50.52,76.47z"/>
	<path class="st2" d="M60.03,76.74c-0.11,3.07-2.38,5.49-5.08,5.4c-2.7-0.09-4.8-2.66-4.69-5.74l0,0l0,0l2.44,0.09l0,0
		c-0.06,1.73,0.98,3.17,2.33,3.21c1.35,0.05,2.49-1.32,2.55-3.04l0,0L60.03,76.74z"/>
	<path class="st1" d="M55.1,82.52c-0.05,0-0.11,0-0.16,0c-2.9-0.1-5.17-2.85-5.05-6.13c0-0.1,0.05-0.19,0.12-0.26
		c0.07-0.07,0.17-0.1,0.27-0.1l2.44,0.09c0.1,0,0.19,0.05,0.26,0.12s0.11,0.17,0.1,0.27c-0.03,0.75,0.17,1.46,0.57,2
		c0.37,0.51,0.87,0.8,1.4,0.82c1.12,0,2.11-1.16,2.16-2.68c0.01-0.21,0.17-0.36,0.39-0.36l2.44,0.09c0.1,0,0.19,0.05,0.26,0.12
		s0.11,0.17,0.1,0.27C60.29,79.97,57.93,82.52,55.1,82.52z M50.63,76.79c0.07,2.69,1.96,4.89,4.33,4.98
		c2.36,0.05,4.4-1.98,4.67-4.66l-1.7-0.06c-0.21,1.75-1.48,3.1-2.91,3.03c-0.77-0.03-1.48-0.43-1.99-1.13
		c-0.42-0.58-0.67-1.31-0.71-2.1L50.63,76.79z"/>
	<path class="st2" d="M74.82,77.26c-0.11,3.07-2.41,5.49-5.14,5.39c-2.73-0.1-4.86-2.67-4.76-5.74l0,0l0,0L67.39,77l0,0
		c-0.06,1.71,1,3.14,2.37,3.18c1.37,0.05,2.52-1.3,2.58-3.01l0,0L74.82,77.26z"/>
	<path class="st1" d="M69.83,83.03c-0.05,0-0.11,0-0.17,0c-2.94-0.1-5.23-2.85-5.12-6.13c0.01-0.21,0.17-0.38,0.39-0.36l2.48,0.09
		c0.1,0,0.19,0.05,0.26,0.12c0.07,0.07,0.11,0.17,0.1,0.27c-0.05,1.5,0.85,2.76,2,2.8c0.54-0.01,1.07-0.23,1.48-0.71
		c0.43-0.5,0.68-1.19,0.71-1.93c0-0.1,0.05-0.19,0.12-0.26c0.07-0.07,0.17-0.1,0.27-0.1l2.48,0.09c0.21,0.01,0.37,0.18,0.36,0.39
		C75.08,80.49,72.69,83.03,69.83,83.03z M65.29,77.3c0.07,2.69,1.98,4.89,4.39,4.98c0.05,0,0.1,0,0.14,0c2.35,0,4.33-2.03,4.59-4.66
		l-1.73-0.06c-0.1,0.77-0.39,1.48-0.86,2.02c-0.56,0.66-1.31,1.01-2.08,0.98c-1.47-0.05-2.63-1.45-2.72-3.19L65.29,77.3z"/>
	<path class="st2" d="M57.64,76.91c0.11-3.07,2.38-5.49,5.08-5.4c2.7,0.1,4.8,2.66,4.69,5.74l0,0l0,0l-2.44-0.09l0,0
		c0.06-1.73-0.99-3.17-2.33-3.21c-1.35-0.05-2.49,1.32-2.55,3.04l0,0L57.64,76.91z"/>
	<path class="st1" d="M67.41,77.63c0,0-0.01,0-0.01,0l-2.44-0.09c-0.21-0.01-0.37-0.18-0.36-0.39c0.05-1.52-0.83-2.79-1.97-2.83
		c-1.11-0.01-2.11,1.16-2.16,2.68c-0.01,0.21-0.2,0.36-0.39,0.36l-2.45-0.09c-0.1,0-0.19-0.04-0.26-0.12
		c-0.07-0.07-0.11-0.17-0.1-0.27c0.12-3.28,2.59-5.85,5.47-5.76c2.9,0.1,5.17,2.85,5.05,6.13c0,0.1-0.05,0.19-0.12,0.26
		C67.6,77.59,67.51,77.63,67.41,77.63z M65.34,76.8l1.7,0.06c-0.07-2.69-1.96-4.89-4.33-4.97c-2.35-0.07-4.4,1.98-4.67,4.66
		l1.7,0.06c0.21-1.75,1.46-3.1,2.91-3.03C64.1,73.63,65.25,75.04,65.34,76.8z"/>
	<path class="st2" d="M72.3,77.55c0.11-3.07,2.41-5.49,5.14-5.39c2.73,0.1,4.86,2.67,4.76,5.74l0,0l0,0l-2.48-0.09l0,0
		c0.06-1.71-1-3.14-2.37-3.18c-1.37-0.05-2.52,1.3-2.58,3.01l0,0L72.3,77.55z"/>
	<path class="st1" d="M82.19,78.27c0,0-0.01,0-0.01,0l-2.47-0.09c-0.21-0.01-0.37-0.18-0.36-0.39c0.05-1.5-0.85-2.76-2.01-2.8
		c-0.55-0.02-1.07,0.23-1.48,0.71c-0.43,0.5-0.68,1.19-0.71,1.93c-0.01,0.21-0.19,0.41-0.39,0.36l-2.48-0.09
		c-0.1,0-0.19-0.04-0.26-0.12c-0.07-0.07-0.11-0.17-0.1-0.27c0.12-3.28,2.6-5.86,5.53-5.76c1.43,0.05,2.75,0.72,3.72,1.89
		c0.96,1.16,1.45,2.66,1.4,4.24C82.56,78.11,82.39,78.27,82.19,78.27z M80.09,77.44l1.73,0.06c-0.03-1.26-0.46-2.44-1.23-3.36
		c-0.83-1-1.95-1.57-3.17-1.62c-2.45-0.11-4.47,1.98-4.73,4.66l1.73,0.06c0.1-0.77,0.39-1.48,0.86-2.02
		c0.56-0.66,1.3-1.01,2.08-0.98C78.83,74.3,80,75.7,80.09,77.44z"/>
	<path class="st2" d="M89.48,77.77c-0.11,3.07-2.41,5.49-5.14,5.39c-2.73-0.1-4.86-2.67-4.76-5.74l0,0l0,0l2.48,0.09l0,0
		c-0.06,1.71,1,3.14,2.37,3.18c1.37,0.05,2.52-1.3,2.58-3.01l0,0L89.48,77.77z"/>
	<path class="st1" d="M84.49,83.54c-0.05,0-0.11,0-0.17,0c-2.94-0.1-5.23-2.85-5.12-6.13c0.01-0.21,0.16-0.38,0.39-0.36l2.48,0.09
		c0.1,0,0.19,0.05,0.26,0.12c0.07,0.07,0.11,0.17,0.1,0.27c-0.05,1.5,0.85,2.76,2,2.8c0.54,0,1.07-0.23,1.48-0.71
		c0.43-0.5,0.69-1.19,0.71-1.93c0-0.1,0.04-0.19,0.12-0.26c0.07-0.07,0.17-0.13,0.27-0.1l2.48,0.09c0.1,0,0.19,0.04,0.26,0.12
		c0.07,0.07,0.11,0.17,0.1,0.27C89.74,81,87.35,83.54,84.49,83.54z M79.95,77.81c0.07,2.69,1.98,4.89,4.39,4.98
		c2.39,0.05,4.47-1.98,4.73-4.66l-1.73-0.06c-0.1,0.77-0.39,1.48-0.86,2.02c-0.56,0.66-1.31,1.01-2.08,0.98
		c-1.47-0.05-2.63-1.45-2.72-3.2L79.95,77.81z"/>
	<path class="st2" d="M86.96,78.06c0.11-3.07,2.41-5.49,5.14-5.39c2.73,0.1,4.86,2.67,4.76,5.74l0,0l0,0l-2.48-0.09l0,0
		c0.06-1.71-1-3.14-2.37-3.18c-1.37-0.05-2.52,1.3-2.58,3.01l0,0L86.96,78.06z"/>
	<path class="st1" d="M96.85,78.78c0,0-0.01,0-0.01,0l-2.48-0.09c-0.21-0.01-0.37-0.18-0.36-0.39c0.05-1.5-0.85-2.76-2-2.8
		c-0.02,0-0.04,0-0.06,0c-1.13,0-2.09,1.17-2.14,2.65c-0.01,0.21-0.2,0.39-0.39,0.36l-2.48-0.09c-0.21-0.01-0.37-0.18-0.36-0.39
		c0.05-1.58,0.66-3.05,1.69-4.13c1.05-1.1,2.41-1.68,3.84-1.63c1.43,0.05,2.75,0.72,3.72,1.89c0.96,1.16,1.45,2.66,1.4,4.24
		c0,0.1-0.04,0.19-0.12,0.26C97.04,78.74,96.95,78.78,96.85,78.78z M94.75,77.96l1.73,0.06c-0.03-1.26-0.46-2.44-1.23-3.36
		c-0.83-1-1.95-1.57-3.17-1.62c-1.21-0.05-2.37,0.45-3.27,1.39c-0.83,0.87-1.34,2.01-1.46,3.27l1.73,0.06c0.21-1.7,1.43-3,2.86-3
		c0.03,0,0.05,0,0.08,0C93.49,74.81,94.66,76.21,94.75,77.96z"/>
	<path class="st2" d="M104.27,78.1c-0.11,3.04-2.41,5.43-5.14,5.33c-2.73-0.1-4.86-2.64-4.76-5.68l0,0l0,0l2.48,0.09l0,0
		c-0.06,1.68,1,3.07,2.37,3.12c1.37,0.05,2.52-1.27,2.58-2.95l0,0L104.27,78.1z"/>
	<path class="st1" d="M99.28,83.81c-0.06,0-0.11,0-0.17,0c-1.43-0.05-2.75-0.71-3.72-1.87c-0.96-1.14-1.46-2.64-1.4-4.2
		c0.01-0.2,0.17-0.36,0.37-0.36c0,0,0.01,0,0.01,0l2.47,0.09c0.21,0.01,0.37,0.18,0.36,0.39c-0.05,1.47,0.85,2.69,2.01,2.73
		c0.55,0.01,1.07-0.23,1.49-0.7c0.43-0.49,0.68-1.16,0.71-1.88c0-0.1,0.04-0.19,0.12-0.26c0.07-0.07,0.17-0.12,0.27-0.1l2.48,0.09
		c0.21,0.01,0.37,0.18,0.36,0.39C104.53,81.29,102.14,83.81,99.28,83.81z M94.74,78.14c0.04,1.24,0.47,2.4,1.23,3.31
		c0.83,0.99,1.96,1.56,3.17,1.6c2.42,0.05,4.46-1.95,4.73-4.6l-1.73-0.06c-0.1,0.75-0.39,1.45-0.86,1.98
		c-0.56,0.64-1.31,0.97-2.08,0.96c-1.47-0.05-2.63-1.42-2.73-3.13L94.74,78.14z"/>
	<path class="st2" d="M101.75,78.39c0.11-3.04,2.41-5.43,5.14-5.33c2.73,0.1,4.86,2.64,4.76,5.68l0,0l0,0l-2.48-0.09l0,0
		c0.06-1.68-1-3.07-2.37-3.12c-1.37-0.05-2.52,1.27-2.58,2.95l0,0L101.75,78.39z"/>
	<path class="st1" d="M111.65,79.11c0,0-0.01,0-0.01,0l-2.47-0.09c-0.1,0-0.19-0.04-0.26-0.12c-0.07-0.07-0.11-0.17-0.1-0.27
		c0.02-0.72-0.18-1.41-0.57-1.93c-0.38-0.5-0.89-0.78-1.43-0.8c-1.16-0.05-2.14,1.12-2.19,2.59c-0.01,0.21-0.18,0.4-0.39,0.36
		l-2.47-0.09c-0.21-0.01-0.37-0.18-0.36-0.39c0.05-1.56,0.65-3.02,1.69-4.09c1.05-1.09,2.42-1.66,3.84-1.61
		c2.94,0.1,5.23,2.82,5.12,6.07c0,0.1-0.04,0.19-0.12,0.26C111.83,79.07,111.74,79.11,111.65,79.11z M109.54,78.28l1.73,0.06
		c-0.08-2.66-1.99-4.83-4.39-4.91c-1.22-0.04-2.37,0.45-3.27,1.37c-0.82,0.85-1.33,1.99-1.46,3.22l1.73,0.06
		c0.22-1.7,1.46-3,2.94-2.94c0.78,0.03,1.49,0.42,2.01,1.1C109.25,76.81,109.5,77.52,109.54,78.28z"/>
	
		<rect x="137.9" y="52.3" transform="matrix(0.7371 -0.6758 0.6758 0.7371 -10.8674 112.7407)" class="st1" width="3.13" height="36.08"/>
	
		<rect x="130.74" y="59.57" transform="matrix(0.7371 -0.6758 0.6758 0.7371 -17.6587 109.8166)" class="st1" width="3.13" height="36.08"/>
	
		<rect x="114.79" y="75.92" transform="matrix(0.7331 -0.6802 0.6802 0.7331 -17.2438 111.0249)" class="st1" width="36.07" height="3.13"/>
	
		<rect x="108.24" y="69.18" transform="matrix(0.7329 -0.6803 0.6803 0.7329 -14.402 104.8052)" class="st1" width="36.07" height="3.13"/>
	
		<rect x="121.08" y="82.53" transform="matrix(0.7331 -0.6802 0.6802 0.7331 -20.0603 117.0714)" class="st1" width="36.07" height="3.13"/>
	
		<rect x="123.73" y="66.34" transform="matrix(0.7371 -0.6758 0.6758 0.7371 -24.0785 106.8599)" class="st1" width="3.13" height="36.08"/>
	<polygon class="st3" points="0.15,99.01 154.17,104.39 155.83,56.97 1.81,51.59 	"/>
</g>
</svg>
