<?xml version="1.0" encoding="utf-8"?>
<!-- Generator: Adobe Illustrator 28.0.0, SVG Export Plug-In . SVG Version: 6.00 Build 0)  -->
<svg version="1.1" id="Layer_1" xmlns="http://www.w3.org/2000/svg" xmlns:xlink="http://www.w3.org/1999/xlink" x="0px" y="0px"
	 viewBox="0 0 156 156" width="156px" height="156px"  style="enable-background:new 0 0 156 156;" xml:space="preserve">
<style type="text/css">
	.st0{clip-path:url(#SVGID_00000124877863578959643180000018319764014733662103_);fill:#FF0000;}
	.st1{clip-path:url(#SVGID_00000123416515510994728020000000273587065601318842_);fill:#FF0000;}
	.st2{fill:#FF0000;}
	.st3{clip-path:url(#SVGID_00000156582437329930195720000012816016102473855114_);fill:#FF0000;}
	.st4{clip-path:url(#SVGID_00000095330878399919973590000000971882537800054970_);fill:#FF0000;}
</style>
<g>
	<g>
		<g>
			<g>
				<g>
					<defs>
						
							<rect id="SVGID_1_" x="6.5" y="52.5" transform="matrix(0.7239 -0.69 0.69 0.7239 -42.0344 36.7928)" width="36.8" height="36.9"/>
					</defs>
					<clipPath id="SVGID_00000041271203912779610430000005138380108214417816_">
						<use xlink:href="#SVGID_1_"  style="overflow:visible;"/>
					</clipPath>
					
						<rect x="22.9" y="50.2" transform="matrix(0.7127 -0.7014 0.7014 0.7127 -43.6269 38.2027)" style="clip-path:url(#SVGID_00000041271203912779610430000005138380108214417816_);fill:#FF0000;" width="3.9" height="44.4"/>
				</g>
			</g>
		</g>
		<g>
			<g>
				<g>
					<defs>
						
							<rect id="SVGID_00000021814662945161791100000006342516669699766197_" x="5.9" y="52.6" transform="matrix(0.7122 -0.702 0.702 0.7122 -42.8393 37.5272)" width="36.8" height="36.9"/>
					</defs>
					<clipPath id="SVGID_00000127025572056001822800000005752363223033866664_">
						<use xlink:href="#SVGID_00000021814662945161791100000006342516669699766197_"  style="overflow:visible;"/>
					</clipPath>
					
						<rect x="2.3" y="70.6" transform="matrix(0.7088 -0.7054 0.7054 0.7088 -44.0462 38.4048)" style="clip-path:url(#SVGID_00000127025572056001822800000005752363223033866664_);fill:#FF0000;" width="44.4" height="3.9"/>
				</g>
			</g>
		</g>
	</g>
	
		<rect x="37.6" y="71.5" transform="matrix(1 -6.742790e-03 6.742790e-03 1 -0.4931 0.5347)" class="st2" width="82.9" height="3.8"/>
	<g>
		<g>
			<g>
				<g>
					<defs>
						
							<rect id="SVGID_00000146501161501415569000000011464554221980418737_" x="110.1" y="53" transform="matrix(0.7269 -0.6867 0.6867 0.7269 -13.9531 107.8204)" width="36.9" height="36.9"/>
					</defs>
					<clipPath id="SVGID_00000062883928206334752620000012112361320863883948_">
						<use xlink:href="#SVGID_00000146501161501415569000000011464554221980418737_"  style="overflow:visible;"/>
					</clipPath>
					
						<rect x="126.5" y="50.6" transform="matrix(0.7138 -0.7004 0.7004 0.7138 -14.2622 110.7861)" style="clip-path:url(#SVGID_00000062883928206334752620000012112361320863883948_);fill:#FF0000;" width="3.9" height="44.5"/>
				</g>
			</g>
		</g>
		<g>
			<g>
				<g>
					<defs>
						
							<rect id="SVGID_00000101796777228567801620000010141151818801732247_" x="109.5" y="53.1" transform="matrix(0.7098 -0.7044 0.7044 0.7098 -13.2607 110.8766)" width="36.9" height="36.9"/>
					</defs>
					<clipPath id="SVGID_00000067237152750157271900000005004606363933355434_">
						<use xlink:href="#SVGID_00000101796777228567801620000010141151818801732247_"  style="overflow:visible;"/>
					</clipPath>
					
						<rect x="105.9" y="71.1" transform="matrix(0.708 -0.7062 0.7062 0.708 -14.1533 111.819)" style="clip-path:url(#SVGID_00000067237152750157271900000005004606363933355434_);fill:#FF0000;" width="44.5" height="3.9"/>
				</g>
			</g>
		</g>
	</g>
</g>
</svg>
