<?xml version="1.0" encoding="utf-8"?>
<!-- Generator: Adobe Illustrator 28.0.0, SVG Export Plug-In . SVG Version: 6.00 Build 0)  -->
<svg version="1.1" id="Layer_1" xmlns="http://www.w3.org/2000/svg" xmlns:xlink="http://www.w3.org/1999/xlink" x="0px" y="0px"
	 viewBox="0 0 156 156" style="enable-background:new 0 0 156 156;" xml:space="preserve">
<style type="text/css">
	.st0{fill-rule:evenodd;clip-rule:evenodd;fill:#FFFFFF;}
	.st1{fill:#0000FF;}
	.st2{fill:none;}
</style>
<g>
	<polygon class="st0" points="22.66,0 133.34,0 133.34,156 22.66,156 22.66,0 	"/>
	<polygon class="st0" points="25.64,2.44 124.38,2.44 124.38,148.5 25.64,148.5 25.64,2.44 	"/>
	<path class="st1" d="M123.89,148H26.13V2.94h97.76V148z M37.67,136.45h74.67V14.48H37.67V136.45z"/>
	<path class="st1" d="M99.32,130.42H49.69V99.31h49.63V130.42z M54.71,125.41h39.59v-21.08H54.71V125.41z"/>
	<path class="st1" d="M86.47,102.25c-0.97-4.52-4.35-8.03-8.83-9.17c-6.56-1.66-13.33,2.34-15.08,8.93l-6.06-1.61
		C59.13,90.5,69.32,84.48,79.19,87c6.81,1.73,11.95,7.07,13.42,13.93L86.47,102.25z"/>
	<rect x="37.42" y="59.65" class="st1" width="84.12" height="6.53"/>
	<rect x="35.91" y="74.21" class="st1" width="84.12" height="6.52"/>
	<polygon class="st2" points="23.14,155.52 132.86,155.52 132.86,0.48 23.14,0.48 23.14,155.52 	"/>
</g>
</svg>
