<?xml version="1.0" encoding="utf-8"?>
<!-- Generator: Adobe Illustrator 28.0.0, SVG Export Plug-In . SVG Version: 6.00 Build 0)  -->
<svg version="1.1" id="Layer_1" xmlns="http://www.w3.org/2000/svg" xmlns:xlink="http://www.w3.org/1999/xlink" x="0px" y="0px"
	 viewBox="0 0 156 156" style="enable-background:new 0 0 156 156;" xml:space="preserve">
<style type="text/css">
	.st0{fill:#0000FF;}
</style>
<g>
	<path class="st0" d="M123.9,148H26.1V2.9h97.8V148z M37.7,136.4h74.7v-122H37.7V136.4z"/>
	<path class="st0" d="M99.3,130.4H49.7V99.3h49.6V130.4z M54.7,125.4h39.6v-21.1H54.7V125.4z"/>
	<path class="st0" d="M86.5,102.2c-1-4.5-4.3-8-8.8-9.2c-6.6-1.7-13.3,2.3-15.1,8.9l-6.1-1.6c2.6-9.9,12.8-15.9,22.7-13.4
		c6.8,1.7,11.9,7.1,13.4,13.9L86.5,102.2z"/>
	<rect x="37.4" y="59.7" class="st0" width="84.1" height="6.5"/>
	<rect x="35.9" y="74.2" class="st0" width="84.1" height="6.5"/>
</g>
</svg>
