<?xml version="1.0" encoding="utf-8"?>
<!-- Generator: Adobe Illustrator 28.0.0, SVG Export Plug-In . SVG Version: 6.00 Build 0)  -->
<svg version="1.1" id="Layer_1" xmlns="http://www.w3.org/2000/svg" xmlns:xlink="http://www.w3.org/1999/xlink" x="0px" y="0px"
	 viewBox="0 0 156 156" style="enable-background:new 0 0 156 156;" xml:space="preserve">
<style type="text/css">
	.st0{fill:#0000FF;stroke:#0000FF;stroke-width:0.154;stroke-miterlimit:10;}
	.st1{fill:#0000FF;}
</style>
<g id="MasterSlide_1_Standard">
	<g id="Drawing_1">
		<path class="st0" d="M13.9,77.5L13.9,77.5c-0.1-0.2-0.1-0.5,0-0.6l0.1-3.5l0,0c0.1-0.2,0.1-0.5,0.1-0.6l0.9-3.5l0,0
			c0.1-0.2,0.1-0.3,0.3-0.6l1.4-3.4l0,0c0.1,0,0.3-0.3,0.3-0.3l0,0l2-3.4l2.9-3.4l3.2-3.2l3.9-2.9l4.2-2.6l4.6-2.5l4.9-2.2l5.2-1.8
			l5.5-1.4l5.7-1.4l6.2-0.9l6.2-0.5l6.6-0.3l6.2,0.3l6.3,0.5l6,0.9l5.8,1.2l5.4,1.5l5.4,1.7l4.9,2.3l4.6,2.3l4,2.6l3.9,2.9l3.4,3.1
			l2.8,3.4l2.3,3.7l0,0c0.1,0,0.1,0.3,0.3,0.3l1.5,3.4l0,0c0,0.3,0,0.5,0.1,0.6l0.9,3.5l0,0c0,0.2,0,0.5,0.1,0.6l0.1,3.5l0,0
			c0.3,0.2,0.3,0.5,0,0.6l-0.1,3.7l0,0c-0.1,0.2-0.1,0.3-0.1,0.6l-0.9,3.4l0,0c-0.1,0.3-0.1,0.5-0.1,0.6l-1.5,3.4l0,0
			c-0.1,0.2-0.1,0.3-0.3,0.5l0,0l-2,3.2l-2.8,3.5l-3.4,3.1l-3.8,2.9l-4.2,2.8l-4.6,2.3l-4.9,2.3l-5.2,1.7l-5.5,1.5l-5.8,1.4
			l-5.8,0.8l-6.2,0.6l-6.6,0.2l-6.3-0.2l-6.3-0.6l-6-0.8l-5.8-1.2l-5.4-1.7l-5.2-1.7l-4.9-2.2l-4.6-2.2l-4.2-2.8l-3.9-2.9l-3.2-3.1
			l-2.9-3.4l-2.3-3.7l0,0c0-0.2-0.1-0.3-0.3-0.5l-1.4-3.4l0,0c-0.1-0.2-0.1-0.3-0.3-0.6l-0.9-3.4l0,0c0-0.3,0-0.5-0.1-0.6L13.9,77.5
			z M21.9,80.4L21.9,80.4l-0.1-0.6l0.9,3.4l-0.1-0.5l1.4,3.2l-0.1-0.5l1.7,2.8l2.3,2.8l2.8,2.6l3.1,2.5l3.7,2.3l4,2.2l4.3,1.8
			l4.8,1.7l5.1,1.4l5.2,1.2l5.7,0.8l5.7,0.6h6.2h5.7l5.8-0.6l5.7-0.8l5.2-1.1l4.9-1.4l4.8-1.8l4.5-1.7l4-2.2l3.7-2.2l3.1-2.5
			l2.8-2.5l2.2-2.8l2.2-3.2l-0.3,0.5l1.5-3.2l-0.3,0.5l0.9-3.4l-0.1,0.6l0.3-3.5v0.6l-0.3-3.5l0.1,0.8l-0.9-3.5l0.3,0.6l-1.5-3.4
			l0.3,0.5l-1.9-2.8l-2.3-2.6l-2.8-2.6l-2.9-2.5l-3.7-2.3l-4-2.3l-4.5-1.7l-4.8-1.7L101,49l-5.5-1.2L90.1,47l-5.8-0.6l-6-0.2
			l-5.8,0.2l-5.8,0.5L61,47.8l-5.2,1.1l-5.1,1.4l-4.8,1.7l-4.5,1.8l-4,2l-3.5,2.3l-3.2,2.5l-2.8,2.6l-2.2,2.6l-2,3.1l0.1-0.5
			l-1.4,3.4l0.1-0.6l-0.9,3.5l0.1-0.8l-0.3,3.5v-0.6L21.9,80.4z"/>
		<path class="st1" d="M81.2,24.2v18.9h-6V24.2H81.2z"/>
		<path class="st1" d="M81.2,111.4v19.1h-6v-19.1C75.2,111.4,81.2,111.4,81.2,111.4z"/>
		<path class="st1" d="M137.1,74.1H156v6h-18.9V74.1z"/>
		<path class="st1" d="M0,74.1h18.9v6H0V74.1z"/>
		<path class="st1" d="M120.3,103.2l10.6,15.4l-4.6,3.2l-10.8-15.2L120.3,103.2z"/>
		<path class="st1" d="M30.8,32.7l10.9,15.5l-4.9,3.5L25.9,36.1L30.8,32.7z"/>
		<path class="st1" d="M39.1,104.6L28.3,120l-4.8-3.2l10.8-15.4L39.1,104.6z"/>
		<path class="st1" d="M130.3,36.5l-10.8,15.2l-4.6-3.2l10.6-15.4L130.3,36.5z"/>
		<path class="st1" d="M58.7,110.4l-4.3,18.2l-5.7-1.4l4.6-18.2L58.7,110.4z"/>
		<path class="st1" d="M106.3,27.1l-4.5,18.3l-5.5-1.4l4.5-18.3L106.3,27.1z"/>
		<path class="st1" d="M102.1,109.4l4.5,18.2l-5.5,1.4l-4.6-18.2L102.1,109.4z"/>
		<path class="st1" d="M55.3,25.3l4.5,18.2l-5.4,1.4l-4.6-18.2L55.3,25.3z"/>
		<path class="st1" d="M134.3,92l15.7,10.2l-3.1,4.9l-15.7-10.3L134.3,92z"/>
		<path class="st1" d="M8.8,49.2l15.6,10.2l-3.1,4.8L5.5,53.8L8.8,49.2z"/>
		<path class="st1" d="M150.3,52.5l-15.7,10.2l-3.1-4.8l15.7-10.2L150.3,52.5z"/>
		<path class="st1" d="M23.7,95.3L8,105.5l-3.1-4.8l15.7-10.2L23.7,95.3z"/>
	</g>
</g>
</svg>
