<?xml version="1.0" encoding="utf-8"?>
<!-- Generator: Adobe Illustrator 28.0.0, SVG Export Plug-In . SVG Version: 6.00 Build 0)  -->
<svg version="1.1" id="Layer_1" xmlns="http://www.w3.org/2000/svg" xmlns:xlink="http://www.w3.org/1999/xlink" x="0px" y="0px"
	 viewBox="0 0 156 156" style="enable-background:new 0 0 156 156;" xml:space="preserve">
<style type="text/css">
	.st0{fill:#0000FF;stroke:#0000FF;stroke-width:0.154;stroke-miterlimit:10;}
	.st1{fill:#0000FF;}
	.st2{fill:none;stroke:#0000FF;stroke-width:0.154;stroke-miterlimit:10;}
</style>
<g id="MasterSlide_1_Standard">
	<g id="Drawing_1">
		<path class="st0" d="M13.86,77.48L13.86,77.48c-0.15-0.15-0.15-0.46,0-0.62l0.15-3.54l0,0c0.15-0.15,0.15-0.46,0.15-0.62
			l0.92-3.54l0,0c0.15-0.15,0.15-0.31,0.31-0.62l1.39-3.39l0,0c0.15,0,0.31-0.31,0.31-0.31l0,0l2-3.39l2.93-3.39l3.23-3.23
			l3.85-2.93l4.16-2.62l4.62-2.46l4.93-2.16l5.24-1.85l5.54-1.39l5.7-1.39l6.16-0.92l6.16-0.46l6.62-0.31l6.16,0.31l6.31,0.46
			l6.01,0.92l5.85,1.23l5.39,1.54l5.39,1.69l4.93,2.31l4.62,2.31l4,2.62l3.85,2.93l3.39,3.08l2.77,3.39l2.31,3.7l0,0
			c0.15,0,0.15,0.31,0.31,0.31l1.54,3.39l0,0c0,0.31,0,0.46,0.15,0.62l0.92,3.54l0,0c0,0.15,0,0.46,0.15,0.62l0.15,3.54l0,0
			c0.31,0.15,0.31,0.46,0,0.62l-0.15,3.7l0,0c-0.15,0.15-0.15,0.31-0.15,0.62l-0.92,3.39l0,0c-0.15,0.31-0.15,0.46-0.15,0.62
			l-1.54,3.39l0,0c-0.15,0.15-0.15,0.31-0.31,0.46l0,0l-2,3.23l-2.77,3.54l-3.39,3.08l-3.85,2.93l-4.16,2.77l-4.62,2.31l-4.93,2.31
			l-5.24,1.69l-5.54,1.54l-5.85,1.39l-5.85,0.77l-6.16,0.62l-6.62,0.15l-6.31-0.15l-6.31-0.62l-6.01-0.77l-5.85-1.23l-5.39-1.69
			l-5.24-1.69l-4.93-2.16l-4.62-2.16l-4.16-2.77l-3.85-2.93l-3.23-3.08l-2.93-3.39l-2.31-3.7l0,0c0-0.15-0.15-0.31-0.31-0.46
			L15.4,85.8l0,0c-0.15-0.15-0.15-0.31-0.31-0.62l-0.92-3.39l0,0c0-0.31,0-0.46-0.15-0.62L13.86,77.48z M21.87,80.41L21.87,80.41
			l-0.15-0.62l0.92,3.39l-0.15-0.46l1.39,3.23l-0.15-0.46l1.69,2.77l2.31,2.77l2.77,2.62l3.08,2.46l3.7,2.31l4,2.16l4.31,1.85
			l4.77,1.69l5.08,1.39l5.24,1.23l5.7,0.77l5.7,0.62h6.16h5.7l5.85-0.62l5.7-0.77l5.24-1.08l4.93-1.39l4.77-1.85l4.47-1.69l4-2.16
			l3.7-2.16l3.08-2.46l2.77-2.46l2.16-2.77l2.16-3.23l-0.31,0.46l1.54-3.23l-0.31,0.46l0.92-3.39l-0.15,0.62l0.31-3.54v0.62
			l-0.31-3.54l0.15,0.77l-0.92-3.54l0.31,0.62l-1.54-3.39l0.31,0.46l-1.85-2.77l-2.31-2.62l-2.77-2.62l-2.93-2.46l-3.7-2.31l-4-2.31
			l-4.47-1.69l-4.77-1.69l-4.93-1.39l-5.54-1.23l-5.39-0.77l-5.85-0.62l-6.01-0.15l-5.85,0.15l-5.85,0.46l-5.54,0.92l-5.24,1.08
			l-5.08,1.39l-4.77,1.69l-4.47,1.85l-4,2l-3.54,2.31l-3.23,2.46l-2.77,2.62l-2.16,2.62l-2,3.08l0.15-0.46l-1.39,3.39l0.15-0.62
			l-0.92,3.54l0.15-0.77l-0.31,3.54v-0.62L21.87,80.41z"/>
		<path class="st1" d="M81.16,24.2v18.94h-6.01V24.2H81.16z"/>
		<path class="st2" d="M81.16,24.2v18.94h-6.01V24.2H81.16z"/>
		<path class="st1" d="M81.16,111.36v19.1h-6.01v-19.1H81.16z"/>
		<path class="st2" d="M81.16,111.36v19.1h-6.01v-19.1H81.16z"/>
		<path class="st1" d="M137.06,74.09H156v6.01h-18.94V74.09z"/>
		<path class="st2" d="M137.06,74.09H156v6.01h-18.94V74.09z"/>
		<path class="st1" d="M0,74.09h18.94v6.01H0V74.09z"/>
		<path class="st2" d="M0,74.09h18.94v6.01H0V74.09z"/>
		<path class="st1" d="M120.27,103.2l10.63,15.4l-4.62,3.23l-10.78-15.25L120.27,103.2z"/>
		<path class="st2" d="M120.27,103.2l10.63,15.4l-4.62,3.23l-10.78-15.25L120.27,103.2z"/>
		<path class="st1" d="M30.8,32.67l10.93,15.55l-4.93,3.54L25.87,36.06L30.8,32.67z"/>
		<path class="st2" d="M30.8,32.67l10.93,15.55l-4.93,3.54L25.87,36.06L30.8,32.67z"/>
		<path class="st1" d="M39.12,104.59l-10.78,15.4l-4.77-3.23l10.78-15.4L39.12,104.59z"/>
		<path class="st2" d="M39.12,104.59l-10.78,15.4l-4.77-3.23l10.78-15.4L39.12,104.59z"/>
		<path class="st1" d="M130.28,36.52L119.5,51.76l-4.62-3.23l10.63-15.4L130.28,36.52z"/>
		<path class="st2" d="M130.28,36.52L119.5,51.76l-4.62-3.23l10.63-15.4L130.28,36.52z"/>
		<path class="st1" d="M58.67,110.44l-4.31,18.17l-5.7-1.39l4.62-18.17L58.67,110.44z"/>
		<path class="st2" d="M58.67,110.44l-4.31,18.17l-5.7-1.39l4.62-18.17L58.67,110.44z"/>
		<path class="st1" d="M106.26,27.12l-4.47,18.33l-5.54-1.39l4.47-18.33L106.26,27.12z"/>
		<path class="st2" d="M106.26,27.12l-4.47,18.33l-5.54-1.39l4.47-18.33L106.26,27.12z"/>
		<path class="st1" d="M102.1,109.36l4.47,18.17l-5.54,1.39l-4.62-18.17L102.1,109.36z"/>
		<path class="st2" d="M102.1,109.36l4.47,18.17l-5.54,1.39l-4.62-18.17L102.1,109.36z"/>
		<path class="st1" d="M55.29,25.28l4.47,18.17l-5.39,1.39l-4.62-18.17L55.29,25.28z"/>
		<path class="st2" d="M55.29,25.28l4.47,18.17l-5.39,1.39l-4.62-18.17L55.29,25.28z"/>
		<path class="st1" d="M134.29,91.96l15.71,10.16l-3.08,4.93l-15.71-10.32L134.29,91.96z"/>
		<path class="st2" d="M134.29,91.96l15.71,10.16l-3.08,4.93l-15.71-10.32L134.29,91.96z"/>
		<path class="st1" d="M8.78,49.15l15.55,10.16l-3.08,4.77L5.54,53.77L8.78,49.15z"/>
		<path class="st2" d="M8.78,49.15l15.55,10.16l-3.08,4.77L5.54,53.77L8.78,49.15z"/>
		<path class="st1" d="M150.3,52.53L134.59,62.7l-3.08-4.77l15.71-10.16L150.3,52.53z"/>
		<path class="st2" d="M150.3,52.53L134.59,62.7l-3.08-4.77l15.71-10.16L150.3,52.53z"/>
		<path class="st1" d="M23.72,95.35L8.01,105.51l-3.08-4.77l15.71-10.16L23.72,95.35z"/>
		<path class="st2" d="M23.72,95.35L8.01,105.51l-3.08-4.77l15.71-10.16L23.72,95.35z"/>
	</g>
</g>
</svg>
