<?xml version="1.0" encoding="utf-8"?>
<!-- Generator: Adobe Illustrator 28.0.0, SVG Export Plug-In . SVG Version: 6.00 Build 0)  -->
<svg version="1.1" id="Layer_1" xmlns="http://www.w3.org/2000/svg" xmlns:xlink="http://www.w3.org/1999/xlink" x="0px" y="0px"
	 viewBox="0 0 156 156" width="156px" height="156px"  style="enable-background:new 0 0 156 156;" xml:space="preserve">
<style type="text/css">
	.st0{fill:#FF0000;}
</style>
<g>
	<path class="st0" d="M78,0c25.8,0,51.6,0,77.4,0c0.6,0,0.6-0.1,0.6,0.6c0,51.6,0,103.2,0,154.9c0,0.6,0,0.6-0.6,0.6
		c-51.6,0-103.2,0-154.9,0c-0.1,0-0.2,0-0.3,0C0,156,0,155.9,0,155.7c0-0.1,0-0.2,0-0.3C0,103.8,0,52.2,0,0.6c0-0.1,0-0.2,0-0.3
		C0,0.1,0.1,0,0.3,0c0.1,0,0.2,0,0.3,0C26.4,0,52.2,0,78,0z M77.8,5.6c-24,0-47.9,0-71.9,0c-0.5,0-0.5,0-0.5,0.5
		c0,47.8,0,95.6,0,143.5c0,0.5,0,0.5,0.5,0.5c7.2,0,14.4,0,21.6-0.1c2.4,0,4.8,0,7.2,0c7.3,0,14.6,0,21.8-0.1c2.4,0,4.7,0,7.1,0
		c7.3,0,14.6,0,21.8-0.1c2.4,0,4.7,0,7.1,0c7.3,0,14.6,0,21.8-0.1c4.6,0,9.1,0,13.7,0c2.6,0,5.3,0,7.9,0c3.3,0,6.7,0,10,0
		c1.2,0,2.4,0,3.5,0c0.8,0,0.7,0.1,0.7-0.7c0-47.6,0-95.2,0-142.8c0-0.7,0.1-0.6-0.6-0.6C125.6,5.6,101.7,5.6,77.8,5.6z"/>
	<path class="st0" d="M42.6,34.8c0.6,0.4,1.2,0.8,1.7,1.1c1.7,1.1,3.5,2,5.4,2.6c1.6,0.5,3.2,1.1,4.8,1.7c0.6,0.2,1.2,0.5,1.8,0.6
		c0.7,0.1,1.4,0.3,2.2,0.3c0.6,0,1.2,0.1,1.8,0.1c1.7-0.1,3.4-0.2,5.2-0.4c1.2-0.1,2.4-0.3,3.6-0.5c1.7-0.2,3.4-0.6,5.1-1
		c3.3-0.8,6.7-1.5,10-2.2c0.3-0.1,0.4,0,0.5,0.3c0.1,0.3,0.3,0.7,0.2,1c-0.1,0.3-0.6,0.3-0.9,0.4c-5.8,2.5-11.5,5.1-17.3,7.6
		c-1.5,0.6-3,1.3-4.5,1.9c-0.5,0.2-1,0.4-1.6,0.6c0.7,0.5,1.3,1,1.9,1.4c1.1,0.8,2.2,1.7,3.4,2.5c1.4,1,2.7,2,4.1,3
		c0.1,0.1,0.2,0.2,0.4,0.2c3.6,0.9,7.2,1.8,10.9,2.6c2.2,0.5,4.4,1,6.7,1.3c0.8,0.1,1.6,0.2,2.5,0.3c0.9,0,1.8,0.1,2.6,0.1
		c1.3,0,2.5-0.2,3.8-0.4c3.8-0.5,7.6-1.3,11.4-2.2c0,0,0,0,0.1,0c0-0.1-0.1-0.2-0.2-0.2c-3.3-2.9-6.7-5.8-10-8.8
		c-0.3-0.3-0.7-0.6-1.1-0.9c-0.4-0.3-0.5-0.5-0.3-0.9c0.1-0.3,0.2-0.4,0.5-0.3c1.7,0.6,3.4,1.2,5.1,1.7c2.6,0.8,5.2,1.8,7.9,2.6
		c1,0.3,2.1,0.7,3.1,1c1.6,0.3,3.2,0.4,4.7,0.3c1.4-0.1,2.8-0.6,4-1.3c0.2-0.2,0.3-0.2,0.1-0.5c-2.2-2.5-4.4-5-6.5-7.5
		c-0.1-0.1-0.2-0.2-0.3-0.3c0.3,0,0.5,0.1,0.8,0.2c1.1,0.4,2.2,0.8,3.4,1.2c1,0.3,2,0.7,3.1,0.9c2,0.4,4,0.8,6,0.6
		c1.8-0.1,3.6-0.4,5.4-0.7c1.7-0.3,3.3-0.8,5-1.4c1.9-0.7,3.7-1.6,5.6-2.4c0.6-0.3,1.2-0.6,1.7-1c0.2-0.1,0.4-0.1,0.6,0.1
		c0.5,0.7,0.5,0.6-0.1,1.2c-2.3,2-4.4,4.1-6.5,6.3c-0.8,0.8-1.6,1.5-2.4,2.3c-1.8,2-3.6,3.9-5.4,5.9c-0.2,0.2-0.3,0.5-0.4,0.8
		c-0.6,1.5-1,3.1-1.4,4.6c-0.6,2-1,4-1.5,5.9c0,0.1,0,0.1-0.1,0.2c-0.4-1-0.9-2-1.3-3c-0.7-1.8-1.5-3.6-2.2-5.4
		c0-0.1-0.1-0.2-0.1-0.3c-0.1-0.2-0.3-0.3-0.5-0.1c-1,0.7-2,1.4-2.8,2.3c-1.1,1.1-1.8,2.5-2.2,4c-0.4,1.6-0.5,3.3-0.7,5
		c-0.2,2.6-0.4,5.1-0.7,7.7c-0.1,1.3-0.2,2.7-0.3,4c0,0.3-0.1,0.6-0.5,0.6c-0.3,0-0.7,0.3-0.9,0.2c-0.2-0.1-0.2-0.6-0.3-0.9
		c-1.1-4.4-2.2-8.8-3.3-13.2c-0.1-0.5-0.1-0.5-0.6-0.2c-1.2,0.8-2.5,1.5-3.5,2.7c-0.9,1-1.8,2-2.5,3.2c-0.5,0.9-1.1,1.8-1.5,2.8
		c-0.5,1.2-1.1,2.5-1.4,3.7c-0.3,1-0.3,1,0.5,1.5c2,1.4,4,3,6,4.5c4.9,3.7,9.7,7.5,14.7,11.2c2.7,2,5.4,4,8,6.1
		c0.1,0.1,0.2,0.2,0.3,0.3c-0.6-0.1-1.2-0.1-1.9-0.2c-2.2-0.2-4.5-0.5-6.7-0.7c-1-0.1-2.1-0.2-3.1-0.4c-0.3,0-0.4,0.1-0.4,0.3
		c-0.1,1.5-0.2,3-0.3,4.6c-0.1,1-0.1,2-0.2,3c-0.2,0-0.3-0.1-0.4-0.2c-2.3-1.6-4.5-3.2-6.8-4.9c-0.2-0.2-0.4-0.2-0.6,0.1
		c-0.6,0.7-1.3,1.4-1.9,2c-0.7,0.7-1.5,1.4-2.1,2.2c-0.2,0.2-0.3,0.1-0.5-0.1c-2.9-2.9-5.9-5.8-8.8-8.6c-0.1-0.1-0.2-0.3-0.3-0.3
		c-0.2,0-0.1,0.3-0.2,0.4c-1,4-1.9,7.9-2.8,11.9c-0.1,0.3-0.2,0.5-0.6,0.5c-1,0-1,0-1-1c0.1-5.1,0.2-10.2,0.4-15.3
		c0-0.3-0.1-0.5-0.3-0.7c-2.8-2.7-5.5-5.4-8.3-8.1c-0.2-0.2-0.4-0.2-0.6,0c-1.4,1.1-2.9,2.2-4.3,3.2c-3.5,2.5-6.9,5.1-10.4,7.6
		c-1.5,1-2.9,2.1-4.4,3.2c-1.9,1.3-3.7,2.7-5.6,4.1c-0.2,0.2-0.4,0.2-0.6,0c-0.8-0.9-1.7-1.7-2.5-2.5c-0.2-0.2-0.2-0.3,0-0.5
		c0.9-1.3,1.9-2.6,2.8-3.8c0.4-0.6,0.9-1.1,1.4-1.8c-0.8,0.1-1.5,0.1-2.2,0.2c-2.2,0.2-4.4,0.5-6.6,0.7c-0.8,0.1-0.8,0.1-1-0.7
		c-0.3-0.9-0.6-1.7-1-2.6c-0.1-0.2-0.1-0.3,0.1-0.4c1.5-0.9,3-2,4.4-3c1.7-1.1,3.3-2.3,4.9-3.4c0.3-0.2,0.2-0.3,0-0.5
		c-1.4-1.3-2.9-2.6-4.3-3.9c0,0-0.1-0.1-0.1-0.1c0-0.2,0.2-0.2,0.3-0.2c0.9-0.5,1.8-1,2.8-1.4c2.3-1,4.4-2.3,6.7-3.4
		c2.2-1.1,4.4-2.3,6.6-3.4c0.2-0.1,0.3-0.2,0.1-0.4c-2.1-2.1-4.2-4.3-6.3-6.4c-1.2-1.1-2.3-2.3-3.4-3.4c-3.3-3.2-6.5-6.6-9.8-9.9
		c-0.2-0.2-0.3-0.3-0.5,0.1c-0.3,0.8-0.7,1.7-1.1,2.5c-1.1,2.2-2,4.5-3,6.7c-2.5,5.6-4.9,11.3-7.4,17C40.9,83,40.4,84,40,85
		c-0.1,0.3-0.2,0.3-0.4,0.1c-0.7-0.5-0.7-0.5-0.5-1.3c0.3-1.7,0.7-3.4,1-5.2c0.5-2.6,0.8-5.2,1.1-7.8c0.3-2.8,0.5-5.7,0.4-8.5
		c-0.1-1.7-0.2-3.3-0.5-5c-0.2-1.2-0.3-2.5-0.5-3.7c-0.2-0.9-0.4-1.8-0.6-2.7c-0.3-1.6-0.8-3.1-1.2-4.7c-0.3-1.4-0.8-2.8-1.2-4.2
		c0-0.1,0-0.2-0.1-0.2c-0.1,0-0.1,0.1-0.1,0.1c-1.1,1.9-2.1,3.9-3.1,5.9c-2.1,3.9-4.1,7.9-6.1,11.8c-0.1,0.2-0.2,0.3-0.4,0.1
		c-0.8-0.5-0.8-0.5-0.6-1.4c1-3.8,1.9-7.6,2.8-11.4c0.4-1.7,0.7-3.4,1-5.2c0.1-0.9,0.1-1.8-0.1-2.7c-0.1-0.9-0.3-1.9-0.5-2.7
		c-0.3-1-0.6-2-1.2-2.9c-0.3-0.4-0.6-0.9-0.8-1.3c-0.4-0.7-1-1.1-1.5-1.7c-0.2-0.2-0.3-0.2-0.5,0.1c-1.3,2-2.5,4.1-3.8,6.1
		c-1.1,1.7-2.2,3.5-3.3,5.3c-0.1,0.2-0.2,0.2-0.4,0.1c-0.3-0.2-0.6-0.3-0.9-0.4c-0.2-0.1-0.2-0.2-0.1-0.4c0.5-1,0.7-2.2,1.1-3.2
		c0.5-1.1,0.7-2.3,1-3.5c0.4-1.6,0.4-3.2,0.3-4.9c0-0.6-0.2-1.2-0.4-1.8c-0.4-1.1-0.9-2.1-1.4-3.1c-0.9-2-2.1-3.9-3.2-5.8
		c-0.8-1.4-1.6-2.7-2.5-4c-0.8-1.2-1.7-2.4-2.8-3.4c-0.2-0.2-0.2-0.3,0-0.5c0.2-0.2,0.3-0.5,0.5-0.6c0.2-0.1,0.4,0.3,0.5,0.4
		c1.3,1,2.5,2,3.9,3c1.2,0.8,2.4,1.6,3.6,2.3c1.4,0.8,2.8,1.7,4.4,2.1c1,0.3,1.9,0.7,2.9,0.9c0.5,0.1,1,0.2,1.5,0.2
		c1.3,0.1,2.7,0.2,4,0c0.7-0.1,1.4,0,2-0.1c1.1-0.1,2.3-0.3,3.4-0.5c0.6-0.1,1.1-0.2,1.7-0.3c0.3,0,0.4,0,0.6,0.2
		c0.2,0.3,0.6,0.5,0.6,0.8c0,0.3-0.5,0.4-0.8,0.5c-2.8,1.6-5.5,3.3-8.3,4.9c-0.1,0.1-0.2,0.2-0.4,0.3c0.8,0.7,1.6,1.4,2.4,1.9
		c0.4,0.3,1.1,0.3,1.6,0.4c1.2,0.3,2.3,0.3,3.5,0.3c3.1,0.1,6.2-0.3,9.3-0.7c1.1-0.2,2.2-0.4,3.3-0.6c1.6-0.3,3.2-0.7,4.8-1
		c0.3-0.1,0.5,0.1,0.6,0.3c0.4,0.6,0.4,0.6-0.2,1c-1.2,0.7-2.3,1.5-3.5,2.2c-1.2,0.7-2.4,1.5-3.6,2.2c-1.9,1.1-3.6,2.3-5.5,3.4
		C42.7,34.7,42.6,34.7,42.6,34.8z M121.5,55.9C121.5,55.8,121.5,55.8,121.5,55.9c-0.2,0-0.4,0.1-0.6,0.2c-3.6,1.8-7.2,3.7-10.9,5.5
		c-2.7,1.3-5.3,2.8-8,4c-2.3,1.1-4.5,2.3-6.7,3.4c-5.1,2.5-10.1,5.2-15.1,7.7c-4,2-7.8,4.1-11.8,6c-1.5,0.7-2.9,1.5-4.4,2.2
		C63.7,85,63.7,85,64,85.3c1.2,1.2,2.4,2.5,3.6,3.7c0.2,0.2,0.2,0.3-0.1,0.4c-0.5,0.3-1,0.6-1.5,1c-1.6,1-3.1,2-4.6,3
		c-0.1,0.1-0.2,0.1-0.2,0.2c1.6-0.2,3.2-0.4,4.8-0.6c0.4,0,0.8,0,1.2-0.3c5.2-3.5,10.2-7.1,15.5-10.5c4.6-3,9-6.2,13.5-9.2
		c3.9-2.6,7.6-5.3,11.5-7.8c1-0.6,2-1.3,3-2c2.5-1.7,5-3.4,7.5-5.1C119.3,57.4,120.4,56.6,121.5,55.9z M118.7,98.6c0,0,0-0.1,0-0.1
		c-0.2-0.1-0.3-0.2-0.5-0.4c-2.8-2.1-5.5-4.2-8.2-6.2c-2.5-1.9-5-3.8-7.5-5.7c-0.2-0.2-0.3-0.2-0.4,0.1c-0.7,3.1-1.5,6.1-2.2,9.2
		c-0.1,0.3,0,0.4,0.2,0.6c1.2,1.2,2.4,2.4,3.7,3.6c1.4,1.3,2.8,2.8,4.2,4.2c0.2,0.2,0.3,0.2,0.5,0c1.1-1.3,2.3-2.6,3.4-3.9
		c0.2-0.2,0.3-0.2,0.5,0c1.3,0.9,2.5,1.8,3.8,2.6c0.2,0.2,0.3,0.2,0.3-0.2c0.1-1.2,0.2-2.3,0.3-3.5c0-0.3,0.1-0.4,0.4-0.4
		C117.8,98.6,118.2,98.6,118.7,98.6z M45.8,42.9c0.1,0.1,0.2,0.1,0.3,0.2c2,1.9,3.9,3.8,5.8,5.7c4.9,4.7,9.7,9.6,14.6,14.4
		c0.9,0.9,1.8,1.8,2.7,2.6c2.4,2.3,4.8,4.7,7.2,7.1c0.6,0.6,0.6,0.6,1.3,0.2c1.5-0.7,3-1.4,4.5-2.1c0.4-0.2,0.4-0.2,0-0.4
		c-0.5-0.4-1-0.7-1.5-1.1c-1.9-1.4-3.7-2.9-5.6-4.3c-3.1-2.3-6-4.7-9.1-6.9c-5-3.7-9.8-7.6-14.8-11.3c-1.7-1.2-3.4-2.6-5-3.9
		C46,42.9,46,42.8,45.8,42.9z M94.7,90.8c0-3.1,0-6.3,0-9.4c-0.6,0.5-1.2,0.9-1.7,1.3c-1.2,0.9-2.3,1.8-3.4,2.7
		c-0.3,0.2-0.3,0.3,0,0.5c1.6,1.5,3.2,3.1,4.9,4.7C94.4,90.7,94.5,90.8,94.7,90.8z"/>
	<path class="st0" d="M47.7,94.3c0.5,1.6,1,3.2,1.5,4.7c0.7,2.1,1.4,4.3,2.1,6.4c0.1,0.4,0.4,0.7,0.4,1.1c0.1,0.2,0.2,0.2,0.3,0.1
		c1.1-0.7,2.3-1.3,3.4-2c0.4-0.2,0.4-0.2,0.4,0.2c0.2,2.4,0.5,4.8,0.7,7.3c0.3,2.6,0.5,5.3,0.8,7.9c0.2,2.4,0.5,4.8,0.7,7.2
		c0.1,1,0.2,2,0.3,3.1c0,0.2-0.1,0.3-0.2,0.3c-0.5,0.3-1,0.6-1.5,0.7c-0.5,0.2-1,0.4-1.5,0.5c-1.3,0.5-2.7,0.8-4.1,1.1
		c-0.7,0.1-1.4,0.3-2,0.4c-1,0.2-2.1,0.1-3.1,0.2c-0.8,0.1-1.6,0-2.4,0c-2.2-0.1-4.4-0.4-6.5-1.2c-1.6-0.6-3-1.5-4.3-2.4
		c-0.2-0.1-0.2-0.3-0.2-0.5c0.1-3.6,0.2-7.2,0.2-10.8c0.1-5.8,0.2-11.7,0.4-17.5c0-1.4,0.1-2.8,0.1-4.2c0.2,0,0.2,0.1,0.3,0.1
		c0.8,0.6,1.6,1.2,2.4,1.7c1.8,1.1,3.5,2.5,5.3,3.7c0.2,0.1,0.3,0.1,0.4-0.1c0.6-0.9,1.2-1.8,1.9-2.7C45.1,98.1,46.3,96.2,47.7,94.3
		z M37.9,105.4c0,0.1,0,0.2,0,0.2c-0.1,2.4-0.2,4.8-0.2,7.2c-0.1,3-0.2,5.9-0.3,8.9c-0.1,1.9-0.1,3.8-0.2,5.7c0,0.2,0,0.4,0.2,0.5
		c1.1,0.6,2.2,1.3,3.5,1.5c0.9,0.1,1.7,0.3,2.6,0.4c1.5,0.1,2.9-0.2,4.4-0.3c0.4,0,0.4-0.2,0.4-0.5c0.1-2.1,0.3-4.2,0.4-6.3
		c0.2-2.9,0.4-5.8,0.6-8.8c0-0.3,0-0.5-0.1-0.7c-1-2.9-2-5.8-3-8.7c-0.1-0.3-0.2-0.5-0.3-0.8c-0.2,0.2-0.3,0.3-0.4,0.5
		c-1,1.4-2.1,2.7-3.1,4.1c-0.2,0.3-0.4,0.3-0.7,0.1C40.6,107.3,39.3,106.4,37.9,105.4z"/>
	<path class="st0" d="M134.5,117.7c0.3,1.8,0.5,3.6,0.8,5.4c0.4,3,0.9,5.9,1.3,8.9c0.3,2.2,0.6,4.4,1,6.6c0,0.2,0,0.4-0.3,0.4
		c-1.4,0.3-2.7,0.8-4.1,1.2c-1.9,0.5-3.7,0.9-5.6,1.2c-1,0.1-2,0.3-3.1,0.4c-1.5,0.1-3,0.1-4.6,0.1c-0.8,0-1.6-0.2-2.4-0.3
		c-0.8-0.1-1.5-0.3-2.3-0.4c-1-0.2-2-0.6-3-0.9c-1.1-0.4-2.1-0.9-3.1-1.4c-0.3-0.2-0.4-0.3-0.4-0.7c0.2-6.7,0.3-13.3,0.5-20
		c0-1.9,0.1-3.9,0.1-5.8c0-0.4,0-0.4,0.4-0.2c2.8,1.4,5.5,2.9,8.2,4.3c0.3,0.1,0.4,0.1,0.6-0.1c2.1-2.1,4.2-4.1,6.3-6.2
		c0.6-0.6,0.6-0.6,1,0.2c0.8,2,1.7,4,2.5,6c0.5,1.1,0.9,2.1,1.4,3.2c0.1,0.3,0.2,0.3,0.5,0.2C131.5,118.9,133,118.3,134.5,117.7z
		 M114.1,118.4c0,0.1,0,0.2,0,0.3c-0.1,1.8-0.1,3.5-0.2,5.3c-0.1,2.5-0.2,4.9-0.3,7.4c-0.1,1.6-0.1,3.2-0.2,4.8c0,0.2,0,0.3,0.2,0.4
		c1.1,0.4,2.1,0.9,3.2,1.2c0.9,0.3,1.8,0.5,2.8,0.6c1.2,0.1,2.4,0.2,3.6,0c1.3-0.2,2.5-0.3,3.8-0.8c0.4-0.1,0.4-0.3,0.4-0.6
		c-0.1-4-0.2-8-0.3-12c0-0.3-0.1-0.5-0.2-0.7c-0.7-1.5-1.3-3.1-2.1-4.6c-0.4-0.7-0.7-1.5-1-2.3c-0.1-0.3-0.2-0.3-0.4-0.1
		c-1.3,1.2-2.6,2.3-3.9,3.4c-0.2,0.2-0.3,0.2-0.6,0.1c-1.4-0.8-2.9-1.5-4.3-2.3C114.4,118.4,114.3,118.3,114.1,118.4z"/>
</g>
</svg>
