<?xml version="1.0" encoding="utf-8"?>
<!-- Generator: Adobe Illustrator 28.0.0, SVG Export Plug-In . SVG Version: 6.00 Build 0)  -->
<svg version="1.1" id="Layer_1" xmlns="http://www.w3.org/2000/svg" xmlns:xlink="http://www.w3.org/1999/xlink" x="0px" y="0px"
	 viewBox="0 0 156 156" style="enable-background:new 0 0 156 156;" xml:space="preserve">
<style type="text/css">
	.st0{fill:#FF0000;}
</style>
<path class="st0" d="M0,156C0,104,0,52,0,0c0.9,0,1.8,0,2.8,0c50.9,0,101.8,0,152.7,0c0.6,0,0.5-0.1,0.5,0.5c0,51.6,0,103.1,0,154.7
	c0,0.6,0.1,0.6-0.6,0.6c-23.7,0-47.3,0-71.1,0c-0.1,0-0.2,0-0.3,0c-0.2,0-0.3-0.1-0.3-0.3c0-0.7,0-1.5,0-2.2c0-21.2,0-42.5,0-63.7
	c0-0.3,0.1-0.5,0.2-0.7c2-4.2,3.8-8.4,5.8-12.6c2.8-6,5.5-12,8.3-18.2c0.1-0.2,0.2-0.3,0.5-0.2c2.3,0.7,4.6,1.5,7,2.2
	c0.2,0.1,0.5,0.1,0.7,0c1.1-0.4,2.3-0.7,3.4-1.1l0,0c2.7,6.1,5.2,12.3,7.8,18.4c2.2,5.1,4.3,10.2,6.5,15.3c0.1,0.3,0.2,0.4,0.6,0.2
	c2.8-1.1,5.5-2.3,8.3-3.4c6.4-2.7,12.8-5.4,19.2-8c0.3-0.1,0.3-0.3,0.2-0.5c-0.6-1.5-1.2-2.9-1.8-4.4c-0.9-2.1-1.7-4.2-2.7-6.3
	c-3.4-8-6.9-16.1-10.3-24.1c-0.1-0.3-0.2-0.3-0.4-0.1c-1.5,1.8-3.1,3.5-4.7,5.2c-1.6,1.8-3.2,3.5-4.8,5.3c-0.2,0.2-0.3,0.2-0.6,0
	c-1.3-1.2-2.8-2.5-4.1-3.7c-0.3-0.3-0.3-0.3-0.5,0.1c-1.5,3.4-3,6.8-4.5,10.2c-0.1,0.3-0.2,0.4-0.5,0.2c-2.2-1.4-4.3-2.8-6.5-4.2
	c-0.1-0.1-0.2-0.1-0.3-0.2c0.9-0.3,1.7-0.6,2.7-0.9c0.3-0.1,0.4-0.2,0.3-0.5c-0.8-2.5-1.6-5-2.5-7.5c0-0.1-0.1-0.2,0-0.4
	c5.4,1.1,11,2.4,16.4,3.5v-0.1c-7.4-4.3-14.7-8.6-22.1-12.9c5.5-2,11.2-3.6,16.7-5.6c-0.2-0.1-0.4-0.1-0.6-0.2
	c-6.3-1.9-12.4-3.7-18.7-5.5c-9.8-2.9-19.6-5.8-29.4-8.7C62,16.7,50.8,13.4,39.5,10c-7.2-2.1-14.4-4.3-21.7-6.4
	c-0.3-0.1-0.5-0.1-0.6,0.3c-0.9,2.7-1.7,5.5-2.7,8.2c-2.3,6.8-4.4,13.6-6.7,20.4c-0.1,0.4-0.1,0.5,0.3,0.6c5.1,1.5,10.2,3,15.3,4.5
	c7,2.1,14,4.2,20.9,6.2c6.3,1.9,12.5,3.7,18.8,5.6c0.4,0.1,0.4,0.2,0.2,0.5c-4.1,9.1-8.2,18.3-12.3,27.4c-1.2,2.8-2.6,5.6-3.8,8.4
	c-0.1,0.3-0.2,0.6-0.2,0.9c0,22.3,0,44.7,0,66.9c0,0.6,0,1.2,0,1.9c0,0.3-0.1,0.4-0.3,0.3c-0.1,0-0.2,0-0.3,0c-15.3,0-30.6,0-45.8,0
	C0.4,156,0.2,156,0,156z"/>
</svg>
