<?xml version="1.0" encoding="utf-8"?>
<!-- Generator: Adobe Illustrator 28.0.0, SVG Export Plug-In . SVG Version: 6.00 Build 0)  -->
<svg version="1.1" id="Layer_1" xmlns="http://www.w3.org/2000/svg" xmlns:xlink="http://www.w3.org/1999/xlink" x="0px" y="0px"
	 viewBox="0 0 156 156" style="enable-background:new 0 0 156 156;" xml:space="preserve">
<style type="text/css">
	.st0{fill-rule:evenodd;clip-rule:evenodd;fill:#FFFFFF;}
	.st1{fill:#FF0000;}
	.st2{fill-rule:evenodd;clip-rule:evenodd;fill:#FF0000;}
	.st3{fill:none;}
</style>
<g>
	<polygon class="st0" points="0.49,0 155.51,0 155.51,156 0.49,156 0.49,0 	"/>
	<polygon class="st0" points="1.47,1.83 152.49,1.83 152.49,152.98 1.47,152.98 1.47,1.83 	"/>
	<path class="st1" d="M152.32,152.81H1.64V2h150.69V152.81z M8.04,146.41h137.88V8.4H8.04V146.41z"/>
	<path class="st2" d="M20.18,75.46c0-5.3,4.26-9.6,9.52-9.6l0,0l0,0c5.26,0,9.52,4.3,9.52,9.6l0,0l0,0c0,5.3-4.26,9.61-9.52,9.61
		l0,0l0,0C24.44,85.07,20.18,80.77,20.18,75.46L20.18,75.46L20.18,75.46z"/>
	<path class="st1" d="M29.7,85.24c-5.34,0-9.69-4.38-9.69-9.77s4.35-9.77,9.69-9.77s9.69,4.38,9.69,9.77S35.04,85.24,29.7,85.24z
		 M29.7,66.03c-5.16,0-9.35,4.23-9.35,9.44s4.2,9.44,9.35,9.44s9.35-4.24,9.35-9.44S34.86,66.03,29.7,66.03z"/>
	<path class="st2" d="M115.41,75.04c0-5.26,4.26-9.52,9.52-9.52l0,0l0,0c5.26,0,9.52,4.26,9.52,9.52l0,0l0,0
		c0,5.26-4.26,9.52-9.52,9.52l0,0l0,0C119.67,84.56,115.41,80.3,115.41,75.04L115.41,75.04L115.41,75.04z"/>
	<path class="st1" d="M124.93,84.73c-5.34,0-9.69-4.34-9.69-9.69c0-5.34,4.34-9.69,9.69-9.69c5.34,0,9.69,4.35,9.69,9.69
		C134.62,80.39,130.28,84.73,124.93,84.73z M124.93,65.69c-5.16,0-9.35,4.2-9.35,9.35c0,5.16,4.2,9.35,9.35,9.35
		c5.16,0,9.35-4.2,9.35-9.35C134.29,69.89,130.09,65.69,124.93,65.69z"/>
	<path class="st1" d="M77.53,122.34l-32.8-50.58h68.17L77.53,122.34z M59,79.51l18.78,28.96l20.25-28.96H59z"/>
	
		<rect x="33.33" y="40.16" transform="matrix(0.827 -0.5622 0.5622 0.827 -24.0728 30.3039)" class="st1" width="7.75" height="28.21"/>
	
		<rect x="103.96" y="50.56" transform="matrix(0.522 -0.853 0.853 0.522 9.9886 126.7013)" class="st1" width="28.14" height="7.75"/>
	
		<rect x="42.43" y="60.37" transform="matrix(1 -2.047079e-03 2.047079e-03 1 -0.1314 0.1599)" class="st1" width="71.28" height="7.75"/>
	<polygon class="st3" points="0.97,155.51 155.03,155.51 155.03,0.49 0.97,0.49 0.97,155.51 	"/>
</g>
</svg>
