<?xml version="1.0" encoding="utf-8"?>
<!-- Generator: Adobe Illustrator 28.0.0, SVG Export Plug-In . SVG Version: 6.00 Build 0)  -->
<svg version="1.1" id="Layer_1" xmlns="http://www.w3.org/2000/svg" xmlns:xlink="http://www.w3.org/1999/xlink" x="0px" y="0px"
	 viewBox="0 0 156 156" width="156px" height="156px"  style="enable-background:new 0 0 156 156;" xml:space="preserve">
<style type="text/css">
	.st0{fill:#FF0000;}
</style>
<g>
	<path class="st0" d="M0,0v156h156h0V0H0z M149.4,149.4H6.6V6.6h142.7V149.4z"/>
	<ellipse class="st0" cx="29" cy="76" rx="10" ry="10.1"/>
	<ellipse class="st0" cx="127.6" cy="75.6" rx="10" ry="10"/>
	<path class="st0" d="M78.6,124.5l36.6-52.3H44.6L78.6,124.5z M78.8,110.1l-19.4-30h40.4L78.8,110.1z"/>
	<polygon class="st0" points="42.2,68 42.2,68.5 115.6,68.3 116.3,68.7 131.5,43.9 124.7,39.7 112.1,60.3 46,60.4 31.9,39.7 
		25.3,44.3 41.7,68.4 	"/>
</g>
</svg>
