<?xml version="1.0" encoding="utf-8"?>
<!-- Generator: Adobe Illustrator 28.0.0, SVG Export Plug-In . SVG Version: 6.00 Build 0)  -->
<svg version="1.1" id="Layer_1" xmlns="http://www.w3.org/2000/svg" xmlns:xlink="http://www.w3.org/1999/xlink" x="0px" y="0px"
	 viewBox="0 0 156 156" width="156px" height="156px"  style="enable-background:new 0 0 156 156;" xml:space="preserve">
<style type="text/css">
	.st0{fill:#FF0000;}
</style>
<g>
	
		<rect x="-10.6" y="46.3" transform="matrix(0.7073 -0.7069 0.7069 0.7073 -21.0969 52.864)" class="st0" width="127.7" height="11.3"/>
	
		<rect x="12.7" y="69.6" transform="matrix(0.7073 -0.7069 0.7069 0.7073 -30.765 76.1901)" class="st0" width="127.7" height="11.3"/>
	
		<rect x="36.6" y="93.4" transform="matrix(0.7073 -0.7069 0.7069 0.7073 -40.6296 100.0116)" class="st0" width="127.7" height="11.3"/>
	
		<rect x="94.5" y="-12.9" transform="matrix(0.7071 -0.7071 0.7071 0.7071 -6.7078 85.7232)" class="st0" width="11.3" height="127.7"/>
	
		<rect x="71.1" y="10.4" transform="matrix(0.7071 -0.7071 0.7071 0.7071 -30.0445 76.0453)" class="st0" width="11.3" height="127.7"/>
	
		<rect x="47.3" y="34.2" transform="matrix(0.7071 -0.7071 0.7071 0.7071 -53.8744 66.182)" class="st0" width="11.3" height="127.7"/>
</g>
</svg>
