<?xml version="1.0" encoding="utf-8"?>
<!-- Generator: Adobe Illustrator 28.0.0, SVG Export Plug-In . SVG Version: 6.00 Build 0)  -->
<svg version="1.1" id="Layer_1" xmlns="http://www.w3.org/2000/svg" xmlns:xlink="http://www.w3.org/1999/xlink" x="0px" y="0px"
	 viewBox="0 0 156 156" style="enable-background:new 0 0 156 156;" xml:space="preserve">
<style type="text/css">
	.st0{fill-rule:evenodd;clip-rule:evenodd;fill:#FFFFFF;}
	.st1{fill:#0000FF;}
	.st2{fill:none;}
</style>
<g>
	<polygon class="st0" points="23.64,0 132.36,0 132.36,156 23.64,156 23.64,0 	"/>
	<polygon class="st0" points="26.07,0.98 123.07,0.98 123.07,147.1 26.07,147.1 26.07,0.98 	"/>
	<path class="st1" d="M122.59,146.6H26.55V1.47h96.04V146.6z M37.91,135.25h73.33V12.82H37.91V135.25z"/>
	<path class="st1" d="M81.8,63.18H66.2c-2.04,0-3.7-1.66-3.7-3.7s1.66-3.7,3.7-3.7h15.6c2.05,0,3.7,1.66,3.7,3.7
		S83.84,63.18,81.8,63.18z"/>
	<path class="st1" d="M74.08,78.81c-2.04,0-3.7-1.65-3.7-3.7V59.47c0-2.04,1.66-3.7,3.7-3.7s3.7,1.66,3.7,3.7v15.64
		C77.78,77.16,76.12,78.81,74.08,78.81z"/>
	<path class="st1" d="M83.9,79.46H45.52c-2.04,0-3.7-1.65-3.7-3.7c0-2.04,1.66-3.7,3.7-3.7H83.9c2.05,0,3.7,1.66,3.7,3.7
		C87.6,77.81,85.95,79.46,83.9,79.46z"/>
	<path class="st1" d="M102.14,95.01c-2.05,0-3.7-1.65-3.7-3.7c0-6.53-6.51-11.85-14.51-11.85c-2.05,0-3.7-1.65-3.7-3.7
		c0-2.04,1.65-3.7,3.7-3.7c12.09,0,21.92,8.64,21.92,19.25C105.84,93.36,104.19,95.01,102.14,95.01z"/>
	<polygon class="st2" points="24.11,155.53 131.89,155.53 131.89,0.47 24.11,0.47 24.11,155.53 	"/>
</g>
</svg>
