<?xml version="1.0" encoding="utf-8"?>
<!-- Generator: Adobe Illustrator 28.0.0, SVG Export Plug-In . SVG Version: 6.00 Build 0)  -->
<svg version="1.1" id="Layer_1" xmlns="http://www.w3.org/2000/svg" xmlns:xlink="http://www.w3.org/1999/xlink" x="0px" y="0px"
	 viewBox="0 0 156 156" style="enable-background:new 0 0 156 156;" xml:space="preserve">
<style type="text/css">
	.st0{fill:#0000FF;}
</style>
<g>
	<path class="st0" d="M122.6,146.6h-96V1.5h96V146.6z M37.9,135.2h73.3V12.8H37.9V135.2z"/>
	<path class="st0" d="M81.8,63.2H66.2c-2,0-3.7-1.7-3.7-3.7s1.7-3.7,3.7-3.7h15.6c2.1,0,3.7,1.7,3.7,3.7S83.8,63.2,81.8,63.2z"/>
	<path class="st0" d="M74.1,78.8c-2,0-3.7-1.7-3.7-3.7V59.5c0-2,1.7-3.7,3.7-3.7s3.7,1.7,3.7,3.7v15.6
		C77.8,77.2,76.1,78.8,74.1,78.8z"/>
	<path class="st0" d="M83.9,79.5H45.5c-2,0-3.7-1.7-3.7-3.7c0-2,1.7-3.7,3.7-3.7h38.4c2.1,0,3.7,1.7,3.7,3.7
		C87.6,77.8,85.9,79.5,83.9,79.5z"/>
	<path class="st0" d="M102.1,95c-2.1,0-3.7-1.7-3.7-3.7c0-6.5-6.5-11.8-14.5-11.8c-2.1,0-3.7-1.7-3.7-3.7c0-2,1.7-3.7,3.7-3.7
		c12.1,0,21.9,8.6,21.9,19.2C105.8,93.4,104.2,95,102.1,95z"/>
</g>
</svg>
