<?xml version="1.0" encoding="utf-8"?>
<!-- Generator: Adobe Illustrator 28.0.0, SVG Export Plug-In . SVG Version: 6.00 Build 0)  -->
<svg version="1.1" id="Layer_1" xmlns="http://www.w3.org/2000/svg" xmlns:xlink="http://www.w3.org/1999/xlink" x="0px" y="0px"
	 viewBox="0 0 156 156" style="enable-background:new 0 0 156 156;" xml:space="preserve">
<style type="text/css">
	.st0{fill:#FF0000;}
	.st1{enable-background:new    ;}
	.st2{font-family:'MyriadPro-Regular';}
	.st3{font-size:26.1698px;}
</style>
<g>
	<path class="st0" d="M92.2,123.6c-15.3,0-30.7-4.1-42.7-12.4c-0.8-0.6-1.6-1.1-2.4-1.7l2.5-3.2c0.7,0.6,1.5,1.1,2.2,1.6
		c23.4,16.2,60.5,15.6,82.7-1.5c10.4-8,16-18.5,15.8-29.4c-0.3-11.2-6.6-21.7-17.8-29.5c-23.4-16.2-60.5-15.6-82.7,1.5l-2.5-3.3
		c23.5-18.1,62.8-18.8,87.6-1.6c12.3,8.6,19.3,20.2,19.6,32.8c0.3,12.3-5.9,23.9-17.4,32.8C125,118.9,108.6,123.6,92.2,123.6z"/>
	<path d="M102.9,109.2H12.1v-63h90.8V109.2z M14.9,106.3h85.2V49H14.9V106.3z"/>
	<g class="st1">
		<text transform="matrix(1.001 0 0 1 16.6494 103.1582)" class="st2 st3">1</text>
	</g>
	<g class="st1">
		<text transform="matrix(1.001 0 0 1 31.1641 103.1582)" class="st2 st3">3</text>
	</g>
</g>
</svg>
