<?xml version="1.0" encoding="utf-8"?>
<!-- Generator: Adobe Illustrator 28.0.0, SVG Export Plug-In . SVG Version: 6.00 Build 0)  -->
<svg version="1.1" id="Layer_1" xmlns="http://www.w3.org/2000/svg" xmlns:xlink="http://www.w3.org/1999/xlink" x="0px" y="0px"
	 viewBox="0 0 156 156" style="enable-background:new 0 0 156 156;" xml:space="preserve">
<style type="text/css">
	.st0{fill-rule:evenodd;clip-rule:evenodd;fill:#FFFFFF;}
	.st1{fill:#FF0000;}
	.st2{enable-background:new    ;}
	.st3{font-family:'MyriadPro-Regular';}
	.st4{font-size:26.1698px;}
	.st5{fill:none;}
</style>
<g>
	<polygon class="st0" points="0,30.66 156,30.66 156,125.34 0,125.34 	"/>
	<polygon class="st0" points="0.8,31.45 154.63,31.45 154.63,123.78 0.8,123.78 	"/>
	<path class="st1" d="M92.21,123.62c-15.34,0-30.69-4.12-42.66-12.44c-0.81-0.56-1.6-1.14-2.37-1.74l2.52-3.25
		c0.72,0.55,1.45,1.09,2.2,1.61c23.39,16.24,60.51,15.57,82.73-1.51c10.43-8.02,16.04-18.46,15.77-29.41
		c-0.27-11.21-6.6-21.68-17.84-29.49c-23.39-16.24-60.5-15.56-82.73,1.52l-2.51-3.27c23.54-18.09,62.84-18.82,87.59-1.63
		c12.34,8.57,19.31,20.21,19.6,32.77c0.29,12.3-5.88,23.94-17.38,32.78C124.98,118.91,108.61,123.62,92.21,123.62z"/>
	<path d="M102.93,109.17H12.08V46.15h90.85C102.93,46.15,102.93,109.17,102.93,109.17z M14.92,106.33h85.16V48.99H14.92V106.33z"/>
	<g class="st2">
		<text transform="matrix(1.001 0 0 1 16.6494 103.1582)" class="st3 st4">1</text>
	</g>
	<g class="st2">
		<text transform="matrix(1.001 0 0 1 31.1641 103.1582)" class="st3 st4">3</text>
	</g>
	<polygon class="st5" points="0.3,125.04 155.7,125.04 155.7,30.96 0.3,30.96 	"/>
</g>
</svg>
