<?xml version="1.0" encoding="utf-8"?>
<!-- Generator: Adobe Illustrator 28.0.0, SVG Export Plug-In . SVG Version: 6.00 Build 0)  -->
<svg version="1.1" id="Layer_1" xmlns="http://www.w3.org/2000/svg" xmlns:xlink="http://www.w3.org/1999/xlink" x="0px" y="0px"
	 viewBox="0 0 156 156" style="enable-background:new 0 0 156 156;" xml:space="preserve">
<style type="text/css">
	.st0{fill-rule:evenodd;clip-rule:evenodd;fill:#FFFFFF;}
	.st1{fill:#FF0000;}
</style>
<g>
	<polygon class="st0" points="0,10.93 156,10.93 156,145.07 0,145.07 	"/>
	<path class="st1" d="M65.54,144.56c-22.16,0-44.34-5.96-61.62-17.97c-1.16-0.81-2.29-1.63-3.39-2.49l3.92-5.09
		c1.01,0.78,2.06,1.55,3.13,2.3c33.6,23.36,86.94,22.41,118.9-2.14c14.97-11.51,23.01-26.49,22.63-42.19
		c-0.38-16.07-9.47-31.09-25.57-42.3c-33.6-23.36-86.94-22.4-118.9,2.15l-3.91-5.1C34.75,5.61,91.49,4.57,127.23,29.41
		c17.84,12.4,27.9,29.24,28.33,47.42c0.42,17.81-8.5,34.65-25.14,47.44C112.84,137.76,89.2,144.56,65.54,144.56z"/>
</g>
</svg>
