<?xml version="1.0" encoding="utf-8"?>
<!-- Generator: Adobe Illustrator 28.0.0, SVG Export Plug-In . SVG Version: 6.00 Build 0)  -->
<svg version="1.1" id="Layer_1" xmlns="http://www.w3.org/2000/svg" xmlns:xlink="http://www.w3.org/1999/xlink" x="0px" y="0px"
	 viewBox="0 0 156 156" width="156px" height="156px"  style="enable-background:new 0 0 156 156;" xml:space="preserve">
<style type="text/css">
	.st0{fill:#FF0000;}
</style>
<path class="st0" d="M65.5,144.6c-22.2,0-44.3-6-61.6-18c-1.2-0.8-2.3-1.6-3.4-2.5l3.9-5.1c1,0.8,2.1,1.6,3.1,2.3
	c33.6,23.4,86.9,22.4,118.9-2.1c15-11.5,23-26.5,22.6-42.2c-0.4-16.1-9.5-31.1-25.6-42.3C89.9,11.3,36.6,12.3,4.6,36.8l-3.9-5.1
	c34-26.1,90.8-27.2,126.5-2.3c17.8,12.4,27.9,29.2,28.3,47.4c0.4,17.8-8.5,34.7-25.1,47.4C112.8,137.8,89.2,144.6,65.5,144.6z"/>
</svg>
