<?xml version="1.0" encoding="utf-8"?>
<!-- Generator: Adobe Illustrator 28.0.0, SVG Export Plug-In . SVG Version: 6.00 Build 0)  -->
<svg version="1.1" id="Layer_1" xmlns="http://www.w3.org/2000/svg" xmlns:xlink="http://www.w3.org/1999/xlink" x="0px" y="0px"
	 viewBox="0 0 156 156" style="enable-background:new 0 0 156 156;" xml:space="preserve">
<style type="text/css">
	.st0{fill-rule:evenodd;clip-rule:evenodd;fill:#FFFFFF;}
	.st1{fill:#0000FF;}
	.st2{fill:none;}
</style>
<g>
	<polygon class="st0" points="18.29,0 137.71,0 137.71,156 18.29,156 18.29,0 	"/>
	<polygon class="st0" points="19.2,1.22 134.19,1.22 134.19,152.98 19.2,152.98 19.2,1.22 	"/>
	<path class="st1" d="M76.69,152.82c-31.6,0-57.31-25.6-57.31-57.07s25.71-57.07,57.31-57.07S134,64.27,134,95.74
		S108.3,152.82,76.69,152.82z M76.69,52.57c-23.94,0-43.41,19.37-43.41,43.17s19.47,43.18,43.41,43.18s43.41-19.37,43.41-43.18
		S100.63,52.57,76.69,52.57z"/>
	
		<rect x="62.89" y="18.83" transform="matrix(0.4947 -0.8691 0.8691 0.4947 22.6053 86.8463)" class="st1" width="46.18" height="10.3"/>
	<polygon class="st2" points="19.03,155.25 136.97,155.25 136.97,0.75 19.03,0.75 19.03,155.25 	"/>
</g>
</svg>
