<?xml version="1.0" encoding="utf-8"?>
<!-- Generator: Adobe Illustrator 28.0.0, SVG Export Plug-In . SVG Version: 6.00 Build 0)  -->
<svg version="1.1" id="Layer_1" xmlns="http://www.w3.org/2000/svg" xmlns:xlink="http://www.w3.org/1999/xlink" x="0px" y="0px"
	 viewBox="0 0 156 156" width="156px" height="156px"  style="enable-background:new 0 0 156 156;" xml:space="preserve">
<style type="text/css">
	.st0{fill:#FF0000;}
	.st1{fill-rule:evenodd;clip-rule:evenodd;fill:#FF0000;}
</style>
<g>
	<path class="st0" d="M77.7,111.4c-16,0-35.5-8.9-51.6-25.2C14.2,74.3,5.9,60.2,2.6,46.6c-3.3-14-0.9-26,6.8-33.6
		C25-2.5,57.8,5.2,82.5,30.2c11.9,11.9,20.2,26,23.4,39.7c3.3,14,0.9,26-6.8,33.6C93.8,108.8,86.2,111.4,77.7,111.4z M31.1,9.5
		c-7.4,0-13.8,2.2-18.4,6.8c-6.5,6.5-8.5,16.9-5.5,29.3C10.1,58.3,18,71.7,29.3,83l0,0c23,23.1,52.9,30.8,66.7,17.2
		c6.5-6.5,8.5-16.9,5.5-29.3c-3.1-12.8-10.9-26.1-22.2-37.5C64,18,45.7,9.5,31.1,9.5z"/>
	
		<rect x="109.1" y="94.8" transform="matrix(0.6495 -0.7604 0.7604 0.6495 -45.1946 124.2821)" class="st0" width="6.2" height="32.8"/>
	<polygon class="st1" points="128.3,112.8 136.4,131.8 116.3,126.8 	"/>
	<path class="st0" d="M76.6,115.2c-3.1,0-6.3-0.4-9.3-1.3l1.2-4.1c12.2,3.4,26.5-1.5,33.9-11.7c4.8-8.1,6.9-22.9,1.2-34l3.8-1.9
		c6.5,12.6,4.2,28.8-1.4,38.2C99.1,109.8,87.9,115.2,76.6,115.2z"/>
</g>
</svg>
