<?xml version="1.0" encoding="utf-8"?>
<!-- Generator: Adobe Illustrator 28.0.0, SVG Export Plug-In . SVG Version: 6.00 Build 0)  -->
<svg version="1.1" id="Layer_1" xmlns="http://www.w3.org/2000/svg" xmlns:xlink="http://www.w3.org/1999/xlink" x="0px" y="0px"
	 viewBox="0 0 156 156" style="enable-background:new 0 0 156 156;" xml:space="preserve">
<style type="text/css">
	.st0{fill-rule:evenodd;clip-rule:evenodd;fill:#FFFFFF;}
	.st1{fill:#FF0000;}
	.st2{fill-rule:evenodd;clip-rule:evenodd;fill:#FF0000;}
	.st3{fill:none;}
</style>
<g>
	<polygon class="st0" points="0,3.94 156,3.94 156,152.06 0,152.06 	"/>
	<polygon class="st0" points="1.05,4.81 155.12,4.81 155.12,150.53 1.05,150.53 	"/>
	<path class="st1" d="M77.65,111.4c-15.97,0-35.5-8.93-51.61-25.17C14.18,74.29,5.87,60.21,2.62,46.58
		c-3.34-14.03-0.94-25.97,6.76-33.61c15.58-15.46,48.4-7.74,73.17,17.2c11.86,11.94,20.17,26.03,23.41,39.65
		c3.34,14.03,0.94,25.97-6.76,33.61C93.75,108.83,86.21,111.4,77.65,111.4z M31.06,9.48c-7.38,0-13.81,2.18-18.43,6.76
		C6.11,22.7,4.15,33.1,7.1,45.52c3.05,12.82,10.94,26.13,22.2,37.48l0,0c22.98,23.14,52.87,30.85,66.65,17.18
		c6.52-6.47,8.48-16.86,5.53-29.28c-3.05-12.82-10.94-26.12-22.2-37.48C64.01,18.03,45.68,9.48,31.06,9.48z"/>
	
		<rect x="109.12" y="94.75" transform="matrix(0.6495 -0.7604 0.7604 0.6495 -45.1952 124.2796)" class="st1" width="6.16" height="32.82"/>
	<polygon class="st2" points="128.34,112.77 136.39,131.83 116.31,126.84 	"/>
	<path class="st1" d="M76.61,115.15c-3.13,0-6.28-0.42-9.33-1.28l1.15-4.05c12.2,3.44,26.47-1.49,33.93-11.74
		c4.8-8.11,6.93-22.88,1.21-33.98l3.75-1.94c6.5,12.58,4.2,28.76-1.43,38.24C99.06,109.77,87.88,115.15,76.61,115.15z"/>
	<polygon class="st3" points="0.42,151.64 155.58,151.64 155.58,4.36 0.42,4.36 	"/>
</g>
</svg>
