<?xml version="1.0" encoding="utf-8"?>
<!-- Generator: Adobe Illustrator 28.0.0, SVG Export Plug-In . SVG Version: 6.00 Build 0)  -->
<svg version="1.1" id="Layer_1" xmlns="http://www.w3.org/2000/svg" xmlns:xlink="http://www.w3.org/1999/xlink" x="0px" y="0px"
	 viewBox="0 0 156 156" style="enable-background:new 0 0 156 156;" xml:space="preserve">
<style type="text/css">
	.st0{fill:#FF0000;}
</style>
<g>
	<path class="st0" d="M46.7,0c0.3,1.6,0.6,3.3,0.9,4.9c0.1,0.7,0.1,0.7-0.6,0.8c-3,0.5-6,0.9-9,1.4c-2.7,0.4-5.4,0.8-8.1,1.2
		c-2.7,0.4-5.4,0.8-8.1,1.2c-3,0.5-6.1,0.9-9.1,1.4c-1,0.1-1.9,0.3-2.9,0.4c-0.3,0-0.3,0.1-0.3,0.4c0.1,1.4,0.1,2.8,0.2,4.3
		c0.3,3,0.3,5.9,0.4,8.9c0.2,3.6,0.3,7.2,0.4,10.8c0.1,2.8,0.2,5.5,0.3,8.3c0.1,2.8,0.2,5.6,0.3,8.4c0,0.3,0,0.4-0.4,0.4
		c-1.8,0.1-3.6,0.2-5.4,0.3c-0.2,0-0.3,0-0.3-0.3C5.1,50.4,5,48,4.9,45.6c-0.1-3.3-0.3-6.6-0.4-9.9c-0.1-3.2-0.3-6.4-0.4-9.6
		c-0.1-3.4-0.3-6.7-0.4-10.1c-0.1-2-0.2-4-0.3-6C3.3,8.9,3.2,7.8,3.2,6.6c0-0.3,0-0.4,0.4-0.5C8.3,5.4,13.1,4.7,17.8,4
		c3.4-0.5,6.8-1,10.2-1.5c5.1-0.7,10.1-1.5,15.2-2.2c0.7-0.1,1.4-0.1,2.1-0.3C45.8,0,46.2,0,46.7,0z"/>
	<path class="st0" d="M144.2,126.1c-0.5,0.3-1,0.6-1.5,0.9c-2.1,1.3-4.1,2.5-6.4,3.5c-2,0.9-4,1.6-6.1,2.1c-1.8,0.5-3.6,0.7-5.4,0.8
		c-0.8,0.1-1.6,0.1-2.4,0.1c-2.3,0-4.5-0.5-6.7-1.2c-0.6-0.2-1.3-0.5-1.9-0.7c-1.7-0.6-3.2-1.5-4.7-2.3c-1.9-1.1-3.8-2.2-5.7-3.1
		c-1.3-0.6-2.6-1.2-4-1.6c-1-0.3-2-0.6-3-0.7c-1.5-0.2-3-0.3-4.5-0.2c-1.1,0.1-2.2,0.4-3.3,0.6c-1.5,0.4-2.9,0.9-4.3,1.5
		c-1.8,0.8-3.4,1.8-5,2.7c-2.2,1.3-4.5,2.6-6.9,3.4c-1.7,0.6-3.5,1.1-5.3,1.3c-0.6,0.1-1.1,0.2-1.7,0.2c-2,0.1-4-0.1-6-0.6
		c-2-0.5-4-1.3-5.9-2.1c-3-1.4-5.8-3.1-8.7-4.6c-1.2-0.6-2.4-1.1-3.7-1.5c-0.8-0.3-1.6-0.5-2.5-0.7c-1.3-0.3-2.6-0.3-3.9-0.2
		c-1.2,0.1-2.3,0.3-3.5,0.5c-1.4,0.2-2.7,0.7-4.1,1.1c-1.5,0.5-2.9,1.1-4.3,1.7c-1.7,0.8-3.2,1.7-4.9,2.5c-1.2,0.6-2.2,1.4-3.4,2.1
		c-0.1,0.1-0.1,0.2-0.1,0.3c0.7,2.6,1.5,5.2,2.2,7.8c0.1,0.5,0.3,1.1,0.4,1.6c0.1,0.2,0.2,0.3,0.4,0.4c3.9,0.8,7.9,1.6,11.8,2.5
		c4.3,0.9,8.6,1.8,12.9,2.7c4.3,0.9,8.6,1.8,13,2.7c0.6,0.1,0.5,0,0.4,0.6c-0.4,1.8-0.8,3.6-1.2,5.4c-0.1,0.3-0.1,0.3-0.4,0.3
		c-8-1.8-16.1-3.7-24.1-5.5c-5.8-1.3-11.6-2.6-17.3-3.9c-0.3-0.1-0.4-0.2-0.5-0.5c-0.7-2.5-1.3-5-2-7.5c-1.6-5.7-3-11.4-4.6-17.1
		c-0.1-0.4,0-0.5,0.3-0.5c1.9-0.5,3.7-0.9,5.6-1.4c0.3-0.1,0.4,0,0.5,0.3c0.5,2,1,4,1.5,5.9c0.1,0.3,0.1,0.3,0.4,0.2
		c2.2-1.3,4.6-2.4,6.9-3.5c1.3-0.6,2.7-1.1,4-1.7c1.7-0.7,3.5-1.3,5.3-1.6c1-0.2,2.1-0.5,3.1-0.5c1,0,2-0.2,3-0.1
		c0.9,0.1,1.8,0.3,2.7,0.5c1.5,0.3,2.8,1,4.1,1.6c2,0.8,3.7,2,5.6,3.1c0.8,0.5,1.7,0.9,2.6,1.3c0.8,0.3,1.5,0.7,2.3,1
		c1.9,0.7,3.9,1.2,5.9,1.6c1.9,0.3,3.8,0.5,5.7,0.4c0.9,0,1.8-0.2,2.8-0.4c1-0.2,2-0.4,3-0.7c1.2-0.4,2.4-0.9,3.6-1.5
		c0.8-0.4,1.6-0.8,2.4-1.2c0.6-0.3,1.1-0.6,1.7-1c1.4-0.9,2.8-1.7,4.3-2.3c0.7-0.3,1.4-0.6,2-0.9c0.5-0.2,1.1-0.3,1.7-0.6
		c0.8-0.3,1.6-0.4,2.4-0.5c0.8-0.1,1.5-0.3,2.3-0.3c0.6,0,1.3-0.1,1.9-0.1c0.7,0.1,1.5,0.1,2.2,0.2c0.9,0.1,1.9,0.4,2.8,0.5
		c0.3,0,0.6,0.2,0.9,0.3c1.9,0.6,3.8,1.3,5.7,2.1c1.7,0.8,3.3,1.7,5,2.5c1.8,0.9,3.5,1.8,5.4,2.4c1.5,0.5,3,1,4.5,1.3
		c1.5,0.3,3,0.3,4.6,0.2c2.7-0.1,5.3-0.7,7.8-1.5c1.3-0.4,2.5-1,3.6-1.5c1.9-0.9,3.7-2.1,5.3-3.5c0.5-0.5,1.1-1,1.6-1.5
		c0.4-0.5,0.9-0.8,1.3-1.3c0.1-0.2,0.2-0.1,0.2,0c0.2,0.3,0.4,0.6,0.6,0.9c0.5-4,0.9-8,1.4-12c-0.4,0.1-0.7,0.3-0.9,0.5
		c-1.9,1.5-4.1,2.7-6.2,3.8c-1.2,0.7-2.4,1.2-3.6,1.6c-1.4,0.6-2.9,1.1-4.4,1.5c-1.6,0.4-3.2,0.6-4.8,0.9c-1.5,0.2-3,0.1-4.5,0.1
		c-1.2,0-2.4-0.4-3.6-0.7c-1.6-0.4-3.1-1.1-4.6-1.7c-0.8-0.3-1.6-0.7-2.4-1.2c-1.6-1-3.3-1.9-5-2.7c-1.3-0.6-2.5-1.3-3.8-1.8
		c-0.9-0.3-1.7-0.6-2.6-0.9c-0.7-0.2-1.4-0.4-2.1-0.5c-0.7-0.1-1.4-0.3-2.2-0.3c-0.6,0-1.1-0.1-1.7-0.1c-0.7,0.1-1.3,0.1-2,0.2
		c-0.6,0.1-1.3,0.2-1.9,0.4c-1.8,0.5-3.5,1.1-5.2,2c-2.4,1.2-4.7,2.6-7.1,4c-1,0.6-2.1,0.9-3.1,1.4c-2.1,1-4.2,1.4-6.4,1.8
		c-1.7,0.3-3.3,0.2-5,0.1c-1.4-0.1-2.7-0.5-4-0.8c-1.3-0.3-2.6-0.9-3.9-1.4c-1.5-0.6-2.9-1.4-4.3-2.2c-1.1-0.6-2.3-1.2-3.4-1.8
		c-0.7-0.4-1.5-0.8-2.3-1.2c-0.5-0.3-1.1-0.6-1.7-0.8c-1.1-0.4-2.3-0.9-3.4-1.2c-1.8-0.4-3.6-0.6-5.4-0.3c-2,0.3-4.1,0.6-6,1.3
		c-1,0.3-2,0.8-3,1.2c-2.7,1.1-5.1,2.6-7.6,4.2c-1.4,0.9-2.7,1.9-4,2.9c-0.2,0.2-0.3,0.2-0.5-0.1c-0.8-1.3-1.6-2.6-2.4-3.8
		c-0.2-0.2-0.1-0.4,0.1-0.5c2.8-1.9,5.7-3.6,8.6-5.2c2.7-1.5,5.5-2.7,8.4-3.7c2-0.7,4-1.2,6.1-1.4c1.4-0.1,2.8-0.2,4.1-0.1
		c1.1,0,2.1,0.4,3.1,0.6c1,0.2,1.9,0.6,2.8,0.9c0.9,0.3,1.6,0.8,2.5,1.1c0.3,0.1,0.6,0.3,0.9,0.5c1,0.6,2,1,3,1.7
		c0.8,0.5,1.5,1.1,2.4,1.4c0.7,0.3,1.3,0.7,1.9,1c0.9,0.5,1.9,0.9,2.9,1.2c1.2,0.4,2.4,0.8,3.6,1c0.7,0.1,1.5,0.3,2.3,0.3
		c0.6,0,1.2,0.1,1.7,0.1c0.7-0.1,1.5-0.1,2.2-0.2c0.5-0.1,1-0.1,1.4-0.2c1-0.3,1.9-0.6,2.9-0.9c0.7-0.3,1.4-0.5,2-0.8
		c0.7-0.4,1.5-0.7,2.2-1.1c0.8-0.5,1.7-0.8,2.5-1.4c1-0.8,2.2-1.2,3.2-1.9c0.4-0.3,0.8-0.4,1.2-0.6c1-0.4,2-0.9,3.1-1.3
		c1-0.4,2-0.6,3.1-0.8c0.9-0.2,1.9-0.4,2.9-0.5c0.6,0,1.3,0,1.9,0c2.4-0.1,4.8,0.5,7.1,1.1c2.1,0.5,4,1.4,6,2.3
		c1.7,0.8,3.3,1.7,4.9,2.6c0.6,0.3,1.2,0.7,1.9,0.9c1.2,0.5,2.4,1.2,3.6,1.6c1.1,0.4,2.2,0.8,3.3,1c1.4,0.3,2.7,0.5,4.1,0.3
		c1.1-0.1,2.3-0.1,3.4-0.2c1.8-0.3,3.6-0.6,5.3-1.1c1.3-0.5,2.7-0.9,3.9-1.6c1.1-0.6,2.2-1.2,3.3-1.9c1.6-1.1,3-2.4,4.4-3.7
		c0.2-0.2,0.4-0.2,0.6,0c0.3,0.3,0.7,0.6,1.1,1c0.6-3.9,1-7.8,1.4-11.7c-0.5,0.1-0.8,0.4-1.2,0.6c-2.4,1.4-4.7,2.7-7.3,3.8
		c-1.8,0.8-3.7,1.4-5.7,1.9c-1.3,0.4-2.7,0.6-4.1,0.7c-1,0-2,0.2-3.1,0.1c-1.8-0.1-3.5-0.1-5.2-0.7c-1.9-0.6-3.8-1.4-5.7-2.2
		c-1.8-0.8-3.5-1.8-5.2-2.7c-1.8-0.9-3.6-1.7-5.5-2.4c-1.6-0.6-3.3-1-5.1-1.3c-1.8-0.3-3.5-0.3-5.3-0.1c-1.7,0.2-3.3,0.6-5,1.2
		c-1.8,0.6-3.5,1.4-5.1,2.3c-1.2,0.6-2.3,1.4-3.5,2.1c-1.3,0.7-2.6,1.4-4,2c-1.1,0.5-2.3,0.9-3.5,1.3c-1.1,0.3-2.2,0.5-3.4,0.5
		c-0.7,0-1.5,0.2-2.2,0.1c-1.9-0.1-3.7-0.1-5.6-0.7c-2-0.6-4-1.3-5.9-2.2c-2.2-1.1-4.3-2.4-6.6-3.4c-1.6-0.8-3.2-1.6-5-2.1
		c-1-0.3-2-0.6-2.9-0.8c-1.2-0.3-2.5-0.3-3.7-0.2c-1.1,0-2.2,0.1-3.2,0.4c-1.2,0.3-2.4,0.4-3.5,0.9c-0.5,0.2-1.1,0.4-1.6,0.5
		c-1.7,0.6-3.4,1.3-4.9,2.1c-2.8,1.4-5.4,3.1-7.9,5c-0.2,0.2-0.4,0.3-0.6,0.4c-0.3,0.2-0.4,0.1-0.5-0.2c-0.3-0.7-0.7-1.5-1-2.3
		c-0.1,0.2,0,0.4,0.1,0.5c0.7,2.6,1.4,5.3,2.1,7.9c0.1,0.3,0,0.4-0.3,0.4c-1.8,0.4-3.6,0.8-5.4,1.2c-0.3,0.1-0.3,0-0.4-0.3
		c-0.4-1.6-0.8-3.1-1.3-4.7c-2.2-7.6-4.1-15.3-6.2-22.9C2.5,73.7,1.3,69,0.1,64.4C-0.1,63.7,0,62.9,0,62.2C0,62,0.1,62.1,0.2,62
		c1.7-0.5,3.4-0.9,5.1-1.4c0.3-0.1,0.3,0.1,0.3,0.3c0.5,1.7,0.9,3.5,1.4,5.2c0.9,3.3,1.7,6.7,2.7,10c1.6,5.6,3,11.3,4.6,16.9
		c0.1,0.3,0.2,0.4,0.5,0.2c0.5-0.4,1.1-0.6,1.6-1c1.4-1,2.8-1.8,4.3-2.6c1.9-1,3.8-2.1,5.9-2.9c2-0.8,4-1.5,6-2.1
		c1.4-0.4,2.9-0.6,4.4-0.8c1.2-0.2,2.4-0.1,3.6,0c1.3,0.1,2.5,0.3,3.8,0.6c1.5,0.4,2.9,1,4.3,1.5c1.9,0.7,3.7,1.8,5.5,2.7
		c1.1,0.6,2.3,1.2,3.5,1.8c0.7,0.4,1.4,0.7,2.1,1c1.5,0.6,3,1.1,4.6,1.5c1.6,0.4,3.1,0.5,4.7,0.4c1.4-0.1,2.8-0.4,4.1-0.7
		c0.8-0.2,1.5-0.5,2.2-0.7c0.6-0.2,1.1-0.4,1.7-0.6c1.1-0.5,2.1-1.1,3.2-1.6c1-0.5,1.9-1,2.8-1.5c1.7-1.1,3.6-1.9,5.4-2.6
		c1.6-0.6,3.1-1.1,4.8-1.4c0.7-0.1,1.4-0.3,2.2-0.3c0.6,0,1.2-0.1,1.8-0.1c0.8,0.1,1.6,0.1,2.3,0.2c0.9,0.2,1.8,0.3,2.7,0.5
		c0.8,0.2,1.7,0.4,2.5,0.7c1.1,0.4,2.3,0.8,3.4,1.2c1.1,0.4,2.2,0.9,3.2,1.5c1.7,0.9,3.4,1.7,5.1,2.5c0.9,0.4,1.7,0.8,2.6,1.2
		c1.5,0.6,3,1.1,4.6,1.5c1.4,0.3,2.9,0.3,4.3,0.2c0.6-0.1,1.2,0,1.9-0.1c1.1-0.2,2.2-0.4,3.3-0.6c1.5-0.3,2.9-0.8,4.3-1.4
		c1.4-0.5,2.7-1.2,3.9-1.9c0.6-0.3,1.2-0.8,1.8-1.2c1.1-0.7,2.2-1.6,3.2-2.4c0.7-0.6,1.4-1.2,2.1-1.8c0.1-0.1,0.2-0.3,0.2-0.4
		c0.1-1.8,0.3-3.6,0.4-5.3c0.2-2,0.3-4,0.5-6c0-0.3,0.1-0.4,0.4-0.3c1.8,0.2,3.7,0.4,5.5,0.6c0.5,0.1,0.5,0,0.4,0.5
		c-0.2,1.9-0.4,3.8-0.6,5.7c-0.2,1.9-0.4,3.9-0.6,5.8c-0.2,1.9-0.4,3.8-0.6,5.7c-0.2,1.9-0.4,3.9-0.6,5.8c-0.2,1.9-0.4,3.8-0.6,5.7
		c-0.2,1.9-0.4,3.9-0.6,5.8c-0.2,1.7-0.3,3.3-0.5,5c-0.2,2-0.4,3.9-0.6,5.9c-0.2,1.9-0.4,3.8-0.6,5.7c-0.2,2.5-0.5,4.9-0.7,7.4
		c-0.2,2.2-0.4,4.4-0.7,6.5c-0.2,2.2-0.4,4.4-0.7,6.5c-0.2,2.5-0.5,4.9-0.7,7.4c-0.1,0.9,0,0.7-0.7,0.6c-3.7-0.6-7.4-1.2-11.1-1.7
		c-2.9-0.5-5.7-0.9-8.6-1.4c-3.5-0.6-7.1-1.1-10.6-1.7c-3-0.5-6.1-1-9.1-1.4c-4.1-0.6-8.1-1.3-12.2-1.9c-2.4-0.4-4.7-0.8-7.1-1.1
		c-3.5-0.6-7-1.1-10.6-1.7c-2.3-0.4-4.7-0.7-7-1.1c-0.2,0-0.3-0.1-0.3-0.3c0.3-2,0.7-3.9,1-5.9c0-0.3,0.1-0.3,0.4-0.3
		c4.5,0.8,9,1.5,13.5,2.2c4.8,0.8,9.7,1.6,14.5,2.4c2.1,0.3,4.1,0.7,6.2,1c4.9,0.6,9.8,1.6,14.7,2.4c5,0.8,10,1.6,15,2.4
		c1.8,0.3,3.6,0.6,5.5,0.9c0.5,0.1,0.5,0.1,0.6-0.4c0.5-4.5,1-9,1.4-13.4c0.2-1.7,0.4-3.4,0.5-5.2
		C144.2,126.3,144.3,126.2,144.2,126.1z"/>
	<path class="st0" d="M146.4,43.4c0.2-3.1,0.2-6.3,0.5-9.4c0.4-4.6,0.5-9.2,0.8-13.9c0.1-1.9,0.2-3.8,0.3-5.7c0-0.3,0-0.4-0.4-0.3
		c-6.6,2.1-13.2,4.2-19.9,6.3c-5,1.6-10.1,3.2-15.1,4.8c-0.3,0.1-0.4,0-0.5-0.2c-0.9-1.7-1.8-3.3-2.7-5c-0.1-0.3-0.1-0.3,0.2-0.4
		c5.8-1.8,11.6-3.7,17.4-5.5c6.5-2.1,13-4.1,19.5-6.2c2.7-0.9,5.4-1.7,8.1-2.6c0.3-0.1,0.4-0.1,0.4,0.3c-0.1,1.8-0.2,3.6-0.3,5.4
		c-0.1,1.9-0.2,3.8-0.4,5.7c-0.1,2.3-0.3,4.6-0.4,6.9c-0.1,1.8-0.2,3.7-0.3,5.5c-0.1,2.3-0.3,4.6-0.4,6.9c-0.1,1.8-0.2,3.6-0.3,5.4
		c-0.1,2.3-0.3,4.6-0.4,6.9c-0.1,1.7-0.2,3.4-0.3,5.1c0,0.3-0.1,0.4-0.4,0.3c-1.8-0.2-3.6-0.4-5.4-0.6c-0.3,0-0.3-0.1-0.3-0.4
		c0.1-2.3,0.2-4.6,0.3-6.8C146.3,45,146.4,44.2,146.4,43.4z"/>
	<path class="st0" d="M76.2,9.5c10.2,0,20.5,0,30.7,0c0.6,0,0.5-0.1,0.5,0.5c0,1.8,0,3.6,0,5.4c0,0.3-0.1,0.4-0.4,0.4
		c-3.1,0-6.3,0-9.4,0c-17.3,0-34.5,0-51.8,0c-0.1,0-0.3,0-0.4,0c-0.2,0-0.3-0.1-0.3-0.3c0-1.9,0-3.8,0-5.6c0-0.3,0.1-0.3,0.4-0.3
		c2.6,0,5.2,0,7.8,0C60.9,9.5,68.6,9.5,76.2,9.5z"/>
</g>
</svg>
