<?xml version="1.0" encoding="utf-8"?>
<!-- Generator: Adobe Illustrator 28.0.0, SVG Export Plug-In . SVG Version: 6.00 Build 0)  -->
<svg version="1.1" id="Layer_1" xmlns="http://www.w3.org/2000/svg" xmlns:xlink="http://www.w3.org/1999/xlink" x="0px" y="0px"
	 viewBox="0 0 156 156" style="enable-background:new 0 0 156 156;" xml:space="preserve">
<style type="text/css">
	.st0{fill-rule:evenodd;clip-rule:evenodd;fill:#FFFFFF;}
	.st1{fill:#0000FF;}
	.st2{fill-rule:evenodd;clip-rule:evenodd;fill:#0000FF;}
	.st3{fill:none;}
</style>
<g>
	<polygon class="st0" points="-3.94,0 159.94,0 159.94,156 -3.94,156 -3.94,0 	"/>
	<polygon class="st0" points="-0.06,2.4 153.67,2.4 153.67,149.23 -0.06,149.23 -0.06,2.4 	"/>
	<path class="st1" d="M125.62,104.73l-0.11-0.36c-0.25-0.88-0.68-1.49-1.19-2.19c-0.54-0.76-1.15-1.62-1.56-2.7
		c-0.49-1.44-0.74-2.87-0.97-4.24c-0.12-0.69-0.24-1.39-0.39-2.09c-2.55-3.87-4.13-5.15-6.12-6.75c-1.49-1.2-3.17-2.55-5.42-5.14
		l-1.62-0.47c-3.51-1.03-3.58-1.04-5.88-1.97c-1.07-0.43-2.66-1.07-5.41-2.13c-9.69-0.24-19.38-0.41-29.07-0.58
		c-14.47-0.26-29.43-0.53-44.15-1.01l-0.21,1.59c-4.2-0.55-10.43-1.06-14.98-1.43c-7.88-0.64-8.03-0.66-7.92-2.64
		c0.05-0.97,0.08-1.49,2.42-1.7l0.02-0.06c0.06,0.01,0.15,0.02,0.27,0.04c2.82-0.2,8.57-0.03,20.49,0.32
		c14.7,0.48,29.66,0.75,44.11,1.01c9.81,0.18,19.62,0.35,29.43,0.59c0.22,0.01,0.45,0.05,0.65,0.13c2.97,1.15,4.66,1.82,5.78,2.27
		c2.13,0.86,2.13,0.86,5.52,1.85l2.18,0.64c0.36,0.11,0.69,0.32,0.93,0.61c2.21,2.6,3.77,3.85,5.28,5.07
		c2.13,1.71,4.13,3.33,7.13,7.95c0.12,0.19,0.21,0.4,0.26,0.62c0.21,0.88,0.36,1.76,0.51,2.63c0.22,1.29,0.43,2.5,0.8,3.59
		c0.21,0.55,0.63,1.14,1.07,1.76c0.62,0.87,1.32,1.86,1.68,3.15l0.18,0.59L125.62,104.73z"/>
	<polygon class="st2" points="139.4,99.46 128.67,124.44 115.11,100.88 139.4,99.46 	"/>
	<path class="st1" d="M8.93,77.02c-1.45,0-2.56-0.02-3.41-0.09c-0.17,0.02-0.3,0.04-0.37,0.05L5.14,76.9
		c-2.33-0.21-2.35-0.73-2.4-1.7c-0.1-1.98,0.04-1.99,7.82-2.59c4.47-0.34,10.6-0.82,14.74-1.33l0.18,1.47c0,0,0,0,0,0
		c14.49-0.45,29.23-0.7,43.48-0.94c9.52-0.16,19.03-0.32,28.55-0.54c2.72-0.99,4.28-1.58,5.34-1.98c2.26-0.86,2.33-0.87,5.78-1.83
		l1.58-0.44c2.21-2.39,3.87-3.65,5.33-4.76c1.95-1.47,3.49-2.65,5.97-6.2c0.15-0.63,0.26-1.26,0.37-1.89
		c0.24-1.28,0.48-2.61,0.95-3.9c0.44-1.08,1.04-1.89,1.58-2.6c0.3-0.4,0.61-0.79,0.84-1.23l3.42,1.85c-0.33,0.6-0.74,1.16-1.16,1.71
		c-0.43,0.57-0.83,1.1-1.05,1.65c-0.33,0.93-0.54,2.04-0.75,3.22c-0.15,0.81-0.3,1.64-0.51,2.46c-0.05,0.23-0.15,0.44-0.29,0.64
		c-2.96,4.3-4.94,5.8-7.03,7.39c-1.48,1.13-3.02,2.29-5.18,4.69c-0.25,0.27-0.57,0.47-0.92,0.57l-2.13,0.59
		c-3.35,0.92-3.35,0.92-5.44,1.71c-1.1,0.42-2.76,1.04-5.68,2.11c-0.2,0.07-0.41,0.11-0.62,0.12c-9.63,0.22-19.26,0.39-28.89,0.55
		c-14.24,0.24-28.96,0.49-43.43,0.94C17.51,76.87,12.29,77.02,8.93,77.02z"/>
	<polygon class="st2" points="114.5,50.39 128.68,27.2 138.74,52.45 114.5,50.39 	"/>
	<polygon class="st3" points="-3.51,155.56 159.51,155.56 159.51,0.44 -3.51,0.44 -3.51,155.56 	"/>
</g>
</svg>
