<?xml version="1.0" encoding="utf-8"?>
<!-- Generator: Adobe Illustrator 28.0.0, SVG Export Plug-In . SVG Version: 6.00 Build 0)  -->
<svg version="1.1" id="Layer_1" xmlns="http://www.w3.org/2000/svg" xmlns:xlink="http://www.w3.org/1999/xlink" x="0px" y="0px"
	 viewBox="0 0 156 156" style="enable-background:new 0 0 156 156;" xml:space="preserve">
<style type="text/css">
	.st0{fill-rule:evenodd;clip-rule:evenodd;fill:#0000FF;}
	.st1{fill:#0000FF;}
</style>
<path class="st0" d="M62.4,17.6c0-6.9,5.6-12.5,12.5-12.5l0,0l0,0c6.9,0,12.5,5.6,12.5,12.5l0,0l0,0c0,6.9-5.6,12.5-12.5,12.5l0,0
	l0,0C67.9,30.1,62.4,24.5,62.4,17.6L62.4,17.6L62.4,17.6z"/>
<path class="st0" d="M62.4,66.6c0-6.9,5.6-12.5,12.5-12.5l0,0l0,0c6.9,0,12.5,5.6,12.5,12.5l0,0l0,0c0,6.9-5.6,12.5-12.5,12.5l0,0
	l0,0C67.9,79.1,62.4,73.5,62.4,66.6L62.4,66.6L62.4,66.6z"/>
<path class="st0" d="M62.4,111.2c0-6.9,5.6-12.5,12.5-12.5l0,0l0,0c6.9,0,12.5,5.6,12.5,12.5l0,0l0,0c0,6.9-5.6,12.5-12.5,12.5l0,0
	l0,0C67.9,123.7,62.4,118.1,62.4,111.2L62.4,111.2L62.4,111.2z"/>
<path class="st1" d="M113.1,144.8H37.4V32.9h75.7V144.8z M46.4,135.8h57.7V41.9H46.4V135.8z"/>
</svg>
