<?xml version="1.0" encoding="utf-8"?>
<!-- Generator: Adobe Illustrator 28.0.0, SVG Export Plug-In . SVG Version: 6.00 Build 0)  -->
<svg version="1.1" id="Layer_1" xmlns="http://www.w3.org/2000/svg" xmlns:xlink="http://www.w3.org/1999/xlink" x="0px" y="0px"
	 viewBox="0 0 156 156" style="enable-background:new 0 0 156 156;" xml:space="preserve">
<style type="text/css">
	.st0{fill:#FF0000;}
	.st1{fill:none;}
</style>
<g id="MasterSlide_1_Standard">
	<g id="DrawingGroup_1">
		<g>
			<path class="st0" d="M6.34,107.97V40.99h21.59c8.28,0,13.58,0.39,16.16,1.03c3.75,1.03,6.98,3.23,9.57,6.59
				c2.59,3.36,3.88,7.63,3.88,13.06c0,4.01-0.78,7.5-2.2,10.34c-1.55,2.72-3.36,4.91-5.69,6.59c-2.33,1.55-4.66,2.59-6.98,3.1
				c-3.23,0.65-7.89,1.03-14.09,1.03h-8.79v25.22H6.34z M19.78,52.37v19.01h7.37c5.3,0,8.92-0.39,10.73-1.03
				c1.81-0.78,3.23-1.81,4.27-3.36c0.91-1.42,1.42-3.23,1.42-5.17c0-2.46-0.65-4.4-2.07-6.08c-1.42-1.55-3.23-2.46-5.43-2.84
				c-1.68-0.39-4.91-0.52-9.7-0.52H19.78z"/>
			<rect x="6.21" y="40.99" class="st1" width="51.59" height="67.11"/>
		</g>
		<g>
			<path class="st0" d="M78.1,74.22l-11.64-2.07c1.29-4.66,3.62-8.15,6.72-10.34c3.23-2.33,8.02-3.36,14.22-3.36
				c5.82,0,10.09,0.65,12.8,1.94c2.84,1.42,4.78,3.1,5.95,5.17c1.16,2.07,1.68,5.95,1.68,11.51l-0.13,15c0,4.27,0.26,7.37,0.65,9.44
				c0.39,1.94,1.16,4.14,2.33,6.47H98.02c-0.39-0.91-0.78-2.07-1.29-3.75c-0.26-0.78-0.39-1.29-0.39-1.55
				c-2.2,2.2-4.66,3.75-7.11,4.78c-2.46,1.03-5.17,1.55-8.02,1.55c-4.91,0-8.92-1.29-11.77-4.01c-2.84-2.72-4.27-6.08-4.27-10.22
				c0-2.84,0.65-5.17,1.94-7.37c1.29-2.2,3.1-3.75,5.43-4.91c2.46-1.16,5.82-2.2,10.22-2.97c6.08-1.16,10.22-2.2,12.54-3.23V75
				c0-2.46-0.65-4.14-1.81-5.17c-1.29-1.03-3.62-1.55-6.98-1.55c-2.2,0-4.01,0.39-5.3,1.29S78.88,72.03,78.1,74.22z M95.3,84.7
				c-1.68,0.52-4.27,1.16-7.89,1.94c-3.49,0.78-5.82,1.55-6.98,2.2c-1.68,1.29-2.46,2.72-2.46,4.53c0,1.81,0.65,3.36,2.07,4.66
				c1.29,1.42,2.97,2.07,5.04,2.07c2.33,0,4.53-0.78,6.59-2.33c1.55-1.16,2.59-2.59,3.1-4.27c0.26-1.03,0.52-3.23,0.52-6.21V84.7z"
				/>
			<rect x="65.04" y="58.32" class="st1" width="45.78" height="50.95"/>
		</g>
		<g>
			<path class="st0" d="M142.76,59.48V69.7h-8.79v19.53c0,4.01,0.13,6.34,0.26,6.98c0.13,0.65,0.52,1.16,1.16,1.55
				c0.52,0.52,1.29,0.65,2.2,0.65c1.16,0,2.84-0.39,5.04-1.16l1.16,9.96c-2.97,1.29-6.34,1.81-10.09,1.81
				c-2.33,0-4.4-0.39-6.34-1.16c-1.81-0.78-3.23-1.68-4.01-2.97c-0.91-1.16-1.55-2.84-1.81-4.91c-0.26-1.55-0.52-4.53-0.52-9.05
				V69.7h-5.82V59.48h5.82v-9.57l12.93-7.5v17.07H142.76z"/>
			<rect x="115.09" y="42.28" class="st1" width="28.84" height="66.98"/>
		</g>
	</g>
</g>
</svg>
