<?xml version="1.0" encoding="utf-8"?>
<!-- Generator: Adobe Illustrator 28.0.0, SVG Export Plug-In . SVG Version: 6.00 Build 0)  -->
<svg version="1.1" id="Layer_1" xmlns="http://www.w3.org/2000/svg" xmlns:xlink="http://www.w3.org/1999/xlink" x="0px" y="0px"
	 viewBox="0 0 156 156" style="enable-background:new 0 0 156 156;" xml:space="preserve">
<style type="text/css">
	.st0{fill:#FF0000;}
</style>
<path class="st0" d="M6.3,108V41h21.6c8.3,0,13.6,0.4,16.2,1c3.8,1,7,3.2,9.6,6.6s3.9,7.6,3.9,13.1c0,4-0.8,7.5-2.2,10.3
	c-1.5,2.7-3.4,4.9-5.7,6.6c-2.3,1.6-4.7,2.6-7,3.1c-3.2,0.7-7.9,1-14.1,1h-8.8V108L6.3,108L6.3,108z M19.8,52.4v19h7.4
	c5.3,0,8.9-0.4,10.7-1c1.8-0.8,3.2-1.8,4.3-3.4c0.9-1.4,1.4-3.2,1.4-5.2c0-2.5-0.7-4.4-2.1-6.1c-1.4-1.5-3.2-2.5-5.4-2.8
	c-1.7-0.4-4.9-0.5-9.7-0.5L19.8,52.4L19.8,52.4z"/>
<path class="st0" d="M78.1,74.2l-11.6-2.1c1.3-4.7,3.6-8.2,6.7-10.3c3.2-2.3,8-3.4,14.2-3.4c5.8,0,10.1,0.7,12.8,1.9
	c2.8,1.4,4.8,3.1,5.9,5.2c1.2,2.1,1.7,5.9,1.7,11.5l-0.1,15c0,4.3,0.3,7.4,0.7,9.4c0.4,1.9,1.2,4.1,2.3,6.5H98
	c-0.4-0.9-0.8-2.1-1.3-3.8c-0.3-0.8-0.4-1.3-0.4-1.6c-2.2,2.2-4.7,3.8-7.1,4.8c-2.5,1-5.2,1.6-8,1.6c-4.9,0-8.9-1.3-11.8-4
	c-2.8-2.7-4.3-6.1-4.3-10.2c0-2.8,0.7-5.2,1.9-7.4c1.3-2.2,3.1-3.8,5.4-4.9c2.5-1.2,5.8-2.2,10.2-3c6.1-1.2,10.2-2.2,12.5-3.2V75
	c0-2.5-0.7-4.1-1.8-5.2c-1.3-1-3.6-1.6-7-1.6c-2.2,0-4,0.4-5.3,1.3S78.9,72,78.1,74.2z M95.3,84.7c-1.7,0.5-4.3,1.2-7.9,1.9
	c-3.5,0.8-5.8,1.6-7,2.2c-1.7,1.3-2.5,2.7-2.5,4.5s0.7,3.4,2.1,4.7c1.3,1.4,3,2.1,5,2.1c2.3,0,4.5-0.8,6.6-2.3
	c1.6-1.2,2.6-2.6,3.1-4.3c0.3-1,0.5-3.2,0.5-6.2L95.3,84.7L95.3,84.7z"/>
<path class="st0" d="M142.8,59.5v10.2H134v19.5c0,4,0.1,6.3,0.3,7c0.1,0.7,0.5,1.2,1.2,1.6c0.5,0.5,1.3,0.7,2.2,0.7
	c1.2,0,2.8-0.4,5-1.2l1.2,10c-3,1.3-6.3,1.8-10.1,1.8c-2.3,0-4.4-0.4-6.3-1.2c-1.8-0.8-3.2-1.7-4-3c-0.9-1.2-1.6-2.8-1.8-4.9
	c-0.3-1.6-0.5-4.5-0.5-9.1V69.7h-5.8V59.5h5.8v-9.6l12.9-7.5v17.1H142.8z"/>
</svg>
