<?xml version="1.0" encoding="utf-8"?>
<!-- Generator: Adobe Illustrator 28.0.0, SVG Export Plug-In . SVG Version: 6.00 Build 0)  -->
<svg version="1.1" id="Layer_1" xmlns="http://www.w3.org/2000/svg" xmlns:xlink="http://www.w3.org/1999/xlink" x="0px" y="0px"
	 viewBox="0 0 156 156" style="enable-background:new 0 0 156 156;" xml:space="preserve">
<style type="text/css">
	.st0{fill:#FF0000;}
	.st1{fill:none;}
</style>
<g id="MasterSlide_1_Standard">
	<g id="DrawingGroup_1">
		<g>
			<path class="st0" d="M86.7,105.44H65.75c-0.13-3.1-0.13-4.91-0.13-5.56c0-6.85,1.16-12.41,3.36-16.81
				c2.33-4.4,6.72-9.44,13.58-14.87c6.72-5.56,10.73-9.05,12.16-10.86c1.94-2.72,2.97-5.56,2.97-8.92c0-4.4-1.81-8.28-5.43-11.51
				s-8.41-4.91-14.48-4.91c-5.95,0-10.86,1.68-14.87,5.04c-3.88,3.36-6.59,8.53-8.15,15.39l-21.21-2.59
				c0.52-9.96,4.78-18.23,12.54-25.09c7.76-6.98,17.97-10.34,30.65-10.34c13.32,0,23.92,3.49,31.81,10.47
				c7.89,6.85,11.77,15,11.77,24.31c0,5.04-1.42,9.96-4.27,14.48c-2.97,4.53-9.18,10.73-18.62,18.62c-4.91,4.14-7.89,7.37-9.05,9.83
				S86.57,98.97,86.7,105.44z M65.75,136.6v-23.15H88.9v23.15H65.75z"/>
			<rect x="33.42" y="14.27" class="st1" width="87.16" height="122.46"/>
		</g>
	</g>
</g>
</svg>
