<?xml version="1.0" encoding="utf-8"?>
<!-- Generator: Adobe Illustrator 28.0.0, SVG Export Plug-In . SVG Version: 6.00 Build 0)  -->
<svg version="1.1" id="Layer_1" xmlns="http://www.w3.org/2000/svg" xmlns:xlink="http://www.w3.org/1999/xlink" x="0px" y="0px"
	 viewBox="0 0 156 156" style="enable-background:new 0 0 156 156;" xml:space="preserve">
<style type="text/css">
	.st0{fill:#FF0000;}
</style>
<path class="st0" d="M86.7,105.4H65.8c-0.1-3.1-0.1-4.9-0.1-5.6c0-6.8,1.2-12.4,3.4-16.8c2.3-4.4,6.7-9.4,13.6-14.9
	c6.7-5.6,10.7-9,12.2-10.9c1.9-2.7,3-5.6,3-8.9c0-4.4-1.8-8.3-5.4-11.5S83.9,32,77.8,32c-5.9,0-10.9,1.7-14.9,5
	c-3.9,3.4-6.6,8.5-8.1,15.4l-21.2-2.6c0.5-10,4.8-18.2,12.5-25.1c7.8-7,18-10.3,30.7-10.3c13.3,0,23.9,3.5,31.8,10.5
	c7.9,6.9,11.8,15,11.8,24.3c0,5-1.4,10-4.3,14.5c-3,4.5-9.2,10.7-18.6,18.6c-4.9,4.1-7.9,7.4-9.1,9.8S86.6,99,86.7,105.4z
	 M65.8,136.6v-23.2h23.2v23.2H65.8z"/>
</svg>
