<?xml version="1.0" encoding="utf-8"?>
<!-- Generator: Adobe Illustrator 28.0.0, SVG Export Plug-In . SVG Version: 6.00 Build 0)  -->
<svg version="1.1" id="Layer_1" xmlns="http://www.w3.org/2000/svg" xmlns:xlink="http://www.w3.org/1999/xlink" x="0px" y="0px"
	 viewBox="0 0 156 156" style="enable-background:new 0 0 156 156;" xml:space="preserve">
<style type="text/css">
	.st0{fill:#0000FF;}
	.st1{font-family:'MyriadPro-Regular';}
	.st2{font-size:28.5897px;}
	.st3{fill-rule:evenodd;clip-rule:evenodd;fill:#0000FF;}
</style>
<g>
	<path class="st0" d="M154.4,117.7H0.4V37.3h154V117.7L154.4,117.7z M7,111.1h140.8V43.9H7V111.1z"/>
	<path class="st0" d="M100.2,115.2V41.1l48.5,37L100.2,115.2z M106.8,54.5v47.3l30.9-23.6L106.8,54.5z"/>
	<text transform="matrix(1.001 0 0 1 20.4834 86.752)" class="st0 st1 st2">W</text>
	<rect x="66.3" y="72.6" class="st0" width="33.3" height="9.7"/>
	<polygon class="st3" points="94.8,62.8 114.2,77.5 94.7,92.1 	"/>
	<path class="st3" d="M51.8,77.5c0-3.6,2.9-6.4,6.5-6.4l0,0l0,0c3.6,0,6.5,2.9,6.5,6.4l0,0l0,0c0,3.6-2.9,6.4-6.5,6.4l0,0l0,0
		C54.7,84,51.8,81.1,51.8,77.5L51.8,77.5L51.8,77.5z"/>
</g>
</svg>
