<?xml version="1.0" encoding="utf-8"?>
<!-- Generator: Adobe Illustrator 28.0.0, SVG Export Plug-In . SVG Version: 6.00 Build 0)  -->
<svg version="1.1" id="Layer_1" xmlns="http://www.w3.org/2000/svg" xmlns:xlink="http://www.w3.org/1999/xlink" x="0px" y="0px"
	 viewBox="0 0 156 156" style="enable-background:new 0 0 156 156;" xml:space="preserve">
<style type="text/css">
	.st0{enable-background:new    ;}
	.st1{fill:#FF0000;}
</style>
<g class="st0">
	<path class="st1" d="M0,0c52,0,104,0,156,0c0,0.2,0,0.4,0,0.6c0,51.6,0,103.2,0,154.7c0,0.1,0,0.2,0,0.3c0,0.3-0.1,0.3-0.3,0.3
		c-0.1,0-0.2,0-0.3,0c-51.6,0-103,0-154.6,0c-0.6,0-0.6,0-0.6-0.6c0-51.6,0-103.2,0-154.7C0,0.4,0,0.2,0,0z M6.4,77.9
		c0,23.8,0,47.5,0,71.3c0,0.6,0,0.5,0.5,0.5c47.3,0,94.7,0,141.9,0c0.7,0,0.5,0.1,0.5-0.5c0-47.5,0-95.1,0-142.5c0-0.1,0-0.2,0-0.3
		c0-0.2-0.1-0.3-0.2-0.2c-0.1,0-0.3,0-0.4,0c-47.2,0-94.5,0-141.7,0C6.3,6.1,6.4,6,6.4,6.7C6.4,30.5,6.4,54.2,6.4,77.9z"/>
	<path class="st1" d="M43.9,88.4c-1.1-1.3-2.2-2.6-3.4-3.9c-2.6-3.1-5.1-6.1-7.7-9.1c-0.3-0.3-0.3-0.3-0.7,0
		c-3.8,4.4-7.5,8.8-11.3,13.3c-0.1,0.1-0.1,0.2-0.2,0.2c-0.1-0.1,0-0.2,0-0.4c0-6.3,0-12.6,0-18.9c0-0.2-0.1-0.4,0.2-0.5
		c0.1,0,0.1-0.2,0.1-0.3c0.8-4,2.6-7.5,5.5-10.5c0.5-0.5,1.1-0.9,1.6-1.5c2.2-2,4.8-3.2,7.7-3.9c2.3-0.5,4.5-0.7,6.9-0.4
		c0.3,0,0.6-0.1,1-0.1c14.4,0,28.8,0,43.1,0c0.1,0,0.2,0,0.3,0c0.2,0,0.3-0.1,0.3-0.3c0-0.1,0-0.2,0-0.2c0-9.2,0-18.3,0-27.5
		c0-0.5,0-0.5-0.5-0.5c-1.5,0-2.9,0-4.4,0c-0.3,0-0.4,0-0.4-0.4c0-2.4,0-4.8,0-7.3c0-0.3,0.1-0.4,0.4-0.4c6.5,0,13,0,19.5,0
		c0.3,0,0.4,0.1,0.4,0.4c0,2.4,0,4.8,0,7.2c0,0.3-0.1,0.4-0.4,0.4c-1.9,0-4,0-6,0c-0.3,0-0.4,0-0.4,0.4c0,9.3,0,18.5,0,27.7
		c0,0.3,0.1,0.4,0.4,0.4c10.4,0,20.7,0,31.1,0c0.4,0,0.4-0.1,0.4-0.4c0-5.7,0-11.3,0-16.9c0-0.4,0.1-0.5,0.4-0.5c2.4,0,4.8,0,7.3,0
		c0.4,0,0.4,0.1,0.4,0.4c0,19.6,0,39.1,0,58.6c0,0.3-0.1,0.4-0.4,0.4c-2.4,0-4.9,0-7.3,0c-0.4,0-0.4-0.1-0.4-0.4c0-6,0-12,0-18
		c0-0.5,0-0.5-0.5-0.5c-27.5,0-55.1,0-82.7,0c-0.4,0-0.5,0.1-0.5,0.5c0,4.1,0,8.2,0,12.3C43.9,88,43.9,88.2,43.9,88.4
		C43.9,88.3,43.9,88.3,43.9,88.4z"/>
	<path class="st1" d="M34.7,102.5c1.3,0.7,2.6,1.4,3.8,2.1c0.3,0.2,0.8,0.4,1.1,0.6c3.6,2,7.3,3.9,10.8,5.9c0.2,0.1,0.3,0.2,0.4,0.4
		c1.8,4.5,3.7,8.9,5.4,13.5c1.2,3.1,2.5,6.1,3.7,9.1c0.1,0.3,0.2,0.5,0.3,0.8c0.1,0.3,0.1,0.4-0.2,0.5c-2.3,0.8-4.7,1.8-6.9,2.6
		c-4.7,1.8-9.3,3.6-14,5.4c-0.3,0.1-0.4,0.1-0.6-0.2c-1.1-2.7-2.3-5.5-3.4-8.2c-1.3-3.2-2.5-6.2-3.8-9.4c-0.8-1.9-1.5-3.8-2.3-5.7
		c-0.1-0.2-0.1-0.4,0-0.6c1.6-4.7,3.1-9.6,4.8-14.3C34.2,104.2,34.5,103.4,34.7,102.5z"/>
</g>
</svg>
