<?xml version="1.0" encoding="utf-8"?>
<!-- Generator: Adobe Illustrator 28.0.0, SVG Export Plug-In . SVG Version: 6.00 Build 0)  -->
<svg version="1.1" id="Layer_1" xmlns="http://www.w3.org/2000/svg" xmlns:xlink="http://www.w3.org/1999/xlink" x="0px" y="0px"
	 viewBox="0 0 156 156" width="156px" height="156px"  style="enable-background:new 0 0 156 156;" xml:space="preserve">
<style type="text/css">
	.st0{fill:#FF0000;}
</style>
<g>
	
		<rect x="30.1" y="58.8" transform="matrix(0.7139 -0.7002 0.7002 0.7139 -49.1734 46.1431)" class="st0" width="3.6" height="48.8"/>
	<path class="st0" d="M38.9,114.4L1.3,77.6L50,27.9l37.6,36.8L38.9,114.4z M6.3,77.5l32.5,31.8l43.7-44.6L50,32.9L6.3,77.5z"/>
	<path class="st0" d="M61.5,114.5L23.8,77.7L72.5,28l37.6,36.8L61.5,114.5z M28.9,77.7l32.5,31.8l43.7-44.6L72.6,33L28.9,77.7z"/>
	<path class="st0" d="M84.6,114.6L46.9,77.8l48.7-49.7l1.3,1.2c6.9,6.8,22,22.2,33.1,33.6l8.6-8.8l2.6,2.5l-8.6,8.9
		c6.2,6.3,10.6,10.9,10.7,11l1.2,1.3l-2.6,2.5l-1.2-1.3c-0.1-0.1-4.5-4.7-10.6-10.9L84.6,114.6z M51.9,77.7l32.5,31.8l43-44.1
		c-10.4-10.7-24.5-25-31.8-32.3L51.9,77.7z"/>
	<path class="st0" d="M96.2,127L58.6,90.2l48.7-49.7l37.6,36.8L96.2,127z M63.6,90.2L96.2,122l43.7-44.6l-32.6-31.8L63.6,90.2z"/>
	<path class="st0" d="M72.8,125.6L35.2,88.8l48.7-49.7l37.6,36.8L72.8,125.6z M40.2,88.8l32.5,31.8l43.7-44.6L83.9,44.1L40.2,88.8z"
		/>
	<rect x="42.6" y="48" transform="matrix(0.7139 -0.7002 0.7002 0.7139 -38.0125 51.8313)" class="st0" width="3.6" height="48.8"/>
	
		<rect x="70.7" y="28.3" transform="matrix(0.7108 -0.7034 0.7034 0.7108 -33.7978 73.4623)" class="st0" width="3.6" height="99.1"/>
	
		<rect x="99.4" y="54.6" transform="matrix(0.7126 -0.7015 0.7015 0.7126 -27.933 94.3362)" class="st0" width="3.6" height="53.3"/>
	
		<rect x="112.2" y="47.2" transform="matrix(0.7139 -0.7002 0.7002 0.7139 -17.5152 100.2826)" class="st0" width="3.6" height="48.8"/>
	
		<rect x="10.6" y="78.2" transform="matrix(0.7019 -0.7123 0.7123 0.7019 -49.7923 41.0695)" class="st0" width="27.1" height="3.6"/>
	<rect x="104.4" y="52.6" transform="matrix(0.7053 -0.709 0.709 0.7053 -3.589 100.0842)" class="st0" width="28.3" height="3.6"/>
	<rect x="94.4" y="40.8" transform="matrix(0.7023 -0.7119 0.7119 0.7023 1.8321 89.5352)" class="st0" width="27.1" height="3.6"/>
	<rect x="22" y="89.2" transform="matrix(0.7019 -0.7123 0.7123 0.7019 -54.2018 52.4601)" class="st0" width="27.1" height="3.6"/>
</g>
</svg>
