<?xml version="1.0" encoding="utf-8"?>
<!-- Generator: Adobe Illustrator 28.0.0, SVG Export Plug-In . SVG Version: 6.00 Build 0)  -->
<svg version="1.1" id="Layer_1" xmlns="http://www.w3.org/2000/svg" xmlns:xlink="http://www.w3.org/1999/xlink" x="0px" y="0px"
	 viewBox="0 0 156 156" style="enable-background:new 0 0 156 156;" xml:space="preserve">
<style type="text/css">
	.st0{fill-rule:evenodd;clip-rule:evenodd;fill:#FFFFFF;}
	.st1{fill:#FF0000;}
	.st2{fill:none;}
</style>
<g>
	<polygon class="st0" points="0,26.43 156,26.43 156,129.57 0,129.57 	"/>
	<polygon class="st0" points="1.18,27.74 153.24,27.74 153.24,127.1 1.18,127.1 	"/>
	
		<rect x="30.11" y="58.83" transform="matrix(0.7139 -0.7002 0.7002 0.7139 -49.1728 46.1492)" class="st1" width="3.56" height="48.84"/>
	<path class="st1" d="M38.92,114.38L1.28,77.59l48.71-49.72l37.64,36.79L38.92,114.38z M6.31,77.53l32.55,31.81L82.59,64.7
		L50.03,32.89L6.31,77.53z"/>
	<path class="st1" d="M61.47,114.52L23.82,77.74l48.71-49.72l37.64,36.79L61.47,114.52z M28.86,77.68l32.55,31.81l43.73-44.64
		L72.59,33.04L28.86,77.68z"/>
	<path class="st1" d="M84.55,114.58L46.9,77.79l48.71-49.72l1.27,1.24c6.94,6.78,22.03,22.2,33.1,33.57l8.59-8.81l2.55,2.49
		l-8.65,8.88c6.17,6.33,10.58,10.9,10.7,11.02l1.24,1.28l-2.55,2.47l-1.24-1.28c-0.13-0.13-4.51-4.65-10.63-10.95L84.55,114.58z
		 M51.94,77.74l32.55,31.81l43.01-44.12c-10.43-10.71-24.46-25.05-31.84-32.33L51.94,77.74z"/>
	<path class="st1" d="M96.24,126.99L58.6,90.2l48.71-49.72l37.64,36.79L96.24,126.99z M63.63,90.15l32.55,31.81l43.73-44.64
		l-32.56-31.81L63.63,90.15z"/>
	<path class="st1" d="M72.82,125.61L35.17,88.82l48.71-49.72l37.64,36.79L72.82,125.61z M40.21,88.76l32.55,31.81l43.73-44.64
		L83.93,44.12L40.21,88.76z"/>
	
		<rect x="42.65" y="48.01" transform="matrix(0.7139 -0.7002 0.7002 0.7139 -38.0105 51.8354)" class="st1" width="3.56" height="48.85"/>
	
		<rect x="70.66" y="28.29" transform="matrix(0.7108 -0.7034 0.7034 0.7108 -33.7977 73.4652)" class="st1" width="3.56" height="99.08"/>
	
		<rect x="99.41" y="54.6" transform="matrix(0.7126 -0.7015 0.7015 0.7126 -27.9319 94.3394)" class="st1" width="3.56" height="53.33"/>
	
		<rect x="112.2" y="47.15" transform="matrix(0.7139 -0.7002 0.7002 0.7139 -17.5148 100.2885)" class="st1" width="3.56" height="48.85"/>
	
		<rect x="10.62" y="78.24" transform="matrix(0.7019 -0.7123 0.7123 0.7019 -49.7916 41.0665)" class="st1" width="27.09" height="3.56"/>
	
		<rect x="104.4" y="52.58" transform="matrix(0.7053 -0.709 0.709 0.7053 -3.5894 100.0774)" class="st1" width="28.32" height="3.56"/>
	
		<rect x="94.42" y="40.8" transform="matrix(0.7023 -0.7119 0.7119 0.7023 1.829 89.5335)" class="st1" width="27.09" height="3.56"/>
	
		<rect x="22.02" y="89.2" transform="matrix(0.7019 -0.7123 0.7123 0.7019 -54.1969 52.457)" class="st1" width="27.09" height="3.56"/>
	<polygon class="st2" points="0.32,129.24 155.68,129.24 155.68,26.76 0.32,26.76 	"/>
</g>
</svg>
