<?xml version="1.0" encoding="utf-8"?>
<!-- Generator: Adobe Illustrator 28.0.0, SVG Export Plug-In . SVG Version: 6.00 Build 0)  -->
<svg version="1.1" id="Layer_1" xmlns="http://www.w3.org/2000/svg" xmlns:xlink="http://www.w3.org/1999/xlink" x="0px" y="0px"
	 viewBox="0 0 156 156" style="enable-background:new 0 0 156 156;" xml:space="preserve">
<style type="text/css">
	.st0{fill-rule:evenodd;clip-rule:evenodd;fill:#FFFFFF;}
	.st1{fill:#0000FF;}
	.st2{fill-rule:evenodd;clip-rule:evenodd;fill:#0000FF;}
	.st3{font-family:'MyriadPro-Regular';}
	.st4{font-size:27.7151px;}
	.st5{letter-spacing:1;}
	.st6{fill:none;}
</style>
<g>
	<polygon class="st0" points="28.14,0 127.86,0 127.86,156 28.14,156 28.14,0 	"/>
	<polygon class="st0" points="28.95,1.43 126.58,1.43 126.58,153.47 28.95,153.47 28.95,1.43 	"/>
	<rect x="40.63" y="41.66" class="st1" width="7.92" height="91.54"/>
	<path class="st2" d="M29.58,138.42c0-7.96,6.68-14.41,14.93-14.41l0,0l0,0c8.24,0,14.93,6.45,14.93,14.41l0,0l0,0
		c0,7.96-6.68,14.41-14.93,14.41l0,0l0,0C36.27,152.83,29.58,146.38,29.58,138.42L29.58,138.42L29.58,138.42z"/>
	<path class="st1" d="M44.51,153.31c-8.49,0-15.41-6.68-15.41-14.89c0-8.21,6.91-14.88,15.41-14.88s15.41,6.68,15.41,14.88
		C59.92,146.63,53,153.31,44.51,153.31z M44.51,124.48c-7.97,0-14.45,6.25-14.45,13.94s6.48,13.94,14.45,13.94
		s14.45-6.26,14.45-13.94S52.48,124.48,44.51,124.48z"/>
	<path class="st1" d="M82.03,81.57c-22.74,0-41.24-17.94-41.24-39.99S59.29,1.59,82.03,1.59c22.74,0,41.24,17.94,41.24,39.99
		S104.77,81.57,82.03,81.57z M82.03,9.51c-18.37,0-33.32,14.39-33.32,32.07c0,17.69,14.95,32.07,33.32,32.07
		c18.38,0,33.32-14.39,33.32-32.07C115.35,23.89,100.41,9.51,82.03,9.51z"/>
	<text transform="matrix(0.9975 0 0 1 54.4972 51.8232)"><tspan x="0" y="0" class="st1 st3 st4 st5">Z</tspan><tspan x="16.93" y="0" class="st1 st3 st4">F</tspan></text>
	<text transform="matrix(0.9975 0 0 1 88.3097 51.8232)" class="st1 st3 st4">O</text>
	<polygon class="st6" points="28.63,155.51 127.37,155.51 127.37,0.49 28.63,0.49 28.63,155.51 	"/>
</g>
</svg>
