<?xml version="1.0" encoding="utf-8"?>
<!-- Generator: Adobe Illustrator 28.0.0, SVG Export Plug-In . SVG Version: 6.00 Build 0)  -->
<svg version="1.1" id="Layer_1" xmlns="http://www.w3.org/2000/svg" xmlns:xlink="http://www.w3.org/1999/xlink" x="0px" y="0px"
	 viewBox="0 0 156 156" style="enable-background:new 0 0 156 156;" xml:space="preserve">
<style type="text/css">
	.st0{fill:#0000FF;}
	.st1{fill-rule:evenodd;clip-rule:evenodd;fill:#0000FF;}
	.st2{font-family:'MyriadPro-Regular';}
	.st3{font-size:27.7151px;}
</style>
<g>
	<rect x="40.6" y="41.7" class="st0" width="7.9" height="91.5"/>
	<path class="st1" d="M29.6,138.4c0-8,6.7-14.4,14.9-14.4l0,0l0,0c8.2,0,14.9,6.4,14.9,14.4l0,0l0,0c0,8-6.7,14.4-14.9,14.4l0,0l0,0
		C36.3,152.8,29.6,146.4,29.6,138.4L29.6,138.4L29.6,138.4z"/>
	<path class="st0" d="M44.5,153.3c-8.5,0-15.4-6.7-15.4-14.9s6.9-14.9,15.4-14.9s15.4,6.7,15.4,14.9C59.9,146.6,53,153.3,44.5,153.3
		z M44.5,124.5c-8,0-14.5,6.3-14.5,13.9s6.5,13.9,14.5,13.9S59,146.1,59,138.4S52.5,124.5,44.5,124.5z"/>
	<path class="st0" d="M82,81.6c-22.7,0-41.2-17.9-41.2-40s18.5-40,41.2-40s41.2,17.9,41.2,40S104.8,81.6,82,81.6z M82,9.5
		c-18.4,0-33.3,14.4-33.3,32.1c0,17.7,15,32.1,33.3,32.1c18.4,0,33.3-14.4,33.3-32.1C115.3,23.9,100.4,9.5,82,9.5z"/>
	<text transform="matrix(0.9975 0 0 1 54.4971 51.8232)" class="st0 st2 st3">Z</text>
	<text transform="matrix(0.9975 0 0 1 71.3848 51.8232)" class="st0 st2 st3">F</text>
	<text transform="matrix(0.9975 0 0 1 88.3096 51.8232)" class="st0 st2 st3">O</text>
</g>
</svg>
