<?xml version="1.0" encoding="utf-8"?>
<!-- Generator: Adobe Illustrator 28.0.0, SVG Export Plug-In . SVG Version: 6.00 Build 0)  -->
<svg version="1.1" id="Layer_1" xmlns="http://www.w3.org/2000/svg" xmlns:xlink="http://www.w3.org/1999/xlink" x="0px" y="0px"
	 viewBox="0 0 156 156" style="enable-background:new 0 0 156 156;" xml:space="preserve">
<style type="text/css">
	.st0{fill:#0000FF;}
</style>
<g>
	<path class="st0" d="M77.1,152.5c-31.2,0-56.5-25.2-56.5-56.2S46,40.1,77.1,40.1s56.5,25.2,56.5,56.2S108.2,152.5,77.1,152.5z
		 M77.1,53.8c-23.6,0-42.8,19.1-42.8,42.5s19.2,42.5,42.8,42.5s42.8-19.1,42.8-42.5C119.9,72.8,100.7,53.8,77.1,53.8z"/>
	<rect x="29.6" y="26.3" transform="matrix(0.4884 -0.8726 0.8726 0.4884 3.8867 69.3888)" class="st0" width="63" height="10.1"/>
	
		<rect x="82.4" y="19.7" transform="matrix(0.4757 -0.8796 0.8796 0.4757 33.6459 105.9029)" class="st0" width="46.6" height="10.1"/>
	<rect x="61.7" y="19.6" transform="matrix(0.476 -0.8795 0.8795 0.476 22.7856 87.6834)" class="st0" width="46.6" height="10.2"/>
</g>
</svg>
