<?xml version="1.0" encoding="utf-8"?>
<!-- Generator: Adobe Illustrator 28.0.0, SVG Export Plug-In . SVG Version: 6.00 Build 0)  -->
<svg version="1.1" id="Layer_1" xmlns="http://www.w3.org/2000/svg" xmlns:xlink="http://www.w3.org/1999/xlink" x="0px" y="0px"
	 viewBox="0 0 156 156" style="enable-background:new 0 0 156 156;" xml:space="preserve">
<style type="text/css">
	.st0{fill-rule:evenodd;clip-rule:evenodd;fill:#FFFFFF;}
	.st1{fill:#0000FF;}
	.st2{fill:none;}
</style>
<g>
	<polygon class="st0" points="19.03,0 136.97,0 136.97,156 19.03,156 19.03,0 	"/>
	<polygon class="st0" points="20.43,1.24 133.78,1.24 133.78,152.66 20.43,152.66 20.43,1.24 	"/>
	<path class="st1" d="M77.11,152.5c-31.15,0-56.48-25.21-56.48-56.21s25.34-56.22,56.48-56.22s56.49,25.22,56.49,56.22
		S108.25,152.5,77.11,152.5z M77.11,53.76c-23.6,0-42.79,19.08-42.79,42.53c0,23.45,19.2,42.52,42.79,42.52s42.8-19.07,42.8-42.52
		C119.9,72.83,100.7,53.76,77.11,53.76z"/>
	
		<rect x="29.63" y="26.3" transform="matrix(0.4884 -0.8726 0.8726 0.4884 3.8923 69.3894)" class="st1" width="62.98" height="10.15"/>
	
		<rect x="82.35" y="19.65" transform="matrix(0.4757 -0.8796 0.8796 0.4757 33.6507 105.9003)" class="st1" width="46.61" height="10.15"/>
	
		<rect x="61.66" y="19.65" transform="matrix(0.476 -0.8795 0.8795 0.476 22.7825 87.679)" class="st1" width="46.61" height="10.15"/>
	<polygon class="st2" points="19.78,155.25 136.22,155.25 136.22,0.75 19.78,0.75 19.78,155.25 	"/>
</g>
</svg>
