<svg width="150px" height="150px" viewBox="0 0 100 100" version="1.1" xmlns="http://www.w3.org/2000/svg" xmlns:xlink="http://www.w3.org/1999/xlink" xml:space="preserve" xmlns:serif="http://www.serif.com/" style="fill-rule:evenodd;clip-rule:evenodd;stroke-miterlimit:8;"><g><path d="M77.759,39.655l-13.528,21.447l-13.528,-21.447l27.056,-0Z" style="fill:none;stroke:#00f;stroke-width:1.51px;"/><path d="M0,34.816l100,-0" style="fill:none;stroke:#000;stroke-width:1.51px;stroke-linejoin:round;stroke-miterlimit:10;"/><path d="M0,65.281l100,0" style="fill:none;stroke:#000;stroke-width:1.51px;stroke-linejoin:round;stroke-miterlimit:10;"/><path d="M0,49.127l41.29,0.001l0,1.512l-41.29,0l0,-1.513Zm34.852,-3.685l7.995,4.441l-7.995,4.443c-0.365,0.202 -0.825,0.07 -1.028,-0.295c-0.203,-0.365 -0.071,-0.825 0.294,-1.027l6.805,-3.782l0,1.322l-6.805,-3.78c-0.365,-0.203 -0.497,-0.663 -0.294,-1.028c0.203,-0.365 0.663,-0.497 1.028,-0.294Z" style="fill-rule:nonzero;"/><path d="M64.231,32.066l-0,35.727" style="fill:none;stroke:#00f;stroke-width:1.51px;stroke-linecap:round;stroke-linejoin:round;stroke-miterlimit:10;"/><path d="M64.286,32.114l9.535,-9.534" style="fill:none;stroke:#00f;stroke-width:1.51px;stroke-linecap:round;stroke-linejoin:round;stroke-miterlimit:10;"/><path d="M64.286,67.885l9.535,9.535" style="fill:none;stroke:#00f;stroke-width:1.51px;stroke-linecap:round;stroke-linejoin:round;stroke-miterlimit:10;"/></g></svg>