<svg width="150px" height="150px" viewBox="0 0 100 100" version="1.1" xmlns="http://www.w3.org/2000/svg" xmlns:xlink="http://www.w3.org/1999/xlink" xml:space="preserve" xmlns:serif="http://www.serif.com/" style="fill-rule:evenodd;clip-rule:evenodd;stroke-linejoin:round;stroke-miterlimit:2;">
    <g>
        <path d="M1.711,74.79l-0,-49.58l6.73,0l26.041,38.927l0,-38.927l6.291,0l-0,49.58l-6.73,-0l-26.042,-38.961l0,38.961l-6.29,-0Z" style="fill:#ff4044;fill-rule:nonzero;"/>
        <path d="M46.39,74.79l12.04,-31.349l4.469,0l12.83,31.349l-4.726,-0l-3.656,-9.494l-13.109,-0l-3.442,9.494l-4.406,-0Zm9.046,-12.873l10.628,-0l-3.272,-8.682c-0.998,-2.637 -1.739,-4.804 -2.224,-6.501c-0.399,2.01 -0.962,4.006 -1.689,5.988l-3.443,9.195Z" style="fill:#ff4044;fill-rule:nonzero;"/>
        <path d="M83.769,74.79l0,-27.649l-10.328,-0l0,-3.7l24.848,0l0,3.7l-10.371,-0l-0,27.649l-4.149,-0Z" style="fill:#ff4044;fill-rule:nonzero;"/>
    </g>
</svg>