<svg width="150px" height="150px" viewBox="0 0 100 100" version="1.1" xmlns="http://www.w3.org/2000/svg" xmlns:xlink="http://www.w3.org/1999/xlink" xml:space="preserve" xmlns:serif="http://www.serif.com/" style="fill-rule:evenodd;clip-rule:evenodd;stroke-linejoin:round;stroke-miterlimit:2;">
    <g>
        <path d="M18.199,76.269l0,-46.338l-17.309,-0l-0,-6.2l41.643,0l-0,6.2l-17.381,-0l-0,46.338l-6.953,-0Z" style="fill:#ff4044;fill-rule:nonzero;"/>
        <path d="M47.673,76.269l0,-33.219l24.019,-0l0,3.92l-19.623,0l0,10.174l18.377,0l-0,3.898l-18.377,-0l0,11.307l20.394,-0l-0,3.92l-24.79,-0Z" style="fill:#ff4044;fill-rule:nonzero;"/>
        <path d="M78.354,76.269l0,-33.219l4.396,-0l0,29.299l16.36,-0l0,3.92l-20.756,-0Z" style="fill:#ff4044;fill-rule:nonzero;"/>
    </g>
</svg>