<?xml version="1.0" encoding="UTF-8" standalone="no"?><!DOCTYPE svg PUBLIC "-//W3C//DTD SVG 1.1//EN" "http://www.w3.org/Graphics/SVG/1.1/DTD/svg11.dtd"><svg width="150px" height="150px" viewBox="0 0 100 100" version="1.1" xmlns="http://www.w3.org/2000/svg" xmlns:xlink="http://www.w3.org/1999/xlink" xml:space="preserve" xmlns:serif="http://www.serif.com/" style="fill-rule:evenodd;clip-rule:evenodd;stroke-linejoin:round;stroke-miterlimit:2;"><g><path d="M51.935,6.101c24.494,0 44.345,19.851 44.345,44.345c-0,24.494 -19.851,44.346 -44.345,44.346c-24.495,-0 -44.346,-19.852 -44.346,-44.346c0,-24.494 19.851,-44.345 44.346,-44.345m-0,-3.274c-12.709,0 -24.673,4.941 -33.661,13.959c-8.988,8.988 -13.959,20.952 -13.959,33.66c0,12.709 4.941,24.673 13.959,33.661c8.988,8.988 20.952,13.958 33.661,13.958c12.708,0 24.672,-4.94 33.66,-13.958c8.988,-8.988 13.959,-20.952 13.959,-33.661c-0,-12.708 -4.941,-24.672 -13.959,-33.66c-8.988,-9.018 -20.952,-13.959 -33.66,-13.959Z" style="fill-rule:nonzero;"/><circle cx="51.935" cy="50.446" r="44.345" style="fill:#ff8000;"/></g><g><path d="M64.375,57.202l10.179,3.185c-1.608,5.595 -4.197,9.762 -7.828,12.47c-3.631,2.708 -8.214,4.048 -13.75,4.048c-6.905,-0 -12.559,-2.322 -16.994,-6.965c-4.434,-4.642 -6.637,-10.982 -6.637,-19.017c0,-8.483 2.232,-15.09 6.726,-19.822c4.494,-4.732 10.328,-7.083 17.53,-7.083c6.31,-0 11.488,1.845 15.476,5.536c2.292,2.172 4.078,5.297 5.298,9.434l-10.357,2.441c-0.655,-2.709 -1.935,-4.792 -3.839,-6.31c-1.905,-1.518 -4.286,-2.262 -7.114,-2.262c-3.779,0 -6.875,1.369 -9.285,4.078c-2.411,2.708 -3.631,7.113 -3.631,13.244c-0,6.488 1.161,11.101 3.482,13.839c2.321,2.738 5.417,4.107 9.256,4.107c2.708,-0 5.059,-0.863 7.024,-2.589c1.964,-1.816 3.452,-4.554 4.464,-8.334Z" style="fill-rule:nonzero;"/></g></svg>