<?xml version="1.0" encoding="UTF-8" standalone="no"?><!DOCTYPE svg PUBLIC "-//W3C//DTD SVG 1.1//EN" "http://www.w3.org/Graphics/SVG/1.1/DTD/svg11.dtd"><svg width="150px" height="150px" viewBox="0 0 100 100" version="1.1" xmlns="http://www.w3.org/2000/svg" xmlns:xlink="http://www.w3.org/1999/xlink" xml:space="preserve" xmlns:serif="http://www.serif.com/" style="fill-rule:evenodd;clip-rule:evenodd;stroke-linejoin:round;stroke-miterlimit:2;"><g><path d="M51.458,5.714c24.494,0 44.346,19.851 44.346,44.346c-0,24.494 -19.852,44.345 -44.346,44.345c-24.494,-0 -44.345,-19.851 -44.345,-44.345c0,-24.495 19.851,-44.346 44.345,-44.346m0,-3.274c-12.708,0 -24.672,4.941 -33.66,13.929c-8.988,8.988 -13.959,20.952 -13.959,33.661c0,12.708 4.941,24.672 13.959,33.66c8.988,8.989 20.952,13.959 33.66,13.959c12.709,-0 24.673,-4.941 33.661,-13.959c8.988,-8.988 13.958,-20.952 13.958,-33.66c0,-12.709 -4.94,-24.673 -13.928,-33.661c-9.018,-8.988 -20.953,-13.929 -33.691,-13.929Z" style="fill-rule:nonzero;"/><circle cx="51.458" cy="50.06" r="44.345" style="fill:#00c000;"/></g><g><path d="M31.667,24.405l10.029,-0l0,27.291c0,2.143 0.03,3.929 0.09,5.358c0.059,1.398 0.178,2.44 0.327,3.065c0,1.012 0.268,1.905 0.804,2.708c0.535,0.804 1.279,1.548 2.232,2.292c1.637,1.25 3.809,1.845 6.577,1.845c2.798,0 4.941,-0.595 6.399,-1.756c0.774,-0.654 1.429,-1.339 1.905,-2.053c0.476,-0.685 0.714,-1.459 0.714,-2.322c0,-0.654 0.06,-1.994 0.208,-4.018c0.149,-2.053 0.209,-3.541 0.209,-4.553l-0,-27.857l9.94,-0l0,26.488c0,2.53 -0.119,5.268 -0.387,8.244c-0.238,2.976 -0.387,4.494 -0.387,4.583c-0.625,2.59 -1.637,4.732 -3.065,6.429c-1.429,1.696 -3.333,3.036 -5.744,4.047c-2.381,1.012 -5.566,1.489 -9.494,1.489c-4.732,-0 -8.334,-0.566 -10.804,-1.667c-2.47,-1.101 -4.405,-2.56 -5.774,-4.286c-1.369,-1.756 -2.321,-3.631 -2.827,-5.625c0,-0.357 -0.149,-2.232 -0.476,-5.625c-0.298,-3.393 -0.476,-5.774 -0.476,-7.172l-0,-26.905Z" style="fill-rule:nonzero;"/></g></svg>