<?xml version="1.0" encoding="UTF-8" standalone="no"?><!DOCTYPE svg PUBLIC "-//W3C//DTD SVG 1.1//EN" "http://www.w3.org/Graphics/SVG/1.1/DTD/svg11.dtd"><svg width="150px" height="150px" viewBox="0 0 100 100" version="1.1" xmlns="http://www.w3.org/2000/svg" xmlns:xlink="http://www.w3.org/1999/xlink" xml:space="preserve" xmlns:serif="http://www.serif.com/" style="fill-rule:evenodd;clip-rule:evenodd;stroke-linejoin:round;stroke-miterlimit:2;"><g><path d="M53.393,6.964c24.494,0 44.345,19.851 44.345,44.346c0,24.494 -19.851,44.345 -44.345,44.345c-24.494,-0 -44.345,-19.851 -44.345,-44.345c-0,-24.495 19.851,-44.346 44.345,-44.346m-0,-3.274c-12.708,0 -24.673,4.941 -33.661,13.959c-8.988,8.988 -13.958,20.952 -13.958,33.661c-0,12.708 4.94,24.672 13.958,33.66c8.988,8.988 20.953,13.959 33.661,13.959c12.708,-0 24.672,-4.941 33.661,-13.959c8.988,-8.988 13.958,-20.952 13.958,-33.66c-0,-12.709 -4.941,-24.673 -13.958,-33.661c-8.989,-8.988 -20.953,-13.959 -33.661,-13.959Z" style="fill-rule:nonzero;"/><circle cx="53.393" cy="51.31" r="44.345" style="fill:#ff0;"/></g><g><path d="M35,76.548l0,-50.417l21.012,-0c5.298,-0 9.137,0.446 11.548,1.369c2.41,0.923 4.345,2.53 5.773,4.851c1.429,2.322 2.143,4.941 2.143,7.917c0,3.78 -1.101,6.905 -3.303,9.375c-2.203,2.47 -5.447,4.018 -9.792,4.672c2.143,1.25 3.869,2.62 5.238,4.078c1.339,1.458 3.274,4.226 5.833,8.333l6.072,9.822l-11.964,-0l-7.262,-10.983c-1.34,-2.083 -2.441,-3.72 -3.244,-4.851c-0.804,-1.16 -1.489,-1.994 -1.994,-2.529c-1.012,-1.042 -2.054,-1.756 -3.066,-2.143c-1.042,-0.357 -2.708,-0.536 -5.03,-0.536l-2.024,-0l0,21.042l-9.94,-0Zm9.94,-29.108l7.441,0c4.792,0 7.768,-0.208 8.929,-0.625c1.19,-0.416 2.113,-1.13 2.827,-2.142c0.714,-1.012 1.042,-2.262 1.042,-3.78c-0,-1.578 -0.447,-2.947 -1.34,-4.107c-0.893,-1.012 -2.172,-1.667 -3.809,-1.994c-0.834,-0.119 -3.274,-0.179 -7.262,-0.179l-7.828,0l0,12.827Z" style="fill-rule:nonzero;"/></g></svg>