<?xml version="1.0" encoding="UTF-8" standalone="no"?><!DOCTYPE svg PUBLIC "-//W3C//DTD SVG 1.1//EN" "http://www.w3.org/Graphics/SVG/1.1/DTD/svg11.dtd"><svg width="150px" height="150px" viewBox="0 0 100 100" version="1.1" xmlns="http://www.w3.org/2000/svg" xmlns:xlink="http://www.w3.org/1999/xlink" xml:space="preserve" xmlns:serif="http://www.serif.com/" style="fill-rule:evenodd;clip-rule:evenodd;stroke-linejoin:round;stroke-miterlimit:2;"><g><path d="M50.744,5.387c24.494,-0 44.345,19.851 44.345,44.345c0,24.494 -19.851,44.345 -44.345,44.345c-24.494,0 -44.345,-19.851 -44.345,-44.345c-0,-24.494 19.851,-44.345 44.345,-44.345m0,-3.274c-12.708,0 -24.673,4.941 -33.661,13.958c-8.988,8.989 -13.958,20.953 -13.958,33.661c0,12.708 4.94,24.673 13.958,33.661c8.988,8.988 20.953,13.958 33.661,13.958c12.708,0 24.673,-4.94 33.661,-13.958c8.988,-8.988 13.958,-20.953 13.958,-33.661c0,-12.708 -4.97,-24.672 -13.958,-33.661c-8.988,-8.988 -20.953,-13.958 -33.661,-13.958Z" style="fill-rule:nonzero;"/><circle cx="50.744" cy="49.732" r="44.345" style="fill:#f00;"/></g><g><path d="M37.054,74.97l-0,-50.446l33.898,-0l0,8.541l-23.869,0l0,11.935l20.655,-0l0,8.542l-20.655,-0l0,21.428l-10.029,0Z" style="fill-rule:nonzero;"/></g></svg>