<?xml version="1.0" encoding="UTF-8" standalone="no"?><!DOCTYPE svg PUBLIC "-//W3C//DTD SVG 1.1//EN" "http://www.w3.org/Graphics/SVG/1.1/DTD/svg11.dtd"><svg width="150px" height="150px" viewBox="0 0 100 100" version="1.1" xmlns="http://www.w3.org/2000/svg" xmlns:xlink="http://www.w3.org/1999/xlink" xml:space="preserve" xmlns:serif="http://www.serif.com/" style="fill-rule:evenodd;clip-rule:evenodd;stroke-linejoin:round;stroke-miterlimit:10;"><g><path d="M26.083,25.271c0,-12.96 10.506,-23.466 23.466,-23.466c12.959,0 23.465,10.506 23.465,23.466c0,12.96 -10.506,23.465 -23.465,23.465c-12.96,0 -23.466,-10.505 -23.466,-23.465Z" style="fill:none;stroke:#00f;stroke-width:2.48px;"/><path d="M26.083,25.271l0.103,70.322" style="fill:none;stroke:#00f;stroke-width:2.48px;stroke-linecap:round;"/><path d="M22.744,95.668c-0,-1.944 1.576,-3.52 3.52,-3.52c1.944,0 3.519,1.576 3.519,3.52c0,1.944 -1.575,3.52 -3.519,3.52c-1.944,-0 -3.52,-1.576 -3.52,-3.52Z" style="fill:#00f;stroke:#00f;stroke-width:0.62px;stroke-linecap:round;"/><text x="29.075px" y="30.686px" style="font-family:'Arial-BoldMT', 'Arial', sans-serif;font-weight:700;font-size:14.982px;fill:#00f;">VKFO</text></g></svg>